<?xml version="1.0" encoding="UTF-8" standalone="no"?>
<!-- Created with Inkscape (http://www.inkscape.org/) -->

<svg
   version="1.1"
   id="svg1"
   width="157.13324"
   height="128.13879"
   viewBox="0 0 157.13324 128.13879"
   sodipodi:docname="Fundamentals of Electric Circuits (7E).pdf"
   inkscape:version="1.3 (0e150ed6c4, 2023-07-21)"
   inkscape:dataloss="true"
   xmlns:inkscape="http://www.inkscape.org/namespaces/inkscape"
   xmlns:sodipodi="http://sodipodi.sourceforge.net/DTD/sodipodi-0.dtd"
   xmlns="http://www.w3.org/2000/svg"
   xmlns:svg="http://www.w3.org/2000/svg">
  <defs
     id="defs1">
    <clipPath
       clipPathUnits="userSpaceOnUse"
       id="clipPath414">
      <path
         d="m 457.975,128.323 h 104.37 v 94.631 h -104.37 z"
         transform="translate(-457.97501,-198.84561)"
         id="path414" />
    </clipPath>
    <clipPath
       clipPathUnits="userSpaceOnUse"
       id="clipPath418">
      <path
         d="m 457.975,128.323 h 104.37 v 94.631 h -104.37 z"
         transform="matrix(1,0,0,-1,-556.85701,190.0429)"
         id="path418" />
    </clipPath>
    <clipPath
       clipPathUnits="userSpaceOnUse"
       id="clipPath422">
      <path
         d="m 457.975,128.323 h 104.37 v 94.631 h -104.37 z"
         transform="matrix(1,0,0,-1,-556.12402,131.8671)"
         id="path422" />
    </clipPath>
    <clipPath
       clipPathUnits="userSpaceOnUse"
       id="clipPath431">
      <path
         d="m 457.975,128.323 h 104.37 v 94.631 h -104.37 z"
         transform="matrix(1,0,0,-1,-471.56411,216.34221)"
         id="path431" />
    </clipPath>
  </defs>
  <sodipodi:namedview
     id="namedview1"
     pagecolor="#ffffff"
     bordercolor="#000000"
     borderopacity="0.25"
     inkscape:showpageshadow="2"
     inkscape:pageopacity="0.0"
     inkscape:pagecheckerboard="0"
     inkscape:deskcolor="#d1d1d1"
     inkscape:zoom="1.3083045"
     inkscape:cx="514.7884"
     inkscape:cy="736.83151"
     inkscape:window-width="1348"
     inkscape:window-height="874"
     inkscape:window-x="0"
     inkscape:window-y="0"
     inkscape:window-maximized="1"
     inkscape:current-layer="layer-MC0" />
  <g
     id="layer-MC0"
     inkscape:groupmode="layer"
     inkscape:label="Default"
     transform="translate(-601.25818,-781.43835)">
    <g
       id="g452">
      <rect
         style="fill:#ffffff;stroke-width:1.97014"
         id="rect452"
         width="157.13324"
         height="128.13876"
         x="601.25818"
         y="781.43835" />
      <g
         id="g410">
        <g
           id="group-MC14" />
        <path
           id="path411"
           d="M 0,0 H 96.089"
           style="fill:none;stroke:#231f20;stroke-width:0.5;stroke-linecap:butt;stroke-linejoin:miter;stroke-miterlimit:4;stroke-dasharray:none;stroke-opacity:1"
           transform="matrix(1.3333333,0,0,-1.3333333,616.96667,814.91547)" />
        <path
           id="path412"
           d="M 0,0 -1.181,-2.032 3.795,0 -1.181,2.032 Z"
           style="fill:#231f20;fill-opacity:1;fill-rule:nonzero;stroke:none"
           transform="matrix(1.3333333,0,0,-1.3333333,744.7332,814.9152)" />
        <path
           id="path413"
           d="M 0,0 H 17.699 L 73,-57 h 31.276"
           style="fill:none;stroke:#bc2133;stroke-width:1;stroke-linecap:butt;stroke-linejoin:miter;stroke-miterlimit:4;stroke-dasharray:none;stroke-opacity:1"
           transform="matrix(1.3333333,0,0,-1.3333333,610.63333,814.87253)"
           clip-path="url(#clipPath414)" />
        <path
           id="path415"
           d="M 0,0 V 3.5 M 27.624,0 V 3.5 M -27.625,0 v 3.5"
           style="fill:none;stroke:#231f20;stroke-width:0.5;stroke-linecap:butt;stroke-linejoin:miter;stroke-miterlimit:4;stroke-dasharray:none;stroke-opacity:1"
           transform="matrix(1.3333333,0,0,-1.3333333,671.05067,814.91547)" />
        <g
           id="g415"
           aria-label="ω&#10;‒"
           transform="matrix(1.3333333,0,0,1.3333333,742.476,826.60947)"
           clip-path="url(#clipPath418)">
          <path
             id="path416"
             d="m 3.7738594,-3.5156937 v 0.1289062 c 0.3398437,0 0.65625,0.058594 0.75,0.4335938 0.035156,0.1171875 0.035156,0.3398437 0.035156,0.4921875 0,0.5039062 -0.1289062,1.2070312 -0.375,1.6757812 -0.1875,0.328125 -0.4921875,0.703125 -0.9375,0.703125 -0.3398437,0 -0.5273437,-0.328125 -0.5273437,-0.66796875 0,-0.0585938 0,-0.1171875 0.023437,-0.17578125 0.070312,-0.1171875 0.1757812,-0.2929687 0.2460937,-0.3984375 0.1757813,-0.3046875 0.328125,-0.8085937 0.328125,-1.171875 0,-0.2226562 -0.082031,-0.375 -0.2695312,-0.375 -0.3046875,0 -0.5390625,0.3867188 -0.65625,0.8085938 -0.058594,0.234375 -0.09375,0.4804687 -0.09375,0.6914062 0,0.1054688 0.011719,0.28125 0.023437,0.3984375 -0.1523438,0.4453125 -0.6210938,0.890625 -0.9726563,0.890625 -0.2578125,0 -0.45703122,-0.19921875 -0.45703122,-0.75 0,-0.6679687 0.29296872,-1.5234375 0.69140622,-2.0390625 0.3046875,-0.375 0.6679688,-0.515625 1.078125,-0.515625 V -3.5156937 H 2.5082344 c -1.125,0 -1.94531252,0.8554687 -2.21484377,1.828125 -0.0585937,0.2109375 -0.0820312,0.4335937 -0.0820312,0.6445312 0,0.796875 0.52734375,1.13671875 1.04296877,1.13671875 0.5624999,0 0.8554688,-0.19921875 1.171875,-0.57421875 0.1289063,0.28125 0.2929688,0.57421875 0.9140625,0.57421875 0.515625,0 1.1249999,-0.3515625 1.5468749,-1.13671875 0.2109375,-0.3984375 0.3515625,-0.8085937 0.3515625,-1.2421875 0,-0.375 -0.1054687,-0.7382812 -0.3632812,-0.9609375 -0.2109375,-0.1875 -0.5390625,-0.2695312 -0.9492188,-0.2695312 z m 0,0"
             style="fill:#231f20;fill-opacity:1;fill-rule:nonzero;stroke:none" />
          <path
             id="path417"
             d="m -18.658758,56.123955 v -0.527344 h -3.996094 v 0.527344 z m 0,0"
             style="fill:#231f20;fill-opacity:1;fill-rule:nonzero;stroke:none" />
        </g>
        <g
           id="g418"
           aria-label="180N"
           transform="matrix(1.3333333,0,0,1.3333333,717.6056,904.1772)">
          <path
             id="path419"
             d="M 2.0858391,-0.00106406 V -5.3448141 H 1.4999016 l -1.33593754,1.3828125 0.3984375,0.4101563 0.86718754,-0.9023438 v 4.45312504 z m 2.9589843,0.09375 c 1.0429688,0 1.9101563,-0.5390625 1.9101563,-1.44140624 0,-0.7148438 -0.609375,-1.2070313 -1.2773438,-1.40625 0.6210938,-0.1757813 1.1953125,-0.5742188 1.1953125,-1.2773438 0,-0.9609375 -0.9492187,-1.3828125 -1.828125,-1.3828125 -0.890625,0 -1.828125,0.421875 -1.828125,1.3828125 0,0.703125 0.5742188,1.1015625 1.1835938,1.2773438 -0.6679688,0.1992187 -1.265625,0.6914062 -1.265625,1.40625 0,0.90234374 0.8554687,1.44140624 1.9101562,1.44140624 z m 0,-3.11718754 c -0.328125,-0.058594 -1.1601562,-0.2695312 -1.1601562,-0.9257812 0,-0.5507813 0.5039062,-0.8789063 1.1601562,-0.8789063 0.6328125,0 1.1601563,0.328125 1.1601563,0.8789063 0,0.65625 -0.8320313,0.8671875 -1.1601563,0.9257812 z m 0,2.53125004 c -0.6679687,0 -1.2539062,-0.3515625 -1.2539062,-0.93750004 0,-0.6914062 0.9257812,-0.984375 1.2539062,-1.03125 0.328125,0.046875 1.2421875,0.3398438 1.2421875,1.03125 0,0.58593754 -0.5859375,0.93750004 -1.2421875,0.93750004 z m 4.7636719,0.5859375 c 1.4531247,0 2.0390627,-1.46484374 2.0390627,-2.75390624 0,-1.3125 -0.585938,-2.7539063 -2.0390627,-2.7539063 -1.4648437,0 -2.0390625,1.4414063 -2.0390625,2.7539063 0,1.2890625 0.5742188,2.75390624 2.0390625,2.75390624 z m 0,-0.5859375 c -1.0195312,0 -1.359375,-1.11328124 -1.359375,-2.16796874 0,-1.0664063 0.3398438,-2.1679688 1.359375,-2.1679688 1.0195317,0 1.3593747,1.1015625 1.3593747,2.1679688 0,1.0546875 -0.339843,2.16796874 -1.3593747,2.16796874 z m 0,0"
             style="fill:#231f20;fill-opacity:1;fill-rule:nonzero;stroke:none" />
          <path
             id="path420"
             d="m 16.860253,-0.00106406 1.183594,-5.34375004 h -0.667969 l -0.9375,4.2773438 -2.132812,-4.2773438 h -0.679688 l -1.183594,5.34375004 h 0.667969 l 0.960938,-4.35937504 2.15625,4.35937504 z m 0,0"
             style="fill:#231f20;fill-opacity:1;fill-rule:nonzero;stroke:none" />
        </g>
        <path
           id="path421"
           d="m 2.7431875,-4.2666891 c 0,-0.6328125 -0.5039062,-1.1484375 -1.125,-1.1484375 -0.65625,0 -1.16015625,0.5039063 -1.16015625,1.1367188 0,0.65625 0.4921875,1.1601562 1.14843755,1.1601562 0.6328125,0 1.1367187,-0.5039062 1.1367187,-1.1484375 z M 2.4385,-4.2784078 c 0,0.4804687 -0.375,0.8789062 -0.8320312,0.8789062 -0.4570313,0 -0.8320313,-0.3867187 -0.8320313,-0.8671875 0,-0.46875 0.375,-0.8671875 0.8085938,-0.8671875 0.46875,0 0.8554687,0.3867188 0.8554687,0.8554688 z m 0,0"
           style="fill:#231f20;fill-opacity:1;fill-rule:nonzero;stroke:none"
           aria-label="°"
           transform="matrix(1.3333333,0,0,1.3333333,741.49867,904.1772)"
           clip-path="url(#clipPath422)" />
        <g
           id="g422"
           aria-label="0°&#10;ω"
           transform="matrix(1.3333333,0,0,1.3333333,624.236,828.116)">
          <path
             id="path423"
             d="m 2.448,0.09464063 c 1.453125,0 2.0390625,-1.46484373 2.0390625,-2.75390623 0,-1.3125 -0.5859375,-2.7539063 -2.0390625,-2.7539063 -1.46484375,0 -2.0390625,1.4414063 -2.0390625,2.7539063 0,1.2890625 0.57421875,2.75390623 2.0390625,2.75390623 z m 0,-0.5859375 c -1.0195312,0 -1.359375,-1.11328123 -1.359375,-2.16796873 0,-1.0664063 0.3398438,-2.1679688 1.359375,-2.1679688 1.0195313,0 1.359375,1.1015625 1.359375,2.1679688 0,1.0546875 -0.3398437,2.16796873 -1.359375,2.16796873 z m 0,0"
             style="fill:#231f20;fill-opacity:1;fill-rule:nonzero;stroke:none" />
          <path
             id="path424"
             d="m 7.6394063,-4.2647344 c 0,-0.6328125 -0.5039063,-1.1484375 -1.125,-1.1484375 -0.65625,0 -1.1601563,0.5039063 -1.1601563,1.1367188 0,0.65625 0.4921875,1.1601562 1.1484375,1.1601562 0.6328125,0 1.1367188,-0.5039062 1.1367188,-1.1484375 z m -0.3046875,-0.011719 c 0,0.4804687 -0.375,0.8789062 -0.8320313,0.8789062 -0.4570312,0 -0.8320312,-0.3867187 -0.8320312,-0.8671875 0,-0.46875 0.375,-0.8671875 0.8085937,-0.8671875 0.46875,0 0.8554688,0.3867188 0.8554688,0.8554688 z m 0,0"
             style="fill:#231f20;fill-opacity:1;fill-rule:nonzero;stroke:none" />
          <path
             id="path425"
             d="m 34.662844,-24.634852 v 0.128907 c 0.339844,0 0.65625,0.05859 0.75,0.433593 0.03516,0.117188 0.03516,0.339844 0.03516,0.492188 0,0.503906 -0.128906,1.207031 -0.375,1.675781 -0.1875,0.328125 -0.492187,0.703125 -0.9375,0.703125 -0.339844,0 -0.527344,-0.328125 -0.527344,-0.667969 0,-0.05859 0,-0.117187 0.02344,-0.175781 0.07031,-0.117187 0.175781,-0.292969 0.246094,-0.398437 0.175781,-0.304688 0.328125,-0.808594 0.328125,-1.171875 0,-0.222657 -0.08203,-0.375 -0.269532,-0.375 -0.304687,0 -0.539062,0.386718 -0.65625,0.808593 -0.05859,0.234375 -0.09375,0.480469 -0.09375,0.691407 0,0.105468 0.01172,0.28125 0.02344,0.398437 -0.152344,0.445313 -0.621094,0.890625 -0.972656,0.890625 -0.257813,0 -0.457032,-0.199219 -0.457032,-0.75 0,-0.667969 0.292969,-1.523437 0.691407,-2.039062 0.304687,-0.375 0.667968,-0.515625 1.078125,-0.515625 v -0.128907 h -0.152344 c -1.125,0 -1.945313,0.855469 -2.214844,1.828125 -0.05859,0.210938 -0.08203,0.433594 -0.08203,0.644532 0,0.796875 0.527344,1.136718 1.042969,1.136718 0.5625,0 0.855468,-0.199218 1.171875,-0.574218 0.128906,0.28125 0.292968,0.574218 0.914062,0.574218 0.515625,0 1.125,-0.351562 1.546875,-1.136718 0.210938,-0.398438 0.351563,-0.808594 0.351563,-1.242188 0,-0.375 -0.105469,-0.738281 -0.363282,-0.960937 -0.210937,-0.1875 -0.539062,-0.269532 -0.949218,-0.269532 z m 0,0"
             style="fill:#231f20;fill-opacity:1;fill-rule:nonzero;stroke:none" />
        </g>
        <path
           id="path426"
           d="m 2.6706563,0.00137969 -0.9375,-1.58203129 1.5820312,-1.3125 H 2.7175313 L 0.8776875,-1.3814328 1.4519063,-3.9947141 H 1.0065938 L 0.1276875,0.00137969 H 0.573 L 0.7605,-0.83065156 1.3581563,-1.3228391 2.1315938,0.00137969 Z m 0,0"
           style="fill:#231f20;fill-opacity:1;fill-rule:nonzero;stroke:none"
           aria-label="k"
           transform="matrix(1.3333333,0,0,1.3333333,672.736,802.62707)" />
        <g
           id="g426"
           aria-label="10ω"
           transform="matrix(1.3333333,0,0,1.3333333,697.3468,802.62907)">
          <path
             id="path427"
             d="M 2.0865797,-1.203125e-4 V -5.3438703 H 1.5006422 l -1.33593751,1.3828125 0.3984375,0.4101562 0.86718751,-0.9023437 V -1.203125e-4 Z M 5.1598219,0.09362969 c 1.453125,0 2.0390625,-1.46484379 2.0390625,-2.75390629 0,-1.3125 -0.5859375,-2.7539062 -2.0390625,-2.7539062 -1.4648438,0 -2.0390625,1.4414062 -2.0390625,2.7539062 0,1.2890625 0.5742187,2.75390629 2.0390625,2.75390629 z m 0,-0.5859375 c -1.0195313,0 -1.359375,-1.11328129 -1.359375,-2.16796879 0,-1.0664062 0.3398437,-2.1679687 1.359375,-2.1679687 1.0195312,0 1.359375,1.1015625 1.359375,2.1679687 0,1.0546875 -0.3398438,2.16796879 -1.359375,2.16796879 z m 0,0"
             style="fill:#231f20;fill-opacity:1;fill-rule:nonzero;stroke:none" />
          <path
             id="path428"
             d="m 11.382478,-3.5157453 v 0.1289062 c 0.339844,0 0.65625,0.058594 0.75,0.4335938 0.03516,0.1171875 0.03516,0.3398437 0.03516,0.4921875 0,0.5039062 -0.128906,1.2070312 -0.375,1.67578124 -0.1875,0.328125 -0.492187,0.703125 -0.9375,0.703125 -0.339843,0 -0.527343,-0.328125 -0.527343,-0.66796875 0,-0.0585938 0,-0.1171875 0.02344,-0.17578125 0.07031,-0.11718754 0.175781,-0.29296874 0.246094,-0.39843754 0.175781,-0.3046875 0.328125,-0.8085937 0.328125,-1.171875 0,-0.2226562 -0.08203,-0.375 -0.269531,-0.375 -0.304688,0 -0.539063,0.3867188 -0.6562504,0.8085938 -0.058594,0.234375 -0.09375,0.4804687 -0.09375,0.6914062 0,0.1054688 0.011719,0.28125 0.023437,0.39843754 -0.1523437,0.4453125 -0.6210937,0.890625 -0.9726562,0.890625 -0.2578125,0 -0.4570313,-0.19921875 -0.4570313,-0.75 0,-0.66796874 0.2929688,-1.52343754 0.6914063,-2.03906254 0.3046875,-0.375 0.6679687,-0.515625 1.0781256,-0.515625 V -3.5157453 H 10.11686 c -1.1250004,0 -1.9453129,0.8554687 -2.2148441,1.828125 -0.058594,0.2109375 -0.082031,0.4335937 -0.082031,0.6445312 0,0.79687504 0.5273438,1.13671879 1.0429688,1.13671879 0.5625,0 0.8554687,-0.19921875 1.1718753,-0.57421875 0.128906,0.28125 0.292969,0.57421875 0.914062,0.57421875 0.515625,0 1.125,-0.3515625 1.546875,-1.13671879 0.210938,-0.3984375 0.351563,-0.8085937 0.351563,-1.2421875 0,-0.375 -0.105469,-0.7382812 -0.363281,-0.9609375 -0.210938,-0.1875 -0.539063,-0.2695312 -0.949219,-0.2695312 z m 0,0"
             style="fill:#231f20;fill-opacity:1;fill-rule:nonzero;stroke:none" />
        </g>
        <path
           id="path429"
           d="m 2.6724203,8.5625e-4 -0.9375,-1.58203125 1.5820313,-1.3125 H 2.7192953 L 0.87945156,-1.3819563 1.4536703,-3.9952375 H 1.0083578 L 0.12945156,8.5625e-4 h 0.4453125 l 0.1875,-0.83203125 0.59765624,-0.4921875 0.7734375,1.32421875 z m 0,0"
           style="fill:#231f20;fill-opacity:1;fill-rule:nonzero;stroke:none"
           aria-label="k"
           transform="matrix(1.3333333,0,0,1.3333333,714.80787,805.29573)" />
        <path
           id="path430"
           d="m 3.7747672,-3.5161984 v 0.1289062 c 0.3398437,0 0.65625,0.058594 0.75,0.4335938 0.035156,0.1171875 0.035156,0.3398437 0.035156,0.4921875 0,0.5039062 -0.1289062,1.2070312 -0.375,1.67578121 -0.1875,0.328125 -0.4921875,0.703125 -0.9375,0.703125 -0.3398437,0 -0.5273437,-0.328125 -0.5273437,-0.66796875 0,-0.0585938 0,-0.1171875 0.023437,-0.17578125 0.070312,-0.11718751 0.1757812,-0.29296871 0.2460937,-0.39843751 0.1757813,-0.3046875 0.328125,-0.8085937 0.328125,-1.171875 0,-0.2226562 -0.082031,-0.375 -0.2695312,-0.375 -0.3046875,0 -0.5390625,0.3867188 -0.65625,0.8085938 -0.058594,0.234375 -0.09375,0.4804687 -0.09375,0.6914062 0,0.1054688 0.011719,0.28125 0.023437,0.39843751 -0.1523438,0.4453125 -0.6210938,0.890625 -0.9726563,0.890625 -0.2578125,0 -0.45703121,-0.19921875 -0.45703121,-0.75 0,-0.66796871 0.29296871,-1.52343751 0.69140621,-2.03906251 0.3046875,-0.375 0.6679688,-0.515625 1.078125,-0.515625 V -3.5161984 H 2.5091422 c -1.125,0 -1.94531251,0.8554687 -2.21484376,1.828125 -0.0585938,0.2109375 -0.0820313,0.4335937 -0.0820313,0.6445312 0,0.79687501 0.52734375,1.13671876 1.04296866,1.13671876 0.5625,0 0.8554689,-0.19921875 1.1718751,-0.57421875 0.1289063,0.28125 0.2929688,0.57421875 0.9140625,0.57421875 0.515625,0 1.1249999,-0.3515625 1.5468749,-1.13671876 0.2109375,-0.3984375 0.3515625,-0.8085937 0.3515625,-1.2421875 0,-0.375 -0.1054687,-0.7382812 -0.3632812,-0.9609375 -0.2109375,-0.1875 -0.5390625,-0.2695312 -0.9492188,-0.2695312 z m 0,0"
           style="fill:#231f20;fill-opacity:1;fill-rule:nonzero;stroke:none"
           aria-label="ω"
           transform="matrix(1.3333333,0,0,1.3333333,628.75213,791.54373)"
           clip-path="url(#clipPath431)" />
        <path
           id="path432"
           d="m 2.6726094,4.03125e-4 -0.9375,-1.582031225 1.5820312,-1.3125 H 2.7194844 L 0.87964063,-1.3824094 1.4538594,-3.9956906 H 1.0085469 L 0.12964063,4.03125e-4 h 0.4453125 l 0.1875,-0.832031245 L 1.3601094,-1.3238156 2.1335469,4.03125e-4 Z m 0,0"
           style="fill:#231f20;fill-opacity:1;fill-rule:nonzero;stroke:none"
           aria-label="k"
           transform="matrix(1.3333333,0,0,1.3333333,636.06933,794.2104)" />
        <path
           id="path433"
           d="m 2.0848688,-1.25e-4 v -5.34375 H 1.4989313 L 0.16299375,-3.9610625 0.56143125,-3.5509063 1.4286188,-4.45325 v 4.453125 z m 3.0761718,0.09375 c 1.453125,0 2.0390625,-1.4648438 2.0390625,-2.7539063 0,-1.3125 -0.5859375,-2.7539062 -2.0390625,-2.7539062 -1.4648437,0 -2.0390625,1.4414062 -2.0390625,2.7539062 0,1.2890625 0.5742188,2.7539063 2.0390625,2.7539063 z m 0,-0.5859375 c -1.0195312,0 -1.359375,-1.1132813 -1.359375,-2.1679688 0,-1.0664062 0.3398438,-2.1679687 1.359375,-2.1679687 1.0195313,0 1.359375,1.1015625 1.359375,2.1679687 0,1.0546875 -0.3398437,2.1679688 -1.359375,2.1679688 z m 0,0"
           style="fill:#231f20;fill-opacity:1;fill-rule:nonzero;stroke:none"
           aria-label="10"
           transform="matrix(1.3333333,0,0,1.3333333,629.1108,804.81267)" />
        <path
           id="path434"
           d="M 0,0 H 7.75"
           style="fill:none;stroke:#231f20;stroke-width:0.5;stroke-linecap:butt;stroke-linejoin:miter;stroke-miterlimit:4;stroke-dasharray:none;stroke-opacity:1"
           transform="matrix(1.3333333,0,0,-1.3333333,629.35213,795.96107)" />
      </g>
    </g>
  </g>
</svg>
