<?xml version="1.0" encoding="UTF-8" standalone="no"?>
<!-- Created with Inkscape (http://www.inkscape.org/) -->

<svg
   version="1.1"
   id="svg1"
   width="154.37738"
   height="112.03967"
   viewBox="0 0 154.37738 112.03967"
   sodipodi:docname="Fundamentals of Electric Circuits (7E).pdf"
   inkscape:version="1.3 (0e150ed6c4, 2023-07-21)"
   inkscape:dataloss="true"
   xmlns:inkscape="http://www.inkscape.org/namespaces/inkscape"
   xmlns:sodipodi="http://sodipodi.sourceforge.net/DTD/sodipodi-0.dtd"
   xmlns="http://www.w3.org/2000/svg"
   xmlns:svg="http://www.w3.org/2000/svg">
  <defs
     id="defs1">
    <clipPath
       clipPathUnits="userSpaceOnUse"
       id="clipPath283">
      <path
         d="m 283.612,242.269 h 104.287 v 78.556 H 283.612 Z"
         transform="translate(-361.56901,-320.57261)"
         id="path283" />
    </clipPath>
    <clipPath
       clipPathUnits="userSpaceOnUse"
       id="clipPath285">
      <path
         d="m 283.612,242.269 h 104.287 v 78.556 H 283.612 Z"
         transform="matrix(1,0,0,-1,-382.41001,245.8846)"
         id="path285" />
    </clipPath>
    <clipPath
       clipPathUnits="userSpaceOnUse"
       id="clipPath289">
      <path
         d="m 283.612,242.269 h 104.287 v 78.556 H 283.612 Z"
         transform="matrix(1,0,0,-1,-283.612,307.94761)"
         id="path289" />
    </clipPath>
    <clipPath
       clipPathUnits="userSpaceOnUse"
       id="clipPath293">
      <path
         d="m 283.612,242.269 h 104.287 v 78.556 H 283.612 Z"
         transform="translate(-349.47721,-306.12631)"
         id="path293" />
    </clipPath>
    <clipPath
       clipPathUnits="userSpaceOnUse"
       id="clipPath295">
      <path
         d="m 283.612,242.269 h 104.287 v 78.556 H 283.612 Z"
         transform="translate(-348.18231,-305.93931)"
         id="path295" />
    </clipPath>
  </defs>
  <sodipodi:namedview
     id="namedview1"
     pagecolor="#ffffff"
     bordercolor="#000000"
     borderopacity="0.25"
     inkscape:showpageshadow="2"
     inkscape:pageopacity="0.0"
     inkscape:pagecheckerboard="0"
     inkscape:deskcolor="#d1d1d1"
     inkscape:zoom="1.3083045"
     inkscape:cx="514.7884"
     inkscape:cy="736.83151"
     inkscape:window-width="1348"
     inkscape:window-height="874"
     inkscape:window-x="0"
     inkscape:window-y="0"
     inkscape:window-maximized="1"
     inkscape:current-layer="layer-MC0" />
  <g
     id="layer-MC0"
     inkscape:groupmode="layer"
     inkscape:label="Default"
     transform="translate(-372.50616,-647.91931)">
    <g
       id="g457">
      <rect
         style="fill:#ffffff;stroke-width:1.82601"
         id="rect440"
         width="154.37741"
         height="112.03968"
         x="372.50616"
         y="647.91931" />
      <g
         id="g279">
        <g
           id="group-MC6" />
        <path
           id="path280"
           d="M 0,0 H 96.251"
           style="fill:none;stroke:#231f20;stroke-width:0.5;stroke-linecap:butt;stroke-linejoin:miter;stroke-miterlimit:4;stroke-dasharray:none;stroke-opacity:1"
           transform="matrix(1.3333333,0,0,-1.3333333,384.15773,740.77893)" />
        <path
           id="path281"
           d="M 0,0 -1.18,-2.032 3.794,0 -1.18,2.032 Z"
           style="fill:#231f20;fill-opacity:1;fill-rule:nonzero;stroke:none"
           transform="matrix(1.3333333,0,0,-1.3333333,512.1384,740.7792)" />
        <path
           id="path282"
           d="M 0,0 -38.701,-66.119 H -73.748"
           style="fill:none;stroke:#bc2133;stroke-width:1;stroke-linecap:butt;stroke-linejoin:miter;stroke-miterlimit:4;stroke-dasharray:none;stroke-opacity:1"
           transform="matrix(1.3333333,0,0,-1.3333333,482.092,652.56987)"
           clip-path="url(#clipPath283)" />
        <path
           id="path284"
           d="m 3.7726172,-3.5167672 v 0.1289063 c 0.3398437,0 0.65625,0.058594 0.75,0.4335937 0.035156,0.1171875 0.035156,0.3398438 0.035156,0.4921875 0,0.5039063 -0.1289062,1.2070313 -0.375,1.67578126 -0.1875,0.328125 -0.4921875,0.703125 -0.9375,0.703125 -0.3398437,0 -0.5273437,-0.328125 -0.5273437,-0.66796875 0,-0.0585938 0,-0.1171875 0.023437,-0.17578125 0.070312,-0.11718746 0.1757812,-0.29296876 0.2460937,-0.39843746 0.1757813,-0.3046875 0.328125,-0.8085938 0.328125,-1.171875 0,-0.2226563 -0.082031,-0.375 -0.2695312,-0.375 -0.3046875,0 -0.5390625,0.3867187 -0.65625,0.8085937 -0.058594,0.234375 -0.09375,0.4804688 -0.09375,0.6914063 0,0.1054687 0.011719,0.28125 0.023437,0.39843746 -0.1523438,0.4453125 -0.6210938,0.890625 -0.9726563,0.890625 -0.2578125,0 -0.45703121,-0.19921875 -0.45703121,-0.75 0,-0.66796876 0.29296871,-1.52343746 0.69140621,-2.03906246 0.3046875,-0.375 0.6679688,-0.515625 1.078125,-0.515625 V -3.5167672 H 2.5069922 c -1.125,0 -1.94531251,0.8554688 -2.21484376,1.828125 -0.0585938,0.2109375 -0.0820313,0.4335938 -0.0820313,0.6445313 0,0.79687496 0.52734375,1.13671871 1.04296876,1.13671871 0.5625,0 0.8554688,-0.19921875 1.171875,-0.57421875 0.1289063,0.28125 0.2929688,0.57421875 0.9140625,0.57421875 0.515625,0 1.1249999,-0.3515625 1.5468749,-1.13671871 0.2109375,-0.3984375 0.3515625,-0.8085938 0.3515625,-1.2421875 0,-0.375 -0.1054687,-0.7382813 -0.3632812,-0.9609375 -0.2109375,-0.1875 -0.5390625,-0.2695313 -0.9492188,-0.2695313 z m 0,0"
           style="fill:#231f20;fill-opacity:1;fill-rule:nonzero;stroke:none"
           aria-label="ω"
           transform="matrix(1.3333333,0,0,1.3333333,509.88,752.15387)"
           clip-path="url(#clipPath285)" />
        <path
           id="path286"
           d="m 3.7742422,-3.5158094 v 0.1289063 c 0.3398437,0 0.65625,0.058594 0.75,0.4335937 0.035156,0.1171875 0.035156,0.3398438 0.035156,0.4921875 0,0.5039063 -0.1289062,1.2070313 -0.375,1.67578127 -0.1875,0.328125 -0.4921875,0.703125 -0.9375,0.703125 -0.3398437,0 -0.5273437,-0.328125 -0.5273437,-0.66796875 0,-0.0585938 0,-0.1171875 0.023437,-0.17578125 0.070312,-0.11718747 0.1757812,-0.29296877 0.2460937,-0.39843747 0.1757813,-0.3046875 0.328125,-0.8085938 0.328125,-1.171875 0,-0.2226563 -0.082031,-0.375 -0.2695312,-0.375 -0.3046875,0 -0.5390625,0.3867187 -0.65625,0.8085937 -0.058594,0.234375 -0.09375,0.4804688 -0.09375,0.6914063 0,0.1054687 0.011719,0.28125 0.023437,0.39843747 -0.1523438,0.4453125 -0.6210938,0.890625 -0.9726563,0.890625 -0.2578125,0 -0.45703121,-0.19921875 -0.45703121,-0.75 0,-0.66796877 0.29296871,-1.52343747 0.69140621,-2.03906247 0.3046875,-0.375 0.6679688,-0.515625 1.078125,-0.515625 V -3.5158094 H 2.5086172 c -1.125,0 -1.94531251,0.8554688 -2.21484376,1.828125 -0.0585938,0.2109375 -0.0820313,0.4335938 -0.0820313,0.6445313 0,0.79687497 0.52734375,1.13671872 1.04296876,1.13671872 0.5625,0 0.8554688,-0.19921875 1.171875,-0.57421875 0.1289063,0.28125 0.2929688,0.57421875 0.9140625,0.57421875 0.515625,0 1.125,-0.3515625 1.546875,-1.13671872 0.2109375,-0.3984375 0.3515625,-0.8085938 0.3515625,-1.2421875 0,-0.375 -0.1054688,-0.7382813 -0.3632813,-0.9609375 -0.2109375,-0.1875 -0.5390625,-0.2695313 -0.9492187,-0.2695313 z m 0,0"
           style="fill:#231f20;fill-opacity:1;fill-rule:nonzero;stroke:none"
           aria-label="ω"
           transform="matrix(1.3333333,0,0,1.3333333,425.06533,751.05493)" />
        <path
           id="path287"
           d="M 2.5313594,7.921875e-4 2.9766719,-2.0148328 c 0.011719,-0.058594 0.035156,-0.1757813 0.035156,-0.234375 0,-0.46875 -0.3515625,-0.7148438 -0.8671875,-0.7148438 -0.4101562,0 -0.7734375,0.2460938 -1.0195312,0.4921875 l 0.09375,-0.421875 H 0.77354688 L 0.12901563,7.921875e-4 h 0.4453125 L 1.0430781,-2.1085828 c 0.2226563,-0.234375 0.5625,-0.4570313 0.9257813,-0.4570313 0.3164062,0 0.5742187,0.1289063 0.5742187,0.46875 0,0.058594 -0.023437,0.140625 -0.035156,0.1992188 L 2.0860469,7.921875e-4 Z m 0,0"
           style="fill:#231f20;fill-opacity:1;fill-rule:nonzero;stroke:none"
           aria-label="n"
           transform="matrix(1.3333333,0,0,1.3333333,432.38267,753.7216)" />
        <path
           id="path288"
           d="M 3.4563594,-6.421875e-4 V -1.3482984 h 0.75 v -0.5859375 h -0.75 V -5.3443922 H 2.5422969 l -2.28515627,3.4335938 v 0.5625 H 2.7883906 V -6.421875e-4 Z M 2.7883906,-1.9342359 H 0.92510938 L 2.7883906,-4.7232984 Z m 4.125,2.02734371 c 1.453125,0 2.0390625,-1.46484371 2.0390625,-2.75390621 0,-1.3125 -0.5859375,-2.7539063 -2.0390625,-2.7539063 -1.4648437,0 -2.0390625,1.4414063 -2.0390625,2.7539063 0,1.2890625 0.5742188,2.75390621 2.0390625,2.75390621 z m 0,-0.5859375 c -1.0195312,0 -1.359375,-1.11328121 -1.359375,-2.16796871 0,-1.0664063 0.3398438,-2.1679688 1.359375,-2.1679688 1.0195313,0 1.359375,1.1015625 1.359375,2.1679688 0,1.0546875 -0.3398437,2.16796871 -1.359375,2.16796871 z m 0,0"
           style="fill:#231f20;fill-opacity:1;fill-rule:nonzero;stroke:none"
           aria-label="40"
           transform="matrix(1.3333333,0,0,1.3333333,378.14933,669.4032)"
           clip-path="url(#clipPath289)" />
        <g
           id="g289"
           aria-label="N dB/decade"
           transform="matrix(1.3333333,0,0,1.3333333,390.62933,669.4032)">
          <path
             id="path290"
             d="M 4.6051484,-6.421875e-4 5.7887422,-5.3443922 H 5.1207734 l -0.9375,4.2773438 -2.1328125,-4.2773438 H 1.3707734 L 0.18717969,-6.421875e-4 H 0.85514844 L 1.8160859,-4.3600172 l 2.15625,4.3593750125 z m 0,0"
             style="fill:#231f20;fill-opacity:1;fill-rule:nonzero;stroke:none" />
          <path
             id="path291"
             d="M 11.724289,-6.421875e-4 V -5.3443922 h -0.597656 v 2.0625 c -0.304688,-0.421875 -0.785156,-0.6796875 -1.3007814,-0.6796875 -1.0195313,0 -1.7226563,0.796875 -1.7226563,2.0273438 0,1.26562496 0.7148438,2.02734371 1.7226563,2.02734371 0.5390624,0 1.0195314,-0.28125 1.3007814,-0.66796875 V -6.421875e-4 Z M 9.9664766,-0.44595469 c -0.7734375,0 -1.2421875,-0.63281251 -1.2421875,-1.48828121 0,-0.8554688 0.46875,-1.4882813 1.2421875,-1.4882813 0.4804684,0 0.9492184,0.28125 1.1601564,0.6210938 v 1.7578125 c -0.210938,0.32812496 -0.679688,0.59765621 -1.1601564,0.59765621 z m 5.4199214,0.4453125025 c 0.972657,0 1.546875,-0.5859375025 1.546875,-1.4414062125 0,-0.6445313 -0.480468,-1.21875 -1.042968,-1.3125 0.492187,-0.1054688 0.9375,-0.5507813 0.9375,-1.21875 0,-0.8085938 -0.574219,-1.3710938 -1.5,-1.3710938 H 12.948898 V -6.421875e-4 Z M 15.222336,-3.0240797 h -1.605469 v -1.7226562 h 1.605469 c 0.597656,0 0.914062,0.3867187 0.914062,0.8671875 0,0.4804687 -0.316406,0.8554687 -0.914062,0.8554687 z m 0.02344,2.42578126 H 13.616867 V -2.4381422 h 1.628906 c 0.65625,0 0.996094,0.4335938 0.996094,0.9257813 0,0.56249996 -0.363281,0.91406246 -0.996094,0.91406246 z M 18.629563,0.16342031 20.528,-5.4967359 H 20.05925 L 18.160813,0.16342031 Z M 24.524094,-6.421875e-4 V -5.3443922 h -0.597656 v 2.0625 c -0.304688,-0.421875 -0.785157,-0.6796875 -1.300782,-0.6796875 -1.019531,0 -1.722656,0.796875 -1.722656,2.0273438 0,1.26562496 0.714844,2.02734371 1.722656,2.02734371 0.539063,0 1.019532,-0.28125 1.300782,-0.66796875 V -6.421875e-4 Z M 22.766281,-0.44595469 c -0.773437,0 -1.242187,-0.63281251 -1.242187,-1.48828121 0,-0.8554688 0.46875,-1.4882813 1.242187,-1.4882813 0.480469,0 0.949219,0.28125 1.160157,0.6210938 v 1.7578125 c -0.210938,0.32812496 -0.679688,0.59765621 -1.160157,0.59765621 z m 4.705078,0.5390625 c 0.632813,0 1.148438,-0.2109375 1.535157,-0.5859375 l -0.28125,-0.3984375 c -0.304688,0.31640625 -0.761719,0.4921875 -1.195313,0.4921875 -0.832031,0 -1.347656,-0.60937501 -1.394531,-1.33593751 h 3.128906 v -0.1523437 c 0,-1.1601563 -0.691406,-2.0742188 -1.851562,-2.0742188 -1.113282,0 -1.910157,0.9023438 -1.910157,2.0273438 0,1.20703121 0.820313,2.02734371 1.96875,2.02734371 z m 1.207032,-2.27343751 h -2.542969 c 0.03516,-0.5859375 0.445312,-1.2890625 1.265625,-1.2890625 0.878906,0 1.265625,0.7148438 1.277344,1.2890625 z m 3.260742,2.27343751 c 0.703125,0 1.113281,-0.28125 1.417969,-0.66796875 l -0.410157,-0.375 c -0.246093,0.3515625 -0.574218,0.50390625 -0.984375,0.50390625 -0.820312,0 -1.335937,-0.63281251 -1.335937,-1.48828121 0,-0.8554688 0.515625,-1.4882813 1.335937,-1.4882813 0.410157,0 0.738282,0.1523438 0.984375,0.5039063 l 0.410157,-0.375 c -0.304688,-0.375 -0.714844,-0.6679688 -1.417969,-0.6679688 -1.160156,0 -1.933594,0.8789063 -1.933594,2.0273438 0,1.14843746 0.773438,2.02734371 1.933594,2.02734371 z M 37.21257,-6.421875e-4 V -2.6607984 c 0,-0.9375 -0.679687,-1.3007813 -1.5,-1.3007813 -0.632812,0 -1.125,0.2109375 -1.546875,0.6445313 l 0.28125,0.4101562 c 0.339844,-0.3632812 0.726563,-0.5390625 1.183594,-0.5390625 0.5625,0 0.972656,0.3046875 0.972656,0.8203125 v 0.6914063 c -0.304687,-0.3515625 -0.75,-0.5273438 -1.277343,-0.5273438 -0.65625,0 -1.347657,0.4101563 -1.347657,1.2773438 0,0.84374996 0.691407,1.27734371 1.347657,1.27734371 0.527343,0 0.960937,-0.1875 1.277343,-0.5390625 V -6.421875e-4 Z M 35.548508,-0.34048594 c -0.5625,0 -0.960938,-0.3515625 -0.960938,-0.83203126 0,-0.5039062 0.398438,-0.8554687 0.960938,-0.8554687 0.421875,0 0.832031,0.1640625 1.054687,0.4804687 v 0.72656251 c -0.222656,0.328125 -0.632812,0.48046875 -1.054687,0.48046875 z m 6.254883,0.3398437525 V -5.3443922 h -0.597657 v 2.0625 c -0.304687,-0.421875 -0.785156,-0.6796875 -1.300781,-0.6796875 -1.019531,0 -1.722656,0.796875 -1.722656,2.0273438 0,1.26562496 0.714844,2.02734371 1.722656,2.02734371 0.539063,0 1.019531,-0.28125 1.300781,-0.66796875 V -6.421875e-4 Z M 40.045578,-0.44595469 c -0.773437,0 -1.242187,-0.63281251 -1.242187,-1.48828121 0,-0.8554688 0.46875,-1.4882813 1.242187,-1.4882813 0.480469,0 0.949219,0.28125 1.160156,0.6210938 v 1.7578125 c -0.210937,0.32812496 -0.679687,0.59765621 -1.160156,0.59765621 z m 4.705078,0.5390625 c 0.632813,0 1.148438,-0.2109375 1.535157,-0.5859375 l -0.28125,-0.3984375 c -0.304688,0.31640625 -0.761719,0.4921875 -1.195313,0.4921875 -0.832031,0 -1.347656,-0.60937501 -1.394531,-1.33593751 h 3.128906 v -0.1523437 c 0,-1.1601563 -0.691406,-2.0742188 -1.851562,-2.0742188 -1.113282,0 -1.910157,0.9023438 -1.910157,2.0273438 0,1.20703121 0.820313,2.02734371 1.96875,2.02734371 z m 1.207032,-2.27343751 h -2.542969 c 0.03516,-0.5859375 0.445312,-1.2890625 1.265625,-1.2890625 0.878906,0 1.265625,0.7148438 1.277344,1.2890625 z m 0,0"
             style="fill:#231f20;fill-opacity:1;fill-rule:nonzero;stroke:none" />
        </g>
        <path
           id="path292"
           d="M 0,0 C -2.066,2.235 -5.023,3.635 -8.308,3.635"
           style="fill:none;stroke:#231f20;stroke-width:0.5;stroke-linecap:butt;stroke-linejoin:miter;stroke-miterlimit:4;stroke-dasharray:none;stroke-opacity:1"
           transform="matrix(1.3333333,0,0,-1.3333333,465.9696,671.8316)"
           clip-path="url(#clipPath293)" />
        <path
           id="path294"
           d="M 0,0 3.561,-2.245 1.6,1.479 Z"
           style="fill:#231f20;fill-opacity:1;fill-rule:nonzero;stroke:none"
           transform="matrix(1.3333333,0,0,-1.3333333,464.24307,672.08093)"
           clip-path="url(#clipPath295)" />
      </g>
    </g>
  </g>
</svg>
