<?xml version="1.0" encoding="UTF-8" standalone="no"?>
<!-- Created with Inkscape (http://www.inkscape.org/) -->

<svg
   version="1.1"
   id="svg1"
   width="150.59747"
   height="75.577881"
   viewBox="0 0 150.59747 75.577881"
   sodipodi:docname="Fundamentals of Electric Circuits (7E).pdf"
   inkscape:version="1.3 (0e150ed6c4, 2023-07-21)"
   inkscape:dataloss="true"
   xmlns:inkscape="http://www.inkscape.org/namespaces/inkscape"
   xmlns:sodipodi="http://sodipodi.sourceforge.net/DTD/sodipodi-0.dtd"
   xmlns="http://www.w3.org/2000/svg"
   xmlns:svg="http://www.w3.org/2000/svg">
  <defs
     id="defs1">
    <clipPath
       clipPathUnits="userSpaceOnUse"
       id="clipPath231">
      <path
         d="m 283.487,476.978 h 100.031 v 48.397 H 283.487 Z"
         transform="translate(-283.7047,-524.92481)"
         id="path231" />
    </clipPath>
    <clipPath
       clipPathUnits="userSpaceOnUse"
       id="clipPath233">
      <path
         d="m 283.487,476.978 h 100.031 v 48.397 H 283.487 Z"
         transform="translate(-283.73901,-515.52202)"
         id="path233" />
    </clipPath>
    <clipPath
       clipPathUnits="userSpaceOnUse"
       id="clipPath243">
      <path
         d="m 283.487,476.978 h 100.838 v 48.397 H 283.487 Z"
         transform="translate(-355.74531,-486.09031)"
         id="path243" />
    </clipPath>
    <clipPath
       clipPathUnits="userSpaceOnUse"
       id="clipPath245">
      <path
         d="m 283.487,476.978 h 100.838 v 48.397 H 283.487 Z"
         transform="translate(-354.44941,-486.27781)"
         id="path245" />
    </clipPath>
  </defs>
  <sodipodi:namedview
     id="namedview1"
     pagecolor="#ffffff"
     bordercolor="#000000"
     borderopacity="0.25"
     inkscape:showpageshadow="2"
     inkscape:pageopacity="0.0"
     inkscape:pagecheckerboard="0"
     inkscape:deskcolor="#d1d1d1"
     inkscape:zoom="1.3083045"
     inkscape:cx="514.7884"
     inkscape:cy="736.83151"
     inkscape:window-width="1348"
     inkscape:window-height="874"
     inkscape:window-x="0"
     inkscape:window-y="0"
     inkscape:window-maximized="1"
     inkscape:current-layer="layer-MC0" />
  <g
     id="layer-MC0"
     inkscape:groupmode="layer"
     inkscape:label="Default"
     transform="translate(-368.31122,-373.91547)">
    <g
       id="g461">
      <rect
         style="fill:#ffffff;stroke-width:1.48126"
         id="rect436"
         width="150.59747"
         height="75.577896"
         x="368.31122"
         y="373.91547" />
      <g
         id="g229">
        <g
           id="group-MC3" />
        <path
           id="path230"
           d="M 0,0 97.535,-47.215"
           style="fill:none;stroke:#bc2133;stroke-width:1;stroke-linecap:butt;stroke-linejoin:miter;stroke-miterlimit:4;stroke-dasharray:none;stroke-opacity:1"
           transform="matrix(1.3333333,0,0,-1.3333333,378.27293,380.10027)"
           clip-path="url(#clipPath231)" />
        <path
           id="path232"
           d="M 0,0 H 96.25"
           style="fill:none;stroke:#231f20;stroke-width:0.5;stroke-linecap:butt;stroke-linejoin:miter;stroke-miterlimit:4;stroke-dasharray:none;stroke-opacity:1"
           transform="matrix(1.3333333,0,0,-1.3333333,378.31867,392.63733)"
           clip-path="url(#clipPath233)" />
        <path
           id="path234"
           d="M 0,0 -4.975,-2.032 -3.794,0 -4.975,2.032 Z"
           style="fill:#231f20;fill-opacity:1;fill-rule:nonzero;stroke:none"
           transform="matrix(1.3333333,0,0,-1.3333333,511.35867,392.63733)" />
        <path
           id="path235"
           d="M 0,0 V 3.5"
           style="fill:none;stroke:#231f20;stroke-width:0.5;stroke-linecap:butt;stroke-linejoin:miter;stroke-miterlimit:4;stroke-dasharray:none;stroke-opacity:1"
           transform="matrix(1.3333333,0,0,-1.3333333,403.65133,392.83653)" />
        <g
           id="g235"
           aria-label="ω&#10;1&#10;‒&#10;20N dB/decade"
           transform="matrix(1.3333333,0,0,1.3333333,504.04133,404.02147)">
          <path
             id="path236"
             d="m 3.7746641,-3.5170766 v 0.1289063 c 0.3398437,0 0.65625,0.058594 0.75,0.4335937 0.035156,0.1171875 0.035156,0.3398438 0.035156,0.4921875 0,0.5039063 -0.1289062,1.2070313 -0.375,1.67578129 -0.1875,0.328125 -0.4921875,0.703125 -0.9375,0.703125 -0.3398437,0 -0.5273437,-0.328125 -0.5273437,-0.66796875 0,-0.0585938 0,-0.1171875 0.023437,-0.17578125 0.070312,-0.11718749 0.1757812,-0.29296879 0.2460937,-0.39843749 0.1757813,-0.3046875 0.328125,-0.8085938 0.328125,-1.171875 0,-0.2226563 -0.082031,-0.375 -0.2695312,-0.375 -0.3046875,0 -0.5390625,0.3867187 -0.65625,0.8085937 -0.058594,0.234375 -0.09375,0.4804688 -0.09375,0.6914063 0,0.1054687 0.011719,0.28125 0.023437,0.39843749 -0.1523438,0.4453125 -0.6210938,0.890625 -0.9726563,0.890625 -0.2578125,0 -0.45703124,-0.19921875 -0.45703124,-0.75 0,-0.66796879 0.29296874,-1.52343749 0.69140624,-2.03906249 0.3046875,-0.375 0.6679688,-0.515625 1.078125,-0.515625 V -3.5170766 H 2.5090391 c -1.125,0 -1.94531254,0.8554688 -2.21484379,1.828125 -0.0585938,0.2109375 -0.0820313,0.4335938 -0.0820313,0.6445313 0,0.79687499 0.52734375,1.13671874 1.04296869,1.13671874 0.5625,0 0.8554688,-0.19921875 1.171875,-0.57421875 0.1289063,0.28125 0.2929688,0.57421875 0.9140625,0.57421875 0.515625,0 1.125,-0.3515625 1.546875,-1.13671874 0.2109375,-0.3984375 0.3515625,-0.8085938 0.3515625,-1.2421875 0,-0.375 -0.1054687,-0.7382813 -0.3632812,-0.9609375 -0.2109375,-0.1875 -0.5390625,-0.2695313 -0.9492188,-0.2695313 z m 0,0"
             style="fill:#231f20;fill-opacity:1;fill-rule:nonzero;stroke:none" />
          <path
             id="path237"
             d="m -74.521234,1.1528453 v -5.34375 h -0.585938 l -1.335937,1.3828125 0.398437,0.4101563 0.867188,-0.9023438 v 4.453125 z m 0,0"
             style="fill:#231f20;fill-opacity:1;fill-rule:nonzero;stroke:none" />
          <path
             id="path238"
             d="M -89.723383,24.420423 V 23.89308 h -3.996094 v 0.527343 z m 0,0"
             style="fill:#231f20;fill-opacity:1;fill-rule:nonzero;stroke:none" />
          <path
             id="path239"
             d="m -85.618891,26.465345 v -0.597656 h -2.625 c 1.488282,-1.171875 2.601563,-2.167969 2.601563,-3.257812 0,-1.054688 -0.914063,-1.558594 -1.792969,-1.558594 -0.761719,0 -1.453125,0.304687 -1.863281,0.832031 l 0.410156,0.433594 c 0.316406,-0.410156 0.808594,-0.679688 1.453125,-0.679688 0.550781,0 1.113281,0.292969 1.113281,0.972657 0,0.925781 -1.042968,1.816406 -2.964843,3.328125 v 0.527343 z m 3.052735,0.09375 c 1.453125,0 2.039062,-1.464843 2.039062,-2.753906 0,-1.3125 -0.585937,-2.753906 -2.039062,-2.753906 -1.464844,0 -2.039063,1.441406 -2.039063,2.753906 0,1.289063 0.574219,2.753906 2.039063,2.753906 z m 0,-0.585937 c -1.019531,0 -1.359375,-1.113281 -1.359375,-2.167969 0,-1.066406 0.339844,-2.167969 1.359375,-2.167969 1.019531,0 1.359375,1.101563 1.359375,2.167969 0,1.054688 -0.339844,2.167969 -1.359375,2.167969 z m 0,0"
             style="fill:#231f20;fill-opacity:1;fill-rule:nonzero;stroke:none" />
          <path
             id="path240"
             d="m -75.514398,26.465345 1.183593,-5.34375 h -0.667968 l -0.9375,4.277344 -2.132813,-4.277344 h -0.679687 l -1.183594,5.34375 h 0.667969 l 0.960937,-4.359375 2.15625,4.359375 z m 0,0"
             style="fill:#231f20;fill-opacity:1;fill-rule:nonzero;stroke:none" />
          <path
             id="path241"
             d="m -68.395258,26.465345 v -5.34375 h -0.597656 v 2.0625 c -0.304688,-0.421875 -0.785156,-0.679687 -1.300781,-0.679687 -1.019532,0 -1.722657,0.796875 -1.722657,2.027344 0,1.265625 0.714844,2.027343 1.722657,2.027343 0.539062,0 1.019531,-0.28125 1.300781,-0.667968 v 0.574218 z m -1.757812,-0.445312 c -0.773438,0 -1.242188,-0.632813 -1.242188,-1.488281 0,-0.855469 0.46875,-1.488282 1.242188,-1.488282 0.480468,0 0.949218,0.28125 1.160156,0.621094 v 1.757813 c -0.210938,0.328125 -0.679688,0.597656 -1.160156,0.597656 z m 5.419922,0.445312 c 0.972656,0 1.546875,-0.585937 1.546875,-1.441406 0,-0.644531 -0.480469,-1.21875 -1.042969,-1.3125 0.492187,-0.105469 0.9375,-0.550781 0.9375,-1.21875 0,-0.808594 -0.574219,-1.371094 -1.5,-1.371094 h -2.378906 v 5.34375 z m -0.164063,-3.023437 h -1.605469 v -1.722656 h 1.605469 c 0.597656,0 0.914063,0.386718 0.914063,0.867187 0,0.480469 -0.316407,0.855469 -0.914063,0.855469 z m 0.02344,2.425781 h -1.628907 v -1.839844 h 1.628907 c 0.65625,0 0.996093,0.433594 0.996093,0.925782 0,0.5625 -0.363281,0.914062 -0.996093,0.914062 z m 3.383789,0.761719 1.898437,-5.660156 h -0.46875 l -1.898437,5.660156 z m 5.894531,-0.164063 v -5.34375 h -0.597656 v 2.0625 c -0.304688,-0.421875 -0.785157,-0.679687 -1.300782,-0.679687 -1.019531,0 -1.722656,0.796875 -1.722656,2.027344 0,1.265625 0.714844,2.027343 1.722656,2.027343 0.539063,0 1.019532,-0.28125 1.300782,-0.667968 v 0.574218 z m -1.757813,-0.445312 c -0.773437,0 -1.242187,-0.632813 -1.242187,-1.488281 0,-0.855469 0.46875,-1.488282 1.242187,-1.488282 0.480469,0 0.949219,0.28125 1.160157,0.621094 v 1.757813 c -0.210938,0.328125 -0.679688,0.597656 -1.160157,0.597656 z m 4.705079,0.539062 c 0.632812,0 1.148437,-0.210937 1.535156,-0.585937 l -0.28125,-0.398438 c -0.304688,0.316407 -0.761719,0.492188 -1.195313,0.492188 -0.832031,0 -1.347656,-0.609375 -1.394531,-1.335938 h 3.128906 v -0.152343 c 0,-1.160157 -0.691406,-2.074219 -1.851562,-2.074219 -1.113281,0 -1.910156,0.902344 -1.910156,2.027344 0,1.207031 0.820312,2.027343 1.96875,2.027343 z m 1.207031,-2.273437 h -2.542969 c 0.03516,-0.585938 0.445313,-1.289063 1.265625,-1.289063 0.878906,0 1.265625,0.714844 1.277344,1.289063 z m 3.260742,2.273437 c 0.703125,0 1.113281,-0.28125 1.417969,-0.667968 l -0.410157,-0.375 c -0.246093,0.351562 -0.574218,0.503906 -0.984375,0.503906 -0.820312,0 -1.335937,-0.632813 -1.335937,-1.488281 0,-0.855469 0.515625,-1.488282 1.335937,-1.488282 0.410157,0 0.738282,0.152344 0.984375,0.503907 l 0.410157,-0.375 c -0.304688,-0.375 -0.714844,-0.667969 -1.417969,-0.667969 -1.160156,0 -1.933594,0.878906 -1.933594,2.027344 0,1.148437 0.773438,2.027343 1.933594,2.027343 z m 5.273437,-0.09375 v -2.660156 c 0,-0.9375 -0.679687,-1.300781 -1.5,-1.300781 -0.632812,0 -1.125,0.210937 -1.546875,0.644531 l 0.28125,0.410156 c 0.339844,-0.363281 0.726563,-0.539062 1.183594,-0.539062 0.5625,0 0.972656,0.304687 0.972656,0.820312 v 0.691407 c -0.304687,-0.351563 -0.75,-0.527344 -1.277343,-0.527344 -0.65625,0 -1.347657,0.410156 -1.347657,1.277344 0,0.84375 0.691407,1.277343 1.347657,1.277343 0.527343,0 0.960937,-0.1875 1.277343,-0.539062 v 0.445312 z m -1.664062,-0.339843 c -0.5625,0 -0.960938,-0.351563 -0.960938,-0.832032 0,-0.503906 0.398438,-0.855468 0.960938,-0.855468 0.421875,0 0.832031,0.164062 1.054687,0.480468 v 0.726563 c -0.222656,0.328125 -0.632812,0.480469 -1.054687,0.480469 z m 6.254883,0.339843 v -5.34375 h -0.597656 v 2.0625 c -0.304688,-0.421875 -0.785157,-0.679687 -1.300782,-0.679687 -1.019531,0 -1.722656,0.796875 -1.722656,2.027344 0,1.265625 0.714844,2.027343 1.722656,2.027343 0.539063,0 1.019532,-0.28125 1.300782,-0.667968 v 0.574218 z m -1.757813,-0.445312 c -0.773437,0 -1.242187,-0.632813 -1.242187,-1.488281 0,-0.855469 0.46875,-1.488282 1.242187,-1.488282 0.480469,0 0.949219,0.28125 1.160157,0.621094 v 1.757813 c -0.210938,0.328125 -0.679688,0.597656 -1.160157,0.597656 z m 4.705078,0.539062 c 0.632813,0 1.148438,-0.210937 1.535157,-0.585937 l -0.28125,-0.398438 c -0.304688,0.316407 -0.761719,0.492188 -1.195313,0.492188 -0.832031,0 -1.347656,-0.609375 -1.394531,-1.335938 h 3.128906 v -0.152343 c 0,-1.160157 -0.691406,-2.074219 -1.851562,-2.074219 -1.113282,0 -1.910157,0.902344 -1.910157,2.027344 0,1.207031 0.820313,2.027343 1.96875,2.027343 z m 1.207032,-2.273437 h -2.542969 c 0.03516,-0.585938 0.445312,-1.289063 1.265625,-1.289063 0.878906,0 1.265625,0.714844 1.277344,1.289063 z m 0,0"
             style="fill:#231f20;fill-opacity:1;fill-rule:nonzero;stroke:none" />
        </g>
        <path
           id="path242"
           d="M 0,0 C -2.067,-2.234 -5.024,-3.634 -8.309,-3.634"
           style="fill:none;stroke:#231f20;stroke-width:0.5;stroke-linecap:butt;stroke-linejoin:miter;stroke-miterlimit:4;stroke-dasharray:none;stroke-opacity:1"
           transform="matrix(1.3333333,0,0,-1.3333333,474.32707,431.8796)"
           clip-path="url(#clipPath243)" />
        <path
           id="path244"
           d="M 0,0 3.56,2.245 1.6,-1.479 Z"
           style="fill:#231f20;fill-opacity:1;fill-rule:nonzero;stroke:none"
           transform="matrix(1.3333333,0,0,-1.3333333,472.5992,431.6296)"
           clip-path="url(#clipPath245)" />
      </g>
    </g>
  </g>
</svg>
