<?xml version="1.0" encoding="UTF-8" standalone="no"?>
<!-- Created with Inkscape (http://www.inkscape.org/) -->

<svg
   version="1.1"
   id="svg1"
   width="150.59747"
   height="68.286743"
   viewBox="0 0 150.59747 68.286743"
   sodipodi:docname="Fundamentals of Electric Circuits (7E).pdf"
   inkscape:version="1.3 (0e150ed6c4, 2023-07-21)"
   inkscape:dataloss="true"
   xmlns:inkscape="http://www.inkscape.org/namespaces/inkscape"
   xmlns:sodipodi="http://sodipodi.sourceforge.net/DTD/sodipodi-0.dtd"
   xmlns="http://www.w3.org/2000/svg"
   xmlns:svg="http://www.w3.org/2000/svg">
  <defs
     id="defs1">
    <clipPath
       clipPathUnits="userSpaceOnUse"
       id="clipPath336">
      <path
         d="m 457.85,473.735 h 99.78 v 44.041 h -99.78 z"
         transform="translate(-457.85001,-487.24331)"
         id="path336" />
    </clipPath>
    <clipPath
       clipPathUnits="userSpaceOnUse"
       id="clipPath338">
      <path
         d="m 457.85,473.735 h 99.78 v 44.041 h -99.78 z"
         transform="translate(-457.85001,-515.74271)"
         id="path338" />
    </clipPath>
    <clipPath
       clipPathUnits="userSpaceOnUse"
       id="clipPath341">
      <path
         d="m 457.85,473.735 h 100.01 v 44.041 H 457.85 Z"
         transform="matrix(1,0,0,-1,-552.14171,507.25781)"
         id="path341" />
    </clipPath>
    <clipPath
       clipPathUnits="userSpaceOnUse"
       id="clipPath346">
      <path
         d="m 457.85,473.735 h 100.01 v 44.041 H 457.85 Z"
         transform="matrix(1,0,0,-1,-514.01941,477.27841)"
         id="path346" />
    </clipPath>
  </defs>
  <sodipodi:namedview
     id="namedview1"
     pagecolor="#ffffff"
     bordercolor="#000000"
     borderopacity="0.25"
     inkscape:showpageshadow="2"
     inkscape:pageopacity="0.0"
     inkscape:pagecheckerboard="0"
     inkscape:deskcolor="#d1d1d1"
     inkscape:zoom="1.3083045"
     inkscape:cx="514.7884"
     inkscape:cy="736.83151"
     inkscape:window-width="1348"
     inkscape:window-height="874"
     inkscape:window-x="0"
     inkscape:window-y="0"
     inkscape:window-maximized="1"
     inkscape:current-layer="layer-MC0" />
  <g
     id="layer-MC0"
     inkscape:groupmode="layer"
     inkscape:label="Default"
     transform="translate(-600.79541,-381.00061)">
    <g
       id="g462"
       inkscape:export-filename="../../../../bode-phase-plot-pole.svg"
       inkscape:export-xdpi="96"
       inkscape:export-ydpi="96">
      <rect
         style="fill:#ffffff;stroke-width:1.408"
         id="rect448"
         width="150.59747"
         height="68.286736"
         x="600.79541"
         y="381.00061" />
      <g
         id="g334">
        <g
           id="group-MC10" />
        <path
           id="path335"
           d="M 0,0 H 96.25"
           style="fill:none;stroke:#bc2133;stroke-width:1;stroke-linecap:butt;stroke-linejoin:miter;stroke-miterlimit:4;stroke-dasharray:none;stroke-opacity:1"
           transform="matrix(1.3333333,0,0,-1.3333333,610.46667,430.34227)"
           clip-path="url(#clipPath336)" />
        <path
           id="path337"
           d="M 0,0 H 96.25"
           style="fill:none;stroke:#231f20;stroke-width:0.5;stroke-linecap:butt;stroke-linejoin:miter;stroke-miterlimit:4;stroke-dasharray:none;stroke-opacity:1"
           transform="matrix(1.3333333,0,0,-1.3333333,610.46667,392.34307)"
           clip-path="url(#clipPath338)" />
        <path
           id="path339"
           d="M 0,0 1.181,-2.033 0,-4.065 4.975,-2.033 Z"
           style="fill:#231f20;fill-opacity:1;fill-rule:nonzero;stroke:none"
           transform="matrix(1.3333333,0,0,-1.3333333,736.8732,389.6328)" />
        <path
           id="path340"
           d="m 3.7723625,-3.5156375 v 0.1289063 c 0.3398438,0 0.65625,0.058594 0.75,0.4335937 0.035156,0.1171875 0.035156,0.3398438 0.035156,0.4921875 0,0.5039063 -0.1289063,1.2070313 -0.375,1.67578125 -0.1875,0.328125 -0.4921875,0.703125 -0.9375,0.703125 -0.3398438,0 -0.5273438,-0.328125 -0.5273438,-0.66796875 0,-0.0585938 0,-0.1171875 0.023437,-0.17578125 0.070312,-0.11718745 0.1757813,-0.29296875 0.2460938,-0.39843745 0.1757812,-0.3046875 0.328125,-0.8085938 0.328125,-1.171875 0,-0.2226563 -0.082031,-0.375 -0.2695313,-0.375 -0.3046875,0 -0.5390625,0.3867187 -0.65625,0.8085937 -0.058594,0.234375 -0.09375,0.4804688 -0.09375,0.6914063 0,0.1054687 0.011719,0.28125 0.023437,0.39843745 -0.1523437,0.4453125 -0.6210937,0.890625 -0.9726562,0.890625 -0.2578125,0 -0.4570313,-0.19921875 -0.4570313,-0.75 0,-0.66796875 0.2929688,-1.52343745 0.6914063,-2.03906245 0.3046875,-0.375 0.6679687,-0.515625 1.078125,-0.515625 V -3.5156375 H 2.5067375 c -1.125,0 -1.9453125,0.8554688 -2.21484375,1.828125 -0.0585938,0.2109375 -0.0820313,0.4335938 -0.0820313,0.6445313 0,0.79687495 0.52734375,1.1367187 1.04296875,1.1367187 0.5625,0 0.8554687,-0.19921875 1.171875,-0.57421875 0.1289062,0.28125 0.2929687,0.57421875 0.9140625,0.57421875 0.5156251,0 1.125,-0.3515625 1.546875,-1.1367187 0.2109375,-0.3984375 0.3515625,-0.8085938 0.3515625,-1.2421875 0,-0.375 -0.1054688,-0.7382813 -0.3632813,-0.9609375 -0.2109375,-0.1875 -0.5390625,-0.2695313 -0.9492186,-0.2695313 z m 0,0"
           style="fill:#231f20;fill-opacity:1;fill-rule:nonzero;stroke:none"
           aria-label="ω"
           transform="matrix(1.3333333,0,0,1.3333333,736.18893,403.65627)"
           clip-path="url(#clipPath341)" />
        <g
           id="g341"
           aria-label="‒&#10;90N"
           transform="matrix(1.3333333,0,0,1.3333333,659.64213,442.96213)">
          <path
             id="path342"
             d="m 3.9949625,-1.5477719 v -0.5273437 h -3.99609375 v 0.5273437 z m 0,0"
             style="fill:#231f20;fill-opacity:1;fill-rule:nonzero;stroke:none" />
          <path
             id="path343"
             d="m 6.1570719,0.5909 c 1.4882812,0 2.1679687,-1.3125 2.1679687,-2.7539063 0,-1.4648437 -0.5742187,-2.765625 -2.0625,-2.765625 -1.1601562,0 -1.875,0.8203125 -1.875,1.7460938 0,1.1367187 0.796875,1.6992187 1.7578125,1.6992187 0.6796875,0 1.2773438,-0.4570312 1.5,-0.8320312 0.011719,0.070312 0.011719,0.1523437 0.011719,0.2226562 0,1.0078125 -0.421875,2.08593755 -1.5,2.08593755 -0.5507813,0 -0.8789063,-0.22265625 -1.1484375,-0.5390625 l -0.3398438,0.4921875 C 5.0086344,0.3330875 5.4773844,0.5909 6.1570719,0.5909 Z m 0.140625,-2.6484375 c -0.6914063,0 -1.2304688,-0.3632813 -1.2304688,-1.1484375 0,-0.5039063 0.4101563,-1.1367188 1.21875,-1.1367188 0.9375,0 1.2890625,0.8320313 1.3359375,1.5 -0.28125,0.46875 -0.796875,0.7851563 -1.3242187,0.7851563 z M 11.178556,0.5909 c 1.453125,0 2.039063,-1.46484375 2.039063,-2.7539063 0,-1.3125 -0.585938,-2.7539062 -2.039063,-2.7539062 -1.4648435,0 -2.0390622,1.4414062 -2.0390622,2.7539062 0,1.28906255 0.5742187,2.7539063 2.0390622,2.7539063 z m 0,-0.5859375 c -1.019531,0 -1.3593747,-1.1132813 -1.3593747,-2.1679688 0,-1.0664062 0.3398437,-2.1679687 1.3593747,-2.1679687 1.019532,0 1.359375,1.1015625 1.359375,2.1679687 0,1.0546875 -0.339843,2.1679688 -1.359375,2.1679688 z m 0,0"
             style="fill:#231f20;fill-opacity:1;fill-rule:nonzero;stroke:none" />
          <path
             id="path344"
             d="m 18.230314,0.49715 1.183594,-5.34375 h -0.667969 l -0.9375,4.27734375 L 15.675627,-4.8466 h -0.679688 l -1.183594,5.34375 h 0.667969 l 0.960938,-4.359375 2.15625,4.359375 z m 0,0"
             style="fill:#231f20;fill-opacity:1;fill-rule:nonzero;stroke:none" />
        </g>
        <path
           id="path345"
           d="m 2.7423188,-4.2655453 c 0,-0.6328125 -0.5039063,-1.1484375 -1.125,-1.1484375 -0.65625005,0 -1.1601563,0.5039062 -1.1601563,1.1367187 0,0.65625 0.4921875,1.1601563 1.1484375,1.1601563 0.6328125,0 1.1367188,-0.5039063 1.1367188,-1.1484375 z m -0.3046875,-0.011719 c 0,0.4804688 -0.375,0.8789063 -0.8320313,0.8789063 -0.4570312,0 -0.83203125,-0.3867188 -0.83203125,-0.8671875 0,-0.46875 0.37500005,-0.8671875 0.80859375,-0.8671875 0.46875,0 0.8554688,0.3867187 0.8554688,0.8554687 z m 0,0"
           style="fill:#231f20;fill-opacity:1;fill-rule:nonzero;stroke:none"
           aria-label="°"
           transform="matrix(1.3333333,0,0,1.3333333,685.3592,443.6288)"
           clip-path="url(#clipPath346)" />
      </g>
    </g>
  </g>
</svg>
