<?xml version="1.0" encoding="UTF-8" standalone="no"?>
<!-- Created with Inkscape (http://www.inkscape.org/) -->

<svg
   version="1.1"
   id="svg1"
   width="151.00357"
   height="77.766449"
   viewBox="0 0 151.00357 77.766449"
   sodipodi:docname="Fundamentals of Electric Circuits (7E).pdf"
   inkscape:version="1.3 (0e150ed6c4, 2023-07-21)"
   inkscape:dataloss="true"
   xmlns:inkscape="http://www.inkscape.org/namespaces/inkscape"
   xmlns:sodipodi="http://sodipodi.sourceforge.net/DTD/sodipodi-0.dtd"
   xmlns="http://www.w3.org/2000/svg"
   xmlns:svg="http://www.w3.org/2000/svg">
  <defs
     id="defs1">
    <clipPath
       clipPathUnits="userSpaceOnUse"
       id="clipPath214">
      <path
         d="m 283.487,536.772 h 100.089 v 48.813 H 283.487 Z"
         transform="translate(-283.79661,-548.63491)"
         id="path214" />
    </clipPath>
    <clipPath
       clipPathUnits="userSpaceOnUse"
       id="clipPath217">
      <path
         d="m 283.487,536.772 h 100.089 v 48.813 H 283.487 Z"
         transform="translate(-283.7047,-539.22281)"
         id="path217" />
    </clipPath>
    <clipPath
       clipPathUnits="userSpaceOnUse"
       id="clipPath223">
      <path
         d="m 283.487,536.633 h 100.895 v 48.952 H 283.487 Z"
         transform="matrix(1,0,0,-1,-285.8758,578.75992)"
         id="path223" />
    </clipPath>
    <clipPath
       clipPathUnits="userSpaceOnUse"
       id="clipPath225">
      <path
         d="m 283.487,536.633 h 100.895 v 48.952 H 283.487 Z"
         transform="translate(-353.24531,-576.93911)"
         id="path225" />
    </clipPath>
    <clipPath
       clipPathUnits="userSpaceOnUse"
       id="clipPath227">
      <path
         d="m 283.487,536.633 h 100.895 v 48.952 H 283.487 Z"
         transform="translate(-351.95041,-576.75211)"
         id="path227" />
    </clipPath>
    <clipPath
       clipPathUnits="userSpaceOnUse"
       id="clipPath229">
      <path
         d="m 283.487,536.633 h 100.895 v 48.952 H 283.487 Z"
         transform="matrix(1,0,0,-1,-301.45571,538.94741)"
         id="path229" />
    </clipPath>
  </defs>
  <sodipodi:namedview
     id="namedview1"
     pagecolor="#ffffff"
     bordercolor="#000000"
     borderopacity="0.25"
     inkscape:showpageshadow="2"
     inkscape:pageopacity="0.0"
     inkscape:pagecheckerboard="0"
     inkscape:deskcolor="#d1d1d1"
     inkscape:zoom="1.3083045"
     inkscape:cx="514.7884"
     inkscape:cy="736.83151"
     inkscape:window-width="1348"
     inkscape:window-height="874"
     inkscape:window-x="0"
     inkscape:window-y="0"
     inkscape:window-maximized="1"
     inkscape:current-layer="layer-MC0" />
  <g
     id="layer-MC0"
     inkscape:groupmode="layer"
     inkscape:label="Default"
     transform="translate(-368.48141,-290.58063)">
    <g
       id="g464"
       inkscape:export-filename="../../../../bode-magnitude-plot-pole.svg"
       inkscape:export-xdpi="96"
       inkscape:export-ydpi="96">
      <rect
         style="fill:#ffffff;stroke-width:1.50457"
         id="rect437"
         width="151.00354"
         height="77.766441"
         x="368.48141"
         y="290.58063" />
      <g
         id="g212">
        <g
           id="group-MC2" />
        <path
           id="path213"
           d="M 0,0 H 96.251"
           style="fill:none;stroke:#231f20;stroke-width:0.5;stroke-linecap:butt;stroke-linejoin:miter;stroke-miterlimit:4;stroke-dasharray:none;stroke-opacity:1"
           transform="matrix(1.3333333,0,0,-1.3333333,378.39547,348.4868)"
           clip-path="url(#clipPath214)" />
        <path
           id="path215"
           d="M 0,0 -4.974,-2.032 -3.794,0 -4.974,2.032 Z"
           style="fill:#231f20;fill-opacity:1;fill-rule:nonzero;stroke:none"
           transform="matrix(1.3333333,0,0,-1.3333333,511.43467,348.4868)" />
        <path
           id="path216"
           d="M 0,0 94.842,45.912"
           style="fill:none;stroke:#bc2133;stroke-width:1;stroke-linecap:butt;stroke-linejoin:miter;stroke-miterlimit:4;stroke-dasharray:none;stroke-opacity:1"
           transform="matrix(1.3333333,0,0,-1.3333333,378.27293,361.03627)"
           clip-path="url(#clipPath217)" />
        <path
           id="path218"
           d="M 0,0 V 3.5"
           style="fill:none;stroke:#231f20;stroke-width:0.5;stroke-linecap:butt;stroke-linejoin:miter;stroke-miterlimit:4;stroke-dasharray:none;stroke-opacity:1"
           transform="matrix(1.3333333,0,0,-1.3333333,403.72813,348.686)" />
        <path
           id="path219"
           d="m 3.7727281,-3.5165828 v 0.1289062 c 0.3398438,0 0.65625,0.058594 0.75,0.4335938 0.035156,0.1171875 0.035156,0.3398437 0.035156,0.4921875 0,0.5039062 -0.1289063,1.2070312 -0.375,1.67578124 -0.1875,0.328125 -0.4921875,0.703125 -0.9375,0.703125 -0.3398438,0 -0.5273438,-0.328125 -0.5273438,-0.66796875 0,-0.0585938 0,-0.1171875 0.023437,-0.17578125 0.070312,-0.11718754 0.1757813,-0.29296874 0.2460938,-0.39843754 0.1757812,-0.3046875 0.328125,-0.8085937 0.328125,-1.171875 0,-0.2226562 -0.082031,-0.375 -0.2695313,-0.375 -0.3046875,0 -0.5390625,0.3867188 -0.65625,0.8085938 -0.058594,0.234375 -0.09375,0.4804687 -0.09375,0.6914062 0,0.1054688 0.011719,0.28125 0.023437,0.39843754 -0.1523437,0.4453125 -0.6210937,0.890625 -0.9726562,0.890625 -0.2578125,0 -0.45703127,-0.19921875 -0.45703127,-0.75 0,-0.66796874 0.29296877,-1.52343754 0.69140627,-2.03906254 0.3046875,-0.375 0.6679687,-0.515625 1.078125,-0.515625 V -3.5165828 H 2.5071031 c -1.125,0 -1.94531247,0.8554687 -2.21484372,1.828125 -0.0585938,0.2109375 -0.0820313,0.4335937 -0.0820313,0.6445312 0,0.79687504 0.52734375,1.13671879 1.04296882,1.13671879 0.5625,0 0.8554687,-0.19921875 1.171875,-0.57421875 0.1289062,0.28125 0.2929687,0.57421875 0.9140625,0.57421875 0.515625,0 1.1249999,-0.3515625 1.5468749,-1.13671879 0.2109375,-0.3984375 0.3515625,-0.8085937 0.3515625,-1.2421875 0,-0.375 -0.1054687,-0.7382812 -0.3632812,-0.9609375 -0.2109375,-0.1875 -0.5390625,-0.2695312 -0.9492187,-0.2695312 z m 0,0"
           style="fill:#231f20;fill-opacity:1;fill-rule:nonzero;stroke:none"
           aria-label="ω"
           transform="matrix(1.3333333,0,0,1.3333333,504.11813,359.84893)" />
        <g
           id="g219"
           aria-label="20N dB/decade"
           transform="matrix(1.3333333,0,0,1.3333333,381.16773,308.32013)"
           clip-path="url(#clipPath223)">
          <path
             id="path220"
             d="M 4.1017391,1.34375e-4 V -0.59752188 h -2.625 C 2.9650203,-1.7693969 4.0783016,-2.7654906 4.0783016,-3.8553344 c 0,-1.0546875 -0.9140625,-1.5585937 -1.7929688,-1.5585937 -0.7617187,0 -1.45312499,0.3046875 -1.86328124,0.8320312 l 0.41015625,0.4335938 C 1.1486141,-4.5584594 1.6408016,-4.8279906 2.2853328,-4.8279906 c 0.5507813,0 1.1132813,0.2929687 1.1132813,0.9726562 0,0.9257813 -1.0429688,1.8164063 -2.96484379,3.32812502 V 1.34375e-4 Z M 7.1544734,0.09388437 c 1.453125,0 2.0390625,-1.46484377 2.0390625,-2.75390627 0,-1.3125 -0.5859375,-2.7539062 -2.0390625,-2.7539062 -1.4648437,0 -2.0390625,1.4414062 -2.0390625,2.7539062 0,1.2890625 0.5742188,2.75390627 2.0390625,2.75390627 z m 0,-0.5859375 c -1.0195312,0 -1.359375,-1.11328127 -1.359375,-2.16796877 0,-1.0664062 0.3398438,-2.1679687 1.359375,-2.1679687 1.0195313,0 1.359375,1.1015625 1.359375,2.1679687 0,1.0546875 -0.3398437,2.16796877 -1.359375,2.16796877 z m 0,0"
             style="fill:#231f20;fill-opacity:1;fill-rule:nonzero;stroke:none" />
          <path
             id="path221"
             d="M 14.206231,1.34375e-4 15.389825,-5.3436156 h -0.667969 l -0.9375,4.2773437 -2.132812,-4.2773437 H 10.971856 L 9.7882625,1.34375e-4 h 0.6679685 l 0.960938,-4.359374975 2.15625,4.359374975 z m 0,0"
             style="fill:#231f20;fill-opacity:1;fill-rule:nonzero;stroke:none" />
          <path
             id="path222"
             d="M 21.325372,1.34375e-4 V -5.3436156 h -0.597656 v 2.0625 c -0.304688,-0.421875 -0.785157,-0.6796875 -1.300782,-0.6796875 -1.019531,0 -1.722656,0.796875 -1.722656,2.0273437 0,1.26562502 0.714844,2.02734377 1.722656,2.02734377 0.539063,0 1.019532,-0.28125 1.300782,-0.66796875 V 1.34375e-4 Z M 19.567559,-0.44517813 c -0.773437,0 -1.242187,-0.63281247 -1.242187,-1.48828127 0,-0.8554687 0.46875,-1.4882812 1.242187,-1.4882812 0.480469,0 0.949219,0.28125 1.160157,0.6210937 v 1.7578125 c -0.210938,0.32812502 -0.679688,0.59765627 -1.160157,0.59765627 z m 5.419922,0.445312505 c 0.972657,0 1.546875,-0.585937505 1.546875,-1.441406275 0,-0.6445312 -0.480468,-1.21875 -1.042968,-1.3125 0.492187,-0.1054687 0.9375,-0.5507812 0.9375,-1.21875 0,-0.8085937 -0.574219,-1.3710937 -1.5,-1.3710937 H 22.549981 V 1.34375e-4 Z M 24.823419,-3.0233031 H 23.21795 v -1.7226563 h 1.605469 c 0.597656,0 0.914062,0.3867188 0.914062,0.8671875 0,0.4804688 -0.316406,0.8554688 -0.914062,0.8554688 z m 0.02344,2.42578122 H 23.21795 V -2.4373656 h 1.628906 c 0.65625,0 0.996094,0.4335937 0.996094,0.9257812 0,0.56250002 -0.363281,0.91406252 -0.996094,0.91406252 z m 3.38086,0.76171875 1.898437,-5.66015627 h -0.46875 l -1.89844,5.66015627 z M 34.125177,1.34375e-4 V -5.3436156 H 33.52752 v 2.0625 c -0.304687,-0.421875 -0.785156,-0.6796875 -1.300781,-0.6796875 -1.019531,0 -1.722656,0.796875 -1.722656,2.0273437 0,1.26562502 0.714844,2.02734377 1.722656,2.02734377 0.539063,0 1.019531,-0.28125 1.300781,-0.66796875 V 1.34375e-4 Z M 32.367364,-0.44517813 c -0.773437,0 -1.242187,-0.63281247 -1.242187,-1.48828127 0,-0.8554687 0.46875,-1.4882812 1.242187,-1.4882812 0.480469,0 0.949219,0.28125 1.160156,0.6210937 v 1.7578125 c -0.210937,0.32812502 -0.679687,0.59765627 -1.160156,0.59765627 z m 4.705078,0.5390625 c 0.632813,0 1.148438,-0.2109375 1.535156,-0.5859375 l -0.28125,-0.3984375 c -0.304687,0.31640625 -0.761718,0.4921875 -1.195312,0.4921875 -0.832031,0 -1.347656,-0.60937497 -1.394531,-1.33593747 h 3.128906 v -0.1523438 c 0,-1.1601562 -0.691406,-2.0742187 -1.851563,-2.0742187 -1.113281,0 -1.910156,0.9023437 -1.910156,2.0273437 0,1.20703127 0.820313,2.02734377 1.96875,2.02734377 z m 1.207031,-2.27343747 h -2.542968 c 0.03516,-0.5859375 0.445312,-1.2890625 1.265625,-1.2890625 0.878906,0 1.265625,0.7148437 1.277343,1.2890625 z m 3.260743,2.27343747 c 0.703125,0 1.113281,-0.28125 1.417968,-0.66796875 l -0.410156,-0.375 c -0.246094,0.3515625 -0.574219,0.50390625 -0.984375,0.50390625 -0.820312,0 -1.335937,-0.63281247 -1.335937,-1.48828127 0,-0.8554687 0.515625,-1.4882812 1.335937,-1.4882812 0.410156,0 0.738281,0.1523437 0.984375,0.5039062 l 0.410156,-0.375 c -0.304687,-0.375 -0.714843,-0.6679687 -1.417968,-0.6679687 -1.160157,0 -1.933594,0.8789062 -1.933594,2.0273437 0,1.14843752 0.773437,2.02734377 1.933594,2.02734377 z M 46.813653,1.34375e-4 V -2.6600219 c 0,-0.9375 -0.679687,-1.3007812 -1.5,-1.3007812 -0.632812,0 -1.125,0.2109375 -1.546875,0.6445312 l 0.28125,0.4101563 c 0.339844,-0.3632813 0.726563,-0.5390625 1.183594,-0.5390625 0.5625,0 0.972656,0.3046875 0.972656,0.8203125 v 0.6914062 c -0.304687,-0.3515625 -0.75,-0.5273437 -1.277344,-0.5273437 -0.65625,0 -1.347656,0.4101562 -1.347656,1.2773437 0,0.84375002 0.691406,1.27734377 1.347656,1.27734377 0.527344,0 0.960938,-0.1875 1.277344,-0.5390625 V 1.34375e-4 Z M 45.149591,-0.33970938 c -0.5625,0 -0.960938,-0.3515625 -0.960938,-0.83203122 0,-0.5039063 0.398438,-0.8554688 0.960938,-0.8554688 0.421875,0 0.832031,0.1640625 1.054687,0.4804688 v 0.72656247 c -0.222656,0.328125 -0.632812,0.48046875 -1.054687,0.48046875 z M 51.404473,1.34375e-4 V -5.3436156 h -0.597656 v 2.0625 c -0.304687,-0.421875 -0.785156,-0.6796875 -1.300781,-0.6796875 -1.019531,0 -1.722656,0.796875 -1.722656,2.0273437 0,1.26562502 0.714843,2.02734377 1.722656,2.02734377 0.539062,0 1.019531,-0.28125 1.300781,-0.66796875 V 1.34375e-4 Z M 49.646661,-0.44517813 c -0.773438,0 -1.242188,-0.63281247 -1.242188,-1.48828127 0,-0.8554687 0.46875,-1.4882812 1.242188,-1.4882812 0.480469,0 0.949219,0.28125 1.160156,0.6210937 v 1.7578125 c -0.210937,0.32812502 -0.679687,0.59765627 -1.160156,0.59765627 z m 4.705078,0.5390625 c 0.632813,0 1.148438,-0.2109375 1.535156,-0.5859375 l -0.28125,-0.3984375 c -0.304687,0.31640625 -0.761718,0.4921875 -1.195312,0.4921875 -0.832031,0 -1.347656,-0.60937497 -1.394531,-1.33593747 h 3.128906 v -0.1523438 c 0,-1.1601562 -0.691406,-2.0742187 -1.851563,-2.0742187 -1.113281,0 -1.910156,0.9023437 -1.910156,2.0273437 0,1.20703127 0.820313,2.02734377 1.96875,2.02734377 z M 55.55877,-2.1795531 h -2.542968 c 0.03516,-0.5859375 0.445312,-1.2890625 1.265625,-1.2890625 0.878906,0 1.265625,0.7148437 1.277343,1.2890625 z m 0,0"
             style="fill:#231f20;fill-opacity:1;fill-rule:nonzero;stroke:none" />
        </g>
        <path
           id="path224"
           d="M 0,0 C -2.066,2.235 -5.024,3.634 -8.309,3.634"
           style="fill:none;stroke:#231f20;stroke-width:0.5;stroke-linecap:butt;stroke-linejoin:miter;stroke-miterlimit:4;stroke-dasharray:none;stroke-opacity:1"
           transform="matrix(1.3333333,0,0,-1.3333333,470.99373,310.74787)"
           clip-path="url(#clipPath225)" />
        <path
           id="path226"
           d="M 0,0 3.56,-2.246 1.6,1.479 Z"
           style="fill:#231f20;fill-opacity:1;fill-rule:nonzero;stroke:none"
           transform="matrix(1.3333333,0,0,-1.3333333,469.2672,310.9972)"
           clip-path="url(#clipPath227)" />
        <path
           id="path228"
           d="M 2.0862922,-8.421875e-4 V -5.3445922 H 1.5003547 l -1.33593751,1.3828125 0.3984375,0.4101563 0.86718751,-0.9023438 v 4.4531250125 z m 0,0"
           style="fill:#231f20;fill-opacity:1;fill-rule:nonzero;stroke:none"
           aria-label="1"
           transform="matrix(1.3333333,0,0,1.3333333,401.94093,361.40347)"
           clip-path="url(#clipPath229)" />
      </g>
    </g>
  </g>
</svg>
