<?xml version="1.0" encoding="UTF-8" standalone="no"?>
<!-- Created with Inkscape (http://www.inkscape.org/) -->

<svg
   version="1.1"
   id="svg1"
   width="150.59448"
   height="79.671326"
   viewBox="0 0 150.59448 79.671326"
   sodipodi:docname="Fundamentals of Electric Circuits (7E).pdf"
   inkscape:version="1.3 (0e150ed6c4, 2023-07-21)"
   inkscape:dataloss="true"
   xmlns:inkscape="http://www.inkscape.org/namespaces/inkscape"
   xmlns:sodipodi="http://sodipodi.sourceforge.net/DTD/sodipodi-0.dtd"
   xmlns="http://www.w3.org/2000/svg"
   xmlns:svg="http://www.w3.org/2000/svg">
  <defs
     id="defs1">
    <clipPath
       clipPathUnits="userSpaceOnUse"
       id="clipPath268">
      <path
         d="m 283.487,334.979 h 102.35 v 54.346 h -102.35 z"
         transform="matrix(1,0,0,-1,-379.89931,366.34691)"
         id="path268" />
    </clipPath>
    <clipPath
       clipPathUnits="userSpaceOnUse"
       id="clipPath273">
      <path
         d="m 283.487,334.979 h 102.35 v 54.346 h -102.35 z"
         transform="translate(-354.73021,-346.49041)"
         id="path273" />
    </clipPath>
    <clipPath
       clipPathUnits="userSpaceOnUse"
       id="clipPath275">
      <path
         d="m 283.487,334.979 h 102.35 v 54.346 h -102.35 z"
         transform="translate(-353.43521,-346.67751)"
         id="path275" />
    </clipPath>
    <clipPath
       clipPathUnits="userSpaceOnUse"
       id="clipPath277">
      <path
         d="m 283.487,334.979 h 102.35 v 54.346 h -102.35 z"
         transform="translate(-304.60711,-374.50071)"
         id="path277" />
    </clipPath>
    <clipPath
       clipPathUnits="userSpaceOnUse"
       id="clipPath279">
      <path
         d="m 283.487,334.979 h 102.35 v 54.346 h -102.35 z"
         transform="translate(-385.62001,-335.42941)"
         id="path279" />
    </clipPath>
  </defs>
  <sodipodi:namedview
     id="namedview1"
     pagecolor="#ffffff"
     bordercolor="#000000"
     borderopacity="0.25"
     inkscape:showpageshadow="2"
     inkscape:pageopacity="0.0"
     inkscape:pagecheckerboard="0"
     inkscape:deskcolor="#d1d1d1"
     inkscape:zoom="1.3083045"
     inkscape:cx="514.7884"
     inkscape:cy="736.83151"
     inkscape:window-width="1348"
     inkscape:window-height="874"
     inkscape:window-x="0"
     inkscape:window-y="0"
     inkscape:window-maximized="1"
     inkscape:current-layer="layer-MC0" />
  <g
     id="layer-MC0"
     inkscape:groupmode="layer"
     inkscape:label="Default"
     transform="translate(-371.63434,-557.80682)">
    <g
       id="g458">
      <rect
         style="fill:#ffffff;stroke-width:1.52083"
         id="rect439"
         width="150.59448"
         height="79.671333"
         x="371.63434"
         y="557.80682" />
      <g
         id="g262">
        <g
           id="group-MC5" />
        <path
           id="path263"
           d="M 0,0 -1.181,-2.032 3.794,0 -1.181,2.032 Z"
           style="fill:#231f20;fill-opacity:1;fill-rule:nonzero;stroke:none"
           transform="matrix(1.3333333,0,0,-1.3333333,508.7916,580.4664)" />
        <path
           id="path264"
           d="M 0,0 H 95.25"
           style="fill:none;stroke:#231f20;stroke-width:0.5;stroke-linecap:butt;stroke-linejoin:miter;stroke-miterlimit:4;stroke-dasharray:none;stroke-opacity:1"
           transform="matrix(1.3333333,0,0,-1.3333333,382.14347,580.46653)" />
        <g
           id="g264"
           aria-label="ω&#10;p&#10;‒"
           transform="matrix(1.3333333,0,0,1.3333333,506.5324,591.53747)"
           clip-path="url(#clipPath268)">
          <path
             id="path265"
             d="m 3.772575,-3.5144281 v 0.1289062 c 0.3398438,0 0.65625,0.058594 0.75,0.4335938 0.035156,0.1171875 0.035156,0.3398437 0.035156,0.4921875 0,0.5039062 -0.1289063,1.2070312 -0.375,1.67578123 -0.1875,0.328125 -0.4921875,0.703125 -0.9375,0.703125 -0.3398438,0 -0.5273438,-0.328125 -0.5273438,-0.66796875 0,-0.0585938 0,-0.1171875 0.023437,-0.17578125 0.070312,-0.11718753 0.1757813,-0.29296873 0.2460938,-0.39843753 0.1757812,-0.3046875 0.328125,-0.8085937 0.328125,-1.171875 0,-0.2226562 -0.082031,-0.375 -0.2695313,-0.375 -0.3046875,0 -0.5390625,0.3867188 -0.65625,0.8085938 -0.058594,0.234375 -0.09375,0.4804687 -0.09375,0.6914062 0,0.1054688 0.011719,0.28125 0.023437,0.39843753 -0.1523437,0.4453125 -0.6210937,0.890625 -0.9726562,0.890625 -0.2578125,0 -0.4570313,-0.19921875 -0.4570313,-0.75 0,-0.66796873 0.2929688,-1.52343753 0.6914063,-2.03906253 0.3046875,-0.375 0.6679687,-0.515625 1.078125,-0.515625 V -3.5144281 H 2.50695 c -1.125,0 -1.9453125,0.8554687 -2.21484375,1.828125 -0.0585938,0.2109375 -0.0820313,0.4335937 -0.0820313,0.6445312 0,0.79687503 0.52734375,1.13671878 1.04296875,1.13671878 0.5625,0 0.8554687,-0.19921875 1.171875,-0.57421875 0.1289062,0.28125 0.2929687,0.57421875 0.9140625,0.57421875 0.5156251,0 1.125,-0.3515625 1.546875,-1.13671878 0.2109375,-0.3984375 0.3515625,-0.8085937 0.3515625,-1.2421875 0,-0.375 -0.1054688,-0.7382812 -0.3632813,-0.9609375 C 4.6632,-3.4323969 4.335075,-3.5144281 3.9249188,-3.5144281 Z m 0,0"
             style="fill:#231f20;fill-opacity:1;fill-rule:nonzero;stroke:none" />
          <path
             id="path266"
             d="m -75.317269,-16.217553 c 1.242188,0 2.027344,-1.207031 2.027344,-2.460938 0,-1.007812 -0.621094,-1.59375 -1.5,-1.59375 -0.515625,0 -0.949219,0.246094 -1.277344,0.644532 l 0.128907,-0.550782 h -0.609375 l -1.183594,5.34375 h 0.609375 l 0.457031,-2.085937 c 0.257813,0.421875 0.738281,0.703125 1.347656,0.703125 z m -0.08203,-0.539063 c -0.5625,0 -0.972656,-0.269531 -1.171875,-0.621093 l 0.375,-1.699219 c 0.257813,-0.351563 0.703125,-0.65625 1.195313,-0.65625 0.632812,0 1.078125,0.445312 1.078125,1.160156 0,0.9375 -0.597657,1.816406 -1.476563,1.816406 z m 0,0"
             style="fill:#231f20;fill-opacity:1;fill-rule:nonzero;stroke:none" />
          <path
             id="path267"
             d="m -92.420784,23.462134 v -0.527343 h -3.996094 v 0.527343 z m 0,0"
             style="fill:#231f20;fill-opacity:1;fill-rule:nonzero;stroke:none" />
        </g>
        <g
           id="g268"
           aria-label="20N dB/decade"
           transform="matrix(1.3333333,0,0,1.3333333,383.31613,625.54853)">
          <path
             id="path269"
             d="M 4.1017672,-0.00124375 V -0.5989 h -2.625 c 1.4882812,-1.171875 2.6015625,-2.1679688 2.6015625,-3.2578125 0,-1.0546875 -0.9140625,-1.5585938 -1.7929688,-1.5585938 -0.7617187,0 -1.45312496,0.3046875 -1.86328121,0.8320313 l 0.41015625,0.4335937 C 1.1486422,-4.5598375 1.6408297,-4.8293688 2.2853609,-4.8293688 c 0.5507813,0 1.1132813,0.2929688 1.1132813,0.9726563 0,0.9257812 -1.0429688,1.8164062 -2.96484376,3.328125 v 0.52734375 z m 3.0527344,0.09375 c 1.453125,0 2.0390625,-1.46484375 2.0390625,-2.75390625 0,-1.3125 -0.5859375,-2.7539063 -2.0390625,-2.7539063 -1.4648438,0 -2.0390625,1.4414063 -2.0390625,2.7539063 0,1.2890625 0.5742187,2.75390625 2.0390625,2.75390625 z m 0,-0.5859375 c -1.0195313,0 -1.359375,-1.11328125 -1.359375,-2.16796875 0,-1.0664063 0.3398437,-2.1679688 1.359375,-2.1679688 1.0195312,0 1.359375,1.1015625 1.359375,2.1679688 0,1.0546875 -0.3398438,2.16796875 -1.359375,2.16796875 z m 0,0"
             style="fill:#231f20;fill-opacity:1;fill-rule:nonzero;stroke:none" />
          <path
             id="path270"
             d="m 14.206259,-0.00124375 1.183594,-5.34375005 h -0.667969 l -0.9375,4.2773438 -2.132812,-4.2773438 h -0.679688 l -1.1835934,5.34375005 h 0.6679684 l 0.960938,-4.35937505 2.15625,4.35937505 z m 0,0"
             style="fill:#231f20;fill-opacity:1;fill-rule:nonzero;stroke:none" />
          <path
             id="path271"
             d="M 21.3254,-0.00124375 V -5.3449938 h -0.597656 v 2.0625 c -0.304688,-0.421875 -0.785156,-0.6796875 -1.300781,-0.6796875 -1.019532,0 -1.722657,0.796875 -1.722657,2.0273438 0,1.265625 0.714844,2.02734375 1.722657,2.02734375 0.539062,0 1.019531,-0.28125 1.300781,-0.66796875 v 0.57421875 z m -1.757812,-0.4453125 c -0.773438,0 -1.242188,-0.63281255 -1.242188,-1.48828125 0,-0.8554688 0.46875,-1.4882813 1.242188,-1.4882813 0.480468,0 0.949218,0.28125 1.160156,0.6210938 v 1.7578125 c -0.210938,0.328125 -0.679688,0.59765625 -1.160156,0.59765625 z m 5.419921,0.4453125 c 0.972657,0 1.546875,-0.5859375 1.546875,-1.44140625 0,-0.6445313 -0.480468,-1.21875 -1.042968,-1.3125 0.492187,-0.1054688 0.9375,-0.5507813 0.9375,-1.21875 0,-0.8085938 -0.574219,-1.3710938 -1.5,-1.3710938 h -2.378907 v 5.34375005 z M 24.823447,-3.0246813 h -1.605469 v -1.7226562 h 1.605469 c 0.597656,0 0.914062,0.3867187 0.914062,0.8671875 0,0.4804687 -0.316406,0.8554687 -0.914062,0.8554687 z m 0.02344,2.4257813 h -1.628906 v -1.8398438 h 1.628906 c 0.65625,0 0.996094,0.4335938 0.996094,0.9257813 0,0.5625 -0.363281,0.9140625 -0.996094,0.9140625 z m 3.38086,0.76171875 1.898437,-5.66015625 h -0.46875 l -1.898437,5.66015625 z m 5.897461,-0.1640625 V -5.3449938 h -0.597657 v 2.0625 c -0.304687,-0.421875 -0.785156,-0.6796875 -1.300781,-0.6796875 -1.019531,0 -1.722656,0.796875 -1.722656,2.0273438 0,1.265625 0.714844,2.02734375 1.722656,2.02734375 0.539063,0 1.019531,-0.28125 1.300781,-0.66796875 v 0.57421875 z m -1.757813,-0.4453125 c -0.773437,0 -1.242187,-0.63281255 -1.242187,-1.48828125 0,-0.8554688 0.46875,-1.4882813 1.242187,-1.4882813 0.480469,0 0.949219,0.28125 1.160156,0.6210938 v 1.7578125 c -0.210937,0.328125 -0.679687,0.59765625 -1.160156,0.59765625 z m 4.705078,0.5390625 c 0.632813,0 1.148438,-0.2109375 1.535157,-0.5859375 l -0.28125,-0.3984375 c -0.304688,0.31640625 -0.761719,0.4921875 -1.195313,0.4921875 -0.832031,0 -1.347656,-0.60937505 -1.394531,-1.33593755 h 3.128906 v -0.1523437 c 0,-1.1601563 -0.691406,-2.0742188 -1.851562,-2.0742188 -1.113282,0 -1.910157,0.9023438 -1.910157,2.0273438 0,1.20703125 0.820313,2.02734375 1.96875,2.02734375 z m 1.207032,-2.27343755 h -2.542969 c 0.03516,-0.5859375 0.445312,-1.2890625 1.265625,-1.2890625 0.878906,0 1.265625,0.7148438 1.277344,1.2890625 z m 3.260742,2.27343755 c 0.703125,0 1.113281,-0.28125 1.417969,-0.66796875 l -0.410157,-0.375 c -0.246093,0.3515625 -0.574218,0.50390625 -0.984375,0.50390625 -0.820312,0 -1.335937,-0.63281255 -1.335937,-1.48828125 0,-0.8554688 0.515625,-1.4882813 1.335937,-1.4882813 0.410157,0 0.738282,0.1523438 0.984375,0.5039063 l 0.410157,-0.375 c -0.304688,-0.375 -0.714844,-0.6679688 -1.417969,-0.6679688 -1.160156,0 -1.933594,0.8789063 -1.933594,2.0273438 0,1.1484375 0.773438,2.02734375 1.933594,2.02734375 z m 5.273437,-0.09375 V -2.6614 c 0,-0.9375 -0.679687,-1.3007813 -1.5,-1.3007813 -0.632812,0 -1.125,0.2109375 -1.546875,0.6445313 l 0.28125,0.4101562 c 0.339844,-0.3632812 0.726563,-0.5390625 1.183594,-0.5390625 0.5625,0 0.972656,0.3046875 0.972656,0.8203125 v 0.6914063 c -0.304687,-0.3515625 -0.75,-0.5273438 -1.277343,-0.5273438 -0.65625,0 -1.347657,0.4101563 -1.347657,1.2773438 0,0.84375 0.691407,1.27734375 1.347657,1.27734375 0.527343,0 0.960937,-0.1875 1.277343,-0.5390625 v 0.4453125 z M 45.149619,-0.3410875 c -0.5625,0 -0.960938,-0.3515625 -0.960938,-0.8320313 0,-0.5039062 0.398438,-0.8554687 0.960938,-0.8554687 0.421875,0 0.832031,0.1640625 1.054687,0.4804687 v 0.72656255 c -0.222656,0.328125 -0.632812,0.48046875 -1.054687,0.48046875 z m 6.254883,0.33984375 V -5.3449938 h -0.597657 v 2.0625 c -0.304687,-0.421875 -0.785156,-0.6796875 -1.300781,-0.6796875 -1.019531,0 -1.722656,0.796875 -1.722656,2.0273438 0,1.265625 0.714844,2.02734375 1.722656,2.02734375 0.539063,0 1.019531,-0.28125 1.300781,-0.66796875 v 0.57421875 z m -1.757813,-0.4453125 c -0.773437,0 -1.242187,-0.63281255 -1.242187,-1.48828125 0,-0.8554688 0.46875,-1.4882813 1.242187,-1.4882813 0.480469,0 0.949219,0.28125 1.160156,0.6210938 v 1.7578125 c -0.210937,0.328125 -0.679687,0.59765625 -1.160156,0.59765625 z m 4.705078,0.5390625 c 0.632813,0 1.148438,-0.2109375 1.535156,-0.5859375 l -0.28125,-0.3984375 c -0.304687,0.31640625 -0.761718,0.4921875 -1.195312,0.4921875 -0.832031,0 -1.347656,-0.60937505 -1.394531,-1.33593755 h 3.128906 v -0.1523437 c 0,-1.1601563 -0.691406,-2.0742188 -1.851563,-2.0742188 -1.113281,0 -1.910156,0.9023438 -1.910156,2.0273438 0,1.20703125 0.820313,2.02734375 1.96875,2.02734375 z M 55.558798,-2.1809313 H 53.01583 c 0.03516,-0.5859375 0.445312,-1.2890625 1.265625,-1.2890625 0.878906,0 1.265625,0.7148438 1.277343,1.2890625 z m 0,0"
             style="fill:#231f20;fill-opacity:1;fill-rule:nonzero;stroke:none" />
        </g>
        <path
           id="path272"
           d="M 0,0 C -2.066,-2.236 -5.024,-3.635 -8.309,-3.635"
           style="fill:none;stroke:#231f20;stroke-width:0.5;stroke-linecap:butt;stroke-linejoin:miter;stroke-miterlimit:4;stroke-dasharray:none;stroke-opacity:1"
           transform="matrix(1.3333333,0,0,-1.3333333,472.9736,618.0128)"
           clip-path="url(#clipPath273)" />
        <path
           id="path274"
           d="M 0,0 3.56,2.245 1.6,-1.48 Z"
           style="fill:#231f20;fill-opacity:1;fill-rule:nonzero;stroke:none"
           transform="matrix(1.3333333,0,0,-1.3333333,471.24693,617.76333)"
           clip-path="url(#clipPath275)" />
        <path
           id="path276"
           d="M 0,0 V 3.5"
           style="fill:none;stroke:#231f20;stroke-width:0.5;stroke-linecap:butt;stroke-linejoin:miter;stroke-miterlimit:4;stroke-dasharray:none;stroke-opacity:1"
           transform="matrix(1.3333333,0,0,-1.3333333,406.1428,580.66573)"
           clip-path="url(#clipPath277)" />
        <path
           id="path278"
           d="M 0,0 -81.014,39.229 -100.202,39.22"
           style="fill:none;stroke:#bc2133;stroke-width:1;stroke-linecap:butt;stroke-linejoin:miter;stroke-miterlimit:4;stroke-dasharray:none;stroke-opacity:1"
           transform="matrix(1.3333333,0,0,-1.3333333,514.16,632.7608)"
           clip-path="url(#clipPath279)" />
      </g>
    </g>
  </g>
</svg>
