<?xml version="1.0" encoding="UTF-8" standalone="no"?>
<!-- Created with Inkscape (http://www.inkscape.org/) -->

<svg
   version="1.1"
   id="svg1"
   width="149.71671"
   height="79.713135"
   viewBox="0 0 149.71671 79.713135"
   sodipodi:docname="Fundamentals of Electric Circuits (7E).pdf"
   inkscape:version="1.3 (0e150ed6c4, 2023-07-21)"
   inkscape:dataloss="true"
   xmlns:inkscape="http://www.inkscape.org/namespaces/inkscape"
   xmlns:sodipodi="http://sodipodi.sourceforge.net/DTD/sodipodi-0.dtd"
   xmlns="http://www.w3.org/2000/svg"
   xmlns:svg="http://www.w3.org/2000/svg">
  <defs
     id="defs1">
    <clipPath
       clipPathUnits="userSpaceOnUse"
       id="clipPath203">
      <path
         d="m 284.487,598.655 h 99.779 v 56.209 h -99.779 z"
         transform="translate(-284.48701,-641.67701)"
         id="path203" />
    </clipPath>
    <clipPath
       clipPathUnits="userSpaceOnUse"
       id="clipPath205">
      <path
         d="m 284.487,598.655 h 99.779 v 56.209 h -99.779 z"
         transform="translate(-284.48701,-609.67652)"
         id="path205" />
    </clipPath>
    <clipPath
       clipPathUnits="userSpaceOnUse"
       id="clipPath209">
      <path
         d="m 284.487,597.659 h 100.586 v 57.206 H 284.487 Z"
         transform="matrix(1,0,0,-1,-315.27981,648.19601)"
         id="path209" />
    </clipPath>
    <clipPath
       clipPathUnits="userSpaceOnUse"
       id="clipPath212">
      <path
         d="m 284.487,597.659 h 100.586 v 57.206 H 284.487 Z"
         transform="matrix(1,0,0,-1,-345.16551,648.19601)"
         id="path212" />
    </clipPath>
  </defs>
  <sodipodi:namedview
     id="namedview1"
     pagecolor="#ffffff"
     bordercolor="#000000"
     borderopacity="0.25"
     inkscape:showpageshadow="2"
     inkscape:pageopacity="0.0"
     inkscape:pagecheckerboard="0"
     inkscape:deskcolor="#d1d1d1"
     inkscape:zoom="1.3083045"
     inkscape:cx="514.7884"
     inkscape:cy="736.83151"
     inkscape:window-width="1348"
     inkscape:window-height="874"
     inkscape:window-x="0"
     inkscape:window-y="0"
     inkscape:window-maximized="1"
     inkscape:current-layer="layer-MC0" />
  <g
     id="layer-MC0"
     inkscape:groupmode="layer"
     inkscape:label="Default"
     transform="translate(-369.69064,-203.8988)">
    <g
       id="g466"
       inkscape:export-filename="../../../../bode-magnitude-plot-constant.svg"
       inkscape:export-xdpi="96"
       inkscape:export-ydpi="96">
      <rect
         style="fill:#ffffff;stroke-width:1.51679"
         id="rect435"
         width="149.71669"
         height="79.713142"
         x="369.69064"
         y="203.8988" />
      <g
         id="g201">
        <g
           id="group-MC1" />
        <path
           id="path202"
           d="M 0,0 H 96.25"
           style="fill:none;stroke:#bc2133;stroke-width:1;stroke-linecap:butt;stroke-linejoin:miter;stroke-miterlimit:4;stroke-dasharray:none;stroke-opacity:1"
           transform="matrix(1.3333333,0,0,-1.3333333,379.316,224.43067)"
           clip-path="url(#clipPath203)" />
        <path
           id="path204"
           d="M 0,0 H 96.25"
           style="fill:none;stroke:#231f20;stroke-width:0.5;stroke-linecap:butt;stroke-linejoin:miter;stroke-miterlimit:4;stroke-dasharray:none;stroke-opacity:1"
           transform="matrix(1.3333333,0,0,-1.3333333,379.316,267.098)"
           clip-path="url(#clipPath205)" />
        <path
           id="path206"
           d="M 0,0 -4.975,-2.031 -3.794,0 -4.975,2.032 Z"
           style="fill:#231f20;fill-opacity:1;fill-rule:nonzero;stroke:none"
           transform="matrix(1.3333333,0,0,-1.3333333,512.35573,267.098)" />
        <path
           id="path207"
           d="m 3.7737344,-3.5168281 v 0.1289062 c 0.3398437,0 0.65625,0.058594 0.75,0.4335938 0.035156,0.1171875 0.035156,0.3398437 0.035156,0.4921875 0,0.5039062 -0.1289062,1.2070312 -0.375,1.67578123 -0.1875,0.328125 -0.4921875,0.703125 -0.9375,0.703125 -0.3398437,0 -0.5273437,-0.328125 -0.5273437,-0.66796875 0,-0.0585938 0,-0.1171875 0.023437,-0.17578125 0.070312,-0.11718753 0.1757812,-0.29296873 0.2460937,-0.39843753 0.1757813,-0.3046875 0.328125,-0.8085937 0.328125,-1.171875 0,-0.2226562 -0.082031,-0.375 -0.2695312,-0.375 -0.3046875,0 -0.5390625,0.3867188 -0.65625,0.8085938 -0.058594,0.234375 -0.09375,0.4804687 -0.09375,0.6914062 0,0.1054688 0.011719,0.28125 0.023437,0.39843753 -0.1523438,0.4453125 -0.6210938,0.890625 -0.9726563,0.890625 -0.2578125,0 -0.45703122,-0.19921875 -0.45703122,-0.75 0,-0.66796873 0.29296872,-1.52343753 0.69140622,-2.03906253 0.3046875,-0.375 0.6679688,-0.515625 1.078125,-0.515625 V -3.5168281 H 2.5081094 c -1.125,0 -1.94531252,0.8554687 -2.21484377,1.828125 -0.0585938,0.2109375 -0.0820313,0.4335937 -0.0820313,0.6445312 0,0.79687503 0.52734375,1.13671878 1.04296877,1.13671878 0.5624999,0 0.8554688,-0.19921875 1.171875,-0.57421875 0.1289063,0.28125 0.2929688,0.57421875 0.9140625,0.57421875 0.515625,0 1.1249999,-0.3515625 1.5468749,-1.13671878 0.2109375,-0.3984375 0.3515625,-0.8085937 0.3515625,-1.2421875 0,-0.375 -0.1054687,-0.7382812 -0.3632812,-0.9609375 -0.2109375,-0.1875 -0.5390625,-0.2695312 -0.9492188,-0.2695312 z m 0,0"
           style="fill:#231f20;fill-opacity:1;fill-rule:nonzero;stroke:none"
           aria-label="   ω"
           transform="matrix(1.3333333,0,0,1.3333333,505.03867,278.54067)" />
        <path
           id="path208"
           d="M 4.1030125,-2.890625e-4 V -0.59794531 h -2.625 C 2.9662937,-1.7698203 4.079575,-2.7659141 4.079575,-3.8557578 c 0,-1.0546875 -0.9140625,-1.5585938 -1.7929688,-1.5585938 -0.7617187,0 -1.45312495,0.3046875 -1.8632812,0.8320313 l 0.41015625,0.4335937 C 1.1498875,-4.5588828 1.642075,-4.8284141 2.2866062,-4.8284141 c 0.5507813,0 1.1132813,0.2929688 1.1132813,0.9726563 0,0.9257812 -1.0429688,1.8164062 -2.96484375,3.32812499 V -2.890625e-4 Z M 7.1528172,0.09346094 c 1.453125,0 2.0390625,-1.46484374 2.0390625,-2.75390624 0,-1.3125 -0.5859375,-2.7539063 -2.0390625,-2.7539063 -1.4648438,0 -2.0390625,1.4414063 -2.0390625,2.7539063 0,1.2890625 0.5742187,2.75390624 2.0390625,2.75390624 z m 0,-0.5859375 c -1.0195313,0 -1.359375,-1.11328124 -1.359375,-2.16796874 0,-1.0664063 0.3398437,-2.1679688 1.359375,-2.1679688 1.0195312,0 1.359375,1.1015625 1.359375,2.1679688 0,1.0546875 -0.3398438,2.16796874 -1.359375,2.16796874 z M 12.859848,-2.890625e-4 V -5.3440391 H 12.262192 V -2.890625e-4 Z M 15.74852,0.09346094 c 1.183594,0 1.921875,-0.9140625 1.921875,-2.02734374 0,-1.125 -0.738281,-2.0273438 -1.921875,-2.0273438 -1.171875,0 -1.910156,0.9023438 -1.910156,2.0273438 0,1.11328124 0.738281,2.02734374 1.910156,2.02734374 z m 0,-0.5390625 c -0.820312,0 -1.289062,-0.70312504 -1.289062,-1.48828124 0,-0.7851563 0.46875,-1.4882813 1.289062,-1.4882813 0.832032,0 1.289063,0.703125 1.289063,1.4882813 0,0.7851562 -0.457031,1.48828124 -1.289063,1.48828124 z m 4.447266,2.01562496 c 0.9375,0 1.839844,-0.3984375 1.839844,-1.68749996 V -3.8674766 h -0.597657 v 0.5859375 c -0.316406,-0.421875 -0.785156,-0.6796875 -1.300781,-0.6796875 -1.019531,0 -1.722656,0.7617188 -1.722656,2.0039063 0,1.25390624 0.714844,2.00390624 1.722656,2.00390624 0.539063,0 1.019531,-0.29296875 1.300781,-0.69140625 v 0.55078125 c 0,0.85546875 -0.609375,1.17187496 -1.242187,1.17187496 -0.550781,0 -0.9375,-0.15234371 -1.265625,-0.53906246 l -0.292969,0.45703125 c 0.445313,0.44531251 0.902344,0.57421871 1.558594,0.57421871 z m 0.08203,-2.05078121 c -0.773437,0 -1.242187,-0.62109379 -1.242187,-1.47656249 0,-0.8554688 0.46875,-1.4648438 1.242187,-1.4648438 0.480469,0 0.949219,0.28125 1.160156,0.6210938 v 1.6875 c -0.210937,0.33984374 -0.679687,0.63281249 -1.160156,0.63281249 z m 0,0"
           style="fill:#231f20;fill-opacity:1;fill-rule:nonzero;stroke:none"
           aria-label="20 log"
           transform="matrix(1.3333333,0,0,1.3333333,420.37307,215.73867)"
           clip-path="url(#clipPath209)" />
        <path
           id="path210"
           d="M 1.5688688,6.875e-4 V -3.9954063 H 1.1235563 l -0.9960938,1.03125 0.29296875,0.3046875 0.64453125,-0.6796875 V 6.875e-4 Z M 3.8745328,0.071 c 1.0898438,0 1.5234375,-1.1015625 1.5234375,-2.0625 0,-0.984375 -0.4335937,-2.0742188 -1.5234375,-2.0742188 -1.1015625,0 -1.5351562,1.0898438 -1.5351562,2.0742188 0,0.9609375 0.4335937,2.0625 1.5351562,2.0625 z m 0,-0.4453125 c -0.7617187,0 -1.0195312,-0.8203125 -1.0195312,-1.6171875 0,-0.8085938 0.2578125,-1.6289063 1.0195312,-1.6289063 0.7617188,0 1.0195313,0.8203125 1.0195313,1.6289063 0,0.796875 -0.2578125,1.6171875 -1.0195313,1.6171875 z m 0,0"
           style="fill:#231f20;fill-opacity:1;fill-rule:nonzero;stroke:none"
           aria-label="10 "
           transform="matrix(1.3333333,0,0,1.3333333,450.5488,218.40533)" />
        <path
           id="path211"
           d="M 4.24075,-2.890625e-4 2.4360625,-2.8010703 5.225125,-5.3440391 H 4.3579375 L 1.42825,-2.6370078 2.0259062,-5.3440391 h -0.65625 L 0.1860625,-2.890625e-4 H 0.85403125 L 1.2524687,-1.7932578 1.943875,-2.4377891 3.4673125,-2.890625e-4 Z m 0,0"
           style="fill:#231f20;fill-opacity:1;fill-rule:nonzero;stroke:none"
           aria-label="K"
           transform="matrix(1.3333333,0,0,1.3333333,460.22067,215.73867)"
           clip-path="url(#clipPath212)" />
      </g>
    </g>
  </g>
</svg>
