<?xml version="1.0" encoding="UTF-8" standalone="no"?>
<!-- Created with Inkscape (http://www.inkscape.org/) -->

<svg
   version="1.1"
   id="svg1"
   width="151.10803"
   height="84.767975"
   viewBox="0 0 151.10803 84.767975"
   sodipodi:docname="Fundamentals of Electric Circuits (7E).pdf"
   inkscape:version="1.3 (0e150ed6c4, 2023-07-21)"
   inkscape:dataloss="true"
   xmlns:inkscape="http://www.inkscape.org/namespaces/inkscape"
   xmlns:sodipodi="http://sodipodi.sourceforge.net/DTD/sodipodi-0.dtd"
   xmlns="http://www.w3.org/2000/svg"
   xmlns:svg="http://www.w3.org/2000/svg">
  <defs
     id="defs1">
    <clipPath
       clipPathUnits="userSpaceOnUse"
       id="clipPath350">
      <path
         d="M 458,407.635 H 563.181 V 465.8 H 458 Z"
         transform="translate(-458.00001,-426.05731)"
         id="path350" />
    </clipPath>
    <clipPath
       clipPathUnits="userSpaceOnUse"
       id="clipPath352">
      <path
         d="M 458,407.635 H 563.332 V 465.8 H 458 Z"
         transform="matrix(1,0,0,-1,-557.69261,417.64811)"
         id="path352" />
    </clipPath>
    <clipPath
       clipPathUnits="userSpaceOnUse"
       id="clipPath357">
      <path
         d="M 458,407.635 H 563.332 V 465.8 H 458 Z"
         transform="matrix(1,0,0,-1,-539.73461,459.13201)"
         id="path357" />
    </clipPath>
    <clipPath
       clipPathUnits="userSpaceOnUse"
       id="clipPath362">
      <path
         d="M 458,407.635 H 563.332 V 465.8 H 458 Z"
         transform="matrix(1,0,0,-1,-473.19601,409.81121)"
         id="path362" />
    </clipPath>
  </defs>
  <sodipodi:namedview
     id="namedview1"
     pagecolor="#ffffff"
     bordercolor="#000000"
     borderopacity="0.25"
     inkscape:showpageshadow="2"
     inkscape:pageopacity="0.0"
     inkscape:pagecheckerboard="0"
     inkscape:deskcolor="#d1d1d1"
     inkscape:zoom="1.3083045"
     inkscape:cx="514.7884"
     inkscape:cy="736.83151"
     inkscape:window-width="1348"
     inkscape:window-height="874"
     inkscape:window-x="0"
     inkscape:window-y="0"
     inkscape:window-maximized="1"
     inkscape:current-layer="layer-MC0" />
  <g
     id="layer-MC0"
     inkscape:groupmode="layer"
     inkscape:label="Default"
     transform="translate(-606.06226,-455.35733)">
    <g
       id="g460">
      <rect
         style="fill:#ffffff;stroke-width:1.57139"
         id="rect449"
         width="151.10803"
         height="84.767982"
         x="606.06226"
         y="455.35733" />
      <g
         id="g346">
        <g
           id="group-MC11" />
        <path
           id="path347"
           d="M 0,0 H 93.4"
           style="fill:none;stroke:#231f20;stroke-width:0.5;stroke-linecap:butt;stroke-linejoin:miter;stroke-miterlimit:4;stroke-dasharray:none;stroke-opacity:1"
           transform="matrix(1.3333333,0,0,-1.3333333,621.66667,511.96787)" />
        <path
           id="path348"
           d="M 0,0 -1.18,-2.032 3.795,0 -1.18,2.031 Z"
           style="fill:#231f20;fill-opacity:1;fill-rule:nonzero;stroke:none"
           transform="matrix(1.3333333,0,0,-1.3333333,745.848,511.968)" />
        <path
           id="path349"
           d="m 0,0 h 19 l 54.5,28.45 h 31.65"
           style="fill:none;stroke:#bc2133;stroke-width:1;stroke-linecap:butt;stroke-linejoin:miter;stroke-miterlimit:4;stroke-dasharray:none;stroke-opacity:1"
           transform="matrix(1.3333333,0,0,-1.3333333,610.66667,511.9236)"
           clip-path="url(#clipPath350)" />
        <path
           id="path351"
           d="m 3.7732203,-3.5149859 v 0.1289062 c 0.3398438,0 0.65625,0.058594 0.75,0.4335938 0.035156,0.1171875 0.035156,0.3398437 0.035156,0.4921875 0,0.5039062 -0.1289063,1.2070312 -0.375,1.67578121 -0.1875,0.328125 -0.4921875,0.703125 -0.9375,0.703125 -0.3398438,0 -0.5273438,-0.328125 -0.5273438,-0.66796875 0,-0.0585938 0,-0.1171875 0.023437,-0.17578125 0.070312,-0.11718751 0.1757813,-0.29296871 0.2460938,-0.39843751 0.1757812,-0.3046875 0.328125,-0.8085937 0.328125,-1.171875 0,-0.2226562 -0.082031,-0.375 -0.2695313,-0.375 -0.3046875,0 -0.5390625,0.3867188 -0.65625,0.8085938 -0.058594,0.234375 -0.09375,0.4804687 -0.09375,0.6914062 0,0.1054688 0.011719,0.28125 0.023437,0.39843751 -0.1523437,0.4453125 -0.6210937,0.890625 -0.9726562,0.890625 -0.2578125,0 -0.45703129,-0.19921875 -0.45703129,-0.75 0,-0.66796871 0.29296879,-1.52343751 0.69140629,-2.03906251 0.3046875,-0.375 0.6679687,-0.515625 1.078125,-0.515625 V -3.5149859 H 2.5075953 c -1.125,0 -1.94531249,0.8554687 -2.21484374,1.828125 -0.0585938,0.2109375 -0.0820313,0.4335937 -0.0820313,0.6445312 0,0.79687501 0.52734375,1.13671876 1.04296884,1.13671876 0.5625,0 0.8554687,-0.19921875 1.171875,-0.57421875 0.1289062,0.28125 0.2929687,0.57421875 0.9140625,0.57421875 0.515625,0 1.1249999,-0.3515625 1.5468749,-1.13671876 0.2109375,-0.3984375 0.3515625,-0.8085937 0.3515625,-1.2421875 0,-0.375 -0.1054687,-0.7382812 -0.3632812,-0.9609375 -0.2109375,-0.1875 -0.5390625,-0.2695312 -0.9492187,-0.2695312 z m 0,0"
           style="fill:#231f20;fill-opacity:1;fill-rule:nonzero;stroke:none"
           aria-label="ω"
           transform="matrix(1.3333333,0,0,1.3333333,743.59013,523.13587)"
           clip-path="url(#clipPath352)" />
        <path
           id="path353"
           d="M 0,0 V 3.5 M 27.25,0 V 3.5 M -27.25,0 v 3.5"
           style="fill:none;stroke:#231f20;stroke-width:0.5;stroke-linecap:butt;stroke-linejoin:miter;stroke-miterlimit:4;stroke-dasharray:none;stroke-opacity:1"
           transform="matrix(1.3333333,0,0,-1.3333333,672.33333,511.83507)" />
        <g
           id="g353"
           aria-label="90N°"
           transform="matrix(1.3333333,0,0,1.3333333,719.64613,467.824)"
           clip-path="url(#clipPath357)">
          <path
             id="path354"
             d="m 2.1550484,0.09391406 c 1.4882813,0 2.1679688,-1.31249996 2.1679688,-2.75390626 0,-1.4648437 -0.5742188,-2.765625 -2.0625,-2.765625 -1.1601563,0 -1.87500001,0.8203125 -1.87500001,1.7460938 0,1.1367187 0.79687501,1.6992187 1.75781251,1.6992187 0.6796875,0 1.2773437,-0.4570312 1.5,-0.8320312 0.011719,0.070312 0.011719,0.1523437 0.011719,0.2226562 0,1.0078125 -0.421875,2.08593751 -1.5,2.08593751 -0.5507812,0 -0.8789062,-0.22265625 -1.1484375,-0.53906251 L 0.66676719,-0.55061719 C 1.0066109,-0.16389844 1.4753609,0.09391406 2.1550484,0.09391406 Z m 0.140625,-2.64843746 c -0.6914062,0 -1.2304687,-0.3632813 -1.2304687,-1.1484375 0,-0.5039063 0.4101562,-1.1367188 1.21875,-1.1367188 0.9375,0 1.2890625,0.8320313 1.3359375,1.5 -0.28125,0.46875 -0.796875,0.7851563 -1.3242188,0.7851563 z m 4.8808594,2.64843746 c 1.453125,0 2.0390625,-1.46484376 2.0390625,-2.75390626 0,-1.3125 -0.5859375,-2.7539062 -2.0390625,-2.7539062 -1.4648437,0 -2.0390625,1.4414062 -2.0390625,2.7539062 0,1.2890625 0.5742188,2.75390626 2.0390625,2.75390626 z m 0,-0.5859375 c -1.0195312,0 -1.359375,-1.11328126 -1.359375,-2.16796876 0,-1.0664062 0.3398438,-2.1679687 1.359375,-2.1679687 1.0195313,0 1.359375,1.1015625 1.359375,2.1679687 0,1.0546875 -0.3398437,2.16796876 -1.359375,2.16796876 z m 0,0"
             style="fill:#231f20;fill-opacity:1;fill-rule:nonzero;stroke:none" />
          <path
             id="path355"
             d="M 14.228291,1.640625e-4 15.411884,-5.3435859 h -0.667968 l -0.9375,4.2773437 -2.132813,-4.2773437 H 10.993916 L 9.8103219,1.640625e-4 H 10.478291 L 11.439228,-4.3592109 13.595478,1.640625e-4 Z m 0,0"
             style="fill:#231f20;fill-opacity:1;fill-rule:nonzero;stroke:none" />
          <path
             id="path356"
             d="m 18.031025,-4.2654609 c 0,-0.6328125 -0.503906,-1.1484375 -1.125,-1.1484375 -0.65625,0 -1.160156,0.5039062 -1.160156,1.1367187 0,0.65625 0.492187,1.1601563 1.148437,1.1601563 0.632813,0 1.136719,-0.5039063 1.136719,-1.1484375 z m -0.304687,-0.011719 c 0,0.4804688 -0.375,0.8789063 -0.832032,0.8789063 -0.457031,0 -0.832031,-0.3867188 -0.832031,-0.8671875 0,-0.46875 0.375,-0.8671875 0.808594,-0.8671875 0.46875,0 0.855469,0.3867187 0.855469,0.8554687 z m 0,0"
             style="fill:#231f20;fill-opacity:1;fill-rule:nonzero;stroke:none" />
        </g>
        <g
           id="g357"
           aria-label="0°&#10;z"
           transform="matrix(1.3333333,0,0,1.3333333,621.05253,505.75173)">
          <path
             id="path358"
             d="m 2.4479047,0.09245 c 1.453125,0 2.0390625,-1.4648438 2.0390625,-2.7539063 0,-1.3125 -0.5859375,-2.7539062 -2.0390625,-2.7539062 -1.46484376,0 -2.03906251,1.4414062 -2.03906251,2.7539062 0,1.2890625 0.57421875,2.7539063 2.03906251,2.7539063 z m 0,-0.5859375 c -1.0195313,0 -1.359375,-1.1132813 -1.359375,-2.1679688 0,-1.0664062 0.3398437,-2.1679687 1.359375,-2.1679687 1.0195312,0 1.359375,1.1015625 1.359375,2.1679687 0,1.0546875 -0.3398438,2.1679688 -1.359375,2.1679688 z m 0,0"
             style="fill:#231f20;fill-opacity:1;fill-rule:nonzero;stroke:none" />
          <path
             id="path359"
             d="m 7.6393109,-4.266925 c 0,-0.6328125 -0.5039062,-1.1484375 -1.125,-1.1484375 -0.65625,0 -1.1601562,0.5039062 -1.1601562,1.1367187 0,0.65625 0.4921875,1.1601563 1.1484375,1.1601563 0.6328125,0 1.1367187,-0.5039063 1.1367187,-1.1484375 z M 7.3346234,-4.278644 c 0,0.4804688 -0.375,0.8789063 -0.8320312,0.8789063 -0.4570313,0 -0.8320313,-0.3867188 -0.8320313,-0.8671875 0,-0.46875 0.375,-0.8671875 0.8085938,-0.8671875 0.46875,0 0.8554687,0.3867187 0.8554687,0.8554687 z m 0,0"
             style="fill:#231f20;fill-opacity:1;fill-rule:nonzero;stroke:none" />
          <path
             id="path360"
             d="m 12.449858,12.353192 0.117187,-0.515625 h -2.15625 L 13.164702,8.9430359 13.27017,8.4860047 h -2.90625 l -0.128906,0.5273437 h 2.097656 l -2.7304684,2.8710936 -0.09375,0.46875 z m 0,0"
             style="fill:#231f20;fill-opacity:1;fill-rule:nonzero;stroke:none" />
        </g>
        <path
           id="path361"
           d="M 2.0872031,6.53125e-4 V -5.3430969 H 1.5012656 l -1.33593747,1.3828125 0.3984375,0.4101563 0.86718747,-0.9023438 V 6.53125e-4 Z M 5.1604453,0.09440312 c 1.453125,0 2.0390625,-1.46484372 2.0390625,-2.75390622 0,-1.3125 -0.5859375,-2.7539063 -2.0390625,-2.7539063 -1.4648437,0 -2.0390625,1.4414063 -2.0390625,2.7539063 0,1.2890625 0.5742188,2.75390622 2.0390625,2.75390622 z m 0,-0.5859375 c -1.0195312,0 -1.359375,-1.11328122 -1.359375,-2.16796872 0,-1.0664063 0.3398438,-2.1679688 1.359375,-2.1679688 1.0195313,0 1.359375,1.1015625 1.359375,2.1679688 0,1.0546875 -0.3398437,2.16796872 -1.359375,2.16796872 z m 0,0"
           style="fill:#231f20;fill-opacity:1;fill-rule:nonzero;stroke:none"
           aria-label="10"
           transform="matrix(1.3333333,0,0,1.3333333,630.928,533.58507)"
           clip-path="url(#clipPath362)" />
        <path
           id="path363"
           d="M 0,0 H 6.875"
           style="fill:none;stroke:#231f20;stroke-width:0.5;stroke-linecap:butt;stroke-linejoin:miter;stroke-miterlimit:4;stroke-dasharray:none;stroke-opacity:1"
           transform="matrix(1.3333333,0,0,-1.3333333,631.91667,524.75173)" />
        <g
           id="g363"
           aria-label="z&#10;10z"
           transform="matrix(1.3333333,0,0,1.3333333,669.81613,522.2856)">
          <path
             id="path364"
             d="M 2.9298922,-3.328125e-4 3.0470797,-0.51595781 H 0.89082969 L 3.6447359,-3.4104891 3.7502047,-3.8675203 H 0.84395469 L 0.71504844,-3.3401766 H 2.8127047 l -2.73046876,2.87109379 -0.09375,0.4687499975 z m 0,0"
             style="fill:#231f20;fill-opacity:1;fill-rule:nonzero;stroke:none" />
          <path
             id="path365"
             d="m 25.535361,1.9830656 v -5.34375 h -0.585938 l -1.335937,1.3828125 0.398437,0.4101563 0.867188,-0.9023438 v 4.453125 z m 3.073242,0.09375 c 1.453125,0 2.039063,-1.46484373 2.039063,-2.75390623 0,-1.31249997 -0.585938,-2.75390627 -2.039063,-2.75390627 -1.464844,0 -2.039062,1.4414063 -2.039062,2.75390627 0,1.2890625 0.574218,2.75390623 2.039062,2.75390623 z m 0,-0.5859375 c -1.019531,0 -1.359375,-1.11328123 -1.359375,-2.16796873 0,-1.06640627 0.339844,-2.16796877 1.359375,-2.16796877 1.019531,0 1.359375,1.1015625 1.359375,2.16796877 0,1.0546875 -0.339844,2.16796873 -1.359375,2.16796873 z m 0,0"
             style="fill:#231f20;fill-opacity:1;fill-rule:nonzero;stroke:none" />
          <path
             id="path366"
             d="m 33.98458,1.9830656 0.117187,-0.515625 h -2.15625 l 2.753906,-2.8945312 0.105469,-0.4570313 h -2.90625 l -0.128906,0.5273438 h 2.097656 l -2.730469,2.8710937 -0.09375,0.46875 z m 0,0"
             style="fill:#231f20;fill-opacity:1;fill-rule:nonzero;stroke:none" />
        </g>
      </g>
    </g>
  </g>
</svg>
