<?xml version="1.0" encoding="UTF-8" standalone="no"?>
<!-- Created with Inkscape (http://www.inkscape.org/) -->

<svg
   version="1.1"
   id="svg1"
   width="149.71667"
   height="67.229797"
   viewBox="0 0 149.71667 67.229797"
   sodipodi:docname="Fundamentals of Electric Circuits (7E).pdf"
   inkscape:version="1.3 (0e150ed6c4, 2023-07-21)"
   inkscape:dataloss="true"
   xmlns:inkscape="http://www.inkscape.org/namespaces/inkscape"
   xmlns:sodipodi="http://sodipodi.sourceforge.net/DTD/sodipodi-0.dtd"
   xmlns="http://www.w3.org/2000/svg"
   xmlns:svg="http://www.w3.org/2000/svg">
  <defs
     id="defs1">
    <clipPath
       clipPathUnits="userSpaceOnUse"
       id="clipPath313">
      <path
         d="m 457.85,599.602 h 99.78 v 24.289 h -99.78 z"
         transform="translate(-457.85001,-610.47112)"
         id="path313" />
    </clipPath>
    <clipPath
       clipPathUnits="userSpaceOnUse"
       id="clipPath315">
      <path
         d="m 457.85,599.602 h 99.78 v 24.289 h -99.78 z"
         transform="translate(-457.85001,-610.47112)"
         id="path315" />
    </clipPath>
    <clipPath
       clipPathUnits="userSpaceOnUse"
       id="clipPath320">
      <path
         d="m 457.85,597.891 h 100 v 26 h -100 z"
         transform="matrix(1,0,0,-1,-552.14201,602.04242)"
         id="path320" />
    </clipPath>
    <clipPath
       clipPathUnits="userSpaceOnUse"
       id="clipPath322">
      <path
         d="m 457.85,597.891 h 100 v 26 h -100 z"
         transform="translate(-491.32561,-613.62682)"
         id="path322" />
    </clipPath>
    <clipPath
       clipPathUnits="userSpaceOnUse"
       id="clipPath324">
      <path
         d="m 457.85,597.891 h 100 v 26 h -100 z"
         transform="translate(-492.61511,-613.84802)"
         id="path324" />
    </clipPath>
  </defs>
  <sodipodi:namedview
     id="namedview1"
     pagecolor="#ffffff"
     bordercolor="#000000"
     borderopacity="0.25"
     inkscape:showpageshadow="2"
     inkscape:pageopacity="0.0"
     inkscape:pagecheckerboard="0"
     inkscape:deskcolor="#d1d1d1"
     inkscape:zoom="1.3083045"
     inkscape:cx="514.7884"
     inkscape:cy="736.83151"
     inkscape:window-width="1348"
     inkscape:window-height="874"
     inkscape:window-x="0"
     inkscape:window-y="0"
     inkscape:window-maximized="1"
     inkscape:current-layer="layer-MC0" />
  <g
     id="layer-MC0"
     inkscape:groupmode="layer"
     inkscape:label="Default"
     transform="translate(-602.29132,-215.60886)">
    <g
       id="g465">
      <rect
         style="fill:#ffffff;stroke-width:1.39297"
         id="rect446"
         width="149.71669"
         height="67.22979"
         x="602.29132"
         y="215.60886" />
      <g
         id="g311">
        <g
           id="group-MC8" />
        <path
           id="path312"
           d="M 0,0 H 96.25"
           style="fill:none;stroke:#231f20;stroke-width:0.5;stroke-linecap:butt;stroke-linejoin:miter;stroke-miterlimit:4;stroke-dasharray:none;stroke-opacity:1"
           transform="matrix(1.3333333,0,0,-1.3333333,610.46667,266.03853)"
           clip-path="url(#clipPath313)" />
        <path
           id="path314"
           d="M 0,0 H 96.19"
           style="fill:none;stroke:#bc2133;stroke-width:1;stroke-linecap:butt;stroke-linejoin:miter;stroke-miterlimit:4;stroke-dasharray:none;stroke-opacity:1"
           transform="matrix(1.3333333,0,0,-1.3333333,610.46667,266.03853)"
           clip-path="url(#clipPath315)" />
        <path
           id="path316"
           d="M 0,0 -1.181,-2.032 3.794,0 -1.181,2.032 Z"
           style="fill:#231f20;fill-opacity:1;fill-rule:nonzero;stroke:none"
           transform="matrix(1.3333333,0,0,-1.3333333,738.4476,266.0388)" />
        <g
           id="g316"
           aria-label="ω&#10;0°"
           transform="matrix(1.3333333,0,0,1.3333333,736.18933,277.2768)"
           clip-path="url(#clipPath320)">
          <path
             id="path317"
             d="m 3.7720625,-3.5152172 v 0.1289063 c 0.3398438,0 0.65625,0.058594 0.75,0.4335937 0.035156,0.1171875 0.035156,0.3398438 0.035156,0.4921875 0,0.5039063 -0.1289063,1.2070313 -0.375,1.67578126 -0.1875,0.328125 -0.4921875,0.703125 -0.9375,0.703125 -0.3398438,0 -0.5273438,-0.328125 -0.5273438,-0.66796875 0,-0.0585938 0,-0.1171875 0.023437,-0.17578125 0.070312,-0.11718746 0.1757813,-0.29296876 0.2460938,-0.39843746 0.1757812,-0.3046875 0.328125,-0.8085938 0.328125,-1.171875 0,-0.2226563 -0.082031,-0.375 -0.2695313,-0.375 -0.3046875,0 -0.5390625,0.3867187 -0.65625,0.8085937 -0.058594,0.234375 -0.09375,0.4804688 -0.09375,0.6914063 0,0.1054687 0.011719,0.28125 0.023437,0.39843746 -0.1523437,0.4453125 -0.6210937,0.890625 -0.9726562,0.890625 -0.2578125,0 -0.4570313,-0.19921875 -0.4570313,-0.75 0,-0.66796876 0.2929688,-1.52343746 0.6914063,-2.03906246 0.3046875,-0.375 0.6679687,-0.515625 1.078125,-0.515625 V -3.5152172 H 2.5064375 c -1.125,0 -1.9453125,0.8554688 -2.21484375,1.828125 -0.0585937,0.2109375 -0.0820312,0.4335938 -0.0820312,0.6445313 0,0.79687496 0.52734375,1.13671871 1.04296875,1.13671871 0.5625,0 0.8554687,-0.19921875 1.1718751,-0.57421875 0.1289061,0.28125 0.2929686,0.57421875 0.9140625,0.57421875 0.515625,0 1.1249999,-0.3515625 1.5468749,-1.13671871 0.2109375,-0.3984375 0.3515625,-0.8085938 0.3515625,-1.2421875 0,-0.375 -0.1054688,-0.7382813 -0.3632813,-0.9609375 -0.2109375,-0.1875 -0.5390625,-0.2695313 -0.9492186,-0.2695313 z m 0,0"
             style="fill:#231f20;fill-opacity:1;fill-rule:nonzero;stroke:none" />
          <path
             id="path318"
             d="m -48.815828,-15.090413 c 1.453125,0 2.039062,-1.464843 2.039062,-2.753906 0,-1.3125 -0.585937,-2.753906 -2.039062,-2.753906 -1.464844,0 -2.039063,1.441406 -2.039063,2.753906 0,1.289063 0.574219,2.753906 2.039063,2.753906 z m 0,-0.585937 c -1.019531,0 -1.359375,-1.113281 -1.359375,-2.167969 0,-1.066406 0.339844,-2.167969 1.359375,-2.167969 1.019531,0 1.359375,1.101563 1.359375,2.167969 0,1.054688 -0.339844,2.167969 -1.359375,2.167969 z m 0,0"
             style="fill:#231f20;fill-opacity:1;fill-rule:nonzero;stroke:none" />
          <path
             id="path319"
             d="m -43.624422,-19.449788 c 0,-0.632812 -0.503906,-1.148437 -1.125,-1.148437 -0.65625,0 -1.160156,0.503906 -1.160156,1.136719 0,0.65625 0.492187,1.160156 1.148437,1.160156 0.632813,0 1.136719,-0.503906 1.136719,-1.148438 z m -0.304687,-0.01172 c 0,0.480468 -0.375,0.878906 -0.832032,0.878906 -0.457031,0 -0.832031,-0.386719 -0.832031,-0.867188 0,-0.46875 0.375,-0.867187 0.808594,-0.867187 0.46875,0 0.855469,0.386719 0.855469,0.855469 z m 0,0"
             style="fill:#231f20;fill-opacity:1;fill-rule:nonzero;stroke:none" />
        </g>
        <path
           id="path321"
           d="M 0,0 C 1.277,2.763 3.659,5.006 6.784,6.019"
           style="fill:none;stroke:#231f20;stroke-width:0.5;stroke-linecap:butt;stroke-linejoin:miter;stroke-miterlimit:4;stroke-dasharray:none;stroke-opacity:1"
           transform="matrix(1.3333333,0,0,-1.3333333,655.1008,261.83093)"
           clip-path="url(#clipPath322)" />
        <path
           id="path323"
           d="m 0,0 -2.694,-3.233 0.716,4.147 z"
           style="fill:#231f20;fill-opacity:1;fill-rule:nonzero;stroke:none"
           transform="matrix(1.3333333,0,0,-1.3333333,656.82013,261.536)"
           clip-path="url(#clipPath324)" />
      </g>
    </g>
  </g>
</svg>
