<?xml version="1.0" encoding="UTF-8" standalone="no"?>
<!-- Created with Inkscape (http://www.inkscape.org/) -->

<svg
   version="1.1"
   id="svg1"
   width="163.12262"
   height="116.41077"
   viewBox="0 0 163.12262 116.41077"
   sodipodi:docname="Fundamentals of Electric Circuits (7E).pdf"
   inkscape:version="1.3 (0e150ed6c4, 2023-07-21)"
   inkscape:dataloss="true"
   xmlns:inkscape="http://www.inkscape.org/namespaces/inkscape"
   xmlns:sodipodi="http://sodipodi.sourceforge.net/DTD/sodipodi-0.dtd"
   xmlns="http://www.w3.org/2000/svg"
   xmlns:svg="http://www.w3.org/2000/svg">
  <defs
     id="defs1">
    <clipPath
       clipPathUnits="userSpaceOnUse"
       id="clipPath299">
      <path
         d="M 283.612,144.362 H 394.33 v 78.626 H 283.612 Z"
         transform="matrix(1,0,0,-1,-388.84201,201.57691)"
         id="path299" />
    </clipPath>
    <clipPath
       clipPathUnits="userSpaceOnUse"
       id="clipPath302">
      <path
         d="M 283.612,144.362 H 394.33 v 78.626 H 283.612 Z"
         transform="matrix(1,0,0,-1,-283.61191,154.2487)"
         id="path302" />
    </clipPath>
    <clipPath
       clipPathUnits="userSpaceOnUse"
       id="clipPath307">
      <path
         d="M 283.612,144.362 H 394.33 v 78.626 H 283.612 Z"
         transform="translate(-367.85321,-144.615)"
         id="path307" />
    </clipPath>
    <clipPath
       clipPathUnits="userSpaceOnUse"
       id="clipPath309">
      <path
         d="M 283.612,144.362 H 394.33 v 78.626 H 283.612 Z"
         transform="translate(-355.50461,-158.69211)"
         id="path309" />
    </clipPath>
    <clipPath
       clipPathUnits="userSpaceOnUse"
       id="clipPath311">
      <path
         d="M 283.612,144.362 H 394.33 v 78.626 H 283.612 Z"
         transform="translate(-354.20971,-158.8786)"
         id="path311" />
    </clipPath>
  </defs>
  <sodipodi:namedview
     id="namedview1"
     pagecolor="#ffffff"
     bordercolor="#000000"
     borderopacity="0.25"
     inkscape:showpageshadow="2"
     inkscape:pageopacity="0.0"
     inkscape:pagecheckerboard="0"
     inkscape:deskcolor="#d1d1d1"
     inkscape:zoom="1.3083045"
     inkscape:cx="514.7884"
     inkscape:cy="736.83151"
     inkscape:window-width="1348"
     inkscape:window-height="874"
     inkscape:window-x="0"
     inkscape:window-y="0"
     inkscape:window-maximized="1"
     inkscape:current-layer="layer-MC0" />
  <g
     id="layer-MC0"
     inkscape:groupmode="layer"
     inkscape:label="Default"
     transform="translate(-371.44922,-781.37866)">
    <g
       id="g453">
      <rect
         style="fill:#ffffff;stroke-width:1.91327"
         id="rect441"
         width="163.12262"
         height="116.4108"
         x="371.44922"
         y="781.37866" />
      <g
         id="g295">
        <g
           id="group-MC7" />
        <path
           id="path296"
           d="M 0,0 H 87.25"
           style="fill:none;stroke:#231f20;stroke-width:0.5;stroke-linecap:butt;stroke-linejoin:miter;stroke-miterlimit:4;stroke-dasharray:none;stroke-opacity:1"
           transform="matrix(1.3333333,0,0,-1.3333333,404.732,799.81933)" />
        <path
           id="path297"
           d="M 0,0 -1.182,-2.032 3.793,0 -1.182,2.032 Z"
           style="fill:#231f20;fill-opacity:1;fill-rule:nonzero;stroke:none"
           transform="matrix(1.3333333,0,0,-1.3333333,520.7148,799.8192)" />
        <path
           id="path298"
           d="m 3.7742109,-3.5158734 v 0.1289062 c 0.3398438,0 0.65625,0.058594 0.75,0.4335938 0.035156,0.1171875 0.035156,0.3398437 0.035156,0.4921875 0,0.5039062 -0.1289063,1.2070312 -0.375,1.67578121 -0.1875,0.328125 -0.4921875,0.703125 -0.9375,0.703125 -0.3398438,0 -0.5273438,-0.328125 -0.5273438,-0.66796875 0,-0.0585938 0,-0.1171875 0.023437,-0.17578125 0.070312,-0.11718751 0.1757813,-0.29296871 0.2460938,-0.39843751 0.1757812,-0.3046875 0.328125,-0.8085937 0.328125,-1.171875 0,-0.2226562 -0.082031,-0.375 -0.2695313,-0.375 -0.3046875,0 -0.5390625,0.3867188 -0.65625,0.8085938 -0.058594,0.234375 -0.09375,0.4804687 -0.09375,0.6914062 0,0.1054688 0.011719,0.28125 0.023437,0.39843751 -0.1523437,0.4453125 -0.6210937,0.890625 -0.9726562,0.890625 -0.2578125,0 -0.45703126,-0.19921875 -0.45703126,-0.75 0,-0.66796871 0.29296876,-1.52343751 0.69140626,-2.03906251 0.3046875,-0.375 0.6679687,-0.515625 1.078125,-0.515625 V -3.5158734 H 2.5085859 c -1.125,0 -1.94531246,0.8554687 -2.21484371,1.828125 -0.0585938,0.2109375 -0.0820313,0.4335937 -0.0820313,0.6445312 0,0.79687501 0.52734375,1.13671876 1.04296881,1.13671876 0.5625,0 0.8554687,-0.19921875 1.171875,-0.57421875 0.1289061,0.28125 0.2929686,0.57421875 0.9140625,0.57421875 0.515625,0 1.1249999,-0.3515625 1.5468749,-1.13671876 0.2109375,-0.3984375 0.3515625,-0.8085937 0.3515625,-1.2421875 0,-0.375 -0.1054688,-0.7382812 -0.3632813,-0.9609375 -0.2109375,-0.1875 -0.5390625,-0.2695312 -0.9492186,-0.2695312 z M -59.729695,-18.316655 v 0.128907 c 0.339843,0 0.65625,0.05859 0.75,0.433593 0.03516,0.117188 0.03516,0.339844 0.03516,0.492188 0,0.503906 -0.128906,1.207031 -0.375,1.675781 -0.1875,0.328125 -0.492188,0.703125 -0.9375,0.703125 -0.339844,0 -0.527344,-0.328125 -0.527344,-0.667969 0,-0.05859 0,-0.117187 0.02344,-0.175781 0.07031,-0.117187 0.175781,-0.292969 0.246093,-0.398437 0.175782,-0.304688 0.328125,-0.808594 0.328125,-1.171875 0,-0.222657 -0.08203,-0.375 -0.269531,-0.375 -0.304687,0 -0.539062,0.386718 -0.65625,0.808593 -0.05859,0.234375 -0.09375,0.480469 -0.09375,0.691407 0,0.105468 0.01172,0.28125 0.02344,0.398437 -0.152344,0.445313 -0.621094,0.890625 -0.972657,0.890625 -0.257812,0 -0.457031,-0.199219 -0.457031,-0.75 0,-0.667969 0.292969,-1.523437 0.691406,-2.039062 0.304688,-0.375 0.667969,-0.515625 1.078125,-0.515625 v -0.128907 h -0.152343 c -1.125,0 -1.945313,0.855469 -2.214844,1.828125 -0.05859,0.210938 -0.08203,0.433594 -0.08203,0.644532 0,0.796875 0.527343,1.136718 1.042968,1.136718 0.5625,0 0.855469,-0.199218 1.171875,-0.574218 0.128907,0.28125 0.292969,0.574218 0.914063,0.574218 0.515625,0 1.125,-0.351562 1.546875,-1.136718 0.210937,-0.398438 0.351562,-0.808594 0.351562,-1.242188 0,-0.375 -0.105468,-0.738281 -0.363281,-0.960937 -0.210937,-0.1875 -0.539062,-0.269532 -0.949219,-0.269532 z m 0,0"
           style="fill:#231f20;fill-opacity:1;fill-rule:nonzero;stroke:none"
           aria-label="ω&#10;ω"
           transform="matrix(1.3333333,0,0,1.3333333,518.456,811.2308)"
           clip-path="url(#clipPath299)" />
        <path
           id="path300"
           d="m 2.6723766,-0.00125313 -0.9375,-1.58203127 1.5820312,-1.3125 H 2.7192516 L 0.87940781,-1.3840656 1.4536266,-3.9973469 H 1.0083141 l -0.87890629,3.99609377 h 0.4453125 l 0.1875,-0.83203125 0.59765629,-0.49218752 0.7734375,1.32421877 z m 0,0"
           style="fill:#231f20;fill-opacity:1;fill-rule:nonzero;stroke:none"
           aria-label="k"
           transform="matrix(1.3333333,0,0,1.3333333,441.1048,794.16573)" />
        <path
           id="path301"
           d="M 3.9955219,-1.5462219 V -2.0735656 H -5.71875e-4 v 0.5273437 z m 0,0"
           style="fill:#231f20;fill-opacity:1;fill-rule:nonzero;stroke:none"
           aria-label="‒"
           transform="matrix(1.3333333,0,0,1.3333333,378.1492,874.33507)"
           clip-path="url(#clipPath302)" />
        <g
           id="g302"
           aria-label="40N dB/decade"
           transform="matrix(1.3333333,0,0,1.3333333,384.5492,875.00173)">
          <path
             id="path303"
             d="m 3.4582172,-0.0013 v -1.3476563 h 0.75 v -0.5859375 h -0.75 V -5.34505 H 2.5441547 l -2.28515626,3.4335937 v 0.5625 H 2.7902484 V -0.0013 Z M 2.7902484,-1.9348938 H 0.92696719 L 2.7902484,-4.7239563 Z M 6.9123188,0.09245 c 1.453125,0 2.0390625,-1.4648438 2.0390625,-2.7539063 0,-1.3125 -0.5859375,-2.7539062 -2.0390625,-2.7539062 -1.4648438,0 -2.0390625,1.4414062 -2.0390625,2.7539062 0,1.2890625 0.5742187,2.7539063 2.0390625,2.7539063 z m 0,-0.5859375 c -1.0195313,0 -1.359375,-1.1132813 -1.359375,-2.1679688 0,-1.0664062 0.3398437,-2.1679687 1.359375,-2.1679687 1.0195312,0 1.359375,1.1015625 1.359375,2.1679687 0,1.0546875 -0.3398438,2.1679688 -1.359375,2.1679688 z m 0,0"
             style="fill:#231f20;fill-opacity:1;fill-rule:nonzero;stroke:none" />
          <path
             id="path304"
             d="m 13.964077,-0.0013 1.183593,-5.34375 h -0.667968 l -0.9375,4.2773437 L 11.409389,-5.34505 H 10.729702 L 9.5461078,-0.0013 h 0.6679692 l 0.960937,-4.359375 2.15625,4.359375 z m 0,0"
             style="fill:#231f20;fill-opacity:1;fill-rule:nonzero;stroke:none" />
          <path
             id="path305"
             d="m 21.083217,-0.0013 v -5.34375 h -0.597656 v 2.0625 c -0.304688,-0.421875 -0.785156,-0.6796875 -1.300781,-0.6796875 -1.019532,0 -1.722657,0.796875 -1.722657,2.0273437 0,1.26562505 0.714844,2.0273438 1.722657,2.0273438 0.539062,0 1.019531,-0.28125 1.300781,-0.66796875 V -0.0013 Z m -1.757812,-0.4453125 c -0.773438,0 -1.242188,-0.6328125 -1.242188,-1.4882813 0,-0.8554687 0.46875,-1.4882812 1.242188,-1.4882812 0.480468,0 0.949218,0.28125 1.160156,0.6210937 v 1.7578125 c -0.210938,0.32812505 -0.679688,0.5976563 -1.160156,0.5976563 z M 24.745327,-0.0013 c 0.972656,0 1.546875,-0.5859375 1.546875,-1.4414063 0,-0.6445312 -0.480469,-1.21875 -1.042969,-1.3125 0.492187,-0.1054687 0.9375,-0.5507812 0.9375,-1.21875 0,-0.8085937 -0.574219,-1.3710937 -1.5,-1.3710937 h -2.378906 v 5.34375 z m -0.164063,-3.0234375 h -1.605469 v -1.7226563 h 1.605469 c 0.597656,0 0.914063,0.3867188 0.914063,0.8671875 0,0.4804688 -0.316407,0.8554688 -0.914063,0.8554688 z m 0.02344,2.42578125 H 22.975795 V -2.4388 h 1.628907 c 0.65625,0 0.996093,0.4335937 0.996093,0.9257812 0,0.56250005 -0.363281,0.91406255 -0.996093,0.91406255 z M 27.988493,0.1627625 29.88693,-5.4973938 H 29.41818 L 27.519741,0.1627625 Z M 33.883022,-0.0013 v -5.34375 h -0.597656 v 2.0625 c -0.304688,-0.421875 -0.785157,-0.6796875 -1.300782,-0.6796875 -1.019531,0 -1.722656,0.796875 -1.722656,2.0273437 0,1.26562505 0.714844,2.0273438 1.722656,2.0273438 0.539063,0 1.019532,-0.28125 1.300782,-0.66796875 V -0.0013 Z m -1.757813,-0.4453125 c -0.773437,0 -1.242187,-0.6328125 -1.242187,-1.4882813 0,-0.8554687 0.46875,-1.4882812 1.242187,-1.4882812 0.480469,0 0.949219,0.28125 1.160157,0.6210937 v 1.7578125 c -0.210938,0.32812505 -0.679688,0.5976563 -1.160157,0.5976563 z M 36.830288,0.09245 c 0.632812,0 1.148437,-0.2109375 1.535156,-0.5859375 l -0.28125,-0.3984375 c -0.304688,0.31640625 -0.761719,0.4921875 -1.195313,0.4921875 -0.832031,0 -1.347656,-0.609375 -1.394531,-1.3359375 h 3.128906 v -0.1523438 c 0,-1.1601562 -0.691406,-2.0742187 -1.851562,-2.0742187 -1.113281,0 -1.910156,0.9023437 -1.910156,2.0273437 0,1.2070313 0.820312,2.0273438 1.96875,2.0273438 z m 1.207031,-2.2734375 H 35.49435 c 0.03516,-0.5859375 0.445313,-1.2890625 1.265625,-1.2890625 0.878906,0 1.265625,0.7148437 1.277344,1.2890625 z M 41.300991,0.09245 c 0.703125,0 1.113281,-0.28125 1.417968,-0.66796875 l -0.410156,-0.375 c -0.246094,0.3515625 -0.574219,0.50390625 -0.984375,0.50390625 -0.820312,0 -1.335937,-0.6328125 -1.335937,-1.4882813 0,-0.8554687 0.515625,-1.4882812 1.335937,-1.4882812 0.410156,0 0.738281,0.1523437 0.984375,0.5039062 l 0.410156,-0.375 c -0.304687,-0.375 -0.714843,-0.6679687 -1.417968,-0.6679687 -1.160157,0 -1.933594,0.8789062 -1.933594,2.0273437 0,1.14843755 0.773437,2.0273438 1.933594,2.0273438 z m 5.273437,-0.09375 v -2.6601563 c 0,-0.9375 -0.679687,-1.3007812 -1.5,-1.3007812 -0.632812,0 -1.125,0.2109375 -1.546875,0.6445312 l 0.28125,0.4101563 c 0.339844,-0.3632813 0.726563,-0.5390625 1.183594,-0.5390625 0.5625,0 0.972656,0.3046875 0.972656,0.8203125 v 0.6914062 c -0.304687,-0.3515625 -0.75,-0.5273437 -1.277344,-0.5273437 -0.65625,0 -1.347656,0.4101562 -1.347656,1.2773437 0,0.84375005 0.691406,1.2773438 1.347656,1.2773438 0.527344,0 0.960938,-0.1875 1.277344,-0.5390625 V -0.0013 Z m -1.664062,-0.33984375 c -0.5625,0 -0.960938,-0.3515625 -0.960938,-0.83203125 0,-0.5039063 0.398438,-0.8554688 0.960938,-0.8554688 0.421875,0 0.832031,0.1640625 1.054687,0.4804688 v 0.7265625 c -0.222656,0.328125 -0.632812,0.48046875 -1.054687,0.48046875 z M 51.165248,-0.0013 v -5.34375 h -0.597656 v 2.0625 c -0.304687,-0.421875 -0.785156,-0.6796875 -1.300781,-0.6796875 -1.019531,0 -1.722656,0.796875 -1.722656,2.0273437 0,1.26562505 0.714843,2.0273438 1.722656,2.0273438 0.539062,0 1.019531,-0.28125 1.300781,-0.66796875 V -0.0013 Z m -1.757812,-0.4453125 c -0.773438,0 -1.242188,-0.6328125 -1.242188,-1.4882813 0,-0.8554687 0.46875,-1.4882812 1.242188,-1.4882812 0.480469,0 0.949219,0.28125 1.160156,0.6210937 v 1.7578125 c -0.210937,0.32812505 -0.679687,0.5976563 -1.160156,0.5976563 z M 54.112514,0.09245 c 0.632813,0 1.148438,-0.2109375 1.535156,-0.5859375 L 55.36642,-0.891925 c -0.304687,0.31640625 -0.761718,0.4921875 -1.195312,0.4921875 -0.832031,0 -1.347656,-0.609375 -1.394531,-1.3359375 h 3.128906 v -0.1523438 c 0,-1.1601562 -0.691406,-2.0742187 -1.851563,-2.0742187 -1.113281,0 -1.910156,0.9023437 -1.910156,2.0273437 0,1.2070313 0.820313,2.0273438 1.96875,2.0273438 z m 1.207031,-2.2734375 h -2.542968 c 0.03516,-0.5859375 0.445312,-1.2890625 1.265625,-1.2890625 0.878906,0 1.265625,0.7148437 1.277343,1.2890625 z m 0,0"
             style="fill:#231f20;fill-opacity:1;fill-rule:nonzero;stroke:none" />
        </g>
        <path
           id="path306"
           d="M 0,0 -38.554,65.621 H -65.669"
           style="fill:none;stroke:#bc2133;stroke-width:1;stroke-linecap:butt;stroke-linejoin:miter;stroke-miterlimit:4;stroke-dasharray:none;stroke-opacity:1"
           transform="matrix(1.3333333,0,0,-1.3333333,490.47093,887.18)"
           clip-path="url(#clipPath307)" />
        <path
           id="path308"
           d="M 0,0 C -2.066,-2.235 -5.023,-3.634 -8.308,-3.634"
           style="fill:none;stroke:#231f20;stroke-width:0.5;stroke-linecap:butt;stroke-linejoin:miter;stroke-miterlimit:4;stroke-dasharray:none;stroke-opacity:1"
           transform="matrix(1.3333333,0,0,-1.3333333,474.00613,868.41053)"
           clip-path="url(#clipPath309)" />
        <path
           id="path310"
           d="M 0,0 3.559,2.246 1.6,-1.479 Z"
           style="fill:#231f20;fill-opacity:1;fill-rule:nonzero;stroke:none"
           transform="matrix(1.3333333,0,0,-1.3333333,472.2796,868.16187)"
           clip-path="url(#clipPath311)" />
      </g>
    </g>
  </g>
</svg>
