<?xml version="1.0" encoding="UTF-8" standalone="no"?>
<!-- Created with Inkscape (http://www.inkscape.org/) -->

<svg
   version="1.1"
   id="svg1"
   width="150.59448"
   height="88.106018"
   viewBox="0 0 150.59448 88.106018"
   sodipodi:docname="Fundamentals of Electric Circuits (7E).pdf"
   inkscape:version="1.3 (0e150ed6c4, 2023-07-21)"
   inkscape:dataloss="true"
   xmlns:inkscape="http://www.inkscape.org/namespaces/inkscape"
   xmlns:sodipodi="http://sodipodi.sourceforge.net/DTD/sodipodi-0.dtd"
   xmlns="http://www.w3.org/2000/svg"
   xmlns:svg="http://www.w3.org/2000/svg">
  <defs
     id="defs1">
    <clipPath
       clipPathUnits="userSpaceOnUse"
       id="clipPath370">
      <path
         d="m 458,332.476 h 104.35 v 64.823 H 458 Z"
         transform="translate(-458.00001,-374.52401)"
         id="path370" />
    </clipPath>
    <clipPath
       clipPathUnits="userSpaceOnUse"
       id="clipPath372">
      <path
         d="m 458,332.476 h 104.502 v 64.823 H 458 Z"
         transform="matrix(1,0,0,-1,-556.86251,365.88141)"
         id="path372" />
    </clipPath>
    <clipPath
       clipPathUnits="userSpaceOnUse"
       id="clipPath375">
      <path
         d="m 458,332.476 h 104.502 v 64.823 H 458 Z"
         transform="matrix(1,0,0,-1,-535.33462,336.52011)"
         id="path375" />
    </clipPath>
    <clipPath
       clipPathUnits="userSpaceOnUse"
       id="clipPath379">
      <path
         d="m 458,332.476 h 104.502 v 64.823 H 458 Z"
         transform="matrix(1,0,0,-1,-555.42251,336.02011)"
         id="path379" />
    </clipPath>
    <clipPath
       clipPathUnits="userSpaceOnUse"
       id="clipPath386">
      <path
         d="m 458,332.476 h 104.502 v 64.823 H 458 Z"
         transform="matrix(1,0,0,-1,-474.90741,390.63201)"
         id="path386" />
    </clipPath>
  </defs>
  <sodipodi:namedview
     id="namedview1"
     pagecolor="#ffffff"
     bordercolor="#000000"
     borderopacity="0.25"
     inkscape:showpageshadow="2"
     inkscape:pageopacity="0.0"
     inkscape:pagecheckerboard="0"
     inkscape:deskcolor="#d1d1d1"
     inkscape:zoom="1.3083045"
     inkscape:cx="514.7884"
     inkscape:cy="736.83151"
     inkscape:window-width="1348"
     inkscape:window-height="874"
     inkscape:window-x="0"
     inkscape:window-y="0"
     inkscape:window-maximized="1"
     inkscape:current-layer="layer-MC0" />
  <g
     id="layer-MC0"
     inkscape:groupmode="layer"
     inkscape:label="Default"
     transform="translate(-605.91296,-549.54529)">
    <g
       id="g456">
      <rect
         style="fill:#ffffff;stroke-width:1.59931"
         id="rect450"
         width="150.59448"
         height="88.106033"
         x="605.91296"
         y="549.54529" />
      <g
         id="g366">
        <g
           id="group-MC12" />
        <path
           id="path367"
           d="M 0,0 H 92.57"
           style="fill:none;stroke:#231f20;stroke-width:0.5;stroke-linecap:butt;stroke-linejoin:miter;stroke-miterlimit:4;stroke-dasharray:none;stroke-opacity:1"
           transform="matrix(1.3333333,0,0,-1.3333333,621.66667,580.65813)" />
        <path
           id="path368"
           d="M 0,0 -1.181,-2.031 3.794,0 -1.181,2.032 Z"
           style="fill:#231f20;fill-opacity:1;fill-rule:nonzero;stroke:none"
           transform="matrix(1.3333333,0,0,-1.3333333,744.7428,580.6584)" />
        <path
           id="path369"
           d="m 0,0 h 19 l 54.5,-28.514 h 30.82"
           style="fill:none;stroke:#bc2133;stroke-width:1;stroke-linecap:butt;stroke-linejoin:miter;stroke-miterlimit:4;stroke-dasharray:none;stroke-opacity:1"
           transform="matrix(1.3333333,0,0,-1.3333333,610.66667,580.63467)"
           clip-path="url(#clipPath370)" />
        <path
           id="path371"
           d="m 3.7742188,-3.5170375 v 0.1289062 c 0.3398437,0 0.65625,0.058594 0.75,0.4335938 0.035156,0.1171875 0.035156,0.3398437 0.035156,0.4921875 0,0.5039062 -0.1289062,1.2070312 -0.375,1.67578125 -0.1875,0.328125 -0.4921875,0.703125 -0.9375,0.703125 -0.3398437,0 -0.5273437,-0.328125 -0.5273437,-0.66796875 0,-0.0585938 0,-0.1171875 0.023437,-0.17578125 0.070312,-0.11718755 0.1757812,-0.29296875 0.2460937,-0.39843755 0.1757813,-0.3046875 0.328125,-0.8085937 0.328125,-1.171875 0,-0.2226562 -0.082031,-0.375 -0.2695312,-0.375 -0.3046875,0 -0.5390625,0.3867188 -0.65625,0.8085938 -0.058594,0.234375 -0.09375,0.4804687 -0.09375,0.6914062 0,0.1054688 0.011719,0.28125 0.023437,0.39843755 -0.1523438,0.4453125 -0.6210938,0.890625 -0.9726563,0.890625 -0.2578125,0 -0.45703125,-0.19921875 -0.45703125,-0.75 0,-0.66796875 0.29296875,-1.52343755 0.69140625,-2.03906255 0.3046875,-0.375 0.6679688,-0.515625 1.078125,-0.515625 V -3.5170375 H 2.5085938 c -1.125,0 -1.94531255,0.8554687 -2.2148438,1.828125 -0.0585938,0.2109375 -0.0820313,0.4335937 -0.0820313,0.6445312 0,0.79687505 0.52734375,1.1367188 1.0429687,1.1367188 0.5625,0 0.8554688,-0.19921875 1.171875,-0.57421875 0.1289063,0.28125 0.2929688,0.57421875 0.9140625,0.57421875 0.515625,0 1.125,-0.3515625 1.546875,-1.1367188 0.2109375,-0.3984375 0.3515625,-0.8085937 0.3515625,-1.2421875 0,-0.375 -0.1054687,-0.7382812 -0.3632812,-0.9609375 -0.2109375,-0.1875 -0.5390625,-0.2695312 -0.9492188,-0.2695312 z m 0,0"
           style="fill:#231f20;fill-opacity:1;fill-rule:nonzero;stroke:none"
           aria-label="ω"
           transform="matrix(1.3333333,0,0,1.3333333,742.48333,592.15813)"
           clip-path="url(#clipPath372)" />
        <path
           id="path373"
           d="M 0,0 V 3.5 M 27.25,0 V 3.5 M -27.25,0 v 3.5"
           style="fill:none;stroke:#231f20;stroke-width:0.5;stroke-linecap:butt;stroke-linejoin:miter;stroke-miterlimit:4;stroke-dasharray:none;stroke-opacity:1"
           transform="matrix(1.3333333,0,0,-1.3333333,672.33333,580.524)" />
        <path
           id="path374"
           d="M 3.9974313,-1.5482594 V -2.0756031 H 0.0013375 v 0.5273437 z m 0,0"
           style="fill:#231f20;fill-opacity:1;fill-rule:nonzero;stroke:none"
           aria-label="‒"
           transform="matrix(1.3333333,0,0,1.3333333,713.77947,631.30653)"
           clip-path="url(#clipPath375)" />
        <g
           id="g375"
           aria-label="90N"
           transform="matrix(1.3333333,0,0,1.3333333,719.1128,631.9732)">
          <path
             id="path376"
             d="m 2.1566109,0.09334219 c 1.4882813,0 2.1679688,-1.31249999 2.1679688,-2.75390629 0,-1.4648437 -0.5742188,-2.765625 -2.0625,-2.765625 -1.1601563,0 -1.87500001,0.8203125 -1.87500001,1.7460938 0,1.1367187 0.79687501,1.6992187 1.75781251,1.6992187 0.6796875,0 1.2773437,-0.4570312 1.5,-0.8320312 0.011719,0.070312 0.011719,0.1523437 0.011719,0.2226562 0,1.0078125 -0.421875,2.08593754 -1.5,2.08593754 -0.5507812,0 -0.8789062,-0.22265625 -1.1484375,-0.53906254 L 0.66832969,-0.55118906 C 1.0081734,-0.16447031 1.4769234,0.09334219 2.1566109,0.09334219 Z m 0.140625,-2.64843749 c -0.6914062,0 -1.2304687,-0.3632813 -1.2304687,-1.1484375 0,-0.5039063 0.4101562,-1.1367188 1.21875,-1.1367188 0.9375,0 1.2890625,0.8320313 1.3359375,1.5 -0.28125,0.46875 -0.796875,0.7851563 -1.3242188,0.7851563 z m 4.8808594,2.64843749 c 1.453125,0 2.0390625,-1.46484379 2.0390625,-2.75390629 0,-1.3125 -0.5859375,-2.7539062 -2.0390625,-2.7539062 -1.4648437,0 -2.0390625,1.4414062 -2.0390625,2.7539062 0,1.2890625 0.5742188,2.75390629 2.0390625,2.75390629 z m 0,-0.5859375 c -1.0195312,0 -1.359375,-1.11328129 -1.359375,-2.16796879 0,-1.0664062 0.3398438,-2.1679687 1.359375,-2.1679687 1.0195313,0 1.359375,1.1015625 1.359375,2.1679687 0,1.0546875 -0.3398437,2.16796879 -1.359375,2.16796879 z m 0,0"
             style="fill:#231f20;fill-opacity:1;fill-rule:nonzero;stroke:none" />
          <path
             id="path377"
             d="M 14.229853,-4.078125e-4 15.413447,-5.3441578 h -0.667969 l -0.9375,4.2773437 -2.132812,-4.2773437 H 10.995478 L 9.8118844,-4.078125e-4 h 0.6679686 l 0.960938,-4.3593749875 2.15625,4.3593749875 z m 0,0"
             style="fill:#231f20;fill-opacity:1;fill-rule:nonzero;stroke:none" />
        </g>
        <path
           id="path378"
           d="m 2.7415625,-4.2660328 c 0,-0.6328125 -0.5039062,-1.1484375 -1.125,-1.1484375 -0.65625,0 -1.16015625,0.5039062 -1.16015625,1.1367187 0,0.65625 0.4921875,1.1601563 1.14843755,1.1601563 0.6328125,0 1.1367187,-0.5039063 1.1367187,-1.1484375 z M 2.436875,-4.2777516 c 0,0.4804688 -0.375,0.8789063 -0.8320312,0.8789063 -0.4570313,0 -0.8320313,-0.3867188 -0.8320313,-0.8671875 0,-0.46875 0.375,-0.8671875 0.8085938,-0.8671875 0.46875,0 0.8554687,0.3867187 0.8554687,0.8554687 z m 0,0"
           style="fill:#231f20;fill-opacity:1;fill-rule:nonzero;stroke:none"
           aria-label="°"
           transform="matrix(1.3333333,0,0,1.3333333,740.56333,631.9732)"
           clip-path="url(#clipPath379)" />
        <g
           id="g379"
           aria-label="0°&#10;p&#10;10p"
           transform="matrix(1.3333333,0,0,1.3333333,630.30253,593.94067)">
          <path
             id="path380"
             d="m 2.4479047,0.09430469 c 1.453125,0 2.0390625,-1.46484379 2.0390625,-2.75390629 0,-1.3125 -0.5859375,-2.7539062 -2.0390625,-2.7539062 -1.46484376,0 -2.03906251,1.4414062 -2.03906251,2.7539062 0,1.2890625 0.57421875,2.75390629 2.03906251,2.75390629 z m 0,-0.5859375 c -1.0195313,0 -1.359375,-1.11328129 -1.359375,-2.16796879 0,-1.0664062 0.3398437,-2.1679687 1.359375,-2.1679687 1.0195312,0 1.359375,1.1015625 1.359375,2.1679687 0,1.0546875 -0.3398438,2.16796879 -1.359375,2.16796879 z m 0,0"
             style="fill:#231f20;fill-opacity:1;fill-rule:nonzero;stroke:none" />
          <path
             id="path381"
             d="m 7.6393109,-4.2650703 c 0,-0.6328125 -0.5039062,-1.1484375 -1.125,-1.1484375 -0.65625,0 -1.1601562,0.5039062 -1.1601562,1.1367187 0,0.65625 0.4921875,1.1601563 1.1484375,1.1601563 0.6328125,0 1.1367187,-0.5039063 1.1367187,-1.1484375 z m -0.3046875,-0.011719 c 0,0.4804688 -0.375,0.8789063 -0.8320312,0.8789063 -0.4570313,0 -0.8320313,-0.3867188 -0.8320313,-0.8671875 0,-0.46875 0.375,-0.8671875 0.8085938,-0.8671875 0.46875,0 0.8554687,0.3867187 0.8554687,0.8554687 z m 0,0"
             style="fill:#231f20;fill-opacity:1;fill-rule:nonzero;stroke:none" />
          <path
             id="path382"
             d="m 31.481108,-19.121516 c 1.242187,0 2.027344,-1.207031 2.027344,-2.460937 0,-1.007813 -0.621094,-1.59375 -1.5,-1.59375 -0.515625,0 -0.949219,0.246094 -1.277344,0.644531 l 0.128906,-0.550781 h -0.609375 l -1.183594,5.34375 h 0.609375 l 0.457032,-2.085938 c 0.257812,0.421875 0.738281,0.703125 1.347656,0.703125 z m -0.08203,-0.539062 c -0.5625,0 -0.972657,-0.269531 -1.171875,-0.621094 l 0.375,-1.699219 c 0.257812,-0.351562 0.703125,-0.65625 1.195312,-0.65625 0.632813,0 1.078125,0.445313 1.078125,1.160157 0,0.9375 -0.597656,1.816406 -1.476562,1.816406 z m 0,0"
             style="fill:#231f20;fill-opacity:1;fill-rule:nonzero;stroke:none" />
          <path
             id="path383"
             d="m 54.766264,-19.224055 v -5.34375 h -0.585937 l -1.335938,1.382813 0.398438,0.410156 0.867187,-0.902344 v 4.453125 z m 3.076172,0.09375 c 1.453125,0 2.039062,-1.464843 2.039062,-2.753906 0,-1.3125 -0.585937,-2.753906 -2.039062,-2.753906 -1.464844,0 -2.039063,1.441406 -2.039063,2.753906 0,1.289063 0.574219,2.753906 2.039063,2.753906 z m 0,-0.585937 c -1.019531,0 -1.359375,-1.113281 -1.359375,-2.167969 0,-1.066406 0.339844,-2.167969 1.359375,-2.167969 1.019531,0 1.359375,1.101563 1.359375,2.167969 0,1.054688 -0.339844,2.167969 -1.359375,2.167969 z m 0,0"
             style="fill:#231f20;fill-opacity:1;fill-rule:nonzero;stroke:none" />
          <path
             id="path384"
             d="m 62.538725,-19.130305 c 1.242188,0 2.027344,-1.207031 2.027344,-2.460937 0,-1.007813 -0.621094,-1.59375 -1.5,-1.59375 -0.515625,0 -0.949219,0.246094 -1.277344,0.644531 l 0.128906,-0.550781 h -0.609375 l -1.183593,5.34375 h 0.609375 l 0.457031,-2.085938 c 0.257812,0.421875 0.738281,0.703125 1.347656,0.703125 z m -0.08203,-0.539062 c -0.5625,0 -0.972656,-0.269531 -1.171875,-0.621094 l 0.375,-1.699219 c 0.257812,-0.351562 0.703125,-0.65625 1.195312,-0.65625 0.632813,0 1.078125,0.445313 1.078125,1.160157 0,0.9375 -0.597656,1.816406 -1.476562,1.816406 z m 0,0"
             style="fill:#231f20;fill-opacity:1;fill-rule:nonzero;stroke:none" />
        </g>
        <path
           id="path385"
           d="m 2.2508031,0.0929375 c 1.2421875,0 2.0273438,-1.2070312 2.0273438,-2.4609375 0,-1.0078125 -0.6210938,-1.59375 -1.5,-1.59375 -0.515625,0 -0.9492188,0.2460938 -1.2773438,0.6445313 L 1.6297094,-3.868 h -0.609375 l -1.18359377,5.34375 h 0.609375 l 0.45703125,-2.0859375 c 0.25781252,0.421875 0.73828122,0.703125 1.34765622,0.703125 z M 2.1687719,-0.446125 c -0.5625,0 -0.9726563,-0.26953125 -1.17187502,-0.6210937 L 1.3718969,-2.7664375 c 0.2578125,-0.3515625 0.703125,-0.65625 1.1953125,-0.65625 0.6328125,0 1.078125,0.4453125 1.078125,1.1601563 0,0.9375 -0.5976563,1.8164062 -1.4765625,1.8164062 z m 0,0"
           style="fill:#231f20;fill-opacity:1;fill-rule:nonzero;stroke:none"
           aria-label="p"
           transform="matrix(1.3333333,0,0,1.3333333,633.20987,559.15733)"
           clip-path="url(#clipPath386)" />
        <path
           id="path387"
           d="M 2.0857438,6.3125e-4 V -5.3431188 H 1.4998063 L 0.16386875,-3.9603063 0.56230625,-3.55015 1.4294938,-4.4524938 V 6.3125e-4 Z m 3.0761718,0.09375 c 1.453125,0 2.0390625,-1.46484375 2.0390625,-2.75390625 0,-1.3125 -0.5859375,-2.7539063 -2.0390625,-2.7539063 -1.4648437,0 -2.0390625,1.4414063 -2.0390625,2.7539063 0,1.2890625 0.5742188,2.75390625 2.0390625,2.75390625 z m 0,-0.5859375 c -1.0195312,0 -1.359375,-1.11328125 -1.359375,-2.16796875 0,-1.0664063 0.3398438,-2.1679688 1.359375,-2.1679688 1.0195313,0 1.359375,1.1015625 1.359375,2.1679688 0,1.0546875 -0.3398437,2.16796875 -1.359375,2.16796875 z m 0,0"
           style="fill:#231f20;fill-opacity:1;fill-rule:nonzero;stroke:none"
           aria-label="10"
           transform="matrix(1.3333333,0,0,1.3333333,630.92213,571.85853)" />
        <path
           id="path388"
           d="M 0,0 H 6.875"
           style="fill:none;stroke:#231f20;stroke-width:0.5;stroke-linecap:butt;stroke-linejoin:miter;stroke-miterlimit:4;stroke-dasharray:none;stroke-opacity:1"
           transform="matrix(1.3333333,0,0,-1.3333333,631.91147,563.02387)" />
      </g>
    </g>
  </g>
</svg>
