<?xml version="1.0" encoding="UTF-8" standalone="no"?>
<!-- Created with Inkscape (http://www.inkscape.org/) -->

<svg
   version="1.1"
   id="svg1"
   width="154.37744"
   height="121.39398"
   viewBox="0 0 154.37744 121.39398"
   sodipodi:docname="Fundamentals of Electric Circuits (7E).pdf"
   inkscape:version="1.3 (0e150ed6c4, 2023-07-21)"
   inkscape:dataloss="true"
   xmlns:inkscape="http://www.inkscape.org/namespaces/inkscape"
   xmlns:sodipodi="http://sodipodi.sourceforge.net/DTD/sodipodi-0.dtd"
   xmlns="http://www.w3.org/2000/svg"
   xmlns:svg="http://www.w3.org/2000/svg">
  <defs
     id="defs1">
    <clipPath
       clipPathUnits="userSpaceOnUse"
       id="clipPath392">
      <path
         d="m 457.925,234.554 h 104.842 v 88.17 H 457.925 Z"
         transform="translate(-457.92501,-254.3764)"
         id="path392" />
    </clipPath>
    <clipPath
       clipPathUnits="userSpaceOnUse"
       id="clipPath398">
      <path
         d="m 457.925,234.554 h 104.842 v 88.17 H 457.925 Z"
         transform="matrix(1,0,0,-1,-557.27971,245.9467)"
         id="path398" />
    </clipPath>
    <clipPath
       clipPathUnits="userSpaceOnUse"
       id="clipPath409">
      <path
         d="m 457.925,234.554 h 104.842 v 88.17 H 457.925 Z"
         transform="matrix(1,0,0,-1,-473.57071,236.72991)"
         id="path409" />
    </clipPath>
  </defs>
  <sodipodi:namedview
     id="namedview1"
     pagecolor="#ffffff"
     bordercolor="#000000"
     borderopacity="0.25"
     inkscape:showpageshadow="2"
     inkscape:pageopacity="0.0"
     inkscape:pagecheckerboard="0"
     inkscape:deskcolor="#d1d1d1"
     inkscape:zoom="1.3083045"
     inkscape:cx="514.7884"
     inkscape:cy="736.83151"
     inkscape:window-width="1348"
     inkscape:window-height="874"
     inkscape:window-x="0"
     inkscape:window-y="0"
     inkscape:window-maximized="1"
     inkscape:current-layer="layer-MC0" />
  <g
     id="layer-MC0"
     inkscape:groupmode="layer"
     inkscape:label="Default"
     transform="translate(-602.03149,-647.9671)">
    <g
       id="g455">
      <rect
         style="fill:#ffffff;stroke-width:1.90071"
         id="rect451"
         width="154.37741"
         height="121.39399"
         x="602.03149"
         y="647.9671" />
      <g
         id="g388">
        <g
           id="group-MC13" />
        <path
           id="path389"
           d="M 0,0 H 96.563"
           style="fill:none;stroke:#231f20;stroke-width:0.5;stroke-linecap:butt;stroke-linejoin:miter;stroke-miterlimit:4;stroke-dasharray:none;stroke-opacity:1"
           transform="matrix(1.3333333,0,0,-1.3333333,616.9,740.7912)" />
        <path
           id="path390"
           d="M 0,0 -1.181,-2.032 3.794,0 v 0 l -4.975,2.032 z"
           style="fill:#231f20;fill-opacity:1;fill-rule:nonzero;stroke:none"
           transform="matrix(1.3333333,0,0,-1.3333333,745.2984,740.7912)" />
        <path
           id="path391"
           d="M 0,0 H 19.699 L 75,57 h 29.75"
           style="fill:none;stroke:#bc2133;stroke-width:1;stroke-linecap:butt;stroke-linejoin:miter;stroke-miterlimit:4;stroke-dasharray:none;stroke-opacity:1"
           transform="matrix(1.3333333,0,0,-1.3333333,610.56667,740.83147)"
           clip-path="url(#clipPath392)" />
        <path
           id="path393"
           d="M 0,0 V 3.5 M 27.625,0 V 3.5 M -27.625,0 v 3.5"
           style="fill:none;stroke:#231f20;stroke-width:0.5;stroke-linecap:butt;stroke-linejoin:miter;stroke-miterlimit:4;stroke-dasharray:none;stroke-opacity:1"
           transform="matrix(1.3333333,0,0,-1.3333333,673.65067,740.7912)" />
        <g
           id="g393"
           aria-label="ω&#10;180N°"
           transform="matrix(1.3333333,0,0,1.3333333,743.0396,752.07107)"
           clip-path="url(#clipPath398)">
          <path
             id="path394"
             d="m 3.7730344,-3.5161906 v 0.1289062 c 0.3398437,0 0.65625,0.058594 0.75,0.4335938 0.035156,0.1171875 0.035156,0.3398437 0.035156,0.4921875 0,0.5039062 -0.1289062,1.2070312 -0.375,1.67578122 -0.1875,0.328125 -0.4921875,0.703125 -0.9375,0.703125 -0.3398437,0 -0.5273437,-0.328125 -0.5273437,-0.66796875 0,-0.0585938 0,-0.1171875 0.023437,-0.17578125 0.070312,-0.11718752 0.1757812,-0.29296872 0.2460937,-0.39843752 0.1757813,-0.3046875 0.328125,-0.8085937 0.328125,-1.171875 0,-0.2226562 -0.082031,-0.375 -0.2695312,-0.375 -0.3046875,0 -0.5390625,0.3867188 -0.65625,0.8085938 -0.058594,0.234375 -0.09375,0.4804687 -0.09375,0.6914062 0,0.1054688 0.011719,0.28125 0.023437,0.39843752 -0.1523438,0.4453125 -0.6210938,0.890625 -0.9726563,0.890625 -0.2578125,0 -0.45703123,-0.19921875 -0.45703123,-0.75 0,-0.66796872 0.29296873,-1.52343752 0.69140623,-2.03906252 0.3046875,-0.375 0.6679688,-0.515625 1.078125,-0.515625 V -3.5161906 H 2.5074094 c -1.125,0 -1.94531253,0.8554687 -2.21484378,1.828125 -0.0585938,0.2109375 -0.0820313,0.4335937 -0.0820313,0.6445312 0,0.79687502 0.52734375,1.13671877 1.04296868,1.13671877 0.5625,0 0.8554689,-0.19921875 1.1718751,-0.57421875 0.1289063,0.28125 0.2929688,0.57421875 0.9140625,0.57421875 0.515625,0 1.1249999,-0.3515625 1.5468749,-1.13671877 0.2109375,-0.3984375 0.3515625,-0.8085937 0.3515625,-1.2421875 0,-0.375 -0.1054687,-0.7382812 -0.3632812,-0.9609375 -0.2109375,-0.1875 -0.5390625,-0.2695312 -0.9492188,-0.2695312 z m 0,0"
             style="fill:#231f20;fill-opacity:1;fill-rule:nonzero;stroke:none" />
          <path
             id="path395"
             d="m -17.226966,-70.110917 v -5.34375 h -0.585937 l -1.335938,1.382812 0.398438,0.410157 0.867187,-0.902344 v 4.453125 z m 2.958985,0.09375 c 1.042968,0 1.910156,-0.539063 1.910156,-1.441406 0,-0.714844 -0.609375,-1.207032 -1.277344,-1.40625 0.621094,-0.175782 1.195313,-0.574219 1.195313,-1.277344 0,-0.960938 -0.949219,-1.382813 -1.828125,-1.382813 -0.890625,0 -1.828125,0.421875 -1.828125,1.382813 0,0.703125 0.574218,1.101562 1.183593,1.277344 -0.667968,0.199218 -1.265625,0.691406 -1.265625,1.40625 0,0.902343 0.855469,1.441406 1.910157,1.441406 z m 0,-3.117188 c -0.328125,-0.05859 -1.160157,-0.269531 -1.160157,-0.925781 0,-0.550781 0.503907,-0.878906 1.160157,-0.878906 0.632812,0 1.160156,0.328125 1.160156,0.878906 0,0.65625 -0.832031,0.867188 -1.160156,0.925781 z m 0,2.53125 c -0.667969,0 -1.253907,-0.351562 -1.253907,-0.9375 0,-0.691406 0.925782,-0.984375 1.253907,-1.03125 0.328125,0.04687 1.242187,0.339844 1.242187,1.03125 0,0.585938 -0.585937,0.9375 -1.242187,0.9375 z m 4.7666013,0.585938 c 1.453125,0 2.0390625,-1.464844 2.0390625,-2.753906 0,-1.3125 -0.5859375,-2.753907 -2.0390625,-2.753907 -1.4648433,0 -2.0390623,1.441407 -2.0390623,2.753907 0,1.289062 0.574219,2.753906 2.0390623,2.753906 z m 0,-0.585938 c -1.0195313,0 -1.3593753,-1.113281 -1.3593753,-2.167968 0,-1.066407 0.339844,-2.167969 1.3593753,-2.167969 1.0195313,0 1.359375,1.101562 1.359375,2.167969 0,1.054687 -0.3398437,2.167968 -1.359375,2.167968 z m 0,0"
             style="fill:#231f20;fill-opacity:1;fill-rule:nonzero;stroke:none" />
          <path
             id="path396"
             d="m -2.4496219,-70.110917 1.1835938,-5.34375 h -0.6679688 l -0.9375,4.277344 -2.1328125,-4.277344 h -0.6796875 l -1.1835937,5.34375 h 0.6679687 l 0.9609375,-4.359375 2.15625,4.359375 z m 0,0"
             style="fill:#231f20;fill-opacity:1;fill-rule:nonzero;stroke:none" />
          <path
             id="path397"
             d="m 2.1499875,-74.376542 c 0,-0.632813 -0.5039063,-1.148438 -1.125,-1.148438 -0.65625,0 -1.16015625,0.503907 -1.16015625,1.136719 0,0.65625 0.4921875,1.160156 1.14843745,1.160156 0.6328125,0 1.1367188,-0.503906 1.1367188,-1.148437 z M 1.8453,-74.388261 c 0,0.480469 -0.375,0.878906 -0.8320313,0.878906 -0.4570312,0 -0.8320312,-0.386718 -0.8320312,-0.867187 0,-0.46875 0.375,-0.867188 0.80859375,-0.867188 0.46874995,0 0.85546875,0.386719 0.85546875,0.855469 z m 0,0"
             style="fill:#231f20;fill-opacity:1;fill-rule:nonzero;stroke:none" />
        </g>
        <g
           id="g398"
           aria-label="0°&#10;ω"
           transform="matrix(1.3333333,0,0,1.3333333,626.836,734.6596)">
          <path
             id="path399"
             d="m 2.4491719,0.09416719 c 1.453125,0 2.0390625,-1.46484379 2.0390625,-2.75390629 0,-1.3125 -0.5859375,-2.7539062 -2.0390625,-2.7539062 -1.46484377,0 -2.03906252,1.4414062 -2.03906252,2.7539062 0,1.2890625 0.57421875,2.75390629 2.03906252,2.75390629 z m 0,-0.5859375 c -1.0195313,0 -1.359375,-1.11328129 -1.359375,-2.16796879 0,-1.0664062 0.3398437,-2.1679687 1.359375,-2.1679687 1.0195312,0 1.359375,1.1015625 1.359375,2.1679687 0,1.0546875 -0.3398438,2.16796879 -1.359375,2.16796879 z m 0,0"
             style="fill:#231f20;fill-opacity:1;fill-rule:nonzero;stroke:none" />
          <path
             id="path400"
             d="m 7.6376484,-4.2652078 c 0,-0.6328125 -0.5039062,-1.1484375 -1.125,-1.1484375 -0.65625,0 -1.1601562,0.5039062 -1.1601562,1.1367187 0,0.65625 0.4921875,1.1601563 1.1484375,1.1601563 0.6328125,0 1.1367187,-0.5039063 1.1367187,-1.1484375 z m -0.3046875,-0.011719 c 0,0.4804688 -0.375,0.8789063 -0.8320312,0.8789063 -0.4570313,0 -0.8320313,-0.3867188 -0.8320313,-0.8671875 0,-0.46875 0.375,-0.8671875 0.8085938,-0.8671875 0.46875,0 0.8554687,0.3867187 0.8554687,0.8554687 z m 0,0"
             style="fill:#231f20;fill-opacity:1;fill-rule:nonzero;stroke:none" />
          <path
             id="path401"
             d="m 6.8612813,8.7719016 v 0.1289062 c 0.3398437,0 0.65625,0.058594 0.75,0.4335938 0.035156,0.1171875 0.035156,0.3398437 0.035156,0.4921875 0,0.5039059 -0.1289062,1.2070309 -0.375,1.6757809 -0.1875,0.328125 -0.4921875,0.703125 -0.9375,0.703125 -0.3398437,0 -0.5273437,-0.328125 -0.5273437,-0.667968 0,-0.05859 0,-0.117188 0.023437,-0.175782 0.070312,-0.117187 0.1757812,-0.292968 0.2460937,-0.398437 0.1757813,-0.304688 0.328125,-0.808594 0.328125,-1.1718752 0,-0.2226562 -0.082031,-0.375 -0.2695312,-0.375 -0.3046875,0 -0.5390625,0.3867188 -0.65625,0.8085942 -0.058594,0.234375 -0.09375,0.480468 -0.09375,0.691406 0,0.105469 0.011719,0.28125 0.023437,0.398437 -0.1523438,0.445313 -0.6210938,0.890625 -0.9726563,0.890625 -0.2578125,0 -0.4570312,-0.199218 -0.4570312,-0.75 0,-0.667968 0.2929687,-1.5234372 0.6914062,-2.0390622 0.3046875,-0.375 0.6679688,-0.515625 1.078125,-0.515625 V 8.7719016 H 5.5956563 c -1.125,0 -1.9453125,0.8554687 -2.2148438,1.8281254 -0.058594,0.210937 -0.082031,0.433593 -0.082031,0.644531 0,0.796875 0.5273437,1.136719 1.0429687,1.136719 0.5625,0 0.8554688,-0.199219 1.171875,-0.574219 0.1289063,0.28125 0.2929688,0.574219 0.9140625,0.574219 0.515625,0 1.125,-0.351563 1.546875,-1.136719 C 8.1855,10.84612 8.326125,10.435964 8.326125,10.00237 8.326125,9.6273703 8.2206563,9.2640891 7.9628438,9.0414328 7.7519063,8.8539328 7.4237813,8.7719016 7.013625,8.7719016 Z m 0,0"
             style="fill:#231f20;fill-opacity:1;fill-rule:nonzero;stroke:none" />
        </g>
        <path
           id="path402"
           d="M 2.5298984,-6.265625e-4 2.9752109,-2.0162516 c 0.011719,-0.058594 0.035156,-0.1757812 0.035156,-0.234375 0,-0.46875 -0.3515625,-0.7148437 -0.8671875,-0.7148437 -0.4101563,0 -0.7734375,0.2460937 -1.0195313,0.4921875 l 0.09375,-0.421875 H 0.77208594 L 0.12755469,-6.265625e-4 h 0.4453125 L 1.0416172,-2.1100016 c 0.2226562,-0.234375 0.5625,-0.4570312 0.9257812,-0.4570312 0.3164063,0 0.5742188,0.1289062 0.5742188,0.46875 0,0.058594 -0.023437,0.140625 -0.035156,0.1992187 l -0.421875,1.8984375375 z m 0,0"
           style="fill:#231f20;fill-opacity:1;fill-rule:nonzero;stroke:none"
           aria-label="n"
           transform="matrix(1.3333333,0,0,1.3333333,638.27133,753.70787)" />
        <path
           id="path403"
           d="m 3.7736578,-3.5142984 v 0.1289062 c 0.3398438,0 0.65625,0.058594 0.75,0.4335938 0.035156,0.1171875 0.035156,0.3398437 0.035156,0.4921875 0,0.5039062 -0.1289063,1.2070312 -0.375,1.67578121 -0.1875,0.328125 -0.4921875,0.703125 -0.9375,0.703125 -0.3398438,0 -0.5273438,-0.328125 -0.5273438,-0.66796875 0,-0.0585938 0,-0.1171875 0.023437,-0.17578125 0.070312,-0.11718751 0.1757813,-0.29296871 0.2460938,-0.39843751 0.1757812,-0.3046875 0.328125,-0.8085937 0.328125,-1.171875 0,-0.2226562 -0.082031,-0.375 -0.2695313,-0.375 -0.3046875,0 -0.5390625,0.3867188 -0.65625,0.8085938 -0.058594,0.234375 -0.09375,0.4804687 -0.09375,0.6914062 0,0.1054688 0.011719,0.28125 0.023437,0.39843751 -0.1523437,0.4453125 -0.6210937,0.890625 -0.9726562,0.890625 -0.2578125,0 -0.45703129,-0.19921875 -0.45703129,-0.75 0,-0.66796871 0.29296879,-1.52343751 0.69140629,-2.03906251 0.3046875,-0.375 0.6679687,-0.515625 1.078125,-0.515625 V -3.5142984 H 2.5080328 c -1.125,0 -1.94531249,0.8554687 -2.21484374,1.828125 -0.0585938,0.2109375 -0.0820313,0.4335937 -0.0820313,0.6445312 0,0.79687501 0.52734375,1.13671876 1.04296874,1.13671876 0.5625001,0 0.8554688,-0.19921875 1.1718751,-0.57421875 0.1289062,0.28125 0.2929687,0.57421875 0.9140625,0.57421875 0.515625,0 1.125,-0.3515625 1.546875,-1.13671876 0.2109375,-0.3984375 0.3515625,-0.8085937 0.3515625,-1.2421875 0,-0.375 -0.1054688,-0.7382812 -0.3632813,-0.9609375 -0.2109375,-0.1875 -0.5390625,-0.2695312 -0.9492187,-0.2695312 z m 0,0"
           style="fill:#231f20;fill-opacity:1;fill-rule:nonzero;stroke:none"
           aria-label="ω"
           transform="matrix(1.3333333,0,0,1.3333333,667.8708,751.0412)" />
        <path
           id="path404"
           d="M 2.530875,-6.265625e-4 2.9761875,-2.0162516 c 0.011719,-0.058594 0.035156,-0.1757812 0.035156,-0.234375 0,-0.46875 -0.3515625,-0.7148437 -0.8671875,-0.7148437 -0.4101563,0 -0.7734375,0.2460937 -1.0195313,0.4921875 l 0.09375,-0.421875 H 0.7730625 L 0.12853125,-6.265625e-4 h 0.4453125 L 1.0425938,-2.1100016 c 0.2226562,-0.234375 0.5625,-0.4570312 0.9257812,-0.4570312 0.3164063,0 0.5742188,0.1289062 0.5742188,0.46875 0,0.058594 -0.023437,0.140625 -0.035156,0.1992187 l -0.421875,1.8984375375 z m 0,0"
           style="fill:#231f20;fill-opacity:1;fill-rule:nonzero;stroke:none"
           aria-label="n"
           transform="matrix(1.3333333,0,0,1.3333333,675.188,753.70787)" />
        <g
           id="g404"
           aria-label="10ω"
           transform="matrix(1.3333333,0,0,1.3333333,699.7988,753.70907)">
          <path
             id="path405"
             d="M 2.0844938,0.00140313 V -5.3423469 H 1.4985563 l -1.33593755,1.3828125 0.3984375,0.4101563 0.86718755,-0.9023438 v 4.45312503 z m 3.0761718,0.09375 c 1.453125,0 2.0390625,-1.46484373 2.0390625,-2.75390623 0,-1.3125 -0.5859375,-2.7539063 -2.0390625,-2.7539063 -1.4648437,0 -2.0390625,1.4414063 -2.0390625,2.7539063 0,1.2890625 0.5742188,2.75390623 2.0390625,2.75390623 z m 0,-0.5859375 c -1.0195312,0 -1.359375,-1.11328123 -1.359375,-2.16796873 0,-1.0664063 0.3398438,-2.1679688 1.359375,-2.1679688 1.0195313,0 1.359375,1.1015625 1.359375,2.1679688 0,1.0546875 -0.3398437,2.16796873 -1.359375,2.16796873 z m 0,0"
             style="fill:#231f20;fill-opacity:1;fill-rule:nonzero;stroke:none" />
          <path
             id="path406"
             d="m 11.380392,-3.5142219 v 0.1289063 c 0.339844,0 0.65625,0.058594 0.75,0.4335937 0.03516,0.1171875 0.03516,0.3398438 0.03516,0.4921875 0,0.5039063 -0.128906,1.2070313 -0.375,1.67578128 -0.1875,0.328125 -0.492187,0.703125 -0.9375,0.703125 -0.339843,0 -0.527343,-0.328125 -0.527343,-0.66796875 0,-0.0585938 0,-0.1171875 0.02344,-0.17578125 0.07031,-0.11718748 0.175781,-0.29296878 0.246094,-0.39843748 0.175781,-0.3046875 0.328125,-0.8085938 0.328125,-1.171875 0,-0.2226563 -0.08203,-0.375 -0.269531,-0.375 -0.304688,0 -0.539063,0.3867187 -0.6562503,0.8085937 -0.058594,0.234375 -0.09375,0.4804688 -0.09375,0.6914063 0,0.1054687 0.011719,0.28125 0.023437,0.39843748 -0.1523438,0.4453125 -0.6210938,0.890625 -0.9726563,0.890625 -0.2578125,0 -0.4570312,-0.19921875 -0.4570312,-0.75 0,-0.66796878 0.2929687,-1.52343748 0.6914062,-2.03906248 0.3046875,-0.375 0.6679688,-0.515625 1.0781246,-0.515625 v -0.1289063 h -0.152344 c -1.1249993,0 -1.9453118,0.8554688 -2.2148431,1.828125 -0.058594,0.2109375 -0.082031,0.4335938 -0.082031,0.6445313 0,0.79687498 0.5273437,1.13671873 1.0429687,1.13671873 0.5625,0 0.8554688,-0.19921875 1.1718754,-0.57421875 0.128906,0.28125 0.292969,0.57421875 0.914062,0.57421875 0.515625,0 1.125,-0.3515625 1.546875,-1.13671873 0.210938,-0.3984375 0.351563,-0.8085938 0.351563,-1.2421875 0,-0.375 -0.105469,-0.7382813 -0.363281,-0.9609375 -0.210938,-0.1875 -0.539063,-0.2695313 -0.949219,-0.2695313 z m 0,0"
             style="fill:#231f20;fill-opacity:1;fill-rule:nonzero;stroke:none" />
        </g>
        <path
           id="path407"
           d="m 2.5326391,-5.5e-4 0.4453125,-2.015625 c 0.011719,-0.058594 0.035156,-0.1757812 0.035156,-0.234375 0,-0.46875 -0.3515625,-0.7148437 -0.8671875,-0.7148437 -0.4101562,0 -0.7734375,0.2460937 -1.0195312,0.4921875 l 0.09375,-0.421875 H 0.77482656 L 0.13029531,-5.5e-4 h 0.4453125 L 1.0443578,-2.109925 c 0.2226563,-0.234375 0.5625,-0.4570312 0.9257813,-0.4570312 0.3164062,0 0.5742187,0.1289062 0.5742187,0.46875 0,0.058594 -0.023437,0.140625 -0.035156,0.1992187 L 2.0873266,-5.5e-4 Z m 0,0"
           style="fill:#231f20;fill-opacity:1;fill-rule:nonzero;stroke:none"
           aria-label="n"
           transform="matrix(1.3333333,0,0,1.3333333,717.25987,756.37573)" />
        <path
           id="path408"
           d="M 2.0845734,-5.6875e-4 V -5.3443187 H 1.4986359 L 0.16269844,-3.9615062 0.56113594,-3.55135 1.4283234,-4.4536937 v 4.45312495 z m 3.0761719,0.09375 c 1.453125,0 2.0390625,-1.46484375 2.0390625,-2.75390625 0,-1.3125 -0.5859375,-2.7539062 -2.0390625,-2.7539062 -1.4648437,0 -2.0390625,1.4414062 -2.0390625,2.7539062 0,1.2890625 0.5742188,2.75390625 2.0390625,2.75390625 z m 0,-0.5859375 c -1.0195312,0 -1.359375,-1.11328125 -1.359375,-2.16796875 0,-1.0664062 0.3398438,-2.1679687 1.359375,-2.1679687 1.0195313,0 1.359375,1.1015625 1.359375,2.1679687 0,1.0546875 -0.3398437,2.16796875 -1.359375,2.16796875 z m 0,0"
           style="fill:#231f20;fill-opacity:1;fill-rule:nonzero;stroke:none"
           aria-label="10"
           transform="matrix(1.3333333,0,0,1.3333333,631.4276,764.36013)"
           clip-path="url(#clipPath409)" />
        <path
           id="path410"
           d="M 0,0 H 8"
           style="fill:none;stroke:#231f20;stroke-width:0.5;stroke-linecap:butt;stroke-linejoin:miter;stroke-miterlimit:4;stroke-dasharray:none;stroke-opacity:1"
           transform="matrix(1.3333333,0,0,-1.3333333,631.48333,755.45787)" />
      </g>
    </g>
  </g>
</svg>
