<?xml version="1.0" encoding="UTF-8" standalone="no"?>
<!-- Created with Inkscape (http://www.inkscape.org/) -->

<svg
   version="1.1"
   id="svg1"
   width="151.00354"
   height="73.308746"
   viewBox="0 0 151.00354 73.308746"
   sodipodi:docname="Fundamentals of Electric Circuits (7E).pdf"
   inkscape:version="1.3 (0e150ed6c4, 2023-07-21)"
   inkscape:dataloss="true"
   xmlns:inkscape="http://www.inkscape.org/namespaces/inkscape"
   xmlns:sodipodi="http://sodipodi.sourceforge.net/DTD/sodipodi-0.dtd"
   xmlns="http://www.w3.org/2000/svg"
   xmlns:svg="http://www.w3.org/2000/svg">
  <defs
     id="defs1">
    <clipPath
       clipPathUnits="userSpaceOnUse"
       id="clipPath326">
      <path
         d="m 457.85,537.875 h 99.78 v 50.91 h -99.78 z"
         transform="translate(-457.85001,-577.50821)"
         id="path326" />
    </clipPath>
    <clipPath
       clipPathUnits="userSpaceOnUse"
       id="clipPath328">
      <path
         d="m 457.85,537.875 h 99.78 v 50.91 h -99.78 z"
         transform="translate(-457.85001,-549.00772)"
         id="path328" />
    </clipPath>
    <clipPath
       clipPathUnits="userSpaceOnUse"
       id="clipPath334">
      <path
         d="m 457.85,537.039 h 100.498 v 51.746 H 457.85 Z"
         transform="matrix(1,0,0,-1,-552.14201,540.31531)"
         id="path334" />
    </clipPath>
  </defs>
  <sodipodi:namedview
     id="namedview1"
     pagecolor="#ffffff"
     bordercolor="#000000"
     borderopacity="0.25"
     inkscape:showpageshadow="2"
     inkscape:pageopacity="0.0"
     inkscape:pagecheckerboard="0"
     inkscape:deskcolor="#d1d1d1"
     inkscape:zoom="1.3083045"
     inkscape:cx="514.7884"
     inkscape:cy="736.83151"
     inkscape:window-width="1348"
     inkscape:window-height="874"
     inkscape:window-x="0"
     inkscape:window-y="0"
     inkscape:window-maximized="1"
     inkscape:current-layer="layer-MC0" />
  <g
     id="layer-MC0"
     inkscape:groupmode="layer"
     inkscape:label="Default"
     transform="translate(-600.08783,-291.15985)">
    <g
       id="g463"
       inkscape:export-filename="../../../../bode-phase-plot-pole.svg"
       inkscape:export-xdpi="96"
       inkscape:export-ydpi="96">
      <rect
         style="fill:#ffffff;stroke-width:1.46081"
         id="rect447"
         width="151.00354"
         height="73.308739"
         x="600.08783"
         y="291.15985" />
      <g
         id="g324">
        <g
           id="group-MC9" />
        <path
           id="path325"
           d="M 0,0 H 96.25"
           style="fill:none;stroke:#bc2133;stroke-width:1;stroke-linecap:butt;stroke-linejoin:miter;stroke-miterlimit:4;stroke-dasharray:none;stroke-opacity:1"
           transform="matrix(1.3333333,0,0,-1.3333333,610.46667,309.98907)"
           clip-path="url(#clipPath326)" />
        <path
           id="path327"
           d="M 0,0 H 96.25"
           style="fill:none;stroke:#231f20;stroke-width:0.5;stroke-linecap:butt;stroke-linejoin:miter;stroke-miterlimit:4;stroke-dasharray:none;stroke-opacity:1"
           transform="matrix(1.3333333,0,0,-1.3333333,610.46667,347.98973)"
           clip-path="url(#clipPath328)" />
        <path
           id="path329"
           d="M 0,0 -4.975,-2.031 -3.794,0 -4.975,2.032 Z"
           style="fill:#231f20;fill-opacity:1;fill-rule:nonzero;stroke:none"
           transform="matrix(1.3333333,0,0,-1.3333333,743.5064,347.98973)" />
        <g
           id="g329"
           aria-label="ω&#10;90N°"
           transform="matrix(1.3333333,0,0,1.3333333,736.18933,359.5796)"
           clip-path="url(#clipPath334)">
          <path
             id="path330"
             d="m 3.7720625,-3.5167313 v 0.1289063 c 0.3398438,0 0.65625,0.058594 0.75,0.4335937 0.035156,0.1171875 0.035156,0.3398438 0.035156,0.4921875 0,0.5039063 -0.1289063,1.2070313 -0.375,1.6757813 -0.1875,0.328125 -0.4921875,0.703125 -0.9375,0.703125 -0.3398438,0 -0.5273438,-0.328125 -0.5273438,-0.66796875 0,-0.0585938 0,-0.1171875 0.023437,-0.17578125 0.070312,-0.1171875 0.1757813,-0.2929688 0.2460938,-0.3984375 0.1757812,-0.3046875 0.328125,-0.8085938 0.328125,-1.171875 0,-0.2226563 -0.082031,-0.375 -0.2695313,-0.375 -0.3046875,0 -0.5390625,0.3867187 -0.65625,0.8085937 -0.058594,0.234375 -0.09375,0.4804688 -0.09375,0.6914063 0,0.1054687 0.011719,0.28125 0.023437,0.3984375 -0.1523437,0.4453125 -0.6210937,0.890625 -0.9726562,0.890625 -0.2578125,0 -0.4570313,-0.19921875 -0.4570313,-0.75 0,-0.6679688 0.2929688,-1.5234375 0.6914063,-2.0390625 0.3046875,-0.375 0.6679687,-0.515625 1.078125,-0.515625 V -3.5167313 H 2.5064375 c -1.125,0 -1.9453125,0.8554688 -2.21484375,1.828125 C 0.233,-1.4776688 0.2095625,-1.2550125 0.2095625,-1.044075 c 0,0.796875 0.52734375,1.13671875 1.0429688,1.13671875 0.5625,0 0.8554687,-0.19921875 1.171875,-0.57421875 0.1289062,0.28125 0.2929687,0.57421875 0.9140625,0.57421875 0.515625,0 1.125,-0.3515625 1.546875,-1.13671875 0.2109375,-0.3984375 0.3515625,-0.8085938 0.3515625,-1.2421875 0,-0.375 -0.1054688,-0.7382813 -0.3632813,-0.9609375 C 4.6626875,-3.4347 4.3345625,-3.5167313 3.9244063,-3.5167313 Z m 0,0"
             style="fill:#231f20;fill-opacity:1;fill-rule:nonzero;stroke:none" />
          <path
             id="path331"
             d="m -53.236727,-41.705208 c 1.488282,0 2.167969,-1.3125 2.167969,-2.753906 0,-1.464844 -0.574219,-2.765625 -2.0625,-2.765625 -1.160156,0 -1.875,0.820312 -1.875,1.746094 0,1.136718 0.796875,1.699218 1.757813,1.699218 0.679687,0 1.277343,-0.457031 1.5,-0.832031 0.01172,0.07031 0.01172,0.152344 0.01172,0.222656 0,1.007813 -0.421875,2.085938 -1.5,2.085938 -0.550781,0 -0.878906,-0.222656 -1.148437,-0.539063 l -0.339844,0.492188 c 0.339844,0.386719 0.808594,0.644531 1.488281,0.644531 z m 0.140625,-2.648437 c -0.691406,0 -1.230468,-0.363282 -1.230468,-1.148438 0,-0.503906 0.410156,-1.136719 1.21875,-1.136719 0.9375,0 1.289062,0.832032 1.335937,1.5 -0.28125,0.46875 -0.796875,0.785157 -1.324219,0.785157 z m 4.88086,2.648437 c 1.453125,0 2.039062,-1.464844 2.039062,-2.753906 0,-1.3125 -0.585937,-2.753906 -2.039062,-2.753906 -1.464844,0 -2.039063,1.441406 -2.039063,2.753906 0,1.289062 0.574219,2.753906 2.039063,2.753906 z m 0,-0.585937 c -1.019531,0 -1.359375,-1.113282 -1.359375,-2.167969 0,-1.066406 0.339844,-2.167969 1.359375,-2.167969 1.019531,0 1.359375,1.101563 1.359375,2.167969 0,1.054687 -0.339844,2.167969 -1.359375,2.167969 z m 0,0"
             style="fill:#231f20;fill-opacity:1;fill-rule:nonzero;stroke:none" />
          <path
             id="path332"
             d="m -41.163484,-41.798958 1.183593,-5.34375 h -0.667968 l -0.9375,4.277344 -2.132813,-4.277344 h -0.679687 l -1.183594,5.34375 h 0.667969 l 0.960937,-4.359375 2.15625,4.359375 z m 0,0"
             style="fill:#231f20;fill-opacity:1;fill-rule:nonzero;stroke:none" />
          <path
             id="path333"
             d="m -37.36075,-46.064583 c 0,-0.632812 -0.503906,-1.148437 -1.125,-1.148437 -0.65625,0 -1.160156,0.503906 -1.160156,1.136718 0,0.65625 0.492187,1.160157 1.148437,1.160157 0.632813,0 1.136719,-0.503907 1.136719,-1.148438 z m -0.304687,-0.01172 c 0,0.480469 -0.375,0.878907 -0.832032,0.878907 -0.457031,0 -0.832031,-0.386719 -0.832031,-0.867188 0,-0.46875 0.375,-0.867187 0.808594,-0.867187 0.46875,0 0.855469,0.386718 0.855469,0.855468 z m 0,0"
             style="fill:#231f20;fill-opacity:1;fill-rule:nonzero;stroke:none" />
        </g>
      </g>
    </g>
  </g>
</svg>
