<?xml version="1.0" encoding="UTF-8" standalone="no"?>
<!-- Created with Inkscape (http://www.inkscape.org/) -->

<svg
   version="1.1"
   id="svg1"
   width="151.10803"
   height="84.768005"
   viewBox="0 0 151.10803 84.768005"
   sodipodi:docname="Fundamentals of Electric Circuits (7E).pdf"
   inkscape:version="1.3 (0e150ed6c4, 2023-07-21)"
   inkscape:dataloss="true"
   xmlns:inkscape="http://www.inkscape.org/namespaces/inkscape"
   xmlns:sodipodi="http://sodipodi.sourceforge.net/DTD/sodipodi-0.dtd"
   xmlns="http://www.w3.org/2000/svg"
   xmlns:svg="http://www.w3.org/2000/svg">
  <defs
     id="defs1">
    <clipPath
       clipPathUnits="userSpaceOnUse"
       id="clipPath247">
      <path
         d="M 283.487,406.969 H 383.906 V 457.8 H 283.487 Z"
         transform="translate(-283.84741,-418.02901)"
         id="path247" />
    </clipPath>
    <clipPath
       clipPathUnits="userSpaceOnUse"
       id="clipPath250">
      <path
         d="m 283.487,406.003 h 100.42 v 51.798 h -100.42 z"
         transform="matrix(1,0,0,-1,-378.13901,409.40991)"
         id="path250" />
    </clipPath>
    <clipPath
       clipPathUnits="userSpaceOnUse"
       id="clipPath256">
      <path
         d="m 283.487,406.003 h 100.42 v 51.798 h -100.42 z"
         transform="translate(-354.48751,-447.19211)"
         id="path256" />
    </clipPath>
    <clipPath
       clipPathUnits="userSpaceOnUse"
       id="clipPath258">
      <path
         d="m 283.487,406.003 h 100.42 v 51.798 h -100.42 z"
         transform="translate(-353.19261,-447.00511)"
         id="path258" />
    </clipPath>
    <clipPath
       clipPathUnits="userSpaceOnUse"
       id="clipPath260">
      <path
         d="M 283.487,406.969 H 383.906 V 457.8 H 283.487 Z"
         transform="translate(-302.84691,-421.37961)"
         id="path260" />
    </clipPath>
    <clipPath
       clipPathUnits="userSpaceOnUse"
       id="clipPath262">
      <path
         d="M 283.487,406.969 H 383.906 V 457.8 H 283.487 Z"
         transform="translate(-383.69001,-457.34981)"
         id="path262" />
    </clipPath>
  </defs>
  <sodipodi:namedview
     id="namedview1"
     pagecolor="#ffffff"
     bordercolor="#000000"
     borderopacity="0.25"
     inkscape:showpageshadow="2"
     inkscape:pageopacity="0.0"
     inkscape:pagecheckerboard="0"
     inkscape:deskcolor="#d1d1d1"
     inkscape:zoom="1.3083045"
     inkscape:cx="514.7884"
     inkscape:cy="736.83151"
     inkscape:window-width="1348"
     inkscape:window-height="874"
     inkscape:window-x="0"
     inkscape:window-y="0"
     inkscape:window-maximized="1"
     inkscape:current-layer="layer-MC0" />
  <g
     id="layer-MC0"
     inkscape:groupmode="layer"
     inkscape:label="Default"
     transform="translate(-369.76825,-455.64099)">
    <g
       id="g459">
      <rect
         style="fill:#ffffff;stroke-width:1.57139"
         id="rect438"
         width="151.10803"
         height="84.767982"
         x="369.76825"
         y="455.64099" />
      <g
         id="g245">
        <g
           id="group-MC4" />
        <path
           id="path246"
           d="M 0,0 H 96.25"
           style="fill:none;stroke:#231f20;stroke-width:0.5;stroke-linecap:butt;stroke-linejoin:miter;stroke-miterlimit:4;stroke-dasharray:none;stroke-opacity:1"
           transform="matrix(1.3333333,0,0,-1.3333333,378.4632,522.628)"
           clip-path="url(#clipPath247)" />
        <path
           id="path248"
           d="M 0,0 -1.181,-2.032 3.794,0 -1.181,2.032 Z"
           style="fill:#231f20;fill-opacity:1;fill-rule:nonzero;stroke:none"
           transform="matrix(1.3333333,0,0,-1.3333333,506.4444,522.6276)" />
        <path
           id="path249"
           d="m 3.7721328,-3.5149047 v 0.1289063 c 0.3398438,0 0.65625,0.058594 0.75,0.4335937 0.035156,0.1171875 0.035156,0.3398438 0.035156,0.4921875 0,0.5039063 -0.1289063,1.2070313 -0.375,1.67578126 -0.1875,0.328125 -0.4921875,0.703125 -0.9375,0.703125 -0.3398438,0 -0.5273438,-0.328125 -0.5273438,-0.66796875 0,-0.0585938 0,-0.1171875 0.023437,-0.17578125 0.070312,-0.11718746 0.1757813,-0.29296876 0.2460938,-0.39843746 0.1757812,-0.3046875 0.328125,-0.8085938 0.328125,-1.171875 0,-0.2226563 -0.082031,-0.375 -0.2695313,-0.375 -0.3046875,0 -0.5390625,0.3867187 -0.65625,0.8085937 -0.058594,0.234375 -0.09375,0.4804688 -0.09375,0.6914063 0,0.1054687 0.011719,0.28125 0.023437,0.39843746 -0.1523437,0.4453125 -0.6210937,0.890625 -0.9726562,0.890625 -0.2578125,0 -0.45703129,-0.19921875 -0.45703129,-0.75 0,-0.66796876 0.29296879,-1.52343746 0.69140629,-2.03906246 0.3046875,-0.375 0.6679687,-0.515625 1.078125,-0.515625 V -3.5149047 H 2.5065078 c -1.125,0 -1.94531249,0.8554688 -2.21484374,1.828125 -0.0585938,0.2109375 -0.0820313,0.4335938 -0.0820313,0.6445313 0,0.79687496 0.52734375,1.13671871 1.04296874,1.13671871 0.5625001,0 0.8554688,-0.19921875 1.1718751,-0.57421875 0.1289062,0.28125 0.2929687,0.57421875 0.9140625,0.57421875 0.515625,0 1.1249999,-0.3515625 1.5468749,-1.13671871 0.2109375,-0.3984375 0.3515625,-0.8085938 0.3515625,-1.2421875 0,-0.375 -0.1054688,-0.7382813 -0.3632813,-0.9609375 -0.2109375,-0.1875 -0.5390625,-0.2695313 -0.9492186,-0.2695313 z m 0,0"
           style="fill:#231f20;fill-opacity:1;fill-rule:nonzero;stroke:none"
           aria-label="ω"
           transform="matrix(1.3333333,0,0,1.3333333,504.18533,534.12013)"
           clip-path="url(#clipPath250)" />
        <g
           id="g250"
           aria-label="z&#10;20N dB/decade"
           transform="matrix(1.3333333,0,0,1.3333333,401.29933,532.91053)">
          <path
             id="path251"
             d="M 2.9307734,-2.828125e-4 3.0479609,-0.51590781 H 0.89171094 L 3.6456172,-3.4104391 3.7510859,-3.8674703 H 0.84483594 L 0.71592969,-3.3401266 H 2.8135859 l -2.73046871,2.87109379 -0.09375,0.4687499975 z m 0,0"
             style="fill:#231f20;fill-opacity:1;fill-rule:nonzero;stroke:none" />
          <path
             id="path252"
             d="m -8.5067266,-38.695595 v -0.597657 h -2.6250004 c 1.4882817,-1.171875 2.6015629,-2.167968 2.6015629,-3.257812 0,-1.054688 -0.9140625,-1.558594 -1.7929689,-1.558594 -0.761719,0 -1.453125,0.304688 -1.863281,0.832031 l 0.410156,0.433594 c 0.316406,-0.410156 0.808594,-0.679687 1.453125,-0.679687 0.5507814,0 1.1132814,0.292968 1.1132814,0.972656 0,0.925781 -1.0429684,1.816406 -2.9648434,3.328125 v 0.527344 z m 3.0527344,0.09375 c 1.453125,0 2.0390625,-1.464844 2.0390625,-2.753907 0,-1.3125 -0.5859375,-2.753906 -2.0390625,-2.753906 -1.4648437,0 -2.0390625,1.441406 -2.0390625,2.753906 0,1.289063 0.5742188,2.753907 2.0390625,2.753907 z m 0,-0.585938 c -1.0195312,0 -1.359375,-1.113281 -1.359375,-2.167969 0,-1.066406 0.3398438,-2.167968 1.359375,-2.167968 1.0195313,0 1.359375,1.101562 1.359375,2.167968 0,1.054688 -0.3398437,2.167969 -1.359375,2.167969 z m 0,0"
             style="fill:#231f20;fill-opacity:1;fill-rule:nonzero;stroke:none" />
          <path
             id="path253"
             d="m 1.5977656,-38.695595 1.1835938,-5.34375 H 2.1133906 l -0.9375,4.277343 -2.13281247,-4.277343 H -1.6366094 l -1.1835937,5.34375 h 0.6679687 l 0.9609375,-4.359375 2.15625003,4.359375 z m 0,0"
             style="fill:#231f20;fill-opacity:1;fill-rule:nonzero;stroke:none" />
          <path
             id="path254"
             d="m 8.7169063,-38.695595 v -5.34375 H 8.11925 v 2.0625 c -0.3046875,-0.421875 -0.7851562,-0.679688 -1.3007812,-0.679688 -1.0195313,0 -1.7226563,0.796875 -1.7226563,2.027344 0,1.265625 0.7148438,2.027344 1.7226563,2.027344 0.5390625,0 1.0195312,-0.28125 1.3007812,-0.667969 v 0.574219 z m -1.7578125,-0.445313 c -0.7734375,0 -1.2421875,-0.632812 -1.2421875,-1.488281 0,-0.855469 0.46875,-1.488281 1.2421875,-1.488281 0.4804687,0 0.9492187,0.28125 1.1601562,0.621093 v 1.757813 c -0.2109375,0.328125 -0.6796875,0.597656 -1.1601562,0.597656 z m 5.4199222,0.445313 c 0.972656,0 1.546875,-0.585938 1.546875,-1.441407 0,-0.644531 -0.480469,-1.21875 -1.042969,-1.3125 0.492187,-0.105468 0.9375,-0.550781 0.9375,-1.21875 0,-0.808593 -0.574219,-1.371093 -1.5,-1.371093 H 9.9415156 v 5.34375 z m -0.164063,-3.023438 h -1.605469 v -1.722656 h 1.605469 c 0.597656,0 0.914063,0.386719 0.914063,0.867187 0,0.480469 -0.316407,0.855469 -0.914063,0.855469 z m 0.02344,2.425781 h -1.628907 v -1.839843 h 1.628907 c 0.65625,0 0.996093,0.433593 0.996093,0.925781 0,0.5625 -0.363281,0.914062 -0.996093,0.914062 z m 3.383789,0.761719 1.898437,-5.660156 h -0.46875 l -1.898437,5.660156 z m 5.894531,-0.164062 v -5.34375 h -0.597656 v 2.0625 c -0.304688,-0.421875 -0.785157,-0.679688 -1.300782,-0.679688 -1.019531,0 -1.722656,0.796875 -1.722656,2.027344 0,1.265625 0.714844,2.027344 1.722656,2.027344 0.539063,0 1.019532,-0.28125 1.300782,-0.667969 v 0.574219 z M 19.7589,-39.140908 c -0.773437,0 -1.242187,-0.632812 -1.242187,-1.488281 0,-0.855469 0.46875,-1.488281 1.242187,-1.488281 0.480469,0 0.949219,0.28125 1.160157,0.621093 v 1.757813 c -0.210938,0.328125 -0.679688,0.597656 -1.160157,0.597656 z m 4.705079,0.539063 c 0.632812,0 1.148437,-0.210938 1.535156,-0.585938 l -0.28125,-0.398437 c -0.304688,0.316406 -0.761719,0.492187 -1.195313,0.492187 -0.832031,0 -1.347656,-0.609375 -1.394531,-1.335937 h 3.128906 v -0.152344 c 0,-1.160156 -0.691406,-2.074219 -1.851562,-2.074219 -1.113281,0 -1.910156,0.902344 -1.910156,2.027344 0,1.207031 0.820312,2.027344 1.96875,2.027344 z m 1.207031,-2.273438 h -2.542969 c 0.03516,-0.585937 0.445313,-1.289062 1.265625,-1.289062 0.878906,0 1.265625,0.714843 1.277344,1.289062 z m 3.260742,2.273438 c 0.703125,0 1.113281,-0.28125 1.417969,-0.667969 l -0.410156,-0.375 c -0.246094,0.351562 -0.574219,0.503906 -0.984375,0.503906 -0.820313,0 -1.335938,-0.632812 -1.335938,-1.488281 0,-0.855469 0.515625,-1.488281 1.335938,-1.488281 0.410156,0 0.738281,0.152343 0.984375,0.503906 l 0.410156,-0.375 c -0.304688,-0.375 -0.714844,-0.667969 -1.417969,-0.667969 -1.160156,0 -1.933594,0.878906 -1.933594,2.027344 0,1.148437 0.773438,2.027344 1.933594,2.027344 z m 5.273438,-0.09375 v -2.660157 c 0,-0.9375 -0.679688,-1.300781 -1.5,-1.300781 -0.632813,0 -1.125,0.210938 -1.546875,0.644531 l 0.28125,0.410157 c 0.339843,-0.363282 0.726562,-0.539063 1.183593,-0.539063 0.5625,0 0.972657,0.304688 0.972657,0.820313 v 0.691406 c -0.304688,-0.351563 -0.75,-0.527344 -1.277344,-0.527344 -0.65625,0 -1.347656,0.410156 -1.347656,1.277344 0,0.84375 0.691406,1.277344 1.347656,1.277344 0.527344,0 0.960937,-0.1875 1.277344,-0.539063 v 0.445313 z m -1.664063,-0.339844 c -0.5625,0 -0.960937,-0.351563 -0.960937,-0.832031 0,-0.503907 0.398437,-0.855469 0.960937,-0.855469 0.421875,0 0.832031,0.164062 1.054688,0.480469 v 0.726562 c -0.222657,0.328125 -0.632813,0.480469 -1.054688,0.480469 z m 6.254883,0.339844 v -5.34375 h -0.597656 v 2.0625 c -0.304688,-0.421875 -0.785157,-0.679688 -1.300782,-0.679688 -1.019531,0 -1.722656,0.796875 -1.722656,2.027344 0,1.265625 0.714844,2.027344 1.722656,2.027344 0.539063,0 1.019532,-0.28125 1.300782,-0.667969 v 0.574219 z m -1.757813,-0.445313 c -0.773437,0 -1.242187,-0.632812 -1.242187,-1.488281 0,-0.855469 0.46875,-1.488281 1.242187,-1.488281 0.480469,0 0.949219,0.28125 1.160157,0.621093 v 1.757813 c -0.210938,0.328125 -0.679688,0.597656 -1.160157,0.597656 z m 4.705078,0.539063 c 0.632813,0 1.148438,-0.210938 1.535157,-0.585938 l -0.28125,-0.398437 c -0.304688,0.316406 -0.761719,0.492187 -1.195313,0.492187 -0.832031,0 -1.347656,-0.609375 -1.394531,-1.335937 h 3.128906 v -0.152344 c 0,-1.160156 -0.691406,-2.074219 -1.851562,-2.074219 -1.113282,0 -1.910157,0.902344 -1.910157,2.027344 0,1.207031 0.820313,2.027344 1.96875,2.027344 z m 1.207032,-2.273438 h -2.542969 c 0.03516,-0.585937 0.445312,-1.289062 1.265625,-1.289062 0.878906,0 1.265625,0.714843 1.277344,1.289062 z m 0,0"
             style="fill:#231f20;fill-opacity:1;fill-rule:nonzero;stroke:none" />
        </g>
        <path
           id="path255"
           d="M 0,0 C -2.066,2.235 -5.024,3.635 -8.309,3.635"
           style="fill:none;stroke:#231f20;stroke-width:0.5;stroke-linecap:butt;stroke-linejoin:miter;stroke-miterlimit:4;stroke-dasharray:none;stroke-opacity:1"
           transform="matrix(1.3333333,0,0,-1.3333333,472.65,483.74387)"
           clip-path="url(#clipPath256)" />
        <path
           id="path257"
           d="M 0,0 3.56,-2.246 1.6,1.479 Z"
           style="fill:#231f20;fill-opacity:1;fill-rule:nonzero;stroke:none"
           transform="matrix(1.3333333,0,0,-1.3333333,470.92347,483.9932)"
           clip-path="url(#clipPath258)" />
        <path
           id="path259"
           d="M 0,0 V -3.5"
           style="fill:none;stroke:#231f20;stroke-width:0.5;stroke-linecap:butt;stroke-linejoin:miter;stroke-miterlimit:4;stroke-dasharray:none;stroke-opacity:1"
           transform="matrix(1.3333333,0,0,-1.3333333,403.79587,518.16053)"
           clip-path="url(#clipPath260)" />
        <path
           id="path261"
           d="m 0,0 -81.015,-39.23 -19.188,0.01"
           style="fill:none;stroke:#bc2133;stroke-width:1;stroke-linecap:butt;stroke-linejoin:miter;stroke-miterlimit:4;stroke-dasharray:none;stroke-opacity:1"
           transform="matrix(1.3333333,0,0,-1.3333333,511.58667,470.20027)"
           clip-path="url(#clipPath262)" />
      </g>
    </g>
  </g>
</svg>
