<?xml version="1.0" encoding="UTF-8" standalone="no"?>
<!-- Created with Inkscape (http://www.inkscape.org/) -->

<svg
   version="1.1"
   id="svg1"
   viewBox="0 0 335.1936 203.63501"
   xmlns="http://www.w3.org/2000/svg"
   xmlns:svg="http://www.w3.org/2000/svg">
  <defs
     id="defs1">
    <clipPath
       clipPathUnits="userSpaceOnUse"
       id="clipPath61">
      <path
         d="M 187.379,492.056 H 430.62 V 640.5 H 187.379 Z"
         transform="translate(-221.7289,-578.52791)"
         id="path61" />
    </clipPath>
    <clipPath
       clipPathUnits="userSpaceOnUse"
       id="clipPath63">
      <path
         d="M 187.379,492.056 H 430.62 V 640.5 H 187.379 Z"
         transform="translate(-273.45691,-578.36281)"
         id="path63" />
    </clipPath>
    <clipPath
       clipPathUnits="userSpaceOnUse"
       id="clipPath65">
      <path
         d="M 187.379,492.056 H 430.62 V 640.5 H 187.379 Z"
         transform="translate(-325.16341,-578.36281)"
         id="path65" />
    </clipPath>
    <clipPath
       clipPathUnits="userSpaceOnUse"
       id="clipPath67">
      <path
         d="M 187.379,492.056 H 430.62 V 640.5 H 187.379 Z"
         transform="translate(-376.93691,-578.36281)"
         id="path67" />
    </clipPath>
    <clipPath
       clipPathUnits="userSpaceOnUse"
       id="clipPath71">
      <path
         d="M 187.379,492.056 H 430.62 V 640.5 H 187.379 Z"
         transform="translate(-241.12,-512.97172)"
         id="path71" />
    </clipPath>
    <clipPath
       clipPathUnits="userSpaceOnUse"
       id="clipPath73">
      <path
         d="M 187.379,492.056 H 430.62 V 640.5 H 187.379 Z"
         transform="translate(-292.84801,-512.97952)"
         id="path73" />
    </clipPath>
    <clipPath
       clipPathUnits="userSpaceOnUse"
       id="clipPath75">
      <path
         d="M 187.379,492.056 H 430.62 V 640.5 H 187.379 Z"
         transform="translate(-344.55411,-513.03232)"
         id="path75" />
    </clipPath>
    <clipPath
       clipPathUnits="userSpaceOnUse"
       id="clipPath77">
      <path
         d="M 187.379,492.056 H 430.62 V 640.5 H 187.379 Z"
         transform="translate(-396.27581,-512.97952)"
         id="path77" />
    </clipPath>
    <clipPath
       clipPathUnits="userSpaceOnUse"
       id="clipPath109">
      <path
         d="M 0,0 H 582 V 744 H 0 Z"
         transform="translate(-15,-705.00002)"
         id="path109" />
    </clipPath>
    <clipPath
       clipPathUnits="userSpaceOnUse"
       id="clipPath111">
      <path
         d="M 0,0 H 582 V 744 H 0 Z"
         transform="translate(-15,-705.00002)"
         id="path111" />
    </clipPath>
  </defs>
  <g
     id="g1"
     transform="translate(-245.34155,-135.31778)">
    <g
       id="group-MC0">
      <g
         id="g280">
        <rect
           style="fill:#ffffff;stroke-width:1.01135"
           id="rect279"
           width="335.19363"
           height="203.63501"
           x="245.34155"
           y="135.31778" />
        <g
           id="g279">
          <path
             id="path53"
             d="m 0,0 h -32.367 v 20.02 h -19.35 V 0 h -32.367 v 20.02 h -19.35 V 0 h -32.367 v 20.02 h -19.35 V 0 h -32.367 v 20.02 h -19.351 V 0 h -32.372"
             style="fill:none;stroke:#00adef;stroke-width:0.5;stroke-linecap:butt;stroke-linejoin:miter;stroke-miterlimit:4;stroke-dasharray:none;stroke-opacity:1"
             transform="matrix(1.3333333,0,0,-1.3333333,571.494,167.36)" />
          <path
             id="path54"
             d="m 241.19,634.773 h -19.264 v 3.557 h 19.264 z"
             style="fill:#b3e6fa;fill-opacity:1;fill-rule:nonzero;stroke:none"
             transform="matrix(1.3333333,0,0,-1.3333333,0,992)" />
          <path
             id="path55"
             d="m 292.771,634.773 h -19.083 v 3.629 h 19.083 z"
             style="fill:#b3e6fa;fill-opacity:1;fill-rule:nonzero;stroke:none"
             transform="matrix(1.3333333,0,0,-1.3333333,0,992)" />
          <path
             id="path56"
             d="m 344.517,634.773 h -19.068 v 3.591 h 19.068 z"
             style="fill:#b3e6fa;fill-opacity:1;fill-rule:nonzero;stroke:none"
             transform="matrix(1.3333333,0,0,-1.3333333,0,992)" />
          <path
             id="path57"
             d="m 396.265,634.773 h -19.189 v 3.619 h 19.189 z"
             style="fill:#b3e6fa;fill-opacity:1;fill-rule:nonzero;stroke:none"
             transform="matrix(1.3333333,0,0,-1.3333333,0,992)" />
          <path
             id="path58"
             d="m 360.64065,184.17187 c -0.48437,-0.125 -0.65625,-0.23437 -0.9375,-0.57812 l -2.34375,-2.75 c 1.15625,-0.23438 1.95313,-0.79688 1.95313,-2.01563 0,-1.71875 -1.625,-1.79687 -2.95313,-1.79687 h -3.5 v 0.20312 c 0.84375,0 1.14063,0.17188 1.14063,1.04688 v 4.84375 c 0,0.875 -0.29688,1.04687 -1.14063,1.04687 v 0.21875 h 3.45313 v -0.21875 c -0.85938,0 -1.15625,-0.17187 -1.15625,-1.04687 v -2.01563 h 0.96875 l 2.78125,3.28125 h 1.73437 z m -5.48437,-6.21875 c 0,-0.5 0.125,-0.53125 0.82812,-0.53125 1.0625,0 2.01563,0.35938 2.01563,1.5625 0,1.29688 -1.09375,1.67188 -2.25,1.67188 h -0.59375 z m 6.875,3.03125 c 0.0156,-0.67187 0.57812,-1.39062 1.28125,-1.39062 0.875,0 1.15625,0.60937 1.15625,1.39062 z m 3.46875,0.32813 c -0.0156,-1.15625 -0.78125,-2.04688 -1.9375,-2.04688 -1.5625,0 -2.35938,1.39063 -2.35938,2.8125 0,1.39063 0.84375,2.42188 2.28125,2.42188 1.0625,0 1.85938,-0.9375 2.28125,-1.8125 l -0.1875,-0.125 c -0.35937,0.5625 -0.92187,1.125 -1.84375,1.125 -1.17187,0 -1.71875,-1.04688 -1.71875,-2.25 v -0.125 z m 3.97656,-2.04688 h -0.1875 c -0.0156,0.125 -0.0937,0.17188 -0.20313,0.17188 -0.15625,0 -0.32812,-0.0469 -0.48437,-0.0781 -0.17188,-0.0469 -0.34375,-0.0937 -0.53125,-0.0937 -0.79688,0 -1.57813,0.45313 -1.57813,1.32813 0,1.64062 2.65625,1.625 2.65625,2.84375 0,0.5 -0.46875,0.73437 -0.92187,0.73437 -0.78125,0 -1.40625,-0.70312 -1.42188,-1.45312 h -0.25 l 0.0625,1.67187 h 0.21875 c 0.0156,-0.0781 0,-0.15625 0.15625,-0.15625 0.17187,0 0.76562,0.26563 1.34375,0.26563 0.79687,0 1.54687,-0.53125 1.54687,-1.54688 0,-1.54687 -2.64062,-1.60937 -2.64062,-2.71875 0,-0.42187 0.39062,-0.64062 0.8125,-0.64062 0.76562,0 1.0625,0.53125 1.26562,1.1875 h 0.20313 z m 2.66406,1.4375 c 0,-0.20312 0.46875,-0.76562 1.15625,-0.76562 1.17188,0 1.57813,1.17187 1.57813,2.17187 0,0.89063 -0.4375,2.0625 -1.51563,2.0625 -0.4375,0 -1.04687,-0.23437 -1.21875,-0.70312 z M 371.20315,186 c 0,0.67187 -0.3125,0.67187 -0.76562,0.67187 v 0.21875 h 2.5625 v -0.21875 c -0.51563,0 -0.85938,0 -0.85938,-0.59375 v -1.9375 c 0.34375,0.28125 0.78125,0.35938 1.21875,0.35938 1.57813,0 2.45313,-1.57813 2.45313,-2.92188 0,-1.25 -0.76563,-2.3125 -2.0625,-2.3125 -0.65625,0 -1.23438,0.40625 -1.59375,0.90625 h -0.0156 v -0.90625 h -0.0469 c -0.51563,0.29688 -1.07813,0.53125 -1.65625,0.67188 v 0.20312 h 0.23437 c 0.46875,0 0.53125,0.15625 0.53125,0.78125 z m 6.44531,-4.46875 c 0,-0.95313 0.35938,-1.9375 1.4375,-1.9375 1.29688,0 1.625,1.57812 1.625,2.71875 0,0.79687 -0.39062,1.85937 -1.34375,1.85937 -1.29687,0 -1.71875,-1.60937 -1.71875,-2.64062 z m 4.09375,0.375 c 0,-1.60938 -0.9375,-2.64063 -2.57812,-2.64063 -1.45313,0 -2.54688,1.20313 -2.54688,2.64063 0,1.46875 1.0625,2.59375 2.54688,2.59375 1.45312,0 2.57812,-1.14063 2.57812,-2.59375 z m 0.61719,2.48437 h 2.5 v -0.21875 c -0.5625,0 -0.78125,-0.0781 -0.78125,-0.70312 v -3 c 0.3125,-0.28125 0.6875,-0.53125 1.125,-0.53125 0.54688,0 0.9375,0.29687 0.9375,1.04687 v 2.48438 c 0,0.625 -0.21875,0.70312 -0.78125,0.70312 v 0.21875 h 2.48438 v -0.21875 c -0.53125,0 -0.76563,-0.0781 -0.76563,-0.70312 v -2.45313 c 0,-1.28125 -0.5,-1.75 -1.34375,-1.75 -0.67187,0 -1.15625,0.4375 -1.65625,0.82813 v -0.82813 c -0.53125,0.17188 -1.125,0.39063 -1.71875,0.5 v 0.20313 h 0.125 c 0.48438,0 0.65625,0.1875 0.65625,0.59375 v 2.90625 c 0,0.625 -0.23437,0.70312 -0.78125,0.70312 z m 9.05859,-5.125 h -0.1875 c -0.0156,0.125 -0.0937,0.17188 -0.20312,0.17188 -0.15625,0 -0.32813,-0.0469 -0.48438,-0.0781 -0.17187,-0.0469 -0.34375,-0.0937 -0.53125,-0.0937 -0.79687,0 -1.57812,0.45313 -1.57812,1.32813 0,1.64062 2.65625,1.625 2.65625,2.84375 0,0.5 -0.46875,0.73437 -0.92188,0.73437 -0.78125,0 -1.40625,-0.70312 -1.42187,-1.45312 h -0.25 l 0.0625,1.67187 h 0.21875 c 0.0156,-0.0781 0,-0.15625 0.15625,-0.15625 0.17188,0 0.76563,0.26563 1.34375,0.26563 0.79688,0 1.54688,-0.53125 1.54688,-1.54688 0,-1.54687 -2.64063,-1.60937 -2.64063,-2.71875 0,-0.42187 0.39063,-0.64062 0.8125,-0.64062 0.76563,0 1.0625,0.53125 1.26563,1.1875 h 0.20312 z m 2.03907,1.71875 c 0.0156,-0.67187 0.57812,-1.39062 1.28125,-1.39062 0.875,0 1.15625,0.60937 1.15625,1.39062 z m 3.46875,0.32813 c -0.0156,-1.15625 -0.78125,-2.04688 -1.9375,-2.04688 -1.5625,0 -2.35938,1.39063 -2.35938,2.8125 0,1.39063 0.84375,2.42188 2.28125,2.42188 1.0625,0 1.85938,-0.9375 2.28125,-1.8125 l -0.1875,-0.125 c -0.35937,0.5625 -0.92187,1.125 -1.84375,1.125 -1.17187,0 -1.71875,-1.04688 -1.71875,-2.25 v -0.125 z m 4.3125,-1.625 v 3.34375 c 0,0.75 0.10937,1.46875 1.01562,1.46875 0.60938,0 0.98438,-0.39063 1.34375,-0.85938 l -0.1875,-0.10937 c -0.15625,0.17187 -0.42187,0.375 -0.67187,0.375 -0.25,0 -0.5625,-0.10938 -0.5625,-0.89063 v -3.32812 h 1.1875 v -0.3125 h -1.1875 v -1.51563 h -0.21875 c -0.29688,0.71875 -0.84375,1.32813 -1.48438,1.6875 v 0.14063 z m 3.97265,1.84375 c 0,-0.95313 0.35938,-1.9375 1.4375,-1.9375 1.29688,0 1.625,1.57812 1.625,2.71875 0,0.79687 -0.39062,1.85937 -1.34375,1.85937 -1.29687,0 -1.71875,-1.60937 -1.71875,-2.64062 z m 4.09375,0.375 c 0,-1.60938 -0.9375,-2.64063 -2.57812,-2.64063 -1.45313,0 -2.54688,1.20313 -2.54688,2.64063 0,1.46875 1.0625,2.59375 2.54688,2.59375 1.45312,0 2.57812,-1.14063 2.57812,-2.59375 z m 4.92578,-1.20313 c 0,-0.20312 0.46875,-0.76562 1.15625,-0.76562 1.17188,0 1.57813,1.17187 1.57813,2.17187 0,0.89063 -0.4375,2.0625 -1.51563,2.0625 -0.4375,0 -1.04687,-0.23437 -1.21875,-0.70312 z M 413.29299,186 c 0,0.67187 -0.3125,0.67187 -0.76562,0.67187 v 0.21875 h 2.5625 v -0.21875 c -0.51563,0 -0.85938,0 -0.85938,-0.59375 v -1.9375 c 0.34375,0.28125 0.78125,0.35938 1.21875,0.35938 1.57813,0 2.45313,-1.57813 2.45313,-2.92188 0,-1.25 -0.76563,-2.3125 -2.0625,-2.3125 -0.65625,0 -1.23438,0.40625 -1.59375,0.90625 h -0.0156 v -0.90625 h -0.0469 c -0.51562,0.29688 -1.07812,0.53125 -1.65625,0.67188 v 0.20312 h 0.23438 c 0.46875,0 0.53125,0.15625 0.53125,0.78125 z m 6.44532,-4.46875 c 0,-0.95313 0.35937,-1.9375 1.4375,-1.9375 1.29687,0 1.625,1.57812 1.625,2.71875 0,0.79687 -0.39063,1.85937 -1.34375,1.85937 -1.29688,0 -1.71875,-1.60937 -1.71875,-2.64062 z m 4.09375,0.375 c 0,-1.60938 -0.9375,-2.64063 -2.57813,-2.64063 -1.45312,0 -2.54687,1.20313 -2.54687,2.64063 0,1.46875 1.0625,2.59375 2.54687,2.59375 1.45313,0 2.57813,-1.14063 2.57813,-2.59375 z m 3.74609,-2.64063 h -0.1875 c -0.0156,0.125 -0.0937,0.17188 -0.20313,0.17188 -0.15625,0 -0.32812,-0.0469 -0.48437,-0.0781 -0.17188,-0.0469 -0.34375,-0.0937 -0.53125,-0.0937 -0.79688,0 -1.57813,0.45313 -1.57813,1.32813 0,1.64062 2.65625,1.625 2.65625,2.84375 0,0.5 -0.46875,0.73437 -0.92187,0.73437 -0.78125,0 -1.40625,-0.70312 -1.42188,-1.45312 h -0.25 l 0.0625,1.67187 h 0.21875 c 0.0156,-0.0781 0,-0.15625 0.15625,-0.15625 0.17187,0 0.76562,0.26563 1.34375,0.26563 0.79687,0 1.54687,-0.53125 1.54687,-1.54688 0,-1.54687 -2.64062,-1.60937 -2.64062,-2.71875 0,-0.42187 0.39062,-0.64062 0.8125,-0.64062 0.76562,0 1.0625,0.53125 1.26562,1.1875 h 0.20313 z m 1.02344,0.70313 h 0.14062 c 0.5,0 0.65625,0.1875 0.65625,0.59375 v 2.90625 c 0,0.625 -0.21875,0.70312 -0.79687,0.70312 v 0.21875 h 2.53125 v -0.21875 c -0.57813,0 -0.79688,-0.0781 -0.79688,-0.70312 v -4.20313 c -0.51562,0.17188 -1.125,0.39063 -1.73437,0.5 z m 0.65625,-2.625 c 0,0.3125 0.25,0.5625 0.57812,0.5625 0.3125,0 0.57813,-0.25 0.57813,-0.5625 0,-0.32813 -0.26563,-0.57813 -0.57813,-0.57813 -0.32812,0 -0.57812,0.25 -0.57812,0.57813 z m 3.10547,2.34375 v 3.34375 c 0,0.75 0.10937,1.46875 1.01562,1.46875 0.60938,0 0.98438,-0.39063 1.34375,-0.85938 l -0.1875,-0.10937 c -0.15625,0.17187 -0.42187,0.375 -0.67187,0.375 -0.25,0 -0.5625,-0.10938 -0.5625,-0.89063 v -3.32812 h 1.1875 v -0.3125 h -1.1875 v -1.51563 h -0.21875 c -0.29688,0.71875 -0.84375,1.32813 -1.48438,1.6875 v 0.14063 z m 2.7539,0.28125 h 0.14063 c 0.5,0 0.65625,0.1875 0.65625,0.59375 v 2.90625 c 0,0.625 -0.21875,0.70312 -0.79688,0.70312 v 0.21875 h 2.53125 v -0.21875 c -0.57812,0 -0.79687,-0.0781 -0.79687,-0.70312 v -4.20313 c -0.51563,0.17188 -1.125,0.39063 -1.73438,0.5 z m 0.65625,-2.625 c 0,0.3125 0.25,0.5625 0.57813,0.5625 0.3125,0 0.57812,-0.25 0.57812,-0.5625 0,-0.32813 -0.26562,-0.57813 -0.57812,-0.57813 -0.32813,0 -0.57813,0.25 -0.57813,0.57813 z m 6.6836,2.89062 c 0.10937,-0.26562 0.23437,-0.64062 0.60937,-0.64062 V 179.375 h -1.60937 v 0.21875 c 0.39062,0 0.60937,0.0625 0.60937,0.3125 0,0.0937 -0.0312,0.20312 -0.0781,0.34375 l -1.07812,2.78125 -1.125,-2.70313 c -0.0937,-0.20312 -0.125,-0.35937 -0.125,-0.46875 0,-0.23437 0.23437,-0.26562 0.60937,-0.26562 V 179.375 h -2.26562 v 0.21875 c 0.375,0 0.54687,0.35937 0.75,0.8125 l 1.76562,4.0625 h 0.1875 z m 1.97656,0.75 c 0.0156,-0.67187 0.57812,-1.39062 1.28125,-1.39062 0.875,0 1.15625,0.60937 1.15625,1.39062 z m 3.46875,0.32813 c -0.0156,-1.15625 -0.78125,-2.04688 -1.9375,-2.04688 -1.5625,0 -2.35938,1.39063 -2.35938,2.8125 0,1.39063 0.84375,2.42188 2.28125,2.42188 1.0625,0 1.85938,-0.9375 2.28125,-1.8125 l -0.1875,-0.125 c -0.35937,0.5625 -0.92187,1.125 -1.84375,1.125 -1.17187,0 -1.71875,-1.04688 -1.71875,-2.25 v -0.125 z m 4.3125,2.15625 c 0,0.625 -0.21875,0.70312 -0.79688,0.70312 v 0.21875 h 2.53125 v -0.21875 c -0.57812,0 -0.79687,-0.0781 -0.79687,-0.70312 v -6.70313 c -0.45313,0.14063 -1.09375,0.34375 -1.67188,0.45313 v 0.21875 h 0.125 c 0.29688,0 0.60938,0.0625 0.60938,0.40625 z m 3.18359,-2.48438 c 0.0156,-0.67187 0.57813,-1.39062 1.28125,-1.39062 0.875,0 1.15625,0.60937 1.15625,1.39062 z m 3.46875,0.32813 c -0.0156,-1.15625 -0.78125,-2.04688 -1.9375,-2.04688 -1.5625,0 -2.35937,1.39063 -2.35937,2.8125 0,1.39063 0.84375,2.42188 2.28125,2.42188 1.0625,0 1.85937,-0.9375 2.28125,-1.8125 l -0.1875,-0.125 c -0.35938,0.5625 -0.92188,1.125 -1.84375,1.125 -1.17188,0 -1.71875,-1.04688 -1.71875,-2.25 v -0.125 z m 5.22266,-1.07813 c 0.10937,-0.26562 0.23437,-0.64062 0.60937,-0.64062 V 179.375 h -1.60937 v 0.21875 c 0.39062,0 0.60937,0.0625 0.60937,0.3125 0,0.0937 -0.0312,0.20312 -0.0781,0.34375 l -1.07812,2.78125 -1.125,-2.70313 c -0.0937,-0.20312 -0.125,-0.35937 -0.125,-0.46875 0,-0.23437 0.23437,-0.26562 0.60937,-0.26562 V 179.375 h -2.26562 v 0.21875 c 0.375,0 0.54687,0.35937 0.75,0.8125 l 1.76562,4.0625 h 0.1875 z m 1.97656,0.75 c 0.0156,-0.67187 0.57813,-1.39062 1.28125,-1.39062 0.875,0 1.15625,0.60937 1.15625,1.39062 z m 3.46875,0.32813 c -0.0156,-1.15625 -0.78125,-2.04688 -1.9375,-2.04688 -1.5625,0 -2.35938,1.39063 -2.35938,2.8125 0,1.39063 0.84376,2.42188 2.28126,2.42188 1.0625,0 1.85937,-0.9375 2.28125,-1.8125 l -0.18751,-0.125 c -0.35937,0.5625 -0.92187,1.125 -1.84374,1.125 -1.17188,0 -1.71876,-1.04688 -1.71876,-2.25 v -0.125 z m 1.64453,2.15625 c 0,0.625 -0.21874,0.70312 -0.79688,0.70312 v 0.21875 h 2.53126 v -0.21875 c -0.57812,0 -0.79688,-0.0781 -0.79688,-0.70312 v -6.70313 c -0.45312,0.14063 -1.09375,0.34375 -1.67187,0.45313 v 0.21875 h 0.12493 c 0.29687,0 0.60938,0.0625 0.60938,0.40625 z"
             style="fill:#231f20;fill-opacity:1;fill-rule:nonzero;stroke:none;stroke-width:1.33333"
             aria-label="(a) Response to positive level" />
          <path
             id="path59"
             d="m 0,0 h -32.367 v 20.02 h -19.35 V 0 h -32.367 v 20.02 h -19.35 V 0 h -32.367 v 20.02 h -19.35 V 0 h -32.367 v 20.02 h -19.351 V 0 h -32.372"
             style="fill:none;stroke:#00adef;stroke-width:0.5;stroke-linecap:butt;stroke-linejoin:miter;stroke-miterlimit:4;stroke-dasharray:none;stroke-opacity:1"
             transform="matrix(1.3333333,0,0,-1.3333333,571.494,240.83653)" />
          <path
             id="path60"
             d="m 0,0 -1.801,-1.096 -0.041,0.062 1.167,2.937 C -0.451,2.927 -0.225,3.95 0,4.974 L 0.675,1.903 1.842,-1.034 1.812,-1.096 Z"
             style="fill:#00adef;fill-opacity:1;fill-rule:nonzero;stroke:none"
             transform="matrix(1.3333333,0,0,-1.3333333,295.63853,220.62947)"
             clip-path="url(#clipPath61)" />
          <path
             id="path62"
             d="m 0,0 -1.801,-1.096 -0.041,0.062 1.167,2.937 C -0.451,2.927 -0.225,3.95 0,4.974 L 0.675,1.903 1.842,-1.034 1.812,-1.096 Z"
             style="fill:#00adef;fill-opacity:1;fill-rule:nonzero;stroke:none"
             transform="matrix(1.3333333,0,0,-1.3333333,364.6092,220.8496)"
             clip-path="url(#clipPath63)" />
          <path
             id="path64"
             d="m 0,0 -1.802,-1.096 -0.041,0.062 1.167,2.937 C -0.451,2.927 -0.226,3.95 0,4.974 0.225,3.95 0.449,2.927 0.675,1.903 L 1.842,-1.034 1.811,-1.096 Z"
             style="fill:#00adef;fill-opacity:1;fill-rule:nonzero;stroke:none"
             transform="matrix(1.3333333,0,0,-1.3333333,433.5512,220.8496)"
             clip-path="url(#clipPath65)" />
          <path
             id="path66"
             d="m 0,0 -1.802,-1.096 -0.041,0.062 1.168,2.937 C -0.45,2.927 -0.226,3.95 0,4.974 0.226,3.95 0.45,2.927 0.675,1.903 L 1.843,-1.034 1.812,-1.096 Z"
             style="fill:#00adef;fill-opacity:1;fill-rule:nonzero;stroke:none"
             transform="matrix(1.3333333,0,0,-1.3333333,502.58253,220.8496)"
             clip-path="url(#clipPath67)" />
          <path
             id="path68"
             d="m 359.52306,257.67188 h 3.45312 v -0.21875 c -0.84375,0 -1.14062,-0.17188 -1.14062,-1.04688 v -2.07812 h 0.95312 c 1.32813,0 2.8125,-0.54688 2.8125,-2.09375 0,-1.79688 -1.90625,-1.92188 -3.25,-1.92188 h -2.82812 v 0.20313 c 0.85937,0 1.15625,0.17187 1.15625,1.04687 v 4.84375 c 0,0.875 -0.29688,1.04688 -1.15625,1.04688 z m 2.3125,-6.17188 c 0,-0.75 0.0312,-0.79687 0.82812,-0.79687 0.96875,0 1.625,0.5625 1.625,1.5625 0,1.25 -0.89062,1.67187 -2.01562,1.67187 h -0.4375 z m 5.41015,3.3125 c 0,-0.95312 0.35938,-1.9375 1.4375,-1.9375 1.29688,0 1.625,1.57813 1.625,2.71875 0,0.79688 -0.39062,1.85938 -1.34375,1.85938 -1.29687,0 -1.71875,-1.60938 -1.71875,-2.64063 z m 4.09375,0.375 c 0,-1.60937 -0.9375,-2.64062 -2.57812,-2.64062 -1.45313,0 -2.54688,1.20312 -2.54688,2.64062 0,1.46875 1.0625,2.59375 2.54688,2.59375 1.45312,0 2.57812,-1.14062 2.57812,-2.59375 z m 3.74219,-2.64062 h -0.1875 c -0.0156,0.125 -0.0937,0.17187 -0.20312,0.17187 -0.15625,0 -0.32813,-0.0469 -0.48438,-0.0781 -0.17187,-0.0469 -0.34375,-0.0937 -0.53125,-0.0937 -0.79687,0 -1.57812,0.45312 -1.57812,1.32812 0,1.64063 2.65625,1.625 2.65625,2.84375 0,0.5 -0.46875,0.73438 -0.92188,0.73438 -0.78125,0 -1.40625,-0.70313 -1.42187,-1.45313 h -0.25 l 0.0625,1.67188 h 0.21875 c 0.0156,-0.0781 0,-0.15625 0.15625,-0.15625 0.17187,0 0.76562,0.26562 1.34375,0.26562 0.79687,0 1.54687,-0.53125 1.54687,-1.54687 0,-1.54688 -2.64062,-1.60938 -2.64062,-2.71875 0,-0.42188 0.39062,-0.64063 0.8125,-0.64063 0.76562,0 1.0625,0.53125 1.26562,1.1875 h 0.20313 z m 1.02344,0.70312 h 0.14062 c 0.5,0 0.65625,0.1875 0.65625,0.59375 V 256.75 c 0,0.625 -0.21875,0.70313 -0.79687,0.70313 v 0.21875 h 2.53125 v -0.21875 c -0.57813,0 -0.79688,-0.0781 -0.79688,-0.70313 v -4.20312 c -0.51562,0.17187 -1.125,0.39062 -1.73437,0.5 z m 0.65625,-2.625 c 0,0.3125 0.25,0.5625 0.57812,0.5625 0.3125,0 0.57813,-0.25 0.57813,-0.5625 0,-0.32812 -0.26563,-0.57812 -0.57813,-0.57812 -0.32812,0 -0.57812,0.25 -0.57812,0.57812 z m 3.10547,2.34375 v 3.34375 c 0,0.75 0.10937,1.46875 1.01562,1.46875 0.60938,0 0.98438,-0.39062 1.34375,-0.85937 l -0.1875,-0.10938 c -0.15625,0.17188 -0.42187,0.375 -0.67187,0.375 -0.25,0 -0.5625,-0.10938 -0.5625,-0.89062 v -3.32813 h 1.1875 v -0.3125 h -1.1875 v -1.51562 h -0.21875 c -0.29688,0.71875 -0.84375,1.32812 -1.48438,1.6875 v 0.14062 z m 2.75781,0.28125 h 0.14062 c 0.5,0 0.65626,0.1875 0.65626,0.59375 V 256.75 c 0,0.625 -0.21876,0.70313 -0.79688,0.70313 v 0.21875 h 2.53125 v -0.21875 c -0.57813,0 -0.79687,-0.0781 -0.79687,-0.70313 v -4.20312 c -0.51563,0.17187 -1.125,0.39062 -1.73438,0.5 z m 0.65625,-2.625 c 0,0.3125 0.25,0.5625 0.57813,0.5625 0.3125,0 0.57812,-0.25 0.57812,-0.5625 0,-0.32812 -0.26562,-0.57812 -0.57812,-0.57812 -0.32813,0 -0.57813,0.25 -0.57813,0.57812 z m 6.68359,2.89063 c 0.10938,-0.26563 0.23438,-0.64063 0.60938,-0.64063 v -0.21875 h -1.60938 v 0.21875 c 0.39063,0 0.60938,0.0625 0.60938,0.3125 0,0.0937 -0.0313,0.20313 -0.0781,0.34375 l -1.07813,2.78125 -1.125,-2.70312 c -0.0937,-0.20313 -0.125,-0.35938 -0.125,-0.46875 0,-0.23438 0.23438,-0.26563 0.60938,-0.26563 v -0.21875 h -2.26563 v 0.21875 c 0.375,0 0.54687,0.35938 0.75,0.8125 l 1.76562,4.0625 h 0.1875 z m 1.97266,0.75 c 0.0156,-0.67188 0.57812,-1.39063 1.28125,-1.39063 0.875,0 1.15625,0.60938 1.15625,1.39063 z m 3.46875,0.32812 c -0.0156,-1.15625 -0.78125,-2.04687 -1.9375,-2.04687 -1.5625,0 -2.35937,1.39062 -2.35937,2.8125 0,1.39062 0.84374,2.42187 2.28124,2.42187 1.0625,0 1.85938,-0.9375 2.28125,-1.8125 l -0.18749,-0.125 c -0.35938,0.5625 -0.92188,1.125 -1.84376,1.125 -1.17187,0 -1.71874,-1.04687 -1.71874,-2.25 v -0.125 z m 3.70703,0.92188 v -0.71875 h -2.59375 v 0.71875 z m 1.71094,-1.25 c 0.0156,-0.67188 0.57812,-1.39063 1.28125,-1.39063 0.875,0 1.15625,0.60938 1.15625,1.39063 z m 3.46875,0.32812 c -0.0156,-1.15625 -0.78125,-2.04687 -1.9375,-2.04687 -1.5625,0 -2.35938,1.39062 -2.35938,2.8125 0,1.39062 0.84375,2.42187 2.28125,2.42187 1.0625,0 1.85938,-0.9375 2.28125,-1.8125 l -0.1875,-0.125 c -0.35937,0.5625 -0.92187,1.125 -1.84375,1.125 -1.17187,0 -1.71875,-1.04687 -1.71875,-2.25 v -0.125 z m 1.97265,0.39063 c 0,-0.9375 0.375,-2.10938 1.45313,-2.10938 0.54687,0 0.98437,0.25 1.21875,0.78125 0.0625,0.10937 0.0625,0.42188 0.0625,0.67188 V 256.75 c 0,0.15625 -0.5,0.35938 -1.07812,0.35938 -1.15625,0 -1.65625,-1.14063 -1.65625,-2.125 z m 2.73438,-1.9375 c -0.40625,-0.34375 -0.75,-0.5 -1.28125,-0.5 -1.35938,0 -2.39063,1.29687 -2.39063,2.76562 0,2.23438 1.625,2.46875 2.14063,2.46875 0.57812,0 1.09375,-0.15625 1.54687,-0.73437 h 0.0313 v 0.73437 c 0.5,-0.1875 1.01562,-0.32812 1.54687,-0.45312 v -0.21875 c -0.60937,0 -0.65625,-0.14063 -0.65625,-0.76563 v -6.29687 c -0.5,0.0937 -1.09375,0.34375 -1.67187,0.45312 v 0.21875 h 0.125 c 0.29687,0 0.60937,0.0625 0.60937,0.40625 z m 2.77344,5.68749 c 0,-0.35937 0.39062,-0.84375 0.54687,-0.89062 2.90625,0 3.15625,0.14062 3.15625,0.6875 0,0.76563 -1.14062,1.10938 -1.71875,1.10938 -0.59375,0 -1.98437,-0.0312 -1.98437,-0.90626 z m 1.51562,-5.85937 c 0.8125,0 1.04688,1.21875 1.04688,1.8125 0,0.51563 -0.1875,1.15625 -0.8125,1.15625 -0.8125,0 -1.04688,-1.21875 -1.04688,-1.84375 0,-1.0625 0.60938,-1.125 0.8125,-1.125 z m 2.59375,0.0625 h -1.28125 c -0.0625,-0.0156 -0.26562,-0.39062 -1.20312,-0.39062 -0.96875,0 -1.85938,0.85937 -1.85938,1.82812 0,0.75 0.25,1.21875 0.875,1.625 -0.26562,0.23438 -0.8125,0.75 -0.8125,1.14063 0,0.26562 0.17188,0.51562 0.40625,0.60937 -0.3125,0.3125 -0.84375,0.875 -0.84375,1.34375 0,0.84375 1.04688,1.07813 1.71875,1.07813 1.20313,0 3.0625,-0.59375 3.0625,-2.01563 0,-1.125 -1.46875,-1 -2.25,-1.04687 -1.09375,-0.0312 -1.34375,-0.125 -1.34375,-0.53125 0,-0.28125 0.23438,-0.4375 0.375,-0.4375 0.0312,0 0.15625,0.0312 0.60938,0.0312 1.125,0 1.9375,-0.73437 1.9375,-1.85937 0,-0.32813 -0.10938,-0.65625 -0.25,-0.96875 h 0.85937 z m 1.53906,1.32813 c 0.0156,-0.67188 0.57813,-1.39063 1.28125,-1.39063 0.875,0 1.15625,0.60938 1.15625,1.39063 z m 3.46875,0.32812 c -0.0156,-1.15625 -0.78125,-2.04687 -1.9375,-2.04687 -1.5625,0 -2.35937,1.39062 -2.35937,2.8125 0,1.39062 0.84375,2.42187 2.28125,2.42187 1.0625,0 1.85937,-0.9375 2.28125,-1.8125 l -0.1875,-0.125 c -0.35938,0.5625 -0.92188,1.125 -1.84375,1.125 -1.17188,0 -1.71875,-1.04687 -1.71875,-2.25 v -0.125 z m 3.51563,3.07813 h 2.6875 v -0.21875 c -0.78125,0 -0.90625,-0.10938 -0.90625,-0.95313 v -2.48437 c 0,-0.0625 0.42187,-0.73438 0.8125,-0.73438 0.125,0 0.20312,0.0625 0.28125,0.14063 0.0937,0.0781 0.1875,0.15625 0.35937,0.15625 0.26563,0 0.51563,-0.20313 0.51563,-0.48438 0,-0.35937 -0.3125,-0.54687 -0.625,-0.54687 -0.53125,0 -1.03125,0.60937 -1.34375,0.95312 v -0.95312 h -0.0469 c -0.54688,0.1875 -1.14063,0.35937 -1.73438,0.51562 v 0.21875 c 0.75,0 0.84375,0.0937 0.84375,0.85938 v 2.34375 c 0,0.78125 -0.0312,0.9375 -0.84375,0.96875 z m 5.16406,-3.40625 c 0.0156,-0.67188 0.57813,-1.39063 1.28125,-1.39063 0.875,0 1.15625,0.60938 1.15625,1.39063 z m 3.46875,0.32812 c -0.0156,-1.15625 -0.78125,-2.04687 -1.9375,-2.04687 -1.5625,0 -2.35937,1.39062 -2.35937,2.8125 0,1.39062 0.84375,2.42187 2.28125,2.42187 1.0625,0 1.85937,-0.9375 2.28125,-1.8125 l -0.1875,-0.125 c -0.35938,0.5625 -0.92188,1.125 -1.84375,1.125 -1.17188,0 -1.71875,-1.04687 -1.71875,-2.25 v -0.125 z m 3.97266,-2.04687 h -0.1875 c -0.0156,0.125 -0.0937,0.17187 -0.20313,0.17187 -0.15625,0 -0.32812,-0.0469 -0.48437,-0.0781 -0.17188,-0.0469 -0.34375,-0.0937 -0.53125,-0.0937 -0.79688,0 -1.57813,0.45312 -1.57813,1.32812 0,1.64063 2.65625,1.625 2.65625,2.84375 0,0.5 -0.46875,0.73438 -0.92187,0.73438 -0.78125,0 -1.40625,-0.70313 -1.42188,-1.45313 h -0.25 l 0.0625,1.67188 h 0.21875 c 0.0156,-0.0781 0,-0.15625 0.15625,-0.15625 0.17187,0 0.76562,0.26562 1.34375,0.26562 0.79687,0 1.54687,-0.53125 1.54687,-1.54687 0,-1.54688 -2.64062,-1.60938 -2.64062,-2.71875 0,-0.42188 0.39062,-0.64063 0.8125,-0.64063 0.76562,0 1.0625,0.53125 1.26562,1.1875 h 0.20313 z m 2.66406,1.4375 c 0,-0.20313 0.46875,-0.76563 1.15625,-0.76563 1.17187,0 1.57813,1.17188 1.57813,2.17188 0,0.89062 -0.4375,2.0625 -1.51563,2.0625 -0.4375,0 -1.04687,-0.23438 -1.21875,-0.70313 z m -0.9375,5.29687 c 0,0.67188 -0.3125,0.67188 -0.76562,0.67188 v 0.21875 h 2.5625 v -0.21875 c -0.51563,0 -0.85938,0 -0.85938,-0.59375 v -1.9375 c 0.34375,0.28124 0.78125,0.35937 1.21875,0.35937 1.57813,0 2.45313,-1.57812 2.45313,-2.92187 0,-1.25 -0.76563,-2.3125 -2.0625,-2.3125 -0.65626,0 -1.23438,0.40625 -1.59376,0.90625 h -0.0156 v -0.90625 h -0.0469 c -0.51563,0.29687 -1.07813,0.53125 -1.65625,0.67187 v 0.20313 h 0.23437 c 0.46875,0 0.53125,0.15625 0.53125,0.78125 z m 6.44922,-4.46875 c 0,-0.95312 0.35937,-1.9375 1.4375,-1.9375 1.29687,0 1.625,1.57813 1.625,2.71875 0,0.79688 -0.39063,1.85938 -1.34375,1.85938 -1.29688,0 -1.71875,-1.60938 -1.71875,-2.64063 z m 4.09375,0.375 c 0,-1.60937 -0.9375,-2.64062 -2.57813,-2.64062 -1.45312,0 -2.54687,1.20312 -2.54687,2.64062 0,1.46875 1.0625,2.59375 2.54687,2.59375 1.45313,0 2.57813,-1.14062 2.57813,-2.59375 z m 0.61719,2.48438 h 2.5 v -0.21875 c -0.5625,0 -0.78125,-0.0781 -0.78125,-0.70313 v -3 c 0.3125,-0.28125 0.6875,-0.53125 1.125,-0.53125 0.54687,0 0.9375,0.29688 0.9375,1.04688 V 256.75 c 0,0.625 -0.21875,0.70313 -0.78125,0.70313 v 0.21875 h 2.48437 v -0.21875 c -0.53125,0 -0.76562,-0.0781 -0.76562,-0.70313 v -2.45312 c 0,-1.28125 -0.5,-1.75 -1.34375,-1.75 -0.67188,0 -1.15625,0.4375 -1.65625,0.82812 v -0.82812 c -0.53125,0.17187 -1.125,0.39062 -1.71875,0.5 V 253.25 h 0.125 c 0.48437,0 0.65625,0.1875 0.65625,0.59375 V 256.75 c 0,0.625 -0.23438,0.70313 -0.78125,0.70313 z m 9.05468,-5.125 h -0.1875 c -0.0156,0.125 -0.0937,0.17187 -0.20312,0.17187 -0.15625,0 -0.32813,-0.0469 -0.48438,-0.0781 -0.17187,-0.0469 -0.34375,-0.0937 -0.53125,-0.0937 -0.79687,0 -1.57812,0.45312 -1.57812,1.32812 0,1.64063 2.65625,1.625 2.65625,2.84375 0,0.5 -0.46875,0.73438 -0.92188,0.73438 -0.78125,0 -1.40625,-0.70313 -1.42187,-1.45313 h -0.25 l 0.0625,1.67188 h 0.21875 c 0.0156,-0.0781 0,-0.15625 0.15625,-0.15625 0.17188,0 0.76563,0.26562 1.34375,0.26562 0.79688,0 1.54688,-0.53125 1.54688,-1.54687 0,-1.54688 -2.64063,-1.60938 -2.64063,-2.71875 0,-0.42188 0.39063,-0.64063 0.8125,-0.64063 0.76563,0 1.0625,0.53125 1.26563,1.1875 h 0.20312 z m 2.03907,1.71875 c 0.0156,-0.67188 0.57812,-1.39063 1.28125,-1.39063 0.875,0 1.15625,0.60938 1.15625,1.39063 z m 3.46875,0.32812 c -0.0156,-1.15625 -0.78125,-2.04687 -1.9375,-2.04687 -1.5625,0 -2.35938,1.39062 -2.35938,2.8125 0,1.39062 0.84375,2.42187 2.28125,2.42187 1.0625,0 1.85938,-0.9375 2.28125,-1.8125 l -0.1875,-0.125 c -0.35937,0.5625 -0.92187,1.125 -1.84375,1.125 -1.17187,0 -1.71875,-1.04687 -1.71875,-2.25 v -0.125 z"
             style="fill:#231f20;fill-opacity:1;fill-rule:nonzero;stroke:none;stroke-width:1.33333"
             aria-label="(b) Positive-edge response" />
          <path
             id="path69"
             d="m 0,0 h -32.367 v 20.02 h -19.35 V 0 h -32.367 v 20.02 h -19.35 V 0 h -32.367 v 20.02 h -19.35 V 0 h -32.367 v 20.02 h -19.351 V 0 h -32.372"
             style="fill:none;stroke:#00adef;stroke-width:0.5;stroke-linecap:butt;stroke-linejoin:miter;stroke-miterlimit:4;stroke-dasharray:none;stroke-opacity:1"
             transform="matrix(1.3333333,0,0,-1.3333333,571.494,314.65227)" />
          <path
             id="path70"
             d="M 0,0 -1.801,1.096 -1.842,1.033 -0.675,-1.904 C -0.451,-2.928 -0.225,-3.951 0,-4.975 l 0.675,3.071 1.167,2.937 -0.03,0.063 z"
             style="fill:#00adef;fill-opacity:1;fill-rule:nonzero;stroke:none"
             transform="matrix(1.3333333,0,0,-1.3333333,321.49333,308.03773)"
             clip-path="url(#clipPath71)" />
          <path
             id="path72"
             d="M 0,0 -1.801,1.096 -1.842,1.035 -0.675,-1.902 C -0.451,-2.926 -0.225,-3.949 0,-4.973 l 0.675,3.071 1.167,2.937 -0.03,0.061 z"
             style="fill:#00adef;fill-opacity:1;fill-rule:nonzero;stroke:none"
             transform="matrix(1.3333333,0,0,-1.3333333,390.464,308.02733)"
             clip-path="url(#clipPath73)" />
          <path
             id="path74"
             d="m 0,0 -1.801,1.096 -0.041,-0.061 1.166,-2.937 c 0.225,-1.024 0.451,-2.047 0.676,-3.071 0.225,1.024 0.451,2.047 0.676,3.071 l 1.166,2.937 -0.03,0.061 z"
             style="fill:#00adef;fill-opacity:1;fill-rule:nonzero;stroke:none"
             transform="matrix(1.3333333,0,0,-1.3333333,459.40547,307.95693)"
             clip-path="url(#clipPath75)" />
          <path
             id="path76"
             d="M 0,0 -1.801,1.096 -1.842,1.035 -0.674,-1.902 0,-4.973 c 0.227,1.024 0.451,2.047 0.676,3.071 L 1.844,1.035 1.812,1.096 Z"
             style="fill:#00adef;fill-opacity:1;fill-rule:nonzero;stroke:none"
             transform="matrix(1.3333333,0,0,-1.3333333,528.36773,308.02733)"
             clip-path="url(#clipPath77)" />
          <path
             id="path78"
             d="m 352.36316,330.44429 1.03125,-0.0625 z m 4.56641,-4.70312 c 0.60937,0.0312 1.07812,0.59375 1.14062,0.90625 v 4.54687 c 0,1.07813 -0.0312,1.4375 -1.0625,1.48438 v 0.21875 h 2.59375 v -0.21875 c -1.03125,-0.0469 -1.0625,-0.40625 -1.0625,-1.48438 v -4.20312 l 5.0625,5.90625 h 0.1875 v -5.65625 c 0,-1.07813 0.0156,-1.4375 1.04688,-1.5 v -0.20313 h -2.59375 v 0.20313 c 1.04687,0.0625 1.0625,0.42187 1.0625,1.5 v 3.54687 l -4.5,-5.25 h -1.875 z m 9.375,3.75 c 0.0156,-0.67188 0.57812,-1.39063 1.28125,-1.39063 0.875,0 1.15625,0.60938 1.15625,1.39063 z m 3.46875,0.32812 c -0.0156,-1.15625 -0.78125,-2.04687 -1.9375,-2.04687 -1.5625,0 -2.35938,1.39062 -2.35938,2.8125 0,1.39062 0.84375,2.42187 2.28125,2.42187 1.0625,0 1.85938,-0.9375 2.28125,-1.8125 l -0.1875,-0.125 c -0.35937,0.5625 -0.92187,1.125 -1.84375,1.125 -1.17187,0 -1.71875,-1.04687 -1.71875,-2.25 v -0.125 z m 1.55469,4.14063 c 0,-0.35938 0.39062,-0.84375 0.54687,-0.89063 2.90625,0 3.15625,0.14063 3.15625,0.6875 0,0.76563 -1.14062,1.10938 -1.71875,1.10938 -0.59375,0 -1.98437,-0.0312 -1.98437,-0.90625 z m 1.51562,-5.85938 c 0.8125,0 1.04688,1.21875 1.04688,1.8125 0,0.51563 -0.1875,1.15625 -0.8125,1.15625 -0.8125,0 -1.04688,-1.21875 -1.04688,-1.84375 0,-1.0625 0.60938,-1.125 0.8125,-1.125 z m 2.59375,0.0625 h -1.28125 c -0.0625,-0.0156 -0.26562,-0.39062 -1.20312,-0.39062 -0.96875,0 -1.85938,0.85937 -1.85938,1.82812 0,0.75 0.25,1.21875 0.875,1.625 -0.26562,0.23438 -0.8125,0.75 -0.8125,1.14063 0,0.26562 0.17188,0.51562 0.40625,0.60937 -0.3125,0.3125 -0.84375,0.875 -0.84375,1.34375 0,0.84375 1.04688,1.07813 1.71875,1.07813 1.20313,0 3.0625,-0.59375 3.0625,-2.01563 0,-1.125 -1.46875,-1 -2.25,-1.04687 -1.09375,-0.0312 -1.34375,-0.125 -1.34375,-0.53125 0,-0.28125 0.23438,-0.4375 0.375,-0.4375 0.0313,0 0.15625,0.0312 0.60938,0.0312 1.125,0 1.9375,-0.73438 1.9375,-1.85938 0,-0.32812 -0.10938,-0.65625 -0.25,-0.96875 h 0.85937 z m 1.73828,3.40625 c 0,-0.96875 1.23438,-1.29687 1.95313,-1.59375 v 1.82813 c 0,0.26562 -0.57813,0.67187 -1.04688,0.67187 -0.59375,0 -0.90625,-0.32812 -0.90625,-0.90625 z m 2.89063,-1.92187 c 0,-1.20313 -0.4375,-1.875 -1.75,-1.875 -0.6875,0 -1.84375,0.32812 -1.84375,1.17187 0,0.29688 0.14062,0.53125 0.45312,0.53125 0.34375,0 0.48438,-0.26562 0.48438,-0.5625 0,-0.125 -0.0313,-0.23437 -0.0156,-0.35937 0.0156,-0.35938 0.54688,-0.45313 0.8125,-0.45313 0.79688,0 0.92188,0.57813 0.92188,1.04688 v 0.5625 c -0.48438,0.14062 -1.23438,0.34375 -1.76563,0.625 -0.625,0.32812 -1.14063,0.78125 -1.14063,1.5 0,0.67187 0.53126,1.17187 1.20313,1.17187 0.65625,0 1.21875,-0.32812 1.71875,-0.70312 0.0156,0.34375 0.25,0.70312 0.625,0.70312 0.51562,0 0.85938,-0.25 1.125,-0.67187 l -0.125,-0.10938 c -0.0937,0.10938 -0.23438,0.25 -0.40625,0.25 -0.28125,0 -0.29687,-0.28125 -0.29687,-0.5 z m 2.01953,-1.45313 v 3.34375 c 0,0.75 0.10937,1.46875 1.01562,1.46875 0.60938,0 0.98438,-0.39062 1.34375,-0.85937 l -0.1875,-0.10938 c -0.15625,0.17188 -0.42187,0.375 -0.67187,0.375 -0.25,0 -0.5625,-0.10937 -0.5625,-0.89062 v -3.32813 h 1.1875 v -0.3125 h -1.1875 v -1.51562 h -0.21875 c -0.29688,0.71875 -0.84375,1.32812 -1.48438,1.6875 v 0.14062 z m 2.75781,0.28125 h 0.14063 c 0.5,0 0.65625,0.1875 0.65625,0.59375 v 2.90625 c 0,0.625 -0.21875,0.70313 -0.79688,0.70313 v 0.21875 h 2.53125 v -0.21875 c -0.57812,0 -0.79687,-0.0781 -0.79687,-0.70313 v -4.20312 c -0.51563,0.17187 -1.125,0.39062 -1.73438,0.5 z m 0.65625,-2.625 c 0,0.3125 0.25,0.5625 0.57813,0.5625 0.3125,0 0.57812,-0.25 0.57812,-0.5625 0,-0.32812 -0.26562,-0.57812 -0.57812,-0.57812 -0.32813,0 -0.57813,0.25 -0.57813,0.57812 z m 6.6836,2.89063 c 0.10937,-0.26563 0.23437,-0.64063 0.60937,-0.64063 v -0.21875 h -1.60937 v 0.21875 c 0.39062,0 0.60937,0.0625 0.60937,0.3125 0,0.0937 -0.0312,0.20313 -0.0781,0.34375 l -1.07813,2.78125 -1.125,-2.70312 c -0.0937,-0.20313 -0.125,-0.35938 -0.125,-0.46875 0,-0.23438 0.23438,-0.26563 0.60938,-0.26563 v -0.21875 h -2.26562 v 0.21875 c 0.375,0 0.54687,0.35938 0.75,0.8125 l 1.76562,4.0625 h 0.1875 z m 1.97265,0.75 c 0.0156,-0.67188 0.57813,-1.39063 1.28125,-1.39063 0.875,0 1.15625,0.60938 1.15625,1.39063 z m 3.46875,0.32812 c -0.0156,-1.15625 -0.78125,-2.04687 -1.9375,-2.04687 -1.5625,0 -2.35937,1.39062 -2.35937,2.8125 0,1.39062 0.84375,2.42187 2.28125,2.42187 1.0625,0 1.85937,-0.9375 2.28125,-1.8125 l -0.1875,-0.125 c -0.35938,0.5625 -0.92188,1.125 -1.84375,1.125 -1.17188,0 -1.71875,-1.04687 -1.71875,-2.25 v -0.125 z m 3.71094,0.92188 v -0.71875 h -2.59375 v 0.71875 z m 1.70703,-1.25 c 0.0156,-0.67188 0.57813,-1.39063 1.28125,-1.39063 0.875,0 1.15625,0.60938 1.15625,1.39063 z m 3.46875,0.32812 c -0.0156,-1.15625 -0.78125,-2.04687 -1.9375,-2.04687 -1.5625,0 -2.35938,1.39062 -2.35938,2.8125 0,1.39062 0.84376,2.42187 2.28126,2.42187 1.0625,0 1.85937,-0.9375 2.28124,-1.8125 l -0.1875,-0.125 c -0.35937,0.5625 -0.92187,1.125 -1.84374,1.125 -1.17188,0 -1.71876,-1.04687 -1.71876,-2.25 v -0.125 z m 1.97266,0.39063 c 0,-0.9375 0.375,-2.10938 1.45312,-2.10938 0.54688,0 0.98438,0.25 1.21875,0.78125 0.0625,0.10938 0.0625,0.42188 0.0625,0.67188 v 2.42187 c 0,0.15625 -0.5,0.35938 -1.07812,0.35938 -1.15625,0 -1.65625,-1.14063 -1.65625,-2.125 z m 2.73437,-1.9375 c -0.40625,-0.34375 -0.75,-0.5 -1.28125,-0.5 -1.35937,0 -2.39062,1.29687 -2.39062,2.76562 0,2.23438 1.625,2.46875 2.14062,2.46875 0.57813,0 1.09375,-0.15625 1.54688,-0.73437 h 0.0312 v 0.73437 c 0.5,-0.1875 1.01562,-0.32812 1.54687,-0.45312 v -0.21875 c -0.60937,0 -0.65625,-0.14063 -0.65625,-0.76563 v -6.29687 c -0.5,0.0937 -1.09375,0.34375 -1.67187,0.45312 v 0.21875 h 0.125 c 0.29687,0 0.60937,0.0625 0.60937,0.40625 z m 2.77344,5.6875 c 0,-0.35938 0.39062,-0.84375 0.54687,-0.89063 2.90625,0 3.15625,0.14063 3.15625,0.6875 0,0.76563 -1.14062,1.10938 -1.71875,1.10938 -0.59375,0 -1.98437,-0.0312 -1.98437,-0.90625 z m 1.51562,-5.85938 c 0.8125,0 1.04688,1.21875 1.04688,1.8125 0,0.51563 -0.1875,1.15625 -0.8125,1.15625 -0.8125,0 -1.04688,-1.21875 -1.04688,-1.84375 0,-1.0625 0.60938,-1.125 0.8125,-1.125 z m 2.59375,0.0625 h -1.28125 c -0.0625,-0.0156 -0.26562,-0.39062 -1.20312,-0.39062 -0.96875,0 -1.85938,0.85937 -1.85938,1.82812 0,0.75 0.25,1.21875 0.875,1.625 -0.26562,0.23438 -0.8125,0.75 -0.8125,1.14063 0,0.26562 0.17188,0.51562 0.40625,0.60937 -0.3125,0.3125 -0.84375,0.875 -0.84375,1.34375 0,0.84375 1.04688,1.07813 1.71875,1.07813 1.20313,0 3.0625,-0.59375 3.0625,-2.01563 0,-1.125 -1.46875,-1 -2.25,-1.04687 -1.09375,-0.0312 -1.34375,-0.125 -1.34375,-0.53125 0,-0.28125 0.23438,-0.4375 0.375,-0.4375 0.0313,0 0.15625,0.0312 0.60938,0.0312 1.125,0 1.9375,-0.73438 1.9375,-1.85938 0,-0.32812 -0.10938,-0.65625 -0.25,-0.96875 h 0.85937 z m 1.53907,1.32813 c 0.0156,-0.67188 0.57812,-1.39063 1.28125,-1.39063 0.875,0 1.15625,0.60938 1.15625,1.39063 z m 3.46875,0.32812 c -0.0156,-1.15625 -0.78125,-2.04687 -1.9375,-2.04687 -1.5625,0 -2.35938,1.39062 -2.35938,2.8125 0,1.39062 0.84375,2.42187 2.28125,2.42187 1.0625,0 1.85938,-0.9375 2.28125,-1.8125 l -0.1875,-0.125 c -0.35937,0.5625 -0.92187,1.125 -1.84375,1.125 -1.17187,0 -1.71875,-1.04687 -1.71875,-2.25 v -0.125 z m 3.51562,3.07813 h 2.6875 v -0.21875 c -0.78125,0 -0.90625,-0.10938 -0.90625,-0.95313 v -2.48437 c 0,-0.0625 0.42188,-0.73438 0.8125,-0.73438 0.125,0 0.20313,0.0625 0.28125,0.14063 0.0937,0.0781 0.1875,0.15625 0.35938,0.15625 0.26562,0 0.51562,-0.20313 0.51562,-0.48438 0,-0.35937 -0.3125,-0.54687 -0.625,-0.54687 -0.53125,0 -1.03125,0.60937 -1.34375,0.95312 v -0.95312 h -0.0469 c -0.54688,0.1875 -1.14062,0.35937 -1.73438,0.51562 v 0.21875 c 0.75,0 0.84376,0.0937 0.84376,0.85938 v 2.34375 c 0,0.78125 -0.0313,0.9375 -0.84376,0.96875 z m 5.16406,-3.40625 c 0.0156,-0.67188 0.57813,-1.39063 1.28125,-1.39063 0.875,0 1.15625,0.60938 1.15625,1.39063 z m 3.46875,0.32812 c -0.0156,-1.15625 -0.78125,-2.04687 -1.9375,-2.04687 -1.5625,0 -2.35937,1.39062 -2.35937,2.8125 0,1.39062 0.84375,2.42187 2.28125,2.42187 1.0625,0 1.85937,-0.9375 2.28125,-1.8125 l -0.1875,-0.125 c -0.35938,0.5625 -0.92188,1.125 -1.84375,1.125 -1.17188,0 -1.71875,-1.04687 -1.71875,-2.25 v -0.125 z m 3.97266,-2.04687 h -0.1875 c -0.0156,0.125 -0.0937,0.17187 -0.20313,0.17187 -0.15625,0 -0.32812,-0.0469 -0.48437,-0.0781 -0.17188,-0.0469 -0.34375,-0.0937 -0.53125,-0.0937 -0.79688,0 -1.57813,0.45312 -1.57813,1.32812 0,1.64063 2.65625,1.625 2.65625,2.84375 0,0.5 -0.46875,0.73438 -0.92187,0.73438 -0.78125,0 -1.40625,-0.70313 -1.42188,-1.45313 h -0.25 l 0.0625,1.67188 h 0.21875 c 0.0156,-0.0781 0,-0.15625 0.15625,-0.15625 0.17187,0 0.76562,0.26562 1.34375,0.26562 0.79687,0 1.54687,-0.53125 1.54687,-1.54687 0,-1.54688 -2.64062,-1.60938 -2.64062,-2.71875 0,-0.42188 0.39062,-0.64063 0.8125,-0.64063 0.76562,0 1.0625,0.53125 1.26562,1.1875 h 0.20313 z m 2.66797,1.4375 c 0,-0.20313 0.46875,-0.76563 1.15625,-0.76563 1.17187,0 1.57812,1.17188 1.57812,2.17188 0,0.89062 -0.4375,2.0625 -1.51562,2.0625 -0.4375,0 -1.04688,-0.23438 -1.21875,-0.70313 z m -0.9375,5.29687 c 0,0.67188 -0.3125,0.67188 -0.76563,0.67188 v 0.21875 h 2.5625 v -0.21875 c -0.51562,0 -0.85937,0 -0.85937,-0.59375 v -1.9375 c 0.34375,0.28125 0.78125,0.35937 1.21875,0.35937 1.57812,0 2.45312,-1.57812 2.45312,-2.92187 0,-1.25 -0.76562,-2.3125 -2.0625,-2.3125 -0.65625,0 -1.23437,0.40625 -1.59375,0.90625 h -0.0156 v -0.90625 h -0.0469 c -0.51563,0.29687 -1.07813,0.53125 -1.65625,0.67187 v 0.20313 h 0.23437 c 0.46875,0 0.53125,0.15625 0.53125,0.78125 z m 6.44531,-4.46875 c 0,-0.95312 0.35937,-1.9375 1.4375,-1.9375 1.29687,0 1.625,1.57813 1.625,2.71875 0,0.79688 -0.39063,1.85938 -1.34375,1.85938 -1.29688,0 -1.71875,-1.60938 -1.71875,-2.64063 z m 4.09375,0.375 c 0,-1.60937 -0.9375,-2.64062 -2.57812,-2.64062 -1.45313,0 -2.54688,1.20312 -2.54688,2.64062 0,1.46875 1.0625,2.59375 2.54688,2.59375 1.45312,0 2.57812,-1.14062 2.57812,-2.59375 z m 0.61719,2.48438 h 2.5 v -0.21875 c -0.5625,0 -0.78125,-0.0781 -0.78125,-0.70313 v -3 c 0.3125,-0.28125 0.6875,-0.53125 1.125,-0.53125 0.54687,0 0.9375,0.29688 0.9375,1.04688 v 2.48437 c 0,0.625 -0.21875,0.70313 -0.78125,0.70313 v 0.21875 h 2.48437 v -0.21875 c -0.53125,0 -0.76562,-0.0781 -0.76562,-0.70313 v -2.45312 c 0,-1.28125 -0.5,-1.75 -1.34375,-1.75 -0.67188,0 -1.15625,0.4375 -1.65625,0.82812 v -0.82812 c -0.53125,0.17187 -1.125,0.39062 -1.71875,0.5 v 0.20312 h 0.125 c 0.48437,0 0.65625,0.1875 0.65625,0.59375 v 2.90625 c 0,0.625 -0.23438,0.70313 -0.78125,0.70313 z m 9.05469,-5.125 h -0.1875 c -0.0156,0.125 -0.0937,0.17187 -0.20313,0.17187 -0.15625,0 -0.32813,-0.0469 -0.48437,-0.0781 -0.17188,-0.0469 -0.34376,-0.0937 -0.53126,-0.0937 -0.79687,0 -1.57812,0.45312 -1.57812,1.32812 0,1.64063 2.65625,1.625 2.65625,2.84375 0,0.5 -0.46875,0.73438 -0.92187,0.73438 -0.78126,0 -1.40626,-0.70313 -1.42188,-1.45313 h -0.25 l 0.0625,1.67188 h 0.21875 c 0.0156,-0.0781 0,-0.15625 0.15625,-0.15625 0.17188,0 0.76563,0.26562 1.34375,0.26562 0.79688,0 1.54688,-0.53125 1.54688,-1.54687 0,-1.54688 -2.64063,-1.60938 -2.64063,-2.71875 0,-0.42188 0.39063,-0.64063 0.8125,-0.64063 0.76563,0 1.0625,0.53125 1.26563,1.1875 h 0.20312 z m 2.04296,1.71875 c 0.0156,-0.67188 0.57813,-1.39063 1.28125,-1.39063 0.875,0 1.15625,0.60938 1.15625,1.39063 z m 3.46875,0.32812 c -0.0156,-1.15625 -0.78125,-2.04687 -1.9375,-2.04687 -1.5625,0 -2.35937,1.39062 -2.35937,2.8125 0,1.39062 0.84375,2.42187 2.28125,2.42187 1.0625,0 1.85937,-0.9375 2.28125,-1.8125 l -0.1875,-0.125 c -0.35938,0.5625 -0.92188,1.125 -1.84375,1.125 -1.17188,0 -1.71875,-1.04687 -1.71875,-2.25 v -0.125 z"
             style="fill:#231f20;fill-opacity:1;fill-rule:nonzero;stroke:none;stroke-width:1.33333"
             aria-label="(c) Negative-edge response" />
        </g>
      </g>
    </g>
    <path
       id="path108"
       d="m 0,0 h -15 m 567,0 h 15 M 0,-666 h -15 m 567,0 h 15 M 24,24 v 15 m 0,-729 v -15 M 528,24 v 15 m 0,-729 v -15"
       style="fill:none;stroke:#ffffff;stroke-width:1.25;stroke-linecap:butt;stroke-linejoin:miter;stroke-miterlimit:10;stroke-dasharray:none;stroke-opacity:1"
       transform="matrix(1.3333333,0,0,-1.3333333,20,52)"
       clip-path="url(#clipPath109)" />
    <path
       id="path110"
       d="m 0,0 h -15 m 567,0 h 15 M 0,-666 h -15 m 567,0 h 15 M 24,24 v 15 m 0,-729 v -15 M 528,24 v 15 m 0,-729 v -15"
       style="fill:none;stroke:#000000;stroke-width:0.25;stroke-linecap:butt;stroke-linejoin:miter;stroke-miterlimit:10;stroke-dasharray:none;stroke-opacity:1"
       transform="matrix(1.3333333,0,0,-1.3333333,20,52)"
       clip-path="url(#clipPath111)" />
  </g>
</svg>
