<?xml version="1.0" encoding="UTF-8" standalone="no"?>
<!-- Created with Inkscape (http://www.inkscape.org/) -->

<svg
   version="1.1"
   id="svg1"
   viewBox="0 0 393.04623 228.75105"
   xmlns="http://www.w3.org/2000/svg"
   xmlns:svg="http://www.w3.org/2000/svg">
  <defs
     id="defs1">
    <clipPath
       clipPathUnits="userSpaceOnUse"
       id="clipPath26">
      <path
         d="M 163.268,476.146 H 454.731 V 640.5 H 163.268 Z"
         transform="translate(-219.01671,-628.32862)"
         id="path26" />
    </clipPath>
    <clipPath
       clipPathUnits="userSpaceOnUse"
       id="clipPath28">
      <path
         d="M 163.268,476.146 H 454.731 V 640.5 H 163.268 Z"
         transform="translate(-299.17591,-628.32862)"
         id="path28" />
    </clipPath>
    <clipPath
       clipPathUnits="userSpaceOnUse"
       id="clipPath30">
      <path
         d="M 163.268,476.146 H 454.731 V 640.5 H 163.268 Z"
         transform="translate(-411.82531,-628.32862)"
         id="path30" />
    </clipPath>
    <clipPath
       clipPathUnits="userSpaceOnUse"
       id="clipPath32">
      <path
         d="M 163.268,476.146 H 454.731 V 640.5 H 163.268 Z"
         transform="translate(-203.1793,-604.75151)"
         id="path32" />
    </clipPath>
    <clipPath
       clipPathUnits="userSpaceOnUse"
       id="clipPath34">
      <path
         d="M 163.268,476.146 H 454.731 V 640.5 H 163.268 Z"
         transform="translate(-219.01671,-604.75151)"
         id="path34" />
    </clipPath>
    <clipPath
       clipPathUnits="userSpaceOnUse"
       id="clipPath36">
      <path
         d="M 163.268,476.146 H 454.731 V 640.5 H 163.268 Z"
         transform="translate(-299.34391,-604.75151)"
         id="path36" />
    </clipPath>
    <clipPath
       clipPathUnits="userSpaceOnUse"
       id="clipPath38">
      <path
         d="M 163.268,476.146 H 454.731 V 640.5 H 163.268 Z"
         transform="translate(-337.75311,-604.75151)"
         id="path38" />
    </clipPath>
    <clipPath
       clipPathUnits="userSpaceOnUse"
       id="clipPath40">
      <path
         d="M 163.268,476.146 H 454.731 V 640.5 H 163.268 Z"
         transform="translate(-337.83411,-586.23391)"
         id="path40" />
    </clipPath>
    <clipPath
       clipPathUnits="userSpaceOnUse"
       id="clipPath42">
      <path
         d="M 163.268,476.146 H 454.731 V 640.5 H 163.268 Z"
         transform="translate(-337.75311,-586.23391)"
         id="path42" />
    </clipPath>
    <clipPath
       clipPathUnits="userSpaceOnUse"
       id="clipPath44">
      <path
         d="M 163.268,476.146 H 454.731 V 640.5 H 163.268 Z"
         transform="translate(-396.17491,-595.87451)"
         id="path44" />
    </clipPath>
    <clipPath
       clipPathUnits="userSpaceOnUse"
       id="clipPath48">
      <path
         d="M 0,0 H 582 V 744 H 0 Z"
         transform="translate(-15,-705.00002)"
         id="path48" />
    </clipPath>
    <clipPath
       clipPathUnits="userSpaceOnUse"
       id="clipPath50">
      <path
         d="M 0,0 H 582 V 744 H 0 Z"
         transform="translate(-15,-705.00002)"
         id="path50" />
    </clipPath>
  </defs>
  <g
     id="g1"
     transform="translate(-212.51817,-132.97145)">
    <g
       id="g218">
      <rect
         style="fill:#ffffff;stroke-width:1.02066"
         id="rect218"
         width="393.04623"
         height="228.75105"
         x="212.51817"
         y="132.97145" />
      <g
         id="group-MC0">
        <path
           id="path20"
           d="M 298.905,595.081 H 224.439 V 638 h 74.466 z"
           style="fill:#e6f7fd;fill-opacity:1;fill-rule:nonzero;stroke:none"
           transform="matrix(1.3333333,0,0,-1.3333333,0,992)" />
        <path
           id="path21"
           d="M 0,0 H -74.466 V 42.919 H 0 Z"
           style="fill:none;stroke:#231f20;stroke-width:0.75;stroke-linecap:butt;stroke-linejoin:miter;stroke-miterlimit:4;stroke-dasharray:none;stroke-opacity:1"
           transform="matrix(1.3333333,0,0,-1.3333333,398.54053,198.55853)" />
        <path
           id="path22"
           d="m 396.115,580.467 h -53.19 v 30.813 h 53.19 z"
           style="fill:#e6f7fd;fill-opacity:1;fill-rule:nonzero;stroke:none"
           transform="matrix(1.3333333,0,0,-1.3333333,0,992)" />
        <path
           id="path23"
           d="M 0,0 H -53.19 V 30.813 H 0 Z"
           style="fill:none;stroke:#231f20;stroke-width:0.75;stroke-linecap:butt;stroke-linejoin:miter;stroke-miterlimit:4;stroke-dasharray:none;stroke-opacity:1"
           transform="matrix(1.3333333,0,0,-1.3333333,528.15387,218.044)" />
        <path
           id="path24"
           d="M 0,0 H 27.653"
           style="fill:none;stroke:#231f20;stroke-width:0.5;stroke-linecap:butt;stroke-linejoin:miter;stroke-miterlimit:4;stroke-dasharray:none;stroke-opacity:1"
           transform="matrix(1.3333333,0,0,-1.3333333,255.26,154.22853)" />
        <path
           id="path25"
           d="m 0,0 -1.095,1.802 0.061,0.04 2.938,-1.166 C 2.927,0.45 3.951,0.226 4.975,0 3.951,-0.225 2.927,-0.45 1.904,-0.676 l -2.938,-1.166 -0.061,0.03 z"
           style="fill:#231f20;fill-opacity:1;fill-rule:nonzero;stroke:none"
           transform="matrix(1.3333333,0,0,-1.3333333,292.02227,154.22853)"
           clip-path="url(#clipPath26)" />
        <path
           id="path27"
           d="M 0,0 H 112.73"
           style="fill:none;stroke:#231f20;stroke-width:0.5;stroke-linecap:butt;stroke-linejoin:miter;stroke-miterlimit:4;stroke-dasharray:none;stroke-opacity:1"
           transform="matrix(1.3333333,0,0,-1.3333333,398.9012,154.22853)"
           clip-path="url(#clipPath28)" />
        <path
           id="path29"
           d="m 0,0 -1.096,1.802 0.062,0.04 2.937,-1.166 C 2.927,0.45 3.951,0.226 4.975,0 3.951,-0.225 2.927,-0.45 1.903,-0.676 l -2.937,-1.166 -0.062,0.03 z"
           style="fill:#231f20;fill-opacity:1;fill-rule:nonzero;stroke:none"
           transform="matrix(1.3333333,0,0,-1.3333333,549.1004,154.22853)"
           clip-path="url(#clipPath30)" />
        <path
           id="path31"
           d="M 0,0 H 15.919"
           style="fill:none;stroke:#231f20;stroke-width:0.5;stroke-linecap:butt;stroke-linejoin:miter;stroke-miterlimit:4;stroke-dasharray:none;stroke-opacity:1"
           transform="matrix(1.3333333,0,0,-1.3333333,270.90573,185.66467)"
           clip-path="url(#clipPath32)" />
        <path
           id="path33"
           d="M 0,0 -1.095,1.801 -1.034,1.842 1.904,0.676 C 2.927,0.449 3.951,0.225 4.975,0 3.951,-0.226 2.927,-0.451 1.904,-0.676 l -2.938,-1.167 -0.061,0.031 z"
           style="fill:#231f20;fill-opacity:1;fill-rule:nonzero;stroke:none"
           transform="matrix(1.3333333,0,0,-1.3333333,292.02227,185.66467)"
           clip-path="url(#clipPath34)" />
        <path
           id="path35"
           d="M 0,0 H 38.49"
           style="fill:none;stroke:#231f20;stroke-width:0.5;stroke-linecap:butt;stroke-linejoin:miter;stroke-miterlimit:4;stroke-dasharray:none;stroke-opacity:1"
           transform="matrix(1.3333333,0,0,-1.3333333,399.1252,185.66467)"
           clip-path="url(#clipPath36)" />
        <path
           id="path37"
           d="M 0,0 -1.095,1.801 -1.034,1.842 1.903,0.676 C 2.927,0.449 3.951,0.225 4.975,0 3.951,-0.226 2.927,-0.451 1.903,-0.676 l -2.937,-1.167 -0.061,0.031 z"
           style="fill:#231f20;fill-opacity:1;fill-rule:nonzero;stroke:none"
           transform="matrix(1.3333333,0,0,-1.3333333,450.33747,185.66467)"
           clip-path="url(#clipPath38)" />
        <path
           id="path39"
           d="M 0,0 H -29.656 V -15.79 H -67.403"
           style="fill:none;stroke:#231f20;stroke-width:0.5;stroke-linecap:butt;stroke-linejoin:miter;stroke-miterlimit:4;stroke-dasharray:none;stroke-opacity:1"
           transform="matrix(1.3333333,0,0,-1.3333333,450.44547,210.3548)"
           clip-path="url(#clipPath40)" />
        <path
           id="path41"
           d="m 0,0 -1.095,1.802 0.061,0.04 2.937,-1.166 C 2.927,0.45 3.951,0.226 4.975,0 3.951,-0.225 2.927,-0.45 1.903,-0.676 l -2.937,-1.166 -0.061,0.03 z"
           style="fill:#231f20;fill-opacity:1;fill-rule:nonzero;stroke:none"
           transform="matrix(1.3333333,0,0,-1.3333333,450.33747,210.3548)"
           clip-path="url(#clipPath42)" />
        <path
           id="path43"
           d="M 0,0 H 20.892 V -48.847 H -193.059 V 9.124"
           style="fill:none;stroke:#231f20;stroke-width:0.5;stroke-linecap:butt;stroke-linejoin:miter;stroke-miterlimit:4;stroke-dasharray:none;stroke-opacity:1"
           transform="matrix(1.3333333,0,0,-1.3333333,528.2332,197.50067)"
           clip-path="url(#clipPath44)" />
        <path
           id="path45"
           d="M 5.4257438,-5.5902859 H 5.2616813 c -0.058594,0.5976562 -0.7382813,-0.058594 -1.8398438,-0.058594 -1.6875,0 -3,1.21875 -3,2.9414063 0,1.88671871 1.4296875,2.83593746 3.0234375,2.83593746 0.5507813,0 1.4882813,-0.17578125 2.2617188,-1.25390626 l -0.140625,-0.1289062 c -0.5039063,0.62109371 -1.1132813,1.08984371 -2.0507813,1.08984371 -1.2773437,0 -2.1210937,-1.00781251 -2.1210937,-2.67187501 0,-1.265625 0.6679687,-2.5195312 2.109375,-2.5195312 0.9609375,0 1.6875,0.6210937 1.8984375,1.546875 h 0.1640625 z m 1.4296875,3.4453125 c 0,-0.7148438 0.2695312,-1.453125 1.078125,-1.453125 0.9726562,0 1.21875,1.1835937 1.21875,2.0390625 0,0.59765621 -0.2929688,1.39453121 -1.0078125,1.39453121 -0.9726563,0 -1.2890625,-1.20703121 -1.2890625,-1.98046871 z m 3.0703125,0.28125 c 0,-1.2070313 -0.703125,-1.9804688 -1.9335938,-1.9804688 -1.0898437,0 -1.9101562,0.9023438 -1.9101562,1.9804688 0,1.10156246 0.796875,1.94531246 1.9101562,1.94531246 1.0898438,0 1.9335938,-0.85546875 1.9335938,-1.94531246 z m 0.4511722,1.8632812125 h 1.875 V -0.16450469 c -0.421875,0 -0.597657,-0.0585938 -0.597657,-0.52734375 V -2.9418484 c 0.246094,-0.2109375 0.527344,-0.3984375 0.855469,-0.3984375 0.398438,0 0.703125,0.2226562 0.703125,0.7851562 v 1.86328126 c 0,0.46875 -0.175781,0.52734375 -0.597656,0.52734375 v 0.1640625025 h 1.875 V -0.16450469 c -0.410156,0 -0.574219,-0.0585938 -0.574219,-0.52734375 V -2.9418484 c 0.257813,-0.2578125 0.585938,-0.3984375 0.84375,-0.3984375 0.410156,0 0.703125,0.2226562 0.703125,0.7851562 v 1.86328126 c 0,0.46875 -0.164062,0.52734375 -0.585937,0.52734375 v 0.1640625025 h 1.875 V -0.16450469 c -0.410157,0 -0.585938,-0.0585938 -0.585938,-0.52734375 V -2.5316922 c 0,-0.9609375 -0.375,-1.3125 -1.007812,-1.3125 -0.398438,0 -0.75,0.2226563 -1.300782,0.6679688 -0.1875,-0.4453125 -0.457031,-0.6679688 -0.949218,-0.6679688 -0.503907,0 -0.878907,0.328125 -1.253907,0.6210938 v -0.6210938 c -0.386718,0.1289063 -0.832031,0.2929688 -1.277343,0.375 v 0.1523438 h 0.08203 c 0.375,0 0.492187,0.140625 0.492187,0.4453125 v 2.17968746 c 0,0.46875 -0.164062,0.52734375 -0.574218,0.52734375 z M 18.281213,-2.9770047 c 0,-0.070312 0.363281,-0.3632812 0.820312,-0.3632812 0.855469,0 1.230469,0.8554687 1.230469,1.59375 0,0.7382812 -0.316406,1.58203121 -1.171875,1.58203121 -0.539063,0 -0.878906,-0.31640625 -0.878906,-0.50390625 z m -0.703125,2.55468751 c 0.386718,0.31640625 0.867187,0.50390625 1.359375,0.50390625 1.03125,0 2.097656,-0.7734375 2.097656,-2.24999996 0,-0.8320313 -0.527344,-1.6757813 -1.429688,-1.6757813 -0.574218,0 -0.890625,0.2109375 -1.324218,0.5507813 v -2.4257813 c -0.375,0.09375 -0.832032,0.2578125 -1.253907,0.3398438 v 0.1640625 h 0.09375 c 0.222657,0 0.457032,0.046875 0.457032,0.3046875 z m 3.922851,-2.89453121 h 0.105469 c 0.375,0 0.492187,0.140625 0.492187,0.4453125 v 2.17968746 c 0,0.46875 -0.164062,0.52734375 -0.597656,0.52734375 v 0.1640625025 h 1.898438 V -0.16450469 c -0.433594,0 -0.597657,-0.0585938 -0.597657,-0.52734375 V -3.8441922 c -0.386718,0.1289063 -0.84375,0.2929688 -1.300781,0.375 z m 0.492188,-1.96875 c 0,0.234375 0.1875,0.421875 0.433593,0.421875 0.234375,0 0.433594,-0.1875 0.433594,-0.421875 0,-0.2460938 -0.199219,-0.4335938 -0.433594,-0.4335938 -0.246093,0 -0.433593,0.1875 -0.433593,0.4335938 z m 1.731445,5.2851562125 h 1.875 V -0.16450469 c -0.421875,0 -0.585938,-0.0585938 -0.585938,-0.52734375 V -2.9418484 c 0.234375,-0.2109375 0.515625,-0.3984375 0.84375,-0.3984375 0.410157,0 0.703125,0.2226562 0.703125,0.7851562 v 1.86328126 c 0,0.46875 -0.164062,0.52734375 -0.585937,0.52734375 v 0.1640625025 h 1.863281 V -0.16450469 c -0.398437,0 -0.574219,-0.0585938 -0.574219,-0.52734375 V -2.5316922 c 0,-0.9609375 -0.375,-1.3125 -1.007812,-1.3125 -0.503906,0 -0.867188,0.328125 -1.242188,0.6210938 v -0.6210938 c -0.398437,0.1289063 -0.84375,0.2929688 -1.289062,0.375 v 0.1523438 h 0.09375 c 0.363281,0 0.492187,0.140625 0.492187,0.4453125 v 2.17968746 c 0,0.46875 -0.175781,0.52734375 -0.585937,0.52734375 z M 29.0859,-0.99653594 c 0,-0.72656246 0.925781,-0.97265626 1.464844,-1.19531246 v 1.37109371 c 0,0.19921875 -0.433594,0.50390625 -0.785156,0.50390625 -0.445313,0 -0.679688,-0.24609375 -0.679688,-0.6796875 z m 2.167969,-1.44140626 c 0,-0.9023437 -0.328125,-1.40625 -1.3125,-1.40625 -0.515625,0 -1.382813,0.2460938 -1.382813,0.8789063 0,0.2226562 0.105469,0.3984375 0.339844,0.3984375 0.257813,0 0.363281,-0.1992188 0.363281,-0.421875 0,-0.09375 -0.02344,-0.1757813 -0.01172,-0.2695313 0.01172,-0.2695312 0.410156,-0.3398437 0.609375,-0.3398437 0.597656,0 0.691406,0.4335937 0.691406,0.7851562 v 0.421875 c -0.363281,0.1054688 -0.925781,0.2578125 -1.324219,0.46875 -0.46875,0.2460938 -0.855469,0.5859375 -0.855469,1.12500001 0,0.50390625 0.398438,0.87890625 0.902344,0.87890625 0.492188,0 0.914063,-0.24609375 1.289063,-0.52734375 0.01172,0.2578125 0.1875,0.52734375 0.46875,0.52734375 0.386718,0 0.644531,-0.1875 0.84375,-0.50390625 l -0.09375,-0.0820313 c -0.07031,0.0820313 -0.175782,0.1875 -0.304688,0.1875 -0.210937,0 -0.222656,-0.2109375 -0.222656,-0.375 z m 1.514648,-1.0898437 v 2.5078125 c 0,0.56249996 0.08203,1.10156246 0.761719,1.10156246 0.457031,0 0.738281,-0.29296875 1.007812,-0.64453125 l -0.140625,-0.0820313 c -0.117187,0.12890625 -0.316406,0.28125 -0.503906,0.28125 -0.1875,0 -0.421875,-0.0820313 -0.421875,-0.66796881 V -3.527786 h 0.890625 V -3.762161 H 33.471642 V -4.8988797 H 33.30758 c -0.222657,0.5390625 -0.632813,0.9960938 -1.113282,1.265625 v 0.1054688 z m 2.06836,0.2109375 h 0.105468 c 0.375,0 0.492188,0.140625 0.492188,0.4453125 v 2.17968746 c 0,0.46875 -0.164063,0.52734375 -0.597656,0.52734375 v 0.1640625025 h 1.898437 V -0.16450469 c -0.433594,0 -0.597656,-0.0585938 -0.597656,-0.52734375 V -3.8441922 c -0.386719,0.1289063 -0.84375,0.2929688 -1.300781,0.375 z m 0.492187,-1.96875 c 0,0.234375 0.1875,0.421875 0.433594,0.421875 0.234375,0 0.433594,-0.1875 0.433594,-0.421875 0,-0.2460938 -0.199219,-0.4335938 -0.433594,-0.4335938 -0.246094,0 -0.433594,0.1875 -0.433594,0.4335938 z m 2.645508,3.140625 c 0,-0.7148438 0.269531,-1.453125 1.078125,-1.453125 0.972656,0 1.21875,1.1835937 1.21875,2.0390625 0,0.59765621 -0.292969,1.39453121 -1.007813,1.39453121 -0.972656,0 -1.289062,-1.20703121 -1.289062,-1.98046871 z m 3.070312,0.28125 c 0,-1.2070313 -0.703125,-1.9804688 -1.933593,-1.9804688 -1.089844,0 -1.910157,0.9023438 -1.910157,1.9804688 0,1.10156246 0.796875,1.94531246 1.910157,1.94531246 1.089843,0 1.933593,-0.85546875 1.933593,-1.94531246 z m 0.462891,1.8632812125 h 1.875 V -0.16450469 c -0.421875,0 -0.585937,-0.0585938 -0.585937,-0.52734375 V -2.9418484 c 0.234375,-0.2109375 0.515625,-0.3984375 0.84375,-0.3984375 0.410156,0 0.703125,0.2226562 0.703125,0.7851562 v 1.86328126 c 0,0.46875 -0.164063,0.52734375 -0.585938,0.52734375 v 0.1640625025 h 1.863281 V -0.16450469 c -0.398437,0 -0.574218,-0.0585938 -0.574218,-0.52734375 V -2.5316922 c 0,-0.9609375 -0.375,-1.3125 -1.007813,-1.3125 -0.503906,0 -0.867187,0.328125 -1.242187,0.6210938 v -0.6210938 c -0.398438,0.1289063 -0.84375,0.2929688 -1.289063,0.375 v 0.1523438 h 0.09375 c 0.363281,0 0.492188,0.140625 0.492188,0.4453125 v 2.17968746 c 0,0.46875 -0.175782,0.52734375 -0.585938,0.52734375 z M 46.869103,-0.99653594 c 0,-0.72656246 0.925781,-0.97265626 1.464844,-1.19531246 v 1.37109371 c 0,0.19921875 -0.433594,0.50390625 -0.785156,0.50390625 -0.445313,0 -0.679688,-0.24609375 -0.679688,-0.6796875 z m 2.167969,-1.44140626 c 0,-0.9023437 -0.328125,-1.40625 -1.3125,-1.40625 -0.515625,0 -1.382813,0.2460938 -1.382813,0.8789063 0,0.2226562 0.105469,0.3984375 0.339844,0.3984375 0.257813,0 0.363281,-0.1992188 0.363281,-0.421875 0,-0.09375 -0.02344,-0.1757813 -0.01172,-0.2695313 0.01172,-0.2695312 0.410156,-0.3398437 0.609375,-0.3398437 0.597656,0 0.691406,0.4335937 0.691406,0.7851562 v 0.421875 c -0.363281,0.1054688 -0.925781,0.2578125 -1.324219,0.46875 -0.46875,0.2460938 -0.855469,0.5859375 -0.855469,1.12500001 0,0.50390625 0.398438,0.87890625 0.902344,0.87890625 0.492188,0 0.914063,-0.24609375 1.289063,-0.52734375 0.01172,0.2578125 0.1875,0.52734375 0.46875,0.52734375 0.386718,0 0.644531,-0.1875 0.84375,-0.50390625 l -0.09375,-0.0820313 c -0.07031,0.0820313 -0.175782,0.1875 -0.304688,0.1875 -0.210937,0 -0.222656,-0.2109375 -0.222656,-0.375 z m 1.517578,1.74609376 c 0,0.46875 -0.164062,0.52734375 -0.597656,0.52734375 v 0.1640625025 h 1.898437 V -0.16450469 c -0.433593,0 -0.597656,-0.0585938 -0.597656,-0.52734375 V -5.7191922 c -0.339844,0.1054688 -0.820312,0.2578125 -1.253906,0.3398438 v 0.1640625 h 0.09375 c 0.222656,0 0.457031,0.046875 0.457031,0.3046875 z M 17.229455,5.1558078 c -1.089844,0 -1.863282,0.8554688 -1.863282,1.921875 0,1.7109375 1.066407,2.0039063 1.582032,2.0039063 0.808593,0 1.242187,-0.4921875 1.640625,-1.2773438 l -0.152344,-0.09375 c -0.222656,0.421875 -0.644531,0.7617188 -1.148438,0.7617188 -0.867187,0 -1.265625,-0.8789063 -1.265625,-1.6289063 0,-0.6328125 0.304688,-1.3945312 1.042969,-1.3945312 0.269531,0 0.539063,0.1289062 0.539063,0.4101562 0,0.2460938 0.152343,0.5039063 0.421875,0.5039063 0.234375,0 0.410156,-0.1757813 0.410156,-0.4335938 0,-0.5507812 -0.773438,-0.7734375 -1.207031,-0.7734375 z m 1.605468,0.5273438 h 0.105469 c 0.375,0 0.492188,0.140625 0.492188,0.4453125 v 2.1796875 c 0,0.46875 -0.164063,0.5273437 -0.597657,0.5273437 v 0.1640625 h 1.898438 V 8.8354953 c -0.433594,0 -0.597656,-0.058594 -0.597656,-0.5273437 V 5.1558078 c -0.386719,0.1289063 -0.84375,0.2929688 -1.300782,0.375 z m 0.492188,-1.96875 c 0,0.234375 0.1875,0.421875 0.433594,0.421875 0.234375,0 0.433593,-0.1875 0.433593,-0.421875 0,-0.2460938 -0.199218,-0.4335938 -0.433593,-0.4335938 -0.246094,0 -0.433594,0.1875 -0.433594,0.4335938 z m 1.734375,5.2851562 h 2.015625 V 8.8354953 c -0.585938,0 -0.679688,-0.082031 -0.679688,-0.7148437 V 6.2573703 c 0,-0.046875 0.316407,-0.5507812 0.609375,-0.5507812 0.09375,0 0.152344,0.046875 0.210938,0.1054687 0.07031,0.058594 0.140625,0.1171875 0.269531,0.1171875 0.199219,0 0.386719,-0.1523437 0.386719,-0.3632812 0,-0.2695313 -0.234375,-0.4101563 -0.46875,-0.4101563 -0.398438,0 -0.773438,0.4570313 -1.007813,0.7148438 V 5.1558078 h -0.03516 c -0.410156,0.140625 -0.855469,0.2695313 -1.300781,0.3867188 v 0.1640625 c 0.5625,0 0.632812,0.070312 0.632812,0.6445312 v 1.7578125 c 0,0.5859375 -0.02344,0.703125 -0.632812,0.7265625 z m 5.056641,-3.84375 c -1.089844,0 -1.863282,0.8554688 -1.863282,1.921875 0,1.7109375 1.066407,2.0039063 1.582032,2.0039063 0.808593,0 1.242187,-0.4921875 1.640625,-1.2773438 l -0.152344,-0.09375 c -0.222656,0.421875 -0.644531,0.7617188 -1.148438,0.7617188 -0.867187,0 -1.265625,-0.8789063 -1.265625,-1.6289063 0,-0.6328125 0.304688,-1.3945312 1.042969,-1.3945312 0.269531,0 0.539063,0.1289062 0.539063,0.4101562 0,0.2460938 0.152343,0.5039063 0.421875,0.5039063 0.234375,0 0.410156,-0.1757813 0.410156,-0.4335938 0,-0.5507812 -0.773438,-0.7734375 -1.207031,-0.7734375 z m 5.144531,0 -1.277344,0.082031 v 0.1640625 c 0.257813,0 0.574219,0.035156 0.574219,0.421875 v 2.25 c -0.09375,0.1875 -0.433594,0.5039062 -0.855469,0.5039062 -0.46875,0 -0.691406,-0.3164062 -0.691406,-0.75 v -2.671875 l -1.289063,0.082031 V 5.401901 c 0.269532,0 0.585938,0.035156 0.585938,0.421875 v 2.2617187 c 0,0.6679688 0.445312,0.9960938 1.089844,0.9960938 0.515625,0 0.84375,-0.3164063 1.183593,-0.65625 v 0.65625 h 0.03516 C 31.004848,8.9409635 31.426723,8.8354947 31.83688,8.730026 V 8.5659641 c -0.292969,-0.011719 -0.574219,-0.046875 -0.574219,-0.375 z m 0.908203,0.5273438 h 0.105469 c 0.375,0 0.492187,0.140625 0.492187,0.4453125 v 2.1796875 c 0,0.46875 -0.164062,0.5273437 -0.597656,0.5273437 v 0.1640625 h 1.898437 V 8.8354953 c -0.433593,0 -0.597656,-0.058594 -0.597656,-0.5273437 V 5.1558078 c -0.386719,0.1289063 -0.84375,0.2929688 -1.300781,0.375 z m 0.492187,-1.96875 c 0,0.234375 0.1875,0.421875 0.433594,0.421875 0.234375,0 0.433594,-0.1875 0.433594,-0.421875 0,-0.2460938 -0.199219,-0.4335938 -0.433594,-0.4335938 -0.246094,0 -0.433594,0.1875 -0.433594,0.4335938 z m 2.332032,1.7578125 v 2.5078125 c 0,0.5625 0.08203,1.1015625 0.761718,1.1015625 0.457032,0 0.738282,-0.2929688 1.007813,-0.6445313 l -0.140625,-0.082031 c -0.117188,0.1289062 -0.316406,0.28125 -0.503906,0.28125 -0.1875,0 -0.421875,-0.082031 -0.421875,-0.6679688 V 5.4722141 H 36.58883 V 5.2378391 H 35.698205 V 4.1011203 h -0.164063 c -0.222656,0.5390625 -0.632812,0.9960938 -1.113281,1.265625 v 0.1054688 z m 82.47656,19.6962889 h 2.58985 v -0.164062 c -0.63282,0 -0.85547,-0.128907 -0.85547,-0.785157 v -1.792968 h 1.26562 c 0.57422,0 0.75,0.234375 0.77344,0.808593 h 0.15234 v -1.910156 h -0.15234 c -0.0234,0.527344 -0.22266,0.761719 -0.77344,0.761719 h -1.26562 v -1.582031 c 0,-0.398438 0.0117,-0.527344 0.33984,-0.527344 h 1.55859 c 0.63282,0 0.82032,0.375 0.9375,0.949219 h 0.16407 l -0.0937,-1.277344 h -4.64063 v 0.152344 c 0.64453,0 0.86719,0.128906 0.86719,0.785156 v 3.632812 c 0,0.65625 -0.22266,0.785157 -0.86719,0.785157 z m 5.57813,-0.691406 c 0,0.46875 -0.16407,0.527344 -0.59766,0.527344 v 0.164062 h 1.89844 v -0.164062 c -0.4336,0 -0.59766,-0.05859 -0.59766,-0.527344 v -5.027344 c -0.33984,0.105469 -0.82031,0.257813 -1.2539,0.339844 v 0.164062 h 0.0937 c 0.22265,0 0.45703,0.04687 0.45703,0.304688 z m 1.62597,-2.625 h 0.10547 c 0.375,0 0.49219,0.140625 0.49219,0.445312 v 2.179688 c 0,0.46875 -0.16406,0.527344 -0.59766,0.527344 v 0.164062 h 1.89844 v -0.164062 c -0.43359,0 -0.59765,-0.05859 -0.59765,-0.527344 v -3.152344 c -0.38672,0.128906 -0.84375,0.292969 -1.30079,0.375 z m 0.49219,-1.96875 c 0,0.234375 0.1875,0.421875 0.4336,0.421875 0.23437,0 0.43359,-0.1875 0.43359,-0.421875 0,-0.246094 -0.19922,-0.433594 -0.43359,-0.433594 -0.2461,0 -0.4336,0.1875 -0.4336,0.433594 z m 2.96192,2.519531 c 0,-0.152344 0.35156,-0.574219 0.86718,-0.574219 0.87891,0 1.1836,0.878907 1.1836,1.628907 0,0.667968 -0.32813,1.546875 -1.13672,1.546875 -0.32813,0 -0.78516,-0.175782 -0.91406,-0.527344 z m -0.70313,3.972656 c 0,0.503907 -0.23437,0.503907 -0.57422,0.503907 v 0.164062 h 1.92188 v -0.164062 c -0.38672,0 -0.64453,0 -0.64453,-0.445313 v -1.453125 c 0.25781,0.210938 0.58593,0.269531 0.91406,0.269531 1.18359,0 1.83984,-1.183593 1.83984,-2.191406 0,-0.9375 -0.57422,-1.734375 -1.54687,-1.734375 -0.49219,0 -0.92578,0.304688 -1.19532,0.679688 h -0.0117 v -0.679688 h -0.0352 c -0.38672,0.222656 -0.80859,0.398438 -1.24219,0.503906 v 0.152344 h 0.17578 c 0.35157,0 0.39844,0.117188 0.39844,0.585938 z m 6.06445,-2.824218 v -0.539063 h -1.94531 v 0.539063 z m 0.50977,-1.910157 h 0.59766 v 2.835938 c 0,0.46875 -0.17579,0.527344 -0.59766,0.527344 v 0.164062 h 1.88672 v -0.164062 c -0.42188,0 -0.58594,-0.05859 -0.58594,-0.527344 v -2.835938 h 1.54688 v 2.835938 c 0,0.46875 -0.16407,0.527344 -0.58594,0.527344 v 0.164062 h 1.88672 v -0.164062 c -0.42188,0 -0.59766,-0.05859 -0.59766,-0.527344 v -4.96875 l -0.70312,0.269531 c -0.1875,-0.128906 -0.4336,-0.257812 -0.8086,-0.257812 -1.17187,0 -1.4414,0.949218 -1.4414,1.886718 h -0.59766 z m 1.30078,-0.234375 v -0.515625 c 0,-0.351562 0,-1.136718 0.48047,-1.136718 0.16406,0 0.26953,0.140625 0.35156,0.269531 0.14063,0.234375 0.25781,0.339844 0.4336,0.339844 0.0937,0 0.22265,-0.02344 0.26953,-0.128907 h 0.0117 v 1.171875 z m 4.07227,1.617188 c 0,-0.714844 0.26953,-1.453125 1.07812,-1.453125 0.97266,0 1.21875,1.183594 1.21875,2.039062 0,0.597657 -0.29297,1.394532 -1.00781,1.394532 -0.97266,0 -1.28906,-1.207032 -1.28906,-1.980469 z m 3.07031,0.28125 c 0,-1.207031 -0.70313,-1.980469 -1.9336,-1.980469 -1.08984,0 -1.91015,0.902344 -1.91015,1.980469 0,1.101562 0.79687,1.945312 1.91015,1.945312 1.08985,0 1.9336,-0.855468 1.9336,-1.945312 z m 1.69336,-0.902344 c 0,-0.152344 0.35156,-0.574219 0.86719,-0.574219 0.8789,0 1.18359,0.878907 1.18359,1.628907 0,0.667968 -0.32813,1.546875 -1.13672,1.546875 -0.32812,0 -0.78516,-0.175782 -0.91406,-0.527344 z m -0.70313,3.972656 c 0,0.503907 -0.23437,0.503907 -0.57422,0.503907 v 0.164062 h 1.92188 v -0.164062 c -0.38672,0 -0.64453,0 -0.64453,-0.445313 v -1.453125 c 0.25781,0.210938 0.58594,0.269531 0.91406,0.269531 1.18359,0 1.83984,-1.183593 1.83984,-2.191406 0,-0.9375 -0.57421,-1.734375 -1.54687,-1.734375 -0.49219,0 -0.92578,0.304688 -1.19531,0.679688 h -0.0117 v -0.679688 h -0.0352 c -0.38672,0.222656 -0.80859,0.398438 -1.24219,0.503906 v 0.152344 h 0.17579 c 0.35156,0 0.39843,0.117188 0.39843,0.585938 z m 6.2666,-5.050781 h -0.14062 c -0.0117,0.09375 -0.0703,0.128906 -0.15234,0.128906 -0.11719,0 -0.2461,-0.03516 -0.36329,-0.05859 -0.1289,-0.03516 -0.25781,-0.07031 -0.39843,-0.07031 -0.59766,0 -1.1836,0.339844 -1.1836,0.996094 0,1.230469 1.99219,1.21875 1.99219,2.132812 0,0.375 -0.35156,0.550782 -0.69141,0.550782 -0.58593,0 -1.05468,-0.527344 -1.0664,-1.089844 h -0.1875 l 0.0469,1.253906 h 0.16407 c 0.0117,-0.05859 0,-0.117187 0.11718,-0.117187 0.12891,0 0.57422,0.199218 1.00782,0.199218 0.59765,0 1.16015,-0.398437 1.16015,-1.160156 0,-1.160156 -1.98047,-1.207031 -1.98047,-2.039062 0,-0.316407 0.29297,-0.480469 0.60938,-0.480469 0.57422,0 0.79687,0.398437 0.94922,0.890625 h 0.15234 z M -69.298866,-8.1830594 h 2.589844 v -0.1640625 c -0.644531,0 -0.867187,-0.1289062 -0.867187,-0.7851562 v -3.6328129 c 0,-0.65625 0.222656,-0.785156 0.867187,-0.785156 v -0.152344 h -2.589844 v 0.152344 c 0.632813,0 0.855469,0.128906 0.855469,0.785156 v 3.6328129 c 0,0.65625 -0.222656,0.7851562 -0.855469,0.7851562 z m 3.00586,0 h 1.875 v -0.1640625 c -0.421875,0 -0.585938,-0.058594 -0.585938,-0.5273437 v -2.2500004 c 0.234375,-0.210937 0.515625,-0.398437 0.84375,-0.398437 0.410157,0 0.703125,0.222656 0.703125,0.785156 v 1.8632814 c 0,0.46875 -0.164062,0.5273437 -0.585937,0.5273437 v 0.1640625 h 1.863281 v -0.1640625 c -0.398437,0 -0.574219,-0.058594 -0.574219,-0.5273437 v -1.8398434 c 0,-0.960938 -0.375,-1.3125 -1.007812,-1.3125 -0.503906,0 -0.867188,0.328125 -1.242188,0.621093 v -0.621093 c -0.398437,0.128906 -0.84375,0.292968 -1.289062,0.375 v 0.152343 h 0.09375 c 0.363281,0 0.492187,0.140625 0.492187,0.445313 v 2.1796874 c 0,0.46875 -0.175781,0.5273437 -0.585937,0.5273437 z m 5.680664,-2.7656246 c 0,-0.152344 0.351562,-0.574219 0.867187,-0.574219 0.878907,0 1.183594,0.878906 1.183594,1.6289061 0,0.6679688 -0.328125,1.546875 -1.136719,1.546875 -0.328125,0 -0.785156,-0.1757812 -0.914062,-0.5273437 z m -0.703125,3.9726559 c 0,0.5039062 -0.234375,0.5039062 -0.574219,0.5039062 v 0.1640625 h 1.921875 v -0.1640625 c -0.386719,0 -0.644531,0 -0.644531,-0.4453125 v -1.453125 c 0.257812,0.2109375 0.585937,0.2695313 0.914062,0.2695313 1.183594,0 1.839844,-1.1835938 1.839844,-2.1914059 0,-0.9375 -0.574219,-1.734375 -1.546875,-1.734375 -0.492187,0 -0.925781,0.304687 -1.195312,0.679687 h -0.01172 v -0.679687 h -0.03516 c -0.386719,0.222656 -0.808594,0.398437 -1.242188,0.503906 v 0.152344 h 0.175781 c 0.351563,0 0.398438,0.117187 0.398438,0.585937 z m 7.458984,-5.0507809 -1.277344,0.08203 v 0.164062 c 0.257813,0 0.574219,0.03516 0.574219,0.421875 v 2.2500004 c -0.09375,0.1875 -0.433594,0.5039062 -0.855469,0.5039062 -0.46875,0 -0.691406,-0.3164062 -0.691406,-0.75 V -12.02681 l -1.289062,0.08203 v 0.164062 c 0.269531,0 0.585937,0.03516 0.585937,0.421875 v 2.2617191 c 0,0.6679688 0.445313,0.9960938 1.089844,0.9960938 0.515625,0 0.84375,-0.3164063 1.183594,-0.65625 v 0.65625 h 0.03516 c 0.386719,-0.140625 0.808594,-0.2460938 1.21875,-0.3515625 v -0.1640625 c -0.292969,-0.011719 -0.574219,-0.046875 -0.574219,-0.375 z m 1.50586,0.316406 v 2.5078124 c 0,0.5625 0.08203,1.1015625 0.761718,1.1015625 0.457032,0 0.738282,-0.2929688 1.007813,-0.6445313 l -0.140625,-0.082031 c -0.117188,0.1289062 -0.316406,0.28125 -0.503906,0.28125 -0.1875,0 -0.421875,-0.082031 -0.421875,-0.6679688 v -2.4960938 h 0.890625 v -0.234375 h -0.890625 v -1.136719 h -0.164063 c -0.222656,0.539063 -0.632812,0.996094 -1.113281,1.265625 v 0.105469 z m 4.409179,-0.316406 h -0.140625 c -0.01172,0.09375 -0.07031,0.128906 -0.152343,0.128906 -0.117188,0 -0.246094,-0.03516 -0.363282,-0.05859 -0.128906,-0.03516 -0.257812,-0.07031 -0.398437,-0.07031 -0.597656,0 -1.183594,0.339843 -1.183594,0.996093 0,1.2304691 1.992188,1.2187504 1.992188,2.1328129 0,0.375 -0.351563,0.5507812 -0.691407,0.5507812 -0.585937,0 -1.054687,-0.5273437 -1.066406,-1.0898437 h -0.1875 l 0.04687,1.2539062 h 0.164063 c 0.01172,-0.058594 0,-0.1171875 0.117187,-0.1171875 0.128906,0 0.574219,0.1992188 1.007813,0.1992188 0.597656,0 1.160156,-0.3984375 1.160156,-1.1601563 0,-1.1601566 -1.980469,-1.2070316 -1.980469,-2.0390626 0,-0.316406 0.292969,-0.480469 0.609375,-0.480469 0.574219,0 0.796875,0.398438 0.949219,0.890625 h 0.152344 z m 235.122074,3.6796871 c -1.48828,0 -1.94532,-1.3359375 -1.94532,-2.6718751 0,-1.3125 0.57422,-2.519531 1.94532,-2.519531 1.35937,0 1.93359,1.207031 1.93359,2.519531 0,1.3359376 -0.45703,2.6718751 -1.93359,2.6718751 z m 0,-5.4843751 c -1.6875,0 -2.91797,1.183594 -2.91797,2.929688 0,1.6874996 1.2539,2.8476559 2.91797,2.8476559 1.65234,0 2.90625,-1.1601563 2.90625,-2.8476559 0,-1.746094 -1.23047,-2.929688 -2.90625,-2.929688 z m 7.02539,1.804688 -1.27735,0.08203 v 0.164062 c 0.25782,0 0.57422,0.03516 0.57422,0.421875 v 2.2500004 c -0.0937,0.1875 -0.43359,0.5039062 -0.85547,0.5039062 -0.46875,0 -0.6914,-0.3164062 -0.6914,-0.75 V -12.02681 l -1.28907,0.08203 v 0.164062 c 0.26954,0 0.58594,0.03516 0.58594,0.421875 v 2.2617191 c 0,0.6679688 0.44531,0.9960938 1.08985,0.9960938 0.51562,0 0.84375,-0.3164063 1.18359,-0.65625 v 0.65625 h 0.0352 c 0.38671,-0.140625 0.80859,-0.2460938 1.21875,-0.3515625 v -0.1640625 c -0.29297,-0.011719 -0.57422,-0.046875 -0.57422,-0.375 z m 1.50879,0.316406 v 2.5078124 c 0,0.5625 0.082,1.1015625 0.76171,1.1015625 0.45704,0 0.73829,-0.2929688 1.00782,-0.6445313 l -0.14063,-0.082031 c -0.11719,0.1289062 -0.3164,0.28125 -0.5039,0.28125 -0.1875,0 -0.42188,-0.082031 -0.42188,-0.6679688 v -2.4960938 h 0.89063 v -0.234375 h -0.89063 v -1.136719 h -0.16406 c -0.22266,0.539063 -0.63281,0.996094 -1.11328,1.265625 v 0.105469 z m 3.29589,0.761719 c 0,-0.152344 0.35157,-0.574219 0.86719,-0.574219 0.87891,0 1.1836,0.878906 1.1836,1.6289061 0,0.6679688 -0.32813,1.546875 -1.13672,1.546875 -0.32813,0 -0.78516,-0.1757812 -0.91407,-0.5273437 z m -0.70312,3.9726559 c 0,0.5039062 -0.23438,0.5039062 -0.57422,0.5039062 v 0.1640625 h 1.92188 v -0.1640625 c -0.38672,0 -0.64454,0 -0.64454,-0.4453125 v -1.453125 c 0.25782,0.2109375 0.58594,0.2695313 0.91407,0.2695313 1.18359,0 1.83984,-1.1835938 1.83984,-2.1914059 0,-0.9375 -0.57422,-1.734375 -1.54687,-1.734375 -0.49219,0 -0.92579,0.304687 -1.19532,0.679687 h -0.0117 v -0.679687 h -0.0352 c -0.38672,0.222656 -0.8086,0.398437 -1.24219,0.503906 v 0.152344 h 0.17578 c 0.35156,0 0.39844,0.117187 0.39844,0.585937 z m 7.45898,-5.0507809 -1.27734,0.08203 v 0.164062 c 0.25781,0 0.57422,0.03516 0.57422,0.421875 v 2.2500004 c -0.0937,0.1875 -0.43359,0.5039062 -0.85547,0.5039062 -0.46875,0 -0.69141,-0.3164062 -0.69141,-0.75 V -12.02681 l -1.28906,0.08203 v 0.164062 c 0.26953,0 0.58594,0.03516 0.58594,0.421875 v 2.2617191 c 0,0.6679688 0.44531,0.9960938 1.08984,0.9960938 0.51563,0 0.84375,-0.3164063 1.1836,-0.65625 v 0.65625 h 0.0351 c 0.38672,-0.140625 0.8086,-0.2460938 1.21875,-0.3515625 v -0.1640625 c -0.29297,-0.011719 -0.57422,-0.046875 -0.57422,-0.375 z m 1.50586,0.316406 v 2.5078124 c 0,0.5625 0.082,1.1015625 0.76172,1.1015625 0.45703,0 0.73828,-0.2929688 1.00781,-0.6445313 l -0.14062,-0.082031 c -0.11719,0.1289062 -0.31641,0.28125 -0.50391,0.28125 -0.1875,0 -0.42187,-0.082031 -0.42187,-0.6679688 v -2.4960938 h 0.89062 v -0.234375 h -0.89062 v -1.136719 h -0.16406 c -0.22266,0.539063 -0.63282,0.996094 -1.11329,1.265625 v 0.105469 z m 4.41211,-0.316406 h -0.14062 c -0.0117,0.09375 -0.0703,0.128906 -0.15235,0.128906 -0.11718,0 -0.24609,-0.03516 -0.36328,-0.05859 -0.1289,-0.03516 -0.25781,-0.07031 -0.39843,-0.07031 -0.59766,0 -1.1836,0.339843 -1.1836,0.996093 0,1.2304691 1.99219,1.2187504 1.99219,2.1328129 0,0.375 -0.35156,0.5507812 -0.69141,0.5507812 -0.58593,0 -1.05468,-0.5273437 -1.0664,-1.0898437 h -0.1875 l 0.0469,1.2539062 h 0.16406 c 0.0117,-0.058594 0,-0.1171875 0.11719,-0.1171875 0.12891,0 0.57422,0.1992188 1.00781,0.1992188 0.59766,0 1.16016,-0.3984375 1.16016,-1.1601563 0,-1.1601566 -1.98047,-1.2070316 -1.98047,-2.0390626 0,-0.316406 0.29297,-0.480469 0.60938,-0.480469 0.57422,0 0.79687,0.398438 0.94922,0.890625 h 0.15234 z M -6.6064828,44.721238 h -0.1640625 c -0.058594,0.597656 -0.7382813,-0.05859 -1.8398438,-0.05859 -1.6874999,0 -2.9999999,1.21875 -2.9999999,2.941406 0,1.886719 1.429687,2.835938 3.0234374,2.835938 0.5507813,0 1.4882813,-0.175782 2.2617188,-1.253907 l -0.140625,-0.128906 c -0.5039063,0.621094 -1.1132813,1.089844 -2.0507813,1.089844 -1.2773437,0 -2.1210939,-1.007813 -2.1210939,-2.671875 0,-1.265625 0.6679689,-2.519531 2.1093752,-2.519531 0.9609375,0 1.6875,0.621093 1.8984375,1.546875 h 0.1640625 z m 1.1132812,4.898437 c 0,0.46875 -0.1640625,0.527344 -0.5976562,0.527344 v 0.164062 h 1.8984375 v -0.164062 c -0.4335938,0 -0.5976563,-0.05859 -0.5976563,-0.527344 v -5.027344 c -0.3398437,0.105469 -0.8203125,0.257813 -1.2539062,0.339844 v 0.164063 h 0.09375 c 0.2226562,0 0.4570312,0.04687 0.4570312,0.304687 z m 2.5400391,-1.453125 c 0,-0.714844 0.2695313,-1.453125 1.078125,-1.453125 0.97265625,0 1.21875,1.183594 1.21875,2.039063 0,0.597656 -0.29296875,1.394531 -1.0078125,1.394531 -0.9726562,0 -1.2890625,-1.207031 -1.2890625,-1.980469 z M 0.11715,48.4478 c 0,-1.207031 -0.703125,-1.980469 -1.9335937,-1.980469 -1.0898438,0 -1.9101563,0.902344 -1.9101563,1.980469 0,1.101563 0.796875,1.945313 1.9101563,1.945313 1.0898437,0 1.9335937,-0.855469 1.9335937,-1.945313 z m 2.4082031,-1.980469 c -1.0898437,0 -1.86328122,0.855469 -1.86328122,1.921875 0,1.710938 1.06640622,2.003907 1.58203122,2.003907 0.8085938,0 1.2421875,-0.492188 1.640625,-1.277344 l -0.1523437,-0.09375 c -0.2226563,0.421875 -0.6445313,0.761719 -1.1484375,0.761719 -0.8671875,0 -1.265625,-0.878907 -1.265625,-1.628907 0,-0.632812 0.3046875,-1.394531 1.0429687,-1.394531 0.2695313,0 0.5390625,0.128906 0.5390625,0.410156 0,0.246094 0.1523438,0.503907 0.421875,0.503907 0.234375,0 0.4101563,-0.175782 0.4101563,-0.433594 0,-0.550781 -0.7734375,-0.773438 -1.2070313,-0.773438 z m 2.1914063,3.152344 c 0,0.46875 -0.1757813,0.527344 -0.5859375,0.527344 v 0.164062 h 1.875 v -0.164062 c -0.421875,0 -0.5859375,-0.05859 -0.5859375,-0.527344 v -1.195312 h 0.058594 l 0.8789063,1.03125 c 0.2226562,0.269531 0.3984375,0.503906 0.3984375,0.574218 0,0.117188 -0.1289063,0.117188 -0.375,0.117188 v 0.164062 h 1.8164062 v -0.164062 c -0.328125,0 -0.5625,-0.199219 -0.9609375,-0.679688 l -1.1953125,-1.441406 0.8671875,-0.84375 c 0.28125,-0.292969 0.65625,-0.46875 1.078125,-0.46875 V 46.549363 H 6.2284781 v 0.164062 c 0.1054688,0 0.4453125,0.02344 0.4453125,0.175781 0,0.05859 -0.023437,0.140625 -0.140625,0.269532 l -1.0546875,1.019531 h -0.058594 v -3.585938 c -0.2929688,0.07031 -0.8320313,0.257813 -1.2539063,0.339844 v 0.164063 h 0.09375 c 0.2226563,0 0.4570313,0.04687 0.4570313,0.304687 z m 7.0927736,-2.074219 c 0,-0.152343 0.351562,-0.574218 0.867187,-0.574218 0.878907,0 1.183594,0.878906 1.183594,1.628906 0,0.667969 -0.328125,1.546875 -1.136719,1.546875 -0.328125,0 -0.785156,-0.175781 -0.914062,-0.527344 z m -0.703125,3.972657 c 0,0.503906 -0.234375,0.503906 -0.574219,0.503906 v 0.164062 h 1.921875 v -0.164062 c -0.386719,0 -0.644531,0 -0.644531,-0.445313 v -1.453125 c 0.257812,0.210938 0.585937,0.269532 0.914062,0.269532 1.183594,0 1.839844,-1.183594 1.839844,-2.191407 0,-0.9375 -0.574219,-1.734375 -1.546875,-1.734375 -0.492187,0 -0.925781,0.304688 -1.195312,0.679688 h -0.01172 v -0.679688 h -0.03516 c -0.386719,0.222657 -0.808594,0.398438 -1.242188,0.503907 v 0.152343 h 0.175781 c 0.351563,0 0.398438,0.117188 0.398438,0.585938 z m 7.461914,-5.050782 -1.277344,0.08203 v 0.164062 c 0.257813,0 0.574219,0.03516 0.574219,0.421875 v 2.25 c -0.09375,0.1875 -0.433594,0.503906 -0.855469,0.503906 -0.46875,0 -0.691406,-0.316406 -0.691406,-0.75 v -2.671875 l -1.289063,0.08203 v 0.164062 c 0.269532,0 0.585938,0.03516 0.585938,0.421875 v 2.261719 c 0,0.667969 0.445312,0.996094 1.089844,0.996094 0.515625,0 0.84375,-0.316407 1.183593,-0.65625 v 0.65625 h 0.03516 c 0.386718,-0.140625 0.808593,-0.246094 1.21875,-0.351563 v -0.164062 c -0.292969,-0.01172 -0.574219,-0.04687 -0.574219,-0.375 z m 1.505859,3.152344 c 0,0.46875 -0.164062,0.527344 -0.597656,0.527344 v 0.164062 h 1.898438 v -0.164062 c -0.433594,0 -0.597657,-0.05859 -0.597657,-0.527344 V 44.592331 C 20.437463,44.6978 19.956994,44.850144 19.5234,44.932175 v 0.164063 h 0.09375 c 0.222656,0 0.457031,0.04687 0.457031,0.304687 z m 3.969727,-3.152344 h -0.140625 c -0.01172,0.09375 -0.07031,0.128907 -0.152344,0.128907 -0.117187,0 -0.246094,-0.03516 -0.363281,-0.05859 -0.128906,-0.03516 -0.257813,-0.07031 -0.398438,-0.07031 -0.597656,0 -1.183593,0.339844 -1.183593,0.996094 0,1.230469 1.992187,1.21875 1.992187,2.132813 0,0.375 -0.351562,0.550781 -0.691406,0.550781 -0.585938,0 -1.054688,-0.527344 -1.066406,-1.089844 h -0.1875 l 0.04687,1.253906 h 0.164062 c 0.01172,-0.05859 0,-0.117187 0.117188,-0.117187 0.128906,0 0.574218,0.199219 1.007812,0.199219 0.597656,0 1.160156,-0.398438 1.160156,-1.160157 0,-1.160156 -1.980468,-1.207031 -1.980468,-2.039062 0,-0.316406 0.292968,-0.480469 0.609375,-0.480469 0.574218,0 0.796875,0.398438 0.949218,0.890625 h 0.152344 z m 1.529297,1.289063 c 0.01172,-0.503906 0.433593,-1.042969 0.960937,-1.042969 0.65625,0 0.867188,0.457031 0.867188,1.042969 z m 2.601562,0.246094 c -0.01172,-0.867188 -0.585937,-1.535157 -1.453125,-1.535157 -1.171875,0 -1.769531,1.042969 -1.769531,2.109375 0,1.042969 0.632812,1.816407 1.710937,1.816407 0.796875,0 1.394532,-0.703125 1.710938,-1.359375 l -0.140625,-0.09375 c -0.269531,0.421875 -0.691406,0.84375 -1.382813,0.84375 -0.878906,0 -1.289062,-0.785157 -1.289062,-1.6875 v -0.09375 z m 2.982422,-1.535157 h -0.140625 c -0.01172,0.09375 -0.07031,0.128907 -0.152344,0.128907 -0.117187,0 -0.246093,-0.03516 -0.363281,-0.05859 -0.128906,-0.03516 -0.257812,-0.07031 -0.398437,-0.07031 -0.597657,0 -1.183594,0.339844 -1.183594,0.996094 0,1.230469 1.992187,1.21875 1.992187,2.132813 0,0.375 -0.351562,0.550781 -0.691406,0.550781 -0.585937,0 -1.054687,-0.527344 -1.066406,-1.089844 h -0.1875 l 0.04687,1.253906 h 0.164062 c 0.01172,-0.05859 0,-0.117187 0.117188,-0.117187 0.128906,0 0.574219,0.199219 1.007812,0.199219 0.597657,0 1.160157,-0.398438 1.160157,-1.160157 0,-1.160156 -1.980469,-1.207031 -1.980469,-2.039062 0,-0.316406 0.292969,-0.480469 0.609375,-0.480469 0.574219,0 0.796875,0.398438 0.949219,0.890625 h 0.152343 z m 10.376953,34.716797 c 0,-1.546875 0.222656,-3.023437 1.5,-4.03125 l -0.117187,-0.128906 c -1.101563,0.785156 -2.144532,1.863281 -2.144532,4.113281 0,1.582031 0.890625,2.953125 2.15625,3.808594 l 0.09375,-0.128906 c -1.125,-0.996094 -1.488281,-2.132813 -1.488281,-3.632813 z m 2.888672,0.84375 c 0,-0.726562 0.925781,-0.972656 1.464844,-1.195312 v 1.371093 c 0,0.199219 -0.433594,0.503907 -0.785156,0.503907 -0.445313,0 -0.679688,-0.246094 -0.679688,-0.679688 z m 2.167969,-1.441406 c 0,-0.902344 -0.328125,-1.40625 -1.3125,-1.40625 -0.515625,0 -1.382813,0.246094 -1.382813,0.878906 0,0.222656 0.105469,0.398438 0.339844,0.398438 0.257813,0 0.363281,-0.199219 0.363281,-0.421875 0,-0.09375 -0.02344,-0.175782 -0.01172,-0.269532 0.01172,-0.269531 0.410156,-0.339843 0.609375,-0.339843 0.597656,0 0.691406,0.433593 0.691406,0.785156 v 0.421875 c -0.363281,0.105469 -0.925781,0.257812 -1.324219,0.46875 -0.46875,0.246094 -0.855469,0.585937 -0.855469,1.125 0,0.503906 0.398438,0.878906 0.902344,0.878906 0.492188,0 0.914063,-0.246094 1.289063,-0.527344 0.01172,0.257813 0.1875,0.527344 0.46875,0.527344 0.386718,0 0.644531,-0.1875 0.84375,-0.503906 l -0.09375,-0.08203 c -0.07031,0.08203 -0.175782,0.1875 -0.304688,0.1875 -0.210937,0 -0.222656,-0.210938 -0.222656,-0.375 z m 2.557617,0.597656 c 0,1.5 -0.351562,2.636719 -1.488281,3.632813 l 0.105469,0.128906 c 1.253906,-0.855469 2.15625,-2.226563 2.15625,-3.808594 0,-2.320312 -1.160157,-3.398437 -2.15625,-4.113281 l -0.105469,0.128906 c 1.265625,1.007813 1.488281,2.484375 1.488281,4.03125 z m 5.217773,-1.171875 v -1.710937 c 0,-0.503907 0.152344,-0.503907 0.503907,-0.503907 0.785156,0 1.640625,0.03516 1.640625,1.089844 0,0.890625 -0.679688,1.125 -1.464844,1.125 z m -1.734375,3.011719 h 2.964844 c 0.984375,0 2.074219,-0.410156 2.074219,-1.511719 0,-0.878906 -0.632813,-1.253906 -1.417969,-1.40625 l -0.01172,-0.02344 c 0.621094,-0.128907 1.136719,-0.550782 1.136719,-1.21875 0,-1.03125 -1.054687,-1.359375 -1.910156,-1.359375 h -2.835938 v 0.152343 c 0.644532,0 0.867188,0.128907 0.867188,0.785157 v 3.632812 c 0,0.65625 -0.222656,0.785156 -0.867188,0.785156 z m 1.734375,-2.71875 h 0.785157 c 0.773437,0 1.546875,0.316406 1.546875,1.195312 0,0.902344 -0.632813,1.230469 -1.453125,1.230469 h -0.398438 c -0.457031,0 -0.480469,-0.210937 -0.480469,-0.433594 z m 4.628907,2.027344 c 0,0.46875 -0.164063,0.527343 -0.597657,0.527343 v 0.164063 h 1.898438 v -0.164063 c -0.433594,0 -0.597656,-0.05859 -0.597656,-0.527343 v -5.027344 c -0.339844,0.105469 -0.820313,0.257812 -1.253907,0.339844 v 0.164062 h 0.09375 c 0.222657,0 0.457032,0.04687 0.457032,0.304688 z m 2.540039,-1.453125 c 0,-0.714844 0.269531,-1.453125 1.078125,-1.453125 0.972656,0 1.21875,1.183593 1.21875,2.039062 0,0.597656 -0.292969,1.394531 -1.007813,1.394531 -0.972656,0 -1.289062,-1.207031 -1.289062,-1.980468 z m 3.070312,0.28125 c 0,-1.207032 -0.703125,-1.980469 -1.933593,-1.980469 -1.089844,0 -1.910157,0.902344 -1.910157,1.980469 0,1.101562 0.796875,1.945312 1.910157,1.945312 1.089843,0 1.933593,-0.855469 1.933593,-1.945312 z m 2.408203,-1.980469 c -1.089843,0 -1.863281,0.855469 -1.863281,1.921875 0,1.710937 1.066406,2.003906 1.582031,2.003906 0.808594,0 1.242188,-0.492187 1.640625,-1.277344 l -0.152343,-0.09375 c -0.222657,0.421875 -0.644532,0.761719 -1.148438,0.761719 -0.867187,0 -1.265625,-0.878906 -1.265625,-1.628906 0,-0.632813 0.304688,-1.394531 1.042969,-1.394531 0.269531,0 0.539062,0.128906 0.539062,0.410156 0,0.246094 0.152344,0.503906 0.421875,0.503906 0.234375,0 0.410157,-0.175781 0.410157,-0.433594 0,-0.550781 -0.773438,-0.773437 -1.207032,-0.773437 z m 2.191407,3.152344 c 0,0.46875 -0.175782,0.527343 -0.585938,0.527343 v 0.164063 h 1.875 v -0.164063 c -0.421875,0 -0.585937,-0.05859 -0.585937,-0.527343 v -1.195313 h 0.05859 l 0.878907,1.03125 c 0.222656,0.269531 0.398437,0.503906 0.398437,0.574219 0,0.117187 -0.128906,0.117187 -0.375,0.117187 v 0.164063 h 1.816406 v -0.164063 c -0.328125,0 -0.5625,-0.199218 -0.960937,-0.679687 l -1.195313,-1.441406 0.867188,-0.84375 c 0.28125,-0.292969 0.65625,-0.46875 1.078125,-0.46875 v -0.164063 h -1.757813 v 0.164063 c 0.105469,0 0.445313,0.02344 0.445313,0.175781 0,0.05859 -0.02344,0.140625 -0.140625,0.269531 l -1.054688,1.019531 h -0.05859 v -3.585937 c -0.292969,0.07031 -0.832032,0.257812 -1.253907,0.339844 v 0.164062 h 0.09375 c 0.222657,0 0.457032,0.04687 0.457032,0.304688 z m 6.706054,-1.324219 c 0,-0.703125 0.28125,-1.582031 1.089844,-1.582031 0.410156,0 0.738281,0.1875 0.914063,0.585937 0.04687,0.08203 0.04687,0.316406 0.04687,0.503906 v 1.816407 c 0,0.117187 -0.375,0.269531 -0.808594,0.269531 -0.867188,0 -1.242188,-0.855469 -1.242188,-1.59375 z m 2.050782,-1.453125 c -0.304688,-0.257813 -0.5625,-0.375 -0.960938,-0.375 -1.019531,0 -1.792969,0.972656 -1.792969,2.074219 0,1.675781 1.21875,1.851562 1.605469,1.851562 0.433594,0 0.820313,-0.117187 1.160156,-0.550781 h 0.02344 v 0.550781 c 0.375,-0.140625 0.761719,-0.246094 1.160156,-0.339844 v -0.164062 c -0.457031,0 -0.492187,-0.105469 -0.492187,-0.574219 v -4.722656 c -0.375,0.07031 -0.820313,0.257812 -1.253907,0.339844 v 0.164062 h 0.09375 c 0.222657,0 0.457032,0.04687 0.457032,0.304688 z m 1.552734,0.152344 h 0.105469 c 0.375,0 0.492187,0.140625 0.492187,0.445312 v 2.179688 c 0,0.46875 -0.164062,0.527343 -0.597656,0.527343 v 0.164063 h 1.898437 v -0.164063 c -0.433593,0 -0.597656,-0.05859 -0.597656,-0.527343 v -3.152344 c -0.386719,0.128906 -0.84375,0.292969 -1.300781,0.375 z m 0.492187,-1.96875 c 0,0.234375 0.1875,0.421875 0.433594,0.421875 0.234375,0 0.433594,-0.1875 0.433594,-0.421875 0,-0.246094 -0.199219,-0.433594 -0.433594,-0.433594 -0.246094,0 -0.433594,0.1875 -0.433594,0.433594 z m 2.648438,4.289062 c 0,-0.726562 0.925781,-0.972656 1.464844,-1.195312 v 1.371093 c 0,0.199219 -0.433594,0.503907 -0.785157,0.503907 -0.445312,0 -0.679687,-0.246094 -0.679687,-0.679688 z m 2.167969,-1.441406 c 0,-0.902344 -0.328125,-1.40625 -1.3125,-1.40625 -0.515625,0 -1.382813,0.246094 -1.382813,0.878906 0,0.222656 0.105469,0.398438 0.339844,0.398438 0.257812,0 0.363281,-0.199219 0.363281,-0.421875 0,-0.09375 -0.02344,-0.175782 -0.01172,-0.269532 0.01172,-0.269531 0.410157,-0.339843 0.609375,-0.339843 0.597657,0 0.691407,0.433593 0.691407,0.785156 v 0.421875 c -0.363282,0.105469 -0.925782,0.257812 -1.324219,0.46875 -0.46875,0.246094 -0.855469,0.585937 -0.855469,1.125 0,0.503906 0.398438,0.878906 0.902344,0.878906 0.492187,0 0.914062,-0.246094 1.289062,-0.527344 0.01172,0.257813 0.1875,0.527344 0.46875,0.527344 0.386719,0 0.644532,-0.1875 0.84375,-0.503906 l -0.09375,-0.08203 c -0.07031,0.08203 -0.175781,0.1875 -0.304687,0.1875 -0.210938,0 -0.222656,-0.210938 -0.222656,-0.375 z m 1.444336,3.234375 c 0,-0.269531 0.292968,-0.632813 0.410156,-0.667969 2.179687,0 2.367187,0.105469 2.367187,0.515625 0,0.574219 -0.855468,0.832031 -1.289062,0.832031 -0.445313,0 -1.488281,-0.02344 -1.488281,-0.679687 z m 1.136718,-4.394531 c 0.609375,0 0.785157,0.914062 0.785157,1.359375 0,0.386718 -0.140625,0.867187 -0.609375,0.867187 -0.609375,0 -0.785157,-0.914062 -0.785157,-1.382812 0,-0.796875 0.457032,-0.84375 0.609375,-0.84375 z m 1.945313,0.04687 h -0.960938 c -0.04687,-0.01172 -0.199218,-0.292969 -0.902343,-0.292969 -0.726563,0 -1.394532,0.644531 -1.394532,1.371094 0,0.5625 0.1875,0.914062 0.65625,1.21875 -0.199218,0.175781 -0.609375,0.5625 -0.609375,0.855468 0,0.199219 0.128907,0.386719 0.304688,0.457032 -0.234375,0.234375 -0.632813,0.65625 -0.632813,1.007812 0,0.632813 0.785157,0.808594 1.289063,0.808594 0.902344,0 2.296875,-0.445313 2.296875,-1.511719 0,-0.84375 -1.101563,-0.75 -1.6875,-0.785156 -0.820313,-0.02344 -1.007813,-0.09375 -1.007813,-0.398438 0,-0.210937 0.175782,-0.328125 0.28125,-0.328125 0.02344,0 0.117188,0.02344 0.457032,0.02344 0.84375,0 1.453125,-0.550781 1.453125,-1.394531 0,-0.246094 -0.08203,-0.492188 -0.1875,-0.726563 h 0.644531 z m 0.389648,3.550781 h 2.015625 v -0.164063 c -0.585937,0 -0.679687,-0.08203 -0.679687,-0.714843 v -1.863282 c 0,-0.04687 0.316406,-0.550781 0.609375,-0.550781 0.09375,0 0.152344,0.04687 0.210937,0.105469 0.07031,0.05859 0.140625,0.117187 0.269532,0.117187 0.199218,0 0.386718,-0.152343 0.386718,-0.363281 0,-0.269531 -0.234375,-0.410156 -0.46875,-0.410156 -0.398437,0 -0.773437,0.457031 -1.007812,0.714844 v -0.714844 h -0.03516 c -0.410157,0.140625 -0.855469,0.269531 -1.300782,0.386719 v 0.164062 c 0.5625,0 0.632813,0.07031 0.632813,0.644531 v 1.757813 c 0,0.585937 -0.02344,0.703125 -0.632813,0.726562 z m 4.028321,-0.996094 c 0,-0.726562 0.925781,-0.972656 1.464843,-1.195312 v 1.371093 c 0,0.199219 -0.433593,0.503907 -0.785156,0.503907 -0.445312,0 -0.679687,-0.246094 -0.679687,-0.679688 z m 2.167968,-1.441406 c 0,-0.902344 -0.328125,-1.40625 -1.3125,-1.40625 -0.515625,0 -1.382812,0.246094 -1.382812,0.878906 0,0.222656 0.105469,0.398438 0.339844,0.398438 0.257812,0 0.363281,-0.199219 0.363281,-0.421875 0,-0.09375 -0.02344,-0.175782 -0.01172,-0.269532 0.01172,-0.269531 0.410156,-0.339843 0.609375,-0.339843 0.597656,0 0.691406,0.433593 0.691406,0.785156 v 0.421875 c -0.363281,0.105469 -0.925781,0.257812 -1.324218,0.46875 -0.46875,0.246094 -0.855469,0.585937 -0.855469,1.125 0,0.503906 0.398437,0.878906 0.902344,0.878906 0.492187,0 0.914062,-0.246094 1.289062,-0.527344 0.01172,0.257813 0.1875,0.527344 0.46875,0.527344 0.386719,0 0.644531,-0.1875 0.84375,-0.503906 l -0.09375,-0.08203 c -0.07031,0.08203 -0.175781,0.1875 -0.304687,0.1875 -0.210938,0 -0.222657,-0.210938 -0.222657,-0.375 z m 0.905274,2.4375 h 1.875 v -0.164063 c -0.421875,0 -0.597656,-0.05859 -0.597656,-0.527343 v -2.25 c 0.246093,-0.210938 0.527343,-0.398438 0.855468,-0.398438 0.398438,0 0.703125,0.222656 0.703125,0.785156 v 1.863282 c 0,0.46875 -0.175781,0.527343 -0.597656,0.527343 v 0.164063 h 1.874996 v -0.164063 c -0.41015,0 -0.57421,-0.05859 -0.57421,-0.527343 v -2.25 c 0.25781,-0.257813 0.58593,-0.398438 0.84375,-0.398438 0.41015,0 0.70312,0.222656 0.70312,0.785156 v 1.863282 c 0,0.46875 -0.16406,0.527343 -0.58594,0.527343 v 0.164063 h 1.875 v -0.164063 c -0.41015,0 -0.58593,-0.05859 -0.58593,-0.527343 v -1.839844 c 0,-0.960938 -0.375,-1.3125 -1.00782,-1.3125 -0.39843,0 -0.75,0.222656 -1.30078,0.667969 -0.1875,-0.445313 -0.45703,-0.667969 -0.949217,-0.667969 -0.503906,0 -0.878906,0.328125 -1.253906,0.621094 v -0.621094 c -0.386719,0.128906 -0.832032,0.292969 -1.277344,0.375 v 0.152344 h 0.08203 c 0.375,0 0.492188,0.140625 0.492188,0.445312 v 2.179688 c 0,0.46875 -0.164063,0.527343 -0.574219,0.527343 z m -84.09082,53.856443 c 0,-1.54688 0.222656,-3.02344 1.5,-4.03125 l -0.117188,-0.12891 c -1.101562,0.78516 -2.144531,1.86328 -2.144531,4.11328 0,1.58204 0.890625,2.95313 2.15625,3.80861 l 0.09375,-0.12891 c -1.125,-0.99609 -1.488281,-2.13281 -1.488281,-3.63282 z m 3.205078,-1.13672 c 0,-0.0703 0.363281,-0.36328 0.820312,-0.36328 0.855469,0 1.230469,0.85547 1.230469,1.59375 0,0.73828 -0.316406,1.58203 -1.171875,1.58203 -0.539063,0 -0.878906,-0.31641 -0.878906,-0.50391 z m -0.703125,2.55469 c 0.386718,0.3164 0.867187,0.5039 1.359375,0.5039 1.03125,0 2.097656,-0.77344 2.097656,-2.25 0,-0.83203 -0.527344,-1.67578 -1.429688,-1.67578 -0.574218,0 -0.890625,0.21094 -1.324218,0.55078 v -2.42578 c -0.375,0.0937 -0.832032,0.25781 -1.253907,0.33984 v 0.16407 h 0.09375 c 0.222657,0 0.457032,0.0469 0.457032,0.30468 z m 5.560547,-1.41797 c 0,1.5 -0.351563,2.63672 -1.488282,3.63281 l 0.105469,0.12891 c 1.253906,-0.85547 2.15625,-2.22657 2.15625,-3.8086 0,-2.32031 -1.160156,-3.39844 -2.15625,-4.11328 l -0.105469,0.12891 c 1.265625,1.00781 1.488282,2.48437 1.488282,4.03125 z m 4.666992,1.83984 h 2.625 v -0.16406 c -0.738282,-0.0234 -0.878907,-0.12891 -0.878907,-0.89062 v -3.78515 c 0,-0.29297 0,-0.38672 0.457032,-0.38672 1.089843,0 1.3125,0.0937 1.5,1.11328 h 0.164062 l -0.04687,-1.40625 h -5.015625 l -0.04687,1.40625 h 0.164063 c 0.1875,-1.01953 0.410156,-1.11328 1.5,-1.11328 0.457031,0 0.457031,0.0937 0.457031,0.38672 v 3.78515 c 0,0.76171 -0.128906,0.86718 -0.878906,0.89062 z m 4.139648,-3.3164 h 0.105469 c 0.375,0 0.492187,0.14062 0.492187,0.44532 v 2.17968 c 0,0.46875 -0.164062,0.52735 -0.597656,0.52735 v 0.16406 h 1.898438 v -0.16406 c -0.433594,0 -0.597657,-0.0586 -0.597657,-0.52735 v -3.15235 c -0.386718,0.12891 -0.84375,0.29297 -1.300781,0.375 z m 0.492188,-1.96875 c 0,0.23437 0.1875,0.42187 0.433593,0.42187 0.234375,0 0.433594,-0.1875 0.433594,-0.42187 0,-0.2461 -0.199219,-0.4336 -0.433594,-0.4336 -0.246093,0 -0.433593,0.1875 -0.433593,0.4336 z m 1.719726,5.28515 h 1.875 v -0.16406 c -0.421875,0 -0.597656,-0.0586 -0.597656,-0.52735 v -2.25 c 0.246094,-0.21093 0.527344,-0.39843 0.855469,-0.39843 0.398437,0 0.703125,0.22265 0.703125,0.78515 v 1.86328 c 0,0.46875 -0.175782,0.52735 -0.597657,0.52735 v 0.16406 h 1.875 v -0.16406 c -0.410156,0 -0.574218,-0.0586 -0.574218,-0.52735 v -2.25 c 0.257812,-0.25781 0.585937,-0.39843 0.84375,-0.39843 0.410156,0 0.703125,0.22265 0.703125,0.78515 v 1.86328 c 0,0.46875 -0.164063,0.52735 -0.585938,0.52735 v 0.16406 h 1.875 v -0.16406 c -0.410156,0 -0.585937,-0.0586 -0.585937,-0.52735 V 136.189 c 0,-0.96094 -0.375,-1.3125 -1.007813,-1.3125 -0.398437,0 -0.75,0.22266 -1.300781,0.66797 -0.1875,-0.44531 -0.457031,-0.66797 -0.949219,-0.66797 -0.503906,0 -0.878906,0.32813 -1.253906,0.62109 v -0.62109 c -0.386719,0.12891 -0.832031,0.29297 -1.277344,0.375 v 0.15234 h 0.08203 c 0.375,0 0.492188,0.14063 0.492188,0.44532 v 2.17968 c 0,0.46875 -0.164063,0.52735 -0.574219,0.52735 z m 6.676758,-3.3164 h 0.105469 c 0.375,0 0.492187,0.14062 0.492187,0.44532 v 2.17968 c 0,0.46875 -0.164062,0.52735 -0.597656,0.52735 v 0.16406 h 1.898438 v -0.16406 c -0.433594,0 -0.597657,-0.0586 -0.597657,-0.52735 v -3.15235 c -0.386718,0.12891 -0.84375,0.29297 -1.300781,0.375 z m 0.492188,-1.96875 c 0,0.23437 0.1875,0.42187 0.433593,0.42187 0.234375,0 0.433594,-0.1875 0.433594,-0.42187 0,-0.2461 -0.199219,-0.4336 -0.433594,-0.4336 -0.246093,0 -0.433593,0.1875 -0.433593,0.4336 z m 1.731445,5.28515 h 1.875 v -0.16406 c -0.421875,0 -0.585938,-0.0586 -0.585938,-0.52735 v -2.25 c 0.234375,-0.21093 0.515625,-0.39843 0.84375,-0.39843 0.410157,0 0.703125,0.22265 0.703125,0.78515 v 1.86328 c 0,0.46875 -0.164062,0.52735 -0.585937,0.52735 v 0.16406 h 1.863281 v -0.16406 c -0.398437,0 -0.574219,-0.0586 -0.574219,-0.52735 V 136.189 c 0,-0.96094 -0.375,-1.3125 -1.007812,-1.3125 -0.503906,0 -0.867188,0.32813 -1.242188,0.62109 v -0.62109 c -0.398437,0.12891 -0.84375,0.29297 -1.289062,0.375 v 0.15234 h 0.09375 c 0.363281,0 0.492187,0.14063 0.492187,0.44532 v 2.17968 c 0,0.46875 -0.175781,0.52735 -0.585937,0.52735 z m 4.974609,0.79688 c 0,-0.26954 0.292969,-0.63282 0.410156,-0.66797 2.179688,0 2.367188,0.10547 2.367188,0.51562 0,0.57422 -0.855469,0.83204 -1.289063,0.83204 -0.445312,0 -1.488281,-0.0234 -1.488281,-0.67969 z m 1.136719,-4.39454 c 0.609375,0 0.785156,0.91407 0.785156,1.35938 0,0.38672 -0.140625,0.86719 -0.609375,0.86719 -0.609375,0 -0.785156,-0.91407 -0.785156,-1.38282 0,-0.79687 0.457031,-0.84375 0.609375,-0.84375 z m 1.945312,0.0469 h -0.960937 c -0.04687,-0.0117 -0.199219,-0.29297 -0.902344,-0.29297 -0.726562,0 -1.394531,0.64453 -1.394531,1.37109 0,0.5625 0.1875,0.91407 0.65625,1.21875 -0.199219,0.17579 -0.609375,0.5625 -0.609375,0.85547 0,0.19922 0.128906,0.38672 0.304687,0.45703 -0.234375,0.23438 -0.632812,0.65625 -0.632812,1.00782 0,0.63281 0.785156,0.8086 1.289062,0.8086 0.902344,0 2.296875,-0.44532 2.296875,-1.51172 0,-0.84375 -1.101562,-0.75 -1.6875,-0.78515 -0.820312,-0.0234 -1.007812,-0.0937 -1.007812,-0.39844 0,-0.21094 0.175781,-0.32813 0.28125,-0.32813 0.02344,0 0.117187,0.0234 0.457031,0.0234 0.84375,0 1.453125,-0.55078 1.453125,-1.39453 0,-0.24609 -0.08203,-0.49219 -0.1875,-0.72656 h 0.644531 z m 3.234375,1.53516 c 0,-0.70313 0.28125,-1.58204 1.089844,-1.58204 0.410156,0 0.738281,0.1875 0.914063,0.58594 0.04687,0.082 0.04687,0.31641 0.04687,0.50391 v 1.8164 c 0,0.11719 -0.375,0.26954 -0.808594,0.26954 -0.867188,0 -1.242188,-0.85547 -1.242188,-1.59375 z m 2.050782,-1.45313 c -0.304688,-0.25781 -0.5625,-0.375 -0.960938,-0.375 -1.019531,0 -1.792969,0.97266 -1.792969,2.07422 0,1.67578 1.21875,1.85156 1.605469,1.85156 0.433594,0 0.820313,-0.11719 1.160156,-0.55078 h 0.02344 v 0.55078 c 0.375,-0.14062 0.761719,-0.24609 1.160156,-0.33984 v -0.16406 c -0.457031,0 -0.492187,-0.10547 -0.492187,-0.57422 v -4.72266 c -0.375,0.0703 -0.820313,0.25781 -1.253907,0.33984 v 0.16407 h 0.09375 c 0.222657,0 0.457032,0.0469 0.457032,0.30468 z m 1.555664,0.15234 h 0.105469 c 0.375,0 0.492187,0.14063 0.492187,0.44532 v 2.17968 c 0,0.46875 -0.164062,0.52735 -0.597656,0.52735 v 0.16407 h 1.898437 v -0.16407 c -0.433593,0 -0.597656,-0.0586 -0.597656,-0.52735 v -3.15234 c -0.386719,0.12891 -0.84375,0.29297 -1.300781,0.375 z m 0.492187,-1.96875 c 0,0.23438 0.1875,0.42188 0.433594,0.42188 0.234375,0 0.433594,-0.1875 0.433594,-0.42188 0,-0.24609 -0.199219,-0.43359 -0.433594,-0.43359 -0.246094,0 -0.433594,0.1875 -0.433594,0.43359 z m 2.645508,4.28907 c 0,-0.72657 0.925781,-0.97265 1.464844,-1.19532 v 1.3711 c 0,0.19922 -0.433594,0.5039 -0.785156,0.5039 -0.445313,0 -0.679688,-0.24609 -0.679688,-0.67968 z m 2.167969,-1.4414 c 0,-0.90235 -0.328125,-1.40625 -1.3125,-1.40625 -0.515625,0 -1.382813,0.24609 -1.382813,0.8789 0,0.22265 0.105469,0.39843 0.339844,0.39843 0.257813,0 0.363281,-0.19921 0.363281,-0.42187 0,-0.0937 -0.02344,-0.17578 -0.01172,-0.26953 0.01172,-0.26953 0.410156,-0.33985 0.609375,-0.33985 0.597656,0 0.691406,0.4336 0.691406,0.78516 v 0.42188 c -0.363281,0.10546 -0.925781,0.25781 -1.324219,0.46875 -0.46875,0.24609 -0.855469,0.58593 -0.855469,1.125 0,0.5039 0.398438,0.8789 0.902344,0.8789 0.492188,0 0.914063,-0.24609 1.289063,-0.52734 0.01172,0.25781 0.1875,0.52734 0.46875,0.52734 0.386718,0 0.644531,-0.1875 0.84375,-0.5039 l -0.09375,-0.082 c -0.07031,0.082 -0.175782,0.1875 -0.304688,0.1875 -0.210937,0 -0.222656,-0.21093 -0.222656,-0.375 z m 1.444336,3.23437 c 0,-0.26954 0.292969,-0.63282 0.410156,-0.66797 2.179688,0 2.367188,0.10547 2.367188,0.51563 0,0.57422 -0.855469,0.83203 -1.289063,0.83203 -0.445312,0 -1.488281,-0.0234 -1.488281,-0.67969 z m 1.136719,-4.39454 c 0.609375,0 0.785156,0.91407 0.785156,1.35938 0,0.38672 -0.140625,0.86719 -0.609375,0.86719 -0.609375,0 -0.785156,-0.91407 -0.785156,-1.38282 0,-0.79687 0.457031,-0.84375 0.609375,-0.84375 z m 1.945312,0.0469 h -0.960937 c -0.04687,-0.0117 -0.199219,-0.29297 -0.902344,-0.29297 -0.726563,0 -1.394531,0.64453 -1.394531,1.37109 0,0.5625 0.1875,0.91407 0.65625,1.21875 -0.199219,0.17579 -0.609375,0.5625 -0.609375,0.85547 0,0.19922 0.128906,0.38672 0.304687,0.45703 -0.234375,0.23438 -0.632812,0.65625 -0.632812,1.00782 0,0.63282 0.785156,0.8086 1.289062,0.8086 0.902344,0 2.296875,-0.44531 2.296875,-1.51172 0,-0.84375 -1.101562,-0.75 -1.6875,-0.78515 -0.820312,-0.0234 -1.007812,-0.0937 -1.007812,-0.39844 0,-0.21094 0.175781,-0.32813 0.28125,-0.32813 0.02344,0 0.117187,0.0234 0.457031,0.0234 0.84375,0 1.453125,-0.55078 1.453125,-1.39453 0,-0.24609 -0.08203,-0.49219 -0.1875,-0.72656 H 65.4609 Z m 0.392578,3.55078 h 2.015625 v -0.16406 c -0.585937,0 -0.679687,-0.082 -0.679687,-0.71485 v -1.86328 c 0,-0.0469 0.316406,-0.55078 0.609375,-0.55078 0.09375,0 0.152343,0.0469 0.210937,0.10547 0.07031,0.0586 0.140625,0.11719 0.269531,0.11719 0.199219,0 0.386719,-0.15235 0.386719,-0.36328 0,-0.26953 -0.234375,-0.41016 -0.46875,-0.41016 -0.398437,0 -0.773437,0.45703 -1.007812,0.71484 v -0.71484 h -0.03516 c -0.410156,0.14063 -0.855468,0.26953 -1.300781,0.38672 v 0.16406 c 0.5625,0 0.632813,0.0703 0.632813,0.64453 v 1.75782 c 0,0.58593 -0.02344,0.70312 -0.632813,0.72656 z m 4.025391,-0.99609 c 0,-0.72657 0.925781,-0.97266 1.464844,-1.19532 v 1.3711 c 0,0.19922 -0.433594,0.5039 -0.785157,0.5039 -0.445312,0 -0.679687,-0.24609 -0.679687,-0.67968 z m 2.167969,-1.44141 c 0,-0.90234 -0.328125,-1.40625 -1.3125,-1.40625 -0.515625,0 -1.382813,0.24609 -1.382813,0.87891 0,0.22265 0.105469,0.39843 0.339844,0.39843 0.257812,0 0.363281,-0.19921 0.363281,-0.42187 0,-0.0937 -0.02344,-0.17578 -0.01172,-0.26953 0.01172,-0.26953 0.410157,-0.33985 0.609375,-0.33985 0.597657,0 0.691407,0.4336 0.691407,0.78516 v 0.42188 c -0.363282,0.10546 -0.925782,0.25781 -1.324219,0.46875 -0.46875,0.24609 -0.855469,0.58593 -0.855469,1.125 0,0.5039 0.398438,0.8789 0.902344,0.8789 0.492187,0 0.914062,-0.24609 1.289062,-0.52734 0.01172,0.25781 0.1875,0.52734 0.46875,0.52734 0.386719,0 0.644532,-0.1875 0.84375,-0.5039 l -0.09375,-0.082 c -0.07031,0.082 -0.175781,0.1875 -0.304687,0.1875 -0.210938,0 -0.222656,-0.21093 -0.222656,-0.375 z m 0.905273,2.4375 h 1.875 v -0.16406 c -0.421875,0 -0.597656,-0.0586 -0.597656,-0.52735 v -2.25 c 0.246093,-0.21093 0.527343,-0.39843 0.855468,-0.39843 0.398438,0 0.703125,0.22265 0.703125,0.78515 v 1.86328 c 0,0.46875 -0.175781,0.52735 -0.597656,0.52735 v 0.16406 h 1.875 v -0.16406 c -0.410156,0 -0.574219,-0.0586 -0.574219,-0.52735 v -2.25 c 0.257813,-0.25781 0.585938,-0.39843 0.84375,-0.39843 0.410157,0 0.703125,0.22265 0.703125,0.78515 v 1.86328 c 0,0.46875 -0.164062,0.52735 -0.585937,0.52735 v 0.16406 h 1.875 v -0.16406 c -0.410156,0 -0.585938,-0.0586 -0.585938,-0.52735 v -1.83984 c 0,-0.96094 -0.375,-1.3125 -1.007812,-1.3125 -0.398438,0 -0.75,0.22266 -1.300781,0.66797 -0.1875,-0.44531 -0.457032,-0.66797 -0.949219,-0.66797 -0.503906,0 -0.878906,0.32813 -1.253906,0.62109 v -0.62109 c -0.386719,0.12891 -0.832032,0.29297 -1.277344,0.375 v 0.15234 h 0.08203 c 0.375,0 0.492188,0.14063 0.492188,0.44532 v 2.17968 c 0,0.46875 -0.164063,0.52735 -0.574219,0.52735 z m 9.588867,-2.14453 c 0,-0.71484 0.269531,-1.45313 1.078125,-1.45313 0.972656,0 1.21875,1.18361 1.21875,2.03907 0,0.59765 -0.292969,1.39454 -1.007812,1.39454 -0.972657,0 -1.289063,-1.20704 -1.289063,-1.98048 z m 3.070313,0.28125 c 0,-1.20703 -0.703125,-1.98047 -1.933594,-1.98047 -1.089844,0 -1.910156,0.90234 -1.910156,1.98047 0,1.10156 0.796875,1.94531 1.910156,1.94531 1.089844,0 1.933594,-0.85547 1.933594,-1.94531 z m 0.46582,1.86328 h 2.296875 v -0.16406 c -0.703125,-0.0234 -0.9375,-0.0586 -0.9375,-0.70313 v -2.66015 h 0.996094 v -0.23437 h -0.996094 v -0.97265 c 0,-0.26954 0.02344,-0.67969 0.386719,-0.67969 0.339843,0 0.246093,0.62109 0.644531,0.62109 0.1875,0 0.316406,-0.15234 0.316406,-0.3164 0,-0.38672 -0.421875,-0.53907 -0.75,-0.53907 -0.644531,0 -0.996094,0.41016 -1.171875,0.91407 -0.105469,0.32812 -0.128906,0.70312 -0.128906,0.97265 h -0.65625 v 0.23438 h 0.65625 v 2.7539 c 0,0.58594 -0.199219,0.58594 -0.65625,0.60938 z m 6.609375,-3.84375 c -1.089844,0 -1.863281,0.85547 -1.863281,1.92188 0,1.71093 1.066406,2.0039 1.582031,2.0039 0.808594,0 1.242187,-0.49219 1.640625,-1.27734 l -0.152344,-0.0937 c -0.222656,0.42187 -0.644531,0.76172 -1.148437,0.76172 -0.867188,0 -1.265625,-0.87891 -1.265625,-1.62891 0,-0.63281 0.304687,-1.39453 1.042968,-1.39453 0.269532,0 0.539063,0.12891 0.539063,0.41016 0,0.24609 0.152344,0.5039 0.421875,0.5039 0.234375,0 0.410156,-0.17578 0.410156,-0.43359 0,-0.55078 -0.773437,-0.77344 -1.207031,-0.77344 z m 2.203125,3.15234 c 0,0.46875 -0.164063,0.52736 -0.597656,0.52736 v 0.16406 h 1.898437 v -0.16406 c -0.433594,0 -0.597656,-0.0586 -0.597656,-0.52736 v -5.02734 c -0.339844,0.10547 -0.820313,0.25781 -1.253906,0.33984 v 0.16407 h 0.09375 c 0.222656,0 0.457031,0.0469 0.457031,0.30468 z m 2.540039,-1.45312 c 0,-0.71484 0.269531,-1.45313 1.078125,-1.45313 0.972656,0 1.21875,1.18361 1.21875,2.03907 0,0.59765 -0.292969,1.39454 -1.007812,1.39454 -0.972657,0 -1.289063,-1.20704 -1.289063,-1.98048 z m 3.07031,0.28125 c 0,-1.20703 -0.703122,-1.98047 -1.933591,-1.98047 -1.089844,0 -1.910156,0.90234 -1.910156,1.98047 0,1.10156 0.796875,1.94531 1.910156,1.94531 1.089844,0 1.933591,-0.85547 1.933591,-1.94531 z m 2.40821,-1.98047 c -1.08985,0 -1.86329,0.85547 -1.86329,1.92188 0,1.71093 1.06641,2.0039 1.58204,2.0039 0.80859,0 1.24218,-0.49219 1.64062,-1.27734 l -0.15234,-0.0937 c -0.22266,0.42187 -0.64453,0.76172 -1.14844,0.76172 -0.86719,0 -1.26563,-0.87891 -1.26563,-1.62891 0,-0.63281 0.30469,-1.39453 1.04297,-1.39453 0.26953,0 0.53907,0.12891 0.53907,0.41016 0,0.24609 0.15234,0.5039 0.42187,0.5039 0.23438,0 0.41016,-0.17578 0.41016,-0.43359 0,-0.55078 -0.77344,-0.77344 -1.20703,-0.77344 z m 2.19433,3.15234 c 0,0.46875 -0.17578,0.52736 -0.58594,0.52736 v 0.16406 h 1.875 v -0.16406 c -0.42187,0 -0.58593,-0.0586 -0.58593,-0.52736 v -1.19531 h 0.0586 l 0.87891,1.03125 c 0.22265,0.26953 0.39843,0.50391 0.39843,0.57422 0,0.11719 -0.1289,0.11719 -0.375,0.11719 v 0.16406 h 1.81641 v -0.16406 c -0.32812,0 -0.5625,-0.19922 -0.96094,-0.67969 l -1.19531,-1.44141 0.86719,-0.84375 c 0.28125,-0.29296 0.65625,-0.46875 1.07812,-0.46875 v -0.16406 h -1.75781 v 0.16406 c 0.10547,0 0.44531,0.0234 0.44531,0.17579 0,0.0586 -0.0234,0.14063 -0.14062,0.26953 l -1.05469,1.01954 h -0.0586 v -3.58594 c -0.29297,0.0703 -0.83203,0.25781 -1.25391,0.33984 v 0.16407 h 0.0937 c 0.22266,0 0.45703,0.0469 0.45703,0.30468 z m 7.09278,-2.07421 c 0,-0.15235 0.35156,-0.57422 0.86718,-0.57422 0.87891,0 1.1836,0.8789 1.1836,1.6289 0,0.66797 -0.32813,1.54688 -1.13672,1.54688 -0.32813,0 -0.78516,-0.17578 -0.91406,-0.52735 z m -0.70313,3.97265 c 0,0.50391 -0.23437,0.50391 -0.57422,0.50391 v 0.16406 h 1.92188 v -0.16406 c -0.38672,0 -0.64453,0 -0.64453,-0.44531 v -1.45313 c 0.25781,0.21094 0.58593,0.26953 0.91406,0.26953 1.18359,0 1.83984,-1.18359 1.83984,-2.1914 0,-0.9375 -0.57422,-1.73437 -1.54687,-1.73437 -0.49219,0 -0.92578,0.30469 -1.19532,0.67969 h -0.0117 v -0.67969 h -0.0352 c -0.38672,0.22265 -0.80859,0.39844 -1.24219,0.5039 v 0.15235 h 0.17578 c 0.35157,0 0.39844,0.11719 0.39844,0.58594 z m 7.45898,-5.05078 -1.27734,0.082 v 0.16406 c 0.25781,0 0.57422,0.0352 0.57422,0.42188 v 2.25 c -0.0937,0.1875 -0.43359,0.50391 -0.85547,0.50391 -0.46875,0 -0.69141,-0.31641 -0.69141,-0.75 v -2.67188 l -1.28906,0.082 v 0.16406 c 0.26953,0 0.58594,0.0352 0.58594,0.42188 v 2.26172 c 0,0.66797 0.44531,0.99609 1.08984,0.99609 0.51563,0 0.84375,-0.3164 1.1836,-0.65625 v 0.65625 h 0.0352 c 0.38672,-0.14062 0.8086,-0.24609 1.21875,-0.35156 v -0.16406 c -0.29297,-0.0117 -0.57422,-0.0469 -0.57422,-0.375 z m 1.50586,3.15234 c 0,0.46875 -0.16406,0.52736 -0.59765,0.52736 v 0.16406 h 1.89844 v -0.16406 c -0.4336,0 -0.59766,-0.0586 -0.59766,-0.52736 v -5.02734 c -0.33984,0.10547 -0.82031,0.25781 -1.25391,0.33984 v 0.16407 h 0.0937 c 0.22266,0 0.45703,0.0469 0.45703,0.30468 z m 3.96973,-3.15234 h -0.14062 c -0.0117,0.0937 -0.0703,0.12891 -0.15235,0.12891 -0.11719,0 -0.24609,-0.0352 -0.36328,-0.0586 -0.12891,-0.0352 -0.25781,-0.0703 -0.39844,-0.0703 -0.59765,0 -1.18359,0.33984 -1.18359,0.99609 0,1.23047 1.99219,1.21875 1.99219,2.13282 0,0.375 -0.35157,0.55078 -0.69141,0.55078 -0.58594,0 -1.05469,-0.52735 -1.06641,-1.08985 h -0.1875 l 0.0469,1.25391 h 0.16406 c 0.0117,-0.0586 0,-0.11719 0.11719,-0.11719 0.12891,0 0.57422,0.19922 1.00781,0.19922 0.59766,0 1.16016,-0.39844 1.16016,-1.16015 0,-1.16016 -1.98047,-1.20704 -1.98047,-2.03907 0,-0.3164 0.29297,-0.48047 0.60937,-0.48047 0.57422,0 0.79688,0.39844 0.94922,0.89063 h 0.15235 z m 1.53223,1.28906 c 0.0117,-0.5039 0.43359,-1.04297 0.96093,-1.04297 0.65625,0 0.86719,0.45704 0.86719,1.04297 z m 2.60156,0.2461 c -0.0117,-0.86718 -0.58594,-1.53515 -1.45313,-1.53515 -1.17187,0 -1.76953,1.04297 -1.76953,2.10937 0,1.04296 0.63282,1.8164 1.71094,1.8164 0.79688,0 1.39453,-0.70312 1.71094,-1.35937 l -0.14063,-0.0937 c -0.26953,0.42187 -0.6914,0.84375 -1.38281,0.84375 -0.87891,0 -1.28906,-0.78516 -1.28906,-1.6875 v -0.0937 z m 2.97949,-1.53515 h -0.14062 c -0.0117,0.0937 -0.0703,0.1289 -0.15235,0.1289 -0.11718,0 -0.24609,-0.0352 -0.36328,-0.0586 -0.1289,-0.0352 -0.25781,-0.0703 -0.39844,-0.0703 -0.59765,0 -1.18359,0.33984 -1.18359,0.99609 0,1.23047 1.99219,1.21875 1.99219,2.13283 0,0.375 -0.35156,0.55078 -0.69141,0.55078 -0.58594,0 -1.05469,-0.52736 -1.0664,-1.08986 h -0.1875 l 0.0469,1.25391 h 0.16406 c 0.0117,-0.0586 0,-0.11719 0.11719,-0.11719 0.12891,0 0.57422,0.19922 1.00781,0.19922 0.59766,0 1.16016,-0.39844 1.16016,-1.16015 0,-1.16015 -1.98047,-1.20704 -1.98047,-2.03907 0,-0.31639 0.29297,-0.48047 0.60938,-0.48047 0.57421,0 0.79687,0.39844 0.94921,0.89063 h 0.15235 z m 0,0"
           style="fill:#231f20;fill-opacity:1;fill-rule:nonzero;stroke:none"
           aria-label="Combinational&#10;circuit&#10;Flip-fops&#10;InputsOutputs&#10;Clock pulses&#10;(a) Block diagram&#10;(b) Timing diagram of clock pulses"
           transform="matrix(1.3333333,0,0,1.3333333,314.2188,167.65293)" />
        <path
           id="path46"
           d="M 0,0 H -14.348 V 20.02 H -31.697 V 0 h -34.367 v 20.02 h -17.35 V 0 h -34.367 v 20.02 h -17.35 V 0 h -34.367 v 20.02 h -17.351 V 0 h -34.366 v 20.02 h -17.351 V 0 h -14.681"
           style="fill:none;stroke:#00adef;stroke-width:0.5;stroke-linecap:butt;stroke-linejoin:miter;stroke-miterlimit:4;stroke-dasharray:none;stroke-opacity:1"
           transform="matrix(1.3333333,0,0,-1.3333333,564.68507,336.1972)" />
      </g>
    </g>
    <path
       id="path47"
       d="m 0,0 h -15 m 567,0 h 15 M 0,-666 h -15 m 567,0 h 15 M 24,24 v 15 m 0,-729 v -15 M 528,24 v 15 m 0,-729 v -15"
       style="fill:none;stroke:#ffffff;stroke-width:1.25;stroke-linecap:butt;stroke-linejoin:miter;stroke-miterlimit:10;stroke-dasharray:none;stroke-opacity:1"
       transform="matrix(1.3333333,0,0,-1.3333333,20,52)"
       clip-path="url(#clipPath48)" />
    <path
       id="path49"
       d="m 0,0 h -15 m 567,0 h 15 M 0,-666 h -15 m 567,0 h 15 M 24,24 v 15 m 0,-729 v -15 M 528,24 v 15 m 0,-729 v -15"
       style="fill:none;stroke:#000000;stroke-width:0.25;stroke-linecap:butt;stroke-linejoin:miter;stroke-miterlimit:10;stroke-dasharray:none;stroke-opacity:1"
       transform="matrix(1.3333333,0,0,-1.3333333,20,52)"
       clip-path="url(#clipPath50)" />
  </g>
</svg>
