<?xml version="1.0" encoding="UTF-8" standalone="no"?>
<!-- Created with Inkscape (http://www.inkscape.org/) -->

<svg
   version="1.1"
   id="svg1"
   viewBox="0 0 488.39288 117.67218"
   xmlns="http://www.w3.org/2000/svg"
   xmlns:svg="http://www.w3.org/2000/svg">
  <defs
     id="defs1">
    <clipPath
       clipPathUnits="userSpaceOnUse"
       id="clipPath1">
      <path
         d="m 0.032,0.032 h 812 v 980 h -812 z"
         id="path1" />
    </clipPath>
    <clipPath
       clipPathUnits="userSpaceOnUse"
       id="clipPath52">
      <path
         d="m 190.5,88.8 h 350.985 v 68.622 H 190.5 Z"
         transform="translate(-409.71901,-133.04801)"
         id="path52" />
    </clipPath>
    <clipPath
       clipPathUnits="userSpaceOnUse"
       id="clipPath55">
      <path
         d="m 190.5,88.8 h 350.985 v 68.622 H 190.5 Z"
         transform="translate(-343.71001,-133.04801)"
         id="path55" />
    </clipPath>
    <clipPath
       clipPathUnits="userSpaceOnUse"
       id="clipPath58">
      <path
         d="m 190.5,88.8 h 350.985 v 68.622 H 190.5 Z"
         transform="translate(-475.71801,-133.04801)"
         id="path58" />
    </clipPath>
    <clipPath
       clipPathUnits="userSpaceOnUse"
       id="clipPath60">
      <path
         d="m 190.5,88.8 h 350.985 v 68.622 H 190.5 Z"
         transform="translate(-409.71901,-89.175005)"
         id="path60" />
    </clipPath>
    <clipPath
       clipPathUnits="userSpaceOnUse"
       id="clipPath63">
      <path
         d="m 190.5,88.8 h 350.985 v 68.623 H 190.5 Z"
         transform="matrix(1,0,0,-1,-520.15701,147.328)"
         id="path63" />
    </clipPath>
    <clipPath
       clipPathUnits="userSpaceOnUse"
       id="clipPath72">
      <path
         d="m 190.5,88.8 h 350.985 v 68.623 H 190.5 Z"
         transform="translate(-271.24001,-139.36501)"
         id="path72" />
    </clipPath>
    <clipPath
       clipPathUnits="userSpaceOnUse"
       id="clipPath76">
      <path
         d="m 190.5,88.8 h 350.985 v 68.623 H 190.5 Z"
         transform="translate(-363.35301,-145.109)"
         id="path76" />
    </clipPath>
    <clipPath
       clipPathUnits="userSpaceOnUse"
       id="clipPath78">
      <path
         d="m 190.5,88.8 h 350.985 v 68.623 H 190.5 Z"
         transform="translate(-362.291,-142.53871)"
         id="path78" />
    </clipPath>
    <clipPath
       clipPathUnits="userSpaceOnUse"
       id="clipPath80">
      <path
         d="m 190.5,88.8 h 350.985 v 68.623 H 190.5 Z"
         transform="translate(-296.957,-145.109)"
         id="path80" />
    </clipPath>
    <clipPath
       clipPathUnits="userSpaceOnUse"
       id="clipPath82">
      <path
         d="m 190.5,88.8 h 350.985 v 68.623 H 190.5 Z"
         transform="translate(-295.89599,-142.53871)"
         id="path82" />
    </clipPath>
    <clipPath
       clipPathUnits="userSpaceOnUse"
       id="clipPath84">
      <path
         d="m 190.5,88.8 h 350.985 v 68.623 H 190.5 Z"
         transform="translate(-429.553,-145.109)"
         id="path84" />
    </clipPath>
    <clipPath
       clipPathUnits="userSpaceOnUse"
       id="clipPath86">
      <path
         d="m 190.5,88.8 h 350.985 v 68.623 H 190.5 Z"
         transform="translate(-428.49099,-142.53871)"
         id="path86" />
    </clipPath>
    <clipPath
       clipPathUnits="userSpaceOnUse"
       id="clipPath88">
      <path
         d="m 190.5,88.8 h 350.985 v 68.623 H 190.5 Z"
         transform="translate(-261.01799,-145.42639)"
         id="path88" />
    </clipPath>
    <clipPath
       clipPathUnits="userSpaceOnUse"
       id="clipPath90">
      <path
         d="m 190.5,88.8 h 350.985 v 68.623 H 190.5 Z"
         transform="translate(-259.95641,-142.85609)"
         id="path90" />
    </clipPath>
    <clipPath
       clipPathUnits="userSpaceOnUse"
       id="clipPath92">
      <path
         d="m 190.5,88.8 h 350.985 v 68.623 H 190.5 Z"
         transform="translate(-496.58241,-143.5475)"
         id="path92" />
    </clipPath>
    <clipPath
       clipPathUnits="userSpaceOnUse"
       id="clipPath94">
      <path
         d="m 190.5,88.8 h 350.985 v 68.623 H 190.5 Z"
         transform="translate(-513.11342,-145.1095)"
         id="path94" />
    </clipPath>
    <clipPath
       clipPathUnits="userSpaceOnUse"
       id="clipPath96">
      <path
         d="m 190.5,88.8 h 350.985 v 68.623 H 190.5 Z"
         transform="translate(-512.41743,-142.5392)"
         id="path96" />
    </clipPath>
  </defs>
  <g
     id="g1"
     clip-path="url(#clipPath1)"
     transform="translate(-191.70143,-705.91309)">
    <g
       id="g202">
      <rect
         style="fill:#ffffff;stroke-width:0.927255"
         id="rect200"
         width="488.39288"
         height="117.6722"
         x="191.70143"
         y="705.91309" />
      <g
         id="g198">
        <path
           id="path50"
           d="M 0,0 V -12.001 -24 H 42.249 V -12.001 0 Z"
           style="fill:#d7cfec;fill-opacity:1;fill-rule:nonzero;stroke:none"
           transform="matrix(1.3333333,0,0,-1.3333333,437.95987,718.60233)" />
        <path
           id="path51"
           d="M 0,0 V 12 24 H -42.249 V 12 0 Z"
           style="fill:none;stroke:#231f20;stroke-width:0.75;stroke-linecap:butt;stroke-linejoin:miter;stroke-miterlimit:4;stroke-dasharray:none;stroke-opacity:1"
           transform="matrix(1.3333333,0,0,-1.3333333,494.29187,750.60233)"
           clip-path="url(#clipPath52)" />
        <path
           id="path53"
           d="M 0,0 V -12 -23.999 H 42.25 V -12 0 Z"
           style="fill:#d7cfec;fill-opacity:1;fill-rule:nonzero;stroke:none"
           transform="matrix(1.3333333,0,0,-1.3333333,349.94707,718.60353)" />
        <path
           id="path54"
           d="m 0,0 v 11.999 12 h -42.25 v -12 V 0 Z"
           style="fill:none;stroke:#231f20;stroke-width:0.75;stroke-linecap:butt;stroke-linejoin:miter;stroke-miterlimit:4;stroke-dasharray:none;stroke-opacity:1"
           transform="matrix(1.3333333,0,0,-1.3333333,406.27987,750.60233)"
           clip-path="url(#clipPath55)" />
        <path
           id="path56"
           d="M 0,0 V -12.001 -24 H 42.25 V -12.001 0 Z"
           style="fill:#d7cfec;fill-opacity:1;fill-rule:nonzero;stroke:none"
           transform="matrix(1.3333333,0,0,-1.3333333,525.95707,718.60233)" />
        <path
           id="path57"
           d="M 0,0 V 12 24 H -42.25 V 12 0 Z"
           style="fill:#d7cfec;fill-opacity:1;fill-rule:nonzero;stroke:#231f20;stroke-width:0.75;stroke-linecap:butt;stroke-linejoin:miter;stroke-miterlimit:4;stroke-dasharray:none;stroke-opacity:1;paint-order:stroke fill markers"
           transform="matrix(1.3333333,0,0,-1.3333333,582.29053,750.60233)"
           clip-path="url(#clipPath58)" />
        <path
           id="path59"
           d="M 0,0 V 12 24 H -42.25 V 12 0 Z"
           style="fill:none;stroke:#231f20;stroke-width:0.75;stroke-linecap:butt;stroke-linejoin:miter;stroke-miterlimit:4;stroke-dasharray:none;stroke-opacity:1"
           transform="matrix(1.3333333,0,0,-1.3333333,494.29187,809.09993)"
           clip-path="url(#clipPath60)" />
        <path
           id="path61"
           d="m 0.1276625,-5.2954109 v 0.1523437 l 0.0585938,0.011719 c 0.52734375,0.070312 0.609375,0.1523437 0.609375,0.703125 v 3.59765621 c 0,0.3046875 -0.0234375,0.43359375 -0.10546875,0.515625 -0.09375,0.09375 -0.22265625,0.12890625 -0.50390625,0.15234375 l -0.0585938,0.0117188 v 0.1523435 H 2.3659438 V -0.15087969 H 2.30735 c -0.5742187,0 -0.6914062,-0.15234375 -0.6914062,-0.71484375 V -2.3305672 H 1.6511 c 0.140625,0.023437 0.328125,0.023437 0.4804688,0.023437 0.8789062,0 1.3359375,-0.1289062 1.734375,-0.4804687 0.3164062,-0.28125 0.46875,-0.6445313 0.46875,-1.0664063 0,-0.890625 -0.7851563,-1.4414062 -2.0976563,-1.4414062 z m 1.4882813,2.6484375 v -2.0859375 c 0,-0.2226563 0.046875,-0.2695313 0.2929687,-0.2695313 1.0546875,0 1.5585938,0.3867188 1.5585938,1.1835938 0,0.796875 -0.46875,1.1953125 -1.40625,1.1953125 -0.1523438,0 -0.3046875,-0.011719 -0.4453125,-0.023437 z m 2.868164,2.64843746 h 1.921875 v -0.1171875 h -0.046875 c -0.4921875,0 -0.6328125,-0.1640625 -0.6328125,-0.59765625 V -2.5180672 c 0,-0.140625 0.1171875,-0.3515625 0.28125,-0.515625 0.09375,-0.082031 0.1992188,-0.140625 0.2695313,-0.140625 0.058594,0 0.1054687,0.035156 0.1757812,0.082031 l 0.082031,0.070312 c 0.1054687,0.082031 0.1875,0.1289062 0.28125,0.1289062 0.1992187,0 0.3164062,-0.140625 0.3164062,-0.3632812 0,-0.2578125 -0.1757812,-0.421875 -0.4335937,-0.421875 -0.2226563,0 -0.4101563,0.082031 -0.5742188,0.2578125 -0.1289062,0.1289062 -0.1992187,0.1992187 -0.375,0.46875 h -0.023437 v -0.7148438 l -0.035156,-0.011719 -0.070312,0.035156 c -0.2460938,0.1054688 -0.421875,0.1640625 -0.6796875,0.2460938 -0.1289063,0.058594 -0.2578125,0.082031 -0.3632813,0.1289062 l -0.070312,0.023437 v 0.1289063 c 0.1054688,-0.023437 0.1757813,-0.035156 0.28125,-0.035156 0.1992188,0 0.2695313,0.1289063 0.2695313,0.4804688 v 2.00390621 c 0,0.38671875 -0.070312,0.46875 -0.515625,0.5390625 l -0.058594,0.0117188 z M 9.0807875,-3.6782234 c -1.0078125,0 -1.734375,0.7851562 -1.734375,1.8632812 0,1.10156251 0.7382813,1.89843751 1.7460938,1.89843751 1.0078127,0 1.7812497,-0.84375 1.7812497,-1.95703121 0,-1.0664063 -0.738281,-1.8046875 -1.7929685,-1.8046875 z m 0.140625,3.53906246 c -0.3398437,0 -0.6210937,-0.17578125 -0.8085937,-0.515625 C 8.1901625,-1.0649422 8.0612563,-1.6157234 8.0612563,-2.1665047 c 0,-0.796875 0.375,-1.2890625 0.9492187,-1.2890625 0.6679688,0 1.148438,0.7734375 1.148438,1.8515625 0,0.91406251 -0.3632817,1.46484376 -0.9375005,1.46484376 z M 14.298561,-1.2524422 c -0.210938,0.30468751 -0.246094,0.35156251 -0.421875,0.50390626 -0.175781,0.15234375 -0.445313,0.2578125 -0.703125,0.2578125 -0.738281,0 -1.242188,-0.64453126 -1.242188,-1.54687496 0,-0.84375 0.433594,-1.40625 1.078125,-1.40625 0.152344,0 0.292969,0.035156 0.363282,0.1054687 0.04687,0.058594 0.07031,0.1289063 0.128906,0.3398438 0.09375,0.3398437 0.210937,0.4804687 0.421875,0.4804687 0.199219,0 0.375,-0.1523437 0.375,-0.3515625 0,-0.4453125 -0.5625,-0.8085937 -1.230469,-0.8085937 -0.996094,0 -1.757812,0.8554687 -1.757812,1.9804687 0,1.03125001 0.632812,1.78125001 1.535156,1.78125001 0.445312,0 0.878906,-0.22265625 1.183594,-0.62109375 0.128906,-0.17578125 0.1875,-0.28125 0.375,-0.63281246 z m 3.635742,-0.058594 c -0.386719,0.60937496 -0.726562,0.84374996 -1.242187,0.84374996 -0.527344,0 -0.960938,-0.3515625 -1.136719,-0.93749996 -0.07031,-0.234375 -0.09375,-0.3632813 -0.140625,-0.8085938 h 2.496094 c -0.08203,-0.5390625 -0.152344,-0.7734375 -0.351563,-1.0078125 -0.246094,-0.3046875 -0.609375,-0.4570312 -1.03125,-0.4570312 -0.984375,0 -1.664062,0.796875 -1.664062,1.96875 0,1.10156246 0.574218,1.79296871 1.5,1.79296871 0.761718,0 1.359375,-0.46875 1.699218,-1.33593751 z m -0.84375,-1.1601563 h -1.652344 c 0.07031,-0.3046875 0.09375,-0.3867187 0.1875,-0.5507812 0.140625,-0.2460938 0.375,-0.375 0.691407,-0.375 0.304687,0 0.527343,0.1289062 0.632812,0.375 0.07031,0.1640625 0.09375,0.2226562 0.140625,0.5507812 z m 3.644531,-0.035156 -0.03516,-1.1015625 h -0.08203 c -0.04687,0.058594 -0.09375,0.082031 -0.140625,0.082031 -0.03516,0 -0.08203,0 -0.164063,-0.035156 l -0.117187,-0.035156 c -0.164063,-0.058594 -0.316406,-0.082031 -0.46875,-0.082031 -0.644531,0 -1.101563,0.4101562 -1.101563,0.9960937 0,0.2460938 0.08203,0.46875 0.257813,0.65625 0.152344,0.1640625 0.328125,0.2929688 0.679687,0.4921875 l 0.457032,0.2578125 c 0.28125,0.1640625 0.421875,0.35156251 0.421875,0.60937501 0,0.3515625 -0.257813,0.57421875 -0.667969,0.57421875 -0.28125,0 -0.550781,-0.1171875 -0.691406,-0.328125 -0.175782,-0.2109375 -0.222657,-0.328125 -0.328125,-0.79687496 h -0.117188 v 1.25390621 h 0.09375 c 0.05859,-0.08203125 0.09375,-0.09375 0.1875,-0.09375 0.08203,0 0.164063,0.01171875 0.304688,0.046875 l 0.140625,0.0234375 c 0.175781,0.046875 0.351562,0.0703125 0.46875,0.0703125 0.667968,0 1.171875,-0.4453125 1.171875,-1.04296875 0,-0.38671876 -0.1875,-0.64453126 -0.679688,-0.93749996 l -0.855469,-0.515625 c -0.234375,-0.1289063 -0.351562,-0.328125 -0.351562,-0.5507813 0,-0.3046875 0.246094,-0.5273437 0.609375,-0.5273437 0.292969,0 0.515625,0.1171875 0.65625,0.3632812 0.105469,0.1640625 0.140625,0.2695313 0.234375,0.6210938 z m 3.111329,0 -0.03516,-1.1015625 h -0.08203 c -0.04687,0.058594 -0.09375,0.082031 -0.140625,0.082031 -0.03516,0 -0.08203,0 -0.164062,-0.035156 l -0.117188,-0.035156 c -0.164062,-0.058594 -0.316406,-0.082031 -0.46875,-0.082031 -0.644531,0 -1.101562,0.4101562 -1.101562,0.9960937 0,0.2460938 0.08203,0.46875 0.257812,0.65625 0.152344,0.1640625 0.328125,0.2929688 0.679688,0.4921875 l 0.457031,0.2578125 c 0.28125,0.1640625 0.421875,0.35156251 0.421875,0.60937501 0,0.3515625 -0.257813,0.57421875 -0.667969,0.57421875 -0.28125,0 -0.550781,-0.1171875 -0.691406,-0.328125 -0.175781,-0.2109375 -0.222656,-0.328125 -0.328125,-0.79687496 h -0.117188 v 1.25390621 h 0.09375 c 0.05859,-0.08203125 0.09375,-0.09375 0.1875,-0.09375 0.08203,0 0.164063,0.01171875 0.304688,0.046875 l 0.140625,0.0234375 c 0.175781,0.046875 0.351562,0.0703125 0.46875,0.0703125 0.667969,0 1.171875,-0.4453125 1.171875,-1.04296875 0,-0.38671876 -0.1875,-0.64453126 -0.679688,-0.93749996 l -0.855468,-0.515625 c -0.234375,-0.1289063 -0.351563,-0.328125 -0.351563,-0.5507813 0,-0.3046875 0.246094,-0.5273437 0.609375,-0.5273437 0.292969,0 0.515625,0.1171875 0.65625,0.3632812 0.105469,0.1640625 0.140625,0.2695313 0.234375,0.6210938 z m 0,0"
           style="fill:#231f20;fill-opacity:1;fill-rule:nonzero;stroke:none"
           aria-label="Process"
           transform="matrix(1.3333333,0,0,1.3333333,537.83053,738.22927)" />
        <path
           id="path62"
           d="m 5.6493266,4.875e-4 v -0.15234375 c -0.375,-0.0351563 -0.46875,-0.1171875 -0.7148438,-0.69140625 L 2.9422953,-5.3901375 H 2.7782328 l -1.6640625,3.9257812 c -0.31640624,0.7617188 -0.50390624,1.0898438 -0.66796874,1.21875005 -0.09375,0.0585938 -0.1640625,0.0820313 -0.328125,0.09375 V 4.875e-4 H 1.7001078 V -0.15185625 C 1.3251078,-0.163575 1.1610453,-0.257325 1.1610453,-0.4917 c 0,-0.0820313 0.023437,-0.19921875 0.058594,-0.3046875 l 0.375,-0.9375 h 2.0976562 l 0.328125,0.7734375 c 0.09375,0.22265625 0.1523438,0.421875 0.1523438,0.515625 0,0.2109375 -0.1289063,0.29296875 -0.4804688,0.29296875 H 3.6102641 V 4.875e-4 Z m -3.9140625,-2.0625 0.9140625,-2.1914063 0.9257812,2.1914063 z m 7.227539,0.8085937 C 8.7518656,-0.94873125 8.7167094,-0.90185625 8.5409281,-0.7495125 8.3651469,-0.59716875 8.0956156,-0.4917 7.8378031,-0.4917 c -0.7382812,0 -1.2421875,-0.6445313 -1.2421875,-1.546875 0,-0.84375 0.4335938,-1.40625 1.078125,-1.40625 0.1523438,0 0.2929688,0.035156 0.3632813,0.1054687 0.046875,0.058594 0.070312,0.1289063 0.1289062,0.3398438 0.09375,0.3398437 0.2109375,0.4804687 0.421875,0.4804687 0.1992188,0 0.375,-0.1523437 0.375,-0.3515625 0,-0.4453125 -0.5625,-0.8085937 -1.2304687,-0.8085937 -0.9960938,0 -1.7578125,0.8554687 -1.7578125,1.9804687 0,1.03125005 0.6328125,1.78125005 1.5351562,1.78125005 0.4453125,0 0.8789063,-0.22265625 1.1835938,-0.62109375 0.1289062,-0.17578125 0.1875,-0.28125 0.375,-0.6328125 z m 2.4990239,0.63281255 c -0.175782,0.1875 -0.328125,0.28125 -0.480469,0.28125 -0.292969,0 -0.421875,-0.17578125 -0.421875,-0.5859375 V -3.3393563 h 0.796875 v -0.2578125 h -0.796875 v -1.03125 h -0.08203 C 10.266514,-4.194825 9.9266703,-3.8081063 9.4344828,-3.444825 v 0.1054687 h 0.4570313 v 2.296875 c 0,0.4335938 0,0.5273438 0.070312,0.70312505 0.046875,0.12890625 0.1406249,0.234375 0.2578129,0.3046875 0.128906,0.0703125 0.269531,0.1171875 0.421875,0.1171875 0.351563,0 0.667969,-0.2109375 0.925781,-0.62109375 z m 3.430664,-2.97656255 h -1.265625 v 0.1289063 h 0.04687 c 0.445312,0 0.539062,0.1289062 0.539062,0.5039062 v 1.8867188 c 0,0.2578125 -0.03516,0.33984375 -0.199219,0.46875 -0.1875,0.140625 -0.421875,0.22265625 -0.621093,0.22265625 -0.339844,0 -0.597657,-0.2578125 -0.597657,-0.609375 V -3.5971688 h -1.17187 V -3.4917 c 0.375,0.023437 0.492188,0.1523437 0.492188,0.515625 v 2.015625 c 0,0.62109375 0.386719,1.04296875 0.960937,1.04296875 0.304688,0 0.621094,-0.12890625 0.832032,-0.3515625 L 14.259678,-0.6088875 V 0.05908125 L 14.271397,0.0708 14.341709,0.0473625 c 0.492188,-0.1640625 0.527344,-0.1875 0.714844,-0.24609375 0.08203,-0.0117188 0.164063,-0.0351563 0.246094,-0.0703125 l 0.08203,-0.0234375 V -0.39795 h -0.03516 c -0.375,0 -0.457031,-0.09375 -0.457031,-0.45703125 z m 4.198242,3.07031255 c -0.140625,0.10546875 -0.234375,0.15234375 -0.351563,0.15234375 -0.1875,0 -0.246093,-0.10546875 -0.246093,-0.46875 v -1.5585938 c 0,-0.5039062 -0.07031,-0.7734375 -0.257813,-0.9726562 C 18.036045,-3.5737313 17.731358,-3.6792 17.33292,-3.6792 c -0.738281,0 -1.335937,0.3867187 -1.335937,0.890625 0,0.1875 0.152344,0.3515625 0.351562,0.3515625 0.1875,0 0.351563,-0.1640625 0.351563,-0.3515625 0,-0.023437 0,-0.035156 -0.01172,-0.09375 -0.01172,-0.1054688 -0.02344,-0.1640625 -0.02344,-0.2109375 0,-0.2226563 0.246093,-0.3984375 0.574218,-0.3984375 0.398438,0 0.609375,0.2460937 0.609375,0.6679687 v 0.4921875 l -0.175781,0.070312 c -0.773437,0.3046875 -1.042969,0.421875 -1.3125,0.609375 -0.105469,0.070312 -0.199219,0.1523438 -0.28125,0.2460938 -0.164062,0.1875 -0.234375,0.3867187 -0.234375,0.64453125 0,0.4921875 0.351563,0.84375 0.84375,0.84375 0.351563,0 0.691406,-0.17578125 1.171875,-0.5859375 0.03516,0.41015625 0.1875,0.5859375 0.503906,0.5859375 0.28125,0 0.433594,-0.09375 0.726563,-0.3984375 z M 17.848545,-2.1440438 v 1.1601563 c 0,0.22265625 -0.03516,0.3046875 -0.152343,0.38671875 -0.1875,0.12890625 -0.445313,0.2109375 -0.644532,0.2109375 -0.28125,0 -0.503906,-0.26953125 -0.503906,-0.63281255 0,-0.328125 0.1875,-0.5976562 0.5625,-0.8085937 0.210938,-0.1171875 0.28125,-0.140625 0.738281,-0.3164063 z m 1.420899,2.1445313 h 1.898437 V -0.1167 h -0.05859 c -0.445313,0 -0.550782,-0.12890625 -0.550782,-0.55078125 V -5.4487313 l -0.02344,-0.011719 -0.08203,0.023437 c -0.28125,0.082031 -0.410157,0.1171875 -0.667969,0.1875 -0.164063,0.035156 -0.316406,0.082031 -0.445313,0.1171875 l -0.08203,0.023437 V -4.9917 h 0.02344 c 0.140625,-0.011719 0.199218,-0.011719 0.269531,-0.011719 0.269531,0 0.339844,0.1054688 0.339844,0.4921875 v 3.82031255 c 0,0.41015625 -0.117188,0.52734375 -0.574219,0.5625 L 19.269444,-0.1167 Z M 2.4090922,6.3198234 c -1.0078125,0 -1.73437501,0.7851563 -1.73437501,1.8632813 0,1.1015625 0.73828121,1.8984373 1.74609371,1.8984373 1.0078125,0 1.78125,-0.8437498 1.78125,-1.9570311 0,-1.0664062 -0.7382812,-1.8046875 -1.7929687,-1.8046875 z m 0.140625,3.5390625 c -0.3398438,0 -0.6210938,-0.1757812 -0.8085938,-0.515625 C 1.5184672,8.9331047 1.3895609,8.3823234 1.3895609,7.8315422 c 0,-0.796875 0.375,-1.2890625 0.9492188,-1.2890625 0.6679687,0 1.1484375,0.7734375 1.1484375,1.8515625 0,0.9140625 -0.3632813,1.4648437 -0.9375,1.4648437 z M 7.7792094,6.4018547 h -1.265625 v 0.1289062 h 0.046875 c 0.4453125,0 0.5390625,0.1289063 0.5390625,0.5039063 v 1.8867187 c 0,0.2578125 -0.035156,0.3398438 -0.1992188,0.46875 -0.1875,0.140625 -0.421875,0.2226563 -0.6210937,0.2226563 -0.3398438,0 -0.5976563,-0.2578125 -0.5976563,-0.609375 V 6.4018547 h -1.171875 v 0.1054687 c 0.375,0.023437 0.4921875,0.1523438 0.4921875,0.515625 v 2.015625 c 0,0.6210938 0.3867188,1.0429686 0.9609375,1.0429686 0.3046875,0 0.6210938,-0.1289061 0.8320313,-0.3515623 L 7.1463969,9.3901359 v 0.6679691 l 0.011719,0.01172 0.070312,-0.02344 c 0.4921877,-0.1640616 0.527344,-0.1874991 0.714844,-0.2460928 0.082031,-0.011719 0.1640625,-0.035156 0.2460937,-0.070312 l 0.082031,-0.023437 V 9.6010734 h -0.035156 c -0.375,0 -0.4570312,-0.09375 -0.4570312,-0.4570312 z m 2.7949216,2.9765625 c -0.175781,0.1875 -0.328125,0.28125 -0.480468,0.28125 -0.2929692,0 -0.4218755,-0.1757813 -0.4218755,-0.5859375 V 6.6596672 H 10.468663 V 6.4018547 H 9.6717875 v -1.03125 H 9.5897563 C 9.3788188,5.8041984 9.038975,6.1909172 8.5467875,6.5541984 v 0.1054688 h 0.4570313 v 2.296875 c 0,0.4335937 0,0.5273437 0.070312,0.703125 0.046875,0.1289062 0.140625,0.234375 0.2578125,0.3046875 0.1289062,0.070312 0.2695312,0.1171873 0.421875,0.1171873 0.3515627,0 0.6679697,-0.2109373 0.9257817,-0.6210936 z m 0.125977,2.3554688 h 1.945312 v -0.140625 h -0.05859 c -0.550782,0 -0.644532,-0.117188 -0.644532,-0.597656 V 9.7299797 c 0.28125,0.2695312 0.480469,0.3515623 0.808594,0.3515623 0.949219,0 1.675781,-0.9023436 1.675781,-2.0624998 0,-0.984375 -0.5625,-1.6992188 -1.335937,-1.6992188 -0.445313,0 -0.808594,0.1992188 -1.136719,0.609375 l -0.01172,-0.011719 V 6.3315422 l -0.05859,-0.011719 -0.07031,0.023437 C 11.485272,6.448729 11.110272,6.6010727 10.805585,6.7065415 l -0.07031,0.023437 v 0.1289062 c 0.01172,0 0.02344,0 0.05859,-0.011719 h 0.140625 c 0.269531,0 0.328125,0.082031 0.328125,0.4570312 V 11.04248 c 0,0.410156 -0.08203,0.480468 -0.503906,0.550781 l -0.05859,0.01172 z m 1.242187,-2.4375001 v -1.96875 c 0,-0.1171875 0.140625,-0.2929687 0.328125,-0.3984375 0.152344,-0.082031 0.328125,-0.1289062 0.480469,-0.1289062 0.597656,0 0.984375,0.609375 0.984375,1.5234375 0,0.9023437 -0.386719,1.5 -0.984375,1.5 -0.234375,0 -0.492187,-0.1054688 -0.65625,-0.2695313 -0.105469,-0.09375 -0.152344,-0.1875 -0.152344,-0.2578125 z m 6.061524,-2.8945312 h -1.265625 v 0.1289062 h 0.04687 c 0.445312,0 0.539062,0.1289063 0.539062,0.5039063 v 1.8867187 c 0,0.2578125 -0.03516,0.3398438 -0.199218,0.46875 -0.1875,0.140625 -0.421875,0.2226563 -0.621094,0.2226563 -0.339844,0 -0.597656,-0.2578125 -0.597656,-0.609375 V 6.4018547 h -1.171875 v 0.1054687 c 0.375,0.023437 0.492187,0.1523438 0.492187,0.515625 v 2.015625 c 0,0.6210938 0.386719,1.0429686 0.960938,1.0429686 0.304687,0 0.621093,-0.1289061 0.832031,-0.3515623 l 0.351562,-0.3398438 v 0.6679691 l 0.01172,0.01172 0.07031,-0.02344 c 0.492187,-0.1640626 0.527343,-0.1875001 0.714843,-0.2460938 0.08203,-0.011719 0.164063,-0.035156 0.246094,-0.070312 l 0.08203,-0.023437 V 9.6010734 h -0.03516 c -0.375,0 -0.457031,-0.09375 -0.457031,-0.4570312 z m 2.791992,2.9765625 c -0.175781,0.1875 -0.328125,0.28125 -0.480469,0.28125 -0.292969,0 -0.421875,-0.1757813 -0.421875,-0.5859375 V 6.6596672 h 0.796875 V 6.4018547 h -0.796875 v -1.03125 h -0.08203 c -0.210938,0.4335937 -0.550781,0.8203125 -1.042969,1.1835937 v 0.1054688 h 0.457031 v 2.296875 c 0,0.4335937 0,0.5273437 0.07031,0.703125 0.04687,0.1289062 0.140625,0.234375 0.257812,0.3046875 0.128907,0.070312 0.269532,0.1171873 0.421875,0.1171873 0.351563,0 0.667969,-0.2109373 0.925782,-0.6210936 z M -329.52743,-0.31884844 h 2.27344 c 1.89843,0 3.08203,-1.01953126 3.08203,-2.66015626 0,-1.6757812 -1.17188,-2.6367187 -3.19922,-2.6367187 h -2.15625 v 0.1523437 l 0.0586,0.011719 c 0.5625,0.070312 0.64453,0.1289062 0.64453,0.703125 v 3.5625 c 0,0.55078121 -0.11718,0.63281246 -0.64453,0.70312496 l -0.0586,0.0117188 z m 1.52344,-0.62109375 V -5.0063484 c 0,-0.2578125 0.082,-0.3164063 0.45703,-0.3164063 0.8789,0 1.46484,0.2226563 1.91015,0.7148438 0.39844,0.4335937 0.58594,0.9960937 0.58594,1.6992187 0,1.4882813 -0.85547,2.29687501 -2.46094,2.29687501 -0.41015,0 -0.49218,-0.0585938 -0.49218,-0.328125 z m 7.39453,-0.69140621 c -0.38672,0.609375 -0.72656,0.84374996 -1.24219,0.84374996 -0.52734,0 -0.96094,-0.35156246 -1.13672,-0.93749996 -0.0703,-0.234375 -0.0937,-0.3632813 -0.14062,-0.8085938 h 2.49609 c -0.082,-0.5390625 -0.15234,-0.7734375 -0.35156,-1.0078125 -0.2461,-0.3046875 -0.60938,-0.4570312 -1.03125,-0.4570312 -0.98438,0 -1.66406,0.796875 -1.66406,1.96875 0,1.10156246 0.57421,1.79296871 1.5,1.79296871 0.76171,0 1.35937,-0.46875 1.69921,-1.33593751 z m -0.84375,-1.1601563 h -1.65235 c 0.0703,-0.3046875 0.0937,-0.3867187 0.1875,-0.5507812 0.14063,-0.2460938 0.375,-0.375 0.69141,-0.375 0.30469,0 0.52734,0.1289062 0.63281,0.375 0.0703,0.1640625 0.0937,0.2226562 0.14063,0.5507812 z m 3.64453,-0.035156 -0.0352,-1.1015625 h -0.082 c -0.0469,0.058594 -0.0937,0.082031 -0.14062,0.082031 -0.0352,0 -0.082,0 -0.16407,-0.035156 l -0.11718,-0.035156 c -0.16407,-0.058594 -0.31641,-0.082031 -0.46875,-0.082031 -0.64453,0 -1.10157,0.4101562 -1.10157,0.9960937 0,0.2460938 0.082,0.46875 0.25782,0.65625 0.15234,0.1640625 0.32812,0.2929688 0.67968,0.4921875 l 0.45704,0.2578125 c 0.28125,0.1640625 0.42187,0.3515625 0.42187,0.60937501 0,0.3515625 -0.25781,0.57421875 -0.66797,0.57421875 -0.28125,0 -0.55078,-0.1171875 -0.6914,-0.328125 -0.17579,-0.2109375 -0.22266,-0.32812496 -0.32813,-0.79687496 h -0.11719 v 1.25390621 h 0.0937 c 0.0586,-0.0820313 0.0937,-0.09375 0.1875,-0.09375 0.082,0 0.16407,0.0117188 0.30469,0.046875 l 0.14063,0.0234375 c 0.17578,0.046875 0.35156,0.0703125 0.46875,0.0703125 0.66796,0 1.17187,-0.4453125 1.17187,-1.04296871 0,-0.3867188 -0.1875,-0.6445313 -0.67969,-0.9375 l -0.85547,-0.515625 c -0.23437,-0.1289063 -0.35156,-0.328125 -0.35156,-0.5507813 0,-0.3046875 0.2461,-0.5273437 0.60938,-0.5273437 0.29297,0 0.51562,0.1171875 0.65625,0.3632812 0.10547,0.1640625 0.14062,0.2695313 0.23437,0.6210938 z m 1.21289,-2.5546875 c 0,0.234375 0.17578,0.4101562 0.39844,0.4101562 0.24609,0 0.42187,-0.1757812 0.42187,-0.4101562 0,-0.2226563 -0.1875,-0.3984375 -0.42187,-0.3984375 -0.21094,0 -0.39844,0.1757812 -0.39844,0.3984375 z m -0.49219,5.06249996 h 1.89844 v -0.1171875 l -0.0586,-0.0117188 c -0.46875,-0.0585938 -0.53907,-0.12890625 -0.53907,-0.69140616 v -2.8359375 l -0.0234,-0.023437 -1.24219,0.4335937 v 0.1289063 h 0.0234 c 0.082,-0.023437 0.1289,-0.023437 0.15234,-0.023437 l 0.14062,-0.011719 c 0.21094,0 0.28125,0.1289063 0.28125,0.4804688 v 1.8515625 c 0,0.56249991 -0.0937,0.70312491 -0.57421,0.70312491 h -0.0586 z m 2.12988,0 h 1.92188 v -0.1171875 h -0.0469 c -0.49218,0 -0.63281,-0.1640625 -0.63281,-0.59765626 v -1.8046875 c 0,-0.140625 0.11719,-0.3515625 0.28125,-0.515625 0.0937,-0.082031 0.19922,-0.140625 0.26953,-0.140625 0.0586,0 0.10547,0.035156 0.17578,0.082031 l 0.082,0.070312 c 0.10546,0.082031 0.1875,0.1289062 0.28125,0.1289062 0.19921,0 0.3164,-0.140625 0.3164,-0.3632812 0,-0.2578125 -0.17578,-0.421875 -0.43359,-0.421875 -0.22266,0 -0.41016,0.082031 -0.57422,0.2578125 -0.12891,0.1289062 -0.19922,0.1992187 -0.375,0.46875 h -0.0234 v -0.7148438 l -0.0351,-0.011719 -0.0703,0.035156 c -0.24609,0.1054688 -0.42187,0.1640625 -0.67968,0.2460938 -0.12891,0.058594 -0.25782,0.082031 -0.36329,0.1289062 l -0.0703,0.023437 v 0.1289063 c 0.10547,-0.023437 0.17578,-0.035156 0.28125,-0.035156 0.19922,0 0.26953,0.1289063 0.26953,0.4804688 v 2.00390621 c 0,0.38671875 -0.0703,0.46875 -0.51562,0.5390625 l -0.0586,0.0117188 z m 5.9004,-1.31249996 c -0.38672,0.609375 -0.72657,0.84374996 -1.24219,0.84374996 -0.52735,0 -0.96094,-0.35156246 -1.13672,-0.93749996 -0.0703,-0.234375 -0.0937,-0.3632813 -0.14063,-0.8085938 h 2.4961 c -0.082,-0.5390625 -0.15235,-0.7734375 -0.35156,-1.0078125 -0.2461,-0.3046875 -0.60938,-0.4570312 -1.03125,-0.4570312 -0.98438,0 -1.66407,0.796875 -1.66407,1.96875 0,1.10156246 0.57422,1.79296871 1.5,1.79296871 0.76172,0 1.35938,-0.46875 1.69922,-1.33593751 z m -0.84375,-1.1601563 h -1.65235 c 0.0703,-0.3046875 0.0937,-0.3867187 0.1875,-0.5507812 0.14063,-0.2460938 0.375,-0.375 0.69141,-0.375 0.30469,0 0.52734,0.1289062 0.63281,0.375 0.0703,0.1640625 0.0937,0.2226562 0.14063,0.5507812 z m 5.05078,2.00390626 h -0.14063 l -0.082,0.0117188 c -0.23437,0 -0.30469,-0.10546875 -0.30469,-0.45703116 v -4.5351563 l -0.0469,-0.011719 -0.0703,0.023437 c -0.33985,0.1054687 -0.5625,0.1992187 -1.03125,0.3046875 l -0.0703,0.023437 v 0.1171875 h 0.0117 c 0.0703,0 0.0937,0 0.14063,0 0.32812,0 0.38672,0.070312 0.38672,0.4101562 v 1.2421875 c -0.30469,-0.2578125 -0.51563,-0.3398437 -0.83204,-0.3398437 -0.92578,0 -1.67578,0.9023437 -1.67578,2.0273437 0,1.03124996 0.59766,1.73437496 1.48828,1.73437496 0.4336,0 0.76172,-0.1640625 1.00782,-0.515625 h 0.0117 v 0.4921875 l 0.0351,0.0234375 0.0703,-0.0234375 0.33985,-0.1171875 0.35156,-0.12890625 0.33984,-0.12890625 0.0703,-0.0234375 z m -1.20703,-2.19140626 v 1.8398438 c 0,0.1054687 -0.12891,0.29296871 -0.28125,0.37499996 -0.12891,0.0703125 -0.28125,0.10546875 -0.4336,0.10546875 -0.65625,0 -1.10156,-0.64453121 -1.10156,-1.61718751 0,-0.9140625 0.39844,-1.5 0.99609,-1.5 0.4336,0 0.82032,0.375 0.82032,0.796875 z m 5.25,-1.0195312 c -1.00782,0 -1.73438,0.7851562 -1.73438,1.8632812 0,1.1015625 0.73828,1.89843751 1.74609,1.89843751 1.00782,0 1.78125,-0.84375001 1.78125,-1.95703121 0,-1.0664063 -0.73828,-1.8046875 -1.79296,-1.8046875 z m 0.14062,3.53906246 c -0.33984,0 -0.62109,-0.17578125 -0.80859,-0.515625 -0.22266,-0.41015626 -0.35157,-0.96093746 -0.35157,-1.51171876 0,-0.796875 0.375,-1.2890625 0.94922,-1.2890625 0.66797,0 1.14844,0.7734375 1.14844,1.8515625 0,0.9140625 -0.36328,1.46484376 -0.9375,1.46484376 z m 5.22949,-3.45703126 h -1.26562 v 0.1289063 h 0.0469 c 0.44532,0 0.53907,0.1289062 0.53907,0.5039062 v 1.8867188 c 0,0.2578125 -0.0352,0.3398437 -0.19922,0.46874996 -0.1875,0.140625 -0.42188,0.22265625 -0.6211,0.22265625 -0.33984,0 -0.59765,-0.2578125 -0.59765,-0.60937501 v -2.6015625 h -1.17188 v 0.1054688 c 0.375,0.023437 0.49219,0.1523437 0.49219,0.515625 v 2.015625 c 0,0.62109371 0.38672,1.04296871 0.96094,1.04296871 0.30468,0 0.62109,-0.12890625 0.83203,-0.3515625 l 0.35156,-0.33984375 v 0.66796875 l 0.0117,0.0117188 0.0703,-0.0234375 c 0.49219,-0.1640625 0.52735,-0.1875 0.71485,-0.24609375 0.082,-0.0117188 0.16406,-0.0351563 0.24609,-0.0703125 l 0.082,-0.0234375 v -0.10546875 h -0.0352 c -0.375,0 -0.45703,-0.09375 -0.45703,-0.45703121 z m 2.79492,2.97656251 c -0.17578,0.1875 -0.32812,0.28125 -0.48046,0.28125 -0.29297,0 -0.42188,-0.17578125 -0.42188,-0.58593751 V -3.658692 h 0.79688 v -0.2578125 h -0.79688 v -1.03125 h -0.082 c -0.21094,0.4335938 -0.55078,0.8203125 -1.04297,1.1835938 v 0.1054687 h 0.45703 v 2.296875 c 0,0.43359376 0,0.52734376 0.0703,0.70312501 0.0469,0.12890625 0.14063,0.234375 0.25782,0.3046875 0.1289,0.0703125 0.26953,0.1171875 0.42187,0.1171875 0.35156,0 0.66797,-0.2109375 0.92578,-0.62109375 z m 0.12598,2.35546879 h 1.94531 v -0.140625 h -0.0586 c -0.55078,0 -0.64453,-0.1171875 -0.64453,-0.59765629 v -1.265625 c 0.28125,0.26953125 0.48047,0.3515625 0.80859,0.3515625 0.94922,0 1.67578,-0.90234371 1.67578,-2.06250001 0,-0.984375 -0.5625,-1.6992187 -1.33593,-1.6992187 -0.44532,0 -0.8086,0.1992187 -1.13672,0.609375 l -0.0117,-0.011719 v -0.5859375 l -0.0586,-0.011719 -0.0703,0.023437 c -0.32812,0.1054687 -0.70312,0.2578125 -1.00781,0.3632812 l -0.0703,0.023437 v 0.1289063 c 0.0117,0 0.0234,0 0.0586,-0.011719 h 0.14063 c 0.26953,0 0.32812,0.082031 0.32812,0.4570313 v 3.73828121 c 0,0.41015629 -0.082,0.48046879 -0.50391,0.55078129 l -0.0586,0.011719 z m 1.24219,-2.4375 v -1.96875 c 0,-0.1171875 0.14062,-0.2929688 0.32812,-0.3984375 0.15235,-0.082031 0.32813,-0.1289063 0.48047,-0.1289063 0.59766,0 0.98438,0.609375 0.98438,1.5234375 0,0.9023438 -0.38672,1.50000001 -0.98438,1.50000001 -0.23437,0 -0.49219,-0.10546875 -0.65625,-0.26953125 -0.10547,-0.09375 -0.15234,-0.1875 -0.15234,-0.25781246 z m 6.06152,-2.8945313 h -1.26562 v 0.1289063 h 0.0469 c 0.44531,0 0.53906,0.1289062 0.53906,0.5039062 v 1.8867188 c 0,0.2578125 -0.0351,0.3398437 -0.19921,0.46874996 -0.1875,0.140625 -0.42188,0.22265625 -0.6211,0.22265625 -0.33984,0 -0.59765,-0.2578125 -0.59765,-0.60937501 v -2.6015625 h -1.17188 v 0.1054688 c 0.375,0.023437 0.49219,0.1523437 0.49219,0.515625 v 2.015625 c 0,0.62109371 0.38672,1.04296871 0.96094,1.04296871 0.30468,0 0.62109,-0.12890625 0.83203,-0.3515625 l 0.35156,-0.33984375 v 0.66796875 l 0.0117,0.0117188 0.0703,-0.0234375 c 0.49219,-0.1640625 0.52734,-0.1875 0.71484,-0.24609375 0.082,-0.0117188 0.16407,-0.0351563 0.2461,-0.0703125 l 0.082,-0.0234375 v -0.10546875 h -0.0352 c -0.375,0 -0.45703,-0.09375 -0.45703,-0.45703121 z m 2.79492,2.97656251 c -0.17578,0.1875 -0.32812,0.28125 -0.48046,0.28125 -0.29297,0 -0.42188,-0.17578125 -0.42188,-0.58593751 V -3.658692 h 0.79688 v -0.2578125 h -0.79688 v -1.03125 h -0.082 c -0.21094,0.4335938 -0.55078,0.8203125 -1.04297,1.1835938 v 0.1054687 h 0.45703 v 2.296875 c 0,0.43359376 0,0.52734376 0.0703,0.70312501 0.0469,0.12890625 0.14063,0.234375 0.25782,0.3046875 0.1289,0.0703125 0.26953,0.1171875 0.42187,0.1171875 0.35156,0 0.66797,-0.2109375 0.92578,-0.62109375 z m 0,0"
           style="fill:#24518e;fill-opacity:1;fill-rule:nonzero;stroke:none"
           aria-label="Actual&#10;output&#10;Desired output"
           transform="matrix(1.3333333,0,0,1.3333333,641.54253,731.5626)"
           clip-path="url(#clipPath63)" />
        <path
           id="path64"
           d="m 0.0357875,0.00110469 h 1.921875 v -0.1171875 h -0.046875 c -0.4921875,0 -0.6328125,-0.1640625 -0.6328125,-0.59765625 V -2.5184266 c 0,-0.140625 0.1171875,-0.3515625 0.28125,-0.515625 0.09375,-0.082031 0.1992188,-0.140625 0.2695313,-0.140625 0.058594,0 0.1054687,0.035156 0.1757812,0.082031 l 0.082031,0.070312 c 0.1054687,0.082031 0.1875,0.1289062 0.28125,0.1289062 0.1992187,0 0.3164062,-0.140625 0.3164062,-0.3632812 0,-0.2578125 -0.1757812,-0.421875 -0.4335937,-0.421875 -0.2226563,0 -0.4101563,0.082031 -0.5742188,0.2578125 -0.1289062,0.1289062 -0.1992187,0.1992187 -0.375,0.46875 H 1.277975 v -0.7148438 l -0.035156,-0.011719 -0.070312,0.035156 c -0.2460938,0.1054688 -0.42187505,0.1640625 -0.67968755,0.2460938 -0.12890625,0.058594 -0.2578125,0.082031 -0.36328125,0.1289062 l -0.0703125,0.023437 v 0.1289063 c 0.10546875,-0.023437 0.17578125,-0.035156 0.28125,-0.035156 0.19921875,0 0.26953125,0.1289063 0.26953125,0.4804688 v 2.00390624 c 0,0.38671875 -0.0703125,0.46875 -0.515625,0.5390625 L 0.0357875,-0.11608281 Z M 5.9332484,-1.3113953 c -0.3867187,0.60937499 -0.7265625,0.84374999 -1.2421875,0.84374999 -0.5273437,0 -0.9609375,-0.3515625 -1.1367187,-0.93749999 -0.070312,-0.234375 -0.09375,-0.3632813 -0.140625,-0.8085938 h 2.4960937 c -0.082031,-0.5390625 -0.1523437,-0.7734375 -0.3515625,-1.0078125 -0.2460937,-0.3046875 -0.609375,-0.4570312 -1.03125,-0.4570312 -0.984375,0 -1.6640625,0.796875 -1.6640625,1.96875 0,1.10156249 0.5742188,1.79296874 1.5,1.79296874 0.7617188,0 1.359375,-0.46875 1.6992188,-1.33593754 z m -0.84375,-1.1601563 H 3.4371547 c 0.070312,-0.3046875 0.09375,-0.3867187 0.1875,-0.5507812 0.140625,-0.2460938 0.375,-0.375 0.6914062,-0.375 0.3046875,0 0.5273438,0.1289062 0.6328125,0.375 0.070312,0.1640625 0.09375,0.2226562 0.140625,0.5507812 z m 3.647461,-0.035156 -0.035156,-1.1015625 h -0.082031 c -0.046875,0.058594 -0.09375,0.082031 -0.140625,0.082031 -0.035156,0 -0.082031,0 -0.1640625,-0.035156 l -0.1171875,-0.035156 c -0.1640625,-0.058594 -0.3164063,-0.082031 -0.46875,-0.082031 -0.6445313,0 -1.1015625,0.4101562 -1.1015625,0.9960937 0,0.2460938 0.082031,0.46875 0.2578125,0.65625 0.1523437,0.1640625 0.328125,0.2929688 0.6796875,0.4921875 l 0.4570312,0.2578125 c 0.28125,0.1640625 0.421875,0.35156254 0.421875,0.60937504 0,0.3515625 -0.2578125,0.57421875 -0.6679687,0.57421875 -0.28125,0 -0.5507813,-0.1171875 -0.6914063,-0.328125 -0.1757812,-0.2109375 -0.2226562,-0.328125 -0.328125,-0.79687499 h -0.117188 v 1.25390624 h 0.09375 c 0.058594,-0.08203125 0.09375,-0.09375 0.1875,-0.09375 0.082031,0 0.1640625,0.01171875 0.3046875,0.046875 l 0.140625,0.0234375 c 0.1757813,0.046875 0.3515625,0.0703125 0.46875,0.0703125 0.6679688,0 1.171875,-0.4453125 1.171875,-1.04296875 0,-0.38671879 -0.1875,-0.64453129 -0.6796875,-0.93749999 l -0.8554687,-0.515625 c -0.234375,-0.1289063 -0.3515625,-0.328125 -0.3515625,-0.5507813 0,-0.3046875 0.2460937,-0.5273437 0.609375,-0.5273437 0.2929687,0 0.515625,0.1171875 0.65625,0.3632812 0.1054687,0.1640625 0.140625,0.2695313 0.234375,0.6210938 z m 0.6269531,4.2421875 h 1.9453125 v -0.140625 h -0.05859 c -0.550781,0 -0.644531,-0.1171875 -0.644531,-0.59765626 v -1.265625 c 0.28125,0.26953125 0.480469,0.3515625 0.808594,0.3515625 0.949219,0 1.675781,-0.90234375 1.675781,-2.06250004 0,-0.984375 -0.5625,-1.6992187 -1.335937,-1.6992187 -0.445313,0 -0.808594,0.1992187 -1.136719,0.609375 l -0.01172,-0.011719 v -0.5859375 l -0.05859,-0.011719 -0.07031,0.023437 c -0.328125,0.1054687 -0.7031252,0.2578125 -1.0078127,0.3632812 l -0.070312,0.023437 v 0.1289063 c 0.011719,0 0.023437,0 0.058594,-0.011719 h 0.140625 c 0.2695313,0 0.328125,0.082031 0.328125,0.4570313 v 3.7382812 c 0,0.4101563 -0.082031,0.4804688 -0.5039062,0.5507813 l -0.058594,0.011719 z M 10.6061,-0.70202031 V -2.6707703 c 0,-0.1171875 0.140625,-0.2929688 0.328125,-0.3984375 0.152344,-0.082031 0.328125,-0.1289063 0.480469,-0.1289063 0.597656,0 0.984375,0.609375 0.984375,1.5234375 0,0.90234379 -0.386719,1.50000004 -0.984375,1.50000004 -0.234375,0 -0.492188,-0.10546875 -0.65625,-0.26953125 -0.105469,-0.09375 -0.152344,-0.1875 -0.152344,-0.2578125 z m 4.69043,-2.97656249 c -1.007813,0 -1.734375,0.7851562 -1.734375,1.8632812 0,1.10156254 0.738281,1.89843754 1.746093,1.89843754 1.007813,0 1.78125,-0.84375 1.78125,-1.95703124 0,-1.0664063 -0.738281,-1.8046875 -1.792968,-1.8046875 z m 0.140625,3.53906249 c -0.339844,0 -0.621094,-0.17578125 -0.808594,-0.515625 -0.222656,-0.41015629 -0.351563,-0.96093749 -0.351563,-1.51171879 0,-0.796875 0.375,-1.2890625 0.949219,-1.2890625 0.667969,0 1.148438,0.7734375 1.148438,1.8515625 0,0.91406254 -0.363282,1.46484379 -0.9375,1.46484379 z m 2.030273,0.140625 h 1.699219 v -0.1171875 h -0.03516 c -0.375,0 -0.492188,-0.140625 -0.492188,-0.421875 V -2.7879578 c 0.363281,-0.3398438 0.574219,-0.4570313 0.820313,-0.4570313 0.398437,0 0.585937,0.2578125 0.585937,0.7851563 v 1.66406249 c 0,0.2578125 -0.03516,0.4453125 -0.117187,0.5390625 -0.07031,0.09375 -0.164063,0.1171875 -0.386719,0.140625 v 0.1171875 h 1.664062 v -0.1171875 c -0.386718,-0.046875 -0.480468,-0.15234375 -0.480468,-0.52734375 V -2.4832703 c 0,-0.75 -0.351563,-1.1953125 -0.949219,-1.1953125 -0.1875,0 -0.398438,0.058594 -0.5625,0.1523437 -0.210938,0.1289063 -0.257813,0.1757813 -0.597656,0.4921875 v -0.6328125 l -0.05859,-0.011719 -0.07031,0.023437 c -0.28125,0.09375 -0.644531,0.2109375 -0.960937,0.3164062 l -0.07031,0.023437 v 0.1289063 c 0.105469,-0.023437 0.164063,-0.035156 0.234375,-0.035156 0.199219,0 0.28125,0.140625 0.28125,0.515625 v 1.99218754 c 0,0.43359375 -0.105468,0.52734375 -0.457031,0.5859375 l -0.04687,0.0117188 z m 6.38086,-2.50781249 -0.03516,-1.1015625 H 23.7311 c -0.04687,0.058594 -0.09375,0.082031 -0.140625,0.082031 -0.03516,0 -0.08203,0 -0.164062,-0.035156 l -0.117188,-0.035156 c -0.164062,-0.058594 -0.316406,-0.082031 -0.46875,-0.082031 -0.644531,0 -1.101562,0.4101562 -1.101562,0.9960937 0,0.2460938 0.08203,0.46875 0.257812,0.65625 0.152344,0.1640625 0.328125,0.2929688 0.679688,0.4921875 l 0.457031,0.2578125 c 0.28125,0.1640625 0.421875,0.35156254 0.421875,0.60937504 0,0.3515625 -0.257813,0.57421875 -0.667969,0.57421875 -0.28125,0 -0.550781,-0.1171875 -0.691406,-0.328125 -0.175781,-0.2109375 -0.222656,-0.328125 -0.328125,-0.79687499 h -0.117188 v 1.25390624 h 0.09375 c 0.05859,-0.08203125 0.09375,-0.09375 0.1875,-0.09375 0.08203,0 0.164063,0.01171875 0.304688,0.046875 l 0.140625,0.0234375 c 0.175781,0.046875 0.351562,0.0703125 0.46875,0.0703125 0.667969,0 1.171875,-0.4453125 1.171875,-1.04296875 0,-0.38671879 -0.1875,-0.64453129 -0.679688,-0.93749999 l -0.855468,-0.515625 C 22.348288,-2.5418641 22.2311,-2.7410828 22.2311,-2.9637391 c 0,-0.3046875 0.246094,-0.5273437 0.609375,-0.5273437 0.292969,0 0.515625,0.1171875 0.65625,0.3632812 0.105469,0.1640625 0.140625,0.2695313 0.234375,0.6210938 z m 3.861328,1.1953125 c -0.386719,0.60937499 -0.726563,0.84374999 -1.242188,0.84374999 -0.527344,0 -0.960937,-0.3515625 -1.136719,-0.93749999 -0.07031,-0.234375 -0.09375,-0.3632813 -0.140625,-0.8085938 h 2.496094 c -0.08203,-0.5390625 -0.152344,-0.7734375 -0.351562,-1.0078125 -0.246094,-0.3046875 -0.609375,-0.4570312 -1.03125,-0.4570312 -0.984375,0 -1.664063,0.796875 -1.664063,1.96875 0,1.10156249 0.574219,1.79296874 1.5,1.79296874 0.761719,0 1.359375,-0.46875 1.699219,-1.33593754 z m -0.84375,-1.1601563 h -1.652344 c 0.07031,-0.3046875 0.09375,-0.3867187 0.1875,-0.5507812 0.140625,-0.2460938 0.375,-0.375 0.691406,-0.375 0.304688,0 0.527344,0.1289062 0.632813,0.375 0.07031,0.1640625 0.09375,0.2226562 0.140625,0.5507812 z m 0,0"
           style="fill:#24518e;fill-opacity:1;fill-rule:nonzero;stroke:none"
           aria-label="response"
           transform="matrix(1.3333333,0,0,1.3333333,214.89053,744.47193)" />
        <path
           id="path65"
           d="M 5.6477328,-5.359375e-4 V -0.15287969 c -0.375,-0.0351563 -0.46875,-0.1171875 -0.7148437,-0.69140625 L 2.9407016,-5.3911609 H 2.7766391 l -1.6640625,3.9257812 c -0.31640629,0.76171876 -0.50390629,1.08984376 -0.66796879,1.21875001 -0.09375,0.0585938 -0.1640625,0.0820313 -0.328125,0.09375 V -5.359375e-4 H 1.6985141 V -0.15287969 c -0.375,-0.0117188 -0.5390625,-0.10546875 -0.5390625,-0.33984375 0,-0.0820313 0.023437,-0.19921875 0.058594,-0.3046875 l 0.375,-0.93749996 h 2.0976563 l 0.328125,0.77343746 c 0.09375,0.22265625 0.1523437,0.421875 0.1523437,0.515625 0,0.2109375 -0.1289062,0.29296875 -0.4804687,0.29296875 H 3.6086703 V -5.359375e-4 Z M 1.7336703,-2.0630359 2.6477328,-4.2544422 3.5735141,-2.0630359 Z m 7.2304688,0.8085937 c -0.2109375,0.30468751 -0.2460938,0.35156251 -0.421875,0.50390626 -0.1757813,0.15234375 -0.4453125,0.2578125 -0.703125,0.2578125 -0.7382813,0 -1.2421875,-0.64453126 -1.2421875,-1.54687496 0,-0.84375 0.4335937,-1.40625 1.078125,-1.40625 0.1523437,0 0.2929687,0.035156 0.3632812,0.1054687 0.046875,0.058594 0.070312,0.1289063 0.1289063,0.3398438 0.09375,0.3398437 0.2109375,0.4804687 0.421875,0.4804687 0.1992187,0 0.375,-0.1523437 0.375,-0.3515625 0,-0.4453125 -0.5625,-0.8085937 -1.2304688,-0.8085937 -0.9960937,0 -1.7578125,0.8554687 -1.7578125,1.9804687 0,1.03125001 0.6328125,1.78125001 1.5351563,1.78125001 0.4453125,0 0.8789062,-0.22265625 1.1835937,-0.62109375 0.1289063,-0.17578125 0.1875,-0.28125 0.375,-0.63281246 z m 2.4960939,0.63281251 c -0.175781,0.1875 -0.328125,0.28125 -0.480469,0.28125 -0.292969,0 -0.421875,-0.17578125 -0.421875,-0.5859375 V -3.3403797 h 0.796875 v -0.2578125 h -0.796875 v -1.03125 h -0.08203 c -0.210938,0.4335938 -0.5507814,0.8203125 -1.0429689,1.1835938 v 0.1054687 h 0.4570312 v 2.296875 c 0,0.43359376 0,0.52734376 0.070312,0.70312501 0.046875,0.12890625 0.1406257,0.234375 0.2578127,0.3046875 0.128907,0.0703125 0.269532,0.1171875 0.421875,0.1171875 0.351563,0 0.667969,-0.2109375 0.925782,-0.62109375 z m 3.430664,-2.97656251 h -1.265625 v 0.1289063 h 0.04687 c 0.445312,0 0.539062,0.1289062 0.539062,0.5039062 v 1.8867188 c 0,0.25781246 -0.03516,0.33984371 -0.199218,0.46874996 -0.1875,0.140625 -0.421875,0.22265625 -0.621094,0.22265625 -0.339844,0 -0.597656,-0.2578125 -0.597656,-0.609375 V -3.5981922 h -1.171875 v 0.1054688 c 0.375,0.023437 0.492187,0.1523437 0.492187,0.515625 v 2.01562496 c 0,0.62109375 0.386719,1.04296875 0.960938,1.04296875 0.304687,0 0.621093,-0.12890625 0.832031,-0.3515625 l 0.351562,-0.33984375 v 0.66796875 l 0.01172,0.01171875 0.07031,-0.0234375 c 0.492187,-0.1640625 0.527343,-0.1875 0.714843,-0.24609375 0.08203,-0.0117188 0.164063,-0.0351563 0.246094,-0.0703125 l 0.08203,-0.0234375 v -0.10546875 h -0.03516 c -0.375,0 -0.457031,-0.09375 -0.457031,-0.45703125 z m 4.201172,3.07031251 c -0.140625,0.10546875 -0.234375,0.15234375 -0.351563,0.15234375 -0.1875,0 -0.246093,-0.10546875 -0.246093,-0.46875 V -2.4028797 c 0,-0.5039062 -0.07031,-0.7734375 -0.257813,-0.9726562 -0.199219,-0.1992188 -0.503906,-0.3046875 -0.902344,-0.3046875 -0.738281,0 -1.335937,0.3867187 -1.335937,0.890625 0,0.1875 0.152344,0.3515625 0.351562,0.3515625 0.1875,0 0.351563,-0.1640625 0.351563,-0.3515625 0,-0.023437 0,-0.035156 -0.01172,-0.09375 -0.01172,-0.1054688 -0.02344,-0.1640625 -0.02344,-0.2109375 0,-0.2226563 0.246093,-0.3984375 0.574218,-0.3984375 0.398438,0 0.609375,0.2460937 0.609375,0.6679687 v 0.4921875 l -0.175781,0.070312 c -0.773437,0.3046875 -1.042969,0.421875 -1.3125,0.609375 -0.105469,0.070312 -0.199219,0.1523438 -0.28125,0.2460938 -0.164062,0.1875 -0.234375,0.3867187 -0.234375,0.64453121 0,0.4921875 0.351563,0.84375 0.84375,0.84375 0.351563,0 0.691406,-0.17578125 1.171875,-0.5859375 0.03516,0.41015625 0.1875,0.5859375 0.503906,0.5859375 0.28125,0 0.433594,-0.09375 0.726563,-0.3984375 z M 17.849881,-2.1450672 v 1.16015626 c 0,0.22265625 -0.03516,0.3046875 -0.152343,0.38671875 -0.1875,0.12890625 -0.445313,0.2109375 -0.644532,0.2109375 -0.28125,0 -0.503906,-0.26953125 -0.503906,-0.63281251 0,-0.328125 0.1875,-0.5976562 0.5625,-0.8085937 0.210938,-0.1171875 0.28125,-0.140625 0.738281,-0.3164063 z m 3.386719,1.52343751 c -0.175781,0.1875 -0.328125,0.28125 -0.480469,0.28125 -0.292968,0 -0.421875,-0.17578125 -0.421875,-0.5859375 V -3.3403797 h 0.796875 v -0.2578125 h -0.796875 v -1.03125 h -0.08203 c -0.210937,0.4335938 -0.550781,0.8203125 -1.042969,1.1835938 v 0.1054687 h 0.457032 v 2.296875 c 0,0.43359376 0,0.52734376 0.07031,0.70312501 0.04687,0.12890625 0.140625,0.234375 0.257813,0.3046875 0.128906,0.0703125 0.269531,0.1171875 0.421875,0.1171875 0.351562,0 0.667968,-0.2109375 0.925781,-0.62109375 z m 2.05957,-3.05859371 c -1.007812,0 -1.734375,0.7851562 -1.734375,1.8632812 0,1.10156251 0.738282,1.89843751 1.746094,1.89843751 1.007813,0 1.78125,-0.84375 1.78125,-1.95703121 0,-1.0664063 -0.738281,-1.8046875 -1.792969,-1.8046875 z m 0.140625,3.53906246 c -0.339843,0 -0.621093,-0.17578125 -0.808593,-0.515625 -0.222657,-0.41015626 -0.351563,-0.96093746 -0.351563,-1.51171876 0,-0.796875 0.375,-1.2890625 0.949219,-1.2890625 0.667969,0 1.148437,0.7734375 1.148437,1.8515625 0,0.91406251 -0.363281,1.46484376 -0.9375,1.46484376 z m 1.927735,0.1406250025 h 1.921875 V -0.11772344 h -0.04687 c -0.492188,0 -0.632813,-0.1640625 -0.632813,-0.59765625 V -2.5200672 c 0,-0.140625 0.117188,-0.3515625 0.28125,-0.515625 0.09375,-0.082031 0.199219,-0.140625 0.269531,-0.140625 0.05859,0 0.105469,0.035156 0.175782,0.082031 l 0.08203,0.070312 c 0.105469,0.082031 0.1875,0.1289062 0.28125,0.1289062 0.199219,0 0.316406,-0.140625 0.316406,-0.3632812 0,-0.2578125 -0.175781,-0.421875 -0.433594,-0.421875 -0.222656,0 -0.410156,0.082031 -0.574218,0.2578125 -0.128907,0.1289062 -0.199219,0.1992187 -0.375,0.46875 h -0.02344 v -0.7148438 l -0.03516,-0.011719 -0.07031,0.035156 c -0.246093,0.1054688 -0.421875,0.1640625 -0.679687,0.2460938 -0.128906,0.058594 -0.257813,0.082031 -0.363281,0.1289062 l -0.07031,0.023437 v 0.1289063 c 0.105469,-0.023437 0.175781,-0.035156 0.28125,-0.035156 0.199219,0 0.269531,0.1289063 0.269531,0.4804688 v 2.00390621 c 0,0.38671875 -0.07031,0.46875 -0.515625,0.5390625 l -0.05859,0.0117188 z M -90.993869,-7.8608875 h -0.222656 c -0.175781,0.3515625 -0.234375,0.4570313 -0.375,0.5976563 -0.08203,0.1054687 -0.199219,0.1992187 -0.328125,0.2578125 -0.28125,0.1523437 -0.5625,0.1875 -1.207031,0.1875 -0.667969,0 -0.902344,-0.011719 -0.984375,-0.082031 -0.04687,-0.058594 -0.05859,-0.082031 -0.05859,-0.2578125 v -1.9804687 l 1.230469,0.011719 c 0.644531,0.011719 0.808594,0.1054688 0.878906,0.703125 l 0.01172,0.058594 h 0.175781 v -1.8515621 h -0.175781 l -0.01172,0.05859 c -0.07031,0.5859368 -0.246094,0.7031243 -0.878906,0.7031243 h -1.230469 V -11.23589 c 0,-0.222657 0.04687,-0.269532 0.269531,-0.269532 h 1.078125 c 0.867188,0 1.078125,0.128907 1.195313,0.761719 l 0.02344,0.08203 h 0.199219 l -0.02344,-1.148437 h -4.253907 v 0.152344 l 0.05859,0.01172 c 0.527344,0.07031 0.644531,0.164063 0.644531,0.703125 v 3.5625001 c 0,0.5390625 -0.128906,0.6328125 -0.644531,0.703125 l -0.05859,0.011719 v 0.1523438 h 4.324219 z m 0.140625,1.3476563 h 1.921875 v -0.1171875 h -0.04687 c -0.492187,0 -0.632812,-0.1640625 -0.632812,-0.5976563 v -1.8046875 c 0,-0.140625 0.117187,-0.3515625 0.28125,-0.515625 0.09375,-0.082031 0.199219,-0.140625 0.269531,-0.140625 0.05859,0 0.105469,0.035156 0.175781,0.082031 l 0.08203,0.070312 c 0.105468,0.082031 0.1875,0.1289062 0.28125,0.1289062 0.199218,0 0.316406,-0.140625 0.316406,-0.3632812 0,-0.2578125 -0.175781,-0.4218755 -0.433594,-0.4218755 -0.222656,0 -0.410156,0.08203 -0.574219,0.257813 -0.128906,0.1289062 -0.199218,0.1992187 -0.375,0.46875 h -0.02344 V -10.1812 l -0.03516,-0.01172 -0.07031,0.03516 c -0.246094,0.105468 -0.421875,0.164062 -0.679687,0.2460933 -0.128907,0.058594 -0.257813,0.082031 -0.363282,0.1289062 l -0.07031,0.023437 v 0.1289063 c 0.105469,-0.023437 0.175781,-0.035156 0.28125,-0.035156 0.199219,0 0.269531,0.1289063 0.269531,0.4804688 V -7.1812 c 0,0.3867188 -0.07031,0.46875 -0.515625,0.5390625 l -0.05859,0.011719 z m 2.663086,0 h 1.921875 v -0.1171875 h -0.04687 c -0.492187,0 -0.632812,-0.1640625 -0.632812,-0.5976563 v -1.8046875 c 0,-0.140625 0.117187,-0.3515625 0.28125,-0.515625 0.09375,-0.082031 0.199218,-0.140625 0.269531,-0.140625 0.05859,0 0.105469,0.035156 0.175781,0.082031 l 0.08203,0.070312 c 0.105469,0.082031 0.1875,0.1289062 0.28125,0.1289062 0.199219,0 0.316407,-0.140625 0.316407,-0.3632812 0,-0.2578125 -0.175782,-0.4218755 -0.433594,-0.4218755 -0.222656,0 -0.410156,0.08203 -0.574219,0.257813 -0.128906,0.1289062 -0.199219,0.1992187 -0.375,0.46875 h -0.02344 V -10.1812 l -0.03516,-0.01172 -0.07031,0.03516 c -0.246094,0.105468 -0.421875,0.164062 -0.679688,0.2460933 -0.128906,0.058594 -0.257812,0.082031 -0.363281,0.1289062 l -0.07031,0.023437 v 0.1289063 c 0.105468,-0.023437 0.175781,-0.035156 0.28125,-0.035156 0.199218,0 0.269531,0.1289063 0.269531,0.4804688 V -7.1812 c 0,0.3867188 -0.07031,0.46875 -0.515625,0.5390625 l -0.05859,0.011719 z m 4.59961,-3.6796878 c -1.007813,0 -1.734375,0.7851565 -1.734375,1.8632815 0,1.1015625 0.738281,1.8984375 1.746093,1.8984375 1.007813,0 1.78125,-0.84375 1.78125,-1.9570312 0,-1.0664063 -0.738281,-1.8046878 -1.792968,-1.8046878 z m 0.140625,3.5390628 c -0.339844,0 -0.621094,-0.1757813 -0.808594,-0.515625 -0.222656,-0.4101563 -0.351563,-0.9609375 -0.351563,-1.5117188 0,-0.796875 0.375,-1.2890625 0.949219,-1.2890625 0.667969,0 1.148438,0.7734375 1.148438,1.8515625 0,0.9140625 -0.363282,1.4648438 -0.9375,1.4648438 z m 1.924804,0.140625 h 1.921875 v -0.1171875 h -0.04687 c -0.492187,0 -0.632812,-0.1640625 -0.632812,-0.5976563 v -1.8046875 c 0,-0.140625 0.117187,-0.3515625 0.28125,-0.515625 0.09375,-0.082031 0.199219,-0.140625 0.269531,-0.140625 0.05859,0 0.105469,0.035156 0.175781,0.082031 l 0.08203,0.070312 c 0.105468,0.082031 0.1875,0.1289062 0.28125,0.1289062 0.199218,0 0.316406,-0.140625 0.316406,-0.3632812 0,-0.2578125 -0.175781,-0.4218755 -0.433594,-0.4218755 -0.222656,0 -0.410156,0.08203 -0.574219,0.257813 -0.128906,0.1289062 -0.199218,0.1992187 -0.375,0.46875 h -0.02344 V -10.1812 l -0.03516,-0.01172 -0.07031,0.03516 c -0.246094,0.105468 -0.421875,0.164062 -0.679687,0.2460933 -0.128907,0.058594 -0.257813,0.082031 -0.363282,0.1289062 l -0.07031,0.023437 v 0.1289063 c 0.105469,-0.023437 0.175781,-0.035156 0.28125,-0.035156 0.199219,0 0.269531,0.1289063 0.269531,0.4804688 V -7.1812 c 0,0.3867188 -0.07031,0.46875 -0.515625,0.5390625 l -0.05859,0.011719 z m 0,0"
           style="fill:#231f20;fill-opacity:1;fill-rule:nonzero;stroke:none"
           aria-label="Actuator&#10;Error"
           transform="matrix(1.3333333,0,0,1.3333333,447.46653,738.23193)" />
        <path
           id="path66"
           d="M 0,0 2.551,4.559 5.037,0 Z"
           style="fill:#231f20;fill-opacity:1;fill-rule:nonzero;stroke:none"
           transform="matrix(1.3333333,0,0,-1.3333333,306.29587,748.44527)" />
        <path
           id="path67"
           d="M 0,0 H -96.229 V 34.915 M 129.052,43.677 129.046,0 H 46.209"
           style="fill:none;stroke:#231f20;stroke-width:1.25;stroke-linecap:butt;stroke-linejoin:miter;stroke-miterlimit:4;stroke-dasharray:none;stroke-opacity:1"
           transform="matrix(1.3333333,0,0,-1.3333333,437.95893,793.09953)" />
        <path
           id="path68"
           d="M 3.5756125,-5.4130281 H 3.41155 c -0.035156,0.1992187 -0.1171875,0.28125 -0.2695312,0.28125 -0.070312,0 -0.1523438,-0.023437 -0.28125,-0.082031 l -0.1757813,-0.058594 c -0.2460937,-0.09375 -0.46875,-0.140625 -0.6796875,-0.140625 -0.84375,0 -1.44140625,0.5742187 -1.44140625,1.3710937 0,0.3398438 0.10546875,0.6445313 0.3046875,0.8671875 0.15234375,0.1757813 0.35156255,0.3398438 0.58593755,0.4804688 0.082031,0.058594 0.1992187,0.1171875 0.3632812,0.2109375 1.0664063,0.6328125 1.3007813,0.9023437 1.3007813,1.40625 0,0.53906248 -0.3984375,0.90234373 -0.9726563,0.90234373 -0.3867187,0 -0.7617187,-0.1640625 -1.0195312,-0.43359375 C 0.84514375,-0.88959062 0.739675,-1.0536531 0.51701875,-1.5927156 H 0.3412375 l 0.234375,1.69921873 h 0.17578125 c 0.0117188,-0.1640625 0.10546875,-0.26953125 0.24609375,-0.26953125 0.0585938,0 0.1640625,0.0234375 0.2929688,0.0703125 l 0.1875,0.0703125 c 0.2695312,0.09375 0.5273437,0.140625 0.7851562,0.140625 0.9609375,0 1.6640625,-0.62109375 1.6640625,-1.46484378 0,-0.328125 -0.1289062,-0.65625 -0.328125,-0.890625 C 3.3178,-2.5302156 3.0248313,-2.7528719 2.4388938,-3.0927156 2.333425,-3.1513094 2.2748313,-3.1981844 2.2631125,-3.1981844 2.0756125,-3.3036531 1.8998313,-3.4208406 1.72405,-3.5614656 1.5951438,-3.6669344 1.489675,-3.7606844 1.4193625,-3.8544344 1.3256125,-3.9716219 1.2553,-4.1708406 1.2553,-4.3466219 c 0,-0.4335937 0.3398438,-0.7382812 0.8320313,-0.7382812 0.4101562,0 0.8085937,0.1992187 1.0898437,0.5742187 0.1875,0.234375 0.2695313,0.3867188 0.375,0.8085938 h 0.1992188 z m 4.1425781,4.1015625 c -0.3867187,0.60937498 -0.7265625,0.84374998 -1.2421875,0.84374998 -0.5273437,0 -0.9609375,-0.3515625 -1.1367187,-0.93749998 -0.070312,-0.234375 -0.09375,-0.3632813 -0.140625,-0.8085938 h 2.4960937 c -0.082031,-0.5390625 -0.1523437,-0.7734375 -0.3515625,-1.0078125 -0.2460937,-0.3046875 -0.609375,-0.4570312 -1.03125,-0.4570312 -0.984375,0 -1.6640625,0.796875 -1.6640625,1.96875 0,1.10156248 0.5742188,1.79296873 1.5,1.79296873 0.7617188,0 1.359375,-0.46875 1.6992188,-1.33593753 z m -0.84375,-1.1601563 H 5.2220969 c 0.070312,-0.3046875 0.09375,-0.3867187 0.1875,-0.5507812 0.140625,-0.2460938 0.375,-0.375 0.6914062,-0.375 0.3046875,0 0.5273438,0.1289062 0.6328125,0.375 0.070312,0.1640625 0.09375,0.2226562 0.140625,0.5507812 z m 1.265625,2.47265628 h 1.6992188 v -0.1171875 h -0.035156 c -0.375,0 -0.4921875,-0.140625 -0.4921875,-0.421875 V -2.7880281 c 0.3632813,-0.3398438 0.5742188,-0.4570313 0.8203121,-0.4570313 0.398438,0 0.585938,0.2578125 0.585938,0.7851563 v 1.66406248 c 0,0.2578125 -0.03516,0.4453125 -0.117188,0.5390625 -0.07031,0.09375 -0.164062,0.1171875 -0.386719,0.140625 v 0.1171875 h 1.664063 v -0.1171875 c -0.386719,-0.046875 -0.480469,-0.15234375 -0.480469,-0.52734375 V -2.4833406 c 0,-0.75 -0.351562,-1.1953125 -0.949219,-1.1953125 -0.1875,0 -0.398437,0.058594 -0.5624993,0.1523437 -0.2109375,0.1289063 -0.2578125,0.1757813 -0.5976563,0.4921875 v -0.6328125 l -0.058594,-0.011719 -0.070312,0.023437 c -0.28125,0.09375 -0.6445313,0.2109375 -0.9609375,0.3164062 l -0.070312,0.023437 v 0.1289063 c 0.1054687,-0.023437 0.1640625,-0.035156 0.234375,-0.035156 0.1992187,0 0.28125,0.140625 0.28125,0.515625 v 1.99218753 c 0,0.43359375 -0.1054688,0.52734375 -0.4570313,0.5859375 l -0.046875,0.0117188 z m 6.3808594,-2.50781248 -0.03516,-1.1015625 h -0.08203 c -0.04687,0.058594 -0.09375,0.082031 -0.140625,0.082031 -0.03516,0 -0.08203,0 -0.164063,-0.035156 l -0.117187,-0.035156 c -0.164063,-0.058594 -0.316407,-0.082031 -0.46875,-0.082031 -0.644532,0 -1.101563,0.4101562 -1.101563,0.9960937 0,0.2460938 0.08203,0.46875 0.257813,0.65625 0.152343,0.1640625 0.328125,0.2929688 0.679687,0.4921875 l 0.457031,0.2578125 c 0.28125,0.1640625 0.421875,0.35156253 0.421875,0.60937503 0,0.3515625 -0.257812,0.57421875 -0.667968,0.57421875 -0.28125,0 -0.550782,-0.1171875 -0.691407,-0.328125 -0.175781,-0.2109375 -0.222656,-0.328125 -0.328125,-0.79687498 h -0.117187 v 1.25390623 h 0.09375 c 0.05859,-0.08203125 0.09375,-0.09375 0.1875,-0.09375 0.08203,0 0.164062,0.01171875 0.304687,0.046875 l 0.140625,0.0234375 c 0.175782,0.046875 0.351563,0.0703125 0.46875,0.0703125 0.667969,0 1.171875,-0.4453125 1.171875,-1.04296875 0,-0.38671878 -0.1875,-0.64453128 -0.679687,-0.93749998 L 13.2553,-2.4130281 c -0.234375,-0.1289063 -0.351562,-0.328125 -0.351562,-0.5507813 0,-0.3046875 0.246093,-0.5273437 0.609375,-0.5273437 0.292968,0 0.515625,0.1171875 0.65625,0.3632812 0.105468,0.1640625 0.140625,0.2695313 0.234375,0.6210938 z m 2.560547,-1.171875 c -1.007813,0 -1.734375,0.7851562 -1.734375,1.8632812 0,1.10156253 0.738281,1.89843753 1.746094,1.89843753 1.007812,0 1.78125,-0.84375 1.78125,-1.95703123 0,-1.0664063 -0.738282,-1.8046875 -1.792969,-1.8046875 z m 0.140625,3.53906248 c -0.339844,0 -0.621094,-0.17578125 -0.808594,-0.515625 -0.222656,-0.41015628 -0.351562,-0.96093748 -0.351562,-1.51171878 0,-0.796875 0.375,-1.2890625 0.949218,-1.2890625 0.667969,0 1.148438,0.7734375 1.148438,1.8515625 0,0.91406253 -0.363281,1.46484378 -0.9375,1.46484378 z m 1.924805,0.140625 h 1.921875 v -0.1171875 h -0.04687 c -0.492188,0 -0.632813,-0.1640625 -0.632813,-0.59765625 V -2.5184969 c 0,-0.140625 0.117188,-0.3515625 0.28125,-0.515625 0.09375,-0.082031 0.199219,-0.140625 0.269531,-0.140625 0.05859,0 0.105469,0.035156 0.175782,0.082031 l 0.08203,0.070312 c 0.105469,0.082031 0.1875,0.1289062 0.28125,0.1289062 0.199219,0 0.316406,-0.140625 0.316406,-0.3632812 0,-0.2578125 -0.175781,-0.421875 -0.433594,-0.421875 -0.222656,0 -0.410156,0.082031 -0.574218,0.2578125 -0.128907,0.1289062 -0.199219,0.1992187 -0.375,0.46875 h -0.02344 v -0.7148438 l -0.03516,-0.011719 -0.07031,0.035156 c -0.246093,0.1054688 -0.421875,0.1640625 -0.679687,0.2460938 -0.128906,0.058594 -0.257813,0.082031 -0.363281,0.1289062 l -0.07031,0.023437 v 0.1289063 c 0.105469,-0.023437 0.175781,-0.035156 0.28125,-0.035156 0.199219,0 0.269531,0.1289063 0.269531,0.4804688 v 2.00390623 c 0,0.38671875 -0.07031,0.46875 -0.515625,0.5390625 l -0.05859,0.0117188 z m 0,0"
           style="fill:#231f20;fill-opacity:1;fill-rule:nonzero;stroke:none"
           aria-label="Sensor"
           transform="matrix(1.3333333,0,0,1.3333333,451.60827,796.72593)" />
        <path
           id="path69"
           d="M 0,0 -4.558,-2.55 0,-5.037 Z"
           style="fill:#231f20;fill-opacity:1;fill-rule:nonzero;stroke:none"
           transform="matrix(1.3333333,0,0,-1.3333333,500.53893,789.7422)" />
        <path
           id="path70"
           d="M 6.9030813,-5.29585 H 5.32105 L 3.5515188,-1.2528812 1.6999563,-5.29585 H 0.117925 v 0.1523438 l 0.0585938,0.011719 c 0.5859375,0.070312 0.69140625,0.140625 0.69140625,0.703125 V -1.17085 c 0,0.78515625 -0.1171875,0.94921875 -0.703125,1.0078125 l -0.0703125,0.0117188 V 0.001025 H 1.9812063 v -0.15234375 c -0.328125,-0.0234375 -0.4804688,-0.0703125 -0.5742188,-0.1875 C 1.2780813,-0.4911625 1.2194875,-0.7255375 1.2194875,-1.17085 V -4.3700687 H 1.242925 L 3.2351125,0.001025 h 0.1054688 l 2.0390625,-4.5585937 h 0.011719 v 3.5976562 c 0,0.64453125 -0.1054687,0.7265625 -0.65625,0.796875 L 4.6648,-0.15131875 V 0.001025 H 6.9030813 V -0.15131875 L 6.8562063,-0.1630375 C 6.3405813,-0.23335 6.211675,-0.3271 6.211675,-0.8661625 v -3.5625 c 0,-0.5390625 0.1171875,-0.6328125 0.6445313,-0.703125 l 0.046875,-0.011719 z m 3.4775387,3.984375 c -0.3867184,0.609375 -0.7265622,0.84375 -1.2421872,0.84375 -0.5273437,0 -0.9609375,-0.3515625 -1.1367187,-0.9375 -0.070312,-0.234375 -0.09375,-0.3632812 -0.140625,-0.8085937 H 10.357183 C 10.275152,-2.7528812 10.204839,-2.9872562 10.00562,-3.2216312 9.7595266,-3.5263187 9.3962453,-3.6786625 8.9743703,-3.6786625 c -0.984375,0 -1.6640625,0.796875 -1.6640625,1.96875 0,1.1015625 0.5742188,1.79296875 1.5,1.79296875 0.7617188,0 1.3593752,-0.46875 1.6992192,-1.33593745 z M 9.5368703,-2.4716312 H 7.8845266 c 0.070312,-0.3046875 0.09375,-0.3867188 0.1875,-0.5507813 0.140625,-0.2460937 0.375,-0.375 0.6914062,-0.375 0.3046875,0 0.5273438,0.1289063 0.6328125,0.375 0.070312,0.1640625 0.09375,0.2226563 0.140625,0.5507813 z m 4.6669927,1.94531245 C 14.063238,-0.42085 13.969488,-0.373975 13.8523,-0.373975 c -0.1875,0 -0.246094,-0.10546875 -0.246094,-0.46875 v -1.5585937 c 0,-0.5039063 -0.07031,-0.7734375 -0.257812,-0.9726563 -0.199219,-0.1992187 -0.503906,-0.3046875 -0.902344,-0.3046875 -0.738281,0 -1.335937,0.3867188 -1.335937,0.890625 0,0.1875 0.152343,0.3515625 0.351562,0.3515625 0.1875,0 0.351563,-0.1640625 0.351563,-0.3515625 0,-0.023437 0,-0.035156 -0.01172,-0.09375 -0.01172,-0.1054687 -0.02344,-0.1640625 -0.02344,-0.2109375 0,-0.2226562 0.246094,-0.3984375 0.574219,-0.3984375 0.398438,0 0.609375,0.2460938 0.609375,0.6679688 v 0.4921875 l -0.175781,0.070312 c -0.773438,0.3046875 -1.042969,0.421875 -1.3125,0.609375 -0.105469,0.070312 -0.199219,0.1523437 -0.28125,0.2460937 -0.164063,0.1875 -0.234375,0.3867188 -0.234375,0.64453125 0,0.4921875 0.351562,0.84375 0.84375,0.84375 0.351562,0 0.691406,-0.17578125 1.171875,-0.5859375 0.03516,0.41015625 0.1875,0.5859375 0.503906,0.5859375 0.28125,0 0.433594,-0.09375 0.726563,-0.3984375 z M 12.961675,-2.1435062 V -0.98335 c 0,0.22265625 -0.03516,0.3046875 -0.152344,0.38671875 -0.1875,0.12890625 -0.445312,0.2109375 -0.644531,0.2109375 -0.28125,0 -0.503906,-0.26953125 -0.503906,-0.63281245 0,-0.328125 0.1875,-0.5976563 0.5625,-0.8085938 0.210937,-0.1171875 0.28125,-0.140625 0.738281,-0.3164062 z m 3.773438,-0.3632813 -0.03516,-1.1015625 h -0.08203 c -0.04687,0.058594 -0.09375,0.082031 -0.140625,0.082031 -0.03516,0 -0.08203,0 -0.164062,-0.035156 l -0.117188,-0.035156 c -0.164062,-0.058594 -0.316406,-0.082031 -0.46875,-0.082031 -0.644531,0 -1.101562,0.4101563 -1.101562,0.9960938 0,0.2460937 0.08203,0.46875 0.257812,0.65625 0.152344,0.1640625 0.328125,0.2929687 0.679688,0.4921875 l 0.457031,0.2578125 c 0.28125,0.1640625 0.421875,0.35156245 0.421875,0.60937495 0,0.3515625 -0.257813,0.57421875 -0.667969,0.57421875 -0.28125,0 -0.550781,-0.1171875 -0.691406,-0.328125 -0.175781,-0.2109375 -0.222656,-0.328125 -0.328125,-0.796875 h -0.117188 v 1.25390625 h 0.09375 c 0.05859,-0.08203125 0.09375,-0.09375 0.1875,-0.09375 0.08203,0 0.164063,0.01171875 0.304688,0.046875 l 0.140625,0.0234375 c 0.175781,0.046875 0.351562,0.0703125 0.46875,0.0703125 0.667969,0 1.171875,-0.4453125 1.171875,-1.04296875 0,-0.3867187 -0.1875,-0.6445312 -0.679688,-0.9375 l -0.855468,-0.515625 c -0.234375,-0.1289062 -0.351563,-0.328125 -0.351563,-0.5507812 0,-0.3046875 0.246094,-0.5273438 0.609375,-0.5273438 0.292969,0 0.515625,0.1171875 0.65625,0.3632813 0.105469,0.1640625 0.140625,0.2695312 0.234375,0.6210937 z m 3.93164,-1.0898437 h -1.265625 v 0.1289062 h 0.04687 c 0.445313,0 0.539063,0.1289063 0.539063,0.5039063 V -1.0771 c 0,0.2578125 -0.03516,0.33984375 -0.199219,0.46875 -0.1875,0.140625 -0.421875,0.22265625 -0.621094,0.22265625 -0.339844,0 -0.597656,-0.2578125 -0.597656,-0.609375 V -3.5966312 h -1.171875 v 0.1054687 c 0.375,0.023437 0.492187,0.1523438 0.492187,0.515625 v 2.015625 c 0,0.62109375 0.386719,1.04296875 0.960938,1.04296875 0.304687,0 0.621094,-0.12890625 0.832031,-0.3515625 L 20.033941,-0.60835 V 0.05961875 L 20.045659,0.0713375 20.115972,0.0479 c 0.492187,-0.1640625 0.527344,-0.1875 0.714844,-0.24609375 0.08203,-0.0117188 0.164062,-0.0351563 0.246093,-0.0703125 l 0.08203,-0.0234375 V -0.3974125 h -0.03516 c -0.375,0 -0.457031,-0.09375 -0.457031,-0.45703125 z m 0.697266,3.5976562 h 1.921875 v -0.1171875 h -0.04687 c -0.492188,0 -0.632813,-0.1640625 -0.632813,-0.59765625 V -2.5185062 c 0,-0.140625 0.117188,-0.3515625 0.28125,-0.515625 0.09375,-0.082031 0.199219,-0.140625 0.269532,-0.140625 0.05859,0 0.105468,0.035156 0.175781,0.082031 l 0.08203,0.070312 c 0.105469,0.082031 0.1875,0.1289063 0.28125,0.1289063 0.199219,0 0.316406,-0.140625 0.316406,-0.3632813 0,-0.2578125 -0.175781,-0.421875 -0.433593,-0.421875 -0.222657,0 -0.410157,0.082031 -0.574219,0.2578125 -0.128906,0.1289063 -0.199219,0.1992188 -0.375,0.46875 h -0.02344 v -0.7148437 l -0.03516,-0.011719 -0.07031,0.035156 c -0.246094,0.1054687 -0.421875,0.1640625 -0.679688,0.2460937 -0.128906,0.058594 -0.257812,0.082031 -0.363281,0.1289063 l -0.07031,0.023437 v 0.1289062 c 0.105469,-0.023437 0.175782,-0.035156 0.28125,-0.035156 0.199219,0 0.269532,0.1289062 0.269532,0.4804687 v 2.00390625 c 0,0.38671875 -0.07031,0.46875 -0.515625,0.5390625 l -0.05859,0.0117188 z m 5.897461,-1.3125 c -0.386719,0.609375 -0.726563,0.84375 -1.242188,0.84375 -0.527344,0 -0.960937,-0.3515625 -1.136719,-0.9375 -0.07031,-0.234375 -0.09375,-0.3632812 -0.140625,-0.8085937 h 2.496094 c -0.08203,-0.5390625 -0.152344,-0.7734375 -0.351562,-1.0078125 -0.246094,-0.3046875 -0.609375,-0.4570313 -1.03125,-0.4570313 -0.984375,0 -1.664063,0.796875 -1.664063,1.96875 0,1.1015625 0.574219,1.79296875 1.5,1.79296875 0.761719,0 1.359375,-0.46875 1.699219,-1.33593745 z m -0.84375,-1.1601562 h -1.652344 c 0.07031,-0.3046875 0.09375,-0.3867188 0.1875,-0.5507813 0.140625,-0.2460937 0.375,-0.375 0.691406,-0.375 0.304688,0 0.527344,0.1289063 0.632813,0.375 0.07031,0.1640625 0.09375,0.2226563 0.140625,0.5507813 z m 1.253906,2.4726562 h 1.78125 v -0.1171875 h -0.04687 c -0.386719,0 -0.503906,-0.1171875 -0.503906,-0.421875 v -2.25 c 0.269531,-0.3046875 0.597656,-0.4804687 0.925781,-0.4804687 0.375,0 0.550781,0.2695312 0.550781,0.84375 v 1.73437495 c 0,0.421875 -0.09375,0.57421875 -0.503906,0.57421875 h -0.04687 V 0.001025 h 1.792969 v -0.1171875 h -0.04687 c -0.410157,0 -0.527344,-0.17578125 -0.527344,-0.64453125 V -2.7763187 c 0.246094,-0.3398438 0.503906,-0.4921875 0.878906,-0.4921875 0.457031,0 0.597656,0.2109375 0.597656,0.8789062 v 1.69921875 c 0,0.421875 -0.07031,0.50390625 -0.480468,0.5625 l -0.04687,0.0117188 V 0.001025 h 1.746093 V -0.1161625 C 33.308355,-0.12788125 33.191167,-0.23335 33.191167,-0.60835 v -1.6523437 c 0,-0.9375 -0.304687,-1.4179688 -0.9375,-1.4179688 -0.457031,0 -0.867187,0.2109375 -1.289062,0.6679688 -0.152344,-0.4570313 -0.421875,-0.6679688 -0.855469,-0.6679688 -0.316406,0 -0.574219,0.1289063 -1.054688,0.4804688 l -0.1875,0.1289062 v -0.5976562 l -0.04687,-0.011719 -0.08203,0.023437 c -0.339844,0.1054688 -0.65625,0.2460938 -0.972656,0.3164063 l -0.07031,0.023437 v 0.1289062 l 0.02344,-0.011719 c 0.09375,-0.011719 0.140625,-0.023437 0.234375,-0.023437 0.210937,0 0.28125,0.1289062 0.28125,0.515625 v 2.0273437 c 0,0.41015625 -0.128906,0.5625 -0.515625,0.5625 h -0.04687 z m 9.366211,-1.3125 c -0.386719,0.609375 -0.726563,0.84375 -1.242188,0.84375 -0.527343,0 -0.960937,-0.3515625 -1.136718,-0.9375 -0.07031,-0.234375 -0.09375,-0.3632812 -0.140625,-0.8085937 h 2.496093 c -0.08203,-0.5390625 -0.152343,-0.7734375 -0.351562,-1.0078125 -0.246094,-0.3046875 -0.609375,-0.4570313 -1.03125,-0.4570313 -0.984375,0 -1.664063,0.796875 -1.664063,1.96875 0,1.1015625 0.574219,1.79296875 1.5,1.79296875 0.761719,0 1.359375,-0.46875 1.699219,-1.33593745 z m -0.84375,-1.1601562 h -1.652344 c 0.07031,-0.3046875 0.09375,-0.3867188 0.1875,-0.5507813 0.140625,-0.2460937 0.375,-0.375 0.691406,-0.375 0.304688,0 0.527344,0.1289063 0.632813,0.375 0.07031,0.1640625 0.09375,0.2226563 0.140625,0.5507813 z m 1.265625,2.4726562 h 1.699219 v -0.1171875 h -0.03516 c -0.375,0 -0.492187,-0.140625 -0.492187,-0.421875 v -2.25 c 0.363281,-0.3398437 0.574219,-0.4570312 0.820312,-0.4570312 0.398438,0 0.585938,0.2578125 0.585938,0.7851562 V -0.79585 c 0,0.2578125 -0.03516,0.4453125 -0.117188,0.5390625 -0.07031,0.09375 -0.164062,0.1171875 -0.386718,0.140625 V 0.001025 H 41.198 v -0.1171875 c -0.386719,-0.046875 -0.480469,-0.15234375 -0.480469,-0.52734375 V -2.48335 c 0,-0.75 -0.351562,-1.1953125 -0.949218,-1.1953125 -0.1875,0 -0.398438,0.058594 -0.5625,0.1523438 -0.210938,0.1289062 -0.257813,0.1757812 -0.597657,0.4921875 v -0.6328125 l -0.05859,-0.011719 -0.07031,0.023437 c -0.28125,0.09375 -0.644531,0.2109375 -0.960937,0.3164063 l -0.07031,0.023437 v 0.1289062 c 0.105469,-0.023437 0.164063,-0.035156 0.234375,-0.035156 0.199219,0 0.28125,0.140625 0.28125,0.515625 v 1.99218745 c 0,0.43359375 -0.105469,0.52734375 -0.457031,0.5859375 l -0.04687,0.0117188 z m 5.994141,-0.62109375 c -0.175782,0.1875 -0.328125,0.28125 -0.480469,0.28125 -0.292969,0 -0.421875,-0.17578125 -0.421875,-0.5859375 V -3.3388187 h 0.796875 v -0.2578125 h -0.796875 v -1.03125 h -0.08203 c -0.210938,0.4335937 -0.550782,0.8203125 -1.042969,1.1835937 v 0.1054688 h 0.457031 v 2.296875 c 0,0.4335937 0,0.5273437 0.07031,0.70312495 0.04687,0.12890625 0.140625,0.234375 0.257812,0.3046875 0.128906,0.0703125 0.269531,0.1171875 0.421875,0.1171875 0.351563,0 0.667969,-0.2109375 0.925781,-0.62109375 z M 47.51148,-3.6786625 c -1.007813,0 -1.734375,0.7851563 -1.734375,1.8632813 0,1.10156245 0.738281,1.89843745 1.746093,1.89843745 1.007813,0 1.78125,-0.84375 1.78125,-1.95703125 0,-1.0664062 -0.738281,-1.8046875 -1.792968,-1.8046875 z M 47.652105,-0.1396 c -0.339844,0 -0.621094,-0.17578125 -0.808594,-0.515625 -0.222656,-0.4101562 -0.351563,-0.9609375 -0.351563,-1.5117187 0,-0.796875 0.375,-1.2890625 0.949219,-1.2890625 0.667969,0 1.148438,0.7734375 1.148438,1.8515625 0,0.91406245 -0.363282,1.4648437 -0.9375,1.4648437 z m 5.232422,-3.4570312 h -1.265625 v 0.1289062 h 0.04687 c 0.445312,0 0.539062,0.1289063 0.539062,0.5039063 V -1.0771 c 0,0.2578125 -0.03516,0.33984375 -0.199219,0.46875 -0.1875,0.140625 -0.421875,0.22265625 -0.621093,0.22265625 -0.339844,0 -0.597657,-0.2578125 -0.597657,-0.609375 V -3.5966312 H 49.61499 v 0.1054687 c 0.375,0.023437 0.492188,0.1523438 0.492188,0.515625 v 2.015625 c 0,0.62109375 0.386719,1.04296875 0.960937,1.04296875 0.304688,0 0.621094,-0.12890625 0.832032,-0.3515625 L 52.251714,-0.60835 V 0.05961875 L 52.263433,0.0713375 52.333745,0.0479 c 0.492188,-0.1640625 0.527344,-0.1875 0.714844,-0.24609375 0.08203,-0.0117188 0.164063,-0.0351563 0.246094,-0.0703125 l 0.08203,-0.0234375 V -0.3974125 h -0.03516 c -0.375,0 -0.457031,-0.09375 -0.457031,-0.45703125 z m 2.791992,2.97656245 c -0.175781,0.1875 -0.328125,0.28125 -0.480469,0.28125 -0.292969,0 -0.421875,-0.17578125 -0.421875,-0.5859375 V -3.3388187 h 0.796875 v -0.2578125 h -0.796875 v -1.03125 h -0.08203 c -0.210938,0.4335937 -0.550781,0.8203125 -1.042969,1.1835937 v 0.1054688 h 0.457031 v 2.296875 c 0,0.4335937 0,0.5273437 0.07031,0.70312495 0.04687,0.12890625 0.140625,0.234375 0.257812,0.3046875 0.128907,0.0703125 0.269532,0.1171875 0.421875,0.1171875 0.351563,0 0.667969,-0.2109375 0.925782,-0.62109375 z M 55.802495,1.7354 h 1.945313 V 1.594775 h -0.05859 c -0.550781,0 -0.644531,-0.1171875 -0.644531,-0.59765625 v -1.265625 c 0.28125,0.26953125 0.480469,0.3515625 0.808594,0.3515625 0.949218,0 1.675781,-0.90234375 1.675781,-2.06249995 0,-0.984375 -0.5625,-1.6992188 -1.335938,-1.6992188 -0.445312,0 -0.808593,0.1992188 -1.136718,0.609375 l -0.01172,-0.011719 V -3.666944 l -0.05859,-0.011719 -0.07031,0.023437 c -0.328125,0.1054688 -0.703125,0.2578125 -1.007813,0.3632813 l -0.07031,0.023437 V -3.1396 c 0.01172,0 0.02344,0 0.05859,-0.011719 h 0.140625 c 0.269532,0 0.328125,0.082031 0.328125,0.4570312 v 3.7382813 c 0,0.4101562 -0.08203,0.4804687 -0.503906,0.5507812 l -0.05859,0.011719 z m 1.242188,-2.4375 v -1.96875 c 0,-0.1171875 0.140625,-0.2929687 0.328125,-0.3984375 0.152344,-0.082031 0.328125,-0.1289062 0.480469,-0.1289062 0.597656,0 0.984375,0.609375 0.984375,1.5234375 0,0.9023437 -0.386719,1.49999995 -0.984375,1.49999995 -0.234375,0 -0.492188,-0.10546875 -0.65625,-0.26953125 -0.105469,-0.09375 -0.152344,-0.1875 -0.152344,-0.2578125 z m 6.064453,-2.8945312 h -1.265625 v 0.1289062 h 0.04687 c 0.445312,0 0.539062,0.1289063 0.539062,0.5039063 V -1.0771 c 0,0.2578125 -0.03516,0.33984375 -0.199218,0.46875 -0.1875,0.140625 -0.421875,0.22265625 -0.621094,0.22265625 -0.339844,0 -0.597656,-0.2578125 -0.597656,-0.609375 V -3.5966312 H 59.8396 v 0.1054687 c 0.375,0.023437 0.492187,0.1523438 0.492187,0.515625 v 2.015625 c 0,0.62109375 0.386719,1.04296875 0.960938,1.04296875 0.304687,0 0.621093,-0.12890625 0.832031,-0.3515625 L 62.476323,-0.60835 V 0.05961875 L 62.488042,0.0713375 62.558355,0.0479 c 0.492187,-0.1640625 0.527343,-0.1875 0.714843,-0.24609375 0.08203,-0.0117188 0.164063,-0.0351563 0.246094,-0.0703125 l 0.08203,-0.0234375 V -0.3974125 h -0.03516 c -0.375,0 -0.457031,-0.09375 -0.457031,-0.45703125 z m 2.791992,2.97656245 c -0.175781,0.1875 -0.328125,0.28125 -0.480469,0.28125 -0.292968,0 -0.421875,-0.17578125 -0.421875,-0.5859375 V -3.3388187 h 0.796875 v -0.2578125 h -0.796875 v -1.03125 h -0.08203 c -0.210937,0.4335937 -0.550781,0.8203125 -1.042969,1.1835937 v 0.1054688 h 0.457032 v 2.296875 c 0,0.4335937 0,0.5273437 0.07031,0.70312495 0.04687,0.12890625 0.140625,0.234375 0.257813,0.3046875 0.128906,0.0703125 0.269531,0.1171875 0.421875,0.1171875 0.351562,0 0.667968,-0.2109375 0.925781,-0.62109375 z M 157.24878,-1.8505375 V -3.7021 h -0.1875 v 0.058594 c -0.0703,0.5625 -0.25781,0.703125 -0.8789,0.703125 h -1.16016 v -1.828125 c 0,-0.1875 0.0469,-0.2226563 0.25781,-0.2226563 h 1.08985 c 0.86719,0 1.07812,0.1289063 1.19531,0.7617188 l 0.0234,0.082031 h 0.19922 l -0.0234,-1.1484375 h -4.25391 v 0.1523438 l 0.0586,0.011719 c 0.52734,0.070312 0.64453,0.1640625 0.64453,0.703125 v 3.46875 c 0,0.64453125 -0.10547,0.73828125 -0.63281,0.796875 l -0.0703,0.0117188 V 0.001025 h 2.23828 v -0.15234375 h -0.0586 c -0.53906,0 -0.66797,-0.1640625 -0.66797,-0.71484375 V -2.623975 l 1.16016,0.011719 c 0.63281,0.011719 0.80859,0.1289062 0.8789,0.703125 v 0.058594 z m 3.88477,0.5390625 c -0.38672,0.609375 -0.72656,0.84375 -1.24219,0.84375 -0.52734,0 -0.96093,-0.3515625 -1.13672,-0.9375 -0.0703,-0.234375 -0.0937,-0.3632812 -0.14062,-0.8085937 h 2.49609 c -0.082,-0.5390625 -0.15234,-0.7734375 -0.35156,-1.0078125 -0.24609,-0.3046875 -0.60937,-0.4570313 -1.03125,-0.4570313 -0.98437,0 -1.66406,0.796875 -1.66406,1.96875 0,1.1015625 0.57422,1.79296875 1.5,1.79296875 0.76172,0 1.35937,-0.46875 1.69922,-1.33593745 z m -0.84375,-1.1601562 h -1.65234 c 0.0703,-0.3046875 0.0937,-0.3867188 0.1875,-0.5507813 0.14062,-0.2460937 0.375,-0.375 0.6914,-0.375 0.30469,0 0.52735,0.1289063 0.63282,0.375 0.0703,0.1640625 0.0937,0.2226563 0.14062,0.5507813 z m 4.39453,1.1601562 c -0.38672,0.609375 -0.72656,0.84375 -1.24219,0.84375 -0.52734,0 -0.96093,-0.3515625 -1.13671,-0.9375 -0.0703,-0.234375 -0.0937,-0.3632812 -0.14063,-0.8085937 h 2.49609 c -0.082,-0.5390625 -0.15234,-0.7734375 -0.35156,-1.0078125 -0.24609,-0.3046875 -0.60937,-0.4570313 -1.03125,-0.4570313 -0.98437,0 -1.66406,0.796875 -1.66406,1.96875 0,1.1015625 0.57422,1.79296875 1.5,1.79296875 0.76172,0 1.35937,-0.46875 1.69922,-1.33593745 z m -0.84375,-1.1601562 h -1.65234 c 0.0703,-0.3046875 0.0937,-0.3867188 0.1875,-0.5507813 0.14062,-0.2460937 0.375,-0.375 0.6914,-0.375 0.30469,0 0.52735,0.1289063 0.63282,0.375 0.0703,0.1640625 0.0937,0.2226563 0.14062,0.5507813 z m 5.05371,2.0039062 h -0.14062 l -0.082,0.0117188 c -0.23438,0 -0.30469,-0.10546875 -0.30469,-0.45703125 V -5.4481937 l -0.0469,-0.011719 -0.0703,0.023437 c -0.33984,0.1054687 -0.5625,0.1992187 -1.03125,0.3046875 l -0.0703,0.023437 v 0.1171875 h 0.0117 c 0.0703,0 0.0937,0 0.14062,0 0.32813,0 0.38672,0.070312 0.38672,0.4101563 V -3.33882 c -0.30469,-0.2578125 -0.51562,-0.3398438 -0.83203,-0.3398438 -0.92578,0 -1.67578,0.9023438 -1.67578,2.0273438 0,1.03125 0.59765,1.734375 1.48828,1.734375 0.43359,0 0.76172,-0.1640625 1.00781,-0.515625 h 0.0117 v 0.4921875 l 0.0352,0.0234375 0.0703,-0.0234375 0.33984,-0.1171875 0.35157,-0.12890625 0.33984,-0.12890625 0.0703,-0.0234375 z m -1.20703,-2.1914062 v 1.8398437 c 0,0.10546875 -0.12891,0.29296875 -0.28125,0.375 -0.12891,0.0703125 -0.28125,0.10546875 -0.43359,0.10546875 -0.65625,0 -1.10157,-0.64453125 -1.10157,-1.61718745 0,-0.9140625 0.39844,-1.5 0.9961,-1.5 0.43359,0 0.82031,0.375 0.82031,0.796875 z m 2.49902,-2.7890625 -0.0352,-0.011719 -0.0703,0.023437 c -0.22266,0.070312 -0.35157,0.1171875 -0.57422,0.1757813 -0.16407,0.046875 -0.30469,0.09375 -0.44532,0.1289062 l -0.0703,0.023437 v 0.1171875 c 0.0352,0 0.0937,0 0.16406,0 0.30469,0 0.36329,0.070312 0.36329,0.4101563 v 4.14843745 c 0,0.140625 0.1875,0.26953125 0.52734,0.38671875 0.24609,0.08203125 0.52734,0.12890625 0.77344,0.12890625 1.07812,0 1.89843,-0.87890625 1.89843,-2.01562495 0,-0.9960938 -0.60937,-1.7460938 -1.41796,-1.7460938 -0.46875,0 -0.92579,0.2695313 -1.08985,0.6445313 h -0.0234 z m 0,4.8867187 V -2.5771 c 0,-0.3164062 0.38672,-0.5976562 0.8086,-0.5976562 0.60937,0 1.01953,0.6328125 1.01953,1.5703125 0,0.91406245 -0.38672,1.42968745 -1.03125,1.42968745 -0.42188,0 -0.79688,-0.17578125 -0.79688,-0.38671875 z m 6.31934,0.0351563 c -0.14062,0.1054687 -0.23437,0.1523437 -0.35156,0.1523437 -0.1875,0 -0.2461,-0.10546875 -0.2461,-0.46875 v -1.5585937 c 0,-0.5039063 -0.0703,-0.7734375 -0.25781,-0.9726563 -0.19922,-0.1992187 -0.5039,-0.3046875 -0.90234,-0.3046875 -0.73828,0 -1.33594,0.3867188 -1.33594,0.890625 0,0.1875 0.15234,0.3515625 0.35156,0.3515625 0.1875,0 0.35157,-0.1640625 0.35157,-0.3515625 0,-0.023437 0,-0.035156 -0.0117,-0.09375 -0.0117,-0.1054687 -0.0234,-0.1640625 -0.0234,-0.2109375 0,-0.2226562 0.24609,-0.3984375 0.57422,-0.3984375 0.39844,0 0.60937,0.2460938 0.60937,0.6679688 v 0.4921875 l -0.17578,0.070312 c -0.77344,0.3046875 -1.04297,0.421875 -1.3125,0.609375 -0.10547,0.070312 -0.19922,0.1523437 -0.28125,0.2460937 -0.16406,0.1875 -0.23437,0.3867188 -0.23437,0.64453125 0,0.4921875 0.35156,0.84375 0.84375,0.84375 0.35156,0 0.6914,-0.17578125 1.17187,-0.5859375 0.0352,0.41015625 0.1875,0.5859375 0.50391,0.5859375 0.28125,0 0.43359,-0.09375 0.72656,-0.3984375 z m -1.24219,-1.6171875 V -0.98335 c 0,0.22265625 -0.0351,0.3046875 -0.15234,0.38671875 -0.1875,0.12890625 -0.44531,0.2109375 -0.64453,0.2109375 -0.28125,0 -0.50391,-0.26953125 -0.50391,-0.63281245 0,-0.328125 0.1875,-0.5976563 0.5625,-0.8085938 0.21094,-0.1171875 0.28125,-0.140625 0.73828,-0.3164062 z m 4.44434,0.890625 c -0.21094,0.30468745 -0.24609,0.35156245 -0.42188,0.5039062 -0.17578,0.15234375 -0.44531,0.2578125 -0.70312,0.2578125 -0.73828,0 -1.24219,-0.6445312 -1.24219,-1.546875 0,-0.84375 0.4336,-1.40625 1.07813,-1.40625 0.15234,0 0.29297,0.035156 0.36328,0.1054688 0.0469,0.058594 0.0703,0.1289062 0.1289,0.3398437 0.0937,0.3398438 0.21094,0.4804688 0.42188,0.4804688 0.19922,0 0.375,-0.1523438 0.375,-0.3515625 0,-0.4453125 -0.5625,-0.8085938 -1.23047,-0.8085938 -0.99609,0 -1.75781,0.8554688 -1.75781,1.9804688 0,1.03124995 0.63281,1.78124995 1.53515,1.78124995 0.44532,0 0.87891,-0.22265625 1.1836,-0.62109375 0.1289,-0.17578125 0.1875,-0.28125 0.375,-0.6328125 z m 0.42187,1.2539062 h 1.875 v -0.1171875 c -0.49218,-0.0234375 -0.60937,-0.09375 -0.60937,-0.421875 v -1.4414062 h 0.0234 l 1.10156,1.4648437 0.0234,0.046875 0.10547,0.12890625 c 0.0351,0.046875 0.0351,0.0703125 0.0351,0.10546875 0,0.0703125 -0.0586,0.1171875 -0.16406,0.1171875 H 182.3678 V 0.001025 h 1.74609 v -0.1171875 c -0.22266,-0.0234375 -0.31641,-0.046875 -0.46875,-0.15234375 -0.17578,-0.10546875 -0.30469,-0.234375 -0.46875,-0.43359375 l -1.21875,-1.5585937 0.22266,-0.2109375 c 0.33984,-0.3164063 0.70312,-0.6210938 0.98437,-0.8085938 0.082,-0.058594 0.17578,-0.1054687 0.29297,-0.140625 0.14062,-0.046875 0.22266,-0.058594 0.45703,-0.058594 v -0.1171875 h -1.62891 v 0.1054687 h 0.0234 c 0.26953,0 0.375,0.046875 0.375,0.1523438 0,0.046875 -0.0351,0.1171875 -0.10547,0.1757812 -0.0234,0.046875 -0.11718,0.1289063 -0.28125,0.2695313 l -0.1289,0.1171875 -0.75,0.6679687 -0.0234,-0.011719 v -3.328125 l -0.0234,-0.011719 c -0.15234,0.046875 -0.21094,0.058594 -0.33984,0.09375 -0.21094,0.070312 -0.375,0.09375 -0.82031,0.234375 l -0.082,0.023437 v 0.1171875 h 0.10547 c 0.0117,-0.011719 0.0352,-0.011719 0.0703,-0.011719 h 0.0703 c 0.28125,0 0.35156,0.1054687 0.35156,0.4921875 v 3.8554687 c 0,0.41015625 -0.0352,0.4453125 -0.55078,0.52734375 -0.0117,0 -0.0234,0.0117188 -0.0469,0.0117188 z m 0,0"
           style="fill:#231f20;fill-opacity:1;fill-rule:nonzero;stroke:none"
           aria-label="Measurement outputFeedback"
           transform="matrix(1.3333333,0,0,1.3333333,329.81227,805.09313)" />
        <path
           id="path71"
           d="M 0,0 C 3.316,0 6,2.686 6,6 6,9.313 3.316,12 0,12 -3.31,12 -6,9.313 -6,6 -6,2.686 -3.31,0 0,0"
           style="fill:#ffffff;fill-opacity:1;fill-rule:nonzero;stroke:#231f20;stroke-width:0.5;stroke-linecap:butt;stroke-linejoin:miter;stroke-miterlimit:4;stroke-dasharray:none;stroke-opacity:1"
           transform="matrix(1.3333333,0,0,-1.3333333,309.6536,742.17953)"
           clip-path="url(#clipPath72)" />
        <g
           id="g72"
           aria-label="-&#10;Controller"
           transform="matrix(1.3333333,0,0,1.3333333,317.3816,751.13687)">
          <path
             id="path73"
             d="m 4.7211984,-2.4018922 v -0.3632812 h -4.72265621 v 0.3632812 z m 0,0"
             style="fill:#231f20;fill-opacity:1;fill-rule:nonzero;stroke:none" />
          <path
             id="path74"
             d="m 34.062019,-13.288611 -0.07031,-1.804687 h -0.164062 c -0.07031,0.1875 -0.1875,0.269531 -0.363281,0.269531 -0.04687,0 -0.117188,-0.02344 -0.234375,-0.05859 l -0.210938,-0.05859 c -0.316406,-0.08203 -0.667969,-0.152343 -0.972656,-0.152343 -1.59375,0 -2.71875,1.160156 -2.71875,2.800781 0,1.640625 1.066406,2.7304686 2.671875,2.7304686 0.5625,0 1.078125,-0.1523438 1.535156,-0.4453126 0.292969,-0.1875 0.410156,-0.28125 0.632813,-0.574219 l -0.140625,-0.140625 c -0.292969,0.269532 -0.410157,0.375 -0.65625,0.503907 -0.351563,0.199218 -0.738282,0.3046871 -1.136719,0.3046871 -1.21875,0 -1.980469,-0.9140621 -1.980469,-2.4140621 0,-0.820313 0.175781,-1.417969 0.5625,-1.839844 0.339844,-0.386719 0.820313,-0.597656 1.335938,-0.597656 0.550781,0 1.042968,0.234375 1.359375,0.65625 0.175781,0.222656 0.246093,0.398437 0.375,0.820312 z m 2.346679,-0.07031 c -1.007812,0 -1.734375,0.785156 -1.734375,1.863281 0,1.101562 0.738282,1.8984373 1.746094,1.8984373 1.007813,0 1.78125,-0.8437503 1.78125,-1.9570313 0,-1.066406 -0.738281,-1.804687 -1.792969,-1.804687 z m 0.140625,3.5390621 c -0.339843,0 -0.621093,-0.1757813 -0.808593,-0.5156251 -0.222657,-0.410156 -0.351563,-0.960937 -0.351563,-1.511719 0,-0.796875 0.375,-1.289062 0.949219,-1.289062 0.667969,0 1.148437,0.773437 1.148437,1.851562 0,0.914063 -0.363281,1.4648441 -0.9375,1.4648441 z m 2.030274,0.140625 h 1.699219 v -0.1171875 h -0.03516 c -0.375,0 -0.492187,-0.140625 -0.492187,-0.4218746 v -2.25 c 0.363281,-0.339844 0.574219,-0.457032 0.820312,-0.457032 0.398438,0 0.585938,0.257813 0.585938,0.785157 v 1.664062 c 0,0.257813 -0.03516,0.445313 -0.117188,0.5390626 -0.07031,0.09375 -0.164062,0.1171875 -0.386718,0.140625 v 0.1171875 h 1.664062 v -0.1171875 c -0.386719,-0.046875 -0.480469,-0.1523438 -0.480469,-0.5273436 v -1.839844 c 0,-0.75 -0.351562,-1.195312 -0.949218,-1.195312 -0.1875,0 -0.398438,0.05859 -0.5625,0.152343 -0.210938,0.128907 -0.257813,0.175782 -0.597657,0.492188 v -0.632813 l -0.05859,-0.01172 -0.07031,0.02344 c -0.28125,0.09375 -0.644531,0.210938 -0.960937,0.316406 l -0.07031,0.02344 v 0.128906 c 0.105469,-0.02344 0.164063,-0.03516 0.234375,-0.03516 0.199219,0 0.28125,0.140625 0.28125,0.515625 v 1.992187 c 0,0.4335941 -0.105469,0.5273441 -0.457031,0.5859378 l -0.04687,0.011719 z m 5.994141,-0.6210941 c -0.175782,0.1875 -0.328125,0.28125 -0.480469,0.28125 -0.292969,0 -0.421875,-0.175781 -0.421875,-0.585937 v -2.414063 h 0.796875 v -0.257812 h -0.796875 v -1.03125 h -0.08203 c -0.210938,0.433594 -0.550782,0.820312 -1.042969,1.183594 v 0.105468 h 0.457031 v 2.296875 c 0,0.433594 0,0.527344 0.07031,0.703125 0.04687,0.1289066 0.140625,0.2343753 0.257812,0.3046878 0.128906,0.070312 0.269531,0.1171875 0.421875,0.1171875 0.351563,0 0.667969,-0.2109375 0.925781,-0.6210933 z m 0.125976,0.6210941 h 1.921875 v -0.1171875 h -0.04687 c -0.492187,0 -0.632812,-0.1640625 -0.632812,-0.5976566 v -1.804687 c 0,-0.140625 0.117187,-0.351563 0.28125,-0.515625 0.09375,-0.08203 0.199218,-0.140625 0.269531,-0.140625 0.05859,0 0.105469,0.03516 0.175781,0.08203 l 0.08203,0.07031 c 0.105469,0.08203 0.1875,0.128906 0.28125,0.128906 0.199219,0 0.316407,-0.140625 0.316407,-0.363281 0,-0.257813 -0.175782,-0.421875 -0.433594,-0.421875 -0.222656,0 -0.410156,0.08203 -0.574219,0.257812 -0.128906,0.128906 -0.199219,0.199219 -0.375,0.46875 h -0.02344 v -0.714844 l -0.03516,-0.01172 -0.07031,0.03516 c -0.246094,0.105469 -0.421875,0.164062 -0.679688,0.246094 -0.128906,0.05859 -0.257812,0.08203 -0.363281,0.128906 l -0.07031,0.02344 v 0.128907 c 0.105468,-0.02344 0.175781,-0.03516 0.28125,-0.03516 0.199218,0 0.269531,0.128907 0.269531,0.480469 v 2.003906 c 0,0.3867191 -0.07031,0.4687503 -0.515625,0.5390628 l -0.05859,0.011719 z m 4.59668,-3.6796871 c -1.007813,0 -1.734375,0.785156 -1.734375,1.863281 0,1.101562 0.738281,1.8984373 1.746094,1.8984373 1.007812,0 1.78125,-0.8437503 1.78125,-1.9570313 0,-1.066406 -0.738282,-1.804687 -1.792969,-1.804687 z m 0.140625,3.5390621 c -0.339844,0 -0.621094,-0.1757813 -0.808594,-0.5156251 -0.222656,-0.410156 -0.351562,-0.960937 -0.351562,-1.511719 0,-0.796875 0.375,-1.289062 0.949218,-1.289062 0.667969,0 1.148438,0.773437 1.148438,1.851562 0,0.914063 -0.363281,1.4648441 -0.9375,1.4648441 z m 2.053711,0.140625 h 1.898437 v -0.1171875 h -0.05859 c -0.445312,0 -0.550781,-0.1289063 -0.550781,-0.5507816 v -4.78125 l -0.02344,-0.01172 -0.08203,0.02344 c -0.28125,0.08203 -0.410156,0.117188 -0.667968,0.1875 -0.164063,0.03516 -0.316407,0.08203 -0.445313,0.117188 l -0.08203,0.02344 v 0.117188 h 0.02344 c 0.140625,-0.01172 0.199219,-0.01172 0.269532,-0.01172 0.269531,0 0.339843,0.105469 0.339843,0.492187 v 3.820313 c 0,0.4101561 -0.117187,0.5273436 -0.574218,0.5624998 l -0.04687,0.011719 z m 2.226562,0 h 1.898438 v -0.1171875 h -0.05859 c -0.445313,0 -0.550781,-0.1289063 -0.550781,-0.5507816 v -4.78125 l -0.02344,-0.01172 -0.08203,0.02344 c -0.28125,0.08203 -0.410156,0.117188 -0.667969,0.1875 -0.164062,0.03516 -0.316406,0.08203 -0.445312,0.117188 l -0.08203,0.02344 v 0.117188 h 0.02344 c 0.140625,-0.01172 0.199219,-0.01172 0.269531,-0.01172 0.269531,0 0.339844,0.105469 0.339844,0.492187 v 3.820313 c 0,0.4101561 -0.117188,0.5273436 -0.574219,0.5624998 l -0.04687,0.011719 z m 5.329102,-1.3125001 c -0.386719,0.609375 -0.726563,0.84375 -1.242188,0.84375 -0.527343,0 -0.960937,-0.351562 -1.136718,-0.9375 -0.07031,-0.234375 -0.09375,-0.363281 -0.140625,-0.808594 h 2.496093 c -0.08203,-0.539062 -0.152343,-0.773437 -0.351562,-1.007812 -0.246094,-0.304688 -0.609375,-0.457031 -1.03125,-0.457031 -0.984375,0 -1.664063,0.796875 -1.664063,1.96875 0,1.101562 0.574219,1.7929683 1.5,1.7929683 0.761719,0 1.359375,-0.4687503 1.699219,-1.3359373 z m -0.84375,-1.160156 H 56.5503 c 0.07031,-0.304688 0.09375,-0.386719 0.1875,-0.550781 0.140625,-0.246094 0.375,-0.375 0.691406,-0.375 0.304688,0 0.527344,0.128906 0.632813,0.375 0.07031,0.164062 0.09375,0.222656 0.140625,0.550781 z m 1.160156,2.4726561 h 1.921875 V -9.7964234 H 61.2378 c -0.492187,0 -0.632812,-0.1640625 -0.632812,-0.5976566 v -1.804687 c 0,-0.140625 0.117187,-0.351563 0.28125,-0.515625 0.09375,-0.08203 0.199218,-0.140625 0.269531,-0.140625 0.05859,0 0.105469,0.03516 0.175781,0.08203 l 0.08203,0.07031 c 0.105469,0.08203 0.1875,0.128906 0.28125,0.128906 0.199219,0 0.316407,-0.140625 0.316407,-0.363281 0,-0.257813 -0.175782,-0.421875 -0.433594,-0.421875 -0.222656,0 -0.410156,0.08203 -0.574219,0.257812 -0.128906,0.128906 -0.199219,0.199219 -0.375,0.46875 h -0.02344 v -0.714844 l -0.03516,-0.01172 -0.07031,0.03516 c -0.246094,0.105469 -0.421875,0.164062 -0.679688,0.246094 -0.128906,0.05859 -0.257812,0.08203 -0.363281,0.128906 l -0.07031,0.02344 v 0.128907 c 0.105468,-0.02344 0.175781,-0.03516 0.28125,-0.03516 0.199218,0 0.269531,0.128907 0.269531,0.480469 v 2.003906 c 0,0.3867191 -0.07031,0.4687503 -0.515625,0.5390628 l -0.05859,0.011719 z m 0,0"
             style="fill:#231f20;fill-opacity:1;fill-rule:nonzero;stroke:none" />
        </g>
        <path
           id="path75"
           d="M 0,0 H -19.749"
           style="fill:none;stroke:#231f20;stroke-width:1.25;stroke-linecap:butt;stroke-linejoin:miter;stroke-miterlimit:4;stroke-dasharray:none;stroke-opacity:1"
           transform="matrix(1.3333333,0,0,-1.3333333,432.47093,734.52087)"
           clip-path="url(#clipPath76)" />
        <path
           id="path77"
           d="M 0,0 V 2.57 5.018 L 5.017,2.503 Z"
           style="fill:#231f20;fill-opacity:1;fill-rule:nonzero;stroke:none"
           transform="matrix(1.3333333,0,0,-1.3333333,431.05492,737.94793)"
           clip-path="url(#clipPath78)" />
        <path
           id="path79"
           d="M 0,0 H -19.749"
           style="fill:none;stroke:#231f20;stroke-width:1.25;stroke-linecap:butt;stroke-linejoin:miter;stroke-miterlimit:4;stroke-dasharray:none;stroke-opacity:1"
           transform="matrix(1.3333333,0,0,-1.3333333,343.94292,734.52087)"
           clip-path="url(#clipPath80)" />
        <path
           id="path81"
           d="M 0,0 V 2.57 5.018 L 5.017,2.503 Z"
           style="fill:#231f20;fill-opacity:1;fill-rule:nonzero;stroke:none"
           transform="matrix(1.3333333,0,0,-1.3333333,342.52825,737.94793)"
           clip-path="url(#clipPath82)" />
        <path
           id="path83"
           d="M 0,0 H -19.749"
           style="fill:none;stroke:#231f20;stroke-width:1.25;stroke-linecap:butt;stroke-linejoin:miter;stroke-miterlimit:4;stroke-dasharray:none;stroke-opacity:1"
           transform="matrix(1.3333333,0,0,-1.3333333,520.73759,734.52087)"
           clip-path="url(#clipPath84)" />
        <path
           id="path85"
           d="M 0,0 V 2.57 5.018 L 5.018,2.503 Z"
           style="fill:#231f20;fill-opacity:1;fill-rule:nonzero;stroke:none"
           transform="matrix(1.3333333,0,0,-1.3333333,519.32157,737.94793)"
           clip-path="url(#clipPath86)" />
        <path
           id="path87"
           d="M 0,0 H -19.749"
           style="fill:none;stroke:#231f20;stroke-width:1.25;stroke-linecap:butt;stroke-linejoin:miter;stroke-miterlimit:4;stroke-dasharray:none;stroke-opacity:1"
           transform="matrix(1.3333333,0,0,-1.3333333,296.02424,734.09768)"
           clip-path="url(#clipPath88)" />
        <path
           id="path89"
           d="M 0,0 V 2.57 5.018 L 5.017,2.503 Z"
           style="fill:#231f20;fill-opacity:1;fill-rule:nonzero;stroke:none"
           transform="matrix(1.3333333,0,0,-1.3333333,294.6088,737.52475)"
           clip-path="url(#clipPath90)" />
        <path
           id="path91"
           d="M 0,0 C 0.828,0 1.5,0.672 1.5,1.5 1.5,2.329 0.828,3 0,3 -0.83,3 -1.5,2.329 -1.5,1.5 -1.5,0.672 -0.83,0 0,0"
           style="fill:#231f20;fill-opacity:1;fill-rule:nonzero;stroke:none"
           transform="matrix(1.3333333,0,0,-1.3333333,610.11013,736.60287)"
           clip-path="url(#clipPath92)" />
        <path
           id="path93"
           d="M 0,0 H -37.384"
           style="fill:none;stroke:#231f20;stroke-width:1.25;stroke-linecap:butt;stroke-linejoin:miter;stroke-miterlimit:4;stroke-dasharray:none;stroke-opacity:1"
           transform="matrix(1.3333333,0,0,-1.3333333,632.15147,734.52021)"
           clip-path="url(#clipPath94)" />
        <path
           id="path95"
           d="M 0,0 V 2.57 5.017 L 5.017,2.502 Z"
           style="fill:#231f20;fill-opacity:1;fill-rule:nonzero;stroke:none"
           transform="matrix(1.3333333,0,0,-1.3333333,631.22349,737.94727)"
           clip-path="url(#clipPath96)" />
      </g>
    </g>
  </g>
</svg>
