<?xml version="1.0" encoding="UTF-8" standalone="no"?>
<!-- Created with Inkscape (http://www.inkscape.org/) -->

<svg
   version="1.1"
   id="svg1"
   viewBox="0 0 310.51788 88.067993"
   xmlns="http://www.w3.org/2000/svg"
   xmlns:svg="http://www.w3.org/2000/svg">
  <defs
     id="defs1">
    <clipPath
       clipPathUnits="userSpaceOnUse"
       id="clipPath74">
      <path
         d="m 195.152,196.184 h 227.697 v 55.508 H 195.152 Z"
         transform="translate(-373.19751,-240.20161)"
         id="path74" />
    </clipPath>
    <clipPath
       clipPathUnits="userSpaceOnUse"
       id="clipPath76">
      <path
         d="m 195.152,196.184 h 227.697 v 55.508 H 195.152 Z"
         transform="translate(-354.76591,-232.39881)"
         id="path76" />
    </clipPath>
    <clipPath
       clipPathUnits="userSpaceOnUse"
       id="clipPath78">
      <path
         d="m 195.152,196.184 h 227.697 v 55.508 H 195.152 Z"
         transform="translate(-373.19751,-232.39881)"
         id="path78" />
    </clipPath>
    <clipPath
       clipPathUnits="userSpaceOnUse"
       id="clipPath80">
      <path
         d="m 195.152,196.184 h 227.697 v 55.508 H 195.152 Z"
         transform="translate(-354.76591,-224.59611)"
         id="path80" />
    </clipPath>
    <clipPath
       clipPathUnits="userSpaceOnUse"
       id="clipPath82">
      <path
         d="m 195.152,196.184 h 227.697 v 55.508 H 195.152 Z"
         transform="translate(-373.19751,-224.59611)"
         id="path82" />
    </clipPath>
    <clipPath
       clipPathUnits="userSpaceOnUse"
       id="clipPath84">
      <path
         d="m 195.152,196.184 h 227.697 v 55.508 H 195.152 Z"
         transform="translate(-354.76591,-207.67471)"
         id="path84" />
    </clipPath>
    <clipPath
       clipPathUnits="userSpaceOnUse"
       id="clipPath86">
      <path
         d="m 195.152,196.184 h 227.697 v 55.508 H 195.152 Z"
         transform="translate(-373.19751,-207.67471)"
         id="path86" />
    </clipPath>
    <clipPath
       clipPathUnits="userSpaceOnUse"
       id="clipPath88">
      <path
         d="m 195.152,196.184 h 227.697 v 55.508 H 195.152 Z"
         id="path88" />
    </clipPath>
    <clipPath
       clipPathUnits="userSpaceOnUse"
       id="clipPath90">
      <path
         d="m 195.152,196.184 h 227.697 v 55.508 H 195.152 Z"
         transform="translate(-354.56831,-198.18411)"
         id="path90" />
    </clipPath>
    <clipPath
       clipPathUnits="userSpaceOnUse"
       id="clipPath94">
      <path
         d="m 195.152,196.184 h 227.697 v 55.508 H 195.152 Z"
         transform="translate(-247.22191,-240.20161)"
         id="path94" />
    </clipPath>
    <clipPath
       clipPathUnits="userSpaceOnUse"
       id="clipPath96">
      <path
         d="m 195.152,196.184 h 227.697 v 55.508 H 195.152 Z"
         transform="translate(-228.79081,-232.39881)"
         id="path96" />
    </clipPath>
    <clipPath
       clipPathUnits="userSpaceOnUse"
       id="clipPath98">
      <path
         d="m 195.152,196.184 h 227.697 v 55.508 H 195.152 Z"
         transform="translate(-247.22191,-232.39881)"
         id="path98" />
    </clipPath>
    <clipPath
       clipPathUnits="userSpaceOnUse"
       id="clipPath100">
      <path
         d="m 195.152,196.184 h 227.697 v 55.508 H 195.152 Z"
         transform="translate(-228.79081,-224.59611)"
         id="path100" />
    </clipPath>
    <clipPath
       clipPathUnits="userSpaceOnUse"
       id="clipPath102">
      <path
         d="m 195.152,196.184 h 227.697 v 55.508 H 195.152 Z"
         transform="translate(-247.22191,-224.59611)"
         id="path102" />
    </clipPath>
    <clipPath
       clipPathUnits="userSpaceOnUse"
       id="clipPath104">
      <path
         d="m 195.152,196.184 h 227.697 v 55.508 H 195.152 Z"
         transform="translate(-228.79081,-207.67471)"
         id="path104" />
    </clipPath>
    <clipPath
       clipPathUnits="userSpaceOnUse"
       id="clipPath106">
      <path
         d="m 195.152,196.184 h 227.697 v 55.508 H 195.152 Z"
         transform="translate(-247.22191,-207.67471)"
         id="path106" />
    </clipPath>
  </defs>
  <g
     id="g1"
     transform="translate(-252.68622,-650.36432)">
    <g
       id="g283">
      <rect
         style="fill:#ffffff"
         id="rect283"
         width="310.51788"
         height="88.068001"
         x="252.68622"
         y="650.36432" />
      <g
         id="group-MC0">
        <path
           id="path72"
           d="M 0,0 H 18.941"
           style="fill:none;stroke:#231f20;stroke-width:0.5;stroke-linecap:butt;stroke-linejoin:miter;stroke-miterlimit:4;stroke-dasharray:none;stroke-opacity:1"
           transform="matrix(1.3333333,0,0,-1.3333333,473.0212,671.7312)" />
        <path
           id="path73"
           d="m 0,0 -1.096,1.802 0.062,0.04 2.937,-1.166 C 2.927,0.45 3.95,0.226 4.974,0 3.95,-0.225 2.927,-0.45 1.903,-0.676 l -2.937,-1.166 -0.062,0.03 z"
           style="fill:#231f20;fill-opacity:1;fill-rule:nonzero;stroke:none"
           transform="matrix(1.3333333,0,0,-1.3333333,497.59667,671.7312)"
           clip-path="url(#clipPath74)" />
        <path
           id="path75"
           d="M 0,0 H 18.941"
           style="fill:none;stroke:#231f20;stroke-width:0.5;stroke-linecap:butt;stroke-linejoin:miter;stroke-miterlimit:4;stroke-dasharray:none;stroke-opacity:1"
           transform="matrix(1.3333333,0,0,-1.3333333,473.0212,682.13493)"
           clip-path="url(#clipPath76)" />
        <path
           id="path77"
           d="m 0,0 -1.096,1.802 0.062,0.04 2.937,-1.166 C 2.927,0.45 3.95,0.226 4.974,0 3.95,-0.225 2.927,-0.45 1.903,-0.676 l -2.937,-1.166 -0.062,0.03 z"
           style="fill:#231f20;fill-opacity:1;fill-rule:nonzero;stroke:none"
           transform="matrix(1.3333333,0,0,-1.3333333,497.59667,682.13493)"
           clip-path="url(#clipPath78)" />
        <path
           id="path79"
           d="M 0,0 H 18.941"
           style="fill:none;stroke:#231f20;stroke-width:0.5;stroke-linecap:butt;stroke-linejoin:miter;stroke-miterlimit:4;stroke-dasharray:none;stroke-opacity:1"
           transform="matrix(1.3333333,0,0,-1.3333333,473.0212,692.53853)"
           clip-path="url(#clipPath80)" />
        <path
           id="path81"
           d="m 0,0 -1.096,1.802 0.062,0.04 2.937,-1.166 C 2.927,0.45 3.95,0.226 4.974,0 3.95,-0.225 2.927,-0.45 1.903,-0.676 l -2.937,-1.166 -0.062,0.03 z"
           style="fill:#231f20;fill-opacity:1;fill-rule:nonzero;stroke:none"
           transform="matrix(1.3333333,0,0,-1.3333333,497.59667,692.53853)"
           clip-path="url(#clipPath82)" />
        <path
           id="path83"
           d="M 0,0 H 18.941"
           style="fill:none;stroke:#231f20;stroke-width:0.5;stroke-linecap:butt;stroke-linejoin:miter;stroke-miterlimit:4;stroke-dasharray:none;stroke-opacity:1"
           transform="matrix(1.3333333,0,0,-1.3333333,473.0212,715.1004)"
           clip-path="url(#clipPath84)" />
        <path
           id="path85"
           d="m 0,0 -1.096,1.802 0.062,0.04 2.937,-1.166 C 2.927,0.45 3.95,0.226 4.974,0 3.95,-0.225 2.927,-0.45 1.903,-0.676 l -2.937,-1.166 -0.062,0.03 z"
           style="fill:#231f20;fill-opacity:1;fill-rule:nonzero;stroke:none"
           transform="matrix(1.3333333,0,0,-1.3333333,497.59667,715.1004)"
           clip-path="url(#clipPath86)" />
        <path
           id="path87"
           d="M 354.568,198.184 H 252.32 v 51.508 h 102.248 z"
           style="fill:#e6f7fd;fill-opacity:1;fill-rule:nonzero;stroke:none"
           transform="matrix(1.3333333,0,0,-1.3333333,0,992)"
           clip-path="url(#clipPath88)" />
        <path
           id="path89"
           d="M 0,0 H -102.248 V 51.508 H 0 Z"
           style="fill:none;stroke:#231f20;stroke-width:0.5;stroke-linecap:butt;stroke-linejoin:miter;stroke-miterlimit:4;stroke-dasharray:none;stroke-opacity:1"
           transform="matrix(1.3333333,0,0,-1.3333333,472.75773,727.75453)"
           clip-path="url(#clipPath90)" />
        <path
           id="path91"
           d="M 5.4246281,-5.5909234 H 5.2605656 c -0.058594,0.5976562 -0.7382812,-0.058594 -1.8398437,-0.058594 -1.6875,0 -3.00000002,1.21875 -3.00000002,2.9414063 0,1.88671871 1.42968752,2.83593746 3.02343752,2.83593746 0.5507812,0 1.4882812,-0.17578125 2.2617187,-1.25390626 l -0.140625,-0.1289062 c -0.5039062,0.62109371 -1.1132812,1.08984371 -2.0507812,1.08984371 -1.2773438,0 -2.1210938,-1.00781251 -2.1210938,-2.67187501 0,-1.265625 0.6679688,-2.5195312 2.109375,-2.5195312 0.9609375,0 1.6875,0.6210937 1.8984375,1.546875 h 0.1640625 z m 1.4296875,3.4453125 c 0,-0.7148438 0.2695313,-1.453125 1.078125,-1.453125 0.9726563,0 1.21875,1.1835937 1.21875,2.0390625 0,0.59765621 -0.2929687,1.39453121 -1.0078125,1.39453121 -0.9726562,0 -1.2890625,-1.20703121 -1.2890625,-1.98046871 z m 3.0703125,0.28125 c 0,-1.2070313 -0.703125,-1.9804688 -1.9335937,-1.9804688 -1.0898438,0 -1.9101563,0.9023438 -1.9101563,1.9804688 0,1.10156246 0.796875,1.94531246 1.9101563,1.94531246 1.0898437,0 1.9335937,-0.85546875 1.9335937,-1.94531246 z M 10.3758,-0.00107969 h 1.875 v -0.1640625 c -0.421875,0 -0.597656,-0.0585938 -0.597656,-0.52734375 V -2.9424859 c 0.246094,-0.2109375 0.527344,-0.3984375 0.855469,-0.3984375 0.398437,0 0.703125,0.2226562 0.703125,0.7851562 v 1.86328126 c 0,0.46875 -0.175782,0.52734375 -0.597657,0.52734375 v 0.1640625 h 1.875 v -0.1640625 c -0.410156,0 -0.574218,-0.0585938 -0.574218,-0.52734375 V -2.9424859 c 0.257812,-0.2578125 0.585937,-0.3984375 0.84375,-0.3984375 0.410156,0 0.703125,0.2226562 0.703125,0.7851562 v 1.86328126 c 0,0.46875 -0.164063,0.52734375 -0.585938,0.52734375 v 0.1640625 h 1.875 v -0.1640625 c -0.410156,0 -0.585937,-0.0585938 -0.585937,-0.52734375 V -2.5323297 c 0,-0.9609375 -0.375,-1.3125 -1.007813,-1.3125 -0.398437,0 -0.75,0.2226563 -1.300781,0.6679688 -0.1875,-0.4453125 -0.457031,-0.6679688 -0.949219,-0.6679688 -0.503906,0 -0.878906,0.328125 -1.253906,0.6210938 v -0.6210938 c -0.386719,0.1289063 -0.832031,0.2929688 -1.277344,0.375 v 0.1523438 h 0.08203 c 0.375,0 0.492188,0.140625 0.492188,0.4453125 v 2.17968746 c 0,0.46875 -0.164063,0.52734375 -0.574219,0.52734375 z m 7.907227,-2.97656251 c 0,-0.070312 0.363281,-0.3632812 0.820312,-0.3632812 0.855469,0 1.230469,0.8554687 1.230469,1.59375 0,0.7382812 -0.316406,1.58203121 -1.171875,1.58203121 -0.539063,0 -0.878906,-0.31640625 -0.878906,-0.50390625 z m -0.703125,2.55468751 c 0.386718,0.31640625 0.867187,0.50390625 1.359375,0.50390625 1.03125,0 2.097656,-0.7734375 2.097656,-2.24999996 0,-0.8320313 -0.527344,-1.6757813 -1.429688,-1.6757813 -0.574218,0 -0.890625,0.2109375 -1.324218,0.5507813 v -2.4257813 c -0.375,0.09375 -0.832032,0.2578125 -1.253907,0.3398438 v 0.1640625 h 0.09375 c 0.222657,0 0.457032,0.046875 0.457032,0.3046875 z m 3.919921,-2.89453121 h 0.105469 c 0.375,0 0.492188,0.140625 0.492188,0.4453125 v 2.17968746 c 0,0.46875 -0.164063,0.52734375 -0.597657,0.52734375 v 0.1640625 h 1.898438 v -0.1640625 c -0.433594,0 -0.597656,-0.0585938 -0.597656,-0.52734375 V -3.8448297 c -0.386719,0.1289063 -0.84375,0.2929688 -1.300782,0.375 z m 0.492188,-1.96875 c 0,0.234375 0.1875,0.421875 0.433594,0.421875 0.234375,0 0.433593,-0.1875 0.433593,-0.421875 0,-0.2460938 -0.199218,-0.4335938 -0.433593,-0.4335938 -0.246094,0 -0.433594,0.1875 -0.433594,0.4335938 z m 1.731445,5.28515621 h 1.875 v -0.1640625 c -0.421875,0 -0.585937,-0.0585938 -0.585937,-0.52734375 V -2.9424859 c 0.234375,-0.2109375 0.515625,-0.3984375 0.84375,-0.3984375 0.410156,0 0.703125,0.2226562 0.703125,0.7851562 v 1.86328126 c 0,0.46875 -0.164063,0.52734375 -0.585938,0.52734375 v 0.1640625 h 1.863282 v -0.1640625 c -0.398438,0 -0.574219,-0.0585938 -0.574219,-0.52734375 V -2.5323297 c 0,-0.9609375 -0.375,-1.3125 -1.007813,-1.3125 -0.503906,0 -0.867187,0.328125 -1.242187,0.6210938 v -0.6210938 c -0.398438,0.1289063 -0.84375,0.2929688 -1.289063,0.375 v 0.1523438 h 0.09375 c 0.363282,0 0.492188,0.140625 0.492188,0.4453125 v 2.17968746 c 0,0.46875 -0.175781,0.52734375 -0.585938,0.52734375 z m 5.361328,-0.99609375 c 0,-0.72656246 0.925782,-0.97265626 1.464844,-1.19531246 v 1.37109371 c 0,0.19921875 -0.433594,0.50390625 -0.785156,0.50390625 -0.445313,0 -0.679688,-0.24609375 -0.679688,-0.6796875 z m 2.167969,-1.44140626 c 0,-0.9023437 -0.328125,-1.40625 -1.3125,-1.40625 -0.515625,0 -1.382812,0.2460938 -1.382812,0.8789063 0,0.2226562 0.105468,0.3984375 0.339843,0.3984375 0.257813,0 0.363282,-0.1992188 0.363282,-0.421875 0,-0.09375 -0.02344,-0.1757813 -0.01172,-0.2695313 0.01172,-0.2695312 0.410156,-0.3398437 0.609375,-0.3398437 0.597656,0 0.691406,0.4335937 0.691406,0.7851562 v 0.421875 c -0.363281,0.1054688 -0.925781,0.2578125 -1.324219,0.46875 -0.46875,0.2460938 -0.855468,0.5859375 -0.855468,1.12500001 0,0.50390625 0.398437,0.87890625 0.902343,0.87890625 0.492188,0 0.914063,-0.24609375 1.289063,-0.52734375 0.01172,0.2578125 0.1875,0.52734375 0.46875,0.52734375 0.386719,0 0.644531,-0.1875 0.84375,-0.50390625 l -0.09375,-0.0820312 c -0.07031,0.0820312 -0.175781,0.1875 -0.304688,0.1875 -0.210937,0 -0.222656,-0.2109375 -0.222656,-0.375 z m 1.517578,-1.0898437 v 2.5078125 c 0,0.56249996 0.08203,1.10156246 0.761719,1.10156246 0.457031,0 0.738281,-0.29296875 1.007813,-0.64453125 l -0.140625,-0.0820313 c -0.117188,0.12890625 -0.316407,0.28125 -0.503907,0.28125 -0.1875,0 -0.421875,-0.0820313 -0.421875,-0.66796871 v -2.4960937 h 0.890625 v -0.234375 h -0.890625 v -1.1367188 h -0.164062 c -0.222656,0.5390625 -0.632813,0.9960938 -1.113281,1.265625 v 0.1054688 z m 2.06543,0.2109375 h 0.105469 c 0.375,0 0.492187,0.140625 0.492187,0.4453125 v 2.17968746 c 0,0.46875 -0.164062,0.52734375 -0.597656,0.52734375 v 0.1640625 h 1.898437 v -0.1640625 c -0.433593,0 -0.597656,-0.0585938 -0.597656,-0.52734375 V -3.8448297 c -0.386719,0.1289063 -0.84375,0.2929688 -1.300781,0.375 z m 0.492187,-1.96875 c 0,0.234375 0.1875,0.421875 0.433594,0.421875 0.234375,0 0.433594,-0.1875 0.433594,-0.421875 0,-0.2460938 -0.199219,-0.4335938 -0.433594,-0.4335938 -0.246094,0 -0.433594,0.1875 -0.433594,0.4335938 z m 2.645508,3.140625 c 0,-0.7148438 0.269532,-1.453125 1.078125,-1.453125 0.972657,0 1.21875,1.1835937 1.21875,2.0390625 0,0.59765621 -0.292968,1.39453121 -1.007812,1.39453121 -0.972656,0 -1.289063,-1.20703121 -1.289063,-1.98046871 z m 3.070313,0.28125 c 0,-1.2070313 -0.703125,-1.9804688 -1.933594,-1.9804688 -1.089844,0 -1.910156,0.9023438 -1.910156,1.9804688 0,1.10156246 0.796875,1.94531246 1.910156,1.94531246 1.089844,0 1.933594,-0.85546875 1.933594,-1.94531246 z m 0.46289,1.86328121 h 1.875 v -0.1640625 c -0.421875,0 -0.585937,-0.0585938 -0.585937,-0.52734375 V -2.9424859 c 0.234375,-0.2109375 0.515625,-0.3984375 0.84375,-0.3984375 0.410156,0 0.703125,0.2226562 0.703125,0.7851562 v 1.86328126 c 0,0.46875 -0.164063,0.52734375 -0.585938,0.52734375 v 0.1640625 h 1.863282 v -0.1640625 c -0.398438,0 -0.574219,-0.0585938 -0.574219,-0.52734375 V -2.5323297 c 0,-0.9609375 -0.375,-1.3125 -1.007813,-1.3125 -0.503906,0 -0.867187,0.328125 -1.242187,0.6210938 v -0.6210938 c -0.398438,0.1289063 -0.84375,0.2929688 -1.289063,0.375 v 0.1523438 h 0.09375 c 0.363282,0 0.492188,0.140625 0.492188,0.4453125 v 2.17968746 c 0,0.46875 -0.175781,0.52734375 -0.585938,0.52734375 z m 5.364258,-0.99609375 c 0,-0.72656246 0.925781,-0.97265626 1.464844,-1.19531246 v 1.37109371 c 0,0.19921875 -0.433594,0.50390625 -0.785156,0.50390625 -0.445313,0 -0.679688,-0.24609375 -0.679688,-0.6796875 z m 2.167969,-1.44140626 c 0,-0.9023437 -0.328125,-1.40625 -1.3125,-1.40625 -0.515625,0 -1.382813,0.2460938 -1.382813,0.8789063 0,0.2226562 0.105469,0.3984375 0.339844,0.3984375 0.257813,0 0.363281,-0.1992188 0.363281,-0.421875 0,-0.09375 -0.02344,-0.1757813 -0.01172,-0.2695313 0.01172,-0.2695312 0.410156,-0.3398437 0.609375,-0.3398437 0.597656,0 0.691406,0.4335937 0.691406,0.7851562 v 0.421875 c -0.363281,0.1054688 -0.925781,0.2578125 -1.324219,0.46875 -0.46875,0.2460938 -0.855469,0.5859375 -0.855469,1.12500001 0,0.50390625 0.398438,0.87890625 0.902344,0.87890625 0.492188,0 0.914063,-0.24609375 1.289063,-0.52734375 0.01172,0.2578125 0.1875,0.52734375 0.46875,0.52734375 0.386718,0 0.644531,-0.1875 0.84375,-0.50390625 l -0.09375,-0.0820312 c -0.07031,0.0820312 -0.175782,0.1875 -0.304688,0.1875 -0.210937,0 -0.222656,-0.2109375 -0.222656,-0.375 z m 1.514648,1.74609376 c 0,0.46875 -0.164062,0.52734375 -0.597656,0.52734375 v 0.1640625 h 1.898438 v -0.1640625 c -0.433594,0 -0.597657,-0.0585938 -0.597657,-0.52734375 V -5.7198297 c -0.339843,0.1054688 -0.820312,0.2578125 -1.253906,0.3398438 v 0.1640625 h 0.09375 c 0.222656,0 0.457031,0.046875 0.457031,0.3046875 z M 17.228339,5.1551703 c -1.089844,0 -1.863281,0.8554688 -1.863281,1.921875 0,1.7109375 1.066406,2.0039063 1.582031,2.0039063 0.808594,0 1.242188,-0.4921875 1.640625,-1.2773438 l -0.152344,-0.09375 c -0.222656,0.421875 -0.644531,0.7617188 -1.148437,0.7617188 -0.867188,0 -1.265625,-0.8789063 -1.265625,-1.6289063 0,-0.6328125 0.304687,-1.3945312 1.042969,-1.3945312 0.269531,0 0.539062,0.1289062 0.539062,0.4101562 0,0.2460938 0.152344,0.5039063 0.421875,0.5039063 0.234375,0 0.410156,-0.1757813 0.410156,-0.4335938 0,-0.5507812 -0.773437,-0.7734375 -1.207031,-0.7734375 z m 1.608399,0.5273438 h 0.105468 c 0.375,0 0.492188,0.140625 0.492188,0.4453125 v 2.1796875 c 0,0.46875 -0.164063,0.5273437 -0.597656,0.5273437 v 0.1640625 h 1.898437 V 8.8348578 c -0.433594,0 -0.597656,-0.058594 -0.597656,-0.5273437 V 5.1551703 c -0.386719,0.1289063 -0.84375,0.2929688 -1.300781,0.375 z m 0.492187,-1.96875 c 0,0.234375 0.1875,0.421875 0.433594,0.421875 0.234375,0 0.433594,-0.1875 0.433594,-0.421875 0,-0.2460938 -0.199219,-0.4335938 -0.433594,-0.4335938 -0.246094,0 -0.433594,0.1875 -0.433594,0.4335938 z m 1.731445,5.2851562 h 2.015625 V 8.8348578 c -0.585937,0 -0.679687,-0.082031 -0.679687,-0.7148437 V 6.2567328 c 0,-0.046875 0.316406,-0.5507812 0.609375,-0.5507812 0.09375,0 0.152344,0.046875 0.210937,0.1054687 0.07031,0.058594 0.140625,0.1171875 0.269532,0.1171875 0.199218,0 0.386718,-0.1523437 0.386718,-0.3632812 0,-0.2695313 -0.234375,-0.4101563 -0.46875,-0.4101563 -0.398437,0 -0.773437,0.4570313 -1.007812,0.7148438 V 5.1551703 h -0.03516 c -0.410157,0.140625 -0.855469,0.2695313 -1.300782,0.3867188 v 0.1640625 c 0.5625,0 0.632813,0.070312 0.632813,0.6445312 v 1.7578125 c 0,0.5859375 -0.02344,0.703125 -0.632813,0.7265625 z m 5.056641,-3.84375 c -1.089844,0 -1.863281,0.8554688 -1.863281,1.921875 0,1.7109375 1.066406,2.0039063 1.582031,2.0039063 0.808594,0 1.242187,-0.4921875 1.640625,-1.2773438 l -0.152344,-0.09375 c -0.222656,0.421875 -0.644531,0.7617188 -1.148437,0.7617188 -0.867188,0 -1.265625,-0.8789063 -1.265625,-1.6289063 0,-0.6328125 0.304687,-1.3945312 1.042968,-1.3945312 0.269532,0 0.539063,0.1289062 0.539063,0.4101562 0,0.2460938 0.152344,0.5039063 0.421875,0.5039063 0.234375,0 0.410156,-0.1757813 0.410156,-0.4335938 0,-0.5507812 -0.773437,-0.7734375 -1.207031,-0.7734375 z m 5.147461,0 -1.277344,0.082031 v 0.1640625 c 0.257813,0 0.574219,0.035156 0.574219,0.421875 v 2.25 c -0.09375,0.1875 -0.433594,0.5039062 -0.855469,0.5039062 -0.46875,0 -0.691406,-0.3164062 -0.691406,-0.75 V 5.15517 l -1.289063,0.082031 v 0.1640625 c 0.269532,0 0.585938,0.035156 0.585938,0.421875 v 2.2617187 c 0,0.6679688 0.445312,0.9960938 1.089844,0.9960938 0.515625,0 0.84375,-0.3164063 1.183593,-0.65625 v 0.65625 h 0.03516 c 0.386718,-0.140625 0.808593,-0.2460938 1.21875,-0.3515625 V 8.5653266 c -0.292969,-0.011719 -0.574219,-0.046875 -0.574219,-0.375 z m 0.908203,0.5273438 h 0.105469 c 0.375,0 0.492187,0.140625 0.492187,0.4453125 v 2.1796875 c 0,0.46875 -0.164062,0.5273437 -0.597656,0.5273437 v 0.1640625 h 1.898438 V 8.8348578 c -0.433594,0 -0.597657,-0.058594 -0.597657,-0.5273437 V 5.1551703 c -0.386718,0.1289063 -0.84375,0.2929688 -1.300781,0.375 z m 0.492188,-1.96875 c 0,0.234375 0.1875,0.421875 0.433593,0.421875 0.234375,0 0.433594,-0.1875 0.433594,-0.421875 0,-0.2460938 -0.199219,-0.4335938 -0.433594,-0.4335938 -0.246093,0 -0.433593,0.1875 -0.433593,0.4335938 z m 2.329101,1.7578125 v 2.5078125 c 0,0.5625 0.08203,1.1015625 0.761719,1.1015625 0.457031,0 0.738281,-0.2929688 1.007812,-0.6445313 L 36.62287,8.3543891 c -0.117187,0.1289062 -0.316406,0.28125 -0.503906,0.28125 -0.1875,0 -0.421875,-0.082031 -0.421875,-0.6679688 V 5.4715766 h 0.890625 V 5.2372016 H 35.697089 V 4.1004828 h -0.164062 c -0.222657,0.5390625 -0.632813,0.9960938 -1.113282,1.265625 v 0.1054688 z m 0,0"
           style="fill:#231f20;fill-opacity:1;fill-rule:nonzero;stroke:none"
           aria-label="Combinational&#10;circuit"
           transform="matrix(1.3333333,0,0,1.3333333,369.9156,691.12253)" />
        <path
           id="path92"
           d="M 0,0 H 18.941"
           style="fill:none;stroke:#231f20;stroke-width:0.5;stroke-linecap:butt;stroke-linejoin:miter;stroke-miterlimit:4;stroke-dasharray:none;stroke-opacity:1"
           transform="matrix(1.3333333,0,0,-1.3333333,305.0544,671.7312)" />
        <path
           id="path93"
           d="m 0,0 -1.096,1.802 0.062,0.04 2.937,-1.166 C 2.927,0.45 3.95,0.226 4.974,0 3.95,-0.225 2.927,-0.45 1.903,-0.676 l -2.937,-1.166 -0.062,0.03 z"
           style="fill:#231f20;fill-opacity:1;fill-rule:nonzero;stroke:none"
           transform="matrix(1.3333333,0,0,-1.3333333,329.6292,671.7312)"
           clip-path="url(#clipPath94)" />
        <path
           id="path95"
           d="M 0,0 H 18.941"
           style="fill:none;stroke:#231f20;stroke-width:0.5;stroke-linecap:butt;stroke-linejoin:miter;stroke-miterlimit:4;stroke-dasharray:none;stroke-opacity:1"
           transform="matrix(1.3333333,0,0,-1.3333333,305.0544,682.13493)"
           clip-path="url(#clipPath96)" />
        <path
           id="path97"
           d="m 0,0 -1.096,1.802 0.062,0.04 2.937,-1.166 C 2.927,0.45 3.95,0.226 4.974,0 3.95,-0.225 2.927,-0.45 1.903,-0.676 l -2.937,-1.166 -0.062,0.03 z"
           style="fill:#231f20;fill-opacity:1;fill-rule:nonzero;stroke:none"
           transform="matrix(1.3333333,0,0,-1.3333333,329.6292,682.13493)"
           clip-path="url(#clipPath98)" />
        <path
           id="path99"
           d="M 0,0 H 18.941"
           style="fill:none;stroke:#231f20;stroke-width:0.5;stroke-linecap:butt;stroke-linejoin:miter;stroke-miterlimit:4;stroke-dasharray:none;stroke-opacity:1"
           transform="matrix(1.3333333,0,0,-1.3333333,305.0544,692.53853)"
           clip-path="url(#clipPath100)" />
        <path
           id="path101"
           d="m 0,0 -1.096,1.802 0.062,0.04 2.937,-1.166 C 2.927,0.45 3.95,0.226 4.974,0 3.95,-0.225 2.927,-0.45 1.903,-0.676 l -2.937,-1.166 -0.062,0.03 z"
           style="fill:#231f20;fill-opacity:1;fill-rule:nonzero;stroke:none"
           transform="matrix(1.3333333,0,0,-1.3333333,329.6292,692.53853)"
           clip-path="url(#clipPath102)" />
        <path
           id="path103"
           d="M 0,0 H 18.941"
           style="fill:none;stroke:#231f20;stroke-width:0.5;stroke-linecap:butt;stroke-linejoin:miter;stroke-miterlimit:4;stroke-dasharray:none;stroke-opacity:1"
           transform="matrix(1.3333333,0,0,-1.3333333,305.0544,715.1004)"
           clip-path="url(#clipPath104)" />
        <path
           id="path105"
           d="m 0,0 -1.096,1.802 0.062,0.04 2.937,-1.166 C 2.927,0.45 3.95,0.226 4.974,0 3.95,-0.225 2.927,-0.45 1.903,-0.676 l -2.937,-1.166 -0.062,0.03 z"
           style="fill:#231f20;fill-opacity:1;fill-rule:nonzero;stroke:none"
           transform="matrix(1.3333333,0,0,-1.3333333,329.6292,715.1004)"
           clip-path="url(#clipPath106)" />
        <g
           id="g106"
           aria-label="?&#10;?&#10;?&#10;?&#10;?&#10;?&#10;n inputsm outputs"
           transform="matrix(1.3333333,0,0,1.3333333,318.57787,702.7644)">
          <path
             id="path107"
             d="m 1.3244125,-2.0850188 c 0.2695313,0 0.5039063,-0.234375 0.5039063,-0.5039062 0,-0.2578125 -0.234375,-0.5039063 -0.5039063,-0.5039063 -0.2578125,0 -0.50390625,0.2460938 -0.50390625,0.5039063 0,0.2695312 0.24609375,0.5039062 0.50390625,0.5039062 z m 0,3.06445317 c 0.2695313,0 0.5039063,-0.234375 0.5039063,-0.50390625 0,-0.2578125 -0.234375,-0.50390625 -0.5039063,-0.50390625 -0.2578125,0 -0.50390625,0.24609375 -0.50390625,0.50390625 0,0.26953125 0.24609375,0.50390625 0.50390625,0.50390625 z m 0,3.07031253 c 0.2695313,0 0.5039063,-0.234375 0.5039063,-0.5039063 0,-0.2578125 -0.234375,-0.5039062 -0.5039063,-0.5039062 -0.2578125,0 -0.50390625,0.2460937 -0.50390625,0.5039062 0,0.2695313 0.24609375,0.5039063 0.50390625,0.5039063 z M 127.55586,-2.0850188 c 0.26953,0 0.5039,-0.234375 0.5039,-0.5039062 0,-0.2578125 -0.23437,-0.5039063 -0.5039,-0.5039063 -0.25781,0 -0.50391,0.2460938 -0.50391,0.5039063 0,0.2695312 0.2461,0.5039062 0.50391,0.5039062 z m 0,3.06445317 c 0.26953,0 0.5039,-0.234375 0.5039,-0.50390625 0,-0.2578125 -0.23437,-0.50390625 -0.5039,-0.50390625 -0.25781,0 -0.50391,0.24609375 -0.50391,0.50390625 0,0.26953125 0.2461,0.50390625 0.50391,0.50390625 z m 0,3.07031253 c 0.26953,0 0.5039,-0.234375 0.5039,-0.5039063 0,-0.2578125 -0.23437,-0.5039062 -0.5039,-0.5039062 -0.25781,0 -0.50391,0.2460937 -0.50391,0.5039062 0,0.2695313 0.2461,0.5039063 0.50391,0.5039063 z m 0,0"
             style="fill:#231f20;fill-opacity:1;fill-rule:nonzero;stroke:none" />
          <path
             id="path108"
             d="m -40.18633,-4.2324797 c 0.269532,-0.9609375 0.515625,-1.4765625 0.691407,-1.7929687 0.421875,-0.75 1.148437,-1.4882813 1.546875,-1.4882813 0.07031,0 0.210937,0.058594 0.210937,0.2109375 0,0.1523438 -0.140625,0.6796875 -0.1875,0.8320313 l -0.421875,1.5585937 c -0.02344,0.1171875 -0.04687,0.2460938 -0.04687,0.3398438 0,0.1757812 0.09375,0.421875 0.375,0.421875 0.550781,0 0.9375,-0.5742188 1.207031,-1.0078125 l -0.128906,-0.1171875 c -0.175781,0.2929687 -0.445312,0.6796875 -0.644531,0.6796875 -0.09375,0 -0.128906,-0.1054688 -0.128906,-0.1875 0,-0.070312 0.01172,-0.1875 0.04687,-0.2929688 l 0.351562,-1.2773437 c 0.05859,-0.1992188 0.257813,-0.890625 0.257813,-1.1015625 0,-0.3515625 -0.128907,-0.5039063 -0.492188,-0.5039063 -0.351562,0 -0.785156,0.28125 -1.171875,0.6210938 -0.363281,0.3164062 -0.65625,0.7265625 -0.855469,1.0546875 l -0.01172,-0.011719 0.363281,-1.3125 c 0.03516,-0.09375 0.05859,-0.1992187 0.05859,-0.2460937 0,-0.058594 -0.02344,-0.09375 -0.09375,-0.09375 -0.05859,0 -0.199219,0.046875 -0.351563,0.082031 -0.199219,0.046875 -0.527344,0.1054688 -0.878906,0.1171875 l -0.02344,0.140625 c 0.339844,0 0.539063,0 0.539063,0.2578125 0,0.070312 -0.01172,0.140625 -0.03516,0.2109375 l -0.855469,2.90625 z m 0,0"
             style="fill:#231f20;fill-opacity:1;fill-rule:nonzero;stroke:none" />
          <path
             id="path109"
             d="m -34.324025,-7.5488859 h 0.105469 c 0.375,0 0.492187,0.140625 0.492187,0.4453125 v 2.1796875 c 0,0.46875 -0.164062,0.5273437 -0.597656,0.5273437 v 0.1640625 h 1.898438 v -0.1640625 c -0.433594,0 -0.597657,-0.058594 -0.597657,-0.5273437 v -3.1523438 c -0.386718,0.1289063 -0.84375,0.2929688 -1.300781,0.375 z m 0.492188,-1.96875 c 0,0.234375 0.1875,0.421875 0.433593,0.421875 0.234375,0 0.433594,-0.1875 0.433594,-0.421875 0,-0.2460938 -0.199219,-0.4335938 -0.433594,-0.4335938 -0.246093,0 -0.433593,0.1875 -0.433593,0.4335938 z m 1.731445,5.2851562 h 1.875 v -0.1640625 c -0.421875,0 -0.585938,-0.058594 -0.585938,-0.5273437 v -2.25 c 0.234375,-0.2109375 0.515625,-0.3984375 0.84375,-0.3984375 0.410157,0 0.703125,0.2226562 0.703125,0.7851562 v 1.8632813 c 0,0.46875 -0.164062,0.5273437 -0.585937,0.5273437 v 0.1640625 h 1.863281 v -0.1640625 c -0.398437,0 -0.574219,-0.058594 -0.574219,-0.5273437 v -1.8398438 c 0,-0.9609375 -0.375,-1.3125 -1.007812,-1.3125 -0.503906,0 -0.867188,0.328125 -1.242188,0.6210938 v -0.6210938 c -0.398437,0.1289063 -0.84375,0.2929688 -1.289062,0.375 v 0.1523438 h 0.09375 c 0.363281,0 0.492187,0.140625 0.492187,0.4453125 v 2.1796875 c 0,0.46875 -0.175781,0.5273437 -0.585937,0.5273437 z m 5.677734,-2.765625 c 0,-0.1523437 0.351563,-0.5742187 0.867188,-0.5742187 0.878906,0 1.183593,0.8789062 1.183593,1.6289062 0,0.6679688 -0.328125,1.546875 -1.136718,1.546875 -0.328125,0 -0.785157,-0.1757812 -0.914063,-0.5273437 z m -0.703125,3.9726563 c 0,0.5039062 -0.234375,0.5039062 -0.574219,0.5039062 v 0.1640625 h 1.921875 v -0.1640625 c -0.386718,0 -0.644531,0 -0.644531,-0.4453125 v -1.453125 c 0.257813,0.2109375 0.585938,0.2695313 0.914063,0.2695313 1.183593,0 1.839843,-1.1835938 1.839843,-2.1914063 0,-0.9375 -0.574218,-1.734375 -1.546875,-1.734375 -0.492187,0 -0.925781,0.3046875 -1.195312,0.6796875 h -0.01172 v -0.6796875 h -0.03516 c -0.386719,0.2226563 -0.808594,0.3984375 -1.242188,0.5039063 v 0.1523437 h 0.175782 c 0.351562,0 0.398437,0.1171875 0.398437,0.5859375 z m 7.461914,-5.0507813 -1.277343,0.082031 v 0.1640625 c 0.257812,0 0.574218,0.035156 0.574218,0.421875 v 2.25 c -0.09375,0.1875 -0.433593,0.5039062 -0.855468,0.5039062 -0.46875,0 -0.691407,-0.3164062 -0.691407,-0.75 V -8.07623 l -1.289062,0.082031 v 0.1640625 c 0.269531,0 0.585937,0.035156 0.585937,0.421875 v 2.2617187 c 0,0.6679688 0.445313,0.9960938 1.089844,0.9960938 0.515625,0 0.84375,-0.3164063 1.183594,-0.65625 v 0.65625 h 0.03516 c 0.386719,-0.140625 0.808594,-0.2460938 1.21875,-0.3515625 V -4.666074 c -0.292969,-0.011719 -0.574219,-0.046875 -0.574219,-0.375 z m 1.50586,0.3164063 v 2.5078125 c 0,0.5625 0.08203,1.1015625 0.761718,1.1015625 0.457032,0 0.738282,-0.2929688 1.007813,-0.6445313 l -0.140625,-0.082031 c -0.117188,0.1289062 -0.316406,0.28125 -0.503906,0.28125 -0.1875,0 -0.421875,-0.082031 -0.421875,-0.6679688 v -2.4960937 h 0.890625 v -0.234375 h -0.890625 V -9.130917 h -0.164063 c -0.222656,0.5390625 -0.632812,0.9960938 -1.113281,1.265625 v 0.1054688 z m 4.409179,-0.3164063 h -0.140625 c -0.01172,0.09375 -0.07031,0.1289063 -0.152343,0.1289063 -0.117188,0 -0.246094,-0.035156 -0.363282,-0.058594 -0.128906,-0.035156 -0.257812,-0.070312 -0.398437,-0.070312 -0.597656,0 -1.183594,0.3398438 -1.183594,0.9960938 0,1.2304687 1.992188,1.21875 1.992188,2.1328125 0,0.375 -0.351563,0.5507812 -0.691407,0.5507812 -0.585937,0 -1.054687,-0.5273437 -1.066406,-1.0898437 h -0.1875 l 0.04687,1.2539062 h 0.164063 c 0.01172,-0.058594 0,-0.1171875 0.117187,-0.1171875 0.128906,0 0.574219,0.1992188 1.007813,0.1992188 0.597656,0 1.160156,-0.3984375 1.160156,-1.1601563 0,-1.1601562 -1.980469,-1.2070312 -1.980469,-2.0390625 0,-0.3164062 0.292969,-0.4804687 0.609375,-0.4804687 0.574219,0 0.796875,0.3984375 0.949219,0.890625 h 0.152344 z m 0,0"
             style="fill:#231f20;fill-opacity:1;fill-rule:nonzero;stroke:none" />
          <path
             id="path110"
             d="m 142.98945,-4.2324797 c 0.26953,-0.9609375 0.51563,-1.4765625 0.69141,-1.7929687 0.42187,-0.75 1.14844,-1.4882813 1.54687,-1.4882813 0.0703,0 0.21094,0.058594 0.21094,0.2109375 0,0.1523438 -0.14062,0.6796875 -0.1875,0.8320313 l -0.66797,2.2382812 h 0.64453 c 0.2461,-0.9609375 0.49219,-1.4765625 0.66797,-1.7929687 0.42188,-0.75 1.14844,-1.4882813 1.54688,-1.4882813 0.0703,0 0.21093,0.058594 0.21093,0.2109375 0,0.1523438 -0.14062,0.6796875 -0.17578,0.8320313 l -0.43359,1.5585937 c -0.0234,0.1171875 -0.0469,0.2460938 -0.0469,0.3398438 0,0.1757812 0.10547,0.421875 0.375,0.421875 0.55079,0 0.9375,-0.5742188 1.21875,-1.0078125 l -0.1289,-0.1171875 c -0.1875,0.2929687 -0.45703,0.6796875 -0.65625,0.6796875 -0.0937,0 -0.12891,-0.1054688 -0.12891,-0.1875 0,-0.070312 0.0117,-0.1875 0.0469,-0.2929688 l 0.36328,-1.2773437 c 0.0469,-0.1992188 0.24609,-0.890625 0.24609,-1.1015625 0,-0.3515625 -0.1289,-0.5039063 -0.49219,-0.5039063 -0.77343,0 -1.54687,1.03125 -1.95703,1.6054688 h -0.0234 c 0.0586,-0.1992188 0.25781,-0.890625 0.25781,-1.1015625 0,-0.3515625 -0.12891,-0.5039063 -0.49219,-0.5039063 -0.35156,0 -0.78516,0.28125 -1.17187,0.6210938 -0.36329,0.3164062 -0.65625,0.7265625 -0.85547,1.0546875 l -0.0117,-0.011719 0.36328,-1.3125 c 0.0352,-0.09375 0.0586,-0.1992187 0.0586,-0.2460937 0,-0.058594 -0.0234,-0.09375 -0.0937,-0.09375 -0.0586,0 -0.19922,0.046875 -0.35156,0.082031 -0.19922,0.046875 -0.52734,0.1054688 -0.87891,0.1171875 l -0.0234,0.140625 c 0.33984,0 0.53906,0 0.53906,0.2578125 0,0.070312 -0.0117,0.140625 -0.0352,0.2109375 l -0.85547,2.90625 z m 0,0"
             style="fill:#231f20;fill-opacity:1;fill-rule:nonzero;stroke:none" />
          <path
             id="path111"
             d="m 151.98066,-6.3770109 c 0,-0.7148438 0.26953,-1.453125 1.07813,-1.453125 0.97265,0 1.21875,1.1835937 1.21875,2.0390625 0,0.5976562 -0.29297,1.3945312 -1.00781,1.3945312 -0.97266,0 -1.28907,-1.2070312 -1.28907,-1.9804687 z m 3.07032,0.28125 c 0,-1.2070313 -0.70313,-1.9804688 -1.9336,-1.9804688 -1.08984,0 -1.91015,0.9023438 -1.91015,1.9804688 0,1.1015625 0.79687,1.9453125 1.91015,1.9453125 1.08985,0 1.9336,-0.8554688 1.9336,-1.9453125 z m 4.00488,-1.9804688 -1.27735,0.082031 v 0.1640625 c 0.25782,0 0.57422,0.035156 0.57422,0.421875 v 2.25 c -0.0937,0.1875 -0.43359,0.5039062 -0.85547,0.5039062 -0.46875,0 -0.6914,-0.3164062 -0.6914,-0.75 V -8.07623 l -1.28906,0.082031 v 0.1640625 c 0.26953,0 0.58593,0.035156 0.58593,0.421875 v 2.2617187 c 0,0.6679688 0.44532,0.9960938 1.08985,0.9960938 0.51562,0 0.84375,-0.3164063 1.18359,-0.65625 v 0.65625 h 0.0352 c 0.38672,-0.140625 0.80859,-0.2460938 1.21875,-0.3515625 V -4.666074 c -0.29297,-0.011719 -0.57422,-0.046875 -0.57422,-0.375 z m 1.50586,0.3164063 v 2.5078125 c 0,0.5625 0.082,1.1015625 0.76172,1.1015625 0.45703,0 0.73828,-0.2929688 1.00781,-0.6445313 l -0.14063,-0.082031 c -0.11718,0.1289062 -0.3164,0.28125 -0.5039,0.28125 -0.1875,0 -0.42188,-0.082031 -0.42188,-0.6679688 v -2.4960937 h 0.89063 v -0.234375 h -0.89063 V -9.130917 h -0.16406 c -0.22266,0.5390625 -0.63281,0.9960938 -1.11328,1.265625 v 0.1054688 z m 3.2959,0.7617187 c 0,-0.1523437 0.35156,-0.5742187 0.86718,-0.5742187 0.87891,0 1.1836,0.8789062 1.1836,1.6289062 0,0.6679688 -0.32813,1.546875 -1.13672,1.546875 -0.32813,0 -0.78516,-0.1757812 -0.91406,-0.5273437 z m -0.70313,3.9726563 c 0,0.5039062 -0.23437,0.5039062 -0.57422,0.5039062 v 0.1640625 h 1.92188 v -0.1640625 c -0.38672,0 -0.64453,0 -0.64453,-0.4453125 v -1.453125 c 0.25781,0.2109375 0.58593,0.2695313 0.91406,0.2695313 1.18359,0 1.83984,-1.1835938 1.83984,-2.1914063 0,-0.9375 -0.57422,-1.734375 -1.54687,-1.734375 -0.49219,0 -0.92578,0.3046875 -1.19532,0.6796875 h -0.0117 v -0.6796875 h -0.0352 c -0.38672,0.2226563 -0.80859,0.3984375 -1.24219,0.5039063 v 0.1523437 h 0.17578 c 0.35157,0 0.39844,0.1171875 0.39844,0.5859375 z m 7.46191,-5.0507813 -1.27734,0.082031 v 0.1640625 c 0.25781,0 0.57422,0.035156 0.57422,0.421875 v 2.25 c -0.0937,0.1875 -0.43359,0.5039062 -0.85547,0.5039062 -0.46875,0 -0.69141,-0.3164062 -0.69141,-0.75 V -8.07623 l -1.28906,0.082031 v 0.1640625 c 0.26953,0 0.58594,0.035156 0.58594,0.421875 v 2.2617187 c 0,0.6679688 0.44531,0.9960938 1.08984,0.9960938 0.51563,0 0.84375,-0.3164063 1.1836,-0.65625 v 0.65625 h 0.0351 c 0.38672,-0.140625 0.8086,-0.2460938 1.21875,-0.3515625 V -4.666074 c -0.29297,-0.011719 -0.57422,-0.046875 -0.57422,-0.375 z m 1.50586,0.3164063 v 2.5078125 c 0,0.5625 0.082,1.1015625 0.76172,1.1015625 0.45703,0 0.73828,-0.2929688 1.00782,-0.6445313 l -0.14063,-0.082031 c -0.11719,0.1289062 -0.31641,0.28125 -0.50391,0.28125 -0.1875,0 -0.42187,-0.082031 -0.42187,-0.6679688 v -2.4960937 h 0.89062 v -0.234375 h -0.89062 V -9.130917 h -0.16406 c -0.22266,0.5390625 -0.63282,0.9960938 -1.11328,1.265625 v 0.1054688 z m 4.40918,-0.3164063 h -0.14062 c -0.0117,0.09375 -0.0703,0.1289063 -0.15234,0.1289063 -0.11719,0 -0.2461,-0.035156 -0.36329,-0.058594 -0.1289,-0.035156 -0.25781,-0.070312 -0.39843,-0.070312 -0.59766,0 -1.1836,0.3398438 -1.1836,0.9960938 0,1.2304687 1.99219,1.21875 1.99219,2.1328125 0,0.375 -0.35156,0.5507812 -0.69141,0.5507812 -0.58593,0 -1.05468,-0.5273437 -1.0664,-1.0898437 h -0.1875 l 0.0469,1.2539062 h 0.16407 c 0.0117,-0.058594 0,-0.1171875 0.11718,-0.1171875 0.12891,0 0.57422,0.1992188 1.00782,0.1992188 0.59765,0 1.16015,-0.3984375 1.16015,-1.1601563 0,-1.1601562 -1.98047,-1.2070312 -1.98047,-2.0390625 0,-0.3164062 0.29297,-0.4804687 0.60938,-0.4804687 0.57422,0 0.79687,0.3984375 0.94922,0.890625 h 0.15234 z m 0,0"
             style="fill:#231f20;fill-opacity:1;fill-rule:nonzero;stroke:none" />
        </g>
      </g>
    </g>
  </g>
</svg>
