<?xml version="1.0" encoding="UTF-8" standalone="no"?>
<!-- Created with Inkscape (http://www.inkscape.org/) -->

<svg
   version="1.1"
   id="svg1"
   viewBox="0 0 535.43341 64.160675"
   sodipodi:docname="Analog and Digital Signal Processing (1E).pdf"
   inkscape:export-filename="../../../common-signal-pulses.svg"
   inkscape:export-xdpi="96"
   inkscape:export-ydpi="96"
   xmlns:inkscape="http://www.inkscape.org/namespaces/inkscape"
   xmlns:sodipodi="http://sodipodi.sourceforge.net/DTD/sodipodi-0.dtd"
   xmlns="http://www.w3.org/2000/svg"
   xmlns:svg="http://www.w3.org/2000/svg">
  <defs
     id="defs1">
    <clipPath
       clipPathUnits="userSpaceOnUse"
       id="clipPath300">
      <path
         d="M 0,0 H 612 V 792 H 0 Z"
         transform="matrix(1,0,0,-1,-156.64701,339.33601)"
         id="path300" />
    </clipPath>
    <clipPath
       clipPathUnits="userSpaceOnUse"
       id="clipPath302">
      <path
         d="M 0,0 H 612 V 792 H 0 Z"
         transform="matrix(1,0,0,-1,-167.44701,331.23601)"
         id="path302" />
    </clipPath>
    <clipPath
       clipPathUnits="userSpaceOnUse"
       id="clipPath304">
      <path
         d="M 0,0 H 612 V 792 H 0 Z"
         transform="matrix(1,0,0,-1,-315.94701,339.33601)"
         id="path304" />
    </clipPath>
    <clipPath
       clipPathUnits="userSpaceOnUse"
       id="clipPath306">
      <path
         d="M 0,0 H 612 V 792 H 0 Z"
         transform="matrix(1,0,0,-1,-318.64701,331.23601)"
         id="path306" />
    </clipPath>
    <clipPath
       clipPathUnits="userSpaceOnUse"
       id="clipPath308">
      <path
         d="M 0,0 H 612 V 792 H 0 Z"
         transform="matrix(1,0,0,-1,-461.74701,339.33601)"
         id="path308" />
    </clipPath>
    <clipPath
       clipPathUnits="userSpaceOnUse"
       id="clipPath310">
      <path
         d="M 0,0 H 612 V 792 H 0 Z"
         transform="matrix(1,0,0,-1,-469.84701,331.23601)"
         id="path310" />
    </clipPath>
    <clipPath
       clipPathUnits="userSpaceOnUse"
       id="clipPath312">
      <path
         d="M 0,0 H 612 V 792 H 0 Z"
         id="path312" />
    </clipPath>
    <clipPath
       clipPathUnits="userSpaceOnUse"
       id="clipPath314">
      <path
         d="M 0,0 H 612 V 792 H 0 Z"
         id="path314" />
    </clipPath>
    <clipPath
       clipPathUnits="userSpaceOnUse"
       id="clipPath316">
      <path
         d="M 0,0 H 612 V 792 H 0 Z"
         id="path316" />
    </clipPath>
    <clipPath
       clipPathUnits="userSpaceOnUse"
       id="clipPath318">
      <path
         d="M 0,0 H 612 V 792 H 0 Z"
         id="path318" />
    </clipPath>
    <clipPath
       clipPathUnits="userSpaceOnUse"
       id="clipPath320">
      <path
         d="M 0,0 H 612 V 792 H 0 Z"
         id="path320" />
    </clipPath>
    <clipPath
       clipPathUnits="userSpaceOnUse"
       id="clipPath322">
      <path
         d="M 0,0 H 612 V 792 H 0 Z"
         id="path322" />
    </clipPath>
    <clipPath
       clipPathUnits="userSpaceOnUse"
       id="clipPath324">
      <path
         d="M 0,0 H 612 V 792 H 0 Z"
         id="path324" />
    </clipPath>
    <clipPath
       clipPathUnits="userSpaceOnUse"
       id="clipPath326">
      <path
         d="M 0,0 H 612 V 792 H 0 Z"
         id="path326" />
    </clipPath>
    <clipPath
       clipPathUnits="userSpaceOnUse"
       id="clipPath328">
      <path
         d="M 0,0 H 612 V 792 H 0 Z"
         id="path328" />
    </clipPath>
    <clipPath
       clipPathUnits="userSpaceOnUse"
       id="clipPath330">
      <path
         d="M 0,0 H 612 V 792 H 0 Z"
         id="path330" />
    </clipPath>
    <clipPath
       clipPathUnits="userSpaceOnUse"
       id="clipPath332">
      <path
         d="M 0,0 H 612 V 792 H 0 Z"
         id="path332" />
    </clipPath>
    <clipPath
       clipPathUnits="userSpaceOnUse"
       id="clipPath334">
      <path
         d="M 0,0 H 612 V 792 H 0 Z"
         id="path334" />
    </clipPath>
    <clipPath
       clipPathUnits="userSpaceOnUse"
       id="clipPath336">
      <path
         d="M 0,0 H 612 V 792 H 0 Z"
         id="path336" />
    </clipPath>
    <clipPath
       clipPathUnits="userSpaceOnUse"
       id="clipPath338">
      <path
         d="M 0,0 H 612 V 792 H 0 Z"
         id="path338" />
    </clipPath>
    <clipPath
       clipPathUnits="userSpaceOnUse"
       id="clipPath340">
      <path
         d="M 0,0 H 612 V 792 H 0 Z"
         id="path340" />
    </clipPath>
    <clipPath
       clipPathUnits="userSpaceOnUse"
       id="clipPath342">
      <path
         d="M 0,0 H 612 V 792 H 0 Z"
         id="path342" />
    </clipPath>
    <clipPath
       clipPathUnits="userSpaceOnUse"
       id="clipPath344">
      <path
         d="M 0,0 H 612 V 792 H 0 Z"
         id="path344" />
    </clipPath>
    <clipPath
       clipPathUnits="userSpaceOnUse"
       id="clipPath346">
      <path
         d="M 0,0 H 612 V 792 H 0 Z"
         id="path346" />
    </clipPath>
    <clipPath
       clipPathUnits="userSpaceOnUse"
       id="clipPath348">
      <path
         d="M 0,0 H 612 V 792 H 0 Z"
         transform="matrix(1,0,0,-1,-132.34701,309.63601)"
         id="path348" />
    </clipPath>
    <clipPath
       clipPathUnits="userSpaceOnUse"
       id="clipPath350">
      <path
         d="M 0,0 H 612 V 792 H 0 Z"
         transform="matrix(1,0,0,-1,-413.14701,331.23601)"
         id="path350" />
    </clipPath>
    <clipPath
       clipPathUnits="userSpaceOnUse"
       id="clipPath352">
      <path
         d="M 0,0 H 612 V 792 H 0 Z"
         transform="matrix(1,0,0,-1,-267.34701,331.23601)"
         id="path352" />
    </clipPath>
    <clipPath
       clipPathUnits="userSpaceOnUse"
       id="clipPath354">
      <path
         d="M 0,0 H 612 V 792 H 0 Z"
         transform="matrix(1,0,0,-1,-110.74701,331.23601)"
         id="path354" />
    </clipPath>
  </defs>
  <sodipodi:namedview
     id="namedview1"
     pagecolor="#ffffff"
     bordercolor="#000000"
     borderopacity="0.25"
     inkscape:showpageshadow="2"
     inkscape:pageopacity="0.0"
     inkscape:pagecheckerboard="0"
     inkscape:deskcolor="#d1d1d1" />
  <g
     id="g1"
     inkscape:groupmode="layer"
     inkscape:label="23"
     transform="translate(-137.5847,-582.25696)">
    <g
       id="g570">
      <rect
         style="fill:#ffffff;stroke-width:0.964992"
         id="rect570"
         width="535.43341"
         height="64.160675"
         x="137.5847"
         y="582.25696" />
      <path
         id="path299"
         d="m 1.7113984,-2.9540391 c 0.6240235,-0.023437 1.069336,-0.087891 1.3359375,-0.1992187 0.459961,-0.1875 0.6914063,-0.5419922 0.6914063,-1.0664063 0,-0.4980468 -0.2080078,-0.8378906 -0.6210938,-1.0195312 -0.2197265,-0.099609 -0.5097656,-0.1523438 -0.8671875,-0.1523438 -0.2519531,0 -0.4042968,0.020508 -0.4570312,0.058594 -0.055664,0.032227 -0.082031,0.1142578 -0.082031,0.2460937 z m -1.61718746,2.80078129 c 0.33398437,-0.0292969 0.54199219,-0.09375 0.62109375,-0.1875 0.0849609,-0.0996094 0.12890625,-0.33398438 0.12890625,-0.70312499 v -3.7382813 c 0,-0.3046875 -0.046875,-0.5039062 -0.140625,-0.5976562 -0.09375,-0.09375 -0.29882813,-0.1523438 -0.609375,-0.1757813 V -5.7196641 H 2.4848359 c 0.4980469,0 0.9140625,0.067383 1.2421875,0.1992188 0.6328125,0.234375 0.9492188,0.6738281 0.9492188,1.3125 0,0.430664 -0.140625,0.7617187 -0.421875,0.9960937 -0.28125,0.2285157 -0.6621094,0.3808594 -1.1367188,0.4570313 l 1.78125,2.17968749 c 0.1083985,0.140625 0.2167969,0.24316406 0.328125,0.3046875 0.1083985,0.0644531 0.2490235,0.10253906 0.421875,0.1171875 V -9.140625e-4 H 4.2543672 l -2.0625,-2.6601562375 -0.4804688,0.023437 v 1.69921874 c 0,0.32226562 0.046875,0.52441406 0.140625,0.609375 0.099609,0.0878906 0.3164063,0.14648437 0.6445313,0.17578125 V -9.140625e-4 H 0.09421094 Z M 7.743625,-3.9618516 c 0.3984375,0 0.7441406,0.140625 1.0429688,0.421875 0.2958984,0.2753907 0.4453125,0.6621094 0.4453125,1.1601563 H 6.5483125 c 0.029297,0.65625 0.1787109,1.133789 0.4453125,1.42968749 0.2636719,0.29882812 0.5800781,0.4453125 0.9492188,0.4453125 0.2958984,0 0.5449218,-0.0761719 0.75,-0.234375 0.2021484,-0.15527344 0.3896484,-0.37499999 0.5625,-0.65624999 l 0.140625,0.046875 c -0.1171875,0.36035155 -0.3369141,0.69140624 -0.65625,0.99609374 -0.3134766,0.3046875 -0.6972657,0.45703125 -1.1484375,0.45703125 -0.5332032,0 -0.9433594,-0.19921875 -1.2304688,-0.59765625 C 6.0707734,-0.89739844 5.9272188,-1.3602891 5.9272188,-1.8759141 c 0,-0.5625 0.1669921,-1.0488281 0.5039062,-1.4648437 0.3339844,-0.413086 0.7734375,-0.6210938 1.3125,-0.6210938 z m -0.2460937,0.3164063 c -0.3222657,0 -0.5683594,0.140625 -0.7382813,0.421875 -0.087891,0.149414 -0.1494141,0.3398437 -0.1875,0.5742187 H 8.353 C 8.3207734,-2.9306016 8.2651094,-3.1415391 8.1889375,-3.2821641 8.0483125,-3.5223984 7.8168672,-3.6454453 7.4975313,-3.6454453 Z m 0.1875,-0.3164063 z m 4.0576167,-0.011719 c 0.351563,0 0.650391,0.09082 0.902344,0.2695312 0.257813,0.1816407 0.386719,0.3808594 0.386719,0.5976563 0,0.09375 -0.03223,0.1816406 -0.09375,0.2578125 -0.06445,0.079102 -0.164063,0.1171875 -0.304688,0.1171875 -0.09375,0 -0.18164,-0.029297 -0.257812,-0.09375 -0.07031,-0.070312 -0.125977,-0.1699219 -0.164063,-0.3046875 l -0.04687,-0.1992188 c -0.04102,-0.1464843 -0.102539,-0.2519531 -0.1875,-0.3164062 -0.09375,-0.052734 -0.216796,-0.082031 -0.363281,-0.082031 -0.322265,0 -0.594726,0.140625 -0.820312,0.421875 -0.219727,0.2753907 -0.328125,0.6445313 -0.328125,1.1132813 0,0.421875 0.120117,0.8027344 0.363281,1.1367187 0.240234,0.3369141 0.568359,0.50390629 0.984375,0.50390629 0.295898,0 0.556641,-0.09375 0.785156,-0.28125 0.123047,-0.10839844 0.269531,-0.28417969 0.433594,-0.52734379 l 0.117187,0.070312 c -0.158203,0.3369141 -0.325195,0.60644535 -0.503906,0.80859379 -0.336914,0.375 -0.732422,0.5625 -1.183594,0.5625 -0.439453,0 -0.826171,-0.16992188 -1.160156,-0.515625 C 9.9643281,-0.78607031 9.7973359,-1.25775 9.7973359,-1.8524766 c 0,-0.5771484 0.1816407,-1.0722656 0.5507811,-1.4882812 0.366211,-0.421875 0.832031,-0.6328125 1.394531,-0.6328128 z m -0.1875,0 z m 4.072266,0.082031 v 0.3046875 h -0.855469 l -0.01172,2.4257813 c 0,0.21972655 0.01758,0.38378905 0.05859,0.49218749 0.07031,0.19628906 0.202149,0.29296875 0.398438,0.29296875 0.09961,0 0.1875,-0.0234375 0.257812,-0.0703125 0.07617,-0.0527344 0.164063,-0.13183594 0.257813,-0.234375 l 0.105469,0.09375 -0.08203,0.12890625 c -0.149414,0.19628906 -0.304687,0.33691406 -0.46875,0.421875 -0.164062,0.07617187 -0.322265,0.1171875 -0.46875,0.1171875 -0.336914,0 -0.5625,-0.14648438 -0.679687,-0.4453125 -0.06445,-0.15527344 -0.09375,-0.37792969 -0.09375,-0.66796879 v -2.5546875 h -0.457031 c -0.01758,-0.00586 -0.0293,-0.014648 -0.03516,-0.023437 -0.0088,-0.00586 -0.01172,-0.017578 -0.01172,-0.035156 0,-0.029297 0.0029,-0.049805 0.01172,-0.058594 0.01465,-0.014648 0.05859,-0.052734 0.128907,-0.1171875 0.193359,-0.1552734 0.333984,-0.2841797 0.421875,-0.3867187 0.08496,-0.099609 0.284179,-0.3632813 0.597656,-0.7851563 0.03809,0 0.06152,0.00586 0.07031,0.011719 0.0059,0 0.01172,0.020508 0.01172,0.058594 v 1.03125 z m 2.683594,1.5585938 c -0.322266,0.102539 -0.585938,0.2197265 -0.796875,0.3515625 -0.407227,0.2519531 -0.609375,0.5361328 -0.609375,0.8554687 0,0.25195316 0.08496,0.43945316 0.257812,0.56250004 0.108399,0.0791016 0.228516,0.1171875 0.363282,0.1171875 0.1875,0 0.363281,-0.0498047 0.527343,-0.15234375 0.169922,-0.10839844 0.257813,-0.24023438 0.257813,-0.3984375 z m -2.15625,1.48828124 c 0,-0.40429684 0.202148,-0.74414064 0.609375,-1.01953124 0.257812,-0.1640625 0.773437,-0.3896485 1.546875,-0.6796875 v -0.3632813 c 0,-0.2871093 -0.0293,-0.4863281 -0.08203,-0.5976562 -0.09375,-0.1875 -0.292969,-0.28125 -0.597657,-0.28125 -0.140625,0 -0.27832,0.035156 -0.410156,0.1054687 -0.125976,0.079102 -0.1875,0.1845703 -0.1875,0.3164063 0,0.032227 0.0029,0.09082 0.01172,0.1757812 0.01465,0.079102 0.02344,0.1289063 0.02344,0.1523438 0,0.1582031 -0.05273,0.2666015 -0.152343,0.328125 -0.05566,0.032227 -0.125977,0.046875 -0.210938,0.046875 -0.125976,0 -0.222656,-0.038086 -0.292969,-0.1171875 -0.06445,-0.084961 -0.09375,-0.178711 -0.09375,-0.28125 0,-0.1933594 0.120118,-0.3984375 0.363282,-0.609375 0.240234,-0.2167969 0.597656,-0.328125 1.066406,-0.328125 0.544922,0 0.916992,0.1757812 1.113281,0.5273437 0.09961,0.1962891 0.152344,0.4804688 0.152344,0.8554688 v 1.68749999 c 0,0.1640625 0.01172,0.27832031 0.03516,0.33984375 0.03809,0.11132812 0.111328,0.1640625 0.222656,0.1640625 0.07031,0 0.123047,-0.005859 0.164063,-0.0234375 0.03809,-0.0234375 0.111328,-0.0732422 0.222656,-0.15234375 v 0.22265625 c -0.09375,0.11132812 -0.193359,0.19921875 -0.292969,0.26953125 -0.158203,0.10253906 -0.316406,0.15234375 -0.480468,0.15234375 -0.196289,0 -0.336914,-0.05859375 -0.421875,-0.17578125 -0.08789,-0.12304688 -0.134766,-0.27246094 -0.140625,-0.4453125 -0.210938,0.18164062 -0.392579,0.31640625 -0.539063,0.41015625 -0.257812,0.14941406 -0.503906,0.22265625 -0.738281,0.22265625 -0.243164,0 -0.454102,-0.08203125 -0.632813,-0.24609375 -0.172851,-0.16992188 -0.257812,-0.38964844 -0.257812,-0.65625 z m 1.605469,-3.15234374 z m 2.065429,3.87890624 c 0.202149,-0.0234375 0.342774,-0.0703125 0.421875,-0.140625 0.07617,-0.0761719 0.117188,-0.24609375 0.117188,-0.50390625 V -2.9071641 c 0,-0.1787109 -0.01758,-0.3046875 -0.04687,-0.375 -0.05566,-0.1083984 -0.164063,-0.1640625 -0.328125,-0.1640625 -0.02344,0 -0.05274,0.00586 -0.08203,0.011719 -0.02344,0 -0.05567,0 -0.09375,0 v -0.140625 c 0.117187,-0.029297 0.389648,-0.1171875 0.820312,-0.2578125 l 0.398438,-0.140625 c 0.01465,0 0.02344,0.00879 0.02344,0.023437 0.0059,0.017578 0.01172,0.035156 0.01172,0.058594 v 0.6210938 c 0.257812,-0.2402344 0.459961,-0.4042969 0.609375,-0.4921875 0.216797,-0.140625 0.445312,-0.2109375 0.679687,-0.2109375 0.19336,0 0.369141,0.055664 0.527344,0.1640625 0.304688,0.2109375 0.457031,0.5947265 0.457031,1.1484375 v 1.96874999 c 0,0.20507812 0.03809,0.3515625 0.117188,0.4453125 0.08496,0.0878906 0.222656,0.12890625 0.410156,0.12890625 V -9.140625e-4 H 22.063938 V -0.11810156 c 0.210937,-0.0292969 0.354492,-0.0878906 0.433593,-0.17578125 0.08496,-0.0849609 0.128907,-0.26953125 0.128907,-0.55078125 V -2.6493516 c 0,-0.2402343 -0.04687,-0.4394531 -0.140625,-0.5976562 -0.08789,-0.1640625 -0.251954,-0.2460938 -0.492188,-0.2460938 -0.172852,0 -0.345703,0.058594 -0.515625,0.1757813 -0.09375,0.064453 -0.216797,0.1699219 -0.363281,0.3164062 v 2.36718754 c 0,0.20507812 0.04101,0.33984375 0.128906,0.41015625 0.09375,0.0644531 0.237305,0.0996094 0.433594,0.10546875 v 0.1171874975 h -1.851563 z m 2.015625,-3.85546874 z m 2.997071,4.75781249 c 0,0.23437501 0.131836,0.39257811 0.398437,0.48046871 0.263672,0.09375 0.568359,0.140625 0.914063,0.140625 0.46875,0 0.846679,-0.082031 1.136718,-0.2460937 0.295899,-0.16406251 0.445313,-0.36328126 0.445313,-0.59765626 0,-0.1875 -0.117188,-0.31347657 -0.351563,-0.375 -0.149414,-0.0322266 -0.427734,-0.0527344 -0.832031,-0.0585938 -0.111328,-0.008789 -0.222656,-0.0175781 -0.339844,-0.0234375 -0.111328,0 -0.210937,0 -0.304687,0 -0.06445,-0.0087891 -0.164063,-0.0234375 -0.304688,-0.046875 -0.140625,-0.01757813 -0.243164,-0.03222657 -0.304687,-0.046875 -0.03223,0 -0.114258,0.08789062 -0.246094,0.26953125 -0.140625,0.17871093 -0.210937,0.34570312 -0.210937,0.5039063 z m 0.550781,-2.20312499 c -0.257813,-0.084961 -0.457031,-0.234375 -0.597656,-0.4453125 -0.140625,-0.2167969 -0.210938,-0.4628906 -0.210938,-0.7382813 0,-0.328125 0.128906,-0.6357422 0.386719,-0.9257812 0.263672,-0.2958985 0.635742,-0.4453125 1.113281,-0.4453125 0.202149,0 0.427734,0.046875 0.679688,0.140625 0.249023,0.09375 0.486328,0.140625 0.714843,0.140625 0.05274,0 0.140625,0 0.257813,0 0.123047,-0.00586 0.213867,-0.011719 0.269531,-0.011719 h 0.04687 v 0.3515625 h -0.726562 c 0.04687,0.1171875 0.08496,0.2197266 0.117187,0.3046875 0.04687,0.1640625 0.07031,0.3164063 0.07031,0.4570313 0,0.3222656 -0.134766,0.618164 -0.398438,0.890625 -0.266601,0.2666015 -0.621094,0.3984375 -1.066406,0.3984375 -0.07031,0 -0.199219,-0.011719 -0.386719,-0.035156 -0.0791,0 -0.18457,0.070312 -0.316406,0.2109375 -0.134766,0.13476566 -0.199219,0.2431641 -0.199219,0.32812504 0,0.09375 0.09668,0.16113281 0.292969,0.19921875 0.123047,0.0322266 0.263672,0.046875 0.421875,0.046875 0.726562,0 1.21875,0.0410156 1.476562,0.1171875 0.421875,0.13476562 0.632813,0.41894531 0.632813,0.85546875 0,0.4453125 -0.251953,0.79687496 -0.75,1.05468746 -0.492188,0.2636719 -0.990235,0.3984375 -1.488281,0.3984375 -0.462891,0 -0.829102,-0.09375 -1.101563,-0.28125 -0.275391,-0.1816406 -0.410156,-0.375 -0.410156,-0.5859375 0,-0.10253903 0.03516,-0.19921871 0.105469,-0.29296871 0.07617,-0.09375 0.222656,-0.24023438 0.433593,-0.43359375 l 0.28125,-0.24609375 0.04687,-0.046875 C 24.94968,-0.06536719 24.853,-0.11810156 24.791477,-0.16497656 c -0.111329,-0.0849609 -0.164063,-0.1875 -0.164063,-0.3046875 0,-0.0996094 0.04687,-0.21386719 0.140625,-0.33984375 0.09375,-0.12304688 0.298828,-0.32812499 0.621094,-0.60937549 z m 0.796875,-0.082031 c 0.155273,0 0.287109,-0.041016 0.398437,-0.1289062 0.164063,-0.131836 0.246094,-0.366211 0.246094,-0.703125 0,-0.2636719 -0.07031,-0.5654297 -0.210937,-0.9023438 -0.134766,-0.3339843 -0.357422,-0.5039062 -0.667969,-0.5039062 -0.28125,0 -0.47461,0.1347656 -0.574219,0.3984375 -0.05566,0.1347656 -0.08203,0.3017578 -0.08203,0.5039062 0,0.3457032 0.08203,0.6533203 0.246094,0.9257813 0.169921,0.2753906 0.386718,0.4101562 0.644531,0.4101562 z m -0.02344,-2.4726562 z m 3.486328,0.070312 v 2.6953125 c 0,0.196289 0.02637,0.3486328 0.08203,0.45703124 0.09961,0.21972656 0.292968,0.328125 0.574218,0.328125 0.1875,0 0.375,-0.0644531 0.5625,-0.19921875 0.09961,-0.0703125 0.205079,-0.1640625 0.316407,-0.28125 V -3.2235703 c 0,-0.2109375 -0.04395,-0.3515625 -0.128907,-0.421875 -0.08789,-0.070312 -0.254882,-0.1083985 -0.503906,-0.1171875 v -0.140625 h 1.359375 v 2.96484374 c 0,0.19628906 0.03516,0.328125 0.105469,0.3984375 0.07031,0.0703125 0.213867,0.10253906 0.433594,0.09375 v 0.1171875 c -0.158203,0.0410156 -0.269532,0.0703125 -0.339844,0.09375 -0.07031,0.0234375 -0.193359,0.0644531 -0.363281,0.1171875 -0.0791,0.0234375 -0.240235,0.08203125 -0.480469,0.17578125 -0.01758,0 -0.0293,-0.0087891 -0.03516,-0.0234375 0,-0.0087891 0,-0.02050782 0,-0.0351562525 V -0.68060156 c -0.1875,0.22851562 -0.363282,0.39550781 -0.527344,0.50390625 -0.234375,0.17285156 -0.486328,0.2578125 -0.75,0.2578125 -0.251953,0 -0.480469,-0.08496094 -0.691406,-0.2578125 -0.219727,-0.16992188 -0.328125,-0.45996094 -0.328125,-0.86718749 v -2.1914063 c 0,-0.2255859 -0.05274,-0.3779297 -0.152344,-0.4570312 -0.06445,-0.046875 -0.196289,-0.076172 -0.398438,-0.09375 v -0.1171875 z m 0.832032,-0.058594 z m 2.329101,3.84375004 c 0.263672,-0.0234375 0.439453,-0.0732422 0.527344,-0.15234375 0.09375,-0.0849609 0.140625,-0.24609375 0.140625,-0.48046875 V -4.8641953 c 0,-0.1875 -0.01758,-0.3164063 -0.04687,-0.3867188 -0.05566,-0.1171875 -0.169922,-0.1757812 -0.339844,-0.1757812 -0.04102,0 -0.08203,0.00586 -0.128906,0.011719 -0.04687,0.00879 -0.105469,0.020508 -0.175781,0.035156 v -0.140625 c 0.380859,-0.099609 0.83789,-0.234375 1.371094,-0.3984375 0.02344,0 0.03516,0.00879 0.03516,0.023437 0.0059,0.017578 0.01172,0.052734 0.01172,0.1054687 v 5.06250004 c 0,0.24316406 0.03809,0.3984375 0.117187,0.46875 0.08496,0.0703125 0.260742,0.1171875 0.527344,0.140625 V -9.140625e-4 H 32.810031 Z M 37.50925,-2.3329453 c -0.322266,0.102539 -0.585937,0.2197265 -0.796875,0.3515625 C 36.305148,-1.7294297 36.103,-1.44525 36.103,-1.1259141 c 0,0.25195316 0.08496,0.43945316 0.257813,0.56250004 0.108398,0.0791016 0.228515,0.1171875 0.363281,0.1171875 0.1875,0 0.363281,-0.0498047 0.527344,-0.15234375 0.169921,-0.10839844 0.257812,-0.24023438 0.257812,-0.3984375 z M 35.353,-0.84466406 c 0,-0.40429684 0.202148,-0.74414064 0.609375,-1.01953124 0.257813,-0.1640625 0.773438,-0.3896485 1.546875,-0.6796875 v -0.3632813 c 0,-0.2871093 -0.0293,-0.4863281 -0.08203,-0.5976562 -0.09375,-0.1875 -0.292969,-0.28125 -0.597656,-0.28125 -0.140625,0 -0.278321,0.035156 -0.410157,0.1054687 -0.125976,0.079102 -0.1875,0.1845703 -0.1875,0.3164063 0,0.032227 0.0029,0.09082 0.01172,0.1757812 0.01465,0.079102 0.02344,0.1289063 0.02344,0.1523438 0,0.1582031 -0.05273,0.2666015 -0.152344,0.328125 -0.05566,0.032227 -0.125977,0.046875 -0.210938,0.046875 -0.125976,0 -0.222656,-0.038086 -0.292968,-0.1171875 -0.06445,-0.084961 -0.09375,-0.178711 -0.09375,-0.28125 0,-0.1933594 0.120117,-0.3984375 0.363281,-0.609375 0.240234,-0.2167969 0.597656,-0.328125 1.066406,-0.328125 0.544922,0 0.916992,0.1757812 1.113281,0.5273437 0.09961,0.1962891 0.152344,0.4804688 0.152344,0.8554688 v 1.68749999 c 0,0.1640625 0.01172,0.27832031 0.03516,0.33984375 0.03809,0.11132812 0.111328,0.1640625 0.222657,0.1640625 0.07031,0 0.123046,-0.005859 0.164062,-0.0234375 0.03809,-0.0234375 0.111328,-0.0732422 0.222656,-0.15234375 v 0.22265625 c -0.09375,0.11132812 -0.193359,0.19921875 -0.292968,0.26953125 -0.158204,0.10253906 -0.316407,0.15234375 -0.480469,0.15234375 -0.196289,0 -0.336914,-0.05859375 -0.421875,-0.17578125 -0.08789,-0.12304688 -0.134766,-0.27246094 -0.140625,-0.4453125 -0.210938,0.18164062 -0.392578,0.31640625 -0.539063,0.41015625 -0.257812,0.14941406 -0.503906,0.22265625 -0.738281,0.22265625 -0.243164,0 -0.454102,-0.08203125 -0.632812,-0.24609375 C 35.437961,-0.35833594 35.353,-0.5780625 35.353,-0.84466406 Z m 1.605469,-3.15234374 z m 1.948242,3.85546874 c 0.257812,-0.0234375 0.427734,-0.0644531 0.515625,-0.12890625 0.08496,-0.0703125 0.128906,-0.21679688 0.128906,-0.4453125 V -2.6141953 c 0,-0.28125 -0.0293,-0.4804688 -0.08203,-0.5976563 -0.04687,-0.1230468 -0.140625,-0.1875 -0.28125,-0.1875 -0.03223,0 -0.07031,0.00586 -0.117188,0.011719 -0.04102,0.00879 -0.08789,0.020508 -0.140625,0.035156 v -0.140625 c 0.164063,-0.061523 0.328125,-0.1201172 0.492188,-0.1757812 0.169922,-0.061523 0.287109,-0.1054688 0.351562,-0.1289063 0.140625,-0.052734 0.28418,-0.1113281 0.433594,-0.1757812 0.02344,0 0.03516,0.00879 0.03516,0.023437 0.0059,0.00879 0.01172,0.035156 0.01172,0.082031 v 0.6914063 c 0.178711,-0.2490235 0.351563,-0.4453125 0.515625,-0.5859375 0.169922,-0.140625 0.345703,-0.2109375 0.527344,-0.2109375 0.140625,0 0.251953,0.043945 0.339844,0.1289062 0.09375,0.087891 0.140625,0.1962891 0.140625,0.328125 0,0.1113282 -0.03516,0.2050782 -0.105469,0.28125 -0.07031,0.079102 -0.158203,0.1171875 -0.257813,0.1171875 -0.111328,0 -0.219726,-0.046875 -0.328125,-0.140625 -0.102539,-0.099609 -0.18457,-0.1523437 -0.246093,-0.1523437 -0.102539,0 -0.228516,0.082031 -0.375,0.2460937 -0.140625,0.1582032 -0.210938,0.3164063 -0.210938,0.4804688 v 1.91015624 c 0,0.24316406 0.05273,0.41015625 0.164063,0.50390625 0.117187,0.09375 0.307617,0.13769531 0.574218,0.12890625 v 0.1406249975 h -2.085937 z m 0,0"
         style="fill:#000000;fill-opacity:1;fill-rule:nonzero;stroke:none"
         aria-label="Rectangular"
         transform="matrix(1.3333333,0,0,1.3333333,208.86267,603.552)"
         clip-path="url(#clipPath300)" />
      <path
         id="path301"
         d="m 1.3821016,-0.77376563 c 0.070312,0.1875 0.1757812,0.328125 0.3164062,0.421875 0.1464844,0.09375 0.3193359,0.140625 0.515625,0.140625 0.3046875,0 0.5625,-0.14648437 0.7734375,-0.4453125 0.2167969,-0.3046875 0.328125,-0.72656247 0.328125,-1.26562497 0,-0.515625 -0.1142578,-0.9023438 -0.3398437,-1.1601563 -0.2197266,-0.2578125 -0.4775391,-0.3867187 -0.7734375,-0.3867187 -0.2050782,0 -0.3925782,0.067383 -0.5625,0.1992187 -0.1728516,0.1259766 -0.2578125,0.2519531 -0.2578125,0.375 z M 0.03444531,1.7457656 C 0.29811719,1.7223281 0.46803906,1.6637344 0.53835156,1.5699844 0.60866406,1.4762344 0.64382031,1.3268203 0.64382031,1.1246719 v -4.0546875 c 0,-0.2109375 -0.0292969,-0.3457032 -0.0820313,-0.4101563 -0.046875,-0.061523 -0.140625,-0.09375 -0.28125,-0.09375 -0.0322266,0 -0.0644531,0.00586 -0.09375,0.011719 -0.0234375,0 -0.0644531,0.00586 -0.1171875,0.011719 v -0.140625 l 0.41015625,-0.1289062 c 0.005859,0 0.28710938,-0.09668 0.84374994,-0.2929688 0.014648,0 0.026367,0.00879 0.035156,0.023437 0.00586,0.017578 0.011719,0.032227 0.011719,0.046875 v 0.5625 c 0.1787109,-0.1787109 0.3398438,-0.3164062 0.4804688,-0.4101562 0.2578125,-0.1552735 0.5185546,-0.234375 0.7851562,-0.234375 0.3896484,0 0.7207031,0.1640625 0.9960938,0.4921875 0.2812501,0.328125 0.421875,0.7822265 0.421875,1.359375 0,0.5625 -0.1699218,1.0751953 -0.5039063,1.53515622 -0.3369141,0.45410157 -0.7587891,0.6796875 -1.265625,0.6796875 -0.1582031,0 -0.2929687,-0.02050781 -0.4101562,-0.05859375 C 1.6926484,-0.029625 1.5285859,-0.14095313 1.3821016,-0.30501563 V 1.0777969 c 0,0.28125 0.041016,0.4511718 0.1289062,0.515625 0.09375,0.070312 0.2958984,0.1171875 0.609375,0.140625 v 0.140625 H 0.03444531 Z M 5.6565156,-3.9026719 v 2.6953125 c 0,0.1962891 0.026367,0.34863284 0.082031,0.45703127 0.099609,0.21972657 0.2929687,0.328125 0.5742187,0.328125 0.1875,0 0.375,-0.0644531 0.5625,-0.19921875 0.099609,-0.0703125 0.2050781,-0.1640625 0.3164063,-0.28125 V -3.2229844 c 0,-0.2109375 -0.043945,-0.3515625 -0.1289063,-0.421875 -0.087891,-0.070312 -0.2548828,-0.1083984 -0.5039062,-0.1171875 v -0.140625 h 1.359375 v 2.96484377 c 0,0.19628907 0.035156,0.328125 0.1054687,0.3984375 0.070312,0.0703125 0.2138672,0.10253907 0.4335938,0.09375 v 0.1171875 c -0.1582032,0.0410156 -0.2695313,0.0703125 -0.3398438,0.09375 -0.070312,0.0234375 -0.1933594,0.0644531 -0.3632812,0.1171875 -0.079102,0.0234375 -0.2402344,0.08203125 -0.4804688,0.17578125 -0.017578,0 -0.029297,-0.0087891 -0.035156,-0.0234375 0,-0.0087891 0,-0.02050781 0,-0.035156245 V -0.68001563 c -0.1875,0.22851563 -0.3632813,0.39550782 -0.5273438,0.50390625 -0.234375,0.17285157 -0.4863281,0.2578125 -0.75,0.2578125 -0.2519531,0 -0.4804687,-0.08496093 -0.6914062,-0.2578125 -0.2197266,-0.16992187 -0.328125,-0.45996093 -0.328125,-0.86718752 v -2.1914062 c 0,-0.225586 -0.052734,-0.3779297 -0.1523438,-0.4570313 -0.064453,-0.046875 -0.196289,-0.076172 -0.3984375,-0.09375 v -0.1171875 z m 0.8320313,-0.058594 z m 2.3261718,3.84374997 c 0.2636719,-0.0234375 0.4394532,-0.0732422 0.5273438,-0.15234375 0.09375,-0.0849609 0.140625,-0.24609375 0.140625,-0.48046875 V -4.8636094 c 0,-0.1875 -0.017578,-0.3164062 -0.046875,-0.3867187 -0.055664,-0.1171875 -0.1699219,-0.1757813 -0.3398438,-0.1757813 -0.041016,0 -0.082031,0.00586 -0.1289062,0.011719 -0.046875,0.00879 -0.1054688,0.020508 -0.1757813,0.035156 v -0.140625 c 0.3808594,-0.099609 0.8378907,-0.234375 1.3710938,-0.3984375 0.02344,0 0.03516,0.00879 0.03516,0.023437 0.0059,0.017578 0.01172,0.052734 0.01172,0.1054688 v 5.06249997 c 0,0.24316407 0.03809,0.3984375 0.117187,0.46875 0.08496,0.0703125 0.260743,0.1171875 0.527344,0.140625 V -3.28125e-4 H 8.8147187 Z M 11.486594,-1.3245469 h 0.140625 c 0.06152,0.3222656 0.146484,0.5683594 0.257812,0.73828127 0.202149,0.31347657 0.492188,0.46875 0.867188,0.46875 0.210937,0 0.375,-0.0585938 0.492187,-0.17578125 0.123047,-0.1171875 0.1875,-0.26953125 0.1875,-0.45703125 0,-0.1171875 -0.03516,-0.22851562 -0.105469,-0.33984377 -0.07031,-0.1083984 -0.193359,-0.2138672 -0.363281,-0.3164062 l -0.480469,-0.2695313 c -0.345703,-0.1875 -0.597656,-0.375 -0.761718,-0.5625 -0.164063,-0.1875 -0.246094,-0.4101562 -0.246094,-0.6679687 0,-0.3105469 0.111328,-0.5683594 0.339844,-0.7734375 0.225586,-0.2021485 0.509765,-0.3046875 0.855468,-0.3046875 0.146485,0 0.307618,0.029297 0.480469,0.082031 0.178711,0.055664 0.28125,0.082031 0.304688,0.082031 0.05273,0 0.08789,-0.00293 0.105468,-0.011719 0.02344,-0.014648 0.04687,-0.038086 0.07031,-0.070312 h 0.09375 l 0.03516,1.171875 h -0.128906 c -0.06445,-0.2724609 -0.140625,-0.4833984 -0.234375,-0.6328125 -0.172852,-0.28125 -0.421875,-0.421875 -0.75,-0.421875 -0.196289,0 -0.351563,0.064453 -0.46875,0.1875 -0.111328,0.1171875 -0.164063,0.2578125 -0.164063,0.421875 0,0.2578125 0.19043,0.4892578 0.574219,0.6914063 l 0.5625,0.2929687 c 0.600586,0.328125 0.902344,0.7089844 0.902344,1.1367188 0,0.33691404 -0.125977,0.60937497 -0.375,0.82031247 -0.251953,0.2109375 -0.580078,0.31640625 -0.984375,0.31640625 -0.164063,0 -0.357422,-0.02929687 -0.574219,-0.082031245 -0.210937,-0.061523435 -0.336914,-0.093750005 -0.375,-0.093750005 -0.03223,0 -0.06445,0.01757813 -0.09375,0.046875 -0.02344,0.0234375 -0.04101,0.04980469 -0.04687,0.08203125 H 11.4866 Z m 1.242187,-2.6601562 z m 3.653321,0.023437 c 0.398437,0 0.74414,0.140625 1.042968,0.421875 0.295899,0.2753906 0.445313,0.6621093 0.445313,1.1601562 h -2.683594 c 0.0293,0.65625 0.178711,1.1337891 0.445313,1.42968752 0.263671,0.29882813 0.580078,0.4453125 0.949218,0.4453125 0.295899,0 0.544922,-0.0761719 0.75,-0.234375 0.202149,-0.15527343 0.389649,-0.37500002 0.5625,-0.65625002 l 0.140625,0.046875 c -0.117187,0.36035159 -0.336914,0.69140627 -0.65625,0.99609377 -0.313476,0.3046875 -0.697265,0.45703125 -1.148437,0.45703125 -0.533203,0 -0.94336,-0.19921875 -1.230469,-0.59765625 C 14.70925,-0.896813 14.565695,-1.3597036 14.565695,-1.8753286 c 0,-0.5625 0.166992,-1.0488282 0.503907,-1.4648438 0.333984,-0.4130859 0.773437,-0.6210937 1.3125,-0.6210937 z m -0.246094,0.3164062 c -0.322266,0 -0.56836,0.140625 -0.738281,0.421875 -0.08789,0.1494141 -0.149415,0.3398438 -0.1875,0.5742188 h 1.78125 c -0.03223,-0.28125 -0.08789,-0.4921875 -0.164063,-0.6328125 -0.140625,-0.2402344 -0.37207,-0.3632813 -0.691406,-0.3632813 z m 0.1875,-0.3164062 z m 0,0"
         style="fill:#000000;fill-opacity:1;fill-rule:nonzero;stroke:none"
         aria-label="pulse"
         transform="matrix(1.3333333,0,0,1.3333333,223.26267,614.352)"
         clip-path="url(#clipPath302)" />
      <path
         id="path303"
         d="m 0.13991406,-0.15325781 c 0.33398438,-0.0380859 0.54492188,-0.0996094 0.6328125,-0.1875 0.0849609,-0.09375 0.12890625,-0.328125 0.12890625,-0.70312499 v -3.7382813 c 0,-0.3046875 -0.046875,-0.5039062 -0.140625,-0.5976562 -0.09375,-0.09375 -0.30175781,-0.1523438 -0.62109375,-0.1757813 V -5.7196641 H 2.5422578 v 0.1640625 c -0.3222656,0.023437 -0.5273437,0.082031 -0.6210937,0.1757813 -0.09375,0.09375 -0.140625,0.2929687 -0.140625,0.5976562 v 1.6875 h 2.6132812 v -1.6875 c 0,-0.3046875 -0.046875,-0.5039062 -0.140625,-0.5976562 -0.09375,-0.09375 -0.3017578,-0.1523438 -0.6210937,-0.1757813 v -0.1640625 h 2.4023437 v 0.1640625 c -0.3222656,0.023437 -0.5273437,0.082031 -0.6210937,0.1757813 -0.09375,0.09375 -0.140625,0.2929687 -0.140625,0.5976562 v 3.84375004 c 0,0.31347656 0.046875,0.515625 0.140625,0.609375 0.09375,0.0878906 0.2988281,0.14648437 0.6210937,0.17578125 V -9.140625e-4 H 3.6321016 V -0.15325781 c 0.3427734,-0.0380859 0.5537109,-0.0996094 0.6328125,-0.1875 0.084961,-0.09375 0.1289062,-0.328125 0.1289062,-0.70312499 V -2.7196641 H 1.7805391 v 1.78125004 c 0,0.31347656 0.046875,0.515625 0.140625,0.609375 0.09375,0.0878906 0.2988281,0.14648437 0.6210937,0.17578125 V -9.140625e-4 H 0.13991406 Z M 8.7121797,-2.3329453 c -0.3222656,0.102539 -0.5859375,0.2197265 -0.796875,0.3515625 -0.4072266,0.2519531 -0.609375,0.5361328 -0.609375,0.8554687 0,0.25195316 0.084961,0.43945316 0.2578125,0.56250004 0.1083984,0.0791016 0.2285156,0.1171875 0.3632812,0.1171875 0.1875,0 0.3632813,-0.0498047 0.5273438,-0.15234375 0.1699219,-0.10839844 0.2578125,-0.24023438 0.2578125,-0.3984375 z m -2.15625,1.48828124 c 0,-0.40429684 0.2021484,-0.74414064 0.609375,-1.01953124 0.2578125,-0.1640625 0.7734375,-0.3896485 1.546875,-0.6796875 v -0.3632813 c 0,-0.2871093 -0.029297,-0.4863281 -0.082031,-0.5976562 -0.09375,-0.1875 -0.2929687,-0.28125 -0.5976562,-0.28125 -0.140625,0 -0.2783203,0.035156 -0.4101563,0.1054687 -0.1259765,0.079102 -0.1875,0.1845703 -0.1875,0.3164063 0,0.032227 0.00293,0.09082 0.011719,0.1757812 0.014648,0.079102 0.023437,0.1289063 0.023437,0.1523438 0,0.1582031 -0.052734,0.2666015 -0.1523438,0.328125 -0.055664,0.032227 -0.1259765,0.046875 -0.2109375,0.046875 -0.1259765,0 -0.2226562,-0.038086 -0.2929687,-0.1171875 -0.064453,-0.084961 -0.09375,-0.178711 -0.09375,-0.28125 0,-0.1933594 0.1201172,-0.3984375 0.3632812,-0.609375 0.2402344,-0.2167969 0.5976563,-0.328125 1.0664063,-0.328125 0.5449219,0 0.9169922,0.1757812 1.1132812,0.5273437 0.099609,0.1962891 0.1523438,0.4804688 0.1523438,0.8554688 v 1.68749999 c 0,0.1640625 0.011719,0.27832031 0.035156,0.33984375 0.038086,0.11132812 0.1113282,0.1640625 0.2226563,0.1640625 0.070312,0 0.1230469,-0.005859 0.1640625,-0.0234375 0.038086,-0.0234375 0.1113281,-0.0732422 0.2226565,-0.15234375 v 0.22265625 c -0.09375,0.11132812 -0.1933596,0.19921875 -0.292969,0.26953125 -0.1582031,0.10253906 -0.3164063,0.15234375 -0.4804688,0.15234375 -0.196289,0 -0.336914,-0.05859375 -0.421875,-0.17578125 -0.087891,-0.12304688 -0.1347656,-0.27246094 -0.140625,-0.4453125 -0.2109375,0.18164062 -0.3925781,0.31640625 -0.5390625,0.41015625 -0.2578125,0.14941406 -0.5039062,0.22265625 -0.7382812,0.22265625 -0.2431641,0 -0.4541016,-0.08203125 -0.6328125,-0.24609375 -0.1728516,-0.16992188 -0.2578125,-0.38964844 -0.2578123,-0.65625 z M 8.1613984,-3.9970078 Z m 2.0888676,3.87890624 c 0.263671,-0.0234375 0.439453,-0.0732422 0.527343,-0.15234375 0.09375,-0.0849609 0.140625,-0.24609375 0.140625,-0.48046875 V -4.8641953 c 0,-0.1875 -0.01758,-0.3164063 -0.04687,-0.3867188 -0.05566,-0.1171875 -0.169922,-0.1757812 -0.339843,-0.1757812 -0.04102,0 -0.08203,0.00586 -0.128907,0.011719 -0.04687,0.00879 -0.105468,0.020508 -0.175781,0.035156 v -0.140625 c 0.380859,-0.099609 0.837891,-0.234375 1.371094,-0.3984375 0.02344,0 0.03516,0.00879 0.03516,0.023437 0.0059,0.017578 0.01172,0.052734 0.01172,0.1054687 v 5.06250004 c 0,0.24316406 0.03809,0.3984375 0.117187,0.46875 0.08496,0.0703125 0.260743,0.1171875 0.527344,0.140625 v 0.1171874975 h -2.039062 z m 2.390625,0 c 0.304687,-0.0146484 0.503906,-0.0703125 0.597656,-0.1640625 0.09375,-0.0996094 0.140625,-0.30761719 0.140625,-0.62109375 V -3.6102891 h -0.726563 v -0.28125 h 0.726563 c 0,-0.4453125 0.05859,-0.8203125 0.175781,-1.125 0.234375,-0.5859375 0.65625,-0.8789062 1.265625,-0.8789062 0.249024,0 0.47168,0.052734 0.667969,0.1523437 0.193359,0.09375 0.292969,0.2226563 0.292969,0.3867188 0,0.09375 -0.03516,0.1816406 -0.105469,0.2578125 -0.06445,0.070312 -0.140625,0.1054687 -0.234375,0.1054687 -0.08789,0 -0.161133,-0.023437 -0.222656,-0.070312 -0.05566,-0.052734 -0.123047,-0.1435547 -0.199219,-0.2695312 l -0.07031,-0.1054688 c -0.04687,-0.052734 -0.09961,-0.099609 -0.152343,-0.140625 -0.04687,-0.046875 -0.117188,-0.070312 -0.210938,-0.070312 -0.219726,0 -0.363281,0.1054688 -0.433594,0.3164063 -0.04687,0.1171875 -0.07031,0.2666015 -0.07031,0.4453125 v 0.9960937 h 1.054687 v 0.28125 h -1.042968 v 2.70703129 c 0,0.32226562 0.04101,0.52734375 0.128906,0.62109375 0.08496,0.0878906 0.307617,0.140625 0.667969,0.1640625 v 0.1171874975 h -2.25 z m 3.052734,-2.09765624 h 2.121094 v 0.5390625 h -2.121094 z m 4.681641,-1.7578125 c 0.351562,0 0.65039,0.09082 0.902343,0.2695312 0.257813,0.1816407 0.386719,0.3808594 0.386719,0.5976563 0,0.09375 -0.03223,0.1816406 -0.09375,0.2578125 -0.06445,0.079102 -0.164062,0.1171875 -0.304687,0.1171875 -0.09375,0 -0.181641,-0.029297 -0.257813,-0.09375 -0.07031,-0.070312 -0.125976,-0.1699219 -0.164062,-0.3046875 l -0.04687,-0.1992188 c -0.04102,-0.1464843 -0.102539,-0.2519531 -0.1875,-0.3164062 -0.09375,-0.052734 -0.216797,-0.082031 -0.363282,-0.082031 -0.322265,0 -0.594726,0.140625 -0.820312,0.421875 -0.219727,0.2753907 -0.328125,0.6445313 -0.328125,1.1132813 0,0.421875 0.120117,0.8027344 0.363281,1.1367187 0.240234,0.3369141 0.568359,0.50390629 0.984375,0.50390629 0.295899,0 0.556641,-0.09375 0.785156,-0.28125 0.123047,-0.10839844 0.269532,-0.28417969 0.433594,-0.52734379 l 0.117188,0.070312 c -0.158204,0.3369141 -0.325196,0.60644535 -0.503907,0.80859379 -0.336914,0.375 -0.732422,0.5625 -1.183593,0.5625 -0.439454,0 -0.826172,-0.16992188 -1.160157,-0.515625 -0.336914,-0.3515625 -0.503906,-0.82324219 -0.503906,-1.41796879 0,-0.5771484 0.181641,-1.0722656 0.550781,-1.4882812 0.366211,-0.421875 0.832032,-0.6328125 1.394532,-0.6328125 z m -0.1875,0 z m 1.995117,0.09375 h 1.78125 v 0.1289062 c -0.140625,0.00879 -0.246094,0.023437 -0.316406,0.046875 -0.125977,0.032227 -0.1875,0.1025391 -0.1875,0.2109375 0,0.041016 0.0029,0.082031 0.01172,0.1289063 0.01465,0.041016 0.04102,0.099609 0.08203,0.1757812 l 0.984375,2.19140629 0.796875,-2.20312499 c 0.0059,-0.023437 0.01758,-0.073242 0.03516,-0.1523438 0.02344,-0.084961 0.03516,-0.140625 0.03516,-0.1640625 0,-0.070312 -0.0293,-0.1201172 -0.08203,-0.1523437 -0.04687,-0.038086 -0.111328,-0.061523 -0.1875,-0.070312 l -0.140625,-0.011719 V -3.87982 h 1.160156 v 0.1289062 c -0.111328,0.017578 -0.196289,0.058594 -0.257812,0.1289063 -0.05567,0.064453 -0.10254,0.1523437 -0.140625,0.2695312 l -1.335938,3.51562504 c -0.228516,0.60058593 -0.445312,1.03710936 -0.65625,1.31249996 -0.210937,0.272461 -0.480469,0.4101563 -0.808594,0.4101563 -0.158203,0 -0.304687,-0.041016 -0.445312,-0.1171875 -0.134766,-0.079102 -0.199219,-0.2050781 -0.199219,-0.375 0,-0.1113281 0.03809,-0.2050781 0.117188,-0.28125 0.08496,-0.070312 0.190429,-0.1054688 0.316406,-0.1054688 0.07617,0 0.1875,0.026367 0.328125,0.082031 0.146484,0.052734 0.251953,0.082031 0.316406,0.082031 0.155273,0 0.319336,-0.18457028 0.492188,-0.55078121 0.169921,-0.36914063 0.257812,-0.609375 0.257812,-0.7265625 0,-0.0292969 -0.0059,-0.0615234 -0.01172,-0.09375 -0.0088,-0.0380859 -0.01758,-0.0732422 -0.02344,-0.10546875 L 22.757102,-3.2235703 c -0.10254,-0.2021485 -0.1875,-0.3339844 -0.257813,-0.3984375 -0.07031,-0.070312 -0.175781,-0.1171875 -0.316406,-0.140625 z m 2.003906,-0.082031 z m 4.344727,-0.011719 c 0.351562,0 0.65039,0.09082 0.902343,0.2695312 0.257813,0.1816407 0.386719,0.3808594 0.386719,0.5976563 0,0.09375 -0.03223,0.1816406 -0.09375,0.2578125 -0.06445,0.079102 -0.164062,0.1171875 -0.304687,0.1171875 -0.09375,0 -0.181641,-0.029297 -0.257813,-0.09375 -0.07031,-0.070312 -0.125976,-0.1699219 -0.164062,-0.3046875 l -0.04687,-0.1992188 c -0.04102,-0.1464843 -0.102539,-0.2519531 -0.1875,-0.3164062 -0.09375,-0.052734 -0.216797,-0.082031 -0.363282,-0.082031 -0.322265,0 -0.594726,0.140625 -0.820312,0.421875 -0.219727,0.2753907 -0.328125,0.6445313 -0.328125,1.1132813 0,0.421875 0.120117,0.8027344 0.363281,1.1367187 0.240234,0.3369141 0.568359,0.50390629 0.984375,0.50390629 0.295899,0 0.556641,-0.09375 0.785156,-0.28125 0.123047,-0.10839844 0.269532,-0.28417969 0.433594,-0.52734379 l 0.117188,0.070312 c -0.158204,0.3369141 -0.325196,0.60644535 -0.503907,0.80859379 -0.336914,0.375 -0.732422,0.5625 -1.183593,0.5625 -0.439454,0 -0.826172,-0.16992188 -1.160157,-0.515625 -0.336914,-0.3515625 -0.503906,-0.82324219 -0.503906,-1.41796879 0,-0.5771484 0.181641,-1.0722656 0.550781,-1.4882812 0.366211,-0.421875 0.832032,-0.6328125 1.394532,-0.6328125 z m -0.1875,0 z m 2.053711,3.85546874 c 0.263671,-0.0234375 0.439453,-0.0732422 0.527343,-0.15234375 0.09375,-0.0849609 0.140625,-0.24609375 0.140625,-0.48046875 V -4.8641953 c 0,-0.1875 -0.01758,-0.3164063 -0.04687,-0.3867188 -0.05566,-0.1171875 -0.169922,-0.1757812 -0.339843,-0.1757812 -0.04102,0 -0.08203,0.00586 -0.128907,0.011719 -0.04687,0.00879 -0.105468,0.020508 -0.175781,0.035156 v -0.140625 c 0.380859,-0.099609 0.837891,-0.234375 1.371094,-0.3984375 0.02344,0 0.03516,0.00879 0.03516,0.023437 0.0059,0.017578 0.01172,0.052734 0.01172,0.1054687 v 5.06250004 c 0,0.24316406 0.03809,0.3984375 0.117187,0.46875 0.08496,0.0703125 0.260742,0.1171875 0.527344,0.140625 v 0.1171874975 h -2.039062 z m 4.207031,-3.84375004 c 0.398437,0 0.74414,0.140625 1.042969,0.421875 0.295898,0.2753907 0.445312,0.6621094 0.445312,1.1601563 h -2.683594 c 0.0293,0.65625 0.178711,1.133789 0.445313,1.42968749 0.263672,0.29882812 0.580078,0.4453125 0.949219,0.4453125 0.295898,0 0.544921,-0.0761719 0.75,-0.234375 0.202148,-0.15527344 0.389648,-0.37499999 0.5625,-0.65624999 l 0.140625,0.046875 c -0.117188,0.36035155 -0.336915,0.69140624 -0.65625,0.99609374 -0.313477,0.3046875 -0.697266,0.45703125 -1.148438,0.45703125 -0.533203,0 -0.943359,-0.19921875 -1.230469,-0.59765625 -0.290039,-0.40429688 -0.433593,-0.86718754 -0.433593,-1.38281254 0,-0.5625 0.166992,-1.0488281 0.503906,-1.4648437 0.333984,-0.413086 0.773437,-0.6210938 1.3125,-0.6210938 z m -0.246094,0.3164063 c -0.322266,0 -0.568359,0.140625 -0.738281,0.421875 -0.08789,0.149414 -0.149414,0.3398437 -0.1875,0.5742187 h 1.78125 c -0.03223,-0.28125 -0.08789,-0.4921875 -0.164063,-0.6328125 -0.140625,-0.2402343 -0.37207,-0.3632812 -0.691406,-0.3632812 z m 0.1875,-0.3164063 z m 0,0"
         style="fill:#000000;fill-opacity:1;fill-rule:nonzero;stroke:none"
         aria-label="Half-cycle"
         transform="matrix(1.3333333,0,0,1.3333333,421.26267,603.552)"
         clip-path="url(#clipPath304)" />
      <path
         id="path305"
         d="m 0.44577344,-1.3245469 h 0.140625 c 0.0615234,0.3222656 0.14648437,0.5683594 0.2578125,0.73828127 0.20214846,0.31347657 0.49218746,0.46875 0.86718746,0.46875 0.2109375,0 0.375,-0.0585938 0.4921875,-0.17578125 0.1230469,-0.1171875 0.1875,-0.26953125 0.1875,-0.45703125 0,-0.1171875 -0.035156,-0.22851562 -0.1054687,-0.33984377 C 2.2153047,-1.1985703 2.0922578,-1.3040391 1.9223359,-1.4065781 L 1.4418672,-1.6761094 c -0.3457031,-0.1875 -0.59765626,-0.375 -0.76171876,-0.5625 -0.1640625,-0.1875 -0.24609375,-0.4101562 -0.24609375,-0.6679687 0,-0.3105469 0.11132812,-0.5683594 0.33984375,-0.7734375 0.22558593,-0.2021485 0.50976566,-0.3046875 0.85546876,-0.3046875 0.1464844,0 0.3076172,0.029297 0.4804687,0.082031 0.178711,0.055664 0.28125,0.082031 0.3046875,0.082031 0.052734,0 0.087891,-0.00293 0.1054688,-0.011719 0.023437,-0.014648 0.046875,-0.038086 0.070312,-0.070312 h 0.09375 l 0.035156,1.171875 H 2.5903047 c -0.064453,-0.2724609 -0.140625,-0.4833984 -0.234375,-0.6328125 -0.1728516,-0.28125 -0.421875,-0.421875 -0.75,-0.421875 -0.1962891,0 -0.3515625,0.064453 -0.46875,0.1875 -0.1113281,0.1171875 -0.16406251,0.2578125 -0.16406251,0.421875 0,0.2578125 0.19042971,0.4892578 0.57421871,0.6914063 l 0.5625,0.2929687 c 0.600586,0.328125 0.9023438,0.7089844 0.9023438,1.1367188 0,0.33691404 -0.1259766,0.60937497 -0.375,0.82031247 -0.2519531,0.2109375 -0.5800781,0.31640625 -0.984375,0.31640625 -0.1640625,0 -0.3574219,-0.02929687 -0.5742188,-0.082031245 C 0.86764844,-0.06185156 0.74167187,-0.09407813 0.70358594,-0.09407813 c -0.0322266,0 -0.0644531,0.01757813 -0.09375,0.046875 -0.0234375,0.0234375 -0.0410156,0.04980469 -0.046875,0.08203125 H 0.44577344 Z M 1.6879609,-3.9847031 Z m 2.3759766,-1.4648438 c 0,-0.1171875 0.041016,-0.2167969 0.1289062,-0.3046875 0.084961,-0.084961 0.1904297,-0.1289062 0.3164063,-0.1289062 0.1171875,0 0.2167969,0.043945 0.3046875,0.1289062 0.084961,0.087891 0.1289062,0.1875 0.1289062,0.3046875 0,0.1259766 -0.043945,0.2314453 -0.1289062,0.3164063 -0.087891,0.087891 -0.1875,0.1289062 -0.3046875,0.1289062 -0.1259766,0 -0.2314453,-0.041016 -0.3164063,-0.1289062 -0.087891,-0.084961 -0.1289062,-0.1904297 -0.1289062,-0.3164063 z M 3.524875,-0.11751563 c 0.3046875,-0.0292969 0.4951172,-0.0820313 0.5742187,-0.15234375 0.076172,-0.0761719 0.1171875,-0.28125 0.1171875,-0.609375 V -2.8948594 c 0,-0.1787109 -0.011719,-0.3046875 -0.035156,-0.375 -0.046875,-0.1171875 -0.1376953,-0.1757812 -0.2695313,-0.1757812 -0.032227,0 -0.064453,0.00586 -0.09375,0.011719 -0.023437,0.00879 -0.1054687,0.032227 -0.2460937,0.070312 v -0.1289062 l 0.1757812,-0.058594 c 0.4921875,-0.1640625 0.834961,-0.2841797 1.03125,-0.3632812 0.076172,-0.038086 0.1289063,-0.058594 0.1523438,-0.058594 0.00586,0.023437 0.011719,0.046875 0.011719,0.070312 v 3.02343752 c 0,0.32226563 0.035156,0.52441407 0.1054688,0.609375 0.076172,0.0791016 0.2519531,0.12890625 0.5273437,0.15234375 V -3.28125e-4 H 3.524875 Z m 2.390625,0 c 0.2021484,-0.0234375 0.3427734,-0.0703125 0.421875,-0.140625 0.076172,-0.0761719 0.1171875,-0.24609375 0.1171875,-0.50390625 V -2.9065781 c 0,-0.178711 -0.017578,-0.3046875 -0.046875,-0.375 -0.055664,-0.1083985 -0.1640625,-0.1640625 -0.328125,-0.1640625 -0.023437,0 -0.052734,0.00586 -0.082031,0.011719 -0.023437,0 -0.055664,0 -0.09375,0 v -0.140625 C 6.020969,-3.6038436 6.29343,-3.6917341 6.724094,-3.8323591 l 0.3984375,-0.140625 c 0.014648,0 0.023437,0.00879 0.023437,0.023437 0.00586,0.017578 0.011719,0.035156 0.011719,0.058594 v 0.6210937 C 7.4155,-3.5100938 7.6176484,-3.6741563 7.7670625,-3.7620469 7.9838594,-3.9026719 8.212375,-3.9729844 8.44675,-3.9729844 c 0.1933594,0 0.3691406,0.055664 0.5273437,0.1640625 0.3046875,0.2109375 0.4570313,0.5947266 0.4570313,1.1484375 v 1.96875002 c 0,0.20507813 0.038086,0.3515625 0.1171875,0.4453125 0.084961,0.0878906 0.2226562,0.12890625 0.4101562,0.12890625 V -3.28125e-4 H 8.1537812 V -0.11751563 c 0.2109375,-0.0292969 0.3544922,-0.0878906 0.4335938,-0.17578125 0.084961,-0.0849609 0.1289062,-0.26953125 0.1289062,-0.55078125 V -2.6487656 c 0,-0.2402344 -0.046875,-0.4394532 -0.140625,-0.5976563 -0.087891,-0.1640625 -0.2519531,-0.2460937 -0.4921875,-0.2460937 -0.1728515,0 -0.3457031,0.058594 -0.515625,0.1757812 -0.09375,0.064453 -0.2167968,0.1699219 -0.3632812,0.3164063 v 2.36718747 c 0,0.20507813 0.041016,0.33984375 0.1289062,0.41015625 0.09375,0.0644531 0.2373047,0.0996094 0.4335938,0.10546875 V -3.28125e-4 H 5.9155 Z M 7.931125,-3.9729844 Z m 3.486328,0.070312 v 2.6953125 c 0,0.1962891 0.02637,0.34863284 0.08203,0.45703127 0.09961,0.21972657 0.292969,0.328125 0.574219,0.328125 0.1875,0 0.375,-0.0644531 0.5625,-0.19921875 0.09961,-0.0703125 0.205078,-0.1640625 0.316406,-0.28125 V -3.2229844 c 0,-0.2109375 -0.04395,-0.3515625 -0.128906,-0.421875 -0.08789,-0.070312 -0.254883,-0.1083984 -0.503906,-0.1171875 v -0.140625 h 1.359375 v 2.96484377 c 0,0.19628907 0.03516,0.328125 0.105469,0.3984375 0.07031,0.0703125 0.213867,0.10253907 0.433593,0.09375 v 0.1171875 c -0.158203,0.0410156 -0.269531,0.0703125 -0.339843,0.09375 -0.07031,0.0234375 -0.19336,0.0644531 -0.363282,0.1171875 -0.0791,0.0234375 -0.240234,0.08203125 -0.480468,0.17578125 -0.01758,0 -0.0293,-0.0087891 -0.03516,-0.0234375 0,-0.0087891 0,-0.02050781 0,-0.035156245 V -0.68001563 c -0.1875,0.22851563 -0.363281,0.39550782 -0.527343,0.50390625 -0.234375,0.17285157 -0.486329,0.2578125 -0.75,0.2578125 -0.251954,0 -0.480469,-0.08496093 -0.691407,-0.2578125 -0.219726,-0.16992187 -0.328125,-0.45996093 -0.328125,-0.86718752 v -2.1914062 c 0,-0.225586 -0.05273,-0.3779297 -0.152343,-0.4570313 -0.06445,-0.046875 -0.196289,-0.076172 -0.398438,-0.09375 v -0.1171875 z m 0.832031,-0.058594 z m 2.598633,2.6367187 h 0.140625 c 0.06152,0.3222656 0.146485,0.5683594 0.257813,0.73828127 0.202148,0.31347657 0.492187,0.46875 0.867187,0.46875 0.210938,0 0.375,-0.0585938 0.492188,-0.17578125 0.123047,-0.1171875 0.1875,-0.26953125 0.1875,-0.45703125 0,-0.1171875 -0.03516,-0.22851562 -0.105469,-0.33984377 -0.07031,-0.1083984 -0.193359,-0.2138672 -0.363281,-0.3164062 l -0.480469,-0.2695313 c -0.345703,-0.1875 -0.597656,-0.375 -0.761719,-0.5625 -0.164062,-0.1875 -0.246094,-0.4101562 -0.246094,-0.6679687 0,-0.3105469 0.111329,-0.5683594 0.339844,-0.7734375 0.225586,-0.2021485 0.509766,-0.3046875 0.855469,-0.3046875 0.146484,0 0.307617,0.029297 0.480469,0.082031 0.178711,0.055664 0.28125,0.082031 0.304687,0.082031 0.05274,0 0.08789,-0.00293 0.105469,-0.011719 0.02344,-0.014648 0.04687,-0.038086 0.07031,-0.070312 h 0.09375 l 0.03516,1.171875 h -0.128907 c -0.06445,-0.2724609 -0.140625,-0.4833984 -0.234375,-0.6328125 -0.172851,-0.28125 -0.421875,-0.421875 -0.75,-0.421875 -0.196289,0 -0.351562,0.064453 -0.46875,0.1875 -0.111328,0.1171875 -0.164062,0.2578125 -0.164062,0.421875 0,0.2578125 0.19043,0.4892578 0.574219,0.6914063 l 0.5625,0.2929687 c 0.600586,0.328125 0.902343,0.7089844 0.902343,1.1367188 0,0.33691404 -0.125976,0.60937497 -0.375,0.82031247 -0.251953,0.2109375 -0.580078,0.31640625 -0.984375,0.31640625 -0.164062,0 -0.357421,-0.02929687 -0.574218,-0.082031245 -0.210938,-0.061523435 -0.336914,-0.093750005 -0.375,-0.093750005 -0.03223,0 -0.06445,0.01757813 -0.09375,0.046875 -0.02344,0.0234375 -0.04102,0.04980469 -0.04687,0.08203125 h -0.117188 z m 1.242188,-2.6601562 z m 1.895507,2.0273437 c 0,-0.5625 0.175782,-1.0341797 0.527344,-1.4179687 0.357422,-0.3896485 0.814453,-0.5859375 1.371094,-0.5859375 0.5625,0 1.022461,0.1845703 1.382812,0.5507812 0.366211,0.3691406 0.550782,0.8554688 0.550782,1.4648438 0,0.5566406 -0.175782,1.04003904 -0.527344,1.45312497 -0.351563,0.41601563 -0.808594,0.62109375 -1.371094,0.62109375 -0.547851,0 -1.007812,-0.19335937 -1.382812,-0.5859375 -0.369141,-0.3984375 -0.550782,-0.89648442 -0.550782,-1.50000002 z m 1.78125,-1.7460937 c -0.219726,0 -0.410156,0.076172 -0.574218,0.2226562 -0.28125,0.2578125 -0.421875,0.7001953 -0.421875,1.3242188 0,0.5009765 0.111328,0.9697265 0.339843,1.40624997 0.225586,0.43066407 0.539063,0.64453125 0.9375,0.64453125 0.319336,0 0.5625,-0.14355468 0.726563,-0.43359375 0.169922,-0.28710937 0.257812,-0.67089847 0.257812,-1.14843747 0,-0.4833985 -0.111328,-0.9404297 -0.328125,-1.3710938 -0.210937,-0.4277344 -0.524414,-0.6445312 -0.9375,-0.6445312 z m 0.164063,-0.2578125 z m 2.856445,-1.4882813 c 0,-0.1171875 0.04102,-0.2167969 0.128907,-0.3046875 0.08496,-0.084961 0.190429,-0.1289062 0.316406,-0.1289062 0.117187,0 0.216797,0.043945 0.304687,0.1289062 0.08496,0.087891 0.128907,0.1875 0.128907,0.3046875 0,0.1259766 -0.04395,0.2314453 -0.128907,0.3164063 -0.08789,0.087891 -0.1875,0.1289062 -0.304687,0.1289062 -0.125977,0 -0.231446,-0.041016 -0.316406,-0.1289062 -0.08789,-0.084961 -0.128907,-0.1904297 -0.128907,-0.3164063 z m -0.539062,5.33203127 c 0.304687,-0.0292969 0.495117,-0.0820313 0.574219,-0.15234375 0.07617,-0.0761719 0.117187,-0.28125 0.117187,-0.609375 V -2.8948594 c 0,-0.1787109 -0.01172,-0.3046875 -0.03516,-0.375 -0.04687,-0.1171875 -0.137696,-0.1757812 -0.269531,-0.1757812 -0.03223,0 -0.06445,0.00586 -0.09375,0.011719 -0.02344,0.00879 -0.105469,0.032227 -0.246094,0.070312 v -0.1289062 l 0.175781,-0.058594 c 0.492188,-0.1640625 0.834961,-0.2841797 1.03125,-0.3632812 0.07617,-0.038086 0.128906,-0.058594 0.152344,-0.058594 0.0059,0.023437 0.01172,0.046875 0.01172,0.070312 v 3.02343752 c 0,0.32226563 0.03516,0.52441407 0.105468,0.609375 0.07617,0.0791016 0.251953,0.12890625 0.527344,0.15234375 V -3.28125e-4 H 22.248508 Z M 26.53757,-3.9847031 c 0.202149,0 0.389649,0.043945 0.5625,0.1289062 0.108399,0.064453 0.213867,0.1464844 0.316407,0.2460938 v -1.3359375 c 0,-0.1699219 -0.02051,-0.2871094 -0.05859,-0.3515625 -0.03223,-0.070312 -0.123047,-0.1054688 -0.269531,-0.1054688 -0.03223,0 -0.05859,0.00586 -0.08203,0.011719 -0.02344,0 -0.08203,0.00586 -0.175781,0.011719 v -0.140625 l 0.351563,-0.082031 c 0.123046,-0.038086 0.249023,-0.073242 0.375,-0.1054688 0.131835,-0.038086 0.246093,-0.073242 0.339843,-0.1054687 0.04687,-0.014648 0.120117,-0.041016 0.222657,-0.082031 l 0.02344,0.011719 -0.01172,0.4335937 c 0,0.1640625 -0.0059,0.3339844 -0.01172,0.5039063 0,0.1640625 0,0.3339843 0,0.5039062 l -0.01172,3.44531252 c 0,0.18164063 0.02344,0.31054688 0.07031,0.38671875 0.04687,0.0703125 0.166992,0.10546875 0.363282,0.10546875 0.0293,0 0.06152,0 0.09375,0 0.0293,-0.005859 0.06152,-0.0117188 0.09375,-0.0117188 v 0.140625 c -0.01758,0 -0.222657,0.0703125 -0.621094,0.2109375 l -0.65625,0.24609375 -0.03516,-0.03515625 v -0.52734375 c -0.158204,0.17285157 -0.29004,0.29882813 -0.398438,0.375 -0.210937,0.12304688 -0.451172,0.1875 -0.714844,0.1875 -0.477539,0 -0.864258,-0.18164062 -1.160156,-0.55078125 -0.298828,-0.375 -0.445312,-0.80273432 -0.445312,-1.28906242 0,-0.609375 0.175781,-1.1308594 0.527343,-1.5703125 0.357422,-0.4365235 0.796875,-0.65625 1.3125,-0.65625 z m 0.152344,3.60937497 c 0.216797,0 0.392578,-0.0615234 0.527344,-0.1875 0.131836,-0.13183593 0.199219,-0.2578125 0.199219,-0.375 V -2.7425156 c 0,-0.366211 -0.09961,-0.6240235 -0.292969,-0.7734375 -0.196289,-0.1552735 -0.383789,-0.234375 -0.5625,-0.234375 -0.360352,0 -0.638672,0.1611328 -0.832031,0.4804687 -0.19629,0.3134766 -0.292969,0.6972656 -0.292969,1.1484375 0,0.4541016 0.105469,0.8613281 0.316406,1.21875002 0.210938,0.3515625 0.521484,0.52734375 0.9375,0.52734375 z m 0,0"
         style="fill:#000000;fill-opacity:1;fill-rule:nonzero;stroke:none"
         aria-label="sinusoid"
         transform="matrix(1.3333333,0,0,1.3333333,424.86267,614.352)"
         clip-path="url(#clipPath306)" />
      <path
         id="path307"
         d="M 0.16510938,-5.7196641 H 5.0518281 l 0.046875,1.4765625 H 4.8877656 C 4.7852266,-4.7030625 4.6563203,-5.0048203 4.5010469,-5.1454453 4.3428438,-5.2860703 4.0147188,-5.3563828 3.5166719,-5.3563828 H 3.0362031 v 4.41796874 c 0,0.33691406 0.049805,0.54492187 0.1523438,0.62109375 0.1083984,0.0791016 0.3398437,0.13476562 0.6914062,0.1640625 V -9.140625e-4 H 1.3604219 V -0.15325781 c 0.3662109,-0.0292969 0.5917969,-0.09375 0.6796875,-0.1875 0.09375,-0.09375 0.140625,-0.328125 0.140625,-0.70312499 v -4.3125 H 1.7002656 c -0.4863281,0 -0.8144531,0.070312 -0.98437497,0.2109375 -0.17285157,0.1347656 -0.30175782,0.4335937 -0.38671875,0.9023437 H 0.11823438 Z M 5.3155,-0.14153906 c 0.2578125,-0.0234375 0.4277344,-0.0644531 0.515625,-0.12890625 0.084961,-0.0703125 0.1289063,-0.21679688 0.1289063,-0.4453125 V -2.6141953 c 0,-0.28125 -0.029297,-0.4804688 -0.082031,-0.5976563 -0.046875,-0.1230468 -0.140625,-0.1875 -0.28125,-0.1875 -0.032227,0 -0.070312,0.00586 -0.1171875,0.011719 -0.041016,0.00879 -0.087891,0.020508 -0.140625,0.035156 v -0.140625 C 5.503,-3.554625 5.6670625,-3.6132188 5.831125,-3.6688828 c 0.1699219,-0.061523 0.2871094,-0.1054688 0.3515625,-0.1289063 0.140625,-0.052734 0.2841797,-0.1113281 0.4335938,-0.1757812 0.023437,0 0.035156,0.00879 0.035156,0.023437 0.00586,0.00879 0.011719,0.035156 0.011719,0.082031 v 0.6914063 c 0.1787109,-0.2490235 0.3515625,-0.4453125 0.515625,-0.5859375 0.1699218,-0.140625 0.3457031,-0.2109375 0.5273437,-0.2109375 0.140625,0 0.2519531,0.043945 0.3398438,0.1289062 0.09375,0.087891 0.140625,0.1962891 0.140625,0.328125 0,0.1113282 -0.035156,0.2050782 -0.1054688,0.28125 -0.070312,0.079102 -0.1582031,0.1171875 -0.2578125,0.1171875 -0.1113281,0 -0.2197266,-0.046875 -0.328125,-0.140625 -0.1025391,-0.099609 -0.1845703,-0.1523437 -0.2460937,-0.1523437 -0.1025391,0 -0.2285157,0.082031 -0.375,0.2460937 -0.140625,0.1582032 -0.2109375,0.3164063 -0.2109375,0.4804688 v 1.91015624 c 0,0.24316406 0.052734,0.41015625 0.1640625,0.50390625 0.1171875,0.09375 0.3076171,0.13769531 0.5742187,0.12890625 V -9.140625e-4 H 5.3155 Z M 8.8604219,-5.4501328 c 0,-0.1171875 0.041016,-0.2167969 0.1289062,-0.3046875 0.084961,-0.084961 0.1904297,-0.1289063 0.3164063,-0.1289063 0.1171875,0 0.2167969,0.043945 0.3046875,0.1289063 0.084961,0.087891 0.1289062,0.1875 0.1289062,0.3046875 0,0.1259765 -0.043945,0.2314453 -0.1289062,0.3164062 -0.087891,0.087891 -0.1875,0.1289063 -0.3046875,0.1289063 -0.1259766,0 -0.2314453,-0.041016 -0.3164063,-0.1289063 -0.087891,-0.084961 -0.1289062,-0.1904297 -0.1289062,-0.3164062 z m -0.5390625,5.33203124 c 0.3046875,-0.0292969 0.4951172,-0.0820313 0.5742187,-0.15234375 0.076172,-0.0761719 0.1171875,-0.28125 0.1171875,-0.609375 V -2.8954453 c 0,-0.178711 -0.011719,-0.3046875 -0.035156,-0.375 -0.046875,-0.1171875 -0.1376953,-0.1757813 -0.2695313,-0.1757813 -0.032227,0 -0.064453,0.00586 -0.09375,0.011719 -0.023437,0.00879 -0.1054687,0.032227 -0.2460937,0.070312 v -0.1289063 l 0.1757812,-0.058594 c 0.4921875,-0.1640625 0.834961,-0.2841797 1.03125,-0.3632813 0.076172,-0.038086 0.1289063,-0.058594 0.1523438,-0.058594 0.00586,0.023437 0.011719,0.046875 0.011719,0.070312 v 3.02343749 c 0,0.32226562 0.035156,0.52441406 0.1054688,0.609375 0.076172,0.0791016 0.2519526,0.12890625 0.5273446,0.15234375 V -9.140625e-4 H 8.3213594 Z M 13.029367,-2.3329453 c -0.322265,0.102539 -0.585937,0.2197265 -0.796875,0.3515625 -0.407226,0.2519531 -0.609375,0.5361328 -0.609375,0.8554687 0,0.25195316 0.08496,0.43945316 0.257813,0.56250004 0.108398,0.0791016 0.228515,0.1171875 0.363281,0.1171875 0.1875,0 0.363281,-0.0498047 0.527344,-0.15234375 0.169922,-0.10839844 0.257812,-0.24023438 0.257812,-0.3984375 z m -2.15625,1.48828124 c 0,-0.40429684 0.202149,-0.74414064 0.609375,-1.01953124 0.257813,-0.1640625 0.773438,-0.3896485 1.546875,-0.6796875 v -0.3632813 c 0,-0.2871093 -0.0293,-0.4863281 -0.08203,-0.5976562 -0.09375,-0.1875 -0.292969,-0.28125 -0.597656,-0.28125 -0.140625,0 -0.278321,0.035156 -0.410157,0.1054687 -0.125976,0.079102 -0.1875,0.1845703 -0.1875,0.3164063 0,0.032227 0.0029,0.09082 0.01172,0.1757812 0.01465,0.079102 0.02344,0.1289063 0.02344,0.1523438 0,0.1582031 -0.05274,0.2666015 -0.152344,0.328125 -0.05566,0.032227 -0.125977,0.046875 -0.210938,0.046875 -0.125976,0 -0.222656,-0.038086 -0.292968,-0.1171875 -0.06445,-0.084961 -0.09375,-0.178711 -0.09375,-0.28125 0,-0.1933594 0.120117,-0.3984375 0.363281,-0.609375 0.240234,-0.2167969 0.597656,-0.328125 1.066406,-0.328125 0.544922,0 0.916992,0.1757812 1.113281,0.5273437 0.09961,0.1962891 0.152344,0.4804688 0.152344,0.8554688 v 1.68749999 c 0,0.1640625 0.01172,0.27832031 0.03516,0.33984375 0.03809,0.11132812 0.111329,0.1640625 0.222657,0.1640625 0.07031,0 0.123047,-0.005859 0.164062,-0.0234375 0.03809,-0.0234375 0.111328,-0.0732422 0.222656,-0.15234375 v 0.22265625 c -0.09375,0.11132812 -0.193359,0.19921875 -0.292968,0.26953125 -0.158203,0.10253906 -0.316407,0.15234375 -0.480469,0.15234375 -0.196289,0 -0.336914,-0.05859375 -0.421875,-0.17578125 -0.08789,-0.12304688 -0.134766,-0.27246094 -0.140625,-0.4453125 -0.210938,0.18164062 -0.392578,0.31640625 -0.539063,0.41015625 -0.257812,0.14941406 -0.503906,0.22265625 -0.738281,0.22265625 -0.243164,0 -0.454101,-0.08203125 -0.632812,-0.24609375 -0.172852,-0.16992188 -0.257813,-0.38964844 -0.257813,-0.65625 z m 1.605469,-3.15234374 z m 2.068359,3.87890624 c 0.202149,-0.0234375 0.342774,-0.0703125 0.421875,-0.140625 0.07617,-0.0761719 0.117188,-0.24609375 0.117188,-0.50390625 V -2.9071641 c 0,-0.1787109 -0.01758,-0.3046875 -0.04687,-0.375 -0.05566,-0.1083984 -0.164063,-0.1640625 -0.328125,-0.1640625 -0.02344,0 -0.05274,0.00586 -0.08203,0.011719 -0.02344,0 -0.05566,0 -0.09375,0 v -0.140625 c 0.117187,-0.029297 0.389648,-0.1171875 0.820312,-0.2578125 l 0.398438,-0.140625 c 0.01465,0 0.02344,0.00879 0.02344,0.023437 0.0059,0.017578 0.01172,0.035156 0.01172,0.058594 v 0.6210938 c 0.257812,-0.2402344 0.459961,-0.4042969 0.609375,-0.4921875 0.216797,-0.140625 0.445312,-0.2109375 0.679687,-0.2109375 0.19336,0 0.369141,0.055664 0.527344,0.1640625 0.304688,0.2109375 0.457031,0.5947265 0.457031,1.1484375 v 1.96874999 c 0,0.20507812 0.03809,0.3515625 0.117188,0.4453125 0.08496,0.0878906 0.222656,0.12890625 0.410156,0.12890625 V -9.140625e-4 H 16.785227 V -0.11810156 c 0.210937,-0.0292969 0.354492,-0.0878906 0.433593,-0.17578125 0.08496,-0.0849609 0.128907,-0.26953125 0.128907,-0.55078125 V -2.6493516 c 0,-0.2402343 -0.04687,-0.4394531 -0.140625,-0.5976562 -0.08789,-0.1640625 -0.251954,-0.2460938 -0.492188,-0.2460938 -0.172851,0 -0.345703,0.058594 -0.515625,0.1757813 -0.09375,0.064453 -0.216797,0.1699219 -0.363281,0.3164062 v 2.36718754 c 0,0.20507812 0.04101,0.33984375 0.128906,0.41015625 0.09375,0.0644531 0.237305,0.0996094 0.433594,0.10546875 V -9.140625e-4 H 14.546945 Z M 16.56257,-3.9735703 Z m 2.994141,4.75781249 c 0,0.23437501 0.131836,0.39257811 0.398437,0.48046871 0.263672,0.09375 0.56836,0.140625 0.914063,0.140625 0.46875,0 0.84668,-0.082031 1.136719,-0.2460937 0.295898,-0.16406251 0.445312,-0.36328126 0.445312,-0.59765626 0,-0.1875 -0.117187,-0.31347657 -0.351562,-0.375 -0.149414,-0.0322266 -0.427735,-0.0527344 -0.832032,-0.0585938 -0.111328,-0.008789 -0.222656,-0.0175781 -0.339843,-0.0234375 -0.111328,0 -0.210938,0 -0.304688,0 -0.06445,-0.0087891 -0.164062,-0.0234375 -0.304687,-0.046875 -0.140625,-0.01757813 -0.243164,-0.03222657 -0.304688,-0.046875 -0.03223,0 -0.114258,0.08789062 -0.246094,0.26953125 -0.140625,0.17871093 -0.210937,0.34570312 -0.210937,0.5039063 z m 0.550781,-2.20312499 c -0.257812,-0.084961 -0.457031,-0.234375 -0.597656,-0.4453125 -0.140625,-0.2167969 -0.210938,-0.4628906 -0.210938,-0.7382813 0,-0.328125 0.128907,-0.6357422 0.386719,-0.9257812 0.263672,-0.2958985 0.635742,-0.4453125 1.113281,-0.4453125 0.202149,0 0.427735,0.046875 0.679688,0.140625 0.249023,0.09375 0.486328,0.140625 0.714844,0.140625 0.05273,0 0.140625,0 0.257812,0 0.123047,-0.00586 0.213867,-0.011719 0.269531,-0.011719 h 0.04687 v 0.3515625 h -0.726562 c 0.04687,0.1171875 0.08496,0.2197266 0.117187,0.3046875 0.04687,0.1640625 0.07031,0.3164063 0.07031,0.4570313 0,0.3222656 -0.134766,0.618164 -0.398438,0.890625 -0.266601,0.2666015 -0.621093,0.3984375 -1.066406,0.3984375 -0.07031,0 -0.199219,-0.011719 -0.386719,-0.035156 -0.0791,0 -0.18457,0.070312 -0.316406,0.2109375 -0.134765,0.13476566 -0.199219,0.2431641 -0.199219,0.32812504 0,0.09375 0.09668,0.16113281 0.292969,0.19921875 0.123047,0.0322266 0.263672,0.046875 0.421875,0.046875 0.726563,0 1.21875,0.0410156 1.476563,0.1171875 0.421875,0.13476562 0.632812,0.41894531 0.632812,0.85546875 0,0.4453125 -0.251953,0.79687496 -0.75,1.05468746 -0.492187,0.2636719 -0.990234,0.3984375 -1.488281,0.3984375 -0.462891,0 -0.829102,-0.09375 -1.101563,-0.28125 -0.27539,-0.1816406 -0.410156,-0.375 -0.410156,-0.5859375 0,-0.10253903 0.03516,-0.19921871 0.105469,-0.29296871 0.07617,-0.09375 0.222656,-0.24023438 0.433594,-0.43359375 l 0.28125,-0.24609375 0.04687,-0.046875 c -0.134766,-0.05273438 -0.231446,-0.10546875 -0.292969,-0.15234375 -0.111328,-0.0849609 -0.164063,-0.1875 -0.164063,-0.3046875 0,-0.0996094 0.04687,-0.21386719 0.140625,-0.33984375 0.09375,-0.12304688 0.298829,-0.32812499 0.621094,-0.60937499 z m 0.796875,-0.082031 c 0.155274,0 0.28711,-0.041016 0.398438,-0.1289062 0.164062,-0.131836 0.246093,-0.366211 0.246093,-0.703125 0,-0.2636719 -0.07031,-0.5654297 -0.210937,-0.9023438 -0.134766,-0.3339843 -0.357422,-0.5039062 -0.667969,-0.5039062 -0.28125,0 -0.474609,0.1347656 -0.574219,0.3984375 -0.05566,0.1347656 -0.08203,0.3017578 -0.08203,0.5039062 0,0.3457032 0.08203,0.6533203 0.246094,0.9257813 0.169922,0.2753906 0.386719,0.4101562 0.64453,0.4101562 z M 20.880927,-3.97357 Z m 3.489258,0.070312 v 2.6953125 c 0,0.196289 0.02637,0.3486328 0.08203,0.45703124 0.09961,0.21972656 0.292969,0.328125 0.574219,0.328125 0.1875,0 0.375,-0.0644531 0.5625,-0.19921875 0.09961,-0.0703125 0.205078,-0.1640625 0.316406,-0.28125 V -3.2235703 c 0,-0.2109375 -0.04395,-0.3515625 -0.128906,-0.421875 -0.08789,-0.070312 -0.254883,-0.1083985 -0.503907,-0.1171875 v -0.140625 h 1.359375 v 2.96484374 c 0,0.19628906 0.03516,0.328125 0.105469,0.3984375 0.07031,0.0703125 0.213867,0.10253906 0.433594,0.09375 v 0.1171875 c -0.158203,0.0410156 -0.269531,0.0703125 -0.339844,0.09375 -0.07031,0.0234375 -0.193359,0.0644531 -0.363281,0.1171875 -0.0791,0.0234375 -0.240235,0.08203125 -0.480469,0.17578125 -0.01758,0 -0.0293,-0.0087891 -0.03516,-0.0234375 0,-0.0087891 0,-0.02050782 0,-0.0351562525 V -0.68060156 c -0.1875,0.22851562 -0.363281,0.39550781 -0.527344,0.50390625 -0.234375,0.17285156 -0.486328,0.2578125 -0.75,0.2578125 -0.251953,0 -0.480469,-0.08496094 -0.691406,-0.2578125 -0.219727,-0.16992188 -0.328125,-0.45996094 -0.328125,-0.86718749 v -2.1914063 c 0,-0.2255859 -0.05273,-0.3779297 -0.152344,-0.4570312 -0.06445,-0.046875 -0.196289,-0.076172 -0.398437,-0.09375 v -0.1171875 z m 0.832031,-0.058594 z m 2.329101,3.84375004 c 0.263672,-0.0234375 0.439453,-0.0732422 0.527344,-0.15234375 0.09375,-0.0849609 0.140625,-0.24609375 0.140625,-0.48046875 V -4.8641953 c 0,-0.1875 -0.01758,-0.3164063 -0.04687,-0.3867188 -0.05566,-0.1171875 -0.169922,-0.1757812 -0.339844,-0.1757812 -0.04102,0 -0.08203,0.00586 -0.128906,0.011719 -0.04687,0.00879 -0.105469,0.020508 -0.175781,0.035156 v -0.140625 c 0.380859,-0.099609 0.83789,-0.234375 1.371094,-0.3984375 0.02344,0 0.03516,0.00879 0.03516,0.023437 0.0059,0.017578 0.01172,0.052734 0.01172,0.1054687 v 5.06250004 c 0,0.24316406 0.03809,0.3984375 0.117187,0.46875 0.08496,0.0703125 0.260742,0.1171875 0.527344,0.140625 v 0.1171879975 h -2.03907 z m 4.696289,-2.21484374 c -0.322265,0.102539 -0.585937,0.2197265 -0.796875,0.3515625 -0.407226,0.2519531 -0.609375,0.5361328 -0.609375,0.8554687 0,0.25195316 0.08496,0.43945316 0.257813,0.56250004 0.108398,0.0791016 0.228516,0.1171875 0.363281,0.1171875 0.1875,0 0.363281,-0.0498047 0.527344,-0.15234375 0.169922,-0.10839844 0.257812,-0.24023438 0.257812,-0.3984375 z m -2.15625,1.48828124 c 0,-0.40429684 0.202149,-0.74414064 0.609375,-1.01953124 0.257813,-0.1640625 0.773438,-0.3896485 1.546875,-0.6796875 v -0.3632813 c 0,-0.2871093 -0.0293,-0.4863281 -0.08203,-0.5976562 -0.09375,-0.1875 -0.292969,-0.28125 -0.597656,-0.28125 -0.140625,0 -0.27832,0.035156 -0.410156,0.1054687 -0.125977,0.079102 -0.1875,0.1845703 -0.1875,0.3164063 0,0.032227 0.0029,0.09082 0.01172,0.1757812 0.01465,0.079102 0.02344,0.1289063 0.02344,0.1523438 0,0.1582031 -0.05273,0.2666015 -0.152344,0.328125 -0.05566,0.032227 -0.125976,0.046875 -0.210937,0.046875 -0.125977,0 -0.222657,-0.038086 -0.292969,-0.1171875 -0.06445,-0.084961 -0.09375,-0.178711 -0.09375,-0.28125 0,-0.1933594 0.120117,-0.3984375 0.363281,-0.609375 0.240235,-0.2167969 0.597656,-0.328125 1.066406,-0.328125 0.544922,0 0.916993,0.1757812 1.113282,0.5273437 0.09961,0.1962891 0.152343,0.4804688 0.152343,0.8554688 v 1.68749999 c 0,0.1640625 0.01172,0.27832031 0.03516,0.33984375 0.03809,0.11132812 0.111328,0.1640625 0.222656,0.1640625 0.07031,0 0.123047,-0.005859 0.164062,-0.0234375 0.03809,-0.0234375 0.111329,-0.0732422 0.222657,-0.15234375 v 0.22265625 c -0.09375,0.11132812 -0.19336,0.19921875 -0.292969,0.26953125 -0.158203,0.10253906 -0.316406,0.15234375 -0.480469,0.15234375 -0.196289,0 -0.336914,-0.05859375 -0.421875,-0.17578125 -0.08789,-0.12304688 -0.134765,-0.27246094 -0.140625,-0.4453125 -0.210937,0.18164062 -0.392578,0.31640625 -0.539062,0.41015625 -0.257813,0.14941406 -0.503907,0.22265625 -0.738282,0.22265625 -0.243164,0 -0.454101,-0.08203125 -0.632812,-0.24609375 -0.172852,-0.16992188 -0.257813,-0.38964844 -0.257813,-0.65625 z M 31.676828,-3.9970078 Z M 33.628,-0.14153906 c 0.257813,-0.0234375 0.427734,-0.0644531 0.515625,-0.12890625 0.08496,-0.0703125 0.128906,-0.21679688 0.128906,-0.4453125 V -2.6141953 c 0,-0.28125 -0.0293,-0.4804688 -0.08203,-0.5976563 -0.04687,-0.1230468 -0.140625,-0.1875 -0.28125,-0.1875 -0.03223,0 -0.07031,0.00586 -0.117187,0.011719 -0.04102,0.00879 -0.08789,0.020508 -0.140625,0.035156 v -0.140625 c 0.164062,-0.061523 0.328125,-0.1201172 0.492187,-0.1757812 0.169922,-0.061523 0.287109,-0.1054688 0.351563,-0.1289063 0.140625,-0.052734 0.284179,-0.1113281 0.433593,-0.1757812 0.02344,0 0.03516,0.00879 0.03516,0.023437 0.0059,0.00879 0.01172,0.035156 0.01172,0.082031 v 0.6914063 c 0.178711,-0.2490235 0.351563,-0.4453125 0.515625,-0.5859375 0.169922,-0.140625 0.345703,-0.2109375 0.527344,-0.2109375 0.140625,0 0.251953,0.043945 0.339844,0.1289062 0.09375,0.087891 0.140625,0.1962891 0.140625,0.328125 0,0.1113282 -0.03516,0.2050782 -0.105469,0.28125 -0.07031,0.079102 -0.158203,0.1171875 -0.257812,0.1171875 -0.111329,0 -0.219727,-0.046875 -0.328125,-0.140625 -0.10254,-0.099609 -0.184571,-0.1523437 -0.246094,-0.1523437 -0.102539,0 -0.228516,0.082031 -0.375,0.2460937 -0.140625,0.1582032 -0.210938,0.3164063 -0.210938,0.4804688 v 1.91015624 c 0,0.24316406 0.05273,0.41015625 0.164063,0.50390625 0.117187,0.09375 0.307617,0.13769531 0.574219,0.12890625 V -9.140625e-4 H 33.628 Z m 0,0"
         style="fill:#000000;fill-opacity:1;fill-rule:nonzero;stroke:none"
         aria-label="Triangular"
         transform="matrix(1.3333333,0,0,1.3333333,615.66267,603.552)"
         clip-path="url(#clipPath308)" />
      <path
         id="path309"
         d="m 1.3815156,-0.77376563 c 0.070312,0.1875 0.1757813,0.328125 0.3164063,0.421875 0.1464844,0.09375 0.3193359,0.140625 0.515625,0.140625 0.3046875,0 0.5625,-0.14648437 0.7734375,-0.4453125 0.2167969,-0.3046875 0.328125,-0.72656247 0.328125,-1.26562497 0,-0.515625 -0.1142578,-0.9023438 -0.3398438,-1.1601563 -0.2197265,-0.2578125 -0.477539,-0.3867187 -0.7734375,-0.3867187 -0.2050781,0 -0.3925781,0.067383 -0.5625,0.1992187 -0.1728515,0.1259766 -0.2578125,0.2519531 -0.2578125,0.375 z M 0.03385938,1.7457656 C 0.29753125,1.7223281 0.46745313,1.6637344 0.53776563,1.5699844 0.60807813,1.4762344 0.64323438,1.3268203 0.64323438,1.1246719 v -4.0546875 c 0,-0.2109375 -0.0292969,-0.3457032 -0.0820313,-0.4101563 -0.046875,-0.061523 -0.140625,-0.09375 -0.28125,-0.09375 -0.0322266,0 -0.0644531,0.00586 -0.09375,0.011719 -0.0234375,0 -0.0644531,0.00586 -0.1171875,0.011719 v -0.140625 l 0.41015625,-0.1289062 c 0.005859,0 0.28710937,-0.09668 0.84374997,-0.2929688 0.014648,0 0.026367,0.00879 0.035156,0.023437 0.00586,0.017578 0.011719,0.032227 0.011719,0.046875 v 0.5625 c 0.1787109,-0.1787109 0.3398437,-0.3164062 0.4804687,-0.4101562 0.2578126,-0.1552735 0.5185548,-0.234375 0.7851564,-0.234375 0.3896484,0 0.7207031,0.1640625 0.9960937,0.4921875 0.28125,0.328125 0.4218749,0.7822265 0.4218749,1.359375 0,0.5625 -0.1699218,1.0751953 -0.5039062,1.53515622 -0.3369141,0.45410157 -0.7587891,0.6796875 -1.265625,0.6796875 -0.1582031,0 -0.2929688,-0.02050781 -0.4101563,-0.05859375 C 1.6920625,-0.029625 1.528,-0.14095313 1.3815156,-0.30501563 V 1.0777969 c 0,0.28125 0.041016,0.4511718 0.1289063,0.515625 0.09375,0.070312 0.2958984,0.1171875 0.609375,0.140625 v 0.140625 H 0.03385938 Z M 5.6559297,-3.9026719 v 2.6953125 c 0,0.1962891 0.026367,0.34863284 0.082031,0.45703127 0.099609,0.21972657 0.2929688,0.328125 0.5742188,0.328125 0.1875,0 0.375,-0.0644531 0.5625,-0.19921875 0.099609,-0.0703125 0.2050781,-0.1640625 0.3164062,-0.28125 V -3.2229844 c 0,-0.2109375 -0.043945,-0.3515625 -0.1289062,-0.421875 -0.087891,-0.070312 -0.2548828,-0.1083984 -0.5039063,-0.1171875 v -0.140625 h 1.359375 v 2.96484377 c 0,0.19628907 0.035156,0.328125 0.1054688,0.3984375 0.070312,0.0703125 0.2138672,0.10253907 0.4335937,0.09375 v 0.1171875 c -0.1582031,0.0410156 -0.2695312,0.0703125 -0.3398437,0.09375 -0.070312,0.0234375 -0.1933594,0.0644531 -0.3632813,0.1171875 -0.079102,0.0234375 -0.2402343,0.08203125 -0.4804687,0.17578125 -0.017578,0 -0.029297,-0.0087891 -0.035156,-0.0234375 0,-0.0087891 0,-0.02050781 0,-0.035156245 V -0.68001563 c -0.1875,0.22851563 -0.3632812,0.39550782 -0.5273437,0.50390625 -0.234375,0.17285157 -0.4863281,0.2578125 -0.75,0.2578125 -0.2519531,0 -0.4804688,-0.08496093 -0.6914063,-0.2578125 C 5.0494845,-0.34603125 4.941086,-0.63607031 4.941086,-1.0432969 v -2.1914062 c 0,-0.225586 -0.052734,-0.3779297 -0.1523437,-0.4570313 -0.064453,-0.046875 -0.1962891,-0.076172 -0.3984375,-0.09375 v -0.1171875 z m 0.8320312,-0.058594 z m 2.3291016,3.84374997 c 0.2636719,-0.0234375 0.4394531,-0.0732422 0.5273438,-0.15234375 0.09375,-0.0849609 0.140625,-0.24609375 0.140625,-0.48046875 V -4.8636094 c 0,-0.1875 -0.017578,-0.3164062 -0.046875,-0.3867187 -0.055664,-0.1171875 -0.1699219,-0.1757813 -0.3398438,-0.1757813 -0.041016,0 -0.082031,0.00586 -0.1289062,0.011719 -0.046875,0.00879 -0.1054688,0.020508 -0.1757813,0.035156 v -0.140625 c 0.3808594,-0.099609 0.8378906,-0.234375 1.371094,-0.3984375 0.02344,0 0.03516,0.00879 0.03516,0.023437 0.0059,0.017578 0.01172,0.052734 0.01172,0.1054688 v 5.06249997 c 0,0.24316407 0.03809,0.3984375 0.117187,0.46875 0.08496,0.0703125 0.260742,0.1171875 0.527344,0.140625 V -3.28125e-4 H 8.8170625 Z M 11.486008,-1.3245469 h 0.140625 c 0.06152,0.3222656 0.146484,0.5683594 0.257812,0.73828127 0.202149,0.31347657 0.492188,0.46875 0.867188,0.46875 0.210937,0 0.375,-0.0585938 0.492187,-0.17578125 0.123047,-0.1171875 0.1875,-0.26953125 0.1875,-0.45703125 0,-0.1171875 -0.03516,-0.22851562 -0.105468,-0.33984377 -0.07031,-0.1083984 -0.19336,-0.2138672 -0.363282,-0.3164062 l -0.480468,-0.2695313 c -0.345704,-0.1875 -0.597657,-0.375 -0.761719,-0.5625 -0.164063,-0.1875 -0.246094,-0.4101562 -0.246094,-0.6679687 0,-0.3105469 0.111328,-0.5683594 0.339844,-0.7734375 0.225586,-0.2021485 0.509765,-0.3046875 0.855469,-0.3046875 0.146484,0 0.307617,0.029297 0.480468,0.082031 0.178711,0.055664 0.28125,0.082031 0.304688,0.082031 0.05273,0 0.08789,-0.00293 0.105469,-0.011719 0.02344,-0.014648 0.04687,-0.038086 0.07031,-0.070312 h 0.09375 l 0.03516,1.171875 h -0.128906 c -0.06445,-0.2724609 -0.140625,-0.4833984 -0.234375,-0.6328125 -0.172851,-0.28125 -0.421875,-0.421875 -0.75,-0.421875 -0.196289,0 -0.351562,0.064453 -0.46875,0.1875 -0.111328,0.1171875 -0.164062,0.2578125 -0.164062,0.421875 0,0.2578125 0.190429,0.4892578 0.574218,0.6914063 l 0.5625,0.2929687 c 0.600586,0.328125 0.902344,0.7089844 0.902344,1.1367188 0,0.33691404 -0.125976,0.60937497 -0.375,0.82031247 -0.251953,0.2109375 -0.580078,0.31640625 -0.984375,0.31640625 -0.164062,0 -0.357422,-0.02929687 -0.574219,-0.082031245 -0.210937,-0.061523435 -0.336914,-0.093750005 -0.375,-0.093750005 -0.03223,0 -0.06445,0.01757813 -0.09375,0.046875 -0.02344,0.0234375 -0.04101,0.04980469 -0.04687,0.08203125 h -0.117187 z m 1.242187,-2.6601562 z m 3.65625,0.023437 c 0.398438,0 0.744141,0.140625 1.042969,0.421875 0.295899,0.2753906 0.445313,0.6621093 0.445313,1.1601562 h -2.683594 c 0.0293,0.65625 0.178711,1.1337891 0.445312,1.42968752 0.263672,0.29882813 0.580078,0.4453125 0.949219,0.4453125 0.295899,0 0.544922,-0.0761719 0.75,-0.234375 0.202149,-0.15527343 0.389649,-0.37500002 0.5625,-0.65625002 l 0.140625,0.046875 c -0.117187,0.36035159 -0.336914,0.69140627 -0.65625,0.99609377 -0.313476,0.3046875 -0.697266,0.45703125 -1.148437,0.45703125 -0.533204,0 -0.94336,-0.19921875 -1.230469,-0.59765625 -0.290039,-0.40429687 -0.433594,-0.86718747 -0.433594,-1.38281247 0,-0.5625 0.166992,-1.0488282 0.503906,-1.4648438 0.333985,-0.4130859 0.773438,-0.6210937 1.3125,-0.6210937 z m -0.246093,0.3164062 c -0.322266,0 -0.56836,0.140625 -0.738282,0.421875 -0.08789,0.1494141 -0.149414,0.3398438 -0.1875,0.5742188 h 1.78125 c -0.03223,-0.28125 -0.08789,-0.4921875 -0.164062,-0.6328125 -0.140625,-0.2402344 -0.37207,-0.3632813 -0.691406,-0.3632813 z m 0.1875,-0.3164062 z m 0,0"
         style="fill:#000000;fill-opacity:1;fill-rule:nonzero;stroke:none"
         aria-label="pulse"
         transform="matrix(1.3333333,0,0,1.3333333,626.46267,614.352)"
         clip-path="url(#clipPath310)" />
      <path
         id="path311"
         d="m 278.147,317.736 c 2.213,13.859 3.698,19.799 5.94,23.76 1.025,1.811 2.673,5.94 5.94,5.94 3.267,0 4.914,-4.129 5.94,-5.94 2.242,-3.961 3.727,-9.901 5.94,-23.76"
         style="fill:none;stroke:#000000;stroke-width:1.08;stroke-linecap:butt;stroke-linejoin:miter;stroke-miterlimit:10;stroke-dasharray:none;stroke-opacity:1"
         transform="matrix(1.3333333,0,0,-1.3333333,0,1056)"
         clip-path="url(#clipPath312)" />
      <path
         id="path313"
         d="m 110.747,317.736 h 54 m 102.6,0 h 54 m 91.8,0 h 54"
         style="fill:none;stroke:#000000;stroke-width:0.54;stroke-linecap:butt;stroke-linejoin:miter;stroke-miterlimit:10;stroke-dasharray:none;stroke-opacity:1"
         transform="matrix(1.3333333,0,0,-1.3333333,0,1056)"
         clip-path="url(#clipPath314)" />
      <path
         id="path315"
         d="m 125.867,311.256 -4.32,1.08 4.32,1.08"
         style="fill:none;stroke:#000000;stroke-width:0.54;stroke-linecap:butt;stroke-linejoin:bevel;stroke-miterlimit:10;stroke-dasharray:none;stroke-opacity:1"
         transform="matrix(1.3333333,0,0,-1.3333333,0,1056)"
         clip-path="url(#clipPath316)" />
      <path
         id="path317"
         d="m 121.547,312.336 h 8.1 m 8.1,0 h 8.1"
         style="fill:none;stroke:#000000;stroke-width:0.54;stroke-linecap:butt;stroke-linejoin:miter;stroke-miterlimit:10;stroke-dasharray:none;stroke-opacity:1"
         transform="matrix(1.3333333,0,0,-1.3333333,0,1056)"
         clip-path="url(#clipPath318)" />
      <path
         id="path319"
         d="m 141.527,313.416 4.32,-1.08 -4.32,-1.08 m -29.16,31.86 1.08,4.32 1.08,-4.32"
         style="fill:none;stroke:#000000;stroke-width:0.54;stroke-linecap:butt;stroke-linejoin:bevel;stroke-miterlimit:10;stroke-dasharray:none;stroke-opacity:1"
         transform="matrix(1.3333333,0,0,-1.3333333,0,1056)"
         clip-path="url(#clipPath320)" />
      <path
         id="path321"
         d="m 113.447,347.436 v -8.1 m 0,-10.8 v -10.8"
         style="fill:none;stroke:#000000;stroke-width:0.54;stroke-linecap:butt;stroke-linejoin:miter;stroke-miterlimit:10;stroke-dasharray:none;stroke-opacity:1"
         transform="matrix(1.3333333,0,0,-1.3333333,0,1056)"
         clip-path="url(#clipPath322)" />
      <path
         id="path323"
         d="m 114.527,322.056 -1.08,-4.32 -1.08,4.32"
         style="fill:none;stroke:#000000;stroke-width:0.54;stroke-linecap:butt;stroke-linejoin:bevel;stroke-miterlimit:10;stroke-dasharray:none;stroke-opacity:1"
         transform="matrix(1.3333333,0,0,-1.3333333,0,1056)"
         clip-path="url(#clipPath324)" />
      <path
         id="path325"
         d="m 270.047,328.536 v -10.8"
         style="fill:none;stroke:#000000;stroke-width:0.54;stroke-linecap:butt;stroke-linejoin:miter;stroke-miterlimit:10;stroke-dasharray:none;stroke-opacity:1"
         transform="matrix(1.3333333,0,0,-1.3333333,0,1056)"
         clip-path="url(#clipPath326)" />
      <path
         id="path327"
         d="m 271.127,322.056 -1.08,-4.32 -1.08,4.32 m 0,21.06 1.08,4.32 1.08,-4.32"
         style="fill:none;stroke:#000000;stroke-width:0.54;stroke-linecap:butt;stroke-linejoin:bevel;stroke-miterlimit:10;stroke-dasharray:none;stroke-opacity:1"
         transform="matrix(1.3333333,0,0,-1.3333333,0,1056)"
         clip-path="url(#clipPath328)" />
      <path
         id="path329"
         d="m 270.047,347.436 v -8.1"
         style="fill:none;stroke:#000000;stroke-width:0.54;stroke-linecap:butt;stroke-linejoin:miter;stroke-miterlimit:10;stroke-dasharray:none;stroke-opacity:1"
         transform="matrix(1.3333333,0,0,-1.3333333,0,1056)"
         clip-path="url(#clipPath330)" />
      <path
         id="path331"
         d="m 282.467,311.256 -4.32,1.08 4.32,1.08"
         style="fill:none;stroke:#000000;stroke-width:0.54;stroke-linecap:butt;stroke-linejoin:bevel;stroke-miterlimit:10;stroke-dasharray:none;stroke-opacity:1"
         transform="matrix(1.3333333,0,0,-1.3333333,0,1056)"
         clip-path="url(#clipPath332)" />
      <path
         id="path333"
         d="m 278.147,312.336 h 8.1 m 8.1,0 h 8.1"
         style="fill:none;stroke:#000000;stroke-width:0.54;stroke-linecap:butt;stroke-linejoin:miter;stroke-miterlimit:10;stroke-dasharray:none;stroke-opacity:1"
         transform="matrix(1.3333333,0,0,-1.3333333,0,1056)"
         clip-path="url(#clipPath334)" />
      <path
         id="path335"
         d="m 298.127,313.416 4.32,-1.08 -4.32,-1.08 m 130.14,0 -4.32,1.08 4.32,1.08"
         style="fill:none;stroke:#000000;stroke-width:0.54;stroke-linecap:butt;stroke-linejoin:bevel;stroke-miterlimit:10;stroke-dasharray:none;stroke-opacity:1"
         transform="matrix(1.3333333,0,0,-1.3333333,0,1056)"
         clip-path="url(#clipPath336)" />
      <path
         id="path337"
         d="m 423.947,312.336 h 8.1 m 8.1,0 h 8.1"
         style="fill:none;stroke:#000000;stroke-width:0.54;stroke-linecap:butt;stroke-linejoin:miter;stroke-miterlimit:10;stroke-dasharray:none;stroke-opacity:1"
         transform="matrix(1.3333333,0,0,-1.3333333,0,1056)"
         clip-path="url(#clipPath338)" />
      <path
         id="path339"
         d="m 443.927,313.416 4.32,-1.08 -4.32,-1.08 m -29.16,31.86 1.08,4.32 1.08,-4.32"
         style="fill:none;stroke:#000000;stroke-width:0.54;stroke-linecap:butt;stroke-linejoin:bevel;stroke-miterlimit:10;stroke-dasharray:none;stroke-opacity:1"
         transform="matrix(1.3333333,0,0,-1.3333333,0,1056)"
         clip-path="url(#clipPath340)" />
      <path
         id="path341"
         d="m 415.847,347.436 v -8.1 m 0,-10.8 v -10.8"
         style="fill:none;stroke:#000000;stroke-width:0.54;stroke-linecap:butt;stroke-linejoin:miter;stroke-miterlimit:10;stroke-dasharray:none;stroke-opacity:1"
         transform="matrix(1.3333333,0,0,-1.3333333,0,1056)"
         clip-path="url(#clipPath342)" />
      <path
         id="path343"
         d="m 416.927,322.056 -1.08,-4.32 -1.08,4.32"
         style="fill:none;stroke:#000000;stroke-width:0.54;stroke-linecap:butt;stroke-linejoin:bevel;stroke-miterlimit:10;stroke-dasharray:none;stroke-opacity:1"
         transform="matrix(1.3333333,0,0,-1.3333333,0,1056)"
         clip-path="url(#clipPath344)" />
      <path
         id="path345"
         d="m 121.547,317.736 v 29.7 h 24.3 v -29.7 m 278.1,0 5.4,29.7 18.9,-29.7"
         style="fill:none;stroke:#000000;stroke-width:1.08;stroke-linecap:butt;stroke-linejoin:miter;stroke-miterlimit:10;stroke-dasharray:none;stroke-opacity:1"
         transform="matrix(1.3333333,0,0,-1.3333333,0,1056)"
         clip-path="url(#clipPath346)" />
      <path
         id="path347"
         d="m 1.4635469,-5.0505234 c 0.014648,-0.061523 0.023437,-0.1171875 0.023437,-0.1640625 0.00586,-0.052734 0.011719,-0.09668 0.011719,-0.1289063 0,-0.038086 -0.00879,-0.073242 -0.023437,-0.1054687 -0.017578,-0.038086 -0.058594,-0.070312 -0.1289062,-0.09375 -0.017578,0 -0.046875,0 -0.09375,0 -0.046875,-0.00586 -0.1494141,-0.014648 -0.30468753,-0.023437 v -0.1523438 c 0.0849609,-0.00586 0.17871093,-0.014648 0.28125003,-0.023437 0.1083984,-0.014648 0.2578125,-0.038086 0.4453125,-0.070312 0.014648,0 0.09668,-0.014648 0.2460937,-0.046875 0.1552735,-0.038086 0.2636719,-0.058594 0.328125,-0.058594 0.014648,0 0.026367,0.00879 0.035156,0.023437 0.014648,0.00879 0.023437,0.023437 0.023437,0.046875 l -0.011719,0.058594 -0.8320312,3.1875 c 0.2490234,-0.3574219 0.4628906,-0.6210937 0.6445312,-0.7851562 0.3046875,-0.2871094 0.6210938,-0.4335938 0.9492188,-0.4335938 0.3105468,0 0.5625,0.1054688 0.75,0.3164063 0.1875,0.2050781 0.28125,0.4541015 0.28125,0.75 0,0.703125 -0.3046875,1.359375 -0.9140625,1.96874996 -0.5947266,0.59472656 -1.2128907,0.890625 -1.8515625,0.890625 -0.2900391,0 -0.55664065,-0.06738281 -0.79687503,-0.19921875 -0.24316406,-0.12304687 -0.3515625,-0.22558594 -0.328125,-0.3046875 z m -0.09375,4.95703121 c 0.4980468,0 0.9638672,-0.32226562 1.3945312,-0.97265621 0.3896485,-0.5859375 0.5859375,-1.116211 0.5859375,-1.59375 0,-0.225586 -0.058594,-0.4013672 -0.1757812,-0.5273438 -0.1113282,-0.1318359 -0.2548828,-0.1992187 -0.4335938,-0.1992187 -0.4453125,0 -0.8730469,0.3984375 -1.2773437,1.1953125 -0.3515625,0.6972656 -0.52734378,1.27441402 -0.52734378,1.73437496 0,0.11132813 0.0351563,0.19921875 0.10546878,0.26953125 0.070312,0.0644531 0.1787109,0.09375 0.328125,0.09375 z M 158.06413,-5.0505234 c 0.0146,-0.061523 0.0234,-0.1171875 0.0234,-0.1640625 0.006,-0.052734 0.0117,-0.09668 0.0117,-0.1289063 0,-0.038086 -0.009,-0.073242 -0.0234,-0.1054687 -0.0176,-0.038086 -0.0586,-0.070312 -0.1289,-0.09375 -0.0176,0 -0.0469,0 -0.0937,0 -0.0469,-0.00586 -0.14942,-0.014648 -0.30469,-0.023437 v -0.1523438 c 0.085,-0.00586 0.17871,-0.014648 0.28125,-0.023437 0.1084,-0.014648 0.25781,-0.038086 0.44531,-0.070312 0.0146,0 0.0967,-0.014648 0.24609,-0.046875 0.15528,-0.038086 0.26368,-0.058594 0.32813,-0.058594 0.0147,0 0.0264,0.00879 0.0352,0.023437 0.0146,0.00879 0.0234,0.023437 0.0234,0.046875 l -0.0117,0.058594 -0.83203,3.1875 c 0.24903,-0.3574219 0.46289,-0.6210937 0.64453,-0.7851562 0.30469,-0.2871094 0.6211,-0.4335938 0.94922,-0.4335938 0.31055,0 0.5625,0.1054688 0.75,0.3164063 0.1875,0.2050781 0.28125,0.4541015 0.28125,0.75 0,0.703125 -0.30468,1.359375 -0.91406,1.96874996 -0.59473,0.59472656 -1.21289,0.890625 -1.85156,0.890625 -0.29004,0 -0.55664,-0.06738281 -0.79688,-0.19921875 -0.24316,-0.12304687 -0.35156,-0.22558594 -0.32812,-0.3046875 z m -0.0937,4.95703121 c 0.49805,0 0.96387,-0.32226562 1.39453,-0.97265621 0.38965,-0.5859375 0.58594,-1.116211 0.58594,-1.59375 0,-0.225586 -0.0586,-0.4013672 -0.17578,-0.5273438 -0.11133,-0.1318359 -0.25488,-0.1992187 -0.43359,-0.1992187 -0.44532,0 -0.87305,0.3984375 -1.27735,1.1953125 -0.35156,0.6972656 -0.52734,1.27441402 -0.52734,1.73437496 0,0.11132813 0.0352,0.19921875 0.10547,0.26953125 0.0703,0.0644531 0.17871,0.09375 0.32812,0.09375 z M 303.86589,-5.0505234 c 0.0147,-0.061523 0.0234,-0.1171875 0.0234,-0.1640625 0.006,-0.052734 0.0117,-0.09668 0.0117,-0.1289063 0,-0.038086 -0.009,-0.073242 -0.0234,-0.1054687 -0.0176,-0.038086 -0.0586,-0.070312 -0.12891,-0.09375 -0.0176,0 -0.0469,0 -0.0937,0 -0.0469,-0.00586 -0.14941,-0.014648 -0.30468,-0.023437 v -0.1523438 c 0.085,-0.00586 0.17871,-0.014648 0.28125,-0.023437 0.10839,-0.014648 0.25781,-0.038086 0.44531,-0.070312 0.0147,0 0.0967,-0.014648 0.24609,-0.046875 0.15528,-0.038086 0.26367,-0.058594 0.32813,-0.058594 0.0147,0 0.0264,0.00879 0.0351,0.023437 0.0147,0.00879 0.0234,0.023437 0.0234,0.046875 l -0.0117,0.058594 -0.83203,3.1875 c 0.24902,-0.3574219 0.46289,-0.6210937 0.64453,-0.7851562 0.30469,-0.2871094 0.6211,-0.4335938 0.94922,-0.4335938 0.31055,0 0.5625,0.1054688 0.75,0.3164063 0.1875,0.2050781 0.28125,0.4541015 0.28125,0.75 0,0.703125 -0.30469,1.359375 -0.91406,1.96874996 -0.59473,0.59472656 -1.21289,0.890625 -1.85156,0.890625 -0.29004,0 -0.55664,-0.06738281 -0.79688,-0.19921875 -0.24316,-0.12304687 -0.35156,-0.22558594 -0.32812,-0.3046875 z m -0.0937,4.95703121 c 0.49805,0 0.96387,-0.32226562 1.39453,-0.97265621 0.38965,-0.5859375 0.58594,-1.116211 0.58594,-1.59375 0,-0.225586 -0.0586,-0.4013672 -0.17578,-0.5273438 -0.11133,-0.1318359 -0.25488,-0.1992187 -0.4336,-0.1992187 -0.44531,0 -0.87304,0.3984375 -1.27734,1.1953125 -0.35156,0.6972656 -0.52734,1.27441402 -0.52734,1.73437496 0,0.11132813 0.0351,0.19921875 0.10547,0.26953125 0.0703,0.0644531 0.17871,0.09375 0.32812,0.09375 z m 0,0"
         style="fill:#000000;fill-opacity:1;fill-rule:nonzero;stroke:none"
         aria-label="bbb"
         transform="matrix(1.3333333,0,0,1.3333333,176.46267,643.152)"
         clip-path="url(#clipPath348)" />
      <path
         id="path349"
         d="M 3.3988984,-2.2620469 3.0121797,-4.5003281 1.7348359,-2.2620469 Z m -3.63281246,2.12109377 c 0.19628906,-0.046875 0.34570312,-0.13183593 0.45703125,-0.2578125 0.10839844,-0.13183593 0.33105469,-0.48046875 0.66796875,-1.04296877 L 3.4106172,-5.7659531 h 0.1875 l 0.8320312,4.88671872 c 0.052734,0.31347657 0.1171875,0.50976563 0.1875,0.5859375 0.070312,0.0791016 0.225586,0.12890625 0.46875,0.15234375 V -3.28125e-4 H 2.9535859 V -0.14095313 c 0.2578125,-0.0234375 0.4248047,-0.0527344 0.5039063,-0.09375 0.1171875,-0.0527344 0.1757812,-0.1640625 0.1757812,-0.328125 0,-0.0380859 -0.00586,-0.0820313 -0.011719,-0.12890625 0,-0.046875 0,-0.0878906 0,-0.12890625 L 3.4457734,-1.9456406 H 1.5473359 l -0.5039062,0.97265622 c -0.032227,0.0644531 -0.0644531,0.12890625 -0.09375,0.19921875 -0.046875,0.13476563 -0.0703125,0.24316407 -0.0703125,0.328125 0,0.11132813 0.0351563,0.1875 0.10546875,0.234375 0.0761719,0.0410156 0.21093745,0.0644531 0.39843745,0.0703125 v 0.140625005 h -1.61718745 z m 0,0"
         style="fill:#000000;fill-opacity:1;fill-rule:nonzero;stroke:none"
         aria-label="A"
         transform="matrix(1.3333333,0,0,1.3333333,550.86267,614.352)"
         clip-path="url(#clipPath350)" />
      <path
         id="path351"
         d="M 3.3971406,-2.2620469 3.0104219,-4.5003281 1.7330781,-2.2620469 Z m -3.63281247,2.12109377 c 0.19628906,-0.046875 0.34570312,-0.13183593 0.45703125,-0.2578125 0.10839843,-0.13183593 0.33105468,-0.48046875 0.66796875,-1.04296877 L 3.4088594,-5.7659531 h 0.1875 l 0.8320312,4.88671872 c 0.052734,0.31347657 0.1171875,0.50976563 0.1875,0.5859375 0.070312,0.0791016 0.225586,0.12890625 0.46875,0.15234375 V -3.28125e-4 H 2.9518281 V -0.14095313 c 0.2578125,-0.0234375 0.4248047,-0.0527344 0.5039063,-0.09375 0.1171875,-0.0527344 0.1757812,-0.1640625 0.1757812,-0.328125 0,-0.0380859 -0.00586,-0.0820313 -0.011719,-0.12890625 0,-0.046875 0,-0.0878906 0,-0.12890625 L 3.4440156,-1.9456406 H 1.5455781 l -0.5039062,0.97265622 c -0.032227,0.0644531 -0.0644532,0.12890625 -0.09375,0.19921875 -0.046875,0.13476563 -0.0703125,0.24316407 -0.0703125,0.328125 0,0.11132813 0.0351563,0.1875 0.10546875,0.234375 0.0761719,0.0410156 0.21093745,0.0644531 0.39843745,0.0703125 v 0.140625005 h -1.61718745 z m 0,0"
         style="fill:#000000;fill-opacity:1;fill-rule:nonzero;stroke:none"
         aria-label="A"
         transform="matrix(1.3333333,0,0,1.3333333,356.46267,614.352)"
         clip-path="url(#clipPath352)" />
      <path
         id="path353"
         d="M 3.3994844,-2.2620469 3.0127656,-4.5003281 1.7354219,-2.2620469 Z m -3.63281252,2.12109377 c 0.19628906,-0.046875 0.34570312,-0.13183593 0.45703125,-0.2578125 0.10839843,-0.13183593 0.33105468,-0.48046875 0.66796875,-1.04296877 L 3.4112031,-5.7659531 h 0.1875 l 0.8320313,4.88671872 c 0.052734,0.31347657 0.1171875,0.50976563 0.1875,0.5859375 0.070312,0.0791016 0.2255859,0.12890625 0.46875,0.15234375 V -3.28125e-4 H 2.9541719 V -0.14095313 c 0.2578125,-0.0234375 0.4248047,-0.0527344 0.5039062,-0.09375 0.1171875,-0.0527344 0.1757813,-0.1640625 0.1757813,-0.328125 0,-0.0380859 -0.00586,-0.0820313 -0.011719,-0.12890625 0,-0.046875 0,-0.0878906 0,-0.12890625 L 3.4463594,-1.9456406 H 1.5479219 l -0.5039063,0.97265622 c -0.032226,0.0644531 -0.0644531,0.12890625 -0.09375,0.19921875 -0.046875,0.13476563 -0.0703125,0.24316407 -0.0703125,0.328125 0,0.11132813 0.0351563,0.1875 0.10546875,0.234375 0.0761717,0.0410156 0.21093755,0.0644531 0.39843755,0.0703125 v 0.140625005 h -1.61718755 z m 0,0"
         style="fill:#000000;fill-opacity:1;fill-rule:nonzero;stroke:none"
         aria-label="A"
         transform="matrix(1.3333333,0,0,1.3333333,147.66267,614.352)"
         clip-path="url(#clipPath354)" />
    </g>
  </g>
</svg>
