<?xml version="1.0" encoding="UTF-8" standalone="no"?>
<!-- Created with Inkscape (http://www.inkscape.org/) -->

<svg
   version="1.1"
   id="svg1"
   viewBox="0 0 217.74886 55.364719"
   xmlns="http://www.w3.org/2000/svg"
   xmlns:svg="http://www.w3.org/2000/svg">
  <defs
     id="defs1">
    <clipPath
       clipPathUnits="userSpaceOnUse"
       id="clipPath1">
      <path
         d="m 0.032,0.032 h 812 v 980 h -812 z"
         id="path1" />
    </clipPath>
    <clipPath
       clipPathUnits="userSpaceOnUse"
       id="clipPath16">
      <path
         d="m 190.5,624.125 h 134.091 v 24.75 H 190.5 Z"
         transform="translate(-276.27901,-624.50002)"
         id="path16" />
    </clipPath>
    <clipPath
       clipPathUnits="userSpaceOnUse"
       id="clipPath19">
      <path
         d="m 190.5,624.125 h 134.091 v 24.75 H 190.5 Z"
         transform="matrix(1,0,0,-1,-190.5,633.77902)"
         id="path19" />
    </clipPath>
  </defs>
  <g
     id="g1"
     clip-path="url(#clipPath1)"
     transform="translate(-181.51741,-51.837612)">
    <g
       id="g200">
      <rect
         style="fill:#ffffff;stroke-width:1.21987"
         id="rect198"
         width="217.74886"
         height="55.364723"
         x="181.51741"
         y="51.837612" />
      <g
         id="g196">
        <path
           id="path14"
           d="M 0,0 V -12 -23.999 H 42.25 V -12 0 Z"
           style="fill:#d7cfec;fill-opacity:1;fill-rule:nonzero;stroke:none"
           transform="matrix(1.3333333,0,0,-1.3333333,260.04,63.333333)" />
        <path
           id="path15"
           d="M 0,0 V 12 24 H -42.25 V 12 0 Z"
           style="fill:none;stroke:#231f20;stroke-width:0.75;stroke-linecap:butt;stroke-linejoin:miter;stroke-miterlimit:4;stroke-dasharray:none;stroke-opacity:1"
           transform="matrix(1.3333333,0,0,-1.3333333,316.372,95.333333)"
           clip-path="url(#clipPath16)" />
        <path
           id="path17"
           d="m 0.13003906,-5.2966094 v 0.1523438 l 0.0585938,0.011719 c 0.52734375,0.070312 0.609375,0.1523438 0.609375,0.703125 v 3.59765628 c 0,0.3046875 -0.0234375,0.43359375 -0.10546875,0.515625 -0.09375,0.09375 -0.22265625,0.12890625 -0.50390625,0.15234375 l -0.0585938,0.0117188 V 2.65625e-4 H 2.3683203 V -0.15207812 h -0.058594 c -0.5742188,0 -0.6914063,-0.15234375 -0.6914063,-0.71484375 V -2.3317656 h 0.035156 c 0.140625,0.023437 0.328125,0.023437 0.4804687,0.023437 0.8789063,0 1.3359375,-0.1289063 1.734375,-0.4804688 0.3164063,-0.28125 0.46875,-0.6445312 0.46875,-1.0664062 0,-0.890625 -0.7851562,-1.4414063 -2.0976562,-1.4414063 z m 1.48828124,2.6484375 v -2.0859375 c 0,-0.2226562 0.046875,-0.2695312 0.2929688,-0.2695312 1.0546875,0 1.5585937,0.3867187 1.5585937,1.1835937 0,0.796875 -0.46875,1.1953125 -1.40625,1.1953125 -0.1523437,0 -0.3046875,-0.011719 -0.4453125,-0.023437 z M 4.4835547,2.65625e-4 h 1.921875 V -0.11692187 h -0.046875 c -0.4921875,0 -0.6328125,-0.1640625 -0.6328125,-0.59765625 V -2.5192656 c 0,-0.140625 0.1171875,-0.3515625 0.28125,-0.515625 0.09375,-0.082031 0.1992187,-0.140625 0.2695312,-0.140625 0.058594,0 0.1054688,0.035156 0.1757813,0.082031 l 0.082031,0.070312 c 0.1054688,0.082031 0.1875,0.1289063 0.28125,0.1289063 0.1992188,0 0.3164063,-0.140625 0.3164063,-0.3632813 0,-0.2578125 -0.1757813,-0.421875 -0.4335938,-0.421875 -0.2226562,0 -0.4101562,0.082031 -0.5742187,0.2578125 -0.1289063,0.1289063 -0.1992188,0.1992188 -0.375,0.46875 h -0.023437 v -0.7148437 l -0.035156,-0.011719 -0.070312,0.035156 c -0.2460937,0.1054687 -0.421875,0.1640625 -0.6796875,0.2460937 -0.1289062,0.058594 -0.2578125,0.082031 -0.3632812,0.1289063 l -0.070312,0.023437 v 0.1289062 c 0.1054687,-0.023437 0.1757812,-0.035156 0.28125,-0.035156 0.1992187,0 0.2695312,0.1289062 0.2695312,0.4804687 v 2.00390628 c 0,0.38671875 -0.070312,0.46875 -0.515625,0.5390625 l -0.058594,0.0117188 z M 9.0802344,-3.6794219 c -1.0078125,0 -1.734375,0.7851563 -1.734375,1.8632813 0,1.10156248 0.7382812,1.89843748 1.7460937,1.89843748 1.0078129,0 1.7812499,-0.84375 1.7812499,-1.95703128 0,-1.0664062 -0.738281,-1.8046875 -1.7929686,-1.8046875 z m 0.140625,3.53906253 c -0.3398438,0 -0.6210938,-0.17578125 -0.8085938,-0.515625 C 8.1896094,-1.0661406 8.0607031,-1.6169219 8.0607031,-2.1677031 c 0,-0.796875 0.375,-1.2890625 0.9492188,-1.2890625 0.6679687,0 1.1484371,0.7734375 1.1484371,1.8515625 0,0.91406248 -0.3632809,1.46484373 -0.9374996,1.46484373 z M 14.300938,-1.2536406 c -0.210938,0.30468748 -0.246094,0.35156248 -0.421875,0.50390623 -0.175782,0.15234375 -0.445313,0.2578125 -0.703125,0.2578125 -0.738282,0 -1.242188,-0.64453123 -1.242188,-1.54687503 0,-0.84375 0.433594,-1.40625 1.078125,-1.40625 0.152344,0 0.292969,0.035156 0.363281,0.1054688 0.04687,0.058594 0.07031,0.1289062 0.128907,0.3398437 0.09375,0.3398438 0.210937,0.4804688 0.421875,0.4804688 0.199218,0 0.375,-0.1523438 0.375,-0.3515625 0,-0.4453125 -0.5625,-0.8085938 -1.230469,-0.8085938 -0.996094,0 -1.757813,0.8554688 -1.757813,1.9804688 0,1.03124998 0.632813,1.78124998 1.535157,1.78124998 0.445312,0 0.878906,-0.22265625 1.183593,-0.62109375 0.128907,-0.17578125 0.1875,-0.28125 0.375,-0.63281253 z m 3.632812,-0.058594 c -0.386719,0.60937503 -0.726562,0.84375003 -1.242187,0.84375003 -0.527344,0 -0.960938,-0.3515625 -1.136719,-0.93750003 -0.07031,-0.234375 -0.09375,-0.3632812 -0.140625,-0.8085937 h 2.496094 c -0.08203,-0.5390625 -0.152344,-0.7734375 -0.351563,-1.0078125 -0.246094,-0.3046875 -0.609375,-0.4570313 -1.03125,-0.4570313 -0.984375,0 -1.664062,0.796875 -1.664062,1.96875 0,1.10156253 0.574218,1.79296878 1.5,1.79296878 0.761718,0 1.359375,-0.46875 1.699218,-1.33593748 z M 17.09,-2.4723906 h -1.652344 c 0.07031,-0.3046875 0.09375,-0.3867188 0.1875,-0.5507813 0.140625,-0.2460937 0.375,-0.375 0.691407,-0.375 0.304687,0 0.527343,0.1289063 0.632812,0.375 0.07031,0.1640625 0.09375,0.2226563 0.140625,0.5507813 z m 3.644531,-0.035156 -0.03516,-1.1015625 h -0.08203 c -0.04687,0.058594 -0.09375,0.082031 -0.140625,0.082031 -0.03516,0 -0.08203,0 -0.164063,-0.035156 l -0.117187,-0.035156 c -0.164063,-0.058594 -0.316406,-0.082031 -0.46875,-0.082031 -0.644531,0 -1.101563,0.4101563 -1.101563,0.9960938 0,0.2460937 0.08203,0.46875 0.257813,0.65625 0.152344,0.1640625 0.328125,0.2929687 0.679687,0.4921875 l 0.457032,0.2578125 c 0.28125,0.1640625 0.421875,0.35156248 0.421875,0.60937498 0,0.3515625 -0.257813,0.57421875 -0.667969,0.57421875 -0.28125,0 -0.550781,-0.1171875 -0.691406,-0.328125 -0.175782,-0.2109375 -0.222657,-0.328125 -0.328125,-0.79687503 h -0.117188 v 1.25390628 h 0.09375 c 0.05859,-0.08203125 0.09375,-0.09375 0.1875,-0.09375 0.08203,0 0.164063,0.01171875 0.304688,0.046875 l 0.140625,0.0234375 c 0.175781,0.046875 0.351562,0.0703125 0.46875,0.0703125 0.667968,0 1.171875,-0.4453125 1.171875,-1.04296875 0,-0.38671873 -0.1875,-0.64453123 -0.679688,-0.93750003 l -0.855469,-0.515625 c -0.234375,-0.1289062 -0.351562,-0.328125 -0.351562,-0.5507812 0,-0.3046875 0.246094,-0.5273438 0.609375,-0.5273438 0.292969,0 0.515625,0.1171875 0.65625,0.3632813 0.105469,0.1640625 0.140625,0.2695312 0.234375,0.6210937 z m 3.114258,0 -0.03516,-1.1015625 h -0.08203 c -0.04687,0.058594 -0.09375,0.082031 -0.140625,0.082031 -0.03516,0 -0.08203,0 -0.164063,-0.035156 l -0.117187,-0.035156 c -0.164063,-0.058594 -0.316407,-0.082031 -0.46875,-0.082031 -0.644532,0 -1.101563,0.4101563 -1.101563,0.9960938 0,0.2460937 0.08203,0.46875 0.257813,0.65625 0.152343,0.1640625 0.328125,0.2929687 0.679687,0.4921875 l 0.457031,0.2578125 c 0.28125,0.1640625 0.421875,0.35156248 0.421875,0.60937498 0,0.3515625 -0.257812,0.57421875 -0.667968,0.57421875 -0.28125,0 -0.550782,-0.1171875 -0.691407,-0.328125 -0.175781,-0.2109375 -0.222656,-0.328125 -0.328125,-0.79687503 H 21.75113 v 1.25390628 h 0.09375 c 0.05859,-0.08203125 0.09375,-0.09375 0.1875,-0.09375 0.08203,0 0.164062,0.01171875 0.304687,0.046875 l 0.140625,0.0234375 c 0.175782,0.046875 0.351563,0.0703125 0.46875,0.0703125 0.667969,0 1.171875,-0.4453125 1.171875,-1.04296875 0,-0.38671873 -0.1875,-0.64453123 -0.679687,-0.93750003 l -0.855469,-0.515625 c -0.234375,-0.1289062 -0.351562,-0.328125 -0.351562,-0.5507812 0,-0.3046875 0.246093,-0.5273438 0.609375,-0.5273438 0.292968,0 0.515625,0.1171875 0.65625,0.3632813 0.105468,0.1640625 0.140625,0.2695312 0.234375,0.6210937 z m 0,0"
           style="fill:#231f20;fill-opacity:1;fill-rule:nonzero;stroke:none"
           aria-label="Process"
           transform="matrix(1.3333333,0,0,1.3333333,272.74533,82.961333)" />
        <path
           id="path18"
           d="M 0.1411875,2.65625e-4 H 2.5200938 V -0.15207812 H 2.4615 c -0.5976562,0 -0.7265625,-0.1640625 -0.7265625,-0.71484375 V -4.4294219 c 0,-0.5625 0.1289063,-0.7148437 0.7265625,-0.7148437 H 2.520094 V -5.2966094 H 0.1411875 v 0.1523438 H 0.2115 c 0.609375,0 0.71484375,0.140625 0.71484375,0.7148437 v 3.56250003 c 0,0.57421875 -0.1171875,0.71484375 -0.71484375,0.71484375 H 0.1411875 Z m 2.6630859,0 H 4.5034922 V -0.11692187 h -0.035156 c -0.375,0 -0.4921875,-0.140625 -0.4921875,-0.421875 V -2.7887969 c 0.3632813,-0.3398437 0.5742188,-0.4570312 0.8203125,-0.4570312 0.3984375,0 0.5859375,0.2578125 0.5859375,0.7851562 v 1.66406253 c 0,0.2578125 -0.035156,0.4453125 -0.1171875,0.5390625 -0.070312,0.09375 -0.1640625,0.1171875 -0.3867187,0.140625 V 2.65625e-4 H 6.5425547 V -0.11692187 C 6.1558359,-0.16379687 6.0620859,-0.26926562 6.0620859,-0.64426562 V -2.4841094 c 0,-0.75 -0.3515625,-1.1953125 -0.9492187,-1.1953125 -0.1875,0 -0.3984375,0.058594 -0.5625,0.1523438 -0.2109375,0.1289062 -0.2578125,0.1757812 -0.5976563,0.4921875 v -0.6328125 l -0.058594,-0.011719 -0.070312,0.023437 c -0.28125,0.09375 -0.6445313,0.2109375 -0.9609375,0.3164063 l -0.070312,0.023437 v 0.1289062 c 0.1054687,-0.023437 0.1640625,-0.035156 0.234375,-0.035156 0.1992187,0 0.28125,0.140625 0.28125,0.515625 v 1.99218748 c 0,0.43359375 -0.1054688,0.52734375 -0.4570313,0.5859375 l -0.046875,0.0117188 z M 6.6978281,1.7346406 h 1.9453125 v -0.140625 h -0.058594 c -0.5507813,0 -0.6445313,-0.1171875 -0.6445313,-0.59765622 v -1.265625 c 0.28125,0.269531245 0.4804688,0.3515625 0.8085938,0.3515625 0.9492187,0 1.6757819,-0.90234375 1.6757819,-2.06249998 0,-0.984375 -0.5625007,-1.6992188 -1.3359382,-1.6992188 -0.4453125,0 -0.8085937,0.1992188 -1.1367187,0.609375 l -0.011719,-0.011719 v -0.5859375 l -0.058594,-0.011719 -0.070312,0.023437 c -0.328125,0.1054688 -0.703125,0.2578125 -1.0078125,0.3632813 l -0.070312,0.023437 v 0.1289062 c 0.011719,0 0.023437,0 0.058594,-0.011719 h 0.140625 c 0.2695313,0 0.328125,0.082031 0.328125,0.4570312 v 3.7382813 c 0,0.4101562 -0.082031,0.4804687 -0.5039062,0.5507812 l -0.058594,0.011719 z M 7.9400156,-0.70285937 V -2.6716094 c 0,-0.1171875 0.140625,-0.2929687 0.328125,-0.3984375 0.1523438,-0.082031 0.328125,-0.1289062 0.4804688,-0.1289062 0.5976562,0 0.984375,0.609375 0.984375,1.5234375 0,0.90234373 -0.3867188,1.49999998 -0.984375,1.49999998 -0.234375,0 -0.4921875,-0.10546875 -0.65625,-0.26953125 -0.1054688,-0.09375 -0.1523438,-0.1875 -0.1523438,-0.2578125 z M 14.004469,-3.5973906 h -1.265625 v 0.1289062 h 0.04687 c 0.445312,0 0.539062,0.1289063 0.539062,0.5039063 v 1.8867187 c 0,0.25781253 -0.03516,0.33984378 -0.199218,0.46875003 -0.1875,0.140625 -0.421875,0.22265625 -0.621094,0.22265625 -0.339844,0 -0.597656,-0.2578125 -0.597656,-0.609375 V -3.5973906 h -1.171875 v 0.1054687 c 0.375,0.023437 0.492187,0.1523438 0.492187,0.515625 v 2.01562503 c 0,0.62109375 0.386719,1.04296875 0.960938,1.04296875 0.304687,0 0.621093,-0.12890625 0.832031,-0.3515625 l 0.351562,-0.33984375 v 0.66796875 l 0.01172,0.01171875 0.07031,-0.0234375 c 0.492187,-0.1640625 0.527343,-0.1875 0.714843,-0.24609375 0.08203,-0.0117188 0.164063,-0.0351563 0.246094,-0.0703125 l 0.08203,-0.0234375 V -0.39817187 H 14.4615 c -0.375,0 -0.457031,-0.09375 -0.457031,-0.45703125 z m 2.791992,2.97656248 c -0.175781,0.1875 -0.328125,0.28125 -0.480469,0.28125 -0.292969,0 -0.421875,-0.17578125 -0.421875,-0.5859375 V -3.3395781 h 0.796875 v -0.2578125 h -0.796875 v -1.03125 h -0.08203 c -0.210938,0.4335937 -0.550781,0.8203125 -1.042969,1.1835937 v 0.1054688 h 0.457031 v 2.296875 c 0,0.43359373 0,0.52734373 0.07031,0.70312498 0.04687,0.12890625 0.140625,0.234375 0.257812,0.3046875 0.128907,0.0703125 0.269532,0.1171875 0.421875,0.1171875 0.351563,0 0.667969,-0.2109375 0.925782,-0.62109375 z m 97.968749,0.73828125 c 1.51172,0 2.58984,-1.16015623 2.58984,-2.76562503 0,-1.6054687 -1.08984,-2.765625 -2.61328,-2.765625 -1.53515,0 -2.625,1.1484375 -2.625,2.765625 0,1.640625 1.07813,2.76562503 2.64844,2.76562503 z m -0.0234,-0.29296875 c -1.05468,0 -1.71093,-0.94921878 -1.71093,-2.43749998 0,-0.5976563 0.1289,-1.2304688 0.32812,-1.640625 0.0703,-0.140625 0.17578,-0.28125 0.31641,-0.421875 0.29297,-0.2929688 0.65625,-0.4453125 1.0664,-0.4453125 1.03125,0 1.69922,0.9609375 1.69922,2.4492187 0,1.546875 -0.64453,2.49609378 -1.69922,2.49609378 z m 6.22266,-3.42187498 h -1.26563 v 0.1289062 h 0.0469 c 0.44531,0 0.53906,0.1289063 0.53906,0.5039063 v 1.8867187 c 0,0.25781253 -0.0352,0.33984378 -0.19922,0.46875003 -0.1875,0.140625 -0.42187,0.22265625 -0.62109,0.22265625 -0.33984,0 -0.59766,-0.2578125 -0.59766,-0.609375 V -3.5973906 h -1.17187 v 0.1054687 c 0.375,0.023437 0.49219,0.1523438 0.49219,0.515625 v 2.01562503 c 0,0.62109375 0.38671,1.04296875 0.96093,1.04296875 0.30469,0 0.6211,-0.12890625 0.83203,-0.3515625 l 0.35157,-0.33984375 v 0.66796875 l 0.0117,0.01171875 0.0703,-0.0234375 c 0.49219,-0.1640625 0.52734,-0.1875 0.71484,-0.24609375 0.082,-0.0117188 0.16406,-0.0351563 0.2461,-0.0703125 l 0.082,-0.0234375 v -0.10546875 h -0.0352 c -0.375,0 -0.45703,-0.09375 -0.45703,-0.45703125 z m 2.79199,2.97656248 c -0.17578,0.1875 -0.32812,0.28125 -0.48047,0.28125 -0.29297,0 -0.42187,-0.17578125 -0.42187,-0.5859375 V -3.3395781 h 0.79687 v -0.2578125 h -0.79687 v -1.03125 h -0.082 c -0.21094,0.4335937 -0.55078,0.8203125 -1.04297,1.1835937 v 0.1054688 h 0.45703 v 2.296875 c 0,0.43359373 0,0.52734373 0.0703,0.70312498 0.0469,0.12890625 0.14063,0.234375 0.25781,0.3046875 0.12891,0.0703125 0.26954,0.1171875 0.42188,0.1171875 0.35156,0 0.66797,-0.2109375 0.92578,-0.62109375 z m 0.12598,2.35546872 h 1.94531 v -0.140625 h -0.0586 c -0.55078,0 -0.64453,-0.1171875 -0.64453,-0.59765622 v -1.265625 c 0.28125,0.269531245 0.48046,0.3515625 0.80859,0.3515625 0.94922,0 1.67578,-0.90234375 1.67578,-2.06249998 0,-0.984375 -0.5625,-1.6992188 -1.33594,-1.6992188 -0.44531,0 -0.80859,0.1992188 -1.13672,0.609375 l -0.0117,-0.011719 v -0.5859375 l -0.0586,-0.011719 -0.0703,0.023437 c -0.32813,0.1054688 -0.70313,0.2578125 -1.00781,0.3632813 l -0.0703,0.023437 v 0.1289062 c 0.0117,0 0.0234,0 0.0586,-0.011719 h 0.14062 c 0.26953,0 0.32813,0.082031 0.32813,0.4570312 v 3.7382813 c 0,0.4101562 -0.082,0.4804687 -0.50391,0.5507812 l -0.0586,0.011719 z m 1.24219,-2.43749997 V -2.6716094 c 0,-0.1171875 0.14062,-0.2929687 0.32812,-0.3984375 0.15234,-0.082031 0.32813,-0.1289062 0.48047,-0.1289062 0.59766,0 0.98437,0.609375 0.98437,1.5234375 0,0.90234373 -0.38671,1.49999998 -0.98437,1.49999998 -0.23438,0 -0.49219,-0.10546875 -0.65625,-0.26953125 -0.10547,-0.09375 -0.15234,-0.1875 -0.15234,-0.2578125 z m 6.06445,-2.89453123 h -1.26563 v 0.1289062 h 0.0469 c 0.44531,0 0.53906,0.1289063 0.53906,0.5039063 v 1.8867187 c 0,0.25781253 -0.0352,0.33984378 -0.19922,0.46875003 -0.1875,0.140625 -0.42187,0.22265625 -0.62109,0.22265625 -0.33984,0 -0.59766,-0.2578125 -0.59766,-0.609375 V -3.5973906 h -1.17187 v 0.1054687 c 0.375,0.023437 0.49219,0.1523438 0.49219,0.515625 v 2.01562503 c 0,0.62109375 0.38671,1.04296875 0.96093,1.04296875 0.30469,0 0.6211,-0.12890625 0.83203,-0.3515625 l 0.35157,-0.33984375 v 0.66796875 l 0.0117,0.01171875 0.0703,-0.0234375 c 0.49219,-0.1640625 0.52734,-0.1875 0.71484,-0.24609375 0.082,-0.0117188 0.16406,-0.0351563 0.2461,-0.0703125 l 0.082,-0.0234375 v -0.10546875 h -0.0352 c -0.375,0 -0.45703,-0.09375 -0.45703,-0.45703125 z m 2.79199,2.97656248 c -0.17578,0.1875 -0.32812,0.28125 -0.48047,0.28125 -0.29297,0 -0.42187,-0.17578125 -0.42187,-0.5859375 V -3.3395781 h 0.79687 v -0.2578125 h -0.79687 v -1.03125 h -0.082 c -0.21094,0.4335937 -0.55079,0.8203125 -1.04297,1.1835937 v 0.1054688 h 0.45703 v 2.296875 c 0,0.43359373 0,0.52734373 0.0703,0.70312498 0.0469,0.12890625 0.14063,0.234375 0.25781,0.3046875 0.12891,0.0703125 0.26953,0.1171875 0.42188,0.1171875 0.35156,0 0.66797,-0.2109375 0.92578,-0.62109375 z m 0,0"
           style="fill:#24518e;fill-opacity:1;fill-rule:nonzero;stroke:none"
           aria-label="InputOutput"
           transform="matrix(1.3333333,0,0,1.3333333,202,82.961333)"
           clip-path="url(#clipPath19)" />
        <path
           id="path20"
           d="M 0,0 V 2.451 5.019 L 5.017,2.504 Z"
           style="fill:#231f20;fill-opacity:1;fill-rule:nonzero;stroke:none"
           transform="matrix(1.3333333,0,0,-1.3333333,340.78933,82.68)" />
        <path
           id="path21"
           d="M 0,0 H -19.688"
           style="fill:none;stroke:#231f20;stroke-width:1.25;stroke-linecap:butt;stroke-linejoin:miter;stroke-miterlimit:4;stroke-dasharray:none;stroke-opacity:1"
           transform="matrix(1.3333333,0,0,-1.3333333,342.62267,79.333333)" />
        <path
           id="path22"
           d="M 0,0 V 2.451 5.019 L 5.018,2.504 Z"
           style="fill:#231f20;fill-opacity:1;fill-rule:nonzero;stroke:none"
           transform="matrix(1.3333333,0,0,-1.3333333,252.98133,82.68)" />
        <path
           id="path23"
           d="M 0,0 H -19.687"
           style="fill:none;stroke:#231f20;stroke-width:1.25;stroke-linecap:butt;stroke-linejoin:miter;stroke-miterlimit:4;stroke-dasharray:none;stroke-opacity:1"
           transform="matrix(1.3333333,0,0,-1.3333333,254.81467,79.333333)" />
      </g>
    </g>
  </g>
</svg>
