<?xml version="1.0" encoding="UTF-8" standalone="no"?>
<!-- Created with Inkscape (http://www.inkscape.org/) -->

<svg
   version="1.1"
   id="svg1"
   viewBox="0 0 303.36966 69.133148"
   sodipodi:docname="Analog and Digital Signal Processing (1E).pdf"
   xmlns:inkscape="http://www.inkscape.org/namespaces/inkscape"
   xmlns:sodipodi="http://sodipodi.sourceforge.net/DTD/sodipodi-0.dtd"
   xmlns="http://www.w3.org/2000/svg"
   xmlns:svg="http://www.w3.org/2000/svg">
  <defs
     id="defs1">
    <clipPath
       clipPathUnits="userSpaceOnUse"
       id="clipPath236">
      <path
         d="M 0,0 H 612 V 792 H 0 Z"
         id="path236" />
    </clipPath>
    <clipPath
       clipPathUnits="userSpaceOnUse"
       id="clipPath238">
      <path
         d="M 0,0 H 612 V 792 H 0 Z"
         id="path238" />
    </clipPath>
    <clipPath
       clipPathUnits="userSpaceOnUse"
       id="clipPath240">
      <path
         d="M 0,0 H 612 V 792 H 0 Z"
         transform="matrix(1,0,0,-1,-218.86,513.01601)"
         id="path240" />
    </clipPath>
    <clipPath
       clipPathUnits="userSpaceOnUse"
       id="clipPath242">
      <path
         d="M 0,0 H 612 V 792 H 0 Z"
         transform="matrix(1,0,0,-1,-221.56,513.01601)"
         id="path242" />
    </clipPath>
    <clipPath
       clipPathUnits="userSpaceOnUse"
       id="clipPath244">
      <path
         d="M 0,0 H 612 V 792 H 0 Z"
         transform="matrix(1,0,0,-1,-225.88,513.01601)"
         id="path244" />
    </clipPath>
    <clipPath
       clipPathUnits="userSpaceOnUse"
       id="clipPath246">
      <path
         d="M 0,0 H 612 V 792 H 0 Z"
         transform="matrix(1,0,0,-1,-213.46,513.01601)"
         id="path246" />
    </clipPath>
    <clipPath
       clipPathUnits="userSpaceOnUse"
       id="clipPath248">
      <path
         d="M 0,0 H 612 V 792 H 0 Z"
         transform="matrix(1,0,0,-1,-291.76431,513.01601)"
         id="path248" />
    </clipPath>
    <clipPath
       clipPathUnits="userSpaceOnUse"
       id="clipPath250">
      <path
         d="M 0,0 H 612 V 792 H 0 Z"
         transform="matrix(1,0,0,-1,-294.46,513.01601)"
         id="path250" />
    </clipPath>
    <clipPath
       clipPathUnits="userSpaceOnUse"
       id="clipPath252">
      <path
         d="M 0,0 H 612 V 792 H 0 Z"
         transform="matrix(1,0,0,-1,-298.78,513.01601)"
         id="path252" />
    </clipPath>
    <clipPath
       clipPathUnits="userSpaceOnUse"
       id="clipPath254">
      <path
         d="M 0,0 H 612 V 792 H 0 Z"
         transform="matrix(1,0,0,-1,-286.36,513.01601)"
         id="path254" />
    </clipPath>
    <clipPath
       clipPathUnits="userSpaceOnUse"
       id="clipPath256">
      <path
         d="M 0,0 H 612 V 792 H 0 Z"
         id="path256" />
    </clipPath>
    <clipPath
       clipPathUnits="userSpaceOnUse"
       id="clipPath258">
      <path
         d="M 0,0 H 612 V 792 H 0 Z"
         id="path258" />
    </clipPath>
    <clipPath
       clipPathUnits="userSpaceOnUse"
       id="clipPath260">
      <path
         d="M 0,0 H 612 V 792 H 0 Z"
         id="path260" />
    </clipPath>
    <clipPath
       clipPathUnits="userSpaceOnUse"
       id="clipPath262">
      <path
         d="M 0,0 H 612 V 792 H 0 Z"
         id="path262" />
    </clipPath>
    <clipPath
       clipPathUnits="userSpaceOnUse"
       id="clipPath264">
      <path
         d="M 0,0 H 612 V 792 H 0 Z"
         id="path264" />
    </clipPath>
    <clipPath
       clipPathUnits="userSpaceOnUse"
       id="clipPath266">
      <path
         d="M 0,0 H 612 V 792 H 0 Z"
         id="path266" />
    </clipPath>
    <clipPath
       clipPathUnits="userSpaceOnUse"
       id="clipPath268">
      <path
         d="M 0,0 H 612 V 792 H 0 Z"
         id="path268" />
    </clipPath>
    <clipPath
       clipPathUnits="userSpaceOnUse"
       id="clipPath270">
      <path
         d="M 0,0 H 612 V 792 H 0 Z"
         id="path270" />
    </clipPath>
    <clipPath
       clipPathUnits="userSpaceOnUse"
       id="clipPath272">
      <path
         d="M 0,0 H 612 V 792 H 0 Z"
         id="path272" />
    </clipPath>
    <clipPath
       clipPathUnits="userSpaceOnUse"
       id="clipPath274">
      <path
         d="M 0,0 H 612 V 792 H 0 Z"
         id="path274" />
    </clipPath>
    <clipPath
       clipPathUnits="userSpaceOnUse"
       id="clipPath276">
      <path
         d="M 0,0 H 612 V 792 H 0 Z"
         transform="matrix(1,0,0,-1,-378.16001,513.01601)"
         id="path276" />
    </clipPath>
    <clipPath
       clipPathUnits="userSpaceOnUse"
       id="clipPath278">
      <path
         d="M 0,0 H 612 V 792 H 0 Z"
         transform="matrix(1,0,0,-1,-380.86001,513.01601)"
         id="path278" />
    </clipPath>
    <clipPath
       clipPathUnits="userSpaceOnUse"
       id="clipPath280">
      <path
         d="M 0,0 H 612 V 792 H 0 Z"
         transform="matrix(1,0,0,-1,-385.18001,513.01601)"
         id="path280" />
    </clipPath>
    <clipPath
       clipPathUnits="userSpaceOnUse"
       id="clipPath282">
      <path
         d="M 0,0 H 612 V 792 H 0 Z"
         transform="matrix(1,0,0,-1,-372.76001,513.01601)"
         id="path282" />
    </clipPath>
    <clipPath
       clipPathUnits="userSpaceOnUse"
       id="clipPath284">
      <path
         d="M 0,0 H 612 V 792 H 0 Z"
         id="path284" />
    </clipPath>
    <clipPath
       clipPathUnits="userSpaceOnUse"
       id="clipPath286">
      <path
         d="M 0,0 H 612 V 792 H 0 Z"
         id="path286" />
    </clipPath>
    <clipPath
       clipPathUnits="userSpaceOnUse"
       id="clipPath288">
      <path
         d="M 0,0 H 612 V 792 H 0 Z"
         id="path288" />
    </clipPath>
    <clipPath
       clipPathUnits="userSpaceOnUse"
       id="clipPath290">
      <path
         d="M 0,0 H 612 V 792 H 0 Z"
         id="path290" />
    </clipPath>
    <clipPath
       clipPathUnits="userSpaceOnUse"
       id="clipPath292">
      <path
         d="M 0,0 H 612 V 792 H 0 Z"
         id="path292" />
    </clipPath>
    <clipPath
       clipPathUnits="userSpaceOnUse"
       id="clipPath294">
      <path
         d="M 0,0 H 612 V 792 H 0 Z"
         id="path294" />
    </clipPath>
    <clipPath
       clipPathUnits="userSpaceOnUse"
       id="clipPath296">
      <path
         d="M 0,0 H 612 V 792 H 0 Z"
         id="path296" />
    </clipPath>
    <clipPath
       clipPathUnits="userSpaceOnUse"
       id="clipPath298">
      <path
         d="M 0,0 H 612 V 792 H 0 Z"
         id="path298" />
    </clipPath>
    <clipPath
       clipPathUnits="userSpaceOnUse"
       id="clipPath300">
      <path
         d="M 0,0 H 612 V 792 H 0 Z"
         id="path300" />
    </clipPath>
    <clipPath
       clipPathUnits="userSpaceOnUse"
       id="clipPath302">
      <path
         d="M 0,0 H 612 V 792 H 0 Z"
         id="path302" />
    </clipPath>
    <clipPath
       clipPathUnits="userSpaceOnUse"
       id="clipPath304">
      <path
         d="M 0,0 H 612 V 792 H 0 Z"
         id="path304" />
    </clipPath>
    <clipPath
       clipPathUnits="userSpaceOnUse"
       id="clipPath306">
      <path
         d="M 0,0 H 612 V 792 H 0 Z"
         id="path306" />
    </clipPath>
    <clipPath
       clipPathUnits="userSpaceOnUse"
       id="clipPath308">
      <path
         d="M 0,0 H 612 V 792 H 0 Z"
         id="path308" />
    </clipPath>
    <clipPath
       clipPathUnits="userSpaceOnUse"
       id="clipPath310">
      <path
         d="M 0,0 H 612 V 792 H 0 Z"
         id="path310" />
    </clipPath>
    <clipPath
       clipPathUnits="userSpaceOnUse"
       id="clipPath312">
      <path
         d="M 0,0 H 612 V 792 H 0 Z"
         id="path312" />
    </clipPath>
    <clipPath
       clipPathUnits="userSpaceOnUse"
       id="clipPath314">
      <path
         d="M 0,0 H 612 V 792 H 0 Z"
         id="path314" />
    </clipPath>
    <clipPath
       clipPathUnits="userSpaceOnUse"
       id="clipPath316">
      <path
         d="M 0,0 H 612 V 792 H 0 Z"
         id="path316" />
    </clipPath>
    <clipPath
       clipPathUnits="userSpaceOnUse"
       id="clipPath318">
      <path
         d="M 0,0 H 612 V 792 H 0 Z"
         id="path318" />
    </clipPath>
    <clipPath
       clipPathUnits="userSpaceOnUse"
       id="clipPath320">
      <path
         d="M 0,0 H 612 V 792 H 0 Z"
         id="path320" />
    </clipPath>
    <clipPath
       clipPathUnits="userSpaceOnUse"
       id="clipPath322">
      <path
         d="M 0,0 H 612 V 792 H 0 Z"
         id="path322" />
    </clipPath>
    <clipPath
       clipPathUnits="userSpaceOnUse"
       id="clipPath324">
      <path
         d="M 0,0 H 612 V 792 H 0 Z"
         id="path324" />
    </clipPath>
    <clipPath
       clipPathUnits="userSpaceOnUse"
       id="clipPath326">
      <path
         d="M 0,0 H 612 V 792 H 0 Z"
         id="path326" />
    </clipPath>
    <clipPath
       clipPathUnits="userSpaceOnUse"
       id="clipPath328">
      <path
         d="M 0,0 H 612 V 792 H 0 Z"
         id="path328" />
    </clipPath>
    <clipPath
       clipPathUnits="userSpaceOnUse"
       id="clipPath330">
      <path
         d="M 0,0 H 612 V 792 H 0 Z"
         id="path330" />
    </clipPath>
    <clipPath
       clipPathUnits="userSpaceOnUse"
       id="clipPath332">
      <path
         d="M 0,0 H 612 V 792 H 0 Z"
         transform="matrix(1,0,0,-1,-213.46,498.43601)"
         id="path332" />
    </clipPath>
    <clipPath
       clipPathUnits="userSpaceOnUse"
       id="clipPath334">
      <path
         d="M 0,0 H 612 V 792 H 0 Z"
         transform="matrix(1,0,0,-1,-229.66,477.91601)"
         id="path334" />
    </clipPath>
    <clipPath
       clipPathUnits="userSpaceOnUse"
       id="clipPath336">
      <path
         d="M 0,0 H 612 V 792 H 0 Z"
         transform="matrix(1,0,0,-1,-278.26,499.51601)"
         id="path336" />
    </clipPath>
    <clipPath
       clipPathUnits="userSpaceOnUse"
       id="clipPath338">
      <path
         d="M 0,0 H 612 V 792 H 0 Z"
         transform="matrix(1,0,0,-1,-410.56001,477.91601)"
         id="path338" />
    </clipPath>
    <clipPath
       clipPathUnits="userSpaceOnUse"
       id="clipPath340">
      <path
         d="M 0,0 H 612 V 792 H 0 Z"
         transform="matrix(1,0,0,-1,-371.68001,482.77601)"
         id="path340" />
    </clipPath>
    <clipPath
       clipPathUnits="userSpaceOnUse"
       id="clipPath342">
      <path
         d="M 0,0 H 612 V 792 H 0 Z"
         transform="matrix(1,0,0,-1,-376.54001,487.09601)"
         id="path342" />
    </clipPath>
    <clipPath
       clipPathUnits="userSpaceOnUse"
       id="clipPath344">
      <path
         d="M 0,0 H 612 V 792 H 0 Z"
         transform="matrix(1,0,0,-1,-381.94001,493.03601)"
         id="path344" />
    </clipPath>
    <clipPath
       clipPathUnits="userSpaceOnUse"
       id="clipPath346">
      <path
         d="M 0,0 H 612 V 792 H 0 Z"
         transform="matrix(1,0,0,-1,-387.34001,498.43601)"
         id="path346" />
    </clipPath>
    <clipPath
       clipPathUnits="userSpaceOnUse"
       id="clipPath348">
      <path
         d="M 0,0 H 612 V 792 H 0 Z"
         transform="matrix(1,0,0,-1,-393.28001,503.29601)"
         id="path348" />
    </clipPath>
  </defs>
  <sodipodi:namedview
     id="namedview1"
     pagecolor="#ffffff"
     bordercolor="#000000"
     borderopacity="0.25"
     inkscape:showpageshadow="2"
     inkscape:pageopacity="0.0"
     inkscape:pagecheckerboard="0"
     inkscape:deskcolor="#d1d1d1" />
  <g
     id="g1"
     inkscape:groupmode="layer"
     inkscape:label="61"
     transform="translate(-255.43613,-358.918)">
    <g
       id="g736">
      <rect
         style="fill:#ffffff;stroke-width:1.01955"
         id="rect736"
         width="303.36963"
         height="69.133156"
         x="255.43613"
         y="358.918" />
      <path
         id="path235"
         d="m 222.58,475.25 c 0,-0.596 -0.484,-1.08 -1.08,-1.08 -0.596,0 -1.08,0.484 -1.08,1.08 0,0.596 0.484,1.08 1.08,1.08 0.596,0 1.08,-0.484 1.08,-1.08"
         style="fill:#000000;fill-opacity:1;fill-rule:nonzero;stroke:#000000;stroke-width:0.27;stroke-linecap:butt;stroke-linejoin:miter;stroke-miterlimit:10;stroke-dasharray:none;stroke-opacity:1"
         transform="matrix(1.3333333,0,0,-1.3333333,0,1056)"
         clip-path="url(#clipPath236)" />
      <path
         id="path237"
         d="m 201.08,475.25 c 0,-0.596 -0.484,-1.08 -1.08,-1.08 -0.596,0 -1.08,0.484 -1.08,1.08 0,0.596 0.484,1.08 1.08,1.08 0.596,0 1.08,-0.484 1.08,-1.08"
         style="fill:#000000;fill-opacity:1;fill-rule:nonzero;stroke:#000000;stroke-width:0.27;stroke-linecap:butt;stroke-linejoin:miter;stroke-miterlimit:10;stroke-dasharray:none;stroke-opacity:1"
         transform="matrix(1.3333333,0,0,-1.3333333,0,1056)"
         clip-path="url(#clipPath238)" />
      <path
         id="path239"
         d="m 2.5189062,-6.2916172 v 0.3867188 H 1.0071875 v 7.265625 h 1.5117187 v 0.375 H 0.3509375 v -8.0273438 z m 0,0"
         style="fill:#000000;fill-opacity:1;fill-rule:nonzero;stroke:none"
         aria-label="["
         transform="matrix(1.3333333,0,0,1.3333333,291.81333,371.97867)"
         clip-path="url(#clipPath240)" />
      <path
         id="path241"
         d="M 0.15289063,0.00135156 0.89117188,-2.6002109 c 0.0527344,-0.2167969 0.0849609,-0.3515625 0.09375,-0.3984375 0.0146484,-0.046875 0.0234375,-0.09668 0.0234375,-0.1523438 0,-0.084961 -0.0234375,-0.1464844 -0.0703125,-0.1875 -0.046875,-0.046875 -0.13769532,-0.070312 -0.26953125,-0.070312 -0.0322266,0 -0.0673828,0.00586 -0.10546875,0.011719 -0.0322266,0 -0.0673828,0 -0.10546875,0 v -0.140625 c 0.1875,-0.029297 0.31640625,-0.049805 0.38671875,-0.058594 0.0761719,-0.014648 0.16406252,-0.035156 0.25781252,-0.058594 l 0.75,-0.1640625 c 0.014648,0.017578 0.026367,0.032227 0.035156,0.046875 l -0.5625,1.8046875 c 0.3427735,-0.5214844 0.6328125,-0.9140625 0.8671875,-1.171875 0.4042969,-0.4511719 0.7675782,-0.6796875 1.0898438,-0.6796875 0.1171875,0 0.2226562,0.023437 0.3164062,0.070312 0.1699219,0.09375 0.2578125,0.2636718 0.2578125,0.5039062 0,0.070312 -0.00879,0.1464844 -0.023437,0.2226563 -0.017578,0.070312 -0.035156,0.1464843 -0.058594,0.2226562 l -0.5507813,2.02734376 c -0.00879,0.0410156 -0.020508,0.0908203 -0.035156,0.15234375 -0.017578,0.0644531 -0.023437,0.10546875 -0.023437,0.12890625 0,0.0410156 0.00586,0.0791016 0.023437,0.1171875 0.023437,0.0322266 0.058594,0.046875 0.1054687,0.046875 0.070312,0 0.1523438,-0.0410156 0.2460938,-0.12890625 0.099609,-0.0849609 0.2607422,-0.26953125 0.4804687,-0.55078121 l 0.1171875,0.10546871 c -0.2285156,0.31347656 -0.4101562,0.53320313 -0.5507812,0.65625 -0.2285156,0.22851563 -0.4453125,0.33984375 -0.65625,0.33984375 -0.09375,0 -0.1875,-0.03222656 -0.28125,-0.09375 -0.087891,-0.06152344 -0.1289063,-0.17871094 -0.1289063,-0.3515625 0,-0.046875 0.00293,-0.09375 0.011719,-0.140625 0.00586,-0.0527344 0.014648,-0.0996094 0.023437,-0.140625 L 3.0825781,-2.6822422 c 0.029297,-0.1171875 0.049805,-0.2109375 0.058594,-0.28125 0.014648,-0.070312 0.023437,-0.1201172 0.023437,-0.1523437 0,-0.070312 -0.020508,-0.1289063 -0.058594,-0.1757813 -0.032227,-0.046875 -0.087891,-0.070312 -0.1640625,-0.070312 -0.2109375,0 -0.477539,0.1933594 -0.796875,0.5742188 -0.1875,0.2285156 -0.3808593,0.4980468 -0.5742187,0.8085937 -0.1494141,0.2519531 -0.2666016,0.4921875 -0.3515625,0.7265625 -0.087891,0.2285156 -0.22265627,0.64453126 -0.41015627,1.25390626 z m 0,0"
         style="fill:#000000;fill-opacity:1;fill-rule:nonzero;stroke:none"
         aria-label="n"
         transform="matrix(1.3333333,0,0,1.3333333,295.41333,371.97867)"
         clip-path="url(#clipPath242)" />
      <path
         id="path243"
         d="M 0.35046875,1.3607266 H 1.8621875 v -7.265625 H 0.35046875 V -6.2916172 H 2.5184375 V 1.7357266 H 0.35046875 Z m 0,0"
         style="fill:#000000;fill-opacity:1;fill-rule:nonzero;stroke:none"
         aria-label="]"
         transform="matrix(1.3333333,0,0,1.3333333,301.17333,371.97867)"
         clip-path="url(#clipPath244)" />
      <path
         id="path245"
         d="m 3.1991797,-1.5689609 c 0,-0.5771485 -0.1054688,-1.0429688 -0.3164063,-1.3945313 -0.2109375,-0.3515625 -0.4892578,-0.5273437 -0.8320312,-0.5273437 -0.2988281,0 -0.5332031,0.1259765 -0.703125,0.375 -0.1640625,0.2519531 -0.2460938,0.6035156 -0.2460938,1.0546875 0,0.5566406 0.1054688,1.0078125 0.3164063,1.35937496 0.2109375,0.34570313 0.4804687,0.515625 0.8085937,0.515625 0.328125,0 0.5683594,-0.11132812 0.7265625,-0.33984375 C 3.1171484,-0.75157813 3.1991797,-1.1002109 3.1991797,-1.5689609 Z M 2.3202734,-3.7017734 2.2148047,-3.7603672 c -0.8847656,-0.5859375 -1.32421876,-1.078125 -1.32421876,-1.4765625 0,-0.2490234 0.0878906,-0.4511719 0.26953126,-0.609375 0.1787109,-0.1640625 0.4042969,-0.2460937 0.6796875,-0.2460937 0.3193359,0 0.609375,0.1054687 0.8671875,0.3164062 0.2578125,0.2050781 0.4160156,0.4541016 0.4804687,0.75 h -0.234375 c -0.102539,-0.2490234 -0.2548828,-0.4482422 -0.4570312,-0.5976562 -0.2050781,-0.1464844 -0.421875,-0.2226563 -0.65625,-0.2226563 -0.1494141,0 -0.2666016,0.035156 -0.3515625,0.1054688 -0.079102,0.064453 -0.1171875,0.1523437 -0.1171875,0.2695312 0,0.234375 0.234375,0.5009766 0.703125,0.796875 0.1552734,0.1025391 0.28125,0.1845703 0.375,0.2460938 0.5214844,0.3603515 0.9082031,0.75 1.1601562,1.171875 0.2490235,0.4160156 0.375,0.8671875 0.375,1.359375 0,0.6035156 -0.1728515,1.08691402 -0.515625,1.45312496 -0.336914,0.36035156 -0.7939453,0.5390625 -1.3710937,0.5390625 -0.5244141,0 -0.9550781,-0.17578125 -1.28906251,-0.52734375 -0.33691407,-0.3515625 -0.50390625,-0.79980471 -0.50390625,-1.34765621 0,-0.5771485 0.1640625,-1.0458985 0.4921875,-1.40625 0.33398436,-0.3574219 0.76464846,-0.5390625 1.28906246,-0.5390625 0.046875,0 0.084961,0.00586 0.1171875,0.011719 0.038086,0 0.076172,0.00586 0.1171875,0.011719 z m 0,0"
         style="fill:#000000;fill-opacity:1;fill-rule:nonzero;stroke:none"
         aria-label="δ"
         transform="matrix(1.3333333,0,0,1.3333333,284.61333,371.97867)"
         clip-path="url(#clipPath246)" />
      <path
         id="path247"
         d="m 2.5198797,-6.2916172 v 0.3867188 H 1.0081609 v 7.265625 h 1.5117188 v 0.375 H 0.35191094 v -8.0273438 z m 0,0"
         style="fill:#000000;fill-opacity:1;fill-rule:nonzero;stroke:none"
         aria-label="["
         transform="matrix(1.3333333,0,0,1.3333333,389.01907,371.97867)"
         clip-path="url(#clipPath248)" />
      <path
         id="path249"
         d="M 0.15230469,0.00135156 0.89058594,-2.6002109 c 0.0527344,-0.2167969 0.0849609,-0.3515625 0.09375,-0.3984375 0.0146484,-0.046875 0.0234375,-0.09668 0.0234375,-0.1523438 0,-0.084961 -0.0234375,-0.1464844 -0.0703125,-0.1875 -0.046875,-0.046875 -0.13769531,-0.070312 -0.26953125,-0.070312 -0.0322266,0 -0.0673828,0.00586 -0.10546875,0.011719 -0.0322266,0 -0.0673828,0 -0.10546875,0 v -0.140625 c 0.1875,-0.029297 0.31640625,-0.049805 0.38671875,-0.058594 0.0761719,-0.014648 0.16406246,-0.035156 0.25781246,-0.058594 l 0.75,-0.1640625 c 0.014649,0.017578 0.026367,0.032227 0.035156,0.046875 l -0.5625,1.8046875 c 0.3427734,-0.5214844 0.6328125,-0.9140625 0.8671875,-1.171875 0.4042969,-0.4511719 0.7675781,-0.6796875 1.0898437,-0.6796875 0.1171875,0 0.2226563,0.023437 0.3164063,0.070312 0.1699219,0.09375 0.2578125,0.2636718 0.2578125,0.5039062 0,0.070312 -0.00879,0.1464844 -0.023437,0.2226563 -0.017578,0.070312 -0.035156,0.1464843 -0.058594,0.2226562 l -0.5507812,2.02734376 c -0.00879,0.0410156 -0.020508,0.0908203 -0.035156,0.15234375 -0.017578,0.0644531 -0.023437,0.10546875 -0.023437,0.12890625 0,0.0410156 0.00586,0.0791016 0.023437,0.1171875 0.023437,0.0322266 0.058594,0.046875 0.1054688,0.046875 0.070312,0 0.1523437,-0.0410156 0.2460937,-0.12890625 0.099609,-0.0849609 0.2607422,-0.26953125 0.4804688,-0.55078121 L 4.13668,-0.90099249 c -0.2285156,0.31347656 -0.4101563,0.53320313 -0.5507813,0.65625 -0.2285156,0.22851563 -0.4453125,0.33984375 -0.65625,0.33984375 -0.09375,0 -0.1875,-0.03222656 -0.28125,-0.09375 -0.087891,-0.06152344 -0.1289062,-0.17871094 -0.1289062,-0.3515625 0,-0.046875 0.00293,-0.09375 0.011719,-0.140625 0.00586,-0.0527344 0.014648,-0.0996094 0.023437,-0.140625 L 3.0819922,-2.6822422 c 0.029297,-0.1171875 0.049805,-0.2109375 0.058594,-0.28125 0.014648,-0.070312 0.023437,-0.1201172 0.023437,-0.1523437 0,-0.070312 -0.020508,-0.1289063 -0.058594,-0.1757813 -0.032227,-0.046875 -0.087891,-0.070312 -0.1640625,-0.070312 -0.2109375,0 -0.4775391,0.1933594 -0.796875,0.5742188 -0.1875,0.2285156 -0.3808594,0.4980468 -0.5742188,0.8085937 -0.149414,0.2519531 -0.2666015,0.4921875 -0.3515625,0.7265625 -0.087891,0.2285156 -0.22265621,0.64453126 -0.41015621,1.25390626 z m 0,0"
         style="fill:#000000;fill-opacity:1;fill-rule:nonzero;stroke:none"
         aria-label="n"
         transform="matrix(1.3333333,0,0,1.3333333,392.61333,371.97867)"
         clip-path="url(#clipPath250)" />
      <path
         id="path251"
         d="m 0.3528125,1.3607266 h 1.5117188 v -7.265625 H 0.3528125 V -6.2916172 H 2.5207813 V 1.7357266 H 0.3528125 Z m 0,0"
         style="fill:#000000;fill-opacity:1;fill-rule:nonzero;stroke:none"
         aria-label="]"
         transform="matrix(1.3333333,0,0,1.3333333,398.37333,371.97867)"
         clip-path="url(#clipPath252)" />
      <path
         id="path253"
         d="m 0.98375,-3.0455234 c 0.005859,-0.023437 0.0117188,-0.046875 0.0117188,-0.070312 0.005859,-0.029297 0.0117187,-0.058594 0.0117187,-0.082031 0,-0.1171875 -0.0351562,-0.1875 -0.10546875,-0.2109375 -0.0703125,-0.029297 -0.20800781,-0.046875 -0.41015625,-0.046875 v -0.1171875 l 0.6210937,-0.1289062 0.6796875,-0.1171875 c 0.00586,-0.00586 0.014649,-0.00293 0.023437,0.011719 0.014649,0.017578 0.023437,0.032227 0.023437,0.046875 l -0.011719,0.058594 -0.75,2.85937496 c -0.017578,0.0703125 -0.032227,0.12597656 -0.046875,0.1640625 -0.00879,0.0410156 -0.011719,0.0703125 -0.011719,0.09375 0,0.0644531 0.017578,0.11425781 0.058594,0.15234375 0.038086,0.0322266 0.084961,0.046875 0.140625,0.046875 0.1699219,0 0.3779297,-0.14355469 0.6210937,-0.43359375 0.2490235,-0.29589846 0.4716797,-0.60351566 0.6679688,-0.92578126 0.1699219,-0.28125 0.3310547,-0.5976562 0.4804687,-0.9492187 0.09375,-0.2167969 0.2226563,-0.5625 0.3867188,-1.03125 h 0.6445312 l -0.796875,2.98828121 c -0.017578,0.0556641 -0.032227,0.10546875 -0.046875,0.15234375 -0.00879,0.046875 -0.011719,0.0878906 -0.011719,0.1171875 0,0.0410156 0.00586,0.0761719 0.023437,0.10546875 0.014648,0.0234375 0.046875,0.0351563 0.09375,0.0351563 0.038086,0 0.082031,-0.0146484 0.1289062,-0.046875 0.046875,-0.0292969 0.099609,-0.0820313 0.1640625,-0.15234375 0.029297,-0.0292969 0.087891,-0.0966797 0.1757813,-0.19921875 0.046875,-0.0615234 0.1201172,-0.15527344 0.2226562,-0.28125001 l 0.1171875,0.0820312 c -0.1259765,0.2109375 -0.2578125,0.39550781 -0.3984375,0.55078125 -0.28125,0.31347656 -0.5390625,0.46875 -0.7734375,0.46875 -0.1259765,0 -0.2285156,-0.03222656 -0.3046875,-0.09375 -0.079102,-0.0703125 -0.1171875,-0.17871094 -0.1171875,-0.328125 0,-0.0703125 0.00293,-0.14648437 0.011719,-0.234375 0.014648,-0.0849609 0.038086,-0.18164062 0.070312,-0.29296875 0.052734,-0.2021485 0.1201172,-0.4482423 0.1992187,-0.7382813 l 0.09375,-0.3632813 h -0.035156 c -0.3837891,0.6416016 -0.6884766,1.09863291 -0.9140625,1.37109385 -0.3837891,0.45410156 -0.7470703,0.6796875 -1.08984375,0.6796875 -0.09375,0 -0.18164063,-0.02050781 -0.2578125,-0.05859375 -0.140625,-0.07617187 -0.2109375,-0.21679687 -0.2109375,-0.421875 0,-0.0527344 0,-0.0996094 0,-0.140625 0.005859,-0.0380859 0.0175781,-0.0878906 0.0351563,-0.15234375 z m 0,0"
         style="fill:#000000;fill-opacity:1;fill-rule:nonzero;stroke:none"
         aria-label="u"
         transform="matrix(1.3333333,0,0,1.3333333,381.81333,371.97867)"
         clip-path="url(#clipPath254)" />
      <path
         id="path255"
         d="m 279.33,475.25 c 0,-0.596 -0.484,-1.08 -1.08,-1.08 -0.596,0 -1.08,0.484 -1.08,1.08 0,0.596 0.484,1.08 1.08,1.08 0.596,0 1.08,-0.484 1.08,-1.08"
         style="fill:#000000;fill-opacity:1;fill-rule:nonzero;stroke:#000000;stroke-width:0.27;stroke-linecap:butt;stroke-linejoin:miter;stroke-miterlimit:10;stroke-dasharray:none;stroke-opacity:1"
         transform="matrix(1.3333333,0,0,-1.3333333,0,1056)"
         clip-path="url(#clipPath256)" />
      <path
         id="path257"
         d="m 273.83,475.25 c 0,-0.596 -0.484,-1.08 -1.08,-1.08 -0.596,0 -1.08,0.484 -1.08,1.08 0,0.596 0.484,1.08 1.08,1.08 0.596,0 1.08,-0.484 1.08,-1.08"
         style="fill:#000000;fill-opacity:1;fill-rule:nonzero;stroke:#000000;stroke-width:0.27;stroke-linecap:butt;stroke-linejoin:miter;stroke-miterlimit:10;stroke-dasharray:none;stroke-opacity:1"
         transform="matrix(1.3333333,0,0,-1.3333333,0,1056)"
         clip-path="url(#clipPath258)" />
      <path
         id="path259"
         d="m 315.54,487 c 0,-0.298 -0.242,-0.54 -0.54,-0.54 -0.298,0 -0.54,0.242 -0.54,0.54 0,0.298 0.242,0.54 0.54,0.54 0.298,0 0.54,-0.242 0.54,-0.54"
         style="fill:#000000;fill-opacity:1;fill-rule:nonzero;stroke:#000000;stroke-width:0.27;stroke-linecap:butt;stroke-linejoin:miter;stroke-miterlimit:10;stroke-dasharray:none;stroke-opacity:1"
         transform="matrix(1.3333333,0,0,-1.3333333,0,1056)"
         clip-path="url(#clipPath260)" />
      <path
         id="path261"
         d="m 312.79,487 c 0,-0.298 -0.242,-0.54 -0.54,-0.54 -0.298,0 -0.54,0.242 -0.54,0.54 0,0.298 0.242,0.54 0.54,0.54 0.298,0 0.54,-0.242 0.54,-0.54"
         style="fill:#000000;fill-opacity:1;fill-rule:nonzero;stroke:#000000;stroke-width:0.27;stroke-linecap:butt;stroke-linejoin:miter;stroke-miterlimit:10;stroke-dasharray:none;stroke-opacity:1"
         transform="matrix(1.3333333,0,0,-1.3333333,0,1056)"
         clip-path="url(#clipPath262)" />
      <path
         id="path263"
         d="m 310.29,487 c 0,-0.298 -0.242,-0.54 -0.54,-0.54 -0.298,0 -0.54,0.242 -0.54,0.54 0,0.298 0.242,0.54 0.54,0.54 0.298,0 0.54,-0.242 0.54,-0.54"
         style="fill:#000000;fill-opacity:1;fill-rule:nonzero;stroke:#000000;stroke-width:0.27;stroke-linecap:butt;stroke-linejoin:miter;stroke-miterlimit:10;stroke-dasharray:none;stroke-opacity:1"
         transform="matrix(1.3333333,0,0,-1.3333333,0,1056)"
         clip-path="url(#clipPath264)" />
      <path
         id="path265"
         d="m 306.33,502.25 c 0,-0.596 -0.484,-1.08 -1.08,-1.08 -0.596,0 -1.08,0.484 -1.08,1.08 0,0.596 0.484,1.08 1.08,1.08 0.596,0 1.08,-0.484 1.08,-1.08"
         style="fill:#000000;fill-opacity:1;fill-rule:nonzero;stroke:#000000;stroke-width:0.27;stroke-linecap:butt;stroke-linejoin:miter;stroke-miterlimit:10;stroke-dasharray:none;stroke-opacity:1"
         transform="matrix(1.3333333,0,0,-1.3333333,0,1056)"
         clip-path="url(#clipPath266)" />
      <path
         id="path267"
         d="m 300.83,502.25 c 0,-0.596 -0.484,-1.08 -1.08,-1.08 -0.596,0 -1.08,0.484 -1.08,1.08 0,0.596 0.484,1.08 1.08,1.08 0.596,0 1.08,-0.484 1.08,-1.08"
         style="fill:#000000;fill-opacity:1;fill-rule:nonzero;stroke:#000000;stroke-width:0.27;stroke-linecap:butt;stroke-linejoin:miter;stroke-miterlimit:10;stroke-dasharray:none;stroke-opacity:1"
         transform="matrix(1.3333333,0,0,-1.3333333,0,1056)"
         clip-path="url(#clipPath268)" />
      <path
         id="path269"
         d="m 295.58,502.25 c 0,-0.596 -0.484,-1.08 -1.08,-1.08 -0.596,0 -1.08,0.484 -1.08,1.08 0,0.596 0.484,1.08 1.08,1.08 0.596,0 1.08,-0.484 1.08,-1.08"
         style="fill:#000000;fill-opacity:1;fill-rule:nonzero;stroke:#000000;stroke-width:0.27;stroke-linecap:butt;stroke-linejoin:miter;stroke-miterlimit:10;stroke-dasharray:none;stroke-opacity:1"
         transform="matrix(1.3333333,0,0,-1.3333333,0,1056)"
         clip-path="url(#clipPath270)" />
      <path
         id="path271"
         d="m 290.08,502.25 c 0,-0.596 -0.484,-1.08 -1.08,-1.08 -0.596,0 -1.08,0.484 -1.08,1.08 0,0.596 0.484,1.08 1.08,1.08 0.596,0 1.08,-0.484 1.08,-1.08"
         style="fill:#000000;fill-opacity:1;fill-rule:nonzero;stroke:#000000;stroke-width:0.27;stroke-linecap:butt;stroke-linejoin:miter;stroke-miterlimit:10;stroke-dasharray:none;stroke-opacity:1"
         transform="matrix(1.3333333,0,0,-1.3333333,0,1056)"
         clip-path="url(#clipPath272)" />
      <path
         id="path273"
         d="m 284.83,502.25 c 0,-0.596 -0.484,-1.08 -1.08,-1.08 -0.596,0 -1.08,0.484 -1.08,1.08 0,0.596 0.484,1.08 1.08,1.08 0.596,0 1.08,-0.484 1.08,-1.08"
         style="fill:#000000;fill-opacity:1;fill-rule:nonzero;stroke:#000000;stroke-width:0.27;stroke-linecap:butt;stroke-linejoin:miter;stroke-miterlimit:10;stroke-dasharray:none;stroke-opacity:1"
         transform="matrix(1.3333333,0,0,-1.3333333,0,1056)"
         clip-path="url(#clipPath274)" />
      <path
         id="path275"
         d="m 2.5206641,-6.2916172 v 0.3867188 H 1.0089453 v 7.265625 h 1.5117188 v 0.375 H 0.35269531 v -8.0273438 z m 0,0"
         style="fill:#000000;fill-opacity:1;fill-rule:nonzero;stroke:none"
         aria-label="["
         transform="matrix(1.3333333,0,0,1.3333333,504.21333,371.97867)"
         clip-path="url(#clipPath276)" />
      <path
         id="path277"
         d="M 0.15171875,0.00135156 0.89,-2.6002109 c 0.0527344,-0.2167969 0.0849609,-0.3515625 0.09375,-0.3984375 0.0146484,-0.046875 0.0234375,-0.09668 0.0234375,-0.1523438 0,-0.084961 -0.0234375,-0.1464844 -0.0703125,-0.1875 -0.046875,-0.046875 -0.13769531,-0.070312 -0.26953125,-0.070312 -0.0322266,0 -0.0673828,0.00586 -0.10546875,0.011719 -0.0322266,0 -0.0673828,0 -0.10546875,0 v -0.140625 c 0.1875,-0.029297 0.31640625,-0.049805 0.38671875,-0.058594 0.0761719,-0.014648 0.1640625,-0.035156 0.2578125,-0.058594 l 0.75,-0.1640625 c 0.014648,0.017578 0.026367,0.032227 0.035156,0.046875 l -0.5625,1.8046875 c 0.3427735,-0.5214844 0.6328125,-0.9140625 0.8671875,-1.171875 0.4042969,-0.4511719 0.7675782,-0.6796875 1.0898438,-0.6796875 0.1171875,0 0.2226562,0.023437 0.3164062,0.070312 0.1699219,0.09375 0.2578125,0.2636718 0.2578125,0.5039062 0,0.070312 -0.00879,0.1464844 -0.023437,0.2226563 -0.017578,0.070312 -0.035156,0.1464843 -0.058594,0.2226562 l -0.5507813,2.02734376 c -0.00879,0.0410156 -0.020508,0.0908203 -0.035156,0.15234375 -0.017578,0.0644531 -0.023437,0.10546875 -0.023437,0.12890625 0,0.0410156 0.00586,0.0791016 0.023437,0.1171875 0.023437,0.0322266 0.058594,0.046875 0.1054687,0.046875 0.070312,0 0.1523438,-0.0410156 0.2460938,-0.12890625 0.099609,-0.0849609 0.2607422,-0.26953125 0.4804687,-0.55078121 l 0.1171875,0.10546871 c -0.2285156,0.31347656 -0.4101562,0.53320313 -0.5507812,0.65625 C 3.3567969,-0.01622656 3.14,0.09510156 2.9290625,0.09510156 c -0.09375,0 -0.1875,-0.03222656 -0.28125,-0.09375 -0.087891,-0.06152344 -0.1289063,-0.17871094 -0.1289063,-0.3515625 0,-0.046875 0.00293,-0.09375 0.011719,-0.140625 0.00586,-0.0527344 0.014648,-0.0996094 0.023437,-0.140625 l 0.527344,-2.05078126 c 0.029297,-0.1171875 0.049805,-0.2109375 0.058594,-0.28125 0.014648,-0.070312 0.023437,-0.1201172 0.023437,-0.1523437 0,-0.070312 -0.020508,-0.1289063 -0.058594,-0.1757813 -0.032227,-0.046875 -0.087891,-0.070312 -0.1640625,-0.070312 -0.2109375,0 -0.477539,0.1933594 -0.796875,0.5742188 -0.1875,0.2285156 -0.3808593,0.4980468 -0.5742187,0.8085937 -0.1494141,0.2519531 -0.2666016,0.4921875 -0.3515625,0.7265625 -0.087891,0.2285156 -0.22265625,0.64453126 -0.41015625,1.25390626 z m 0,0"
         style="fill:#000000;fill-opacity:1;fill-rule:nonzero;stroke:none"
         aria-label="n"
         transform="matrix(1.3333333,0,0,1.3333333,507.81333,371.97867)"
         clip-path="url(#clipPath278)" />
      <path
         id="path279"
         d="M 0.35222656,1.3607266 H 1.8639453 v -7.265625 H 0.35222656 V -6.2916172 H 2.5201953 V 1.7357266 H 0.35222656 Z m 0,0"
         style="fill:#000000;fill-opacity:1;fill-rule:nonzero;stroke:none"
         aria-label="]"
         transform="matrix(1.3333333,0,0,1.3333333,513.57333,371.97867)"
         clip-path="url(#clipPath280)" />
      <path
         id="path281"
         d="m 1.7566016,-3.8306797 c 0.023437,0 0.038086,0.00879 0.046875,0.023437 0.014648,0.00879 0.023437,0.023437 0.023437,0.046875 -0.00879,0.032227 -0.011719,0.052734 -0.011719,0.058594 l -0.421875,1.640625 0.09375,-0.1875 c 0.2021485,-0.3984375 0.4365235,-0.7558594 0.703125,-1.078125 0.272461,-0.328125 0.5332031,-0.4921875 0.7851563,-0.4921875 0.1318359,0 0.234375,0.043945 0.3046875,0.1289062 0.070312,0.087891 0.1054687,0.1845703 0.1054687,0.2929688 0,0.1347656 -0.035156,0.243164 -0.1054687,0.328125 -0.070312,0.079102 -0.1728516,0.1171875 -0.3046875,0.1171875 -0.087891,0 -0.1523438,-0.014648 -0.1992188,-0.046875 -0.041016,-0.038086 -0.070312,-0.082031 -0.09375,-0.1289063 l -0.058594,-0.09375 c -0.00879,-0.014648 -0.020508,-0.026367 -0.035156,-0.035156 -0.017578,-0.00586 -0.035156,-0.011719 -0.058594,-0.011719 -0.1113282,0 -0.2695313,0.1523438 -0.4804688,0.4570313 -0.2050781,0.3046875 -0.3867187,0.6386718 -0.5507812,0.9960937 -0.09375,0.2197266 -0.2050782,0.5039063 -0.328125,0.85546876 -0.079102,0.22851563 -0.18164066,0.54785156 -0.30468754,0.9609375 H 0.22144531 L 0.91285156,-2.5416172 c 0.0380859,-0.140625 0.0703125,-0.2695312 0.09375,-0.3867187 0.029297,-0.1171875 0.046875,-0.2109375 0.046875,-0.28125 0,-0.084961 -0.023437,-0.1523438 -0.0703125,-0.1992188 -0.0410156,-0.046875 -0.11425781,-0.070312 -0.22265625,-0.070312 -0.0322266,0 -0.0761719,0.00586 -0.12890625,0.011719 -0.046875,0.00879 -0.10546875,0.017578 -0.17578125,0.023437 v -0.140625 l 0.17578125,-0.035156 c 0.21679688,-0.046875 0.45703124,-0.09375 0.71484374,-0.140625 0.2578125,-0.046875 0.3925781,-0.070312 0.4101563,-0.070313 z m 0,0"
         style="fill:#000000;fill-opacity:1;fill-rule:nonzero;stroke:none"
         aria-label="r"
         transform="matrix(1.3333333,0,0,1.3333333,497.01333,371.97867)"
         clip-path="url(#clipPath282)" />
      <path
         id="path283"
         d="m 407.29,487 c 0,-0.298 -0.242,-0.54 -0.54,-0.54 -0.298,0 -0.54,0.242 -0.54,0.54 0,0.298 0.242,0.54 0.54,0.54 0.298,0 0.54,-0.242 0.54,-0.54"
         style="fill:#000000;fill-opacity:1;fill-rule:nonzero;stroke:#000000;stroke-width:0.27;stroke-linecap:butt;stroke-linejoin:miter;stroke-miterlimit:10;stroke-dasharray:none;stroke-opacity:1"
         transform="matrix(1.3333333,0,0,-1.3333333,0,1056)"
         clip-path="url(#clipPath284)" />
      <path
         id="path285"
         d="m 404.79,487 c 0,-0.298 -0.242,-0.54 -0.54,-0.54 -0.298,0 -0.54,0.242 -0.54,0.54 0,0.298 0.242,0.54 0.54,0.54 0.298,0 0.54,-0.242 0.54,-0.54"
         style="fill:#000000;fill-opacity:1;fill-rule:nonzero;stroke:#000000;stroke-width:0.27;stroke-linecap:butt;stroke-linejoin:miter;stroke-miterlimit:10;stroke-dasharray:none;stroke-opacity:1"
         transform="matrix(1.3333333,0,0,-1.3333333,0,1056)"
         clip-path="url(#clipPath286)" />
      <path
         id="path287"
         d="m 401.79,487 c 0,-0.298 -0.242,-0.54 -0.54,-0.54 -0.298,0 -0.54,0.242 -0.54,0.54 0,0.298 0.242,0.54 0.54,0.54 0.298,0 0.54,-0.242 0.54,-0.54"
         style="fill:#000000;fill-opacity:1;fill-rule:nonzero;stroke:#000000;stroke-width:0.27;stroke-linecap:butt;stroke-linejoin:miter;stroke-miterlimit:10;stroke-dasharray:none;stroke-opacity:1"
         transform="matrix(1.3333333,0,0,-1.3333333,0,1056)"
         clip-path="url(#clipPath288)" />
      <path
         id="path289"
         d="m 381.83,486 c 0,-0.596 -0.484,-1.08 -1.08,-1.08 -0.596,0 -1.08,0.484 -1.08,1.08 0,0.596 0.484,1.08 1.08,1.08 0.596,0 1.08,-0.484 1.08,-1.08"
         style="fill:#000000;fill-opacity:1;fill-rule:nonzero;stroke:#000000;stroke-width:0.27;stroke-linecap:butt;stroke-linejoin:miter;stroke-miterlimit:10;stroke-dasharray:none;stroke-opacity:1"
         transform="matrix(1.3333333,0,0,-1.3333333,0,1056)"
         clip-path="url(#clipPath290)" />
      <path
         id="path291"
         d="m 387.33,491.5 c 0,-0.596 -0.484,-1.08 -1.08,-1.08 -0.596,0 -1.08,0.484 -1.08,1.08 0,0.596 0.484,1.08 1.08,1.08 0.596,0 1.08,-0.484 1.08,-1.08"
         style="fill:#000000;fill-opacity:1;fill-rule:nonzero;stroke:#000000;stroke-width:0.27;stroke-linecap:butt;stroke-linejoin:miter;stroke-miterlimit:10;stroke-dasharray:none;stroke-opacity:1"
         transform="matrix(1.3333333,0,0,-1.3333333,0,1056)"
         clip-path="url(#clipPath292)" />
      <path
         id="path293"
         d="m 392.83,496.75 c 0,-0.596 -0.484,-1.08 -1.08,-1.08 -0.596,0 -1.08,0.484 -1.08,1.08 0,0.596 0.484,1.08 1.08,1.08 0.596,0 1.08,-0.484 1.08,-1.08"
         style="fill:#000000;fill-opacity:1;fill-rule:nonzero;stroke:#000000;stroke-width:0.27;stroke-linecap:butt;stroke-linejoin:miter;stroke-miterlimit:10;stroke-dasharray:none;stroke-opacity:1"
         transform="matrix(1.3333333,0,0,-1.3333333,0,1056)"
         clip-path="url(#clipPath294)" />
      <path
         id="path295"
         d="m 371.08,475.25 c 0,-0.596 -0.484,-1.08 -1.08,-1.08 -0.596,0 -1.08,0.484 -1.08,1.08 0,0.596 0.484,1.08 1.08,1.08 0.596,0 1.08,-0.484 1.08,-1.08"
         style="fill:#000000;fill-opacity:1;fill-rule:nonzero;stroke:#000000;stroke-width:0.27;stroke-linecap:butt;stroke-linejoin:miter;stroke-miterlimit:10;stroke-dasharray:none;stroke-opacity:1"
         transform="matrix(1.3333333,0,0,-1.3333333,0,1056)"
         clip-path="url(#clipPath296)" />
      <path
         id="path297"
         d="m 376.58,480.5 c 0,-0.596 -0.484,-1.08 -1.08,-1.08 -0.596,0 -1.08,0.484 -1.08,1.08 0,0.596 0.484,1.08 1.08,1.08 0.596,0 1.08,-0.484 1.08,-1.08"
         style="fill:#000000;fill-opacity:1;fill-rule:nonzero;stroke:#000000;stroke-width:0.27;stroke-linecap:butt;stroke-linejoin:miter;stroke-miterlimit:10;stroke-dasharray:none;stroke-opacity:1"
         transform="matrix(1.3333333,0,0,-1.3333333,0,1056)"
         clip-path="url(#clipPath298)" />
      <path
         id="path299"
         d="m 398.08,502.25 c 0,-0.596 -0.484,-1.08 -1.08,-1.08 -0.596,0 -1.08,0.484 -1.08,1.08 0,0.596 0.484,1.08 1.08,1.08 0.596,0 1.08,-0.484 1.08,-1.08"
         style="fill:#000000;fill-opacity:1;fill-rule:nonzero;stroke:#000000;stroke-width:0.27;stroke-linecap:butt;stroke-linejoin:miter;stroke-miterlimit:10;stroke-dasharray:none;stroke-opacity:1"
         transform="matrix(1.3333333,0,0,-1.3333333,0,1056)"
         clip-path="url(#clipPath300)" />
      <path
         id="path301"
         d="m 365.83,475.25 c 0,-0.596 -0.484,-1.08 -1.08,-1.08 -0.596,0 -1.08,0.484 -1.08,1.08 0,0.596 0.484,1.08 1.08,1.08 0.596,0 1.08,-0.484 1.08,-1.08"
         style="fill:#000000;fill-opacity:1;fill-rule:nonzero;stroke:#000000;stroke-width:0.27;stroke-linecap:butt;stroke-linejoin:miter;stroke-miterlimit:10;stroke-dasharray:none;stroke-opacity:1"
         transform="matrix(1.3333333,0,0,-1.3333333,0,1056)"
         clip-path="url(#clipPath302)" />
      <path
         id="path303"
         d="m 360.33,475.25 c 0,-0.596 -0.484,-1.08 -1.08,-1.08 -0.596,0 -1.08,0.484 -1.08,1.08 0,0.596 0.484,1.08 1.08,1.08 0.596,0 1.08,-0.484 1.08,-1.08"
         style="fill:#000000;fill-opacity:1;fill-rule:nonzero;stroke:#000000;stroke-width:0.27;stroke-linecap:butt;stroke-linejoin:miter;stroke-miterlimit:10;stroke-dasharray:none;stroke-opacity:1"
         transform="matrix(1.3333333,0,0,-1.3333333,0,1056)"
         clip-path="url(#clipPath304)" />
      <path
         id="path305"
         d="m 211.83,502.25 c 0,-0.596 -0.484,-1.08 -1.08,-1.08 -0.596,0 -1.08,0.484 -1.08,1.08 0,0.596 0.484,1.08 1.08,1.08 0.596,0 1.08,-0.484 1.08,-1.08"
         style="fill:#000000;fill-opacity:1;fill-rule:nonzero;stroke:#000000;stroke-width:0.27;stroke-linecap:butt;stroke-linejoin:miter;stroke-miterlimit:10;stroke-dasharray:none;stroke-opacity:1"
         transform="matrix(1.3333333,0,0,-1.3333333,0,1056)"
         clip-path="url(#clipPath306)" />
      <path
         id="path307"
         d="m 217.33,475.25 c 0,-0.596 -0.484,-1.08 -1.08,-1.08 -0.596,0 -1.08,0.484 -1.08,1.08 0,0.596 0.484,1.08 1.08,1.08 0.596,0 1.08,-0.484 1.08,-1.08"
         style="fill:#000000;fill-opacity:1;fill-rule:nonzero;stroke:#000000;stroke-width:0.27;stroke-linecap:butt;stroke-linejoin:miter;stroke-miterlimit:10;stroke-dasharray:none;stroke-opacity:1"
         transform="matrix(1.3333333,0,0,-1.3333333,0,1056)"
         clip-path="url(#clipPath308)" />
      <path
         id="path309"
         d="m 206.33,475.25 c 0,-0.596 -0.484,-1.08 -1.08,-1.08 -0.596,0 -1.08,0.484 -1.08,1.08 0,0.596 0.484,1.08 1.08,1.08 0.596,0 1.08,-0.484 1.08,-1.08"
         style="fill:#000000;fill-opacity:1;fill-rule:nonzero;stroke:#000000;stroke-width:0.27;stroke-linecap:butt;stroke-linejoin:miter;stroke-miterlimit:10;stroke-dasharray:none;stroke-opacity:1"
         transform="matrix(1.3333333,0,0,-1.3333333,0,1056)"
         clip-path="url(#clipPath310)" />
      <path
         id="path311"
         d="m 283.66,502.216 v -27 m 5.4,27 v -27 m 5.4,27 v -27 m 5.4,27 v -27 m 5.4,27 v -27 m 70.2,5.4 v -5.4 m 5.4,10.8 v -10.8 m 5.4,16.2 v -16.2 m 5.4,21.6 v -21.6 m 5.4,27 v -27 m -186.3,27 v -27"
         style="fill:none;stroke:#000000;stroke-width:1.08;stroke-linecap:butt;stroke-linejoin:miter;stroke-miterlimit:10;stroke-dasharray:none;stroke-opacity:1"
         transform="matrix(1.3333333,0,0,-1.3333333,0,1056)"
         clip-path="url(#clipPath312)" />
      <path
         id="path313"
         d="m 197.26,475.216 h 35.1"
         style="fill:none;stroke:#000000;stroke-width:0.54;stroke-linecap:butt;stroke-linejoin:miter;stroke-miterlimit:10;stroke-dasharray:none;stroke-opacity:1"
         transform="matrix(1.3333333,0,0,-1.3333333,0,1056)"
         clip-path="url(#clipPath314)" />
      <path
         id="path315"
         d="m 228.04,476.296 4.32,-1.08 -4.32,-1.08"
         style="fill:none;stroke:#000000;stroke-width:0.54;stroke-linecap:butt;stroke-linejoin:bevel;stroke-miterlimit:10;stroke-dasharray:none;stroke-opacity:1"
         transform="matrix(1.3333333,0,0,-1.3333333,0,1056)"
         clip-path="url(#clipPath316)" />
      <path
         id="path317"
         d="m 270.16,475.216 h 51.3"
         style="fill:none;stroke:#000000;stroke-width:0.54;stroke-linecap:butt;stroke-linejoin:miter;stroke-miterlimit:10;stroke-dasharray:none;stroke-opacity:1"
         transform="matrix(1.3333333,0,0,-1.3333333,0,1056)"
         clip-path="url(#clipPath318)" />
      <path
         id="path319"
         d="m 317.14,476.296 4.32,-1.08 -4.32,-1.08 m -34.56,39.96 1.08,4.32 1.08,-4.32"
         style="fill:none;stroke:#000000;stroke-width:0.54;stroke-linecap:butt;stroke-linejoin:bevel;stroke-miterlimit:10;stroke-dasharray:none;stroke-opacity:1"
         transform="matrix(1.3333333,0,0,-1.3333333,0,1056)"
         clip-path="url(#clipPath320)" />
      <path
         id="path321"
         d="m 283.66,518.416 v -43.2"
         style="fill:none;stroke:#000000;stroke-width:0.54;stroke-linecap:butt;stroke-linejoin:miter;stroke-miterlimit:10;stroke-dasharray:none;stroke-opacity:1"
         transform="matrix(1.3333333,0,0,-1.3333333,0,1056)"
         clip-path="url(#clipPath322)" />
      <path
         id="path323"
         d="m 368.98,514.096 1.08,4.32 1.08,-4.32"
         style="fill:none;stroke:#000000;stroke-width:0.54;stroke-linecap:butt;stroke-linejoin:bevel;stroke-miterlimit:10;stroke-dasharray:none;stroke-opacity:1"
         transform="matrix(1.3333333,0,0,-1.3333333,0,1056)"
         clip-path="url(#clipPath324)" />
      <path
         id="path325"
         d="m 370.06,518.416 v -43.2 m -13.5,0 h 56.7"
         style="fill:none;stroke:#000000;stroke-width:0.54;stroke-linecap:butt;stroke-linejoin:miter;stroke-miterlimit:10;stroke-dasharray:none;stroke-opacity:1"
         transform="matrix(1.3333333,0,0,-1.3333333,0,1056)"
         clip-path="url(#clipPath326)" />
      <path
         id="path327"
         d="m 408.94,476.296 4.32,-1.08 -4.32,-1.08 m -199.26,39.96 1.08,4.32 1.08,-4.32"
         style="fill:none;stroke:#000000;stroke-width:0.54;stroke-linecap:butt;stroke-linejoin:bevel;stroke-miterlimit:10;stroke-dasharray:none;stroke-opacity:1"
         transform="matrix(1.3333333,0,0,-1.3333333,0,1056)"
         clip-path="url(#clipPath328)" />
      <path
         id="path329"
         d="m 210.76,518.416 v -43.2"
         style="fill:none;stroke:#000000;stroke-width:0.54;stroke-linecap:butt;stroke-linejoin:miter;stroke-miterlimit:10;stroke-dasharray:none;stroke-opacity:1"
         transform="matrix(1.3333333,0,0,-1.3333333,0,1056)"
         clip-path="url(#clipPath330)" />
      <path
         id="path331"
         d="m 1.8749609,-4.5122422 v -0.2460937 c 0,-0.084961 -0.017578,-0.1464844 -0.046875,-0.1875 -0.023437,-0.046875 -0.070312,-0.070312 -0.140625,-0.070312 -0.032226,0 -0.082031,0.011719 -0.1523437,0.035156 -0.064453,0.017578 -0.1347656,0.043945 -0.2109375,0.082031 l -0.56250001,0.2695312 -0.0820313,-0.1640625 c 0.2578125,-0.1318359 0.53906241,-0.28125 0.84374991,-0.4453125 0.3046875,-0.1640625 0.6708985,-0.3691406 1.1015626,-0.6210937 v 4.8046875 c 0,0.41601559 0.046875,0.66503902 0.140625,0.74999996 0.099609,0.0878906 0.3574218,0.12890625 0.7734375,0.12890625 H 3.6679297 V -5.234375e-4 H 0.77339844 V -0.17630469 c 0.50683596,0 0.81445316,-0.046875 0.92578126,-0.140625 0.1171875,-0.0996094 0.1757812,-0.34570312 0.1757812,-0.73828121 z m 0,0"
         style="fill:#000000;fill-opacity:1;fill-rule:nonzero;stroke:none"
         aria-label="1"
         transform="matrix(1.3333333,0,0,1.3333333,284.61333,391.41867)"
         clip-path="url(#clipPath332)" />
      <path
         id="path333"
         d="M 0.15347656,-9.921875e-4 0.89175781,-2.6025547 c 0.0527344,-0.2167969 0.0849609,-0.3515625 0.09375,-0.3984375 0.0146485,-0.046875 0.0234375,-0.09668 0.0234375,-0.1523437 0,-0.084961 -0.0234375,-0.1464844 -0.0703125,-0.1875 -0.046875,-0.046875 -0.13769531,-0.070312 -0.26953125,-0.070312 -0.0322266,0 -0.0673828,0.00586 -0.10546875,0.011719 -0.0322266,0 -0.0673828,0 -0.10546875,0 v -0.140625 c 0.1875,-0.029297 0.31640625,-0.049805 0.38671875,-0.058594 0.0761719,-0.014648 0.16406249,-0.035156 0.25781249,-0.058594 l 0.75,-0.1640625 c 0.014649,0.017578 0.026367,0.032227 0.035156,0.046875 l -0.5625,1.8046875 c 0.3427734,-0.5214844 0.6328125,-0.9140625 0.8671875,-1.171875 0.4042968,-0.4511719 0.7675781,-0.6796875 1.0898437,-0.6796875 0.1171875,0 0.2226563,0.023437 0.3164063,0.070312 0.1699218,0.09375 0.2578125,0.2636719 0.2578125,0.5039063 0,0.070312 -0.00879,0.1464843 -0.023437,0.2226562 -0.017578,0.070312 -0.035156,0.1464844 -0.058594,0.2226563 l -0.5507812,2.02734371 c -0.00879,0.0410156 -0.020508,0.0908203 -0.035156,0.15234375 -0.017578,0.0644531 -0.023437,0.10546875 -0.023437,0.12890625 0,0.0410156 0.00586,0.0791016 0.023437,0.1171875 0.023437,0.0322266 0.058594,0.046875 0.1054688,0.046875 0.070312,0 0.1523437,-0.0410156 0.2460937,-0.12890625 0.099609,-0.0849609 0.2607422,-0.26953125 0.4804688,-0.55078126 l 0.1171875,0.10546876 c -0.2285157,0.31347656 -0.4101563,0.53320313 -0.5507813,0.65625 -0.2285156,0.22851563 -0.4453125,0.33984375 -0.65625,0.33984375 -0.09375,0 -0.1875,-0.03222656 -0.28125,-0.0937499975 C 2.5616797,-0.06251563 2.5206641,-0.17970313 2.5206641,-0.35255469 c 0,-0.046875 0.00293,-0.09375 0.011719,-0.140625 0.00586,-0.0527344 0.014648,-0.0996094 0.023437,-0.140625 l 0.527344,-2.05078121 c 0.029297,-0.1171875 0.049805,-0.2109375 0.058594,-0.28125 0.014648,-0.070312 0.023437,-0.1201172 0.023437,-0.1523438 0,-0.070312 -0.020508,-0.1289062 -0.058594,-0.1757812 -0.032227,-0.046875 -0.087891,-0.070312 -0.1640625,-0.070312 -0.2109375,0 -0.4775391,0.1933593 -0.796875,0.5742187 -0.1875,0.2285156 -0.3808594,0.4980469 -0.5742188,0.8085938 -0.149414,0.2519531 -0.2666015,0.4921875 -0.3515625,0.7265625 -0.087891,0.2285156 -0.22265624,0.64453121 -0.41015624,1.2539062125 z m 89.10351544,0 0.738281,-2.6015625125 c 0.05273,-0.2167969 0.08496,-0.3515625 0.09375,-0.3984375 0.01465,-0.046875 0.02344,-0.09668 0.02344,-0.1523437 0,-0.084961 -0.02344,-0.1464844 -0.07031,-0.1875 -0.04687,-0.046875 -0.137695,-0.070312 -0.269531,-0.070312 -0.03223,0 -0.06738,0.00586 -0.105469,0.011719 -0.03223,0 -0.06738,0 -0.105468,0 v -0.140625 c 0.1875,-0.029297 0.316406,-0.049805 0.386718,-0.058594 0.07617,-0.014648 0.164063,-0.035156 0.257813,-0.058594 l 0.75,-0.1640625 c 0.01465,0.017578 0.02637,0.032227 0.03516,0.046875 l -0.5625,1.8046875 c 0.342774,-0.5214844 0.632813,-0.9140625 0.867188,-1.171875 0.404297,-0.4511719 0.767578,-0.6796875 1.089843,-0.6796875 0.117188,0 0.222657,0.023437 0.316407,0.070312 0.169922,0.09375 0.257812,0.2636719 0.257812,0.5039063 0,0.070312 -0.0088,0.1464843 -0.02344,0.2226562 -0.01758,0.070312 -0.03516,0.1464844 -0.05859,0.2226563 l -0.550781,2.02734371 c -0.0088,0.0410156 -0.02051,0.0908203 -0.03516,0.15234375 -0.01758,0.0644531 -0.02344,0.10546875 -0.02344,0.12890625 0,0.0410156 0.0059,0.0791016 0.02344,0.1171875 0.02344,0.0322266 0.05859,0.046875 0.105469,0.046875 0.07031,0 0.152344,-0.0410156 0.246094,-0.12890625 0.09961,-0.0849609 0.260742,-0.26953125 0.480469,-0.55078126 l 0.117187,0.10546876 c -0.228515,0.31347656 -0.410156,0.53320313 -0.550781,0.65625 -0.228516,0.22851563 -0.445313,0.33984375 -0.65625,0.33984375 -0.09375,0 -0.1875,-0.03222656 -0.28125,-0.0937499975 C 91.665195,-0.06251563 91.62418,-0.17970313 91.62418,-0.35255469 c 0,-0.046875 0.0029,-0.09375 0.01172,-0.140625 0.0059,-0.0527344 0.01465,-0.0996094 0.02344,-0.140625 l 0.52734,-2.05078121 c 0.0293,-0.1171875 0.0498,-0.2109375 0.05859,-0.28125 0.01465,-0.070312 0.02344,-0.1201172 0.02344,-0.1523438 0,-0.070312 -0.02051,-0.1289062 -0.05859,-0.1757812 -0.03223,-0.046875 -0.08789,-0.070312 -0.164062,-0.070312 -0.210938,0 -0.477539,0.1933593 -0.796875,0.5742187 -0.1875,0.2285156 -0.38086,0.4980469 -0.574219,0.8085938 -0.149414,0.2519531 -0.266602,0.4921875 -0.351563,0.7265625 -0.08789,0.2285156 -0.222656,0.64453121 -0.410156,1.2539062125 z m 0,0"
         style="fill:#000000;fill-opacity:1;fill-rule:nonzero;stroke:none"
         aria-label="nn"
         transform="matrix(1.3333333,0,0,1.3333333,306.21333,418.77867)"
         clip-path="url(#clipPath334)" />
      <path
         id="path335"
         d="m 1.8737891,-4.5103672 v -0.2460937 c 0,-0.084961 -0.017578,-0.1464844 -0.046875,-0.1875 -0.023437,-0.046875 -0.070312,-0.070312 -0.140625,-0.070312 -0.032227,0 -0.082031,0.011719 -0.1523438,0.035156 -0.064453,0.017578 -0.1347656,0.043945 -0.2109375,0.082031 L 0.76050781,-4.6275547 0.67847651,-4.7916172 C 0.93628901,-4.9234531 1.217539,-5.0728672 1.5222265,-5.2369297 1.826914,-5.4009922 2.193125,-5.6060703 2.6237891,-5.8580234 v 4.8046875 c 0,0.41601559 0.046875,0.66503902 0.140625,0.74999996 0.099609,0.0878906 0.3574218,0.12890625 0.7734375,0.12890625 H 3.6667578 V 0.00135156 H 0.77222656 v -0.17578125 c 0.50683594,0 0.81445314,-0.046875 0.92578124,-0.140625 0.1171875,-0.0996094 0.1757813,-0.34570312 0.1757813,-0.73828121 z m 0,0"
         style="fill:#000000;fill-opacity:1;fill-rule:nonzero;stroke:none"
         aria-label="1"
         transform="matrix(1.3333333,0,0,1.3333333,371.01333,389.97867)"
         clip-path="url(#clipPath336)" />
      <path
         id="path337"
         d="M 0.15289063,-9.921875e-4 0.89117188,-2.6025547 c 0.0527344,-0.2167969 0.0849609,-0.3515625 0.09375,-0.3984375 0.0146484,-0.046875 0.0234375,-0.09668 0.0234375,-0.1523437 0,-0.084961 -0.0234375,-0.1464844 -0.0703125,-0.1875 -0.046875,-0.046875 -0.13769532,-0.070312 -0.26953125,-0.070312 -0.0322266,0 -0.0673828,0.00586 -0.10546875,0.011719 -0.0322266,0 -0.0673828,0 -0.10546875,0 v -0.140625 c 0.1875,-0.029297 0.31640625,-0.049805 0.38671875,-0.058594 0.0761719,-0.014648 0.16406252,-0.035156 0.25781252,-0.058594 l 0.75,-0.1640625 c 0.014648,0.017578 0.026367,0.032227 0.035156,0.046875 l -0.5625,1.8046875 c 0.3427735,-0.5214844 0.6328125,-0.9140625 0.8671875,-1.171875 0.4042969,-0.4511719 0.7675782,-0.6796875 1.0898438,-0.6796875 0.1171875,0 0.2226562,0.023437 0.3164062,0.070312 0.1699219,0.09375 0.2578125,0.2636719 0.2578125,0.5039063 0,0.070312 -0.00879,0.1464843 -0.023437,0.2226562 -0.017578,0.070312 -0.035156,0.1464844 -0.058594,0.2226563 l -0.5507813,2.02734371 c -0.00879,0.0410156 -0.020508,0.0908203 -0.035156,0.15234375 -0.017578,0.0644531 -0.023437,0.10546875 -0.023437,0.12890625 0,0.0410156 0.00586,0.0791016 0.023437,0.1171875 0.023437,0.0322266 0.058594,0.046875 0.1054687,0.046875 0.070312,0 0.1523438,-0.0410156 0.2460938,-0.12890625 0.099609,-0.0849609 0.2607422,-0.26953125 0.4804687,-0.55078126 l 0.1171875,0.10546876 c -0.2285156,0.31347656 -0.4101562,0.53320313 -0.5507812,0.65625 -0.2285156,0.22851563 -0.4453125,0.33984375 -0.65625,0.33984375 -0.09375,0 -0.1875,-0.03222656 -0.28125,-0.0937499975 C 2.5610938,-0.06251563 2.5200781,-0.17970313 2.5200781,-0.35255469 c 0,-0.046875 0.00293,-0.09375 0.011719,-0.140625 0.00586,-0.0527344 0.014648,-0.0996094 0.023437,-0.140625 l 0.527344,-2.05078121 c 0.029297,-0.1171875 0.049805,-0.2109375 0.058594,-0.28125 0.014648,-0.070312 0.023437,-0.1201172 0.023437,-0.1523438 0,-0.070312 -0.020508,-0.1289062 -0.058594,-0.1757812 -0.032227,-0.046875 -0.087891,-0.070312 -0.1640625,-0.070312 -0.2109375,0 -0.477539,0.1933593 -0.796875,0.5742187 -0.1875,0.2285156 -0.3808593,0.4980469 -0.5742187,0.8085938 -0.1494141,0.2519531 -0.2666016,0.4921875 -0.3515625,0.7265625 -0.087891,0.2285156 -0.22265627,0.64453121 -0.41015627,1.2539062125 z m 0,0"
         style="fill:#000000;fill-opacity:1;fill-rule:nonzero;stroke:none"
         aria-label="n"
         transform="matrix(1.3333333,0,0,1.3333333,547.41333,418.77867)"
         clip-path="url(#clipPath338)" />
      <path
         id="path339"
         d="m 1.8756641,-4.5130625 v -0.2460938 c 0,-0.084961 -0.017578,-0.1464843 -0.046875,-0.1875 -0.023437,-0.046875 -0.070312,-0.070312 -0.140625,-0.070312 -0.032227,0 -0.082031,0.011719 -0.1523438,0.035156 -0.064453,0.017578 -0.1347656,0.043945 -0.2109375,0.082031 L 0.76238281,-4.63025 0.68035156,-4.7943125 C 0.93816406,-4.9261484 1.2194141,-5.0755625 1.5241016,-5.239625 1.8287891,-5.4036875 2.195,-5.6087656 2.6256641,-5.8607188 v 4.8046875 c 0,0.41601567 0.046875,0.66503911 0.140625,0.75000005 0.099609,0.0878906 0.3574218,0.12890625 0.7734375,0.12890625 h 0.1289062 v 0.17578125 H 0.77410156 V -0.177125 c 0.50683594,0 0.81445314,-0.046875 0.92578124,-0.140625 0.1171875,-0.0996094 0.1757813,-0.34570313 0.1757813,-0.7382813 z m 0,0"
         style="fill:#000000;fill-opacity:1;fill-rule:nonzero;stroke:none"
         aria-label="1"
         transform="matrix(1.3333333,0,0,1.3333333,495.57333,412.29867)"
         clip-path="url(#clipPath340)" />
      <path
         id="path341"
         d="m 0.44632812,-4.1247031 -0.17578125,-0.023437 c 0.1171875,-0.5390625 0.33984375,-0.9492188 0.66796875,-1.2304688 0.32812498,-0.2871094 0.74414058,-0.4335937 1.25390628,-0.4335937 0.4746093,0 0.8554687,0.1347656 1.1367187,0.3984375 0.2871094,0.2666015 0.4335938,0.6210937 0.4335938,1.0664062 0,0.3457031 -0.099609,0.6884766 -0.2929688,1.03125 -0.196289,0.3457031 -0.5625,0.7910156 -1.1015625,1.3359375 l -1.3007812,1.33593752 h 1.6757812 c 0.4365235,0 0.7324219,-0.0410156 0.890625,-0.12890625 0.1552735,-0.09375 0.2871094,-0.26074217 0.3984375,-0.50390627 L 4.1963281,-1.2301719 3.7041406,2.96875e-4 H 0.25882812 V -0.15204688 l 0.92578128,-0.97265622 0.082031,-0.082031 c 1.171875,-1.2246094 1.7578125,-2.1357422 1.7578125,-2.7304687 0,-0.3896485 -0.1113281,-0.6972657 -0.328125,-0.9257813 -0.2197265,-0.2255859 -0.515625,-0.3398437 -0.890625,-0.3398437 -0.3134765,0 -0.5859375,0.09375 -0.82031248,0.28125 -0.234375,0.1875 -0.41601562,0.4541015 -0.5390623,0.7968747 z m 0,0"
         style="fill:#000000;fill-opacity:1;fill-rule:nonzero;stroke:none"
         aria-label="2"
         transform="matrix(1.3333333,0,0,1.3333333,502.05333,406.53867)"
         clip-path="url(#clipPath342)" />
      <path
         id="path343"
         d="m 0.35199219,-4.4776719 c 0.1875,-0.4365234 0.43652344,-0.7675781 0.75000001,-0.9960937 0.3105469,-0.225586 0.6708984,-0.3398438 1.078125,-0.3398438 0.375,0 0.6855469,0.1054688 0.9375,0.3164063 0.2490234,0.2050781 0.375,0.4570312 0.375,0.7617187 0,0.2197266 -0.064453,0.4306641 -0.1875,0.6328125 -0.1171875,0.1962891 -0.328125,0.4189453 -0.6328125,0.6679688 0.3808594,0.1171875 0.6679687,0.3017578 0.8554687,0.5507812 0.1933594,0.2519531 0.2929688,0.5625 0.2929688,0.9375 0,0.5859375 -0.2314453,1.07519534 -0.6914063,1.46484377 -0.4628906,0.39257813 -1.040039,0.5859375 -1.734375,0.5859375 -0.3457031,0 -0.62109371,-0.05273437 -0.83203121,-0.15234375 -0.2109375,-0.10839843 -0.31640625,-0.24609375 -0.31640625,-0.41015625 0,-0.09375 0.0351562,-0.16992187 0.10546875,-0.234375 0.0703125,-0.0615234 0.15234375,-0.09375 0.24609375,-0.09375 0.17871094,0 0.40429686,0.0996094 0.67968746,0.29296875 0.28125,0.19628907 0.506836,0.29296875 0.6796875,0.29296875 0.319336,0 0.600586,-0.12890625 0.84375,-0.38671875 0.2402344,-0.26367187 0.3632813,-0.57421872 0.3632813,-0.92578122 0,-0.4365235 -0.1494141,-0.7675782 -0.4453125,-0.9960938 C 2.4203516,-2.7345078 1.9926172,-2.8487656 1.4301172,-2.8487656 H 1.3246484 v -0.1757813 c 0.4277344,-0.038086 0.7792969,-0.1816406 1.0546875,-0.4335937 0.272461,-0.2490235 0.4101563,-0.5449219 0.4101563,-0.890625 0,-0.2578125 -0.09082,-0.4628907 -0.2695313,-0.6210938 -0.1816406,-0.1640625 -0.4160156,-0.2460937 -0.703125,-0.2460937 -0.2666015,0 -0.5126953,0.076172 -0.7382812,0.2226562 -0.22851564,0.140625 -0.42187501,0.3486328 -0.58593751,0.6210938 z m 0,0"
         style="fill:#000000;fill-opacity:1;fill-rule:nonzero;stroke:none"
         aria-label="3"
         transform="matrix(1.3333333,0,0,1.3333333,509.25333,398.61867)"
         clip-path="url(#clipPath344)" />
      <path
         id="path345"
         d="M 0.21078125,-2.0864609 2.8475,-5.8130234 h 0.375 v 3.796875 h 0.84375 v 0.5625 H 3.2225 V -5.234375e-4 H 2.5545312 V -1.4536484 H 0.21078125 Z m 0.328125,0.070312 H 2.5545312 v -2.8828125 z m 0,0"
         style="fill:#000000;fill-opacity:1;fill-rule:nonzero;stroke:none"
         aria-label="4"
         transform="matrix(1.3333333,0,0,1.3333333,516.45333,391.41867)"
         clip-path="url(#clipPath346)" />
      <path
         id="path347"
         d="m 3.7278125,-5.9305625 0.1054688,0.058594 -0.375,0.8203125 H 1.5129688 L 1.12625,-4.219625 c 0.8203125,0.1171875 1.4472656,0.3691406 1.8867188,0.75 0.4365234,0.375 0.65625,0.8496094 0.65625,1.4179687 0,0.6328125 -0.2226563,1.15429692 -0.6679688,1.5585938 -0.4394531,0.40722656 -1.0048828,0.609375 -1.6992187,0.609375 -0.33691411,0 -0.60937505,-0.05273438 -0.82031255,-0.15234375 -0.20507812,-0.10839844 -0.3046875,-0.24902344 -0.3046875,-0.421875 0,-0.0849609 0.0351563,-0.15527344 0.10546875,-0.2109375 0.0703125,-0.0615234 0.15527344,-0.09375 0.2578125,-0.09375 0.17871094,0 0.39257813,0.09375 0.6445313,0.28125 0.2578125,0.18164062 0.4628906,0.26953125 0.6210937,0.26953125 0.3662109,0 0.6708984,-0.13476563 0.9140625,-0.41015625 0.2490234,-0.28125 0.375,-0.63574215 0.375,-1.06640625 0,-0.5214844 -0.2285156,-0.9404297 -0.6796875,-1.2539063 C 1.9612109,-3.2528281 1.3166797,-3.4344688 0.48171875,-3.4813438 L 1.4895313,-5.7079063 h 1.734375 c 0.1464843,0 0.2519531,-0.014648 0.3164062,-0.046875 0.061523,-0.029297 0.1230469,-0.087891 0.1875,-0.1757812 z m 0,0"
         style="fill:#000000;fill-opacity:1;fill-rule:nonzero;stroke:none"
         aria-label="5"
         transform="matrix(1.3333333,0,0,1.3333333,524.37333,384.93867)"
         clip-path="url(#clipPath348)" />
    </g>
  </g>
</svg>
