<?xml version="1.0" encoding="UTF-8" standalone="no"?>
<!-- Created with Inkscape (http://www.inkscape.org/) -->

<svg
   version="1.1"
   id="svg1"
   viewBox="0 0 534.62799 203.83423"
   xmlns="http://www.w3.org/2000/svg"
   xmlns:svg="http://www.w3.org/2000/svg">
  <defs
     id="defs1">
    <clipPath
       clipPathUnits="userSpaceOnUse"
       id="clipPath165">
      <path
         d="M 115.791,140.106 H 506.999 V 284.517 H 115.791 Z"
         transform="translate(-347.16791,-186.04101)"
         id="path165" />
    </clipPath>
    <clipPath
       clipPathUnits="userSpaceOnUse"
       id="clipPath167">
      <path
         d="M 115.791,140.106 H 506.999 V 284.517 H 115.791 Z"
         transform="translate(-301.58201,-181.4892)"
         id="path167" />
    </clipPath>
    <clipPath
       clipPathUnits="userSpaceOnUse"
       id="clipPath169">
      <path
         d="M 115.791,140.106 H 506.999 V 284.517 H 115.791 Z"
         transform="translate(-434.83981,-186.08301)"
         id="path169" />
    </clipPath>
    <clipPath
       clipPathUnits="userSpaceOnUse"
       id="clipPath171">
      <path
         d="M 115.791,140.106 H 506.999 V 284.517 H 115.791 Z"
         transform="translate(-505.00001,-228.72261)"
         id="path171" />
    </clipPath>
    <clipPath
       clipPathUnits="userSpaceOnUse"
       id="clipPath173">
      <path
         d="M 115.791,140.106 H 506.999 V 284.517 H 115.791 Z"
         transform="translate(-434.80761,-228.72261)"
         id="path173" />
    </clipPath>
    <clipPath
       clipPathUnits="userSpaceOnUse"
       id="clipPath175">
      <path
         d="M 115.791,140.106 H 506.999 V 284.517 H 115.791 Z"
         transform="translate(-434.80761,-207.4033)"
         id="path175" />
    </clipPath>
    <clipPath
       clipPathUnits="userSpaceOnUse"
       id="clipPath177">
      <path
         d="M 115.791,140.106 H 506.999 V 284.517 H 115.791 Z"
         transform="translate(-505.00001,-186.08301)"
         id="path177" />
    </clipPath>
    <clipPath
       clipPathUnits="userSpaceOnUse"
       id="clipPath180">
      <path
         d="M 115.791,140.106 H 506.999 V 284.517 H 115.791 Z"
         transform="translate(-480.75001,-186.04101)"
         id="path180" />
    </clipPath>
    <clipPath
       clipPathUnits="userSpaceOnUse"
       id="clipPath182">
      <path
         d="M 115.791,140.106 H 506.999 V 284.517 H 115.791 Z"
         transform="translate(-435.16401,-202.36231)"
         id="path182" />
    </clipPath>
    <clipPath
       clipPathUnits="userSpaceOnUse"
       id="clipPath184">
      <path
         d="M 115.791,140.106 H 506.999 V 284.517 H 115.791 Z"
         transform="translate(-218.58001,-257.71381)"
         id="path184" />
    </clipPath>
    <clipPath
       clipPathUnits="userSpaceOnUse"
       id="clipPath186">
      <path
         d="M 115.791,140.106 H 506.999 V 284.517 H 115.791 Z"
         transform="translate(-218.539,-200.03121)"
         id="path186" />
    </clipPath>
    <clipPath
       clipPathUnits="userSpaceOnUse"
       id="clipPath188">
      <path
         d="M 115.791,140.106 H 506.999 V 284.517 H 115.791 Z"
         transform="translate(-165.82221,-206.39061)"
         id="path188" />
    </clipPath>
    <clipPath
       clipPathUnits="userSpaceOnUse"
       id="clipPath190">
      <path
         d="M 115.791,140.106 H 506.999 V 284.517 H 115.791 Z"
         transform="translate(-126.5136,-206.39061)"
         id="path190" />
    </clipPath>
    <clipPath
       clipPathUnits="userSpaceOnUse"
       id="clipPath192">
      <path
         d="M 115.791,140.106 H 506.999 V 284.517 H 115.791 Z"
         transform="translate(-301.19041,-228.9697)"
         id="path192" />
    </clipPath>
    <clipPath
       clipPathUnits="userSpaceOnUse"
       id="clipPath194">
      <path
         d="M 115.791,140.106 H 506.999 V 284.517 H 115.791 Z"
         transform="translate(-279.92871,-229.05561)"
         id="path194" />
    </clipPath>
    <clipPath
       clipPathUnits="userSpaceOnUse"
       id="clipPath196">
      <path
         d="M 115.791,140.106 H 506.999 V 284.517 H 115.791 Z"
         transform="translate(-191.1679,-193.3339)"
         id="path196" />
    </clipPath>
    <clipPath
       clipPathUnits="userSpaceOnUse"
       id="clipPath198">
      <path
         d="M 115.791,140.106 H 506.999 V 284.517 H 115.791 Z"
         transform="translate(-191.2744,-210.46681)"
         id="path198" />
    </clipPath>
    <clipPath
       clipPathUnits="userSpaceOnUse"
       id="clipPath200">
      <path
         d="M 115.791,140.106 H 506.999 V 284.517 H 115.791 Z"
         transform="translate(-191.1679,-264.4453)"
         id="path200" />
    </clipPath>
    <clipPath
       clipPathUnits="userSpaceOnUse"
       id="clipPath202">
      <path
         d="M 115.791,140.106 H 506.999 V 284.517 H 115.791 Z"
         transform="translate(-191.1679,-251.1679)"
         id="path202" />
    </clipPath>
    <clipPath
       clipPathUnits="userSpaceOnUse"
       id="clipPath204">
      <path
         d="M 115.791,140.106 H 506.999 V 284.517 H 115.791 Z"
         transform="translate(-191.2744,-268.30071)"
         id="path204" />
    </clipPath>
    <clipPath
       clipPathUnits="userSpaceOnUse"
       id="clipPath206">
      <path
         d="M 115.791,140.106 H 506.999 V 284.517 H 115.791 Z"
         transform="translate(-165.9111,-206.332)"
         id="path206" />
    </clipPath>
    <clipPath
       clipPathUnits="userSpaceOnUse"
       id="clipPath208">
      <path
         d="M 115.791,140.106 H 506.999 V 284.517 H 115.791 Z"
         transform="translate(-149.5654,-199.3203)"
         id="path208" />
    </clipPath>
    <clipPath
       clipPathUnits="userSpaceOnUse"
       id="clipPath211">
      <path
         d="M 115.791,140.106 H 506.999 V 284.517 H 115.791 Z"
         transform="translate(-355.54291,-228.51271)"
         id="path211" />
    </clipPath>
    <clipPath
       clipPathUnits="userSpaceOnUse"
       id="clipPath213">
      <path
         d="M 115.791,140.106 H 506.999 V 284.517 H 115.791 Z"
         transform="translate(-365.14551,-186.0576)"
         id="path213" />
    </clipPath>
    <clipPath
       clipPathUnits="userSpaceOnUse"
       id="clipPath219">
      <path
         d="M 0,0 H 582 V 744 H 0 Z"
         transform="translate(-15,-705.00002)"
         id="path219" />
    </clipPath>
    <clipPath
       clipPathUnits="userSpaceOnUse"
       id="clipPath221">
      <path
         d="M 0,0 H 582 V 744 H 0 Z"
         transform="translate(-15,-705.00002)"
         id="path221" />
    </clipPath>
  </defs>
  <g
     id="g1"
     transform="translate(-117.20749,-603.3772)">
    <g
       id="group-MC0"
       transform="translate(-32.203058,-2.0803086)">
      <g
         id="g213"
         aria-label="Q&#10;Q9&#10;ClkClk&#10;(a) Circuit diagram&#10;(b) Graphic symbol"
         transform="matrix(1.3333333,0,0,1.3333333,498.33587,691.1836)">
        <g
           id="g390">
          <rect
             style="fill:#ffffff;stroke-width:0.745753"
             id="rect389"
             width="400.97101"
             height="152.87569"
             x="-261.694"
             y="-64.294571" />
          <g
             id="g389">
            <path
               id="path156"
               d="m 476.839,174.14 h -41.752 v 67.246 h 41.752 z"
               style="fill:#e6f7fd;fill-opacity:1;fill-rule:nonzero;stroke:none"
               transform="matrix(1,0,0,-1,-373.75191,225.6123)" />
            <path
               id="path157"
               d="M 0,0 H -41.752 V 67.246 H 0 Z"
               style="fill:none;stroke:#231f20;stroke-width:0.75;stroke-linecap:butt;stroke-linejoin:miter;stroke-miterlimit:4;stroke-dasharray:none;stroke-opacity:1"
               transform="matrix(1,0,0,-1,103.0868,51.4725)" />
            <path
               id="path158"
               d="m 343.321,174.14 h -41.752 v 67.246 h 41.752 z"
               style="fill:#e6f7fd;fill-opacity:1;fill-rule:nonzero;stroke:none"
               transform="matrix(1,0,0,-1,-373.75191,225.6123)" />
            <path
               id="path159"
               d="M 0,0 H -41.752 V 67.246 H 0 Z"
               style="fill:none;stroke:#231f20;stroke-width:0.75;stroke-linecap:butt;stroke-linejoin:miter;stroke-miterlimit:4;stroke-dasharray:none;stroke-opacity:1"
               transform="matrix(1,0,0,-1,-30.431207,51.4725)" />
            <path
               id="path160"
               d="M 0,0 H -16.654"
               style="fill:none;stroke:#231f20;stroke-width:0.5;stroke-linecap:butt;stroke-linejoin:miter;stroke-miterlimit:4;stroke-dasharray:none;stroke-opacity:1"
               transform="matrix(1,0,0,-1,-72.494103,39.529297)" />
            <path
               id="path161"
               d="M 0,0 H -27.672"
               style="fill:none;stroke:#231f20;stroke-width:0.5;stroke-linecap:butt;stroke-linejoin:miter;stroke-miterlimit:4;stroke-dasharray:none;stroke-opacity:1"
               transform="matrix(1,0,0,-1,-2.3340016,-3.1103036)" />
            <path
               id="path162"
               d="M 0,0 H -24.254"
               style="fill:none;stroke:#231f20;stroke-width:0.5;stroke-linecap:butt;stroke-linejoin:miter;stroke-miterlimit:4;stroke-dasharray:none;stroke-opacity:1"
               transform="matrix(1,0,0,-1,-2.3340016,39.529297)" />
            <path
               id="path163"
               d="m 2.7783047,-4.5342187 c 0.1523437,-0.5625 0.2226562,-0.7265625 0.703125,-0.7265625 1.2304687,0 1.7695312,0.6914062 1.7695312,1.875 0,1.6289062 -0.9609375,3.11718745 -2.6953125,3.11718745 H 2.2392422 c -0.3515625,0 -0.5273438,-0.0703125 -0.5273438,-0.328125 0,-0.046875 0.011719,-0.1171875 0.035156,-0.19921875 z M 0.07127344,9.375e-4 H 2.6376797 c 2.0273437,0 3.5390625,-1.6054687 3.5390625,-3.2578125 0,-1.5585937 -1.1835938,-2.2617187 -2.3320313,-2.2617187 h -2.4375 l -0.046875,0.1289062 c 0.5625,0.023437 0.703125,0.1640625 0.703125,0.375 0,0.09375 -0.023437,0.1875 -0.058594,0.2929688 L 0.89158594,-0.725625 c -0.09375,0.3984375 -0.17578125,0.5390625 -0.7734375,0.5859375 z m 0,0"
               style="fill:#231f20;fill-opacity:1;fill-rule:nonzero;stroke:none"
               aria-label="D"
               transform="translate(-70.105406,-0.67770107)" />
            <path
               id="path164"
               d="m 0,0 c 0,-0.967 -0.783,-1.75 -1.75,-1.75 -0.967,0 -1.75,0.783 -1.75,1.75 0,0.967 0.783,1.75 1.75,1.75 C -0.783,1.75 0,0.967 0,0"
               style="fill:#e6f7fd;fill-opacity:1;fill-rule:nonzero;stroke:#231f20;stroke-width:0.5;stroke-linecap:butt;stroke-linejoin:miter;stroke-miterlimit:4;stroke-dasharray:none;stroke-opacity:1"
               transform="matrix(1,0,0,-1,-26.584007,39.571297)"
               clip-path="url(#clipPath165)" />
            <path
               id="path166"
               d="M 0,0 V 8.276 L 7.138,4.138 Z"
               style="fill:none;stroke:#231f20;stroke-width:0.5;stroke-linecap:butt;stroke-linejoin:miter;stroke-miterlimit:4;stroke-dasharray:none;stroke-opacity:1"
               transform="matrix(1,0,0,-1,-72.169908,44.1231)"
               clip-path="url(#clipPath167)" />
            <path
               id="path168"
               d="M 0,0 H -27.672"
               style="fill:none;stroke:#231f20;stroke-width:0.5;stroke-linecap:butt;stroke-linejoin:miter;stroke-miterlimit:4;stroke-dasharray:none;stroke-opacity:1"
               transform="matrix(1,0,0,-1,61.087898,39.529297)"
               clip-path="url(#clipPath169)" />
            <path
               id="path170"
               d="M 0,0 H -27.968"
               style="fill:none;stroke:#231f20;stroke-width:0.5;stroke-linecap:butt;stroke-linejoin:miter;stroke-miterlimit:4;stroke-dasharray:none;stroke-opacity:1"
               transform="matrix(1,0,0,-1,131.2481,-3.1103036)"
               clip-path="url(#clipPath171)" />
            <path
               id="path172"
               d="M 0,0 H -27.97"
               style="fill:none;stroke:#231f20;stroke-width:0.5;stroke-linecap:butt;stroke-linejoin:miter;stroke-miterlimit:4;stroke-dasharray:none;stroke-opacity:1"
               transform="matrix(1,0,0,-1,61.0557,-3.1103036)"
               clip-path="url(#clipPath173)" />
            <path
               id="path174"
               d="M 0,0 H -27.97"
               style="fill:none;stroke:#231f20;stroke-width:0.5;stroke-linecap:butt;stroke-linejoin:miter;stroke-miterlimit:4;stroke-dasharray:none;stroke-opacity:1"
               transform="matrix(1,0,0,-1,61.0557,18.209002)"
               clip-path="url(#clipPath175)" />
            <path
               id="path176"
               d="M 0,0 H -24.254"
               style="fill:none;stroke:#231f20;stroke-width:0.5;stroke-linecap:butt;stroke-linejoin:miter;stroke-miterlimit:4;stroke-dasharray:none;stroke-opacity:1"
               transform="matrix(1,0,0,-1,131.2481,39.529297)"
               clip-path="url(#clipPath177)" />
            <path
               id="path178"
               d="m 1.6041203,-5.3906359 c 0.5625,0.023437 0.703125,0.1640625 0.703125,0.375 0,0.09375 -0.023437,0.1875 -0.046875,0.2929687 l -1.1132812,3.99609376 c -0.09375,0.3046875 -0.17578129,0.6328125 -0.48046879,0.6328125 -0.12890625,0 -0.19921875,-0.08203125 -0.19921875,-0.19921875 0,-0.15234375 0.0585938,-0.19921875 0.0585938,-0.3515625 0,-0.22265625 -0.19921875,-0.3515625 -0.3515625,-0.3515625 -0.1171875,0 -0.421875,0.0234375 -0.421875,0.45703125 0,0.17578125 0.10546875,0.65625 0.84375,0.65625 0.89062494,0 1.25390624,-0.48046875 1.55859374,-1.54687496 l 0.9140625,-3.2929688 c 0.082031,-0.328125 0.1992187,-0.6210937 0.7734375,-0.6679687 l 0.035156,-0.1289063 H 1.6509953 Z M 0.06896406,43.535145 H 2.3892766 l 0.046875,-0.140625 c -0.609375,0 -0.7617188,-0.152343 -0.7617188,-0.351562 0,-0.07031 0.023437,-0.199219 0.058594,-0.304688 L 2.283808,40.746083 h 0.1757813 l 1.3359375,1.992187 c 0.1054687,0.152344 0.1875,0.28125 0.1757812,0.398438 0,0.175781 -0.1757812,0.257812 -0.5742187,0.257812 l -0.046875,0.140625 H 5.7174016 L 5.7525578,43.39452 C 5.2603703,43.382802 5.0259953,43.171864 4.5806828,42.503895 L 3.1978703,40.406239 5.4361516,38.601552 c 0.28125,-0.234375 0.5625,-0.386719 0.9726562,-0.457032 l 0.035156,-0.128906 h -1.863281 l -0.046875,0.128906 c 0.1640625,0.02344 0.4804688,0.02344 0.4804688,0.234375 0,0.164063 -0.1289063,0.28125 -0.328125,0.445313 l -2.1679688,1.722656 h -0.1875 l 0.4804688,-1.734375 c 0.09375,-0.328125 0.1992187,-0.621094 0.7851562,-0.667969 l 0.035156,-0.128906 H 1.4049016 l -0.046875,0.128906 c 0.5625,0.02344 0.703125,0.164063 0.703125,0.375 0,0.09375 -0.023437,0.1875 -0.058594,0.292969 l -1.11328124,3.996094 c -0.09375,0.398437 -0.17578125,0.539062 -0.7734375,0.585937 z M 11.992792,16.672841 h -0.140625 c -0.07031,0.152343 -0.128906,0.1875 -0.316406,0.1875 -0.09375,0 -0.234375,-0.05859 -0.433594,-0.117188 -0.210937,-0.05859 -0.457031,-0.117187 -0.785156,-0.117187 -1.8632813,0 -3.6093751,1.640625 -3.6093751,3.515625 0,1.347656 0.9375,2.238281 2.2734375,2.238281 0.9960938,0 1.7695316,-0.46875 2.3906246,-1.21875 l -0.152343,-0.117188 c -0.527344,0.550782 -1.171875,0.972657 -1.9687503,0.972657 -1.1015625,0 -1.6171875,-0.855469 -1.6171875,-1.851563 0,-1.371094 1.1015625,-3.269531 2.6367188,-3.269531 0.925781,0 1.253906,0.445312 1.253906,1.183594 v 0.199218 h 0.140625 z m 1.640625,4.640625 c -0.09375,0.128906 -0.46875,0.585937 -0.632812,0.585937 -0.105469,0 -0.175782,-0.05859 -0.175782,-0.222656 0,-0.09375 0.03516,-0.257813 0.08203,-0.410156 l 1.230468,-4.382813 c 0.03516,-0.105469 0.05859,-0.210937 0.05859,-0.257812 0,-0.05859 -0.02344,-0.08203 -0.09375,-0.08203 -0.05859,0 -0.199219,0.03516 -0.351562,0.07031 -0.199219,0.05859 -0.539063,0.105469 -0.878907,0.128906 l -0.02344,0.128906 c 0.445312,0.01172 0.515625,0.07031 0.515625,0.222657 0,0.105468 -0.02344,0.269531 -0.105469,0.539062 l -0.925781,3.386719 c -0.117188,0.421875 -0.1875,0.644531 -0.1875,0.914062 0,0.257813 0.117187,0.410157 0.386719,0.410157 0.503906,0 0.9375,-0.574219 1.230468,-0.925782 z m 0.665039,0.949218 h 0.679688 l 0.433594,-1.476562 0.503906,-0.386719 0.65625,1.523438 c 0.117187,0.257812 0.28125,0.421875 0.503906,0.421875 0.480469,0 0.855469,-0.480469 1.136719,-0.878907 l -0.152344,-0.105468 c -0.09375,0.1875 -0.445312,0.539062 -0.609375,0.539062 -0.140625,0 -0.269531,-0.199219 -0.421875,-0.5625 l -0.597656,-1.335937 1.066406,-0.808594 c 0.316406,-0.246094 0.644531,-0.433594 0.996094,-0.433594 l 0.02344,-0.140625 h -1.640625 l -0.02344,0.140625 c 0.210937,0 0.398437,0.02344 0.398437,0.164063 0,0.117187 -0.246093,0.328125 -0.5625,0.574218 l -1.183593,0.9375 h -0.01172 l 0.984375,-3.550781 c 0.03516,-0.105469 0.05859,-0.210937 0.05859,-0.257812 0,-0.05859 -0.02344,-0.08203 -0.09375,-0.08203 -0.05859,0 -0.199219,0.03516 -0.351563,0.07031 -0.199219,0.05859 -0.527344,0.105469 -0.878906,0.128906 l -0.02344,0.128906 c 0.457032,0.01172 0.515625,0.07031 0.515625,0.222657 0,0.105468 -0.02344,0.269531 -0.105468,0.539062 z m 0,0"
               style="fill:#231f20;fill-opacity:1;fill-rule:nonzero;stroke:none"
               aria-label="J&#10;K&#10;Clk"
               transform="translate(64.6098,-0.69140357)" />
            <path
               id="path179"
               d="m 0,0 c 0,-0.967 -0.783,-1.75 -1.75,-1.75 -0.967,0 -1.75,0.783 -1.75,1.75 0,0.967 0.783,1.75 1.75,1.75 C -0.783,1.75 0,0.967 0,0"
               style="fill:#e6f7fd;fill-opacity:1;fill-rule:nonzero;stroke:#231f20;stroke-width:0.5;stroke-linecap:butt;stroke-linejoin:miter;stroke-miterlimit:4;stroke-dasharray:none;stroke-opacity:1"
               transform="matrix(1,0,0,-1,106.9981,39.571297)"
               clip-path="url(#clipPath180)" />
            <path
               id="path181"
               d="M 0,0 V 8.276 L 7.138,4.138 Z"
               style="fill:none;stroke:#231f20;stroke-width:0.5;stroke-linecap:butt;stroke-linejoin:miter;stroke-miterlimit:4;stroke-dasharray:none;stroke-opacity:1"
               transform="matrix(1,0,0,-1,61.4121,23.25)"
               clip-path="url(#clipPath182)" />
            <path
               id="path183"
               d="M 0,0 H 17.247 V -22.285 H 36.073"
               style="fill:none;stroke:#231f20;stroke-width:0.5;stroke-linecap:butt;stroke-linejoin:miter;stroke-miterlimit:4;stroke-dasharray:none;stroke-opacity:1"
               transform="matrix(1,0,0,-1,-155.17191,-32.101502)"
               clip-path="url(#clipPath184)" />
            <path
               id="path185"
               d="M 0,0 H 17.288 V 22.069 H 35.31"
               style="fill:none;stroke:#231f20;stroke-width:0.5;stroke-linecap:butt;stroke-linejoin:miter;stroke-miterlimit:4;stroke-dasharray:none;stroke-opacity:1"
               transform="matrix(1,0,0,-1,-155.21291,25.581097)"
               clip-path="url(#clipPath186)" />
            <path
               id="path187"
               d="M 0,0 H 25.305"
               style="fill:none;stroke:#231f20;stroke-width:0.5;stroke-linecap:butt;stroke-linejoin:miter;stroke-miterlimit:4;stroke-dasharray:none;stroke-opacity:1"
               transform="matrix(1,0,0,-1,-207.92971,19.221697)"
               clip-path="url(#clipPath188)" />
            <path
               id="path189"
               d="M 0,0 H 23.126"
               style="fill:none;stroke:#231f20;stroke-width:0.5;stroke-linecap:butt;stroke-linejoin:miter;stroke-miterlimit:4;stroke-dasharray:none;stroke-opacity:1"
               transform="matrix(1,0,0,-1,-247.23831,19.221697)"
               clip-path="url(#clipPath190)" />
            <path
               id="path191"
               d="M 0,0 H -21.053"
               style="fill:none;stroke:#231f20;stroke-width:0.5;stroke-linecap:butt;stroke-linejoin:miter;stroke-miterlimit:4;stroke-dasharray:none;stroke-opacity:1"
               transform="matrix(1,0,0,-1,-72.561506,-3.3573986)"
               clip-path="url(#clipPath192)" />
            <path
               id="path193"
               d="m 0,0 c -6.617,-12.76 -26.906,-10.793 -26.906,-10.793 0,0 2,3.918 2,10.793 0,6.875 -2,10.895 -2,10.895 0,0 20.32,1.918 26.914,-10.895 z"
               style="fill:#e6f7fd;fill-opacity:1;fill-rule:nonzero;stroke:#231f20;stroke-width:0.75;stroke-linecap:butt;stroke-linejoin:round;stroke-miterlimit:4;stroke-dasharray:none;stroke-opacity:1"
               transform="matrix(1,0,0,-1,-93.823204,-3.4433036)"
               clip-path="url(#clipPath194)" />
            <path
               id="path195"
               d="M 0,0 H -19.806 V -37.267 H 162.8 v 72.585"
               style="fill:none;stroke:#231f20;stroke-width:0.5;stroke-linecap:butt;stroke-linejoin:miter;stroke-miterlimit:4;stroke-dasharray:none;stroke-opacity:1"
               transform="matrix(1,0,0,-1,-182.58401,32.278402)"
               clip-path="url(#clipPath196)" />
            <path
               id="path197"
               d="m 0,0 h 18.25 c 4.924,0 8.916,-4.664 8.916,-10.416 0,-5.754 -3.867,-10.793 -8.791,-10.793 H 0 Z"
               style="fill:#e6f7fd;fill-opacity:1;fill-rule:nonzero;stroke:#231f20;stroke-width:0.75;stroke-linecap:butt;stroke-linejoin:miter;stroke-miterlimit:4;stroke-dasharray:none;stroke-opacity:1"
               transform="matrix(1,0,0,-1,-182.47751,15.145499)"
               clip-path="url(#clipPath198)" />
            <path
               id="path199"
               d="M 0,0 H -17.836 V 18.072 H 172.469 V -78.29"
               style="fill:none;stroke:#231f20;stroke-width:0.5;stroke-linecap:butt;stroke-linejoin:miter;stroke-miterlimit:4;stroke-dasharray:none;stroke-opacity:1"
               transform="matrix(1,0,0,-1,-182.58401,-38.833)"
               clip-path="url(#clipPath200)" />
            <path
               id="path201"
               d="M 0,0 H -61.813"
               style="fill:none;stroke:#231f20;stroke-width:0.5;stroke-linecap:butt;stroke-linejoin:miter;stroke-miterlimit:4;stroke-dasharray:none;stroke-opacity:1"
               transform="matrix(1,0,0,-1,-182.58401,-25.555599)"
               clip-path="url(#clipPath202)" />
            <path
               id="path203"
               d="m 0,0 h 18.25 c 4.924,0 8.916,-4.664 8.916,-10.416 0,-5.754 -3.867,-10.793 -8.791,-10.793 H 0 Z"
               style="fill:#e6f7fd;fill-opacity:1;fill-rule:nonzero;stroke:#231f20;stroke-width:0.75;stroke-linecap:butt;stroke-linejoin:miter;stroke-miterlimit:4;stroke-dasharray:none;stroke-opacity:1"
               transform="matrix(1,0,0,-1,-182.47751,-42.688405)"
               clip-path="url(#clipPath204)" />
            <path
               id="path205"
               d="m 0,0 c 0,-0.967 -0.783,-1.75 -1.75,-1.75 -0.967,0 -1.75,0.783 -1.75,1.75 0,0.967 0.783,1.75 1.75,1.75 C -0.783,1.75 0,0.967 0,0"
               style="fill:#e6f7fd;fill-opacity:1;fill-rule:nonzero;stroke:#231f20;stroke-width:0.5;stroke-linecap:butt;stroke-linejoin:miter;stroke-miterlimit:4;stroke-dasharray:none;stroke-opacity:1"
               transform="matrix(1,0,0,-1,-207.84081,19.280302)"
               clip-path="url(#clipPath206)" />
            <path
               id="path207"
               d="M 0,0 12.278,7.012 -0.001,14.023 Z"
               style="fill:#e6f7fd;fill-opacity:1;fill-rule:nonzero;stroke:#231f20;stroke-width:0.75;stroke-linecap:butt;stroke-linejoin:miter;stroke-miterlimit:4;stroke-dasharray:none;stroke-opacity:1"
               transform="matrix(1,0,0,-1,-224.18651,26.292)"
               clip-path="url(#clipPath208)" />
            <path
               id="path209"
               d="m 1.6045266,-5.3896937 c 0.5625,0.023437 0.703125,0.1640625 0.703125,0.375 0,0.09375 -0.023437,0.1875 -0.046875,0.2929687 l -1.1132813,3.99609375 c -0.09375,0.3046875 -0.17578124,0.6328125 -0.48046874,0.6328125 -0.12890625,0 -0.19921875,-0.08203125 -0.19921875,-0.19921875 0,-0.15234375 0.0585938,-0.19921875 0.0585938,-0.3515625 0,-0.22265625 -0.19921875,-0.3515625 -0.3515625,-0.3515625 -0.1171875,0 -0.421875,0.0234375 -0.421875,0.45703125 0,0.17578125 0.10546875,0.65625 0.84375,0.65625 0.89062499,0 1.25390619,-0.48046875 1.55859369,-1.54687495 L 3.0693703,-4.721725 C 3.1514016,-5.04985 3.2685891,-5.3428187 3.8428078,-5.3896937 L 3.8779641,-5.5186 H 1.6514016 Z M -1.9696922,44.775345 h 2.32031251 l 0.046875,-0.140625 c -0.609375,0 -0.76171875,-0.152343 -0.76171875,-0.351562 0,-0.07031 0.0234375,-0.199219 0.0585938,-0.304688 l 0.5507812,-1.992187 H 0.42093281 L 1.7568703,43.97847 c 0.1054688,0.152344 0.1875,0.28125 0.1757813,0.398438 0,0.175781 -0.1757813,0.257812 -0.5742188,0.257812 l -0.046875,0.140625 H 3.6787453 L 3.7139016,44.63472 C 3.2217141,44.623002 2.9873391,44.412064 2.5420266,43.744095 L 1.1592141,41.646439 3.3974953,39.841752 c 0.28125,-0.234375 0.5625,-0.386719 0.9726563,-0.457032 l 0.035156,-0.128906 h -1.863281 l -0.046875,0.128906 c 0.1640625,0.02344 0.4804687,0.02344 0.4804687,0.234375 0,0.164063 -0.1289062,0.28125 -0.328125,0.445313 l -2.16796874,1.722656 h -0.1875 l 0.48046875,-1.734375 c 0.09375,-0.328125 0.19921875,-0.621094 0.78515629,-0.667969 l 0.035156,-0.128906 h -2.22656249 l -0.046875,0.128906 c 0.5625,0.02344 0.703125,0.164063 0.703125,0.375 0,0.09375 -0.0234374975,0.1875 -0.05859375,0.292969 l -1.11328126,3.996094 c -0.09375,0.398437 -0.1757812,0.539062 -0.7734375,0.585937 z m 0,0"
               style="fill:#231f20;fill-opacity:1;fill-rule:nonzero;stroke:none"
               aria-label="J&#10;K"
               transform="translate(-253.07421,-22.744104)" />
            <path
               id="path210"
               d="M 0,0 C 0,-0.828 -0.672,-1.5 -1.5,-1.5 -2.328,-1.5 -3,-0.828 -3,0 -3,0.829 -2.328,1.5 -1.5,1.5 -0.672,1.5 0,0.829 0,0"
               style="fill:#231f20;fill-opacity:1;fill-rule:nonzero;stroke:none"
               transform="matrix(1,0,0,-1,-18.209004,-2.9004011)"
               clip-path="url(#clipPath211)" />
            <path
               id="path212"
               d="M 0,0 C 0,-0.828 -0.672,-1.5 -1.5,-1.5 -2.328,-1.5 -3,-0.828 -3,0 -3,0.829 -2.328,1.5 -1.5,1.5 -0.672,1.5 0,0.829 0,0"
               style="fill:#231f20;fill-opacity:1;fill-rule:nonzero;stroke:none"
               transform="matrix(1,0,0,-1,-8.6064017,39.5547)"
               clip-path="url(#clipPath213)" />
            <path
               id="path214"
               d="m 4.2305219,-5.3671922 c 0.8789062,0 1.1601562,0.5507813 1.1601562,1.4648438 0,1.3125 -0.9492187,3.74999996 -2.6367187,3.74999996 -0.796875,0 -1.2070313,-0.5625 -1.2070313,-1.39453126 0,-1.5351562 0.9140625,-3.8203125 2.6835938,-3.8203125 z M 0.75005313,1.4296828 C 1.0430219,1.2187453 1.3477094,1.0898391 1.7109906,1.0898391 c 0.375,0 0.7265625,0.09375 1.078125,0.1875 0.3515625,0.09375 0.7148438,0.234375 1.2539063,0.234375 0.7148437,0 1.3710937,-0.3867188 1.875,-1.08984379 L 5.8008344,0.30468281 C 5.4844281,0.69140156 5.0859906,0.99608906 4.5703656,0.99608906 c -0.4453125,0 -0.7148437,-0.1171875 -1.1015625,-0.22265625 -0.375,-0.10546875 -0.7734375,-0.2109375 -1.21875,-0.2109375 -0.140625,0 -0.234375,0.0117188 -0.2929687,0.0234375 l -0.023437,-0.0234375 c 0.1757812,-0.12890625 0.3515625,-0.3046875 0.4804687,-0.46875 0.082031,0.01171875 0.1757813,0.0234375 0.2578125,0.0234375 1.921875,0 3.6445313,-2.00390621 3.6445313,-3.76171871 0,-1.21875 -0.8671875,-1.9921875 -2.015625,-1.9921875 -2.0625,0 -3.67968752,1.9335937 -3.67968752,3.75 0,0.6445312 0.41015622,1.67578121 1.51171872,1.93359371 -0.4335937,0.46875 -0.9609375,0.92578125 -1.46484372,1.25390629 z M 5.5664594,37.27148 c 0.8789062,0 1.1601562,0.550781 1.1601562,1.464843 0,1.3125 -0.9492187,3.75 -2.6367187,3.75 -0.796875,0 -1.2070313,-0.5625 -1.2070313,-1.394531 0,-1.535156 0.9140625,-3.820312 2.6835938,-3.820312 z m -3.4804688,6.796875 c 0.2929688,-0.210938 0.5976563,-0.339844 0.9609375,-0.339844 0.375,0 0.7265625,0.09375 1.078125,0.1875 0.3515625,0.09375 0.7148438,0.234375 1.2539063,0.234375 0.7148437,0 1.3710937,-0.386719 1.875,-1.089844 L 7.1367719,42.943355 c -0.3164063,0.386718 -0.7148438,0.691406 -1.2304688,0.691406 -0.4453125,0 -0.7148437,-0.117188 -1.1015625,-0.222656 -0.375,-0.105469 -0.7734375,-0.210938 -1.21875,-0.210938 -0.140625,0 -0.234375,0.01172 -0.2929687,0.02344 l -0.023437,-0.02344 c 0.1757812,-0.128906 0.3515625,-0.304687 0.4804687,-0.46875 0.082031,0.01172 0.1757813,0.02344 0.2578125,0.02344 1.921875,0 3.6445313,-2.003907 3.6445313,-3.761719 0,-1.21875 -0.8671875,-1.992188 -2.015625,-1.992188 -2.0625,0 -3.6796875,1.933594 -3.6796875,3.75 0,0.644532 0.4101562,1.675782 1.5117187,1.933594 -0.4335937,0.46875 -0.9609375,0.925781 -1.4648437,1.253906 z m 0,0"
               style="fill:#231f20;fill-opacity:1;fill-rule:nonzero;stroke:none" />
            <path
               id="path215"
               d="m 8.9736859,39.24023 0.703125,-1.441407 c 0.058594,-0.140625 0.1992188,-0.363281 0.1992188,-0.539062 0,-0.1875 -0.1171875,-0.316406 -0.3164063,-0.316406 -0.2460937,0 -0.3398437,0.152343 -0.3867187,0.375 l -0.375,1.921875 z m 0,0"
               style="fill:#231f20;fill-opacity:1;fill-rule:nonzero;stroke:none" />
            <path
               id="path216"
               d="m -98.701119,36.752925 h -0.140625 c -0.07031,0.152344 -0.128906,0.1875 -0.316406,0.1875 -0.09375,0 -0.234375,-0.05859 -0.433594,-0.117188 -0.210937,-0.05859 -0.457026,-0.117187 -0.785156,-0.117187 -1.86328,0 -3.60937,1.640625 -3.60937,3.515625 0,1.347656 0.9375,2.238281 2.27343,2.238281 0.9961,0 1.769534,-0.46875 2.390628,-1.21875 l -0.152344,-0.117187 c -0.527344,0.550781 -1.171874,0.972656 -1.968754,0.972656 -1.10156,0 -1.61718,-0.855469 -1.61718,-1.851563 0,-1.371093 1.10156,-3.269531 2.63672,-3.269531 0.925776,0 1.253901,0.445313 1.253901,1.183594 v 0.199219 h 0.140625 z m 1.637696,4.640625 c -0.09375,0.128906 -0.46875,0.585937 -0.632813,0.585937 -0.105469,0 -0.175781,-0.05859 -0.175781,-0.222656 0,-0.09375 0.03516,-0.257812 0.08203,-0.410156 l 1.230469,-4.382813 c 0.03516,-0.105468 0.05859,-0.210937 0.05859,-0.257812 0,-0.05859 -0.02344,-0.08203 -0.09375,-0.08203 -0.05859,0 -0.199219,0.03516 -0.351563,0.07031 -0.199219,0.05859 -0.539062,0.105469 -0.878906,0.128906 l -0.02344,0.128907 c 0.445313,0.01172 0.515625,0.07031 0.515625,0.222656 0,0.105469 -0.02344,0.269531 -0.105468,0.539062 l -0.925782,3.386719 c -0.117187,0.421875 -0.1875,0.644531 -0.1875,0.914063 0,0.257812 0.117188,0.410156 0.386719,0.410156 0.503906,0 0.9375,-0.574219 1.230469,-0.925781 z m 0.665039,0.949219 h 0.679687 l 0.433594,-1.476563 0.503906,-0.386719 0.65625,1.523438 c 0.117188,0.257812 0.28125,0.421875 0.503906,0.421875 0.480469,0 0.855469,-0.480469 1.136719,-0.878906 l -0.152344,-0.105469 c -0.09375,0.1875 -0.445312,0.539062 -0.609375,0.539062 -0.140625,0 -0.269531,-0.199218 -0.421875,-0.5625 l -0.597656,-1.335937 1.066406,-0.808594 c 0.316407,-0.246094 0.644532,-0.433594 0.996094,-0.433594 l 0.02344,-0.140625 h -1.640625 l -0.02344,0.140625 c 0.210938,0 0.398438,0.02344 0.398438,0.164063 0,0.117187 -0.246094,0.328125 -0.5625,0.574219 l -1.183594,0.9375 h -0.01172 l 0.984375,-3.550782 c 0.03516,-0.105468 0.05859,-0.210937 0.05859,-0.257812 0,-0.05859 -0.02344,-0.08203 -0.09375,-0.08203 -0.05859,0 -0.199219,0.03516 -0.351563,0.07031 -0.199218,0.05859 -0.527343,0.105469 -0.878906,0.128906 l -0.02344,0.128907 c 0.457031,0.01172 0.515625,0.07031 0.515625,0.222656 0,0.105469 -0.02344,0.269531 -0.105469,0.539062 z m 40.409179,-5.589844 h -0.140625 c -0.07031,0.152344 -0.128906,0.1875 -0.316406,0.1875 -0.09375,0 -0.234375,-0.05859 -0.433594,-0.117188 -0.210937,-0.05859 -0.457031,-0.117187 -0.785156,-0.117187 -1.863281,0 -3.609375,1.640625 -3.609375,3.515625 0,1.347656 0.9375,2.238281 2.273438,2.238281 0.996093,0 1.769531,-0.46875 2.390625,-1.21875 l -0.152344,-0.117187 c -0.527344,0.550781 -1.171875,0.972656 -1.96875,0.972656 -1.101563,0 -1.617188,-0.855469 -1.617188,-1.851563 0,-1.371093 1.101563,-3.269531 2.636719,-3.269531 0.925781,0 1.253906,0.445313 1.253906,1.183594 v 0.199219 h 0.140625 z m 1.637696,4.640625 c -0.09375,0.128906 -0.46875,0.585937 -0.632813,0.585937 -0.105469,0 -0.175781,-0.05859 -0.175781,-0.222656 0,-0.09375 0.03516,-0.257812 0.08203,-0.410156 l 1.230469,-4.382813 c 0.03516,-0.105468 0.05859,-0.210937 0.05859,-0.257812 0,-0.05859 -0.02344,-0.08203 -0.09375,-0.08203 -0.05859,0 -0.199219,0.03516 -0.351563,0.07031 -0.199219,0.05859 -0.539062,0.105469 -0.878906,0.128906 l -0.02344,0.128907 c 0.445313,0.01172 0.515625,0.07031 0.515625,0.222656 0,0.105469 -0.02344,0.269531 -0.105468,0.539062 l -0.925782,3.386719 c -0.117187,0.421875 -0.1875,0.644531 -0.1875,0.914063 0,0.257812 0.117188,0.410156 0.386719,0.410156 0.503906,0 0.9375,-0.574219 1.230469,-0.925781 z m 0.665039,0.949219 h 0.679687 l 0.433594,-1.476563 0.503906,-0.386719 0.65625,1.523438 c 0.117188,0.257812 0.28125,0.421875 0.503906,0.421875 0.480469,0 0.855469,-0.480469 1.136719,-0.878906 l -0.152344,-0.105469 c -0.09375,0.1875 -0.445312,0.539062 -0.609375,0.539062 -0.140625,0 -0.269531,-0.199218 -0.421875,-0.5625 l -0.597656,-1.335937 1.066406,-0.808594 c 0.316407,-0.246094 0.644532,-0.433594 0.996094,-0.433594 l 0.02344,-0.140625 h -1.640625 l -0.02344,0.140625 c 0.210938,0 0.398438,0.02344 0.398438,0.164063 0,0.117187 -0.246094,0.328125 -0.5625,0.574219 l -1.183594,0.9375 h -0.01172 l 0.984375,-3.550782 c 0.03516,-0.105468 0.05859,-0.210937 0.05859,-0.257812 0,-0.05859 -0.02344,-0.08203 -0.09375,-0.08203 -0.05859,0 -0.199219,0.03516 -0.351563,0.07031 -0.199218,0.05859 -0.527343,0.105469 -0.878906,0.128906 l -0.02344,0.128907 c 0.457031,0.01172 0.515625,0.07031 0.515625,0.222656 0,0.105469 -0.02344,0.269531 -0.105469,0.539062 z m 0,0"
               style="fill:#231f20;fill-opacity:1;fill-rule:nonzero;stroke:none" />
            <path
               id="path217"
               d="m -133.57649,77.086615 h -0.16407 c -0.0586,0.597656 -0.73828,-0.05859 -1.83984,-0.05859 -1.6875,0 -3,1.21875 -3,2.941406 0,1.886719 1.42969,2.835938 3.02344,2.835938 0.55078,0 1.48828,-0.175781 2.26172,-1.253906 l -0.14063,-0.128907 c -0.50391,0.621094 -1.11328,1.089844 -2.05078,1.089844 -1.27734,0 -2.12109,-1.007812 -2.12109,-2.671875 0,-1.265625 0.66796,-2.519531 2.10937,-2.519531 0.96094,0 1.6875,0.621094 1.89844,1.546875 h 0.16406 z m 0.51269,2.273437 h 0.10547 c 0.375,0 0.49219,0.140625 0.49219,0.445313 v 2.179687 c 0,0.46875 -0.16407,0.527344 -0.59766,0.527344 v 0.164063 h 1.89844 v -0.164063 c -0.4336,0 -0.59766,-0.05859 -0.59766,-0.527344 v -3.152343 c -0.38672,0.128906 -0.84375,0.292968 -1.30078,0.375 z m 0.49219,-1.96875 c 0,0.234375 0.1875,0.421875 0.43359,0.421875 0.23438,0 0.4336,-0.1875 0.4336,-0.421875 0,-0.246093 -0.19922,-0.433593 -0.4336,-0.433593 -0.24609,0 -0.43359,0.1875 -0.43359,0.433593 z m 1.73437,5.285157 h 2.01563 v -0.164063 c -0.58594,0 -0.67969,-0.08203 -0.67969,-0.714844 v -1.863281 c 0,-0.04687 0.31641,-0.550781 0.60938,-0.550781 0.0937,0 0.15234,0.04687 0.21093,0.105469 0.0703,0.05859 0.14063,0.117187 0.26953,0.117187 0.19922,0 0.38672,-0.152344 0.38672,-0.363281 0,-0.269531 -0.23437,-0.410156 -0.46875,-0.410156 -0.39843,0 -0.77343,0.457031 -1.00781,0.714843 v -0.714843 h -0.0352 c -0.41015,0.140625 -0.85546,0.269531 -1.30078,0.386718 v 0.164063 c 0.5625,0 0.63282,0.07031 0.63282,0.644531 v 1.757813 c 0,0.585937 -0.0234,0.703125 -0.63282,0.726562 z m 5.05664,-3.84375 c -1.08984,0 -1.86328,0.855468 -1.86328,1.921875 0,1.710937 1.06641,2.003906 1.58203,2.003906 0.8086,0 1.24219,-0.492188 1.64063,-1.277344 l -0.15235,-0.09375 c -0.22265,0.421875 -0.64453,0.761719 -1.14843,0.761719 -0.86719,0 -1.26563,-0.878906 -1.26563,-1.628906 0,-0.632813 0.30469,-1.394532 1.04297,-1.394532 0.26953,0 0.53906,0.128907 0.53906,0.410157 0,0.246093 0.15235,0.503906 0.42188,0.503906 0.23437,0 0.41015,-0.175781 0.41015,-0.433594 0,-0.550781 -0.77343,-0.773437 -1.20703,-0.773437 z m 5.14453,0 -1.27734,0.08203 v 0.164062 c 0.25781,0 0.57422,0.03516 0.57422,0.421875 v 2.25 c -0.0937,0.1875 -0.43359,0.503907 -0.85547,0.503907 -0.46875,0 -0.69141,-0.316407 -0.69141,-0.75 v -2.671875 l -1.28906,0.08203 V 79.0788 c 0.26953,0 0.58594,0.03516 0.58594,0.421875 v 2.261719 c 0,0.667969 0.44531,0.996094 1.08984,0.996094 0.51563,0 0.84375,-0.316406 1.1836,-0.65625 v 0.65625 h 0.0352 c 0.38672,-0.140625 0.8086,-0.246094 1.21875,-0.351563 v -0.164062 c -0.29297,-0.01172 -0.57422,-0.04687 -0.57422,-0.375 z m 0.90821,0.527343 h 0.10547 c 0.375,0 0.49218,0.140625 0.49218,0.445313 v 2.179687 c 0,0.46875 -0.16406,0.527344 -0.59765,0.527344 v 0.164063 h 1.89844 v -0.164063 c -0.4336,0 -0.59766,-0.05859 -0.59766,-0.527344 v -3.152343 c -0.38672,0.128906 -0.84375,0.292968 -1.30078,0.375 z m 0.49219,-1.96875 c 0,0.234375 0.1875,0.421875 0.43359,0.421875 0.23437,0 0.43359,-0.1875 0.43359,-0.421875 0,-0.246093 -0.19922,-0.433593 -0.43359,-0.433593 -0.24609,0 -0.43359,0.1875 -0.43359,0.433593 z m 2.33203,1.757813 v 2.507812 c 0,0.5625 0.082,1.101563 0.76172,1.101563 0.45703,0 0.73828,-0.292969 1.00781,-0.644531 l -0.14063,-0.08203 c -0.11718,0.128907 -0.3164,0.28125 -0.5039,0.28125 -0.1875,0 -0.42188,-0.08203 -0.42188,-0.667968 v -2.496094 h 0.89063 v -0.234375 h -0.89063 v -1.136719 h -0.16406 c -0.22266,0.539063 -0.63281,0.996094 -1.11328,1.265625 v 0.105469 z m 4.91015,1.511719 c 0,-0.703125 0.28125,-1.582032 1.08985,-1.582032 0.41015,0 0.73828,0.1875 0.91406,0.585938 0.0469,0.08203 0.0469,0.316406 0.0469,0.503906 v 1.816406 c 0,0.117188 -0.375,0.269532 -0.80859,0.269532 -0.86719,0 -1.24219,-0.855469 -1.24219,-1.59375 z m 2.05078,-1.453125 c -0.30468,-0.257813 -0.5625,-0.375 -0.96093,-0.375 -1.01953,0 -1.79297,0.972656 -1.79297,2.074218 0,1.675782 1.21875,1.851563 1.60547,1.851563 0.43359,0 0.82031,-0.117188 1.16015,-0.550781 h 0.0234 v 0.550781 c 0.375,-0.140625 0.76172,-0.246094 1.16016,-0.339844 v -0.164062 c -0.45703,0 -0.49219,-0.105469 -0.49219,-0.574219 v -4.722656 c -0.375,0.07031 -0.82031,0.257812 -1.25391,0.339843 v 0.164063 h 0.0937 c 0.22266,0 0.45703,0.04687 0.45703,0.304687 z m 1.55274,0.152343 h 0.10547 c 0.375,0 0.49218,0.140625 0.49218,0.445313 v 2.179687 c 0,0.46875 -0.16406,0.527344 -0.59765,0.527344 v 0.164063 h 1.89844 v -0.164063 c -0.4336,0 -0.59766,-0.05859 -0.59766,-0.527344 v -3.152343 c -0.38672,0.128906 -0.84375,0.292968 -1.30078,0.375 z m 0.49219,-1.96875 c 0,0.234375 0.1875,0.421875 0.43359,0.421875 0.23437,0 0.43359,-0.1875 0.43359,-0.421875 0,-0.246093 -0.19922,-0.433593 -0.43359,-0.433593 -0.24609,0 -0.43359,0.1875 -0.43359,0.433593 z m 2.6455,4.289063 c 0,-0.726563 0.92579,-0.972656 1.46485,-1.195313 v 1.371094 c 0,0.199219 -0.43359,0.503906 -0.78516,0.503906 -0.44531,0 -0.67969,-0.246093 -0.67969,-0.679687 z m 2.16798,-1.441406 c 0,-0.902344 -0.32813,-1.40625 -1.3125,-1.40625 -0.51563,0 -1.38282,0.246093 -1.38282,0.878906 0,0.222656 0.10547,0.398437 0.33984,0.398437 0.25782,0 0.36329,-0.199218 0.36329,-0.421875 0,-0.09375 -0.0234,-0.175781 -0.0117,-0.269531 0.0117,-0.269531 0.41016,-0.339844 0.60937,-0.339844 0.59766,0 0.69141,0.433594 0.69141,0.785157 v 0.421875 c -0.36328,0.105468 -0.92578,0.257812 -1.32422,0.46875 -0.46875,0.246093 -0.85547,0.585937 -0.85547,1.125 0,0.503906 0.39844,0.878906 0.90234,0.878906 0.49219,0 0.91407,-0.246094 1.28907,-0.527344 0.0117,0.257813 0.1875,0.527344 0.46875,0.527344 0.38672,0 0.64453,-0.1875 0.84375,-0.503906 l -0.0937,-0.08203 c -0.0703,0.08203 -0.17578,0.1875 -0.30469,0.1875 -0.21094,0 -0.22265,-0.210937 -0.22265,-0.375 z m 1.44433,3.234375 c 0,-0.269532 0.29297,-0.632813 0.41016,-0.667969 2.179678,0 2.367178,0.105469 2.367178,0.515625 0,0.574219 -0.85546,0.832031 -1.289058,0.832031 -0.44531,0 -1.48828,-0.02344 -1.48828,-0.679687 z m 1.13672,-4.394532 c 0.609368,0 0.785158,0.914063 0.785158,1.359375 0,0.386719 -0.14063,0.867188 -0.609378,0.867188 -0.60937,0 -0.78516,-0.914063 -0.78516,-1.382813 0,-0.796875 0.45704,-0.84375 0.60938,-0.84375 z m 1.945308,0.04687 h -0.96094 c -0.0469,-0.01172 -0.19921,-0.292968 -0.902338,-0.292968 -0.72656,0 -1.39453,0.644531 -1.39453,1.371093 0,0.5625 0.1875,0.914063 0.65625,1.21875 -0.19922,0.175782 -0.60938,0.5625 -0.60938,0.855469 0,0.199219 0.12891,0.386719 0.30469,0.457031 -0.23437,0.234375 -0.63281,0.65625 -0.63281,1.007813 0,0.632812 0.78516,0.808594 1.28906,0.808594 0.902348,0 2.296878,-0.445313 2.296878,-1.511719 0,-0.84375 -1.10157,-0.75 -1.687498,-0.785156 -0.82032,-0.02344 -1.00782,-0.09375 -1.00782,-0.398438 0,-0.210937 0.17579,-0.328125 0.28125,-0.328125 0.0234,0 0.11719,0.02344 0.45704,0.02344 0.843748,0 1.453118,-0.550782 1.453118,-1.394532 0,-0.246093 -0.082,-0.492187 -0.1875,-0.726562 h 0.64453 z m 0.39258,3.550782 h 2.015625 v -0.164063 c -0.585938,0 -0.679688,-0.08203 -0.679688,-0.714844 v -1.863281 c 0,-0.04687 0.316407,-0.550781 0.609375,-0.550781 0.09375,0 0.152344,0.04687 0.210938,0.105469 0.07031,0.05859 0.140625,0.117187 0.269531,0.117187 0.199219,0 0.386719,-0.152344 0.386719,-0.363281 0,-0.269531 -0.234375,-0.410156 -0.46875,-0.410156 -0.398438,0 -0.773438,0.457031 -1.007813,0.714843 v -0.714843 h -0.03516 c -0.410156,0.140625 -0.855469,0.269531 -1.300781,0.386718 v 0.164063 c 0.5625,0 0.632812,0.07031 0.632812,0.644531 v 1.757813 c 0,0.585937 -0.02344,0.703125 -0.632812,0.726562 z m 4.02539,-0.996094 c 0,-0.726563 0.925782,-0.972656 1.464844,-1.195313 v 1.371094 c 0,0.199219 -0.433594,0.503906 -0.785156,0.503906 -0.445313,0 -0.679688,-0.246093 -0.679688,-0.679687 z m 2.167969,-1.441406 c 0,-0.902344 -0.328125,-1.40625 -1.3125,-1.40625 -0.515625,0 -1.382812,0.246093 -1.382812,0.878906 0,0.222656 0.105468,0.398437 0.339843,0.398437 0.257813,0 0.363282,-0.199218 0.363282,-0.421875 0,-0.09375 -0.02344,-0.175781 -0.01172,-0.269531 0.01172,-0.269531 0.410156,-0.339844 0.609375,-0.339844 0.597656,0 0.691406,0.433594 0.691406,0.785157 v 0.421875 c -0.363281,0.105468 -0.925781,0.257812 -1.324219,0.46875 -0.46875,0.246093 -0.855468,0.585937 -0.855468,1.125 0,0.503906 0.398437,0.878906 0.902343,0.878906 0.492188,0 0.914063,-0.246094 1.289063,-0.527344 0.01172,0.257813 0.1875,0.527344 0.46875,0.527344 0.386719,0 0.644531,-0.1875 0.84375,-0.503906 l -0.09375,-0.08203 c -0.07031,0.08203 -0.175781,0.1875 -0.304688,0.1875 -0.210937,0 -0.222656,-0.210937 -0.222656,-0.375 z m 0.905274,2.4375 h 1.875 v -0.164063 c -0.421875,0 -0.597657,-0.05859 -0.597657,-0.527344 v -2.25 c 0.246094,-0.210937 0.527344,-0.398437 0.855469,-0.398437 0.398438,0 0.703125,0.222656 0.703125,0.785156 v 1.863281 c 0,0.46875 -0.175781,0.527344 -0.597656,0.527344 v 0.164063 h 1.875 v -0.164063 c -0.410156,0 -0.574219,-0.05859 -0.574219,-0.527344 v -2.25 c 0.257813,-0.257812 0.585938,-0.398437 0.84375,-0.398437 0.410156,0 0.703125,0.222656 0.703125,0.785156 v 1.863281 c 0,0.46875 -0.164062,0.527344 -0.585937,0.527344 v 0.164063 h 1.875 v -0.164063 c -0.410157,0 -0.585938,-0.05859 -0.585938,-0.527344 v -1.839843 c 0,-0.960938 -0.375,-1.3125 -1.007812,-1.3125 -0.398438,0 -0.75,0.222656 -1.300782,0.667968 -0.1875,-0.445312 -0.457031,-0.667968 -0.949218,-0.667968 -0.503907,0 -0.878907,0.328125 -1.253907,0.621093 v -0.621093 c -0.386718,0.128906 -0.832031,0.292968 -1.277343,0.375 v 0.152343 h 0.08203 c 0.375,0 0.492187,0.140625 0.492187,0.445313 v 2.179687 c 0,0.46875 -0.164062,0.527344 -0.574218,0.527344 z M 60.374677,78.16474 60.269208,76.47724 h -0.128906 c -0.03516,0.199219 -0.128906,0.269531 -0.257813,0.269531 -0.152343,0 -0.375,-0.08203 -0.644531,-0.164062 -0.269531,-0.08203 -0.597656,-0.164063 -1.089844,-0.164063 -1.6875,0 -3,1.21875 -3,2.941406 0,1.886719 1.429688,2.835938 3.023438,2.835938 0.984375,0 2.074219,-0.398438 2.332031,-0.691406 V 79.75849 c 0,-0.46875 0.292969,-0.503906 0.667969,-0.503906 v -0.164063 h -2.367188 v 0.164063 c 0.46875,0 0.832032,0.03516 0.832032,0.539062 v 1.675781 c -0.199219,0.328125 -0.949219,0.433594 -1.394532,0.433594 -1.277343,0 -2.121093,-1.007812 -2.121093,-2.671875 0,-1.265625 0.667968,-2.519531 2.109375,-2.519531 1.007812,0 1.664062,0.480469 1.980468,1.453125 z m 1.177734,3.902344 h 2.015625 v -0.164063 c -0.585937,0 -0.679687,-0.08203 -0.679687,-0.714844 v -1.863281 c 0,-0.04687 0.316406,-0.550781 0.609375,-0.550781 0.09375,0 0.152344,0.04687 0.210937,0.105469 0.07031,0.05859 0.140625,0.117187 0.269532,0.117187 0.199218,0 0.386718,-0.152344 0.386718,-0.363281 0,-0.269531 -0.234375,-0.410156 -0.46875,-0.410156 -0.398437,0 -0.773437,0.457031 -1.007812,0.714843 v -0.714843 h -0.03516 c -0.410157,0.140625 -0.855469,0.269531 -1.300782,0.386718 v 0.164063 c 0.5625,0 0.632813,0.07031 0.632813,0.644531 v 1.757813 c 0,0.585937 -0.02344,0.703125 -0.632813,0.726562 z m 4.028321,-0.996094 c 0,-0.726563 0.925781,-0.972656 1.464843,-1.195313 v 1.371094 c 0,0.199219 -0.433593,0.503906 -0.785156,0.503906 -0.445312,0 -0.679687,-0.246093 -0.679687,-0.679687 z M 67.7487,79.629584 c 0,-0.902344 -0.328125,-1.40625 -1.3125,-1.40625 -0.515625,0 -1.382812,0.246093 -1.382812,0.878906 0,0.222656 0.105469,0.398437 0.339844,0.398437 0.257812,0 0.363281,-0.199218 0.363281,-0.421875 0,-0.09375 -0.02344,-0.175781 -0.01172,-0.269531 0.01172,-0.269531 0.410156,-0.339844 0.609375,-0.339844 0.597656,0 0.691406,0.433594 0.691406,0.785157 v 0.421875 c -0.363281,0.105468 -0.925781,0.257812 -1.324218,0.46875 -0.46875,0.246093 -0.855469,0.585937 -0.855469,1.125 0,0.503906 0.398437,0.878906 0.902344,0.878906 0.492187,0 0.914062,-0.246094 1.289062,-0.527344 0.01172,0.257813 0.1875,0.527344 0.46875,0.527344 0.386719,0 0.644531,-0.1875 0.84375,-0.503906 l -0.09375,-0.08203 c -0.07031,0.08203 -0.175781,0.1875 -0.304687,0.1875 -0.210938,0 -0.222657,-0.210937 -0.222657,-0.375 z m 2.147461,-0.328125 c 0,-0.152344 0.351563,-0.574219 0.867188,-0.574219 0.878906,0 1.183594,0.878906 1.183594,1.628906 0,0.667969 -0.328125,1.546875 -1.136719,1.546875 -0.328125,0 -0.785156,-0.175781 -0.914063,-0.527344 z m -0.703125,3.972656 c 0,0.503906 -0.234375,0.503906 -0.574218,0.503906 v 0.164063 h 1.921875 v -0.164063 c -0.386719,0 -0.644532,0 -0.644532,-0.445312 v -1.453125 c 0.257813,0.210937 0.585938,0.269531 0.914063,0.269531 1.183594,0 1.839844,-1.183594 1.839844,-2.191406 0,-0.9375 -0.574219,-1.734375 -1.546875,-1.734375 -0.492188,0 -0.925782,0.304687 -1.195313,0.679687 H 69.89616 V 78.223334 H 69.861 c -0.386719,0.222656 -0.808594,0.398437 -1.242187,0.503906 v 0.152344 h 0.175781 c 0.351562,0 0.398437,0.117187 0.398437,0.585937 z m 3.919922,-1.207031 h 1.875 v -0.164063 c -0.421875,0 -0.585937,-0.05859 -0.585937,-0.527344 v -2.25 c 0.234375,-0.210937 0.515625,-0.398437 0.84375,-0.398437 0.410156,0 0.703125,0.222656 0.703125,0.785156 v 1.863281 c 0,0.46875 -0.164063,0.527344 -0.585938,0.527344 v 0.164063 h 1.863281 v -0.164063 c -0.398437,0 -0.574218,-0.05859 -0.574218,-0.527344 v -1.839843 c 0,-0.960938 -0.375,-1.3125 -1.007813,-1.3125 -0.503906,0 -0.867187,0.328125 -1.242187,0.621093 v -2.496093 c -0.351563,0.105468 -0.832032,0.257812 -1.253907,0.339843 v 0.164063 h 0.09375 c 0.222657,0 0.457032,0.04687 0.457032,0.304687 v 4.21875 c 0,0.46875 -0.175782,0.527344 -0.585938,0.527344 z m 4.447266,-3.316407 h 0.105469 c 0.375,0 0.492187,0.140625 0.492187,0.445313 v 2.179687 c 0,0.46875 -0.164062,0.527344 -0.597656,0.527344 v 0.164063 h 1.898437 v -0.164063 c -0.433593,0 -0.597656,-0.05859 -0.597656,-0.527344 v -3.152343 c -0.386719,0.128906 -0.84375,0.292968 -1.300781,0.375 z m 0.492187,-1.96875 c 0,0.234375 0.1875,0.421875 0.433594,0.421875 0.234375,0 0.433594,-0.1875 0.433594,-0.421875 0,-0.246093 -0.199219,-0.433593 -0.433594,-0.433593 -0.246094,0 -0.433594,0.1875 -0.433594,0.433593 z m 3.679688,1.441407 c -1.089844,0 -1.863281,0.855468 -1.863281,1.921875 0,1.710937 1.066406,2.003906 1.582031,2.003906 0.808594,0 1.242187,-0.492188 1.640625,-1.277344 l -0.152344,-0.09375 c -0.222656,0.421875 -0.644531,0.761719 -1.148437,0.761719 -0.867188,0 -1.265625,-0.878906 -1.265625,-1.628906 0,-0.632813 0.304687,-1.394532 1.042968,-1.394532 0.269532,0 0.539063,0.128907 0.539063,0.410157 0,0.246093 0.152344,0.503906 0.421875,0.503906 0.234375,0 0.410156,-0.175781 0.410156,-0.433594 0,-0.550781 -0.773437,-0.773437 -1.207031,-0.773437 z m 5.950195,0 h -0.140625 c -0.01172,0.09375 -0.07031,0.128906 -0.152344,0.128906 -0.117187,0 -0.246093,-0.03516 -0.363281,-0.05859 -0.128906,-0.03516 -0.257812,-0.07031 -0.398437,-0.07031 -0.597657,0 -1.183594,0.339843 -1.183594,0.996093 0,1.230469 1.992187,1.21875 1.992187,2.132813 0,0.375 -0.351562,0.550781 -0.691406,0.550781 -0.585937,0 -1.054687,-0.527344 -1.066406,-1.089844 h -0.1875 l 0.04687,1.253907 h 0.164062 c 0.01172,-0.05859 0,-0.117188 0.117188,-0.117188 0.128906,0 0.574219,0.199219 1.007812,0.199219 0.597657,0 1.160157,-0.398438 1.160157,-1.160156 0,-1.160157 -1.980469,-1.207032 -1.980469,-2.039063 0,-0.316406 0.292969,-0.480469 0.609375,-0.480469 0.574219,0 0.796875,0.398438 0.949219,0.890625 h 0.152343 z m 0.697266,0.08203 v 0.164062 c 0.292968,0.02344 0.398437,0.246094 0.503906,0.503907 l 1.359375,3.164062 -0.09375,0.257813 c -0.152344,0.398437 -0.339844,0.9375 -0.644531,0.9375 -0.246094,0 -0.28125,-0.164063 -0.5625,-0.164063 -0.222657,0 -0.375,0.152344 -0.375,0.375 0,0.257813 0.234375,0.398438 0.492187,0.398438 0.222656,0 0.421875,-0.05859 0.597656,-0.199219 0.363282,-0.28125 0.609375,-0.890625 0.832032,-1.476563 l 1.160156,-3.140625 c 0.117187,-0.316406 0.1875,-0.609375 0.515625,-0.65625 v -0.164062 h -1.21875 v 0.164062 c 0.199219,0 0.445312,0.02344 0.445312,0.257813 0,0.09375 -0.01172,0.199219 -0.128906,0.527344 l -0.667969,1.921875 -0.84375,-2.039063 c -0.07031,-0.175781 -0.117187,-0.316406 -0.117187,-0.410156 0,-0.175781 0.117187,-0.257813 0.46875,-0.257813 v -0.164062 z m 4.057617,3.761719 h 1.875 V 81.90302 c -0.421875,0 -0.597656,-0.05859 -0.597656,-0.527344 v -2.25 c 0.246093,-0.210937 0.527343,-0.398437 0.855468,-0.398437 0.398438,0 0.703121,0.222656 0.703121,0.785156 v 1.863281 c 0,0.46875 -0.175777,0.527344 -0.597652,0.527344 v 0.164063 H 96.55046 V 81.90302 c -0.41016,0 -0.57422,-0.05859 -0.57422,-0.527344 v -2.25 c 0.25781,-0.257812 0.58594,-0.398437 0.84375,-0.398437 0.41016,0 0.70312,0.222656 0.70312,0.785156 v 1.863281 c 0,0.46875 -0.16406,0.527344 -0.58593,0.527344 v 0.164063 h 1.875 V 81.90302 c -0.41016,0 -0.58594,-0.05859 -0.58594,-0.527344 v -1.839843 c 0,-0.960938 -0.375,-1.3125 -1.00781,-1.3125 -0.39844,0 -0.75,0.222656 -1.30078,0.667968 -0.1875,-0.445312 -0.45704,-0.667968 -0.949223,-0.667968 -0.503906,0 -0.878906,0.328125 -1.253906,0.621093 v -0.621093 c -0.386719,0.128906 -0.832032,0.292968 -1.277344,0.375 v 0.152343 h 0.08203 c 0.375,0 0.492188,0.140625 0.492188,0.445313 v 2.179687 c 0,0.46875 -0.164063,0.527344 -0.574219,0.527344 z M 100.3444,79.09052 c 0,-0.07031 0.36328,-0.363281 0.82032,-0.363281 0.85546,0 1.23046,0.855469 1.23046,1.59375 0,0.738281 -0.3164,1.582031 -1.17187,1.582031 -0.53906,0 -0.87891,-0.316406 -0.87891,-0.503906 z m -0.70312,2.554688 c 0.38672,0.316406 0.86719,0.503906 1.35937,0.503906 1.03125,0 2.09766,-0.773438 2.09766,-2.25 0,-0.832031 -0.52734,-1.675781 -1.42969,-1.675781 -0.57422,0 -0.89062,0.210937 -1.32422,0.550781 v -2.425781 c -0.375,0.09375 -0.83203,0.257812 -1.2539,0.339843 v 0.164063 h 0.0937 c 0.22265,0 0.45703,0.04687 0.45703,0.304687 z m 4.83398,-1.722657 c 0,-0.714843 0.26953,-1.453125 1.07813,-1.453125 0.97265,0 1.21875,1.183594 1.21875,2.039063 0,0.597656 -0.29297,1.394531 -1.00781,1.394531 -0.97266,0 -1.28907,-1.207031 -1.28907,-1.980469 z m 3.07032,0.28125 c 0,-1.207031 -0.70313,-1.980468 -1.9336,-1.980468 -1.08984,0 -1.91015,0.902343 -1.91015,1.980468 0,1.101563 0.79687,1.945313 1.91015,1.945313 1.08985,0 1.9336,-0.855469 1.9336,-1.945313 z m 1.06054,1.171875 c 0,0.46875 -0.16406,0.527344 -0.59765,0.527344 v 0.164063 h 1.89843 V 81.90302 c -0.43359,0 -0.59765,-0.05859 -0.59765,-0.527344 v -5.027343 c -0.33985,0.105468 -0.82032,0.257812 -1.25391,0.339843 v 0.164063 h 0.0937 c 0.22266,0 0.45703,0.04687 0.45703,0.304687 z"
               style="fill:#231f20;fill-opacity:1;fill-rule:nonzero;stroke:none" />
          </g>
        </g>
      </g>
    </g>
    <path
       id="path218"
       d="m 0,0 h -15 m 567,0 h 15 M 0,-666 h -15 m 567,0 h 15 M 24,24 v 15 m 0,-729 v -15 M 528,24 v 15 m 0,-729 v -15"
       style="fill:none;stroke:#ffffff;stroke-width:1.25;stroke-linecap:butt;stroke-linejoin:miter;stroke-miterlimit:10;stroke-dasharray:none;stroke-opacity:1"
       transform="matrix(1.3333333,0,0,-1.3333333,20,52)"
       clip-path="url(#clipPath219)" />
    <path
       id="path220"
       d="m 0,0 h -15 m 567,0 h 15 M 0,-666 h -15 m 567,0 h 15 M 24,24 v 15 m 0,-729 v -15 M 528,24 v 15 m 0,-729 v -15"
       style="fill:none;stroke:#000000;stroke-width:0.25;stroke-linecap:butt;stroke-linejoin:miter;stroke-miterlimit:10;stroke-dasharray:none;stroke-opacity:1"
       transform="matrix(1.3333333,0,0,-1.3333333,20,52)"
       clip-path="url(#clipPath221)" />
  </g>
</svg>
