<?xml version="1.0" encoding="UTF-8" standalone="no"?>
<!-- Created with Inkscape (http://www.inkscape.org/) -->

<svg
   version="1.1"
   id="svg1"
   viewBox="0 0 484.90921 124.32806"
   xmlns="http://www.w3.org/2000/svg"
   xmlns:svg="http://www.w3.org/2000/svg">
  <defs
     id="defs1">
    <clipPath
       clipPathUnits="userSpaceOnUse"
       id="clipPath108">
      <path
         d="m 130.464,140.106 h 357.072 v 85.661 H 130.464 Z"
         transform="translate(-206.04591,-168.523)"
         id="path108" />
    </clipPath>
    <clipPath
       clipPathUnits="userSpaceOnUse"
       id="clipPath110">
      <path
         d="m 130.464,140.106 h 357.072 v 85.661 H 130.464 Z"
         transform="translate(-283.84371,-211.2046)"
         id="path110" />
    </clipPath>
    <clipPath
       clipPathUnits="userSpaceOnUse"
       id="clipPath112">
      <path
         d="m 130.464,140.106 h 357.072 v 85.661 H 130.464 Z"
         transform="translate(-283.75981,-168.5649)"
         id="path112" />
    </clipPath>
    <clipPath
       clipPathUnits="userSpaceOnUse"
       id="clipPath114">
      <path
         d="m 130.464,140.106 h 357.072 v 85.661 H 130.464 Z"
         transform="translate(-357.83011,-211.2046)"
         id="path114" />
    </clipPath>
    <clipPath
       clipPathUnits="userSpaceOnUse"
       id="clipPath116">
      <path
         d="m 130.464,140.106 h 357.072 v 85.661 H 130.464 Z"
         transform="translate(-358.00101,-168.5649)"
         id="path116" />
    </clipPath>
    <clipPath
       clipPathUnits="userSpaceOnUse"
       id="clipPath118">
      <path
         d="m 130.464,140.106 h 357.072 v 85.661 H 130.464 Z"
         transform="translate(-333.75291,-168.523)"
         id="path118" />
    </clipPath>
    <clipPath
       clipPathUnits="userSpaceOnUse"
       id="clipPath120">
      <path
         d="m 130.464,140.106 h 357.072 v 85.661 H 130.464 Z"
         transform="translate(-287.40231,-168.523)"
         id="path120" />
    </clipPath>
    <clipPath
       clipPathUnits="userSpaceOnUse"
       id="clipPath122">
      <path
         d="m 130.464,140.106 h 357.072 v 85.661 H 130.464 Z"
         transform="translate(-287.40231,-211.16551)"
         id="path122" />
    </clipPath>
    <clipPath
       clipPathUnits="userSpaceOnUse"
       id="clipPath124">
      <path
         d="m 130.464,140.106 h 357.072 v 85.661 H 130.464 Z"
         transform="translate(-304.87791,-150.02001)"
         id="path124" />
    </clipPath>
    <clipPath
       clipPathUnits="userSpaceOnUse"
       id="clipPath126">
      <path
         d="m 130.464,140.106 h 357.072 v 85.661 H 130.464 Z"
         transform="translate(-310.00101,-150.02001)"
         id="path126" />
    </clipPath>
    <clipPath
       clipPathUnits="userSpaceOnUse"
       id="clipPath128">
      <path
         d="m 130.464,140.106 h 357.072 v 85.661 H 130.464 Z"
         transform="translate(-415.29801,-211.2046)"
         id="path128" />
    </clipPath>
    <clipPath
       clipPathUnits="userSpaceOnUse"
       id="clipPath130">
      <path
         d="m 130.464,140.106 h 357.072 v 85.661 H 130.464 Z"
         transform="translate(-415.21391,-168.5649)"
         id="path130" />
    </clipPath>
    <clipPath
       clipPathUnits="userSpaceOnUse"
       id="clipPath132">
      <path
         d="m 130.464,140.106 h 357.072 v 85.661 H 130.464 Z"
         transform="translate(-485.36521,-211.2046)"
         id="path132" />
    </clipPath>
    <clipPath
       clipPathUnits="userSpaceOnUse"
       id="clipPath134">
      <path
         d="m 130.464,140.106 h 357.072 v 85.661 H 130.464 Z"
         transform="translate(-485.53611,-168.5649)"
         id="path134" />
    </clipPath>
    <clipPath
       clipPathUnits="userSpaceOnUse"
       id="clipPath136">
      <path
         d="m 130.464,140.106 h 357.072 v 85.661 H 130.464 Z"
         transform="translate(-461.28811,-168.523)"
         id="path136" />
    </clipPath>
    <clipPath
       clipPathUnits="userSpaceOnUse"
       id="clipPath138">
      <path
         d="m 130.464,140.106 h 357.072 v 85.661 H 130.464 Z"
         id="path138" />
    </clipPath>
    <clipPath
       clipPathUnits="userSpaceOnUse"
       id="clipPath140">
      <path
         d="m 130.464,140.106 h 357.072 v 85.661 H 130.464 Z"
         transform="translate(-202.13401,-156.0204)"
         id="path140" />
    </clipPath>
    <clipPath
       clipPathUnits="userSpaceOnUse"
       id="clipPath142">
      <path
         d="m 130.464,140.106 h 357.072 v 85.661 H 130.464 Z"
         id="path142" />
    </clipPath>
    <clipPath
       clipPathUnits="userSpaceOnUse"
       id="clipPath144">
      <path
         d="m 130.464,140.106 h 357.072 v 85.661 H 130.464 Z"
         transform="translate(-329.83511,-156.0204)"
         id="path144" />
    </clipPath>
    <clipPath
       clipPathUnits="userSpaceOnUse"
       id="clipPath146">
      <path
         d="m 130.464,140.106 h 357.072 v 85.661 H 130.464 Z"
         id="path146" />
    </clipPath>
    <clipPath
       clipPathUnits="userSpaceOnUse"
       id="clipPath148">
      <path
         d="m 130.464,140.106 h 357.072 v 85.661 H 130.464 Z"
         transform="translate(-457.30901,-156.0204)"
         id="path148" />
    </clipPath>
    <clipPath
       clipPathUnits="userSpaceOnUse"
       id="clipPath151">
      <path
         d="M 0,0 H 582 V 744 H 0 Z"
         transform="translate(-15,-705.00002)"
         id="path151" />
    </clipPath>
    <clipPath
       clipPathUnits="userSpaceOnUse"
       id="clipPath153">
      <path
         d="M 0,0 H 582 V 744 H 0 Z"
         transform="translate(-15,-705.00002)"
         id="path153" />
    </clipPath>
  </defs>
  <g
     id="g1"
     transform="translate(-169.64926,-685.27301)">
    <g
       id="g321">
      <rect
         style="fill:#ffffff;stroke-width:1.0001"
         id="rect321"
         width="484.90921"
         height="124.32804"
         x="169.64926"
         y="685.27301" />
      <g
         id="group-MC1">
        <path
           id="path103"
           d="M 0,0 H -27.671"
           style="fill:none;stroke:#231f20;stroke-width:0.5;stroke-linecap:butt;stroke-linejoin:miter;stroke-miterlimit:4;stroke-dasharray:none;stroke-opacity:1"
           transform="matrix(1.3333333,0,0,-1.3333333,213.5132,710.39387)" />
        <path
           id="path104"
           d="M 0,0 H -27.671"
           style="fill:none;stroke:#231f20;stroke-width:0.5;stroke-linecap:butt;stroke-linejoin:miter;stroke-miterlimit:4;stroke-dasharray:none;stroke-opacity:1"
           transform="matrix(1.3333333,0,0,-1.3333333,213.5132,767.2468)" />
        <path
           id="path105"
           d="M 0,0 H -27.671"
           style="fill:none;stroke:#231f20;stroke-width:0.5;stroke-linecap:butt;stroke-linejoin:miter;stroke-miterlimit:4;stroke-dasharray:none;stroke-opacity:1"
           transform="matrix(1.3333333,0,0,-1.3333333,307.06,710.39387)" />
        <path
           id="path106"
           d="M 0,0 H -24.254"
           style="fill:none;stroke:#231f20;stroke-width:0.5;stroke-linecap:butt;stroke-linejoin:miter;stroke-miterlimit:4;stroke-dasharray:none;stroke-opacity:1"
           transform="matrix(1.3333333,0,0,-1.3333333,307.06,767.2468)" />
        <path
           id="path107"
           d="m 0,0 c 0,-0.967 -0.783,-1.75 -1.75,-1.75 -0.967,0 -1.75,0.783 -1.75,1.75 0,0.967 0.783,1.75 1.75,1.75 C -0.783,1.75 0,0.967 0,0"
           style="fill:#e6f7fd;fill-opacity:1;fill-rule:nonzero;stroke:#231f20;stroke-width:0.5;stroke-linecap:butt;stroke-linejoin:miter;stroke-miterlimit:4;stroke-dasharray:none;stroke-opacity:1"
           transform="matrix(1.3333333,0,0,-1.3333333,274.72787,767.30267)"
           clip-path="url(#clipPath108)" />
        <path
           id="path109"
           d="M 0,0 H -23.846"
           style="fill:none;stroke:#231f20;stroke-width:0.5;stroke-linecap:butt;stroke-linejoin:miter;stroke-miterlimit:4;stroke-dasharray:none;stroke-opacity:1"
           transform="matrix(1.3333333,0,0,-1.3333333,378.45827,710.39387)"
           clip-path="url(#clipPath110)" />
        <path
           id="path111"
           d="M 0,0 H -23.762"
           style="fill:none;stroke:#231f20;stroke-width:0.5;stroke-linecap:butt;stroke-linejoin:miter;stroke-miterlimit:4;stroke-dasharray:none;stroke-opacity:1"
           transform="matrix(1.3333333,0,0,-1.3333333,378.3464,767.2468)"
           clip-path="url(#clipPath112)" />
        <path
           id="path113"
           d="M 0,0 H -27.67"
           style="fill:none;stroke:#231f20;stroke-width:0.5;stroke-linecap:butt;stroke-linejoin:miter;stroke-miterlimit:4;stroke-dasharray:none;stroke-opacity:1"
           transform="matrix(1.3333333,0,0,-1.3333333,477.1068,710.39387)"
           clip-path="url(#clipPath114)" />
        <path
           id="path115"
           d="M 0,0 H -24.254"
           style="fill:none;stroke:#231f20;stroke-width:0.5;stroke-linecap:butt;stroke-linejoin:miter;stroke-miterlimit:4;stroke-dasharray:none;stroke-opacity:1"
           transform="matrix(1.3333333,0,0,-1.3333333,477.33467,767.2468)"
           clip-path="url(#clipPath116)" />
        <path
           id="path117"
           d="m 0,0 c 0,-0.967 -0.783,-1.75 -1.75,-1.75 -0.967,0 -1.75,0.783 -1.75,1.75 0,0.967 0.783,1.75 1.75,1.75 C -0.783,1.75 0,0.967 0,0"
           style="fill:#e6f7fd;fill-opacity:1;fill-rule:nonzero;stroke:#231f20;stroke-width:0.5;stroke-linecap:butt;stroke-linejoin:miter;stroke-miterlimit:4;stroke-dasharray:none;stroke-opacity:1"
           transform="matrix(1.3333333,0,0,-1.3333333,445.00387,767.30267)"
           clip-path="url(#clipPath118)" />
        <path
           id="path119"
           d="m 0,0 c 0,-0.967 -0.783,-1.75 -1.75,-1.75 -0.967,0 -1.75,0.783 -1.75,1.75 0,0.967 0.783,1.75 1.75,1.75 C -0.783,1.75 0,0.967 0,0"
           style="fill:#e6f7fd;fill-opacity:1;fill-rule:nonzero;stroke:#231f20;stroke-width:0.5;stroke-linecap:butt;stroke-linejoin:miter;stroke-miterlimit:4;stroke-dasharray:none;stroke-opacity:1"
           transform="matrix(1.3333333,0,0,-1.3333333,383.20307,767.30267)"
           clip-path="url(#clipPath120)" />
        <path
           id="path121"
           d="m 0,0 c 0,-0.967 -0.783,-1.75 -1.75,-1.75 -0.967,0 -1.75,0.783 -1.75,1.75 0,0.967 0.783,1.75 1.75,1.75 C -0.783,1.75 0,0.967 0,0"
           style="fill:#e6f7fd;fill-opacity:1;fill-rule:nonzero;stroke:#231f20;stroke-width:0.5;stroke-linecap:butt;stroke-linejoin:miter;stroke-miterlimit:4;stroke-dasharray:none;stroke-opacity:1"
           transform="matrix(1.3333333,0,0,-1.3333333,383.20307,710.446)"
           clip-path="url(#clipPath122)" />
        <path
           id="path123"
           d="M 0,0 H 4.129"
           style="fill:none;stroke:#231f20;stroke-width:0.5;stroke-linecap:butt;stroke-linejoin:miter;stroke-miterlimit:4;stroke-dasharray:none;stroke-opacity:1"
           transform="matrix(1.3333333,0,0,-1.3333333,406.50387,791.97333)"
           clip-path="url(#clipPath124)" />
        <path
           id="path125"
           d="M 0,0 H 4.129"
           style="fill:none;stroke:#231f20;stroke-width:0.5;stroke-linecap:butt;stroke-linejoin:miter;stroke-miterlimit:4;stroke-dasharray:none;stroke-opacity:1"
           transform="matrix(1.3333333,0,0,-1.3333333,413.33467,791.97333)"
           clip-path="url(#clipPath126)" />
        <path
           id="path127"
           d="M 0,0 H -27.765"
           style="fill:none;stroke:#231f20;stroke-width:0.5;stroke-linecap:butt;stroke-linejoin:miter;stroke-miterlimit:4;stroke-dasharray:none;stroke-opacity:1"
           transform="matrix(1.3333333,0,0,-1.3333333,553.73067,710.39387)"
           clip-path="url(#clipPath128)" />
        <path
           id="path129"
           d="M 0,0 H -27.681"
           style="fill:none;stroke:#231f20;stroke-width:0.5;stroke-linecap:butt;stroke-linejoin:miter;stroke-miterlimit:4;stroke-dasharray:none;stroke-opacity:1"
           transform="matrix(1.3333333,0,0,-1.3333333,553.61853,767.2468)"
           clip-path="url(#clipPath130)" />
        <path
           id="path131"
           d="M 0,0 H -27.67"
           style="fill:none;stroke:#231f20;stroke-width:0.5;stroke-linecap:butt;stroke-linejoin:miter;stroke-miterlimit:4;stroke-dasharray:none;stroke-opacity:1"
           transform="matrix(1.3333333,0,0,-1.3333333,647.1536,710.39387)"
           clip-path="url(#clipPath132)" />
        <path
           id="path133"
           d="M 0,0 H -24.254"
           style="fill:none;stroke:#231f20;stroke-width:0.5;stroke-linecap:butt;stroke-linejoin:miter;stroke-miterlimit:4;stroke-dasharray:none;stroke-opacity:1"
           transform="matrix(1.3333333,0,0,-1.3333333,647.38147,767.2468)"
           clip-path="url(#clipPath134)" />
        <path
           id="path135"
           d="m 0,0 c 0,-0.967 -0.783,-1.75 -1.75,-1.75 -0.967,0 -1.75,0.783 -1.75,1.75 0,0.967 0.783,1.75 1.75,1.75 C -0.783,1.75 0,0.967 0,0"
           style="fill:#e6f7fd;fill-opacity:1;fill-rule:nonzero;stroke:#231f20;stroke-width:0.5;stroke-linecap:butt;stroke-linejoin:miter;stroke-miterlimit:4;stroke-dasharray:none;stroke-opacity:1"
           transform="matrix(1.3333333,0,0,-1.3333333,615.0508,767.30267)"
           clip-path="url(#clipPath136)" />
        <path
           id="path137"
           d="m 202.134,156.02 h -41.752 v 67.246 h 41.752 z"
           style="fill:#e6f7fd;fill-opacity:1;fill-rule:nonzero;stroke:none"
           transform="matrix(1.3333333,0,0,-1.3333333,0,992)"
           clip-path="url(#clipPath138)" />
        <path
           id="path139"
           d="M 0,0 H -41.752 V 67.246 H 0 Z"
           style="fill:none;stroke:#231f20;stroke-width:0.75;stroke-linecap:butt;stroke-linejoin:miter;stroke-miterlimit:4;stroke-dasharray:none;stroke-opacity:1"
           transform="matrix(1.3333333,0,0,-1.3333333,269.512,783.9728)"
           clip-path="url(#clipPath140)" />
        <path
           id="path141"
           d="m 329.835,156.02 h -41.752 v 67.246 h 41.752 z"
           style="fill:#e6f7fd;fill-opacity:1;fill-rule:nonzero;stroke:none"
           transform="matrix(1.3333333,0,0,-1.3333333,0,992)"
           clip-path="url(#clipPath142)" />
        <path
           id="path143"
           d="M 0,0 H -41.752 V 67.246 H 0 Z"
           style="fill:none;stroke:#231f20;stroke-width:0.75;stroke-linecap:butt;stroke-linejoin:miter;stroke-miterlimit:4;stroke-dasharray:none;stroke-opacity:1"
           transform="matrix(1.3333333,0,0,-1.3333333,439.78013,783.9728)"
           clip-path="url(#clipPath144)" />
        <path
           id="path145"
           d="m 457.309,156.02 h -41.753 v 67.246 h 41.753 z"
           style="fill:#e6f7fd;fill-opacity:1;fill-rule:nonzero;stroke:none"
           transform="matrix(1.3333333,0,0,-1.3333333,0,992)"
           clip-path="url(#clipPath146)" />
        <path
           id="path147"
           d="M 0,0 H -41.753 V 67.246 H 0 Z"
           style="fill:none;stroke:#231f20;stroke-width:0.75;stroke-linecap:butt;stroke-linejoin:miter;stroke-miterlimit:4;stroke-dasharray:none;stroke-opacity:1"
           transform="matrix(1.3333333,0,0,-1.3333333,609.74533,783.9728)"
           clip-path="url(#clipPath148)" />
        <path
           id="path149"
           d="m 0.19865469,0.11860781 h 0.140625 c 0.0234375,-0.12890625 0.19921875,-0.28125 0.31640625,-0.28125 0.09375,0 0.2578125,0.0703125 0.48046876,0.140625 0.2109375,0.05859375 0.4921875,0.140625 0.796875,0.140625 1.0078125,0 1.8398437,-0.5390625 1.8398437,-1.62890621 0,-0.75 -0.4335937,-1.1953125 -0.8789062,-1.6054688 -0.4335938,-0.421875 -0.890625,-0.796875 -0.890625,-1.3945312 0,-0.5273438 0.4101562,-0.8554688 0.9375,-0.8554688 0.5273437,0 1.03125,0.3398438 1.0546875,1.3710938 h 0.1289062 l 0.28125,-1.640625 h -0.140625 c -0.1054687,0.1523437 -0.2109375,0.2109375 -0.3632812,0.2109375 -0.046875,0 -0.1992188,-0.046875 -0.3867188,-0.1054688 -0.1992187,-0.046875 -0.421875,-0.1054687 -0.6445312,-0.1054687 -0.8671875,0 -1.640625,0.5039062 -1.640625,1.4296875 0,0.6679687 0.4453125,1.1367187 0.890625,1.5703125 0.4453125,0.4335937 0.8789062,0.8554687 0.8789062,1.4179687 0,0.66796876 -0.4570312,1.06640626 -1.1132812,1.06640626 -0.6679688,0 -1.27734376,-0.4453125 -1.27734376,-1.57031246 h -0.140625 z M -0.59236094,42.94478 H 1.7279516 l 0.046875,-0.140625 c -0.609375,0 -0.7617188,-0.152344 -0.7617188,-0.351563 0,-0.07031 0.023437,-0.199219 0.058594,-0.304687 l 0.5273437,-1.945313 c 0.1757813,0.02344 0.421875,0.04687 0.703125,0.02344 l 1.1484375,2.71875 h 1.21875 L 4.704514,42.804157 C 4.376389,42.745567 4.2474827,42.722127 4.048264,42.253375 L 3.1693578,40.167436 c 0.75,-0.175781 1.6171875,-0.632813 1.6171875,-1.523438 0,-1.160156 -1.3359375,-1.21875 -2.0273437,-1.21875 H 0.74357656 l -0.046875,0.128907 c 0.56250004,0.02344 0.70312504,0.164062 0.70312504,0.375 0,0.09375 -0.023437,0.1875 -0.058594,0.292968 l -1.11328124,3.996094 c -0.09375,0.398438 -0.17578125,0.539063 -0.7734375,0.585938 z M 2.1146703,38.339311 c 0.1757813,-0.65625 0.3164063,-0.65625 0.7617188,-0.65625 0.7148437,0 1.0429687,0.28125 1.0429687,0.902344 0,1.019531 -0.7382812,1.371093 -1.8164062,1.371093 -0.1054688,0 -0.28125,0 -0.4335938,-0.02344 z M 12.71135,64.187944 h 0.140625 c 0.02344,-0.128907 0.199219,-0.28125 0.316406,-0.28125 0.09375,0 0.257813,0.07031 0.480469,0.140625 0.210937,0.05859 0.492187,0.140625 0.796875,0.140625 1.007812,0 1.839844,-0.539063 1.839844,-1.628907 0,-0.75 -0.433594,-1.195312 -0.878907,-1.605468 -0.433593,-0.421875 -0.890625,-0.796875 -0.890625,-1.394532 0,-0.527343 0.410157,-0.855468 0.9375,-0.855468 0.527344,0 1.03125,0.339843 1.054688,1.371093 h 0.128906 l 0.28125,-1.640625 h -0.140625 c -0.105469,0.152344 -0.210937,0.210938 -0.363281,0.210938 -0.04687,0 -0.199219,-0.04687 -0.386719,-0.105469 -0.199219,-0.04687 -0.421875,-0.105469 -0.644531,-0.105469 -0.867188,0 -1.640625,0.503907 -1.640625,1.429688 0,0.667969 0.445312,1.136719 0.890625,1.570312 0.445312,0.433594 0.878906,0.855469 0.878906,1.417969 0,0.667969 -0.457031,1.066406 -1.113281,1.066406 -0.667969,0 -1.277344,-0.445312 -1.277344,-1.570312 h -0.140625 z m 4.318359,-0.117188 h 2.320313 l 0.04687,-0.140625 c -0.609375,0 -0.761719,-0.152344 -0.761719,-0.351562 0,-0.07031 0.02344,-0.199219 0.05859,-0.304688 l 0.527344,-1.945312 c 0.175781,0.02344 0.421875,0.04687 0.703125,0.02344 l 1.148437,2.71875 h 1.21875 l 0.03516,-0.140625 c -0.328125,-0.05859 -0.457031,-0.08203 -0.65625,-0.550781 l -0.878906,-2.085938 c 0.75,-0.175781 1.617188,-0.632812 1.617188,-1.523437 0,-1.160156 -1.335938,-1.21875 -2.027344,-1.21875 h -2.015625 l -0.04687,0.128906 c 0.5625,0.02344 0.703125,0.164063 0.703125,0.375 0,0.09375 -0.02344,0.1875 -0.05859,0.292969 l -1.113281,3.996094 c -0.09375,0.398437 -0.175781,0.539062 -0.773438,0.585937 z m 2.707032,-4.605469 c 0.175781,-0.65625 0.316406,-0.65625 0.761718,-0.65625 0.714844,0 1.042969,0.28125 1.042969,0.902344 0,1.019531 -0.738281,1.371094 -1.816406,1.371094 -0.105469,0 -0.28125,0 -0.433594,-0.02344 z M 127.73381,0.11860781 h 0.14063 c 0.0234,-0.12890625 0.19921,-0.28125 0.3164,-0.28125 0.0937,0 0.25781,0.0703125 0.48047,0.140625 0.21094,0.05859375 0.49219,0.140625 0.79688,0.140625 1.00781,0 1.83984,-0.5390625 1.83984,-1.62890621 0,-0.75 -0.43359,-1.1953125 -0.87891,-1.6054688 -0.43359,-0.421875 -0.89062,-0.796875 -0.89062,-1.3945312 0,-0.5273438 0.41015,-0.8554688 0.9375,-0.8554688 0.52734,0 1.03125,0.3398438 1.05469,1.3710938 h 0.1289 l 0.28125,-1.640625 h -0.14062 c -0.10547,0.1523437 -0.21094,0.2109375 -0.36328,0.2109375 -0.0469,0 -0.19922,-0.046875 -0.38672,-0.1054688 -0.19922,-0.046875 -0.42188,-0.1054687 -0.64453,-0.1054687 -0.86719,0 -1.64063,0.5039062 -1.64063,1.4296875 0,0.6679687 0.44531,1.1367187 0.89063,1.5703125 0.44531,0.4335937 0.8789,0.8554687 0.8789,1.4179687 0,0.66796876 -0.45703,1.06640626 -1.11328,1.06640626 -0.66797,0 -1.27734,-0.4453125 -1.27734,-1.57031246 h -0.14063 z M 126.9428,42.94478 h 2.32031 l 0.0469,-0.140625 c -0.60937,0 -0.76172,-0.152344 -0.76172,-0.351563 0,-0.07031 0.0234,-0.199219 0.0586,-0.304687 l 0.52734,-1.945313 c 0.17578,0.02344 0.42188,0.04687 0.70313,0.02344 l 1.14843,2.71875 h 1.21875 l 0.0352,-0.140625 c -0.32812,-0.05859 -0.45703,-0.08203 -0.65625,-0.550782 l -0.87891,-2.085937 c 0.75,-0.175781 1.61719,-0.632813 1.61719,-1.523438 0,-1.160156 -1.33594,-1.21875 -2.02734,-1.21875 h -2.01563 l -0.0469,0.128907 c 0.5625,0.02344 0.70312,0.164062 0.70312,0.375 0,0.09375 -0.0234,0.1875 -0.0586,0.292968 l -1.11328,3.996094 c -0.0937,0.398438 -0.17578,0.539063 -0.77344,0.585938 z m 2.70703,-4.605469 c 0.17578,-0.65625 0.3164,-0.65625 0.76172,-0.65625 0.71484,0 1.04296,0.28125 1.04296,0.902344 0,1.019531 -0.73828,1.371093 -1.8164,1.371093 -0.10547,0 -0.28125,0 -0.4336,-0.02344 z m 10.7666,27.272461 h 0.14062 c 0.0234,-0.128906 0.19922,-0.28125 0.31641,-0.28125 0.0937,0 0.25781,0.07031 0.48047,0.140625 0.21094,0.05859 0.49219,0.140625 0.79687,0.140625 1.00782,0 1.83985,-0.539063 1.83985,-1.628906 0,-0.75 -0.4336,-1.195313 -0.87891,-1.605469 -0.43359,-0.421875 -0.89062,-0.796875 -0.89062,-1.394531 0,-0.527344 0.41015,-0.855469 0.9375,-0.855469 0.52734,0 1.03125,0.339844 1.05468,1.371094 h 0.12891 l 0.28125,-1.640625 h -0.14063 c -0.10546,0.152343 -0.21093,0.210937 -0.36328,0.210937 -0.0469,0 -0.19922,-0.04687 -0.38672,-0.105469 -0.19921,-0.04687 -0.42187,-0.105468 -0.64453,-0.105468 -0.86718,0 -1.64062,0.503906 -1.64062,1.429687 0,0.667969 0.44531,1.136719 0.89062,1.570313 0.44532,0.433593 0.87891,0.855468 0.87891,1.417968 0,0.667969 -0.45703,1.066407 -1.11328,1.066407 -0.66797,0 -1.27735,-0.445313 -1.27735,-1.570313 h -0.14062 z m 4.31836,-0.117188 h 2.32031 l 0.0469,-0.140625 c -0.60937,0 -0.76171,-0.152343 -0.76171,-0.351562 0,-0.07031 0.0234,-0.199219 0.0586,-0.304688 l 0.52734,-1.945312 c 0.17578,0.02344 0.42188,0.04687 0.70313,0.02344 l 1.14844,2.71875 h 1.21875 l 0.0351,-0.140625 c -0.32812,-0.05859 -0.45703,-0.08203 -0.65625,-0.550781 l -0.8789,-2.085937 c 0.75,-0.175782 1.61718,-0.632813 1.61718,-1.523438 0,-1.160156 -1.33593,-1.21875 -2.02734,-1.21875 h -2.01563 l -0.0469,0.128906 c 0.5625,0.02344 0.70312,0.164063 0.70312,0.375 0,0.09375 -0.0234,0.1875 -0.0586,0.292969 l -1.11328,3.996094 c -0.0937,0.398437 -0.17578,0.539062 -0.77344,0.585937 z m 2.70703,-4.605468 c 0.17578,-0.65625 0.3164,-0.65625 0.76172,-0.65625 0.71484,0 1.04297,0.28125 1.04297,0.902343 0,1.019532 -0.73829,1.371094 -1.81641,1.371094 -0.10547,0 -0.28125,0 -0.43359,-0.02344 z M 257.37834,-4.5337359 c 0.15235,-0.5625 0.22266,-0.7265625 0.70313,-0.7265625 1.23047,0 1.76953,0.6914062 1.76953,1.875 0,1.6289062 -0.96094,3.11718746 -2.69531,3.11718746 h -0.31641 c -0.35156,0 -0.52734,-0.0703125 -0.52734,-0.328125 0,-0.046875 0.0117,-0.1171875 0.0351,-0.19921875 z m -2.70703,4.53515621 h 2.56641 c 2.02734,0 3.53906,-1.60546871 3.53906,-3.25781251 0,-1.5585937 -1.18359,-2.2617187 -2.33203,-2.2617187 h -2.4375 l -0.0469,0.1289062 c 0.5625,0.023437 0.70313,0.1640625 0.70313,0.375 0,0.09375 -0.0234,0.1875 -0.0586,0.2929688 l -1.11328,3.99609371 c -0.0937,0.3984375 -0.17578,0.5390625 -0.77343,0.5859375 z m -0.085,42.94335969 h 4.54687 l 0.5625,-1.476563 h -0.14062 c -0.57422,1.007813 -1.19531,1.207031 -2.21484,1.207031 h -0.67969 c -0.35156,0 -0.48047,-0.07031 -0.48047,-0.222656 0,-0.07031 0.0234,-0.199219 0.0586,-0.304687 l 0.55078,-1.992188 h 0.77344 c 0.48047,0 0.70313,0.164063 0.71485,0.539063 0,0.105468 -0.0234,0.234375 -0.0469,0.363281 h 0.12891 l 0.55078,-1.96875 h -0.12891 c -0.22265,0.679687 -0.62109,0.808594 -1.30078,0.808594 h -0.62109 l 0.46875,-1.675782 c 0.11718,-0.445312 0.36328,-0.539062 0.77343,-0.539062 h 0.51563 c 1.04297,0 1.16016,0.175781 1.19531,0.925781 h 0.12891 l 0.22265,-1.183594 h -4.2539 l -0.0352,0.128907 c 0.5625,0.02344 0.70313,0.164062 0.70313,0.375 0,0.09375 -0.0234,0.1875 -0.0586,0.292968 l -1.11328,3.996094 c -0.10547,0.398438 -0.1875,0.539063 -0.78515,0.585938 z m 6.31641,0 c 0.26953,-0.960938 0.51562,-1.476563 0.6914,-1.792969 0.42188,-0.75 1.14844,-1.488281 1.54688,-1.488281 0.0703,0 0.21093,0.05859 0.21093,0.210937 0,0.152344 -0.14062,0.679688 -0.1875,0.832031 l -0.42187,1.558594 c -0.0234,0.117188 -0.0469,0.246094 -0.0469,0.339844 0,0.175781 0.0937,0.421875 0.375,0.421875 0.55079,0 0.9375,-0.574219 1.20704,-1.007813 l -0.12891,-0.117187 c -0.17578,0.292969 -0.44531,0.679687 -0.64453,0.679687 -0.0937,0 -0.12891,-0.105468 -0.12891,-0.1875 0,-0.07031 0.0117,-0.1875 0.0469,-0.292968 l 0.35156,-1.277344 c 0.0586,-0.199219 0.25781,-0.890625 0.25781,-1.101563 0,-0.351562 -0.1289,-0.503906 -0.49219,-0.503906 -0.35156,0 -0.78515,0.28125 -1.17187,0.621094 -0.36328,0.316406 -0.65625,0.726562 -0.85547,1.054687 l -0.0117,-0.01172 0.36328,-1.3125 c 0.0352,-0.09375 0.0586,-0.199219 0.0586,-0.246094 0,-0.05859 -0.0234,-0.09375 -0.0937,-0.09375 -0.0586,0 -0.19922,0.04687 -0.35157,0.08203 -0.19921,0.04687 -0.52734,0.105469 -0.8789,0.117188 l -0.0234,0.140625 c 0.33984,0 0.53906,0 0.53906,0.257812 0,0.07031 -0.0117,0.140625 -0.0352,0.210938 l -0.85547,2.90625 z m 11.34668,17.504882 c 0.15234,-0.5625 0.22265,-0.726562 0.70312,-0.726562 1.23047,0 1.76953,0.691406 1.76953,1.875 0,1.628906 -0.96094,3.117187 -2.69531,3.117187 h -0.31641 c -0.35156,0 -0.52734,-0.07031 -0.52734,-0.328125 0,-0.04687 0.0117,-0.117187 0.0352,-0.199218 z m -2.70704,4.535157 h 2.56641 c 2.02734,0 3.53906,-1.605469 3.53906,-3.257813 0,-1.558594 -1.18359,-2.261719 -2.33203,-2.261719 h -2.4375 l -0.0469,0.128907 c 0.5625,0.02344 0.70312,0.164062 0.70312,0.375 0,0.09375 -0.0234,0.1875 -0.0586,0.292968 l -1.11328,3.996094 c -0.0937,0.398438 -0.17578,0.539063 -0.77344,0.585938 z m 0,0"
           style="fill:#231f20;fill-opacity:1;fill-rule:nonzero;stroke:none"
           aria-label="S&#10;R&#10;SR&#10;S&#10;R&#10;SR&#10;D&#10;En&#10;D"
           transform="matrix(1.3333333,0,0,1.3333333,218.17653,713.6192)" />
      </g>
    </g>
    <path
       id="path150"
       d="m 0,0 h -15 m 567,0 h 15 M 0,-666 h -15 m 567,0 h 15 M 24,24 v 15 m 0,-729 v -15 M 528,24 v 15 m 0,-729 v -15"
       style="fill:none;stroke:#ffffff;stroke-width:1.25;stroke-linecap:butt;stroke-linejoin:miter;stroke-miterlimit:10;stroke-dasharray:none;stroke-opacity:1"
       transform="matrix(1.3333333,0,0,-1.3333333,20,52)"
       clip-path="url(#clipPath151)" />
    <path
       id="path152"
       d="m 0,0 h -15 m 567,0 h 15 M 0,-666 h -15 m 567,0 h 15 M 24,24 v 15 m 0,-729 v -15 M 528,24 v 15 m 0,-729 v -15"
       style="fill:none;stroke:#000000;stroke-width:0.25;stroke-linecap:butt;stroke-linejoin:miter;stroke-miterlimit:10;stroke-dasharray:none;stroke-opacity:1"
       transform="matrix(1.3333333,0,0,-1.3333333,20,52)"
       clip-path="url(#clipPath153)" />
  </g>
</svg>
