<?xml version="1.0" encoding="UTF-8" standalone="no"?>
<!-- Created with Inkscape (http://www.inkscape.org/) -->

<svg
   version="1.1"
   id="svg1"
   viewBox="0 0 413.09457 55.636253"
   xmlns="http://www.w3.org/2000/svg"
   xmlns:svg="http://www.w3.org/2000/svg">
  <defs
     id="defs1">
    <clipPath
       clipPathUnits="userSpaceOnUse"
       id="clipPath1">
      <path
         d="m 0.032,0.032 h 812 v 980 h -812 z"
         id="path1" />
    </clipPath>
    <clipPath
       clipPathUnits="userSpaceOnUse"
       id="clipPath28">
      <path
         d="m 190.5,567.893 h 297.161 v 24.75 H 190.5 Z"
         transform="translate(-306.90101,-568.26802)"
         id="path28" />
    </clipPath>
    <clipPath
       clipPathUnits="userSpaceOnUse"
       id="clipPath31">
      <path
         d="m 190.5,567.893 h 297.161 v 24.75 H 190.5 Z"
         transform="translate(-373.04201,-568.26802)"
         id="path31" />
    </clipPath>
    <clipPath
       clipPathUnits="userSpaceOnUse"
       id="clipPath34">
      <path
         d="m 190.5,567.893 h 297.161 v 24.75 H 190.5 Z"
         transform="translate(-439.03801,-568.26802)"
         id="path34" />
    </clipPath>
    <clipPath
       clipPathUnits="userSpaceOnUse"
       id="clipPath37">
      <path
         d="m 190.5,567.893 h 297.161 v 24.75 H 190.5 Z"
         transform="matrix(1,0,0,-1,-465.42101,577.69001)"
         id="path37" />
    </clipPath>
  </defs>
  <g
     id="g1"
     clip-path="url(#clipPath1)"
     transform="translate(-193.29062,-126.19842)">
    <g
       id="g201">
      <rect
         style="fill:#ffffff;stroke-width:1.01302"
         id="rect199"
         width="413.09457"
         height="55.636257"
         x="193.29062"
         y="126.19842" />
      <g
         id="g197">
        <path
           id="path26"
           d="M 0,0 V -12 -24 H 42.249 V -12 0 Z"
           style="fill:#d7cfec;fill-opacity:1;fill-rule:nonzero;stroke:none"
           transform="matrix(1.3333333,0,0,-1.3333333,300.86933,138.30933)" />
        <path
           id="path27"
           d="M 0,0 V 12 24 H -42.249 V 12 0 Z"
           style="fill:none;stroke:#231f20;stroke-width:0.75;stroke-linecap:butt;stroke-linejoin:miter;stroke-miterlimit:4;stroke-dasharray:none;stroke-opacity:1"
           transform="matrix(1.3333333,0,0,-1.3333333,357.20133,170.30933)"
           clip-path="url(#clipPath28)" />
        <path
           id="path29"
           d="M 0,0 V -12 -24 H 42.25 V -12 0 Z"
           style="fill:#d7cfec;fill-opacity:1;fill-rule:nonzero;stroke:none"
           transform="matrix(1.3333333,0,0,-1.3333333,389.05613,138.30933)" />
        <path
           id="path30"
           d="M 0,0 V 12 24 H -42.25 V 12 0 Z"
           style="fill:none;stroke:#231f20;stroke-width:0.75;stroke-linecap:butt;stroke-linejoin:miter;stroke-miterlimit:4;stroke-dasharray:none;stroke-opacity:1"
           transform="matrix(1.3333333,0,0,-1.3333333,445.38933,170.30933)"
           clip-path="url(#clipPath31)" />
        <path
           id="path32"
           d="M 0,0 V -12 -24 H 42.25 V -12 0 Z"
           style="fill:#d7cfec;fill-opacity:1;fill-rule:nonzero;stroke:none"
           transform="matrix(1.3333333,0,0,-1.3333333,477.05067,138.30933)" />
        <path
           id="path33"
           d="M 0,0 V 12 24 H -42.25 V 12 0 Z"
           style="fill:none;stroke:#231f20;stroke-width:0.75;stroke-linecap:butt;stroke-linejoin:miter;stroke-miterlimit:4;stroke-dasharray:none;stroke-opacity:1"
           transform="matrix(1.3333333,0,0,-1.3333333,533.384,170.30933)"
           clip-path="url(#clipPath34)" />
        <path
           id="path35"
           d="m 0.127875,-5.2961875 v 0.1523437 l 0.0585938,0.011719 c 0.52734375,0.070312 0.609375,0.1523437 0.609375,0.703125 v 3.59765625 c 0,0.3046875 -0.0234375,0.43359375 -0.10546875,0.515625 -0.09375,0.09375 -0.22265625,0.12890625 -0.50390625,0.15234375 L 0.127875,-0.15165625 V 6.875e-4 H 2.3661563 V -0.15165625 H 2.3075625 C 1.7333438,-0.15165625 1.6161563,-0.304 1.6161563,-0.8665 v -1.4648438 h 0.035156 c 0.140625,0.023437 0.328125,0.023437 0.4804688,0.023437 0.8789062,0 1.3359375,-0.1289062 1.734375,-0.4804687 0.3164062,-0.28125 0.46875,-0.6445313 0.46875,-1.0664063 0,-0.890625 -0.7851563,-1.4414062 -2.0976563,-1.4414062 z M 1.6161563,-2.64775 v -2.0859375 c 0,-0.2226563 0.046875,-0.2695313 0.2929687,-0.2695313 1.0546875,0 1.5585938,0.3867188 1.5585938,1.1835938 0,0.796875 -0.46875,1.1953125 -1.40625,1.1953125 -0.1523438,0 -0.3046875,-0.011719 -0.4453125,-0.023437 z m 2.868164,2.6484375 h 1.921875 V -0.1165 h -0.046875 c -0.4921875,0 -0.6328125,-0.1640625 -0.6328125,-0.59765625 V -2.5188438 c 0,-0.140625 0.1171875,-0.3515625 0.28125,-0.515625 0.09375,-0.082031 0.1992188,-0.140625 0.2695313,-0.140625 0.058594,0 0.1054687,0.035156 0.1757812,0.082031 l 0.082031,0.070312 c 0.1054687,0.082031 0.1875,0.1289062 0.28125,0.1289062 0.1992187,0 0.3164062,-0.140625 0.3164062,-0.3632812 0,-0.2578125 -0.1757812,-0.421875 -0.4335937,-0.421875 -0.2226563,0 -0.4101563,0.082031 -0.5742188,0.2578125 -0.1289062,0.1289062 -0.1992187,0.1992187 -0.375,0.46875 H 5.726508 v -0.714843 L 5.6913516,-3.679 5.6210396,-3.643844 c -0.2460938,0.1054688 -0.421875,0.1640625 -0.6796875,0.2460938 -0.1289063,0.058594 -0.2578125,0.082031 -0.3632813,0.1289062 l -0.070312,0.023437 V -3.1165 c 0.1054688,-0.023437 0.1757813,-0.035156 0.28125,-0.035156 0.1992188,0 0.2695313,0.1289063 0.2695313,0.4804688 v 2.00390625 c 0,0.38671875 -0.070312,0.46875 -0.515625,0.5390625 L 4.4843203,-0.1165 Z M 9.081,-3.679 c -1.0078125,0 -1.734375,0.7851562 -1.734375,1.8632812 0,1.10156255 0.7382813,1.89843755 1.7460938,1.89843755 1.0078122,0 1.7812502,-0.84375 1.7812502,-1.95703125 C 10.873969,-2.9407188 10.135688,-3.679 9.081,-3.679 Z m 0.140625,3.5390625 c -0.3398437,0 -0.6210937,-0.17578125 -0.8085937,-0.515625 C 8.190375,-1.0657188 8.0614688,-1.6165 8.0614688,-2.1672813 c 0,-0.796875 0.375,-1.2890625 0.9492187,-1.2890625 0.6679688,0 1.1484375,0.7734375 1.1484375,1.8515625 0,0.91406255 -0.3632812,1.4648438 -0.9375,1.4648438 z m 5.077148,-1.1132813 c -0.210937,0.30468755 -0.246093,0.35156255 -0.421875,0.5039063 -0.175781,0.15234375 -0.445312,0.2578125 -0.703125,0.2578125 -0.738281,0 -1.242187,-0.6445313 -1.242187,-1.546875 0,-0.84375 0.433594,-1.40625 1.078125,-1.40625 0.152344,0 0.292969,0.035156 0.363281,0.1054687 0.04687,0.058594 0.07031,0.1289063 0.128906,0.3398438 0.09375,0.3398437 0.210938,0.4804687 0.421875,0.4804687 0.199219,0 0.375,-0.1523437 0.375,-0.3515625 0,-0.4453125 -0.5625,-0.8085937 -1.230468,-0.8085937 -0.996094,0 -1.757813,0.8554687 -1.757813,1.9804687 0,1.03125005 0.632813,1.78125005 1.535156,1.78125005 0.445313,0 0.878907,-0.22265625 1.183594,-0.62109375 0.128906,-0.17578125 0.1875,-0.28125 0.375,-0.6328125 z m 3.635743,-0.058594 c -0.386719,0.609375 -0.726563,0.84375 -1.242188,0.84375 -0.527344,0 -0.960937,-0.3515625 -1.136719,-0.9375 -0.07031,-0.234375 -0.09375,-0.3632813 -0.140625,-0.8085938 h 2.496094 C 17.829047,-2.7532188 17.758734,-2.9875938 17.559516,-3.2219688 17.313422,-3.5266563 16.950141,-3.679 16.528266,-3.679 c -0.984375,0 -1.664063,0.796875 -1.664063,1.96875 0,1.1015625 0.574219,1.79296875 1.5,1.79296875 0.761719,0 1.359375,-0.46875 1.699219,-1.33593755 z m -0.84375,-1.1601563 h -1.652344 c 0.07031,-0.3046875 0.09375,-0.3867187 0.1875,-0.5507812 0.140625,-0.2460938 0.375,-0.375 0.691406,-0.375 0.304688,0 0.527344,0.1289062 0.632813,0.375 0.07031,0.1640625 0.09375,0.2226562 0.140625,0.5507812 z m 3.644531,-0.035156 -0.03516,-1.1015625 h -0.08203 c -0.04687,0.058594 -0.09375,0.082031 -0.140625,0.082031 -0.03516,0 -0.08203,0 -0.164062,-0.035156 l -0.117188,-0.035156 C 20.032172,-3.6555625 19.879828,-3.679 19.727484,-3.679 c -0.644531,0 -1.101562,0.4101562 -1.101562,0.9960937 0,0.2460938 0.08203,0.46875 0.257812,0.65625 0.152344,0.1640625 0.328125,0.2929688 0.679688,0.4921875 l 0.457031,0.2578125 c 0.28125,0.1640625 0.421875,0.35156255 0.421875,0.60937505 0,0.3515625 -0.257812,0.57421875 -0.667969,0.57421875 -0.28125,0 -0.550781,-0.1171875 -0.691406,-0.328125 -0.175781,-0.2109375 -0.222656,-0.328125 -0.328125,-0.796875 h -0.117187 v 1.25390625 h 0.09375 c 0.05859,-0.08203125 0.09375,-0.09375 0.1875,-0.09375 0.08203,0 0.164062,0.01171875 0.304687,0.046875 l 0.140625,0.0234375 c 0.175781,0.046875 0.351563,0.0703125 0.46875,0.0703125 0.667969,0 1.171875,-0.4453125 1.171875,-1.04296875 0,-0.3867188 -0.1875,-0.6445313 -0.679687,-0.9375 l -0.855469,-0.515625 c -0.234375,-0.1289063 -0.351563,-0.328125 -0.351563,-0.5507813 0,-0.3046875 0.246094,-0.5273437 0.609375,-0.5273437 0.292969,0 0.515625,0.1171875 0.65625,0.3632812 0.105469,0.1640625 0.140625,0.2695313 0.234375,0.6210938 z m 3.111328,0 -0.03516,-1.1015625 h -0.08203 c -0.04687,0.058594 -0.09375,0.082031 -0.140625,0.082031 -0.03516,0 -0.08203,0 -0.164063,-0.035156 L 23.30756,-3.5969686 C 23.1435,-3.6555625 22.991156,-3.679 22.838813,-3.679 c -0.644532,0 -1.101563,0.4101562 -1.101563,0.9960937 0,0.2460938 0.08203,0.46875 0.257813,0.65625 0.152343,0.1640625 0.328125,0.2929688 0.679687,0.4921875 l 0.457031,0.2578125 c 0.28125,0.1640625 0.421875,0.35156255 0.421875,0.60937505 0,0.3515625 -0.257812,0.57421875 -0.667968,0.57421875 -0.28125,0 -0.550782,-0.1171875 -0.691407,-0.328125 -0.175781,-0.2109375 -0.222656,-0.328125 -0.328125,-0.796875 h -0.117187 v 1.25390625 h 0.09375 c 0.05859,-0.08203125 0.09375,-0.09375 0.1875,-0.09375 0.08203,0 0.164062,0.01171875 0.304687,0.046875 l 0.140625,0.0234375 c 0.175782,0.046875 0.351563,0.0703125 0.46875,0.0703125 0.667969,0 1.171875,-0.4453125 1.171875,-1.04296875 0,-0.3867188 -0.1875,-0.6445313 -0.679687,-0.9375 L 22.581,-2.413375 c -0.234375,-0.1289063 -0.351562,-0.328125 -0.351562,-0.5507813 0,-0.3046875 0.246093,-0.5273437 0.609375,-0.5273437 0.292968,0 0.515625,0.1171875 0.65625,0.3632812 0.105468,0.1640625 0.140625,0.2695313 0.234375,0.6210938 z m 0,0"
           style="fill:#231f20;fill-opacity:1;fill-rule:nonzero;stroke:none"
           aria-label="Process"
           transform="matrix(1.3333333,0,0,1.3333333,488.924,157.93733)" />
        <path
           id="path36"
           d="m 2.9194063,0.11732031 c 1.5117187,0 2.5898437,-1.16015621 2.5898437,-2.76562501 0,-1.6054687 -1.0898437,-2.765625 -2.6132812,-2.765625 -1.5351563,0 -2.62500005,1.1484375 -2.62500005,2.765625 0,1.640625 1.07812505,2.76562501 2.64843755,2.76562501 z m -0.023437,-0.29296875 c -1.0546875,0 -1.7109375,-0.94921876 -1.7109375,-2.43749996 0,-0.5976563 0.1289062,-1.2304688 0.328125,-1.640625 0.070312,-0.140625 0.1757812,-0.28125 0.3164062,-0.421875 0.2929688,-0.2929688 0.65625,-0.4453125 1.0664063,-0.4453125 1.03125,0 1.6992187,0.9609375 1.6992187,2.4492187 0,1.546875 -0.6445312,2.49609376 -1.6992187,2.49609376 z m 6.219726,-3.42187496 h -1.265625 v 0.1289062 h 0.046875 c 0.4453125,0 0.5390625,0.1289063 0.5390625,0.5039063 v 1.8867187 c 0,0.25781251 -0.035156,0.33984376 -0.1992187,0.46875001 -0.1875,0.140625 -0.421875,0.22265625 -0.6210938,0.22265625 -0.3398437,0 -0.5976562,-0.2578125 -0.5976562,-0.609375 V -3.5975234 h -1.171875 v 0.1054687 c 0.375,0.023437 0.4921875,0.1523438 0.4921875,0.515625 v 2.01562501 c 0,0.62109375 0.3867187,1.04296875 0.9609375,1.04296875 0.3046875,0 0.6210937,-0.12890625 0.8320312,-0.3515625 l 0.3515625,-0.33984375 v 0.66796875 l 0.011719,0.01171875 0.070312,-0.0234375 c 0.4921875,-0.1640625 0.5273437,-0.1875 0.7148437,-0.24609375 0.082031,-0.0117188 0.1640625,-0.0351563 0.2460938,-0.0703125 l 0.082031,-0.0234375 v -0.10546875 h -0.035156 c -0.375,0 -0.4570313,-0.09375 -0.4570313,-0.45703125 z m 2.7919927,2.97656246 c -0.175782,0.1875 -0.328125,0.28125 -0.480469,0.28125 -0.292969,0 -0.421875,-0.17578125 -0.421875,-0.5859375 V -3.3397109 h 0.796875 v -0.2578125 h -0.796875 v -1.03125 h -0.08203 c -0.210938,0.4335937 -0.550782,0.8203125 -1.0429692,1.1835937 v 0.1054688 h 0.4570312 v 2.296875 c 0,0.43359371 0,0.52734371 0.07031,0.70312496 0.04687,0.12890625 0.140625,0.234375 0.257812,0.3046875 0.128906,0.0703125 0.269531,0.1171875 0.421875,0.1171875 0.351563,0 0.667969,-0.2109375 0.925781,-0.62109375 z m 0.128906,2.35546874 h 1.945312 v -0.140625 h -0.05859 c -0.550782,0 -0.644532,-0.1171875 -0.644532,-0.59765624 v -1.265625 c 0.28125,0.2695312525 0.480469,0.3515625 0.808594,0.3515625 0.949219,0 1.675781,-0.90234375 1.675781,-2.06249996 0,-0.984375 -0.5625,-1.6992188 -1.335937,-1.6992188 -0.445313,0 -0.808594,0.1992188 -1.136719,0.609375 l -0.01172,-0.011719 v -0.5859375 l -0.05859,-0.011719 -0.07031,0.023437 c -0.328125,0.1054688 -0.703125,0.2578125 -1.007812,0.3632813 l -0.07031,0.023437 v 0.1289062 c 0.01172,0 0.02344,0 0.05859,-0.011719 h 0.140625 c 0.269531,0 0.328125,0.082031 0.328125,0.4570312 v 3.7382813 c 0,0.4101562 -0.08203,0.4804687 -0.503906,0.5507812 L 12.036605,1.6056 Z m 1.242187,-2.43749999 V -2.6717422 c 0,-0.1171875 0.140625,-0.2929687 0.328125,-0.3984375 0.152344,-0.082031 0.328125,-0.1289062 0.480469,-0.1289062 0.597656,0 0.984375,0.609375 0.984375,1.5234375 0,0.90234371 -0.386719,1.49999996 -0.984375,1.49999996 -0.234375,0 -0.492187,-0.10546875 -0.65625,-0.26953125 -0.105469,-0.09375 -0.152344,-0.1875 -0.152344,-0.2578125 z M 19.340305,-3.5975234 H 18.07468 v 0.1289062 h 0.04687 c 0.445312,0 0.539062,0.1289063 0.539062,0.5039063 v 1.8867187 c 0,0.25781251 -0.03516,0.33984376 -0.199219,0.46875001 -0.1875,0.140625 -0.421875,0.22265625 -0.621093,0.22265625 -0.339844,0 -0.597657,-0.2578125 -0.597657,-0.609375 V -3.5975234 h -1.171875 v 0.1054687 c 0.375,0.023437 0.492188,0.1523438 0.492188,0.515625 v 2.01562501 c 0,0.62109375 0.386719,1.04296875 0.960937,1.04296875 0.304688,0 0.621094,-0.12890625 0.832032,-0.3515625 l 0.351562,-0.33984375 v 0.66796875 l 0.01172,0.01171875 0.07031,-0.0234375 c 0.492188,-0.1640625 0.527344,-0.1875 0.714844,-0.24609375 0.08203,-0.0117188 0.164063,-0.0351563 0.246094,-0.0703125 l 0.08203,-0.0234375 v -0.10546875 h -0.03516 c -0.375,0 -0.457031,-0.09375 -0.457031,-0.45703125 z m 2.791992,2.97656246 c -0.175781,0.1875 -0.328125,0.28125 -0.480469,0.28125 -0.292969,0 -0.421875,-0.17578125 -0.421875,-0.5859375 V -3.3397109 h 0.796875 v -0.2578125 h -0.796875 v -1.03125 h -0.08203 c -0.210938,0.4335937 -0.550781,0.8203125 -1.042969,1.1835937 v 0.1054688 h 0.457031 v 2.296875 c 0,0.43359371 0,0.52734371 0.07031,0.70312496 0.04687,0.12890625 0.140625,0.234375 0.257812,0.3046875 0.128907,0.0703125 0.269532,0.1171875 0.421875,0.1171875 0.351563,0 0.667969,-0.2109375 0.925782,-0.62109375 z M -274.79153,-5.0008437 h 2.27344 c 1.89843,0 3.08203,-1.0195313 3.08203,-2.6601563 0,-1.6757812 -1.17188,-2.636719 -3.19922,-2.636719 h -2.15625 v 0.152344 l 0.0586,0.01172 c 0.5625,0.07031 0.64453,0.128906 0.64453,0.7031248 v 3.5625 c 0,0.5507812 -0.11718,0.6328125 -0.64453,0.703125 l -0.0586,0.011719 z m 1.52344,-0.6210938 v -4.0664062 c 0,-0.2578125 0.082,-0.3164063 0.45703,-0.3164063 0.8789,0 1.46484,0.2226563 1.91015,0.7148438 0.39844,0.4335937 0.58594,0.9960937 0.58594,1.6992187 0,1.4882813 -0.85547,2.296875 -2.46094,2.296875 -0.41015,0 -0.49218,-0.058594 -0.49218,-0.328125 z m 7.39453,-0.6914062 c -0.38672,0.609375 -0.72656,0.84375 -1.24219,0.84375 -0.52734,0 -0.96094,-0.3515625 -1.13672,-0.9375 -0.0703,-0.234375 -0.0937,-0.3632813 -0.14062,-0.8085938 h 2.49609 c -0.082,-0.5390625 -0.15234,-0.7734375 -0.35156,-1.0078125 -0.2461,-0.3046875 -0.60938,-0.4570312 -1.03125,-0.4570312 -0.98438,0 -1.66406,0.796875 -1.66406,1.96875 0,1.1015625 0.57421,1.7929687 1.5,1.7929687 0.76171,0 1.35937,-0.46875 1.69921,-1.3359375 z M -266.71731,-7.4735 h -1.65235 c 0.0703,-0.3046875 0.0937,-0.3867187 0.1875,-0.5507812 0.14063,-0.2460938 0.375,-0.375 0.69141,-0.375 0.30469,0 0.52734,0.1289062 0.63281,0.375 0.0703,0.1640625 0.0937,0.2226562 0.14063,0.5507812 z m 3.64453,-0.035156 -0.0352,-1.1015625 h -0.082 c -0.0469,0.058594 -0.0937,0.082031 -0.14062,0.082031 -0.0352,0 -0.082,0 -0.16407,-0.035156 l -0.11718,-0.035156 c -0.16407,-0.058594 -0.31641,-0.082031 -0.46875,-0.082031 -0.64453,0 -1.10157,0.4101562 -1.10157,0.9960937 0,0.2460938 0.082,0.46875 0.25782,0.65625 0.15234,0.1640625 0.32812,0.2929688 0.67968,0.4921875 l 0.45704,0.2578125 c 0.28125,0.1640625 0.42187,0.3515625 0.42187,0.609375 0,0.3515625 -0.25781,0.5742188 -0.66797,0.5742188 -0.28125,0 -0.55078,-0.1171875 -0.6914,-0.328125 -0.17579,-0.2109375 -0.22266,-0.328125 -0.32813,-0.796875 h -0.11719 v 1.2539062 h 0.0937 c 0.0586,-0.082031 0.0937,-0.09375 0.1875,-0.09375 0.082,0 0.16407,0.011719 0.30469,0.046875 l 0.14063,0.023437 c 0.17578,0.046875 0.35156,0.070312 0.46875,0.070312 0.66796,0 1.17187,-0.4453125 1.17187,-1.0429687 0,-0.3867188 -0.1875,-0.6445313 -0.67969,-0.9375 l -0.85547,-0.515625 c -0.23437,-0.1289063 -0.35156,-0.328125 -0.35156,-0.5507813 0,-0.3046875 0.2461,-0.5273437 0.60938,-0.5273437 0.29297,0 0.51562,0.1171875 0.65625,0.3632812 0.10547,0.1640625 0.14062,0.2695313 0.23437,0.6210938 z m 1.21289,-2.554688 c 0,0.2343755 0.17578,0.4101567 0.39844,0.4101567 0.24609,0 0.42187,-0.1757812 0.42187,-0.4101567 0,-0.222656 -0.1875,-0.398437 -0.42187,-0.398437 -0.21094,0 -0.39844,0.175781 -0.39844,0.398437 z m -0.49219,5.0625005 h 1.89844 V -5.118031 l -0.0586,-0.011719 c -0.46875,-0.058594 -0.53907,-0.1289062 -0.53907,-0.6914062 v -2.8359375 l -0.0234,-0.023437 -1.24219,0.4335937 v 0.1289063 h 0.0234 c 0.082,-0.023437 0.1289,-0.023437 0.15234,-0.023437 l 0.14062,-0.011719 c 0.21094,0 0.28125,0.1289063 0.28125,0.4804688 v 1.8515625 c 0,0.5625 -0.0937,0.703125 -0.57421,0.703125 h -0.0586 z m 2.12988,0 h 1.92188 V -5.118031 h -0.0469 c -0.49218,0 -0.63281,-0.1640625 -0.63281,-0.5976563 V -7.520375 c 0,-0.140625 0.11719,-0.3515625 0.28125,-0.515625 0.0937,-0.082031 0.19922,-0.140625 0.26953,-0.140625 0.0586,0 0.10547,0.035156 0.17578,0.082031 l 0.082,0.070312 c 0.10546,0.082031 0.1875,0.1289062 0.28125,0.1289062 0.19921,0 0.3164,-0.140625 0.3164,-0.3632812 0,-0.2578125 -0.17578,-0.421875 -0.43359,-0.421875 -0.22266,0 -0.41016,0.082031 -0.57422,0.2578125 -0.12891,0.1289062 -0.19922,0.1992187 -0.375,0.46875 h -0.0234 v -0.7148438 l -0.0351,-0.011719 -0.0703,0.035156 c -0.24609,0.1054688 -0.42187,0.1640625 -0.67968,0.2460938 -0.12891,0.058594 -0.25782,0.082031 -0.36329,0.1289062 l -0.0703,0.023437 v 0.1289063 c 0.10547,-0.023437 0.17578,-0.035156 0.28125,-0.035156 0.19922,0 0.26953,0.1289063 0.26953,0.4804688 v 2.0039062 c 0,0.3867188 -0.0703,0.46875 -0.51562,0.5390625 l -0.0586,0.011719 z m 5.9004,-1.3125 c -0.38672,0.609375 -0.72657,0.84375 -1.24219,0.84375 -0.52735,0 -0.96094,-0.3515625 -1.13672,-0.9375 -0.0703,-0.234375 -0.0937,-0.3632813 -0.14063,-0.8085938 h 2.4961 c -0.082,-0.5390625 -0.15235,-0.7734375 -0.35156,-1.0078125 -0.2461,-0.3046875 -0.60938,-0.4570312 -1.03125,-0.4570312 -0.98438,0 -1.66407,0.796875 -1.66407,1.96875 0,1.1015625 0.57422,1.7929687 1.5,1.7929687 0.76172,0 1.35938,-0.46875 1.69922,-1.3359375 z M -255.16555,-7.4735 h -1.65235 c 0.0703,-0.3046875 0.0937,-0.3867187 0.1875,-0.5507812 0.14063,-0.2460938 0.375,-0.375 0.69141,-0.375 0.30469,0 0.52734,0.1289062 0.63281,0.375 0.0703,0.1640625 0.0937,0.2226562 0.14063,0.5507812 z m 5.05078,2.0039063 h -0.14063 l -0.082,0.011719 c -0.23437,0 -0.30469,-0.1054687 -0.30469,-0.4570312 v -4.5351561 l -0.0469,-0.01172 -0.0703,0.02344 c -0.33985,0.105469 -0.5625,0.199219 -1.03125,0.304688 l -0.0703,0.02344 v 0.1171881 h 0.0117 c 0.0703,0 0.0937,0 0.14063,0 0.32812,0 0.38672,0.070312 0.38672,0.4101562 v 1.2421875 c -0.30469,-0.2578125 -0.51563,-0.3398437 -0.83204,-0.3398437 -0.92578,0 -1.67578,0.9023437 -1.67578,2.0273437 0,1.03125 0.59766,1.734375 1.48828,1.734375 0.4336,0 0.76172,-0.1640625 1.00782,-0.515625 h 0.0117 V -4.94225 l 0.0351,0.023437 0.0703,-0.023437 0.33985,-0.1171875 0.35156,-0.1289062 0.33984,-0.1289063 0.0703,-0.023437 z M -251.3218,-7.661 v 1.8398438 c 0,0.1054687 -0.12891,0.2929687 -0.28125,0.375 -0.12891,0.070312 -0.28125,0.1054687 -0.4336,0.1054687 -0.65625,0 -1.10156,-0.6445312 -1.10156,-1.6171875 0,-0.9140625 0.39844,-1.5 0.99609,-1.5 0.4336,0 0.82032,0.375 0.82032,0.796875 z m 5.25,-1.0195312 c -1.00782,0 -1.73438,0.7851562 -1.73438,1.8632812 0,1.1015625 0.73828,1.8984375 1.74609,1.8984375 1.00782,0 1.78125,-0.84375 1.78125,-1.9570312 0,-1.0664063 -0.73828,-1.8046875 -1.79296,-1.8046875 z m 0.14062,3.5390625 c -0.33984,0 -0.62109,-0.1757813 -0.80859,-0.515625 -0.22266,-0.4101563 -0.35157,-0.9609375 -0.35157,-1.5117188 0,-0.796875 0.375,-1.2890625 0.94922,-1.2890625 0.66797,0 1.14844,0.7734375 1.14844,1.8515625 0,0.9140625 -0.36328,1.4648438 -0.9375,1.4648438 z m 5.23242,-3.4570313 h -1.26562 v 0.1289063 h 0.0469 c 0.44531,0 0.53906,0.1289062 0.53906,0.5039062 v 1.8867188 c 0,0.2578125 -0.0352,0.3398437 -0.19921,0.46875 -0.1875,0.140625 -0.42188,0.2226562 -0.6211,0.2226562 -0.33984,0 -0.59765,-0.2578125 -0.59765,-0.609375 V -8.5985 h -1.17188 v 0.1054688 c 0.375,0.023437 0.49219,0.1523437 0.49219,0.515625 v 2.015625 c 0,0.6210937 0.38672,1.0429687 0.96094,1.0429687 0.30468,0 0.62109,-0.1289062 0.83203,-0.3515625 l 0.35156,-0.3398437 V -4.94225 l 0.0117,0.011719 0.0703,-0.023437 c 0.49219,-0.1640625 0.52734,-0.1875 0.71484,-0.2460938 0.082,-0.011719 0.16407,-0.035156 0.2461,-0.070312 l 0.082,-0.023437 v -0.1054687 h -0.0352 c -0.375,0 -0.45703,-0.09375 -0.45703,-0.4570313 z m 2.79199,2.9765625 c -0.17578,0.1875 -0.32812,0.28125 -0.48046,0.28125 -0.29297,0 -0.42188,-0.1757812 -0.42188,-0.5859375 v -2.4140625 h 0.79688 V -8.5985 h -0.79688 v -1.03125 h -0.082 c -0.21094,0.4335938 -0.55078,0.8203125 -1.04297,1.1835938 v 0.1054687 h 0.45703 v 2.296875 c 0,0.4335938 0,0.5273438 0.0703,0.703125 0.0469,0.1289063 0.14063,0.234375 0.25782,0.3046875 0.1289,0.070312 0.26953,0.1171875 0.42187,0.1171875 0.35156,0 0.66797,-0.2109375 0.92578,-0.6210937 z m 0.12598,2.3554688 h 1.94531 v -0.140625 h -0.0586 c -0.55078,0 -0.64453,-0.1171875 -0.64453,-0.5976563 v -1.265625 c 0.28125,0.2695313 0.48047,0.3515625 0.80859,0.3515625 0.94922,0 1.67578,-0.9023437 1.67578,-2.0625 0,-0.984375 -0.5625,-1.6992187 -1.33593,-1.6992187 -0.44532,0 -0.8086,0.1992187 -1.13672,0.609375 l -0.0117,-0.011719 v -0.5859375 l -0.0586,-0.011719 -0.0703,0.023437 c -0.32812,0.1054687 -0.70312,0.2578125 -1.00781,0.3632812 l -0.0703,0.023437 v 0.1289063 c 0.0117,0 0.0234,0 0.0586,-0.011719 h 0.14063 c 0.26953,0 0.32812,0.082031 0.32812,0.4570313 v 3.7382812 c 0,0.4101563 -0.082,0.4804688 -0.50391,0.5507813 l -0.0586,0.011719 z m 1.24219,-2.4375 v -1.96875 c 0,-0.1171875 0.14062,-0.2929688 0.32812,-0.3984375 0.15235,-0.082031 0.32813,-0.1289063 0.48047,-0.1289063 0.59766,0 0.98438,0.609375 0.98438,1.5234375 0,0.9023438 -0.38672,1.5 -0.98438,1.5 -0.23437,0 -0.49219,-0.1054687 -0.65625,-0.2695312 -0.10547,-0.09375 -0.15234,-0.1875 -0.15234,-0.2578125 z m 6.06152,-2.8945313 h -1.26562 v 0.1289063 h 0.0469 c 0.44531,0 0.53906,0.1289062 0.53906,0.5039062 v 1.8867188 c 0,0.2578125 -0.0352,0.3398437 -0.19921,0.46875 -0.1875,0.140625 -0.42188,0.2226562 -0.6211,0.2226562 -0.33984,0 -0.59765,-0.2578125 -0.59765,-0.609375 V -8.5985 h -1.17188 v 0.1054688 c 0.375,0.023437 0.49219,0.1523437 0.49219,0.515625 v 2.015625 c 0,0.6210937 0.38672,1.0429687 0.96094,1.0429687 0.30468,0 0.62109,-0.1289062 0.83203,-0.3515625 l 0.35156,-0.3398437 V -4.94225 l 0.0117,0.011719 0.0703,-0.023437 c 0.49219,-0.1640625 0.52734,-0.1875 0.71484,-0.2460938 0.082,-0.011719 0.16407,-0.035156 0.2461,-0.070312 l 0.082,-0.023437 v -0.1054687 h -0.0352 c -0.375,0 -0.45703,-0.09375 -0.45703,-0.4570313 z m 2.79492,2.9765625 c -0.17578,0.1875 -0.32812,0.28125 -0.48046,0.28125 -0.29297,0 -0.42188,-0.1757812 -0.42188,-0.5859375 v -2.4140625 h 0.79688 V -8.5985 h -0.79688 v -1.03125 h -0.082 c -0.21094,0.4335938 -0.55078,0.8203125 -1.04297,1.1835938 v 0.1054687 h 0.45703 v 2.296875 c 0,0.4335938 0,0.5273438 0.0703,0.703125 0.0469,0.1289063 0.14063,0.234375 0.25782,0.3046875 0.1289,0.070312 0.26953,0.1171875 0.42187,0.1171875 0.35156,0 0.66797,-0.2109375 0.92578,-0.6210937 z m 0,0"
           style="fill:#24518e;fill-opacity:1;fill-rule:nonzero;stroke:none"
           aria-label="Output&#10;Desired output"
           transform="matrix(1.3333333,0,0,1.3333333,568.56133,157.74667)"
           clip-path="url(#clipPath37)" />
        <path
           id="path38"
           d="m 0.0356875,-8.203125e-4 h 1.921875 V -0.11800781 h -0.046875 c -0.4921875,0 -0.6328125,-0.1640625 -0.6328125,-0.59765625 V -2.5203516 c 0,-0.140625 0.1171875,-0.3515625 0.28125,-0.515625 0.09375,-0.082031 0.1992187,-0.140625 0.2695312,-0.140625 0.058594,0 0.1054688,0.035156 0.1757813,0.082031 l 0.082031,0.070312 c 0.1054688,0.082031 0.1875,0.1289062 0.28125,0.1289062 0.1992188,0 0.3164063,-0.140625 0.3164063,-0.3632812 0,-0.2578125 -0.1757813,-0.421875 -0.4335938,-0.421875 -0.2226562,0 -0.4101562,0.082031 -0.5742187,0.2578125 -0.1289063,0.1289062 -0.1992188,0.1992187 -0.375,0.46875 H 1.277875 v -0.7148438 l -0.035156,-0.011719 -0.070312,0.035156 c -0.2460937,0.1054688 -0.42187495,0.1640625 -0.67968745,0.2460938 -0.12890625,0.058594 -0.2578125,0.082031 -0.36328125,0.1289062 l -0.0703125,0.023437 v 0.1289063 c 0.10546875,-0.023437 0.17578125,-0.035156 0.28125,-0.035156 0.19921875,0 0.26953125,0.1289063 0.26953125,0.4804688 v 2.00390624 c 0,0.38671875 -0.0703125,0.46875 -0.515625,0.5390625 L 0.0356875,-0.11800781 Z M 5.9331484,-1.3133203 c -0.3867187,0.60937499 -0.7265625,0.84374999 -1.2421875,0.84374999 -0.5273437,0 -0.9609375,-0.3515625 -1.1367187,-0.93749999 -0.070312,-0.234375 -0.09375,-0.3632813 -0.140625,-0.8085938 h 2.4960937 c -0.082031,-0.5390625 -0.1523437,-0.7734375 -0.3515625,-1.0078125 -0.2460937,-0.3046875 -0.609375,-0.4570312 -1.03125,-0.4570312 -0.984375,0 -1.6640625,0.796875 -1.6640625,1.96875 0,1.10156249 0.5742188,1.79296874 1.5,1.79296874 0.7617188,0 1.359375,-0.46875 1.6992188,-1.33593754 z m -0.84375,-1.1601563 H 3.4370547 c 0.070312,-0.3046875 0.09375,-0.3867187 0.1875,-0.5507812 0.140625,-0.2460938 0.375,-0.375 0.6914062,-0.375 0.3046875,0 0.5273438,0.1289062 0.6328125,0.375 0.070312,0.1640625 0.09375,0.2226562 0.140625,0.5507812 z m 3.647461,-0.035156 -0.035156,-1.1015625 h -0.082031 c -0.046875,0.058594 -0.09375,0.082031 -0.140625,0.082031 -0.035156,0 -0.082031,0 -0.1640625,-0.035156 l -0.1171875,-0.035156 c -0.1640625,-0.058594 -0.3164063,-0.082031 -0.46875,-0.082031 -0.6445313,0 -1.1015625,0.4101562 -1.1015625,0.9960937 0,0.2460938 0.082031,0.46875 0.2578125,0.65625 0.1523437,0.1640625 0.328125,0.2929688 0.6796875,0.4921875 l 0.4570312,0.2578125 c 0.28125,0.1640625 0.421875,0.35156254 0.421875,0.60937504 0,0.3515625 -0.2578125,0.57421875 -0.6679687,0.57421875 -0.28125,0 -0.5507813,-0.1171875 -0.6914063,-0.328125 -0.1757812,-0.2109375 -0.2226562,-0.328125 -0.328125,-0.79687499 h -0.117188 v 1.25390624 h 0.09375 c 0.058594,-0.08203125 0.09375,-0.09375 0.1875,-0.09375 0.082031,0 0.1640625,0.01171875 0.3046875,0.046875 l 0.140625,0.0234375 c 0.1757813,0.046875 0.3515625,0.0703125 0.46875,0.0703125 0.6679688,0 1.171875,-0.4453125 1.171875,-1.04296875 0,-0.38671879 -0.1875,-0.64453129 -0.6796875,-0.93749999 l -0.8554687,-0.515625 c -0.234375,-0.1289063 -0.3515625,-0.328125 -0.3515625,-0.5507813 0,-0.3046875 0.2460937,-0.5273437 0.609375,-0.5273437 0.2929687,0 0.515625,0.1171875 0.65625,0.3632812 0.1054687,0.1640625 0.140625,0.2695313 0.234375,0.6210938 z m 0.6269531,4.2421875 h 1.9453125 v -0.140625 h -0.05859 C 10.69975,1.5929297 10.606,1.4757422 10.606,0.99527344 v -1.265625 c 0.28125,0.2695312475 0.480469,0.3515625 0.808594,0.3515625 0.949218,0 1.675781,-0.90234375 1.675781,-2.06250004 0,-0.984375 -0.5625,-1.6992187 -1.335938,-1.6992187 -0.445312,0 -0.808593,0.1992187 -1.136718,0.609375 L 10.606,-3.0828516 v -0.5859375 l -0.05859,-0.011719 -0.07031,0.023437 c -0.328125,0.1054687 -0.7031253,0.2578125 -1.0078128,0.3632812 l -0.070312,0.023437 v 0.1289063 c 0.011719,0 0.023437,0 0.058594,-0.011719 h 0.140625 c 0.2695312,0 0.328125,0.082031 0.328125,0.4570313 v 3.7382812 c 0,0.4101563 -0.082031,0.4804688 -0.5039063,0.5507813 l -0.058594,0.011719 z M 10.606,-0.70394531 V -2.6726953 c 0,-0.1171875 0.140625,-0.2929688 0.328125,-0.3984375 0.152344,-0.082031 0.328125,-0.1289063 0.480469,-0.1289063 0.597656,0 0.984375,0.609375 0.984375,1.5234375 0,0.90234379 -0.386719,1.50000004 -0.984375,1.50000004 -0.234375,0 -0.492188,-0.10546875 -0.65625,-0.26953125 -0.105469,-0.09375 -0.152344,-0.1875 -0.152344,-0.2578125 z m 4.69043,-2.97656249 c -1.007813,0 -1.734375,0.7851562 -1.734375,1.8632812 0,1.10156254 0.738281,1.89843754 1.746093,1.89843754 1.007813,0 1.78125,-0.84375 1.78125,-1.95703124 0,-1.0664063 -0.738281,-1.8046875 -1.792968,-1.8046875 z m 0.140625,3.53906249 c -0.339844,0 -0.621094,-0.17578125 -0.808594,-0.515625 -0.222656,-0.41015629 -0.351563,-0.96093749 -0.351563,-1.51171879 0,-0.796875 0.375,-1.2890625 0.949219,-1.2890625 0.667969,0 1.148438,0.7734375 1.148438,1.8515625 0,0.91406254 -0.363282,1.46484379 -0.9375,1.46484379 z m 2.030273,0.1406249975 h 1.699219 V -0.11800781 h -0.03516 c -0.375,0 -0.492188,-0.140625 -0.492188,-0.421875 V -2.7898828 c 0.363281,-0.3398438 0.574219,-0.4570313 0.820313,-0.4570313 0.398437,0 0.585937,0.2578125 0.585937,0.7851563 v 1.66406249 c 0,0.2578125 -0.03516,0.4453125 -0.117187,0.5390625 -0.07031,0.09375 -0.164063,0.1171875 -0.386719,0.140625 v 0.1171874975 h 1.664062 V -0.11800781 c -0.386718,-0.046875 -0.480468,-0.15234375 -0.480468,-0.52734375 V -2.4851953 c 0,-0.75 -0.351563,-1.1953125 -0.949219,-1.1953125 -0.1875,0 -0.398438,0.058594 -0.5625,0.1523437 -0.210938,0.1289063 -0.257813,0.1757813 -0.597656,0.4921875 v -0.6328125 l -0.05859,-0.011719 -0.07031,0.023437 c -0.28125,0.09375 -0.644531,0.2109375 -0.960937,0.3164062 l -0.07031,0.023437 v 0.1289063 c 0.105469,-0.023437 0.164063,-0.035156 0.234375,-0.035156 0.199219,0 0.28125,0.140625 0.28125,0.515625 v 1.99218754 c 0,0.43359375 -0.105468,0.52734375 -0.457031,0.5859375 l -0.04687,0.0117187 z M 23.848187,-2.5086328 23.813031,-3.6101953 H 23.731 c -0.04687,0.058594 -0.09375,0.082031 -0.140625,0.082031 -0.03516,0 -0.08203,0 -0.164063,-0.035156 l -0.117187,-0.035156 c -0.164063,-0.058594 -0.316406,-0.082031 -0.46875,-0.082031 -0.644531,0 -1.101563,0.4101562 -1.101563,0.9960937 0,0.2460938 0.08203,0.46875 0.257813,0.65625 0.152344,0.1640625 0.328125,0.2929688 0.679687,0.4921875 l 0.457032,0.2578125 c 0.28125,0.1640625 0.421875,0.35156254 0.421875,0.60937504 0,0.3515625 -0.257813,0.57421875 -0.667969,0.57421875 -0.28125,0 -0.550781,-0.1171875 -0.691406,-0.328125 -0.175782,-0.2109375 -0.222657,-0.328125 -0.328125,-0.79687499 h -0.117188 v 1.25390624 h 0.09375 c 0.05859,-0.08203125 0.09375,-0.09375 0.1875,-0.09375 0.08203,0 0.164063,0.01171875 0.304688,0.046875 l 0.140625,0.0234375 c 0.175781,0.046875 0.351562,0.0703125 0.46875,0.0703125 0.667968,0 1.171875,-0.4453125 1.171875,-1.04296875 0,-0.38671879 -0.1875,-0.64453129 -0.679688,-0.93749999 l -0.855469,-0.515625 C 22.348187,-2.5437891 22.231,-2.7430078 22.231,-2.9656641 c 0,-0.3046875 0.246094,-0.5273437 0.609375,-0.5273437 0.292969,0 0.515625,0.1171875 0.65625,0.3632812 0.105469,0.1640625 0.140625,0.2695313 0.234375,0.6210938 z m 3.861329,1.1953125 c -0.386719,0.60937499 -0.726563,0.84374999 -1.242188,0.84374999 -0.527344,0 -0.960937,-0.3515625 -1.136719,-0.93749999 -0.07031,-0.234375 -0.09375,-0.3632813 -0.140625,-0.8085938 h 2.496094 c -0.08203,-0.5390625 -0.152344,-0.7734375 -0.351562,-1.0078125 -0.246094,-0.3046875 -0.609375,-0.4570312 -1.03125,-0.4570312 -0.984375,0 -1.664063,0.796875 -1.664063,1.96875 0,1.10156249 0.574219,1.79296874 1.5,1.79296874 0.761719,0 1.359375,-0.46875 1.699219,-1.33593754 z m -0.84375,-1.1601563 h -1.652344 c 0.07031,-0.3046875 0.09375,-0.3867187 0.1875,-0.5507812 0.140625,-0.2460938 0.375,-0.375 0.691406,-0.375 0.304688,0 0.527344,0.1289062 0.632813,0.375 0.07031,0.1640625 0.09375,0.2226562 0.140625,0.5507812 z m 0,0"
           style="fill:#24518e;fill-opacity:1;fill-rule:nonzero;stroke:none"
           aria-label="response"
           transform="matrix(1.3333333,0,0,1.3333333,214.89067,164.412)" />
        <path
           id="path39"
           d="m 5.6479453,6.875e-4 v -0.15234375 c -0.375,-0.0351563 -0.46875,-0.1171875 -0.7148437,-0.69140625 L 2.9409141,-5.3899375 H 2.7768516 l -1.6640625,3.9257812 c -0.31640629,0.7617188 -0.50390629,1.0898438 -0.66796879,1.21875005 -0.09375,0.0585938 -0.1640625,0.0820313 -0.328125,0.09375 V 6.875e-4 H 1.6987266 V -0.15165625 C 1.3237266,-0.163375 1.1596641,-0.257125 1.1596641,-0.4915 c 0,-0.0820313 0.023437,-0.19921875 0.058594,-0.3046875 l 0.375,-0.9375 h 2.0976563 l 0.328125,0.7734375 c 0.09375,0.22265625 0.1523437,0.421875 0.1523437,0.515625 0,0.2109375 -0.1289062,0.29296875 -0.4804687,0.29296875 H 3.6088828 V 6.875e-4 Z m -3.9140625,-2.0625 0.9140625,-2.1914063 0.9257813,2.1914063 z m 7.2304688,0.8085937 C 8.7534141,-0.94853125 8.7182578,-0.90165625 8.5424766,-0.7493125 8.3666953,-0.59696875 8.0971641,-0.4915 7.8393516,-0.4915 c -0.7382813,0 -1.2421875,-0.6445313 -1.2421875,-1.546875 0,-0.84375 0.4335937,-1.40625 1.078125,-1.40625 0.1523437,0 0.2929687,0.035156 0.3632812,0.1054687 0.046875,0.058594 0.070312,0.1289063 0.1289063,0.3398438 0.09375,0.3398437 0.2109375,0.4804687 0.421875,0.4804687 0.1992187,0 0.375,-0.1523437 0.375,-0.3515625 0,-0.4453125 -0.5625,-0.8085937 -1.2304688,-0.8085937 -0.9960937,0 -1.7578125,0.8554687 -1.7578125,1.9804687 0,1.03125005 0.6328125,1.78125005 1.5351563,1.78125005 0.4453125,0 0.8789062,-0.22265625 1.1835937,-0.62109375 0.1289063,-0.17578125 0.1875,-0.28125 0.375,-0.6328125 z m 2.4960934,0.63281255 c -0.175781,0.1875 -0.328125,0.28125 -0.480468,0.28125 -0.292969,0 -0.421875,-0.17578125 -0.421875,-0.5859375 V -3.3391563 h 0.796875 v -0.2578125 h -0.796875 v -1.03125 H 10.47607 C 10.265133,-4.194625 9.9252891,-3.8079063 9.4331016,-3.444625 v 0.1054687 h 0.4570312 v 2.296875 c 0,0.4335938 0,0.5273438 0.070312,0.70312505 0.046875,0.12890625 0.1406242,0.234375 0.2578132,0.3046875 0.128906,0.0703125 0.269531,0.1171875 0.421875,0.1171875 0.351561,0 0.667968,-0.2109375 0.925781,-0.62109375 z m 3.430664,-2.97656255 h -1.265625 v 0.1289063 h 0.04687 c 0.445313,0 0.539063,0.1289062 0.539063,0.5039062 v 1.8867188 c 0,0.2578125 -0.03516,0.33984375 -0.199219,0.46875 -0.1875,0.140625 -0.421875,0.22265625 -0.621094,0.22265625 -0.339843,0 -0.597656,-0.2578125 -0.597656,-0.609375 V -3.5969688 h -1.17187 V -3.4915 c 0.375,0.023437 0.492188,0.1523437 0.492188,0.515625 v 2.015625 c 0,0.62109375 0.386718,1.04296875 0.960937,1.04296875 0.304688,0 0.621094,-0.12890625 0.832031,-0.3515625 L 14.258297,-0.6086875 V 0.05928125 L 14.270016,0.071 14.340328,0.0475625 c 0.492188,-0.1640625 0.527344,-0.1875 0.714844,-0.24609375 0.08203,-0.0117188 0.164062,-0.0351563 0.246094,-0.0703125 l 0.08203,-0.0234375 V -0.39775 h -0.03516 c -0.375,0 -0.457032,-0.09375 -0.457032,-0.45703125 z m 4.201172,3.07031255 c -0.140625,0.10546875 -0.234375,0.15234375 -0.351562,0.15234375 -0.1875,0 -0.246094,-0.10546875 -0.246094,-0.46875 v -1.5585938 c 0,-0.5039062 -0.07031,-0.7734375 -0.257812,-0.9726562 C 18.037594,-3.5735313 17.732906,-3.679 17.334469,-3.679 c -0.738281,0 -1.335938,0.3867187 -1.335938,0.890625 0,0.1875 0.152344,0.3515625 0.351563,0.3515625 0.1875,0 0.351562,-0.1640625 0.351562,-0.3515625 0,-0.023437 0,-0.035156 -0.01172,-0.09375 -0.01172,-0.1054688 -0.02344,-0.1640625 -0.02344,-0.2109375 0,-0.2226563 0.246094,-0.3984375 0.574219,-0.3984375 0.398437,0 0.609375,0.2460937 0.609375,0.6679687 v 0.4921875 l -0.175781,0.070312 c -0.773438,0.3046875 -1.042969,0.421875 -1.3125,0.609375 -0.105469,0.070312 -0.199219,0.1523438 -0.28125,0.2460938 -0.164063,0.1875 -0.234375,0.3867187 -0.234375,0.64453125 0,0.4921875 0.351562,0.84375 0.84375,0.84375 0.351562,0 0.691406,-0.17578125 1.171875,-0.5859375 0.03516,0.41015625 0.1875,0.5859375 0.503906,0.5859375 0.28125,0 0.433594,-0.09375 0.726562,-0.3984375 z M 17.850094,-2.1438438 v 1.1601563 c 0,0.22265625 -0.03516,0.3046875 -0.152344,0.38671875 -0.1875,0.12890625 -0.445312,0.2109375 -0.644531,0.2109375 -0.28125,0 -0.503906,-0.26953125 -0.503906,-0.63281255 0,-0.328125 0.1875,-0.5976562 0.5625,-0.8085937 0.210937,-0.1171875 0.28125,-0.140625 0.738281,-0.3164063 z m 3.386719,1.52343755 c -0.175782,0.1875 -0.328125,0.28125 -0.480469,0.28125 -0.292969,0 -0.421875,-0.17578125 -0.421875,-0.5859375 V -3.3391563 h 0.796875 v -0.2578125 h -0.796875 v -1.03125 h -0.08203 c -0.210939,0.4335938 -0.550783,0.8203125 -1.04297,1.1835938 v 0.1054687 H 19.6665 v 2.296875 c 0,0.4335938 0,0.5273438 0.07031,0.70312505 0.04687,0.12890625 0.140625,0.234375 0.257812,0.3046875 0.128906,0.0703125 0.269531,0.1171875 0.421875,0.1171875 0.351563,0 0.667969,-0.2109375 0.925781,-0.62109375 z M 23.296383,-3.679 c -1.007813,0 -1.734375,0.7851562 -1.734375,1.8632812 0,1.10156255 0.738281,1.89843755 1.746094,1.89843755 1.007812,0 1.78125,-0.84375 1.78125,-1.95703125 0,-1.0664063 -0.738282,-1.8046875 -1.792969,-1.8046875 z m 0.140625,3.5390625 c -0.339844,0 -0.621094,-0.17578125 -0.808594,-0.515625 -0.222656,-0.4101563 -0.351562,-0.9609375 -0.351562,-1.5117188 0,-0.796875 0.375,-1.2890625 0.949218,-1.2890625 0.667969,0 1.148438,0.7734375 1.148438,1.8515625 0,0.91406255 -0.363281,1.4648438 -0.9375,1.4648438 z m 1.924805,0.140625 h 1.921875 V -0.1165 h -0.04687 C 26.744625,-0.1165 26.604,-0.2805625 26.604,-0.71415625 V -2.5188438 c 0,-0.140625 0.117188,-0.3515625 0.28125,-0.515625 0.09375,-0.082031 0.199219,-0.140625 0.269531,-0.140625 0.05859,0 0.105469,0.035156 0.175782,0.082031 l 0.08203,0.070312 c 0.105469,0.082031 0.1875,0.1289062 0.28125,0.1289062 0.199219,0 0.316406,-0.140625 0.316406,-0.3632812 0,-0.2578125 -0.175781,-0.421875 -0.433594,-0.421875 -0.222656,0 -0.410156,0.082031 -0.574218,0.2578125 -0.128907,0.1289062 -0.199219,0.1992187 -0.375,0.46875 H 26.604 v -0.7148438 l -0.03516,-0.011719 -0.07031,0.035156 c -0.246093,0.1054688 -0.421875,0.1640625 -0.679687,0.2460938 -0.128906,0.058594 -0.257813,0.082031 -0.363281,0.1289062 l -0.07031,0.023437 V -3.1165 c 0.105469,-0.023437 0.175781,-0.035156 0.28125,-0.035156 0.199219,0 0.269531,0.1289063 0.269531,0.4804688 v 2.00390625 c 0,0.38671875 -0.07031,0.46875 -0.515625,0.5390625 L 25.361813,-0.1165 Z m -88.998047,-3.609375 -0.07031,-1.8046875 h -0.164062 c -0.07031,0.1875 -0.1875,0.2695312 -0.363282,0.2695312 -0.04687,0 -0.117187,-0.023437 -0.234375,-0.058594 l -0.210937,-0.058594 c -0.316406,-0.082031 -0.667969,-0.1523437 -0.972656,-0.1523437 -1.59375,0 -2.71875,1.1601562 -2.71875,2.8007812 0,1.64062505 1.066406,2.7304688 2.671875,2.7304688 0.5625,0 1.078125,-0.15234375 1.535156,-0.4453125 0.292969,-0.1875 0.410156,-0.28125 0.632812,-0.57421875 l -0.140625,-0.14062505 c -0.292968,0.2695313 -0.410156,0.37500005 -0.65625,0.5039063 -0.351562,0.19921875 -0.738281,0.3046875 -1.136718,0.3046875 -1.21875,0 -1.980469,-0.9140625 -1.980469,-2.4140625 0,-0.8203125 0.175781,-1.4179688 0.5625,-1.8398438 0.339844,-0.3867187 0.820312,-0.5976562 1.335937,-0.5976562 0.550782,0 1.042969,0.234375 1.359375,0.65625 0.175782,0.2226562 0.246094,0.3984375 0.375,0.8203125 z M -61.286625,-3.679 c -1.007812,0 -1.734375,0.7851562 -1.734375,1.8632812 0,1.10156255 0.738281,1.89843755 1.746094,1.89843755 1.007812,0 1.78125,-0.84375 1.78125,-1.95703125 0,-1.0664063 -0.738281,-1.8046875 -1.792969,-1.8046875 z m 0.140625,3.5390625 c -0.339844,0 -0.621094,-0.17578125 -0.808594,-0.515625 -0.222656,-0.4101563 -0.351562,-0.9609375 -0.351562,-1.5117188 0,-0.796875 0.375,-1.2890625 0.949219,-1.2890625 0.667968,0 1.148437,0.7734375 1.148437,1.8515625 0,0.91406255 -0.363281,1.4648438 -0.9375,1.4648438 z m 2.030273,0.140625 h 1.699219 V -0.1165 h -0.03516 c -0.375,0 -0.492188,-0.140625 -0.492188,-0.421875 v -2.25 c 0.363282,-0.3398438 0.574219,-0.4570313 0.820313,-0.4570313 0.398437,0 0.585937,0.2578125 0.585937,0.7851563 v 1.6640625 c 0,0.2578125 -0.03516,0.4453125 -0.117187,0.5390625 -0.07031,0.09375 -0.164063,0.1171875 -0.386719,0.140625 V 6.875e-4 h 1.664063 V -0.1165 c -0.386719,-0.046875 -0.480469,-0.15234375 -0.480469,-0.52734375 V -2.4836875 c 0,-0.75 -0.351563,-1.1953125 -0.949219,-1.1953125 -0.1875,0 -0.398437,0.058594 -0.5625,0.1523437 -0.210937,0.1289063 -0.257812,0.1757813 -0.597656,0.4921875 v -0.6328125 l -0.05859,-0.011719 -0.07031,0.023437 c -0.28125,0.09375 -0.644532,0.2109375 -0.960938,0.3164062 l -0.07031,0.023437 v 0.1289063 c 0.105468,-0.023437 0.164062,-0.035156 0.234375,-0.035156 0.199218,0 0.28125,0.140625 0.28125,0.515625 v 1.99218755 c 0,0.43359375 -0.105469,0.52734375 -0.457032,0.5859375 l -0.04687,0.0117187 z m 5.991211,-0.62109375 c -0.175781,0.1875 -0.328125,0.28125 -0.480468,0.28125 -0.292969,0 -0.421875,-0.17578125 -0.421875,-0.5859375 V -3.3391563 h 0.796875 v -0.2578125 h -0.796875 v -1.03125 h -0.08203 c -0.210937,0.4335938 -0.550781,0.8203125 -1.042968,1.1835938 v 0.1054687 h 0.457031 v 2.296875 c 0,0.4335938 0,0.5273438 0.07031,0.70312505 0.04687,0.12890625 0.140625,0.234375 0.257813,0.3046875 0.128906,0.0703125 0.269531,0.1171875 0.421875,0.1171875 0.351562,0 0.667969,-0.2109375 0.925781,-0.62109375 z m 0.128907,0.62109375 h 1.921875 V -0.1165 h -0.04687 c -0.492188,0 -0.632813,-0.1640625 -0.632813,-0.59765625 V -2.5188438 c 0,-0.140625 0.117188,-0.3515625 0.28125,-0.515625 0.09375,-0.082031 0.199219,-0.140625 0.269531,-0.140625 0.05859,0 0.105469,0.035156 0.175782,0.082031 l 0.08203,0.070312 c 0.105469,0.082031 0.1875,0.1289062 0.28125,0.1289062 0.199219,0 0.316406,-0.140625 0.316406,-0.3632812 0,-0.2578125 -0.175781,-0.421875 -0.433594,-0.421875 -0.222656,0 -0.410156,0.082031 -0.574218,0.2578125 -0.128907,0.1289062 -0.199219,0.1992187 -0.375,0.46875 h -0.02344 v -0.7148438 l -0.03516,-0.011719 -0.07031,0.035156 c -0.246093,0.1054688 -0.421875,0.1640625 -0.679687,0.2460938 -0.128906,0.058594 -0.257813,0.082031 -0.363281,0.1289062 l -0.07031,0.023437 V -3.1165 c 0.105469,-0.023437 0.175781,-0.035156 0.28125,-0.035156 0.199219,0 0.269531,0.1289063 0.269531,0.4804688 v 2.00390625 c 0,0.38671875 -0.07031,0.46875 -0.515625,0.5390625 l -0.0586,0.0117185 z M -48.39893,-3.679 c -1.007812,0 -1.734375,0.7851562 -1.734375,1.8632812 0,1.10156255 0.738282,1.89843755 1.746094,1.89843755 1.007813,0 1.78125,-0.84375 1.78125,-1.95703125 0,-1.0664063 -0.738281,-1.8046875 -1.792969,-1.8046875 z m 0.140625,3.5390625 c -0.339843,0 -0.621093,-0.17578125 -0.808593,-0.515625 -0.222657,-0.4101563 -0.351563,-0.9609375 -0.351563,-1.5117188 0,-0.796875 0.375,-1.2890625 0.949219,-1.2890625 0.667969,0 1.148437,0.7734375 1.148437,1.8515625 0,0.91406255 -0.363281,1.4648438 -0.9375,1.4648438 z m 2.053711,0.140625 h 1.898438 V -0.1165 h -0.05859 c -0.445312,0 -0.550781,-0.12890625 -0.550781,-0.55078125 V -5.4485313 l -0.02344,-0.011719 -0.08203,0.023437 c -0.28125,0.082031 -0.410156,0.1171875 -0.667969,0.1875 -0.164062,0.035156 -0.316406,0.082031 -0.445312,0.1171875 l -0.08203,0.023437 V -4.9915 h 0.02344 c 0.140625,-0.011719 0.199219,-0.011719 0.269531,-0.011719 0.269532,0 0.339844,0.1054688 0.339844,0.4921875 v 3.82031255 c 0,0.41015625 -0.117187,0.52734375 -0.574219,0.5625 l -0.04687,0.0117187 z m 2.223633,0 h 1.898438 V -0.1165 h -0.05859 c -0.445313,0 -0.550781,-0.12890625 -0.550781,-0.55078125 V -5.4485313 l -0.02344,-0.011719 -0.08203,0.023437 c -0.28125,0.082031 -0.410156,0.1171875 -0.667969,0.1875 -0.164062,0.035156 -0.316406,0.082031 -0.445312,0.1171875 l -0.08203,0.023437 V -4.9915 h 0.02344 c 0.140625,-0.011719 0.199219,-0.011719 0.269531,-0.011719 0.269531,0 0.339844,0.1054688 0.339844,0.4921875 v 3.82031255 c 0,0.41015625 -0.117188,0.52734375 -0.574219,0.5625 l -0.04687,0.0117187 z m 5.329102,-1.3125 c -0.386719,0.609375 -0.726563,0.84375 -1.242188,0.84375 -0.527344,0 -0.960937,-0.3515625 -1.136719,-0.9375 -0.07031,-0.234375 -0.09375,-0.3632813 -0.140625,-0.8085938 h 2.496094 c -0.08203,-0.5390625 -0.152344,-0.7734375 -0.351562,-1.0078125 -0.246094,-0.3046875 -0.609375,-0.4570312 -1.03125,-0.4570312 -0.984375,0 -1.664063,0.796875 -1.664063,1.96875 0,1.1015625 0.574219,1.79296875 1.5,1.79296875 0.761719,0 1.359375,-0.46875 1.699219,-1.33593755 z m -0.84375,-1.1601563 h -1.652344 c 0.07031,-0.3046875 0.09375,-0.3867187 0.1875,-0.5507812 0.140625,-0.2460938 0.375,-0.375 0.691406,-0.375 0.304688,0 0.527344,0.1289062 0.632813,0.375 0.07031,0.1640625 0.09375,0.2226562 0.140625,0.5507812 z m 1.163086,2.4726563 h 1.921875 V -0.1165 h -0.04687 c -0.492188,0 -0.632813,-0.1640625 -0.632813,-0.59765625 V -2.5188438 c 0,-0.140625 0.117188,-0.3515625 0.28125,-0.515625 0.09375,-0.082031 0.199219,-0.140625 0.269531,-0.140625 0.05859,0 0.105469,0.035156 0.175782,0.082031 l 0.08203,0.070312 c 0.105469,0.082031 0.1875,0.1289062 0.28125,0.1289062 0.199219,0 0.316406,-0.140625 0.316406,-0.3632812 0,-0.2578125 -0.175781,-0.421875 -0.433594,-0.421875 -0.222656,0 -0.410156,0.082031 -0.574218,0.2578125 -0.128907,0.1289062 -0.199219,0.1992187 -0.375,0.46875 h -0.02344 v -0.7148438 l -0.03516,-0.011719 -0.07031,0.035156 c -0.246093,0.1054688 -0.421875,0.1640625 -0.679687,0.2460938 -0.128906,0.058594 -0.257813,0.082031 -0.363281,0.1289062 l -0.07031,0.023437 V -3.1165 c 0.105469,-0.023437 0.175781,-0.035156 0.28125,-0.035156 0.199219,0 0.269531,0.1289063 0.269531,0.4804688 v 2.00390625 c 0,0.38671875 -0.07031,0.46875 -0.515625,0.5390625 l -0.05859,0.0117187 z m 0,0"
           style="fill:#231f20;fill-opacity:1;fill-rule:nonzero;stroke:none"
           aria-label="ActuatorController"
           transform="matrix(1.3333333,0,0,1.3333333,398.56,157.93733)" />
        <path
           id="path40"
           d="M 0,0 V 2.451 5.019 L 5.017,2.504 Z"
           style="fill:#231f20;fill-opacity:1;fill-rule:nonzero;stroke:none"
           transform="matrix(1.3333333,0,0,-1.3333333,293.632,157.46533)" />
        <path
           id="path41"
           d="M 0,0 H -19.687"
           style="fill:none;stroke:#231f20;stroke-width:1.25;stroke-linecap:butt;stroke-linejoin:miter;stroke-miterlimit:4;stroke-dasharray:none;stroke-opacity:1"
           transform="matrix(1.3333333,0,0,-1.3333333,295.46468,154.11897)" />
        <path
           id="path42"
           d="M 0,0 V 2.451 5.019 L 5.017,2.504 Z"
           style="fill:#231f20;fill-opacity:1;fill-rule:nonzero;stroke:none"
           transform="matrix(1.3333333,0,0,-1.3333333,381.91055,157.46533)" />
        <path
           id="path43"
           d="M 0,0 H -19.688"
           style="fill:none;stroke:#231f20;stroke-width:1.25;stroke-linecap:butt;stroke-linejoin:miter;stroke-miterlimit:4;stroke-dasharray:none;stroke-opacity:1"
           transform="matrix(1.3333333,0,0,-1.3333333,383.74388,154.11897)" />
        <path
           id="path44"
           d="M 0,0 V 2.451 5.019 L 5.015,2.504 Z"
           style="fill:#231f20;fill-opacity:1;fill-rule:nonzero;stroke:none"
           transform="matrix(1.3333333,0,0,-1.3333333,470.06921,157.46533)" />
        <path
           id="path45"
           d="M 0,0 H -19.688"
           style="fill:none;stroke:#231f20;stroke-width:1.25;stroke-linecap:butt;stroke-linejoin:miter;stroke-miterlimit:4;stroke-dasharray:none;stroke-opacity:1"
           transform="matrix(1.3333333,0,0,-1.3333333,471.89987,154.11897)" />
        <path
           id="path46"
           d="M 0,0 V 2.452 5.019 L 5.015,2.504 Z"
           style="fill:#231f20;fill-opacity:1;fill-rule:nonzero;stroke:none"
           transform="matrix(1.3333333,0,0,-1.3333333,558.06387,157.46533)" />
        <path
           id="path47"
           d="M 0,0 H -19.688"
           style="fill:none;stroke:#231f20;stroke-width:1.25;stroke-linecap:butt;stroke-linejoin:miter;stroke-miterlimit:4;stroke-dasharray:none;stroke-opacity:1"
           transform="matrix(1.3333333,0,0,-1.3333333,559.8972,154.11833)" />
      </g>
    </g>
  </g>
</svg>
