<svg xmlns="http://www.w3.org/2000/svg"
   xmlns:xlink="http://www.w3.org/1999/xlink"
   version="1.1"
   id="parallel-rlc-circuit-step-response" width="100%" height="100%"  viewBox="-6 -6 1270 470">
<desc>
XCircuit Version 3.10
File "Documents/Schematics/circuit/notes/parallel-rlc-circuit-step-response.ps" Page 1
</desc>
<g stroke="black">
<path d="M0,0 L0,464 1264,464 1264,0 z" fill="#ffffff" stroke-width="2" stroke-linejoin="bevel" stroke-linecap="round" stroke="#ffffff" />
<path d="M608,288 L608,260 " fill="none" stroke-width="2" stroke-linejoin="bevel" stroke-linecap="round" stroke="#000000" />
<path d="M608,160 L608,188 " fill="none" stroke-width="2" stroke-linejoin="bevel" stroke-linecap="round" stroke="#000000" />
<path d="M608,188 L594,194 622,206 594,218 622,230 594,242 622,254 608,260 " fill="none" stroke-width="2" stroke-linejoin="bevel" stroke-linecap="round" stroke="#000000" />
<path d="M880,242 C900,246 900,262 880,266 " fill="none" stroke-width="2" stroke-linejoin="bevel" stroke-linecap="round" stroke="#000000" />
<path d="M880,242 C860,238 860,250 880,246 " fill="none" stroke-width="2" stroke-linejoin="bevel" stroke-linecap="round" stroke="#000000" />
<path d="M880,182 C900,186 900,202 880,206 " fill="none" stroke-width="2" stroke-linejoin="bevel" stroke-linecap="round" stroke="#000000" />
<path d="M880,202 C900,206 900,222 880,226 " fill="none" stroke-width="2" stroke-linejoin="bevel" stroke-linecap="round" stroke="#000000" />
<path d="M880,222 C900,226 900,242 880,246 " fill="none" stroke-width="2" stroke-linejoin="bevel" stroke-linecap="round" stroke="#000000" />
<path d="M880,202 C860,198 860,210 880,206 " fill="none" stroke-width="2" stroke-linejoin="bevel" stroke-linecap="round" stroke="#000000" />
<path d="M880,222 C860,218 860,230 880,226 " fill="none" stroke-width="2" stroke-linejoin="bevel" stroke-linecap="round" stroke="#000000" />
<path d="M880,266 L880,288 " fill="none" stroke-width="2" stroke-linejoin="bevel" stroke-linecap="round" stroke="#000000" />
<path d="M880,182 L880,160 " fill="none" stroke-width="2" stroke-linejoin="bevel" stroke-linecap="round" stroke="#000000" />
<path d="M1152,288 L1152,230 " fill="none" stroke-width="2" stroke-linejoin="bevel" stroke-linecap="round" stroke="#000000" />
<path d="M1152,160 L1152,218 " fill="none" stroke-width="2" stroke-linejoin="bevel" stroke-linecap="round" stroke="#000000" />
<path d="M1120,218 L1184,218 " fill="none" stroke-width="2" stroke-linejoin="bevel" stroke-linecap="round" stroke="#000000" />
<path d="M1120,230 L1184,230 " fill="none" stroke-width="2" stroke-linejoin="bevel" stroke-linecap="round" stroke="#000000" />
<g transform="matrix(   1    0   -0    1 640 240)" fill="#000000" >
<text stroke="none" font-family="Helvetica"  font-style="oblique" font-size="40" ><tspan x="0" y="0">R</tspan>
</text></g>
<g transform="matrix(   1    0   -0    1 912 240)" fill="#000000" >
<text stroke="none" font-family="Helvetica"  font-style="oblique" font-size="40" ><tspan x="0" y="0">L</tspan>
</text></g>
<g transform="matrix(   1    0   -0    1 1104 184)" fill="#2e8b57" >
<text stroke="none" font-family="Helvetica" font-size="40" ><tspan x="0" y="0">+</tspan>
</text></g>
<g transform="matrix(   1    0   -0    1 1104 288)" fill="#2e8b57" >
<text stroke="none" font-family="Helvetica" font-size="40" ><tspan x="0" y="0">-</tspan>
</text></g>
<g transform="matrix(   1    0   -0    1 1080 232)" fill="#2e8b57" >
<text stroke="none" font-family="Helvetica"  font-style="oblique" font-size="40" ><tspan x="0" y="0">v</tspan>
</text></g>
<g transform="matrix(   1    0   -0    1 1200 240)" fill="#000000" >
<text stroke="none" font-family="Helvetica"  font-style="oblique" font-size="40" ><tspan x="0" y="0">C</tspan>
</text></g>
<path d="M848,88 L848,148 " fill="none" stroke-width="1.6" stroke-linejoin="bevel" stroke-linecap="round" stroke="#2e8b57" />
<path d="M840,140 C845,150 845,153 848,168 C851,153 851,150 856,140 C850,142 846,142 840,140 " fill="#2e8b57" stroke="none" />
<g transform="matrix(   1    0   -0    1 816 120)" fill="#2e8b57" >
<text stroke="none" font-family="Helvetica"  font-style="oblique" font-size="40" ><tspan x="0" y="0">i</tspan>
</text></g>
<path d="M608,384 L608,416 " fill="none" stroke-width="2" stroke-linejoin="bevel" stroke-linecap="round" stroke="#000000" />
<path d="M576,416 L640,416 " fill="none" stroke-width="2" stroke-linejoin="bevel" stroke-linecap="round" stroke="#000000" />
<path d="M590,430 L626,430 " fill="none" stroke-width="2" stroke-linejoin="bevel" stroke-linecap="round" stroke="#000000" />
<path d="M604,444 L612,444 " fill="none" stroke-width="2" stroke-linejoin="bevel" stroke-linecap="round" stroke="#000000" />
<path d="M880,288 L880,384 " fill="none" stroke-width="2" stroke-linejoin="bevel" stroke-linecap="round" stroke="#000000" />
<path d="M880,160 L880,64 1152,64 1152,160 " fill="none" stroke-width="2" stroke-linejoin="bevel" stroke-linecap="round" stroke="#000000" />
<path d="M608,288 L608,384 1152,384 1152,288 " fill="none" stroke-width="2" stroke-linejoin="bevel" stroke-linecap="round" stroke="#000000" />
<ellipse cx="880" cy="384" rx="6" ry="6" fill="#000000" stroke="none" />
<path d="M608,160 L608,64 880,64 " fill="none" stroke-width="2" stroke-linejoin="bevel" stroke-linecap="round" stroke="#000000" />
<ellipse cx="880" cy="64" rx="6" ry="6" fill="#000000" stroke="none" />
<g transform="matrix(   1    0   -0    1 592  40)" fill="#2e8b57" >
<text stroke="none" font-family="Helvetica"  font-style="oblique" font-size="40" ><tspan x="0" y="0">v</tspan>
</text></g>
<path d="M368,272 L338,197 " fill="none" stroke-width="2.6" stroke-linejoin="bevel" stroke-linecap="round" stroke="#000000" />
<path d="M373,235 A57,57 0 0,1 336,249 " fill="none" stroke-width="1.2" stroke-linejoin="bevel" stroke-linecap="round" stroke="#000000" />
<ellipse cx="336" cy="192" rx="6" ry="6" fill="none" stroke-width="2" stroke-linejoin="bevel" stroke-linecap="round" stroke="#000000" />
<path d="M336,176 L336,186 " fill="none" stroke-width="2" stroke-linejoin="bevel" stroke-linecap="round" stroke="#000000" />
<path d="M341,253 C335,250 333,250 324,248 C333,246 335,246 341,243 C340,247 340,249 341,253 " fill="#000000" stroke="none" />
<ellipse cx="336" cy="272" rx="6" ry="6" fill="none" stroke-width="2" stroke-linejoin="bevel" stroke-linecap="round" stroke="#000000" />
<path d="M336,288 L336,278 " fill="none" stroke-width="2" stroke-linejoin="bevel" stroke-linecap="round" stroke="#000000" />
<ellipse cx="64" cy="224" rx="32" ry="32" fill="none" stroke-width="2" stroke-linejoin="bevel" stroke-linecap="round" stroke="#000000" />
<path d="M64,256 L64,288 " fill="none" stroke-width="2" stroke-linejoin="bevel" stroke-linecap="round" stroke="#000000" />
<path d="M64,192 L64,160 " fill="none" stroke-width="2" stroke-linejoin="bevel" stroke-linecap="round" stroke="#000000" />
<path d="M64,244 L64,216 " fill="none" stroke-width="1.5" stroke-linejoin="bevel" stroke-linecap="round" stroke="#000000" />
<path d="M70,226 C66,218 66,216 64,204 C62,216 62,218 58,226 C62,225 66,225 70,226 " fill="#000000" stroke="none" />
<path d="M336,288 L336,384 608,384 " fill="none" stroke-width="2" stroke-linejoin="bevel" stroke-linecap="round" stroke="#000000" />
<path d="M336,176 L336,64 608,64 " fill="none" stroke-width="2" stroke-linejoin="bevel" stroke-linecap="round" stroke="#000000" />
<path d="M64,160 L64,64 336,64 " fill="none" stroke-width="2" stroke-linejoin="bevel" stroke-linecap="round" stroke="#000000" />
<path d="M64,288 L64,384 336,384 " fill="none" stroke-width="2" stroke-linejoin="bevel" stroke-linecap="round" stroke="#000000" />
<ellipse cx="336" cy="384" rx="6" ry="6" fill="#000000" stroke="none" />
<ellipse cx="336" cy="64" rx="6" ry="6" fill="#000000" stroke="none" />
<ellipse cx="608" cy="64" rx="6" ry="6" fill="#000000" stroke="none" />
<ellipse cx="608" cy="384" rx="6" ry="6" fill="#000000" stroke="none" />
<g transform="matrix(   1    0   -0    1 112 240)" fill="#000000" >
<text stroke="none" font-family="Helvetica"  font-style="oblique" font-size="40" ><tspan x="0" y="0">I<tspan dy="9" font-size="26.8">s</tspan></tspan>
</text></g>
<g transform="matrix(   1    0   -0    1 368 208)" fill="#ee9a00" >
<text stroke="none" font-family="Helvetica"  font-style="oblique" font-size="40" ><tspan x="0" y="0">t = 0</tspan>
</text></g>
<path d="M376,239 C378,233 379,232 384,224 C376,229 375,230 369,232 C372,234 374,236 376,239 " fill="#000000" stroke="none" />
<path d="M324,240 L324,256 340,256 340,240 z" fill="#ffffff" stroke-width="2" stroke-linejoin="bevel" stroke-linecap="round" stroke="#ffffff" />
</g>
</svg>
