<?xml version="1.0" encoding="UTF-8" standalone="no"?>
<!-- Created with Inkscape (http://www.inkscape.org/) -->

<svg
   version="1.1"
   id="svg1"
   viewBox="0 0 316.91638 103.12738"
   xmlns="http://www.w3.org/2000/svg"
   xmlns:svg="http://www.w3.org/2000/svg">
  <defs
     id="defs1" />
  <g
     id="g410"
     transform="translate(-207.94954,-593.53461)">
    <rect
       style="fill:#ffffff;stroke-width:1.08314"
       id="rect407"
       width="316.91638"
       height="103.12741"
       x="207.94954"
       y="593.53461" />
    <g
       id="g404"
       transform="translate(4.2345168,38.140585)">
      <path
         id="path148"
         d="M 0,0 3.725,-5.281"
         style="fill:none;stroke:#006779;stroke-width:0.75;stroke-linecap:butt;stroke-linejoin:miter;stroke-miterlimit:4;stroke-dasharray:none;stroke-opacity:1"
         transform="matrix(1.3333333,0,0,-1.3333333,233.696,579.88)" />
      <path
         id="path149"
         d="M 0,0 3.725,5.281"
         style="fill:none;stroke:#006779;stroke-width:0.75;stroke-linecap:butt;stroke-linejoin:miter;stroke-miterlimit:4;stroke-dasharray:none;stroke-opacity:1"
         transform="matrix(1.3333333,0,0,-1.3333333,233.696,586.92)" />
      <path
         id="path152"
         d="M 0,0 3.725,-5.281"
         style="fill:none;stroke:#006779;stroke-width:0.75;stroke-linecap:butt;stroke-linejoin:miter;stroke-miterlimit:4;stroke-dasharray:none;stroke-opacity:1"
         transform="matrix(1.3333333,0,0,-1.3333333,233.696,634.33333)" />
      <path
         id="path153"
         d="M 0,0 3.725,5.281"
         style="fill:none;stroke:#006779;stroke-width:0.75;stroke-linecap:butt;stroke-linejoin:miter;stroke-miterlimit:4;stroke-dasharray:none;stroke-opacity:1"
         transform="matrix(1.3333333,0,0,-1.3333333,233.696,641.37333)" />
      <path
         id="path162"
         d="m 0,0 c -0.54,-0.056 -0.659,-0.161 -0.659,-0.896 v -1.827 c 0,-0.56 0,-1.877 -1.813,-1.877 -1.736,0 -1.736,1.365 -1.736,1.786 v 2.184 c 0,0.519 -0.099,0.596 -0.631,0.63 v 0.134 h 1.981 V 0 c -0.553,-0.042 -0.637,-0.132 -0.637,-0.63 v -2.24 c 0,-0.449 0,-1.422 1.218,-1.422 0.547,0 0.945,0.224 1.149,0.554 0.091,0.153 0.161,0.385 0.161,0.952 v 1.89 c 0,0.749 -0.168,0.868 -0.658,0.896 V 0.134 H 0 V 0"
         style="fill:#006779;fill-opacity:1;fill-rule:nonzero;stroke:none"
         transform="matrix(1.3333333,0,0,-1.3333333,438.856,636.12)" />
      <path
         id="path163"
         d="m 0,0 c 0,0.441 -0.134,0.448 -0.245,0.448 -0.099,0 -0.176,-0.014 -0.203,-0.028 V 0.539 C -0.134,0.63 0.196,0.735 0.518,0.854 L 0.567,0.84 V 0.287 c 0.343,0.322 0.609,0.567 1.022,0.567 0.322,0 0.819,-0.189 0.819,-1.05 V -1.8 c 0,-0.328 0.084,-0.434 0.427,-0.462 V -2.367 H 1.379 v 0.105 c 0.259,0.021 0.442,0.056 0.442,0.589 v 1.463 c 0,0.427 -0.126,0.679 -0.54,0.679 -0.209,0 -0.427,-0.14 -0.693,-0.399 v -1.967 c 0,-0.231 0.098,-0.344 0.462,-0.365 v -0.105 h -1.484 v 0.105 C -0.105,-2.241 0,-2.149 0,-1.736 V 0"
         style="fill:#006779;fill-opacity:1;fill-rule:nonzero;stroke:none"
         transform="matrix(1.3333333,0,0,-1.3333333,439.76267,638.97333)" />
      <path
         id="path164"
         d="m 0,0 c -0.05,0.476 -0.393,0.7 -0.722,0.7 -0.392,0 -0.868,-0.343 -0.868,-1.295 0,-1.044 0.504,-1.436 0.966,-1.436 0.294,0 0.567,0.168 0.624,0.421 z M 1.056,-2.031 C 0.72,-2.149 0.398,-2.262 0.027,-2.394 L 0,-2.373 v 0.426 h -0.015 c -0.126,-0.189 -0.385,-0.447 -0.903,-0.447 -0.273,0 -1.274,0.139 -1.274,1.568 0,0.917 0.665,1.722 1.449,1.722 0.301,0 0.511,-0.098 0.743,-0.301 v 1.092 c 0,0.211 0,0.358 -0.309,0.358 -0.042,0 -0.112,0 -0.168,-0.008 V 2.149 C -0.126,2.24 0.216,2.338 0.552,2.458 L 0.587,2.443 v -3.969 c 0,-0.287 0,-0.428 0.469,-0.392 v -0.113"
         style="fill:#006779;fill-opacity:1;fill-rule:nonzero;stroke:none"
         transform="matrix(1.3333333,0,0,-1.3333333,446.856,639.02667)" />
      <path
         id="path165"
         d="M 0,0 C -0.049,0.336 -0.118,0.805 -0.672,0.805 -1.057,0.805 -1.33,0.616 -1.443,0 Z m 0.847,-1.065 c -0.07,-0.216 -0.476,-1.168 -1.484,-1.168 -0.777,0 -1.31,0.573 -1.31,1.568 0,1.295 0.869,1.722 1.429,1.722 0.658,0 1.155,-0.364 1.233,-1.281 h -2.178 c 0.084,-1.239 0.651,-1.527 1.113,-1.527 0.623,0 0.924,0.477 1.085,0.736 l 0.112,-0.05"
         style="fill:#006779;fill-opacity:1;fill-rule:nonzero;stroke:none"
         transform="matrix(1.3333333,0,0,-1.3333333,451.176,639.24)" />
      <path
         id="path166"
         d="M 0,0 C 0,0.413 -0.133,0.42 -0.245,0.42 -0.342,0.42 -0.42,0.406 -0.483,0.392 V 0.504 C -0.14,0.616 0.21,0.742 0.553,0.882 L 0.588,0.868 V 0.245 h 0.014 c 0.329,0.497 0.567,0.637 0.834,0.637 0.237,0 0.378,-0.147 0.378,-0.378 0,-0.175 -0.099,-0.308 -0.267,-0.308 -0.245,0 -0.314,0.245 -0.482,0.245 -0.168,0 -0.477,-0.35 -0.477,-0.574 v -1.575 c 0,-0.484 0.238,-0.511 0.596,-0.526 v -0.105 h -1.681 v 0.105 C -0.112,-2.163 0,-2.142 0,-1.75 V 0"
         style="fill:#006779;fill-opacity:1;fill-rule:nonzero;stroke:none"
         transform="matrix(1.3333333,0,0,-1.3333333,453.20267,639)" />
      <path
         id="path167"
         d="m 0,0 c -0.049,0.476 -0.393,0.7 -0.722,0.7 -0.391,0 -0.868,-0.343 -0.868,-1.295 0,-1.044 0.504,-1.436 0.967,-1.436 0.294,0 0.566,0.168 0.623,0.421 z M 1.057,-2.031 C 0.721,-2.149 0.398,-2.262 0.027,-2.394 L 0,-2.373 v 0.426 h -0.015 c -0.126,-0.189 -0.384,-0.447 -0.903,-0.447 -0.272,0 -1.273,0.139 -1.273,1.568 0,0.917 0.665,1.722 1.449,1.722 0.301,0 0.511,-0.098 0.742,-0.301 v 1.092 c 0,0.211 0,0.358 -0.309,0.358 -0.042,0 -0.111,0 -0.168,-0.008 v 0.112 c 0.351,0.091 0.694,0.189 1.03,0.309 L 0.588,2.443 v -3.969 c 0,-0.287 0,-0.428 0.469,-0.392 v -0.113"
         style="fill:#006779;fill-opacity:1;fill-rule:nonzero;stroke:none"
         transform="matrix(1.3333333,0,0,-1.3333333,458.776,639.02667)" />
      <path
         id="path168"
         d="m 0,0 c -1.058,-0.35 -1.135,-0.742 -1.135,-0.981 v -0.013 c 0,-0.329 0.203,-0.547 0.462,-0.547 0.154,0 0.371,0.092 0.435,0.126 0.216,0.105 0.238,0.19 0.238,0.4 z m 1.085,-1.596 c -0.294,-0.344 -0.511,-0.35 -0.623,-0.35 -0.126,0 -0.42,0.006 -0.455,0.51 -0.259,-0.231 -0.63,-0.51 -1.016,-0.51 -0.378,0 -0.742,0.258 -0.742,0.728 0,0.7 0.609,0.938 1.751,1.386 v 0.427 c 0,0.504 -0.329,0.581 -0.539,0.581 -0.232,0 -0.497,-0.126 -0.497,-0.343 0,-0.105 0.034,-0.21 0.034,-0.273 0,-0.147 -0.133,-0.301 -0.315,-0.301 -0.216,0 -0.301,0.196 -0.301,0.308 0,0.28 0.329,0.777 1.141,0.777 1.043,0 1.043,-0.7 1.043,-1.12 v -1.365 c 0,-0.203 0,-0.407 0.203,-0.407 0.148,0 0.239,0.07 0.316,0.133 v -0.181"
         style="fill:#006779;fill-opacity:1;fill-rule:nonzero;stroke:none"
         transform="matrix(1.3333333,0,0,-1.3333333,462.94933,639.62667)" />
      <path
         id="path169"
         d="M 0,0 C 0,0.441 -0.134,0.448 -0.245,0.448 -0.344,0.448 -0.413,0.434 -0.47,0.42 V 0.539 C -0.141,0.63 0.188,0.735 0.511,0.854 L 0.56,0.84 V 0.315 c 0.413,0.315 0.7,0.539 1.078,0.539 0.455,0 0.673,-0.294 0.749,-0.588 0.147,0.168 0.574,0.588 1.128,0.588 0.727,0 0.826,-0.728 0.826,-1.246 v -1.442 c 0,-0.155 -0.007,-0.365 0.301,-0.413 L 4.823,-2.262 V -2.367 H 3.29 v 0.105 c 0.351,0.042 0.463,0.056 0.463,0.505 v 1.477 c 0,0.357 -0.008,0.77 -0.512,0.77 -0.385,0 -0.623,-0.189 -0.777,-0.427 v -1.765 c 0,-0.532 0.218,-0.553 0.505,-0.56 V -2.367 H 1.4 v 0.105 c 0.315,0.021 0.476,0.042 0.476,0.497 v 1.52 C 1.876,0.217 1.757,0.49 1.393,0.49 0.91,0.49 0.588,0.112 0.588,0.077 v -1.974 c 0,-0.344 0.23,-0.358 0.475,-0.365 V -2.367 H -0.49 v 0.105 C -0.21,-2.255 0,-2.241 0,-1.771 V 0"
         style="fill:#006779;fill-opacity:1;fill-rule:nonzero;stroke:none"
         transform="matrix(1.3333333,0,0,-1.3333333,465.216,638.97333)" />
      <path
         id="path170"
         d="m 0,0 c 0,-0.162 0.329,-0.463 0.714,-0.463 0.231,0 0.861,0.133 0.861,1.352 C 1.575,1.05 1.54,2.184 0.687,2.184 0.434,2.184 0.042,1.988 0,1.722 Z m -0.588,1.743 c 0,0.28 -0.021,0.399 -0.266,0.399 -0.063,0 -0.133,0 -0.196,-0.007 v 0.112 c 0.336,0.105 0.672,0.224 1.008,0.357 L 0,2.59 V 2.079 L 0.014,2.065 c 0.147,0.196 0.469,0.539 1.008,0.539 0.624,0 1.156,-0.574 1.156,-1.505 0,-0.805 -0.497,-1.785 -1.471,-1.785 -0.28,0 -0.476,0.076 -0.707,0.3 L 0,-1.485 C 0,-1.933 0.112,-2.01 0.616,-2.01 v -0.126 h -1.694 v 0.119 c 0.462,0.035 0.49,0.182 0.49,0.483 v 3.277"
         style="fill:#006779;fill-opacity:1;fill-rule:nonzero;stroke:none"
         transform="matrix(1.3333333,0,0,-1.3333333,473.16267,641.30667)" />
      <path
         id="path171"
         d="M 0,0 C -0.049,0.336 -0.118,0.805 -0.672,0.805 -1.057,0.805 -1.33,0.616 -1.443,0 Z m 0.847,-1.065 c -0.07,-0.216 -0.476,-1.168 -1.484,-1.168 -0.777,0 -1.309,0.573 -1.309,1.568 0,1.295 0.868,1.722 1.428,1.722 0.658,0 1.156,-0.364 1.233,-1.281 h -2.178 c 0.084,-1.239 0.651,-1.527 1.113,-1.527 0.623,0 0.924,0.477 1.085,0.736 l 0.112,-0.05"
         style="fill:#006779;fill-opacity:1;fill-rule:nonzero;stroke:none"
         transform="matrix(1.3333333,0,0,-1.3333333,479.176,639.24)" />
      <path
         id="path172"
         d="m 0,0 c -0.049,0.476 -0.393,0.7 -0.722,0.7 -0.391,0 -0.868,-0.343 -0.868,-1.295 0,-1.044 0.504,-1.436 0.967,-1.436 0.294,0 0.566,0.168 0.623,0.421 z M 1.057,-2.031 C 0.721,-2.149 0.398,-2.262 0.027,-2.394 L 0,-2.373 v 0.426 h -0.015 c -0.126,-0.189 -0.384,-0.447 -0.903,-0.447 -0.272,0 -1.273,0.139 -1.273,1.568 0,0.917 0.665,1.722 1.449,1.722 0.301,0 0.511,-0.098 0.742,-0.301 v 1.092 c 0,0.211 0,0.358 -0.309,0.358 -0.042,0 -0.111,0 -0.168,-0.008 v 0.112 c 0.351,0.091 0.694,0.189 1.03,0.309 L 0.588,2.443 v -3.969 c 0,-0.287 0,-0.428 0.469,-0.392 v -0.113"
         style="fill:#006779;fill-opacity:1;fill-rule:nonzero;stroke:none"
         transform="matrix(1.3333333,0,0,-1.3333333,483.656,639.02667)" />
      <path
         id="path218"
         d="M 0,0 V -39.181 H 58.773"
         style="fill:none;stroke:#000000;stroke-width:0.5;stroke-linecap:butt;stroke-linejoin:miter;stroke-miterlimit:4;stroke-dasharray:none;stroke-opacity:1"
         transform="matrix(1.3333333,0,0,-1.3333333,419.36267,579.09333)" />
      <path
         id="path219"
         d="m 0,0 c 6.945,7.688 7.069,36.391 13.516,36.391 6.076,0 6.323,-12.151 14.384,-12.151 5.585,0 6.323,4.092 13.887,4.092 8.059,0 1.982,-2.108 20.086,-2.108"
         style="fill:none;stroke:#000000;stroke-width:0.75;stroke-linecap:butt;stroke-linejoin:miter;stroke-miterlimit:4;stroke-dasharray:none;stroke-opacity:1"
         transform="matrix(1.3333333,0,0,-1.3333333,419.696,631.25333)" />
      <path
         id="path220"
         d="M 0,0 3.258,-0.858 0,-1.719 V 0"
         style="fill:#000000;fill-opacity:1;fill-rule:nonzero;stroke:none"
         transform="matrix(1.3333333,0,0,-1.3333333,496.68267,630.18667)" />
      <path
         id="path221"
         d="M 0,0 0.859,3.257 1.719,0 H 0"
         style="fill:#000000;fill-opacity:1;fill-rule:nonzero;stroke:none"
         transform="matrix(1.3333333,0,0,-1.3333333,418.256,580.12)" />
      <path
         id="path222"
         d="m 0,0 h -0.588 l -0.617,-2.332 c -0.006,-0.021 -0.006,-0.034 -0.006,-0.055 0,-0.063 0.035,-0.119 0.112,-0.119 0.14,0 0.385,0.329 0.56,0.553 l 0.091,-0.049 c -0.357,-0.539 -0.631,-0.848 -0.995,-0.848 -0.139,0 -0.336,0.071 -0.336,0.281 0,0.105 0.133,0.532 0.161,0.644 L -1.114,0 h -0.517 c -0.007,0.042 -0.007,0.077 0.013,0.112 0.042,0.063 0.239,0.112 0.358,0.175 0.23,0.119 0.567,0.434 0.762,0.679 0.029,0.035 0.057,0.098 0.12,0.084 0.048,0.014 0.063,-0.049 0.048,-0.105 L -0.525,0.224 h 0.56 L 0,0"
         style="fill:#000000;fill-opacity:1;fill-rule:nonzero;stroke:none"
         transform="matrix(1.3333333,0,0,-1.3333333,509.12267,630.33333)" />
      <path
         id="path223"
         d="m 0,0 c -0.174,-0.224 -0.581,-0.749 -1.316,-0.749 -0.455,0 -1.036,0.175 -1.036,1.106 0,0.987 0.966,2.059 2.003,2.059 0.588,0 0.762,-0.351 0.762,-0.568 0,-0.196 -0.154,-0.322 -0.329,-0.322 -0.174,0 -0.28,0.098 -0.28,0.259 0,0.182 0.106,0.224 0.106,0.343 0,0.105 -0.14,0.141 -0.267,0.141 -0.91,0 -1.393,-1.24 -1.393,-1.912 0,-0.539 0.21,-0.854 0.637,-0.854 0.42,0 0.749,0.287 1.001,0.567 L 0,0"
         style="fill:#000000;fill-opacity:1;fill-rule:nonzero;stroke:none"
         transform="matrix(1.3333333,0,0,-1.3333333,419.46933,569.04)" />
      <path
         id="path224"
         d="m 0,0 c -0.518,-0.413 -1.19,-0.959 -1.19,-2.738 0,-0.714 0,-2.247 1.19,-3.011 L -0.084,-5.86 c -0.406,0.216 -0.868,0.707 -1.135,1.099 -0.342,0.504 -0.574,1.008 -0.574,1.974 0,1.205 0.645,2.255 1.73,2.899 L 0,0"
         style="fill:#000000;fill-opacity:1;fill-rule:nonzero;stroke:none"
         transform="matrix(1.3333333,0,0,-1.3333333,423.04267,563.77333)" />
      <path
         id="path225"
         d="m 0,0 h -0.587 l -0.617,-2.331 c -0.007,-0.022 -0.007,-0.035 -0.007,-0.056 0,-0.063 0.036,-0.119 0.113,-0.119 0.139,0 0.385,0.329 0.559,0.553 l 0.092,-0.049 c -0.357,-0.54 -0.631,-0.848 -0.995,-0.848 -0.14,0 -0.336,0.071 -0.336,0.281 0,0.105 0.133,0.532 0.161,0.644 L -1.113,0 H -1.63 c -0.007,0.042 -0.007,0.077 0.013,0.112 0.042,0.063 0.238,0.112 0.358,0.175 0.23,0.119 0.567,0.434 0.762,0.679 0.029,0.035 0.057,0.098 0.119,0.084 0.049,0.014 0.064,-0.049 0.049,-0.105 L -0.524,0.224 h 0.56 L 0,0"
         style="fill:#000000;fill-opacity:1;fill-rule:nonzero;stroke:none"
         transform="matrix(1.3333333,0,0,-1.3333333,426.02933,566.22667)" />
      <path
         id="path226"
         d="m 0,0 c 0.517,0.413 1.19,0.959 1.19,2.738 0,0.714 0,2.247 -1.19,3.011 L 0.084,5.86 C 0.49,5.644 0.952,5.153 1.217,4.761 1.561,4.257 1.792,3.753 1.792,2.787 1.792,1.583 1.148,0.532 0.062,-0.112 L 0,0"
         style="fill:#000000;fill-opacity:1;fill-rule:nonzero;stroke:none"
         transform="matrix(1.3333333,0,0,-1.3333333,426.176,571.42667)" />
      <path
         id="path241"
         d="M 0,0 5.11,-1.347 0,-2.697 V 0"
         style="fill:#000000;fill-opacity:1;fill-rule:nonzero;stroke:none"
         transform="matrix(1.3333333,0,0,-1.3333333,311.376,608.30667)" />
      <path
         id="path242"
         d="M 0,0 H -74.491"
         style="fill:none;stroke:#000000;stroke-width:0.5;stroke-linecap:butt;stroke-linejoin:miter;stroke-miterlimit:10;stroke-dasharray:none;stroke-opacity:1"
         transform="matrix(1.3333333,0,0,-1.3333333,314.94933,610.09333)" />
      <path
         id="path243"
         d="M 0,0 1.347,5.109 2.697,0 H 0"
         style="fill:#000000;fill-opacity:1;fill-rule:nonzero;stroke:none"
         transform="matrix(1.3333333,0,0,-1.3333333,265.10933,581.2)" />
      <path
         id="path244"
         d="M 0,0 V -54.263"
         style="fill:none;stroke:#000000;stroke-width:0.5;stroke-linecap:butt;stroke-linejoin:miter;stroke-miterlimit:10;stroke-dasharray:none;stroke-opacity:1"
         transform="matrix(1.3333333,0,0,-1.3333333,266.896,576.6)" />
      <path
         id="path280"
         d="m 0,0 c -0.176,0 -0.337,0.119 -0.337,0.364 0,0.245 0.161,0.378 0.329,0.378 0.232,0 0.351,-0.231 0.351,-0.385 C 0.343,0.217 0.23,0 0,0 Z m -0.673,-1.814 c 0.091,0.358 0.126,0.512 0.106,0.596 0,0.119 -0.036,0.168 -0.274,0.189 l -0.238,-0.007 v 0.112 c 0.287,0.014 0.918,0.126 1.19,0.175 l 0.022,-0.014 -0.729,-2.878 c -0.287,-1.12 -0.693,-1.645 -1.316,-1.645 -0.231,0 -0.546,0.105 -0.546,0.448 0,0.028 0.028,0.273 0.287,0.273 0.14,0 0.28,-0.105 0.28,-0.252 0,-0.147 -0.091,-0.147 -0.091,-0.231 0,-0.07 0.077,-0.078 0.14,-0.078 0.358,0 0.532,0.729 0.665,1.268 l 0.504,2.044"
         style="fill:#000000;fill-opacity:1;fill-rule:nonzero;stroke:none"
         transform="matrix(1.3333333,0,0,-1.3333333,277.496,582.82667)" />
      <path
         id="path281"
         d="m 0,0 c -0.272,-0.364 -0.463,-0.615 -0.757,-0.615 -0.25,0 -0.261,0.163 -0.261,0.321 0,0.131 0.403,1.46 0.403,1.678 0,0.098 -0.032,0.174 -0.136,0.174 -0.261,0 -0.604,-0.468 -0.801,-0.774 -0.25,-0.376 -0.321,-0.609 -0.544,-1.35 h -0.409 c 0.169,0.615 0.535,1.89 0.535,2.004 0,0.082 -0.055,0.141 -0.349,0.141 v 0.088 c 0.294,0.054 0.588,0.109 0.882,0.169 l 0.016,-0.012 -0.348,-1.138 0.01,-0.01 c 0.256,0.402 0.757,1.16 1.209,1.16 0.251,0 0.376,-0.131 0.376,-0.36 0,-0.234 -0.435,-1.579 -0.435,-1.743 0,-0.081 0.076,-0.092 0.087,-0.092 0.108,0 0.245,0.174 0.446,0.43 L 0,0"
         style="fill:#000000;fill-opacity:1;fill-rule:nonzero;stroke:none"
         transform="matrix(1.3333333,0,0,-1.3333333,287.816,589.25333)" />
      <path
         id="path282"
         d="m 0,0 c -0.484,-0.168 -0.68,-0.294 -0.878,-0.539 -0.501,-0.609 -0.63,-1.414 -0.646,-1.883 -0.006,-0.364 0.046,-0.511 0.147,-0.63 0.111,-0.134 0.258,-0.168 0.466,-0.112 0.49,0.132 0.647,0.707 0.711,0.84 -0.048,0.364 -0.095,0.805 0.123,1.365 0.121,0.309 0.253,0.469 0.435,0.469 0.182,0 0.245,-0.16 0.237,-0.469 C 0.573,-1.519 0.34,-1.96 0.136,-2.324 0.142,-2.457 0.055,-3.032 0.489,-3.164 0.673,-3.22 0.835,-3.186 1.004,-3.052 1.155,-2.933 1.27,-2.786 1.417,-2.422 1.6,-1.953 1.813,-1.148 1.572,-0.539 1.477,-0.294 1.337,-0.168 0.924,0 L 0.949,0.12 C 1.191,0.105 1.615,0.155 1.927,-0.126 2.297,-0.461 2.438,-0.91 2.366,-1.519 2.307,-2.023 2.191,-2.338 1.959,-2.709 1.768,-3.011 1.44,-3.297 1.181,-3.402 0.966,-3.493 0.589,-3.585 0.289,-3.381 c -0.215,0.14 -0.305,0.245 -0.424,0.574 -0.26,-0.329 -0.393,-0.434 -0.669,-0.574 -0.386,-0.204 -0.724,-0.112 -0.899,-0.021 -0.217,0.105 -0.422,0.391 -0.485,0.693 -0.074,0.371 -0.056,0.686 0.101,1.19 0.184,0.609 0.518,1.058 1.03,1.393 0.431,0.281 0.834,0.231 1.082,0.246 L 0,0"
         style="fill:#000000;fill-opacity:1;fill-rule:nonzero;stroke:none"
         transform="matrix(1.3333333,0,0,-1.3333333,281.50933,583.49333)" />
      <path
         id="path283"
         d="m 0,0 c -0.174,0 -0.336,0.119 -0.336,0.364 0,0.245 0.162,0.378 0.33,0.378 0.231,0 0.35,-0.231 0.35,-0.385 C 0.344,0.217 0.231,0 0,0 Z m -0.671,-1.813 c 0.09,0.357 0.125,0.511 0.105,0.595 0,0.119 -0.036,0.168 -0.274,0.189 l -0.238,-0.007 v 0.112 c 0.287,0.014 0.917,0.126 1.191,0.175 l 0.021,-0.014 -0.729,-2.878 c -0.287,-1.12 -0.693,-1.645 -1.316,-1.645 -0.231,0 -0.546,0.105 -0.546,0.448 0,0.028 0.028,0.273 0.287,0.273 0.14,0 0.28,-0.105 0.28,-0.252 0,-0.147 -0.091,-0.147 -0.091,-0.231 0,-0.07 0.077,-0.077 0.14,-0.077 0.357,0 0.532,0.728 0.665,1.267 l 0.505,2.045"
         style="fill:#000000;fill-opacity:1;fill-rule:nonzero;stroke:none"
         transform="matrix(1.3333333,0,0,-1.3333333,264.52267,564.8)" />
      <path
         id="path284"
         d="m 0,0 c -0.483,-0.168 -0.677,-0.294 -0.877,-0.539 -0.501,-0.609 -0.63,-1.415 -0.646,-1.883 -0.007,-0.365 0.046,-0.512 0.147,-0.63 0.111,-0.133 0.258,-0.168 0.466,-0.112 0.49,0.133 0.648,0.707 0.711,0.84 -0.049,0.364 -0.096,0.805 0.122,1.365 0.122,0.308 0.253,0.469 0.436,0.469 0.181,0 0.245,-0.161 0.236,-0.469 C 0.574,-1.519 0.34,-1.96 0.137,-2.324 0.144,-2.457 0.056,-3.031 0.49,-3.164 c 0.184,-0.056 0.345,-0.021 0.515,0.112 0.151,0.118 0.266,0.265 0.413,0.63 0.183,0.468 0.397,1.274 0.156,1.883 C 1.479,-0.294 1.338,-0.168 0.925,0 L 0.95,0.119 C 1.193,0.105 1.616,0.155 1.928,-0.126 2.298,-0.461 2.44,-0.911 2.366,-1.519 2.308,-2.023 2.193,-2.338 1.959,-2.709 1.769,-3.011 1.442,-3.297 1.182,-3.403 0.967,-3.493 0.59,-3.585 0.29,-3.382 c -0.216,0.141 -0.305,0.246 -0.424,0.574 -0.259,-0.328 -0.394,-0.433 -0.669,-0.574 -0.386,-0.203 -0.724,-0.111 -0.9,-0.021 -0.216,0.106 -0.421,0.392 -0.483,0.694 -0.074,0.371 -0.057,0.686 0.099,1.19 0.186,0.608 0.519,1.058 1.031,1.393 0.431,0.281 0.835,0.231 1.082,0.245 L 0,0"
         style="fill:#000000;fill-opacity:1;fill-rule:nonzero;stroke:none"
         transform="matrix(1.3333333,0,0,-1.3333333,268.14933,565.46667)" />
      <path
         id="path285"
         d="m 0,0 h -3.522 l 0.056,0.322 H 0.056 L 0,0"
         style="fill:#000000;fill-opacity:1;fill-rule:nonzero;stroke:none"
         transform="matrix(1.3333333,0,0,-1.3333333,277.936,636.28)" />
      <path
         id="path286"
         d="m 0,0 c -0.175,0 -0.337,0.119 -0.337,0.365 0,0.245 0.162,0.378 0.33,0.378 0.231,0 0.35,-0.231 0.35,-0.385 C 0.343,0.218 0.231,0 0,0 Z m -0.673,-1.813 c 0.091,0.357 0.126,0.511 0.106,0.595 0,0.119 -0.035,0.168 -0.274,0.189 l -0.238,-0.007 v 0.112 c 0.287,0.014 0.918,0.126 1.191,0.175 L 0.133,-0.763 -0.595,-3.64 c -0.287,-1.121 -0.694,-1.646 -1.317,-1.646 -0.23,0 -0.546,0.105 -0.546,0.448 0,0.028 0.029,0.273 0.287,0.273 0.14,0 0.281,-0.105 0.281,-0.252 0,-0.147 -0.092,-0.147 -0.092,-0.231 0,-0.07 0.077,-0.077 0.141,-0.077 0.357,0 0.532,0.728 0.665,1.267 l 0.503,2.045"
         style="fill:#000000;fill-opacity:1;fill-rule:nonzero;stroke:none"
         transform="matrix(1.3333333,0,0,-1.3333333,280.08267,634.04)" />
      <path
         id="path287"
         d="m 0,0 c -0.273,-0.365 -0.463,-0.616 -0.757,-0.616 -0.25,0 -0.262,0.164 -0.262,0.322 0,0.13 0.403,1.459 0.403,1.677 0,0.098 -0.032,0.174 -0.135,0.174 -0.262,0 -0.605,-0.468 -0.801,-0.773 -0.251,-0.376 -0.322,-0.61 -0.545,-1.351 h -0.408 c 0.169,0.615 0.534,1.89 0.534,2.004 0,0.082 -0.055,0.142 -0.349,0.142 v 0.087 c 0.294,0.054 0.588,0.109 0.882,0.169 L -1.421,1.824 -1.77,0.686 -1.759,0.675 c 0.256,0.403 0.757,1.16 1.209,1.16 0.251,0 0.376,-0.131 0.376,-0.36 0,-0.234 -0.436,-1.579 -0.436,-1.742 0,-0.082 0.076,-0.093 0.087,-0.093 0.108,0 0.245,0.175 0.446,0.43 L 0,0"
         style="fill:#000000;fill-opacity:1;fill-rule:nonzero;stroke:none"
         transform="matrix(1.3333333,0,0,-1.3333333,290.416,640.46667)" />
      <path
         id="path288"
         d="m 0,0 c -0.483,-0.169 -0.679,-0.295 -0.877,-0.539 -0.501,-0.61 -0.63,-1.415 -0.646,-1.883 -0.007,-0.365 0.045,-0.512 0.146,-0.63 0.111,-0.134 0.259,-0.168 0.467,-0.113 0.49,0.133 0.647,0.708 0.711,0.841 -0.049,0.363 -0.096,0.805 0.122,1.365 0.122,0.308 0.253,0.469 0.435,0.469 0.182,0 0.245,-0.161 0.237,-0.469 C 0.573,-1.519 0.34,-1.961 0.137,-2.324 0.143,-2.457 0.056,-3.032 0.49,-3.165 c 0.184,-0.055 0.345,-0.021 0.514,0.113 0.151,0.118 0.266,0.265 0.414,0.63 0.183,0.468 0.396,1.273 0.155,1.883 C 1.478,-0.295 1.338,-0.169 0.925,0 L 0.95,0.119 C 1.192,0.105 1.616,0.155 1.928,-0.127 2.298,-0.462 2.439,-0.911 2.366,-1.519 2.308,-2.024 2.192,-2.339 1.959,-2.709 1.769,-3.011 1.441,-3.297 1.181,-3.403 0.966,-3.493 0.59,-3.585 0.29,-3.382 c -0.216,0.141 -0.306,0.246 -0.424,0.574 -0.26,-0.328 -0.394,-0.433 -0.669,-0.574 -0.387,-0.203 -0.724,-0.111 -0.9,-0.021 -0.216,0.106 -0.422,0.392 -0.484,0.694 -0.074,0.37 -0.057,0.685 0.1,1.19 0.185,0.608 0.519,1.057 1.031,1.392 0.431,0.282 0.834,0.232 1.081,0.246 L 0,0"
         style="fill:#000000;fill-opacity:1;fill-rule:nonzero;stroke:none"
         transform="matrix(1.3333333,0,0,-1.3333333,284.22933,634.70667)" />
      <path
         id="path289"
         d="m 0,0 h -3.522 l 0.056,0.323 H 0.056 L 0,0"
         style="fill:#000000;fill-opacity:1;fill-rule:nonzero;stroke:none"
         transform="matrix(1.3333333,0,0,-1.3333333,234.40267,619.68)" />
      <path
         id="path290"
         d="m 0,0 c -0.272,-0.364 -0.462,-0.615 -0.757,-0.615 -0.25,0 -0.261,0.163 -0.261,0.321 0,0.131 0.403,1.46 0.403,1.678 0,0.098 -0.033,0.174 -0.137,0.174 -0.261,0 -0.604,-0.468 -0.8,-0.774 -0.25,-0.376 -0.321,-0.609 -0.544,-1.35 h -0.409 c 0.169,0.615 0.534,1.889 0.534,2.004 0,0.082 -0.054,0.141 -0.349,0.141 v 0.088 c 0.295,0.054 0.588,0.109 0.882,0.169 L -1.421,1.824 -1.77,0.686 -1.759,0.676 c 0.256,0.402 0.757,1.16 1.209,1.16 0.251,0 0.376,-0.131 0.376,-0.36 0,-0.234 -0.436,-1.579 -0.436,-1.743 0,-0.081 0.077,-0.092 0.087,-0.092 0.109,0 0.246,0.174 0.447,0.43 L 0,0"
         style="fill:#000000;fill-opacity:1;fill-rule:nonzero;stroke:none"
         transform="matrix(1.3333333,0,0,-1.3333333,248.88267,622.84)" />
      <path
         id="path291"
         d="m 0,0 c -0.483,-0.168 -0.678,-0.294 -0.878,-0.538 -0.5,-0.61 -0.629,-1.415 -0.645,-1.884 -0.007,-0.364 0.045,-0.511 0.146,-0.629 0.112,-0.134 0.258,-0.169 0.466,-0.113 0.491,0.134 0.648,0.707 0.712,0.84 -0.049,0.364 -0.096,0.806 0.122,1.365 0.121,0.309 0.253,0.469 0.436,0.469 0.181,0 0.245,-0.16 0.236,-0.469 C 0.574,-1.518 0.34,-1.96 0.137,-2.324 0.143,-2.457 0.056,-3.03 0.49,-3.164 c 0.183,-0.056 0.345,-0.021 0.514,0.113 0.151,0.118 0.266,0.265 0.413,0.629 0.184,0.469 0.397,1.274 0.156,1.884 C 1.478,-0.294 1.337,-0.168 0.925,0 L 0.95,0.12 C 1.192,0.105 1.616,0.155 1.927,-0.126 2.297,-0.461 2.439,-0.91 2.367,-1.518 2.308,-2.023 2.192,-2.338 1.959,-2.709 1.769,-3.01 1.441,-3.297 1.182,-3.402 0.966,-3.493 0.589,-3.585 0.289,-3.381 c -0.215,0.14 -0.305,0.246 -0.423,0.574 -0.26,-0.328 -0.394,-0.434 -0.669,-0.574 -0.386,-0.204 -0.724,-0.112 -0.9,-0.021 -0.216,0.105 -0.422,0.392 -0.484,0.693 -0.074,0.371 -0.057,0.686 0.1,1.191 0.185,0.608 0.519,1.057 1.031,1.392 0.43,0.281 0.834,0.231 1.081,0.246 L 0,0"
         style="fill:#000000;fill-opacity:1;fill-rule:nonzero;stroke:none"
         transform="matrix(1.3333333,0,0,-1.3333333,242.46933,617.06667)" />
      <path
         id="path292"
         d="M 0,0 1.166,-5.446 3.696,3.5 h 19.255"
         style="fill:none;stroke:#000000;stroke-width:0.35;stroke-linecap:butt;stroke-linejoin:miter;stroke-miterlimit:4;stroke-dasharray:none;stroke-opacity:1"
         transform="matrix(1.3333333,0,0,-1.3333333,290.64267,583.26667)" />
      <path
         id="path293"
         d="m 0,0 c 0.407,0.014 0.665,0.028 0.665,0.546 v 3.172 c 0,0.147 0,0.329 -0.238,0.329 -0.084,0 -0.084,0 -0.476,-0.154 V 3.991 L 1.211,4.628 1.268,4.614 V 0.413 C 1.268,0.077 1.408,0 1.933,0 V -0.105 H 0 V 0"
         style="fill:#000000;fill-opacity:1;fill-rule:nonzero;stroke:none"
         transform="matrix(1.3333333,0,0,-1.3333333,297.30933,587.8)" />
      <path
         id="path294"
         d="m 280.62,329.78 h 3.501 v 0.343 h -3.501 z"
         style="fill:#000000;fill-opacity:1;fill-rule:nonzero;stroke:none"
         transform="matrix(1.3333333,0,0,-1.3333333,-70.944,1024.7333)" />
      <path
         id="path295"
         d="m 0,0 h -2.124 v 0.066 l 0.97,1.029 c 0.473,0.506 0.708,0.996 0.708,1.405 0,0.278 -0.137,0.778 -0.779,0.778 -0.496,0 -0.659,-0.413 -0.779,-0.708 l -0.114,0.028 c 0.163,0.822 0.675,1.084 1.154,1.084 0.496,0 0.986,-0.371 0.986,-0.981 0,-0.577 -0.457,-1.072 -0.697,-1.328 L -1.59,0.414 h 1.302 c 0.201,0 0.305,0.016 0.517,0.36 L 0.3,0.746 0,0"
         style="fill:#000000;fill-opacity:1;fill-rule:nonzero;stroke:none"
         transform="matrix(1.3333333,0,0,-1.3333333,320.216,585.86667)" />
      <path
         id="path296"
         d="m 0,0 c -0.1,-0.042 -0.505,-0.202 -0.469,-0.56 0.017,-0.217 0.183,-0.265 0.312,-0.307 0.374,0.272 0.532,0.454 1.092,0.72 0.21,0.099 0.37,0.126 0.48,0.05 C 1.476,-0.139 1.558,-0.28 1.325,-0.518 1.255,-0.588 1.142,-0.721 0.772,-0.882 0.502,-1.001 0.37,-1.029 0.053,-1.064 c -0.261,-0.182 -0.611,-0.574 -0.845,-0.882 -0.203,-0.266 -0.582,-0.868 -0.7,-1.575 -0.013,-0.105 -0.082,-0.357 0.047,-0.609 0.157,-0.316 0.415,-0.385 0.598,-0.379 l 0.326,0.015 c 0.58,0.027 0.859,-0.141 0.949,-0.239 0.171,-0.188 0.239,-0.364 0.191,-0.686 -0.08,-0.574 -0.523,-1.106 -1.002,-1.253 -0.307,-0.099 -0.599,-0.084 -0.759,-0.014 -0.096,0.042 -0.221,0.176 -0.193,0.308 0.035,0.161 0.201,0.385 0.566,0.322 0.329,-0.063 0.431,-0.175 0.663,-0.07 0.287,0.126 0.37,0.421 0.388,0.505 0.055,0.286 -0.156,0.447 -0.477,0.426 -0.298,-0.021 -0.605,-0.084 -0.901,-0.028 -0.236,0.042 -0.698,0.308 -0.778,0.721 -0.053,0.281 -0.022,0.687 0.032,0.91 0.117,0.484 0.186,0.778 0.69,1.597 0.16,0.259 0.465,0.609 0.781,0.939 l -0.287,0.105 c -0.356,0.132 -0.31,0.545 0.013,0.819 0.266,0.224 0.501,0.245 0.658,0.258 L 0,0"
         style="fill:#000000;fill-opacity:1;fill-rule:nonzero;stroke:none"
         transform="matrix(1.3333333,0,0,-1.3333333,314.456,580.97333)" />
      <path
         id="path297"
         d="M 0,0 1.167,-5.446 3.696,3.502 H 22.951"
         style="fill:none;stroke:#000000;stroke-width:0.35;stroke-linecap:butt;stroke-linejoin:miter;stroke-miterlimit:4;stroke-dasharray:none;stroke-opacity:1"
         transform="matrix(1.3333333,0,0,-1.3333333,294.52267,634.54667)" />
      <path
         id="path298"
         d="m 0,0 c 0.406,0.014 0.665,0.028 0.665,0.546 v 3.172 c 0,0.147 0,0.329 -0.238,0.329 -0.084,0 -0.084,0 -0.476,-0.154 V 3.991 L 1.211,4.628 1.268,4.614 V 0.413 C 1.268,0.077 1.407,0 1.933,0 V -0.105 H 0 V 0"
         style="fill:#000000;fill-opacity:1;fill-rule:nonzero;stroke:none"
         transform="matrix(1.3333333,0,0,-1.3333333,301.20267,639.08)" />
      <path
         id="path299"
         d="m 283.54,291.32 h 3.501 v 0.343 h -3.501 z"
         style="fill:#000000;fill-opacity:1;fill-rule:nonzero;stroke:none"
         transform="matrix(1.3333333,0,0,-1.3333333,-70.944,1024.7333)" />
      <path
         id="path300"
         d="m 0,0 h -2.124 v 0.066 l 0.97,1.029 c 0.473,0.506 0.708,0.997 0.708,1.405 0,0.278 -0.137,0.779 -0.78,0.779 -0.495,0 -0.658,-0.414 -0.778,-0.708 l -0.114,0.027 c 0.163,0.822 0.675,1.084 1.154,1.084 0.496,0 0.986,-0.371 0.986,-0.981 0,-0.577 -0.457,-1.072 -0.697,-1.328 L -1.59,0.414 h 1.302 c 0.201,0 0.305,0.016 0.517,0.36 L 0.3,0.746 0,0"
         style="fill:#000000;fill-opacity:1;fill-rule:nonzero;stroke:none"
         transform="matrix(1.3333333,0,0,-1.3333333,324.096,637.14667)" />
      <path
         id="path301"
         d="m 0,0 c -0.101,-0.042 -0.505,-0.203 -0.469,-0.56 0.017,-0.217 0.182,-0.267 0.313,-0.308 0.373,0.273 0.531,0.455 1.092,0.721 0.209,0.098 0.369,0.126 0.479,0.049 0.061,-0.042 0.144,-0.182 -0.09,-0.42 -0.07,-0.07 -0.182,-0.203 -0.553,-0.364 -0.27,-0.12 -0.402,-0.147 -0.718,-0.183 -0.262,-0.181 -0.613,-0.573 -0.846,-0.881 -0.203,-0.267 -0.584,-0.869 -0.699,-1.575 -0.015,-0.105 -0.083,-0.358 0.046,-0.61 0.157,-0.315 0.415,-0.385 0.598,-0.378 l 0.326,0.014 c 0.58,0.028 0.858,-0.14 0.95,-0.239 0.17,-0.188 0.238,-0.363 0.19,-0.685 -0.08,-0.574 -0.522,-1.107 -1.001,-1.254 -0.308,-0.098 -0.599,-0.084 -0.76,-0.014 -0.095,0.042 -0.221,0.176 -0.193,0.309 0.034,0.161 0.201,0.385 0.565,0.322 0.33,-0.063 0.432,-0.175 0.665,-0.07 0.286,0.126 0.369,0.42 0.387,0.504 0.054,0.287 -0.157,0.448 -0.476,0.427 -0.299,-0.021 -0.607,-0.084 -0.903,-0.028 -0.236,0.042 -0.697,0.308 -0.778,0.721 -0.052,0.281 -0.021,0.686 0.033,0.91 0.117,0.483 0.187,0.777 0.69,1.596 0.16,0.26 0.465,0.61 0.781,0.939 l -0.286,0.105 c -0.358,0.133 -0.312,0.546 0.012,0.819 0.266,0.224 0.5,0.245 0.658,0.259 L 0,0"
         style="fill:#000000;fill-opacity:1;fill-rule:nonzero;stroke:none"
         transform="matrix(1.3333333,0,0,-1.3333333,318.98933,632.26667)" />
      <path
         id="path302"
         d="m 0,0 c 0.049,-0.308 0.161,-0.953 0.729,-0.953 0.391,0 0.504,0.337 0.504,0.568 0,0.462 -0.833,1.134 -0.833,1.673 0,0.217 0.097,0.777 0.84,0.777 0.315,0 0.455,-0.119 0.665,-0.119 0.119,0 0.161,0.071 0.196,0.126 H 2.198 L 2.059,1.099 H 1.947 C 1.911,1.498 1.743,1.904 1.288,1.904 1.134,1.904 0.91,1.841 0.91,1.498 0.91,1.057 1.765,0.434 1.765,-0.161 1.765,-0.924 1.114,-1.1 0.721,-1.1 c -0.21,0 -0.49,0.134 -0.692,0.134 -0.099,0 -0.127,-0.071 -0.169,-0.147 H -0.252 L -0.112,0 H 0"
         style="fill:#000000;fill-opacity:1;fill-rule:nonzero;stroke:none"
         transform="matrix(1.3333333,0,0,-1.3333333,295.92267,568.02667)" />
      <path
         id="path303"
         d="m 277.79,342.86 h 1.722 v 0.441 h -1.722 z"
         style="fill:#000000;fill-opacity:1;fill-rule:nonzero;stroke:none"
         transform="matrix(1.3333333,0,0,-1.3333333,-70.944,1024.7333)" />
      <path
         id="path304"
         d="m 0,0 c 0,-0.161 0.329,-0.462 0.714,-0.462 0.231,0 0.861,0.133 0.861,1.351 C 1.575,1.05 1.54,2.184 0.686,2.184 0.435,2.184 0.042,1.988 0,1.723 Z m -0.588,1.744 c 0,0.279 -0.021,0.398 -0.267,0.398 -0.062,0 -0.132,0 -0.195,-0.006 v 0.111 c 0.336,0.105 0.672,0.225 1.008,0.357 L 0,2.591 V 2.08 L 0.014,2.065 c 0.147,0.197 0.469,0.539 1.008,0.539 0.623,0 1.156,-0.574 1.156,-1.505 0,-0.805 -0.497,-1.785 -1.471,-1.785 -0.28,0 -0.476,0.077 -0.707,0.301 L 0,-1.484 C 0,-1.933 0.112,-2.01 0.616,-2.01 v -0.126 h -1.694 v 0.119 c 0.462,0.035 0.49,0.182 0.49,0.484 v 3.277"
         style="fill:#000000;fill-opacity:1;fill-rule:nonzero;stroke:none"
         transform="matrix(1.3333333,0,0,-1.3333333,303.66933,568.57333)" />
      <path
         id="path305"
         d="m 0,0 c 0.413,0.028 0.539,0.119 0.539,0.504 v 3.34 c 0,0.315 -0.042,0.427 -0.315,0.427 -0.091,0 -0.155,-0.007 -0.239,-0.014 V 4.369 C 0.357,4.46 0.728,4.558 1.099,4.677 L 1.127,4.663 V 0.483 C 1.127,0.077 1.246,0.021 1.652,0 V -0.105 H 0 V 0"
         style="fill:#000000;fill-opacity:1;fill-rule:nonzero;stroke:none"
         transform="matrix(1.3333333,0,0,-1.3333333,307.04267,569.25333)" />
      <path
         id="path306"
         d="m 0,0 c -1.058,-0.35 -1.135,-0.742 -1.135,-0.98 v -0.014 c 0,-0.329 0.203,-0.546 0.462,-0.546 0.154,0 0.371,0.091 0.434,0.126 C -0.022,-1.309 0,-1.225 0,-1.015 Z m 1.085,-1.596 c -0.294,-0.343 -0.511,-0.35 -0.623,-0.35 -0.126,0 -0.42,0.007 -0.455,0.511 -0.259,-0.232 -0.63,-0.511 -1.016,-0.511 -0.378,0 -0.742,0.259 -0.742,0.728 0,0.7 0.609,0.938 1.751,1.386 v 0.427 c 0,0.504 -0.329,0.581 -0.539,0.581 -0.232,0 -0.497,-0.126 -0.497,-0.343 0,-0.105 0.034,-0.21 0.034,-0.273 0,-0.147 -0.133,-0.301 -0.315,-0.301 -0.217,0 -0.301,0.196 -0.301,0.308 0,0.28 0.329,0.777 1.141,0.777 1.044,0 1.044,-0.7 1.044,-1.12 v -1.365 c 0,-0.203 0,-0.406 0.202,-0.406 0.148,0 0.238,0.069 0.316,0.133 v -0.182"
         style="fill:#000000;fill-opacity:1;fill-rule:nonzero;stroke:none"
         transform="matrix(1.3333333,0,0,-1.3333333,312.12267,566.89333)" />
      <path
         id="path307"
         d="m 0,0 c 0,0.441 -0.134,0.448 -0.245,0.448 -0.099,0 -0.176,-0.014 -0.203,-0.028 V 0.539 C -0.134,0.63 0.195,0.735 0.517,0.854 L 0.566,0.84 V 0.287 c 0.344,0.322 0.61,0.567 1.023,0.567 0.322,0 0.819,-0.189 0.819,-1.05 v -1.603 c 0,-0.329 0.084,-0.435 0.427,-0.463 V -2.367 H 1.379 v 0.105 c 0.259,0.021 0.441,0.056 0.441,0.589 v 1.463 c 0,0.427 -0.126,0.679 -0.539,0.679 -0.21,0 -0.428,-0.14 -0.693,-0.399 v -1.967 c 0,-0.231 0.097,-0.344 0.462,-0.365 v -0.105 h -1.485 v 0.105 C -0.106,-2.241 0,-2.149 0,-1.736 V 0"
         style="fill:#000000;fill-opacity:1;fill-rule:nonzero;stroke:none"
         transform="matrix(1.3333333,0,0,-1.3333333,314.336,566.24)" />
      <path
         id="path308"
         d="M 0,0 C -0.048,0.336 -0.118,0.805 -0.671,0.805 -1.056,0.805 -1.33,0.616 -1.442,0 Z m 0.848,-1.064 c -0.07,-0.217 -0.477,-1.169 -1.484,-1.169 -0.778,0 -1.31,0.573 -1.31,1.568 0,1.295 0.868,1.722 1.429,1.722 0.658,0 1.155,-0.364 1.232,-1.281 h -2.178 c 0.084,-1.239 0.652,-1.526 1.114,-1.526 0.623,0 0.924,0.476 1.085,0.735 l 0.112,-0.049"
         style="fill:#000000;fill-opacity:1;fill-rule:nonzero;stroke:none"
         transform="matrix(1.3333333,0,0,-1.3333333,321.08267,566.50667)" />
      <path
         id="path322"
         d="m 0,0 c -0.21,0 -0.602,0.035 -1.019,-0.28 -0.401,-0.308 -0.52,-0.833 -0.54,-0.993 -0.084,-0.624 0.104,-1.058 0.33,-1.275 0.153,-0.14 0.33,-0.294 0.813,-0.168 0.319,0.091 0.557,0.42 0.671,0.623 0.216,0.391 0.3,0.917 0.23,1.246 C 0.421,-0.524 0.297,-0.314 0,0 Z M 1.89,0 H 0.371 L 0.368,-0.014 c 0.353,-0.119 0.74,-0.664 0.814,-1.008 0.06,-0.251 0.028,-0.567 -0.178,-0.945 -0.13,-0.245 -0.62,-0.904 -1.432,-1.03 -0.245,-0.034 -0.753,-0.153 -1.21,0.168 -0.55,0.379 -0.67,1.064 -0.651,1.415 0.037,0.637 0.289,0.932 0.505,1.19 0.271,0.322 0.751,0.539 0.927,0.61 0.292,0.118 0.684,0.217 1.062,0.217 H 2.018 L 1.89,0"
         style="fill:#000000;fill-opacity:1;fill-rule:nonzero;stroke:none"
         transform="matrix(1.3333333,0,0,-1.3333333,325.72267,608.38667)" />
      <path
         id="path324"
         d="m 0,0 c -0.1,-0.042 -0.505,-0.203 -0.469,-0.56 0.016,-0.217 0.182,-0.267 0.313,-0.308 0.373,0.272 0.531,0.455 1.091,0.722 0.21,0.097 0.37,0.125 0.479,0.048 C 1.476,-0.14 1.559,-0.28 1.325,-0.518 1.255,-0.588 1.142,-0.722 0.772,-0.882 0.502,-1.001 0.37,-1.029 0.054,-1.064 c -0.263,-0.182 -0.613,-0.575 -0.846,-0.882 -0.203,-0.267 -0.583,-0.868 -0.699,-1.575 -0.014,-0.105 -0.083,-0.357 0.046,-0.61 0.157,-0.315 0.415,-0.385 0.598,-0.378 l 0.326,0.014 c 0.58,0.028 0.858,-0.14 0.95,-0.238 0.17,-0.188 0.238,-0.364 0.19,-0.686 -0.08,-0.574 -0.522,-1.106 -1.002,-1.253 -0.307,-0.099 -0.599,-0.084 -0.759,-0.015 -0.095,0.042 -0.221,0.176 -0.193,0.309 0.035,0.161 0.201,0.385 0.565,0.321 0.33,-0.063 0.432,-0.174 0.664,-0.069 0.287,0.126 0.37,0.42 0.388,0.504 0.054,0.287 -0.157,0.448 -0.477,0.427 -0.298,-0.021 -0.605,-0.084 -0.901,-0.029 -0.237,0.042 -0.699,0.309 -0.779,0.722 -0.052,0.28 -0.022,0.687 0.033,0.91 0.117,0.484 0.187,0.778 0.69,1.596 0.16,0.26 0.465,0.61 0.781,0.939 l -0.287,0.105 c -0.356,0.133 -0.31,0.546 0.013,0.819 0.266,0.224 0.501,0.245 0.658,0.259 L 0,0"
         style="fill:#000000;fill-opacity:1;fill-rule:nonzero;stroke:none"
         transform="matrix(1.3333333,0,0,-1.3333333,237.80267,614.69333)" />
    </g>
  </g>
</svg>
