<?xml version="1.0" encoding="UTF-8" standalone="no"?>
<!-- Created with Inkscape (http://www.inkscape.org/) -->

<svg
   version="1.1"
   id="svg1"
   viewBox="0 0 316.60095 100.2998"
   xmlns="http://www.w3.org/2000/svg"
   xmlns:svg="http://www.w3.org/2000/svg">
  <defs
     id="defs1">
    <clipPath
       clipPathUnits="userSpaceOnUse"
       id="clipPath191">
      <path
         d="M 103.35,432.68 H 438.18 V 212.94 H 103.35 Z"
         transform="translate(-397.71001,-217.45001)"
         id="path191" />
    </clipPath>
    <clipPath
       clipPathUnits="userSpaceOnUse"
       id="clipPath196">
      <path
         d="M 103.35,432.68 H 438.18 V 212.94 H 103.35 Z"
         transform="translate(-412.81001,-215.02001)"
         id="path196" />
    </clipPath>
  </defs>
  <g
     id="g411"
     transform="translate(-209.40248,-717.23596)">
    <rect
       style="fill:#ffffff;stroke-width:0.991426"
       id="rect408"
       width="316.60092"
       height="100.2998"
       x="209.40248"
       y="717.23596" />
    <g
       id="g405"
       transform="translate(5.8970079,65.850306)">
      <path
         id="path150"
         d="M 0,0 3.726,-5.281"
         style="fill:none;stroke:#006779;stroke-width:0.75;stroke-linecap:butt;stroke-linejoin:miter;stroke-miterlimit:4;stroke-dasharray:none;stroke-opacity:1"
         transform="matrix(1.3333333,0,0,-1.3333333,227.336,701.89333)" />
      <path
         id="path151"
         d="M 0,0 3.726,5.281"
         style="fill:none;stroke:#006779;stroke-width:0.75;stroke-linecap:butt;stroke-linejoin:miter;stroke-miterlimit:4;stroke-dasharray:none;stroke-opacity:1"
         transform="matrix(1.3333333,0,0,-1.3333333,227.336,708.93333)" />
      <path
         id="path158"
         d="M 0,0 3.725,-5.281"
         style="fill:none;stroke:#006779;stroke-width:0.75;stroke-linecap:butt;stroke-linejoin:miter;stroke-miterlimit:4;stroke-dasharray:none;stroke-opacity:1"
         transform="matrix(1.3333333,0,0,-1.3333333,230.06933,698.13333)" />
      <path
         id="path159"
         d="M 0,0 3.725,5.281"
         style="fill:none;stroke:#006779;stroke-width:0.75;stroke-linecap:butt;stroke-linejoin:miter;stroke-miterlimit:4;stroke-dasharray:none;stroke-opacity:1"
         transform="matrix(1.3333333,0,0,-1.3333333,230.06933,705.17333)" />
      <path
         id="path181"
         d="m 0,0 c -0.175,0.736 -0.679,1.296 -1.54,1.296 -0.351,0 -0.756,-0.14 -1.05,-0.427 -0.273,-0.266 -0.582,-0.714 -0.582,-1.723 0,-1.484 0.834,-2.093 1.716,-2.093 0.861,0 1.365,0.497 1.582,0.707 l 0.126,-0.126 c -0.007,-0.014 -0.608,-0.889 -1.897,-0.889 -1.127,0 -2.338,0.672 -2.338,2.415 0,1.568 1.175,2.416 2.38,2.416 0.624,0 1.079,-0.231 1.232,-0.231 0.035,0 0.267,0 0.322,0.231 H 0.099 L 0.161,0 H 0"
         style="fill:#006779;fill-opacity:1;fill-rule:nonzero;stroke:none"
         transform="matrix(1.3333333,0,0,-1.3333333,429.88267,734.65333)" />
      <path
         id="path182"
         d="m 0,0 c 0,0.413 -0.133,0.421 -0.246,0.421 -0.097,0 -0.174,-0.015 -0.238,-0.029 V 0.505 C -0.141,0.616 0.21,0.742 0.552,0.882 L 0.587,0.868 V 0.245 h 0.014 c 0.329,0.497 0.568,0.637 0.834,0.637 0.237,0 0.378,-0.147 0.378,-0.377 0,-0.176 -0.099,-0.309 -0.267,-0.309 -0.245,0 -0.314,0.246 -0.482,0.246 -0.168,0 -0.477,-0.351 -0.477,-0.575 v -1.575 c 0,-0.483 0.239,-0.511 0.596,-0.525 v -0.105 h -1.68 v 0.105 C -0.113,-2.163 0,-2.142 0,-1.75 V 0"
         style="fill:#006779;fill-opacity:1;fill-rule:nonzero;stroke:none"
         transform="matrix(1.3333333,0,0,-1.3333333,431.24267,735.74667)" />
      <path
         id="path183"
         d="M 0,0 C 0.21,0 0.364,-0.161 0.364,-0.357 0.364,-0.56 0.21,-0.714 0,-0.714 c -0.252,0 -0.351,0.224 -0.351,0.357 C -0.351,-0.224 -0.245,0 0,0 Z m -0.784,-4.677 c 0.433,0.021 0.552,0.063 0.552,0.609 v 1.624 c 0,0.413 -0.132,0.421 -0.245,0.421 -0.097,0 -0.188,-0.015 -0.28,-0.029 v 0.105 c 0.364,0.119 0.722,0.253 1.086,0.385 l 0.027,-0.021 v -2.485 c 0,-0.462 0.035,-0.581 0.519,-0.609 v -0.105 h -1.659 v 0.105"
         style="fill:#006779;fill-opacity:1;fill-rule:nonzero;stroke:none"
         transform="matrix(1.3333333,0,0,-1.3333333,434.82933,732.49333)" />
      <path
         id="path184"
         d="m 0,0 h -0.707 v -2.003 c 0,-0.217 0,-0.63 0.357,-0.63 0.224,0 0.35,0.154 0.427,0.245 L 0.168,-2.465 C 0,-2.766 -0.329,-2.997 -0.652,-2.997 c -0.356,0 -0.643,0.189 -0.643,0.889 V 0 h -0.371 c -0.014,0.006 -0.028,0.027 -0.028,0.048 0,0.084 0.154,0.126 0.308,0.281 0.266,0.273 0.371,0.427 0.63,0.798 0.049,0 0.049,-0.035 0.049,-0.091 V 0.224 H 0 V 0"
         style="fill:#006779;fill-opacity:1;fill-rule:nonzero;stroke:none"
         transform="matrix(1.3333333,0,0,-1.3333333,438.616,734.96)" />
      <path
         id="path185"
         d="M 0,0 C 0.21,0 0.365,-0.161 0.365,-0.357 0.365,-0.56 0.21,-0.714 0,-0.714 c -0.251,0 -0.35,0.224 -0.35,0.357 C -0.35,-0.224 -0.245,0 0,0 Z m -0.784,-4.677 c 0.434,0.021 0.553,0.063 0.553,0.609 v 1.624 c 0,0.413 -0.133,0.421 -0.245,0.421 -0.098,0 -0.189,-0.015 -0.28,-0.029 v 0.105 c 0.364,0.119 0.721,0.253 1.086,0.385 l 0.027,-0.021 v -2.485 c 0,-0.462 0.035,-0.581 0.518,-0.609 v -0.105 h -1.659 v 0.105"
         style="fill:#006779;fill-opacity:1;fill-rule:nonzero;stroke:none"
         transform="matrix(1.3333333,0,0,-1.3333333,440.02933,732.49333)" />
      <path
         id="path186"
         d="m 0,0 c -0.378,-0.798 -0.833,-1.099 -1.4,-1.099 -0.561,0 -1.31,0.455 -1.31,1.561 0,1.148 0.813,1.729 1.568,1.729 0.252,0 0.568,-0.105 0.743,-0.216 0.21,-0.148 0.301,-0.365 0.301,-0.491 0,-0.161 -0.112,-0.294 -0.322,-0.308 -0.183,-0.014 -0.302,0.168 -0.344,0.323 l -0.042,0.153 c -0.055,0.21 -0.09,0.336 -0.462,0.336 -0.258,0 -0.903,-0.216 -0.903,-1.246 0,-0.805 0.484,-1.337 1.071,-1.337 0.504,0 0.764,0.301 1.002,0.658 L 0,0"
         style="fill:#006779;fill-opacity:1;fill-rule:nonzero;stroke:none"
         transform="matrix(1.3333333,0,0,-1.3333333,445.26933,737.49333)" />
      <path
         id="path187"
         d="m 0,0 c -1.057,-0.35 -1.134,-0.742 -1.134,-0.98 v -0.014 c 0,-0.329 0.203,-0.546 0.462,-0.546 0.154,0 0.371,0.091 0.434,0.126 C -0.021,-1.309 0,-1.225 0,-1.015 Z m 1.085,-1.596 c -0.294,-0.343 -0.51,-0.35 -0.623,-0.35 -0.126,0 -0.42,0.007 -0.455,0.511 -0.259,-0.231 -0.63,-0.511 -1.015,-0.511 -0.378,0 -0.743,0.259 -0.743,0.728 0,0.7 0.61,0.938 1.751,1.386 v 0.427 c 0,0.504 -0.329,0.581 -0.539,0.581 -0.231,0 -0.497,-0.125 -0.497,-0.343 0,-0.105 0.034,-0.21 0.034,-0.273 0,-0.147 -0.132,-0.301 -0.314,-0.301 -0.217,0 -0.301,0.196 -0.301,0.308 0,0.28 0.328,0.777 1.141,0.777 1.043,0 1.043,-0.7 1.043,-1.12 v -1.365 c 0,-0.203 0,-0.406 0.203,-0.406 0.147,0 0.238,0.07 0.315,0.133 v -0.182"
         style="fill:#006779;fill-opacity:1;fill-rule:nonzero;stroke:none"
         transform="matrix(1.3333333,0,0,-1.3333333,448.24267,736.36)" />
      <path
         id="path188"
         d="m 0,0 c 0.413,0.028 0.539,0.119 0.539,0.504 v 3.339 c 0,0.316 -0.042,0.428 -0.316,0.428 -0.091,0 -0.154,-0.007 -0.238,-0.014 V 4.369 C 0.356,4.46 0.727,4.558 1.098,4.677 L 1.126,4.663 V 0.483 C 1.126,0.077 1.246,0.021 1.652,0 V -0.105 H 0 V 0"
         style="fill:#006779;fill-opacity:1;fill-rule:nonzero;stroke:none"
         transform="matrix(1.3333333,0,0,-1.3333333,449.90933,738.72)" />
      <path
         id="path189"
         d="m 0,0 c 0.413,0.028 0.539,0.119 0.539,0.504 v 3.339 c 0,0.316 -0.042,0.428 -0.316,0.428 -0.09,0 -0.154,-0.007 -0.238,-0.014 V 4.369 C 0.356,4.46 0.727,4.558 1.098,4.677 L 1.127,4.663 V 0.483 C 1.127,0.077 1.246,0.021 1.652,0 V -0.105 H 0 V 0"
         style="fill:#006779;fill-opacity:1;fill-rule:nonzero;stroke:none"
         transform="matrix(1.3333333,0,0,-1.3333333,452.50933,738.72)" />
      <path
         id="path190"
         d="m 0,0 c -0.092,-0.015 -0.232,-0.029 -0.337,-0.316 l -1.078,-2.856 c -0.357,-0.939 -0.665,-1.401 -1.191,-1.401 -0.349,0 -0.51,0.225 -0.51,0.407 0,0.042 0.013,0.308 0.336,0.308 0.189,0 0.406,-0.126 0.497,-0.126 0.364,0 0.644,0.966 0.644,1.078 0,0.105 -0.336,0.749 -0.434,0.966 l -0.798,1.722 c -0.084,0.176 -0.266,0.21 -0.358,0.224 v 0.099 h 1.443 V 0 c -0.161,-0.008 -0.407,-0.015 -0.407,-0.203 0,-0.092 0.05,-0.204 0.071,-0.252 l 0.805,-1.772 0.546,1.554 c 0.071,0.189 0.161,0.413 0.161,0.476 0,0.134 -0.112,0.203 -0.335,0.197 V 0.105 H 0 V 0"
         style="fill:#006779;fill-opacity:1;fill-rule:nonzero;stroke:none"
         transform="matrix(1.3333333,0,0,-1.3333333,459.336,734.8)"
         clip-path="url(#clipPath191)" />
      <path
         id="path192"
         d="m 0,0 c -0.048,0.477 -0.392,0.701 -0.721,0.701 -0.392,0 -0.868,-0.344 -0.868,-1.296 0,-1.043 0.504,-1.435 0.966,-1.435 0.294,0 0.567,0.168 0.623,0.42 z M 1.057,-2.03 C 0.721,-2.149 0.399,-2.261 0.028,-2.394 L 0,-2.373 v 0.427 h -0.014 c -0.126,-0.189 -0.385,-0.448 -0.903,-0.448 -0.273,0 -1.274,0.14 -1.274,1.568 0,0.917 0.665,1.722 1.449,1.722 0.301,0 0.511,-0.098 0.742,-0.3 v 1.091 c 0,0.211 0,0.358 -0.308,0.358 -0.042,0 -0.111,0 -0.168,-0.007 V 2.15 c 0.351,0.091 0.693,0.189 1.029,0.308 L 0.588,2.444 v -3.97 c 0,-0.287 0,-0.427 0.469,-0.392 V -2.03"
         style="fill:#006779;fill-opacity:1;fill-rule:nonzero;stroke:none"
         transform="matrix(1.3333333,0,0,-1.3333333,465.08267,735.76)" />
      <path
         id="path193"
         d="m 0,0 c -1.057,-0.35 -1.134,-0.742 -1.134,-0.98 v -0.014 c 0,-0.329 0.203,-0.546 0.462,-0.546 0.154,0 0.371,0.091 0.434,0.126 C -0.021,-1.309 0,-1.225 0,-1.015 Z m 1.085,-1.596 c -0.294,-0.343 -0.51,-0.35 -0.623,-0.35 -0.126,0 -0.42,0.007 -0.455,0.511 -0.259,-0.231 -0.63,-0.511 -1.015,-0.511 -0.378,0 -0.743,0.259 -0.743,0.728 0,0.7 0.61,0.938 1.751,1.386 v 0.427 c 0,0.504 -0.329,0.581 -0.539,0.581 -0.231,0 -0.497,-0.125 -0.497,-0.343 0,-0.105 0.034,-0.21 0.034,-0.273 0,-0.147 -0.132,-0.301 -0.314,-0.301 -0.217,0 -0.302,0.196 -0.302,0.308 0,0.28 0.329,0.777 1.142,0.777 1.043,0 1.043,-0.7 1.043,-1.12 v -1.365 c 0,-0.203 0,-0.406 0.203,-0.406 0.147,0 0.238,0.07 0.315,0.133 v -0.182"
         style="fill:#006779;fill-opacity:1;fill-rule:nonzero;stroke:none"
         transform="matrix(1.3333333,0,0,-1.3333333,469.256,736.36)" />
      <path
         id="path194"
         d="m 0,0 c 0,0.441 -0.134,0.448 -0.246,0.448 -0.098,0 -0.168,-0.013 -0.224,-0.028 v 0.12 c 0.329,0.09 0.658,0.195 0.98,0.314 L 0.559,0.84 V 0.315 c 0.413,0.315 0.7,0.539 1.078,0.539 0.455,0 0.673,-0.293 0.749,-0.587 0.148,0.168 0.574,0.587 1.128,0.587 0.728,0 0.826,-0.728 0.826,-1.246 v -1.442 c 0,-0.154 -0.006,-0.364 0.301,-0.413 L 4.823,-2.261 V -2.366 H 3.29 v 0.105 c 0.35,0.042 0.462,0.056 0.462,0.504 v 1.477 c 0,0.357 -0.007,0.77 -0.511,0.77 -0.385,0 -0.623,-0.189 -0.778,-0.427 v -1.764 c 0,-0.532 0.218,-0.553 0.505,-0.56 V -2.366 H 1.4 v 0.105 c 0.314,0.021 0.476,0.042 0.476,0.497 v 1.519 C 1.876,0.217 1.756,0.49 1.392,0.49 0.91,0.49 0.587,0.112 0.587,0.077 v -1.974 c 0,-0.343 0.231,-0.357 0.476,-0.364 v -0.105 h -1.554 v 0.105 C -0.21,-2.254 0,-2.24 0,-1.771 V 0"
         style="fill:#006779;fill-opacity:1;fill-rule:nonzero;stroke:none"
         transform="matrix(1.3333333,0,0,-1.3333333,471.52267,735.70667)" />
      <path
         id="path195"
         d="m 0,0 c 0,-0.161 0.329,-0.462 0.713,-0.462 0.232,0 0.862,0.133 0.862,1.351 C 1.575,1.05 1.54,2.185 0.686,2.185 0.433,2.185 0.042,1.988 0,1.722 Z m -0.588,1.743 c 0,0.28 -0.022,0.4 -0.267,0.4 -0.062,0 -0.133,0 -0.195,-0.008 v 0.113 c 0.336,0.104 0.672,0.224 1.008,0.356 L 0,2.59 V 2.08 L 0.013,2.065 c 0.148,0.196 0.47,0.539 1.009,0.539 0.623,0 1.155,-0.574 1.155,-1.505 0,-0.805 -0.497,-1.785 -1.47,-1.785 -0.281,0 -0.476,0.077 -0.707,0.301 L 0,-1.484 C 0,-1.933 0.112,-2.01 0.616,-2.01 v -0.126 h -1.695 v 0.119 c 0.462,0.036 0.491,0.182 0.491,0.484 v 3.276"
         style="fill:#006779;fill-opacity:1;fill-rule:nonzero;stroke:none"
         transform="matrix(1.3333333,0,0,-1.3333333,479.46933,738.04)"
         clip-path="url(#clipPath196)" />
      <path
         id="path197"
         d="M 0,0 C -0.048,0.336 -0.118,0.805 -0.672,0.805 -1.056,0.805 -1.33,0.617 -1.442,0 Z m 0.848,-1.064 c -0.07,-0.217 -0.477,-1.169 -1.484,-1.169 -0.778,0 -1.31,0.574 -1.31,1.568 0,1.295 0.868,1.722 1.429,1.722 0.658,0 1.155,-0.364 1.232,-1.281 h -2.178 c 0.084,-1.239 0.652,-1.526 1.114,-1.526 0.623,0 0.924,0.476 1.085,0.735 l 0.112,-0.049"
         style="fill:#006779;fill-opacity:1;fill-rule:nonzero;stroke:none"
         transform="matrix(1.3333333,0,0,-1.3333333,485.46933,735.98667)" />
      <path
         id="path198"
         d="m 0,0 c -0.048,0.477 -0.392,0.701 -0.721,0.701 -0.392,0 -0.868,-0.344 -0.868,-1.296 0,-1.043 0.504,-1.435 0.966,-1.435 0.294,0 0.567,0.168 0.623,0.42 z M 1.057,-2.03 C 0.721,-2.149 0.399,-2.261 0.028,-2.394 L 0,-2.373 v 0.427 h -0.014 c -0.126,-0.189 -0.385,-0.448 -0.903,-0.448 -0.273,0 -1.274,0.14 -1.274,1.568 0,0.917 0.665,1.722 1.449,1.722 0.301,0 0.511,-0.098 0.742,-0.3 v 1.091 c 0,0.211 0,0.358 -0.308,0.358 -0.042,0 -0.111,0 -0.168,-0.007 V 2.15 c 0.351,0.091 0.693,0.189 1.029,0.308 L 0.588,2.444 v -3.97 c 0,-0.287 0,-0.427 0.469,-0.392 V -2.03"
         style="fill:#006779;fill-opacity:1;fill-rule:nonzero;stroke:none"
         transform="matrix(1.3333333,0,0,-1.3333333,489.96267,735.76)" />
      <path
         id="path227"
         d="m 0,0 c 1.308,0 2.924,2.845 3.311,3.836 4.681,11.989 5.349,16.904 10.38,19.514 5.538,2.872 14.775,2.069 35.381,2.007"
         style="fill:none;stroke:#000000;stroke-width:0.75;stroke-linecap:butt;stroke-linejoin:miter;stroke-miterlimit:4;stroke-dasharray:none;stroke-opacity:1"
         transform="matrix(1.3333333,0,0,-1.3333333,419.88267,728.08)" />
      <path
         id="path228"
         d="M 0,0 3.258,-0.859 0,-1.719 V 0"
         style="fill:#000000;fill-opacity:1;fill-rule:nonzero;stroke:none"
         transform="matrix(1.3333333,0,0,-1.3333333,496.54933,726.93333)" />
      <path
         id="path229"
         d="M 0,0 0.858,3.257 1.72,0 H 0"
         style="fill:#000000;fill-opacity:1;fill-rule:nonzero;stroke:none"
         transform="matrix(1.3333333,0,0,-1.3333333,418.776,678.85333)" />
      <path
         id="path230"
         d="M 0,0 H -0.587 L -1.204,-2.331 C -1.21,-2.352 -1.21,-2.366 -1.21,-2.387 c 0,-0.063 0.035,-0.119 0.112,-0.119 0.139,0 0.385,0.329 0.559,0.553 l 0.092,-0.049 c -0.357,-0.539 -0.631,-0.848 -0.995,-0.848 -0.14,0 -0.336,0.071 -0.336,0.281 0,0.105 0.133,0.532 0.161,0.644 L -1.113,0 H -1.63 c -0.007,0.042 -0.007,0.077 0.013,0.112 0.042,0.063 0.239,0.112 0.358,0.175 0.23,0.119 0.567,0.434 0.762,0.679 0.029,0.036 0.057,0.099 0.12,0.084 0.048,0.015 0.063,-0.048 0.048,-0.105 L -0.524,0.224 h 0.56 L 0,0"
         style="fill:#000000;fill-opacity:1;fill-rule:nonzero;stroke:none"
         transform="matrix(1.3333333,0,0,-1.3333333,508.46933,726.54667)" />
      <path
         id="path231"
         d="m 0,0 c -0.175,-0.224 -0.581,-0.75 -1.316,-0.75 -0.455,0 -1.037,0.175 -1.037,1.107 0,0.987 0.966,2.058 2.003,2.058 0.588,0 0.763,-0.35 0.763,-0.567 0,-0.196 -0.154,-0.322 -0.329,-0.322 -0.175,0 -0.28,0.098 -0.28,0.259 0,0.182 0.105,0.224 0.105,0.343 0,0.105 -0.139,0.14 -0.266,0.14 -0.911,0 -1.393,-1.24 -1.393,-1.911 0,-0.539 0.21,-0.854 0.637,-0.854 0.42,0 0.749,0.286 1.001,0.566 L 0,0"
         style="fill:#000000;fill-opacity:1;fill-rule:nonzero;stroke:none"
         transform="matrix(1.3333333,0,0,-1.3333333,419.98933,668.28)" />
      <path
         id="path232"
         d="m 0,0 c -0.519,-0.413 -1.191,-0.959 -1.191,-2.737 0,-0.714 0,-2.248 1.191,-3.011 L -0.084,-5.86 c -0.406,0.217 -0.868,0.707 -1.135,1.099 -0.343,0.505 -0.574,1.008 -0.574,1.975 0,1.204 0.644,2.254 1.729,2.898 L 0,0"
         style="fill:#000000;fill-opacity:1;fill-rule:nonzero;stroke:none"
         transform="matrix(1.3333333,0,0,-1.3333333,423.56267,663.01333)" />
      <path
         id="path233"
         d="m 0,0 h -0.588 l -0.616,-2.332 c -0.007,-0.021 -0.007,-0.034 -0.007,-0.055 0,-0.063 0.035,-0.12 0.112,-0.12 0.14,0 0.385,0.33 0.56,0.554 l 0.092,-0.05 c -0.358,-0.539 -0.631,-0.847 -0.995,-0.847 -0.14,0 -0.336,0.07 -0.336,0.28 0,0.105 0.133,0.533 0.161,0.644 L -1.113,0 h -0.518 c -0.007,0.042 -0.007,0.077 0.014,0.112 0.042,0.063 0.238,0.112 0.357,0.175 0.231,0.119 0.568,0.434 0.763,0.679 0.028,0.035 0.057,0.098 0.119,0.084 0.049,0.014 0.064,-0.049 0.049,-0.105 L -0.524,0.224 H 0.035 L 0,0"
         style="fill:#000000;fill-opacity:1;fill-rule:nonzero;stroke:none"
         transform="matrix(1.3333333,0,0,-1.3333333,426.54933,665.48)" />
      <path
         id="path234"
         d="m 0,0 c 0.518,0.413 1.191,0.959 1.191,2.738 0,0.714 0,2.247 -1.191,3.01 L 0.084,5.86 C 0.491,5.643 0.953,5.153 1.218,4.761 1.562,4.257 1.792,3.753 1.792,2.786 1.792,1.582 1.149,0.532 0.063,-0.112 L 0,0"
         style="fill:#000000;fill-opacity:1;fill-rule:nonzero;stroke:none"
         transform="matrix(1.3333333,0,0,-1.3333333,426.696,670.68)" />
      <path
         id="path235"
         d="m 365.67,221.19 h 4.867 v 1.301 h -4.867 z"
         style="fill:#ffffff;fill-opacity:1;fill-rule:nonzero;stroke:none"
         transform="matrix(1.3333333,0,0,-1.3333333,-70.944,1024.7333)" />
      <path
         id="path236"
         d="M 0,0 V -37.694 H 58.275"
         style="fill:none;stroke:#000000;stroke-width:0.5;stroke-linecap:butt;stroke-linejoin:miter;stroke-miterlimit:4;stroke-dasharray:none;stroke-opacity:1"
         transform="matrix(1.3333333,0,0,-1.3333333,419.88267,677.81333)" />
      <path
         id="path245"
         d="M 0,0 5.11,-1.347 0,-2.697 V 0"
         style="fill:#000000;fill-opacity:1;fill-rule:nonzero;stroke:none"
         transform="matrix(1.3333333,0,0,-1.3333333,311.376,703.74667)" />
      <path
         id="path246"
         d="M 0,0 H -74.491"
         style="fill:none;stroke:#000000;stroke-width:0.5;stroke-linecap:butt;stroke-linejoin:miter;stroke-miterlimit:10;stroke-dasharray:none;stroke-opacity:1"
         transform="matrix(1.3333333,0,0,-1.3333333,314.94933,705.53333)" />
      <path
         id="path247"
         d="M 0,0 1.347,5.108 2.697,0 H 0"
         style="fill:#000000;fill-opacity:1;fill-rule:nonzero;stroke:none"
         transform="matrix(1.3333333,0,0,-1.3333333,265.10933,676.62667)" />
      <path
         id="path248"
         d="M 0,0 V -49.596"
         style="fill:none;stroke:#000000;stroke-width:0.5;stroke-linecap:butt;stroke-linejoin:miter;stroke-miterlimit:10;stroke-dasharray:none;stroke-opacity:1"
         transform="matrix(1.3333333,0,0,-1.3333333,266.896,673.06667)" />
      <path
         id="path309"
         d="m 0,0 c 0.048,-0.308 0.161,-0.953 0.728,-0.953 0.392,0 0.504,0.337 0.504,0.568 0,0.461 -0.833,1.134 -0.833,1.673 0,0.217 0.098,0.777 0.84,0.777 0.315,0 0.455,-0.119 0.665,-0.119 0.119,0 0.161,0.07 0.196,0.126 H 2.198 L 2.058,1.099 H 1.946 C 1.911,1.498 1.743,1.904 1.288,1.904 1.133,1.904 0.91,1.841 0.91,1.498 0.91,1.057 1.764,0.434 1.764,-0.161 1.764,-0.925 1.113,-1.1 0.72,-1.1 c -0.21,0 -0.49,0.133 -0.692,0.133 -0.099,0 -0.127,-0.07 -0.169,-0.147 H -0.252 L -0.113,0 H 0"
         style="fill:#000000;fill-opacity:1;fill-rule:nonzero;stroke:none"
         transform="matrix(1.3333333,0,0,-1.3333333,284.50933,683.17333)" />
      <path
         id="path310"
         d="m 269.23,256.51 h 1.722 v 0.441 h -1.722 z"
         style="fill:#000000;fill-opacity:1;fill-rule:nonzero;stroke:none"
         transform="matrix(1.3333333,0,0,-1.3333333,-70.944,1024.7333)" />
      <path
         id="path311"
         d="m 0,0 c 0,-0.162 0.329,-0.462 0.714,-0.462 0.232,0 0.862,0.132 0.862,1.351 C 1.576,1.05 1.54,2.184 0.687,2.184 0.435,2.184 0.042,1.988 0,1.722 Z m -0.588,1.743 c 0,0.28 -0.021,0.399 -0.266,0.399 -0.063,0 -0.133,0 -0.195,-0.007 v 0.112 c 0.335,0.105 0.671,0.224 1.007,0.357 L 0,2.59 V 2.079 L 0.014,2.065 c 0.147,0.196 0.47,0.539 1.009,0.539 0.623,0 1.155,-0.574 1.155,-1.505 0,-0.806 -0.497,-1.786 -1.471,-1.786 -0.28,0 -0.475,0.077 -0.707,0.301 L 0,-1.485 C 0,-1.933 0.113,-2.01 0.617,-2.01 v -0.126 h -1.695 v 0.119 c 0.462,0.035 0.49,0.182 0.49,0.483 v 3.277"
         style="fill:#000000;fill-opacity:1;fill-rule:nonzero;stroke:none"
         transform="matrix(1.3333333,0,0,-1.3333333,292.256,683.72)" />
      <path
         id="path312"
         d="m 0,0 c 0.414,0.028 0.54,0.119 0.54,0.505 v 3.34 C 0.54,4.159 0.498,4.271 0.224,4.271 0.133,4.271 0.07,4.264 -0.014,4.258 V 4.369 C 0.357,4.461 0.728,4.558 1.099,4.678 L 1.127,4.663 V 0.484 C 1.127,0.077 1.247,0.021 1.653,0 V -0.105 H 0 V 0"
         style="fill:#000000;fill-opacity:1;fill-rule:nonzero;stroke:none"
         transform="matrix(1.3333333,0,0,-1.3333333,295.62933,684.4)" />
      <path
         id="path313"
         d="m 0,0 c -1.058,-0.35 -1.135,-0.742 -1.135,-0.98 v -0.014 c 0,-0.329 0.203,-0.547 0.462,-0.547 0.155,0 0.371,0.092 0.435,0.126 0.217,0.106 0.238,0.19 0.238,0.4 z M 1.085,-1.596 C 0.791,-1.94 0.574,-1.947 0.462,-1.947 c -0.126,0 -0.42,0.007 -0.455,0.511 -0.259,-0.231 -0.63,-0.511 -1.016,-0.511 -0.378,0 -0.742,0.259 -0.742,0.729 0,0.7 0.609,0.938 1.751,1.386 v 0.427 c 0,0.504 -0.329,0.581 -0.539,0.581 -0.231,0 -0.497,-0.126 -0.497,-0.343 0,-0.105 0.034,-0.21 0.034,-0.273 0,-0.147 -0.133,-0.301 -0.314,-0.301 -0.217,0 -0.301,0.196 -0.301,0.308 0,0.28 0.328,0.777 1.141,0.777 1.043,0 1.043,-0.7 1.043,-1.12 v -1.365 c 0,-0.203 0,-0.407 0.203,-0.407 0.147,0 0.238,0.07 0.315,0.133 v -0.181"
         style="fill:#000000;fill-opacity:1;fill-rule:nonzero;stroke:none"
         transform="matrix(1.3333333,0,0,-1.3333333,300.70933,682.04)" />
      <path
         id="path314"
         d="m 0,0 c 0,0.441 -0.134,0.448 -0.245,0.448 -0.098,0 -0.176,-0.014 -0.203,-0.028 V 0.539 C -0.134,0.63 0.196,0.735 0.518,0.854 L 0.567,0.84 V 0.287 c 0.343,0.322 0.609,0.567 1.022,0.567 0.322,0 0.819,-0.189 0.819,-1.05 v -1.603 c 0,-0.329 0.084,-0.435 0.427,-0.463 V -2.367 H 1.379 v 0.105 c 0.259,0.021 0.442,0.056 0.442,0.589 v 1.463 c 0,0.427 -0.126,0.679 -0.539,0.679 -0.21,0 -0.428,-0.14 -0.694,-0.399 v -1.967 c 0,-0.231 0.098,-0.344 0.462,-0.365 v -0.105 h -1.484 v 0.105 C -0.105,-2.241 0,-2.149 0,-1.736 V 0"
         style="fill:#000000;fill-opacity:1;fill-rule:nonzero;stroke:none"
         transform="matrix(1.3333333,0,0,-1.3333333,302.92267,681.38667)" />
      <path
         id="path315"
         d="M 0,0 C -0.049,0.336 -0.118,0.805 -0.672,0.805 -1.057,0.805 -1.33,0.616 -1.443,0 Z m 0.847,-1.065 c -0.07,-0.216 -0.476,-1.169 -1.484,-1.169 -0.777,0 -1.309,0.574 -1.309,1.569 0,1.295 0.868,1.722 1.428,1.722 0.658,0 1.155,-0.364 1.233,-1.281 h -2.178 c 0.084,-1.239 0.651,-1.527 1.113,-1.527 0.623,0 0.924,0.476 1.085,0.736 l 0.112,-0.05"
         style="fill:#000000;fill-opacity:1;fill-rule:nonzero;stroke:none"
         transform="matrix(1.3333333,0,0,-1.3333333,309.66933,681.65333)" />
      <path
         id="path316"
         d="m 0,0 h -3.522 l 0.056,0.322 H 0.056 L 0,0"
         style="fill:#000000;fill-opacity:1;fill-rule:nonzero;stroke:none"
         transform="matrix(1.3333333,0,0,-1.3333333,234.40267,716.14667)" />
      <path
         id="path317"
         d="m 0,0 c -0.272,-0.365 -0.462,-0.616 -0.757,-0.616 -0.25,0 -0.261,0.164 -0.261,0.322 0,0.13 0.403,1.459 0.403,1.677 0,0.098 -0.033,0.174 -0.137,0.174 -0.261,0 -0.604,-0.468 -0.8,-0.773 -0.25,-0.376 -0.321,-0.61 -0.544,-1.351 h -0.409 c 0.169,0.616 0.534,1.89 0.534,2.004 0,0.082 -0.054,0.142 -0.349,0.142 v 0.087 c 0.295,0.054 0.588,0.109 0.882,0.169 L -1.421,1.824 -1.77,0.686 -1.759,0.675 c 0.256,0.403 0.757,1.16 1.209,1.16 0.251,0 0.376,-0.131 0.376,-0.36 0,-0.234 -0.436,-1.579 -0.436,-1.742 0,-0.082 0.077,-0.093 0.087,-0.093 0.109,0 0.246,0.175 0.447,0.431 L 0,0"
         style="fill:#000000;fill-opacity:1;fill-rule:nonzero;stroke:none"
         transform="matrix(1.3333333,0,0,-1.3333333,248.88267,719.30667)" />
      <path
         id="path318"
         d="m 0,0 c -0.483,-0.168 -0.678,-0.294 -0.877,-0.538 -0.501,-0.61 -0.63,-1.415 -0.646,-1.884 -0.007,-0.364 0.046,-0.511 0.147,-0.629 0.111,-0.134 0.258,-0.168 0.466,-0.113 0.49,0.134 0.648,0.708 0.711,0.841 -0.049,0.363 -0.095,0.805 0.122,1.364 0.122,0.309 0.253,0.47 0.436,0.47 0.182,0 0.245,-0.161 0.236,-0.47 C 0.574,-1.518 0.34,-1.96 0.137,-2.323 0.144,-2.456 0.056,-3.03 0.49,-3.164 c 0.184,-0.055 0.346,-0.021 0.515,0.113 0.151,0.118 0.266,0.265 0.413,0.629 0.183,0.469 0.397,1.274 0.155,1.884 C 1.479,-0.294 1.338,-0.168 0.925,0 L 0.95,0.12 C 1.193,0.105 1.616,0.155 1.927,-0.126 2.298,-0.461 2.439,-0.91 2.367,-1.518 2.308,-2.023 2.192,-2.338 1.959,-2.709 1.769,-3.01 1.442,-3.297 1.182,-3.402 0.967,-3.493 0.59,-3.585 0.29,-3.381 c -0.215,0.141 -0.305,0.246 -0.424,0.574 -0.259,-0.328 -0.394,-0.433 -0.669,-0.574 -0.386,-0.204 -0.724,-0.112 -0.9,-0.021 -0.216,0.105 -0.421,0.392 -0.483,0.693 -0.075,0.371 -0.057,0.686 0.1,1.191 0.184,0.608 0.518,1.057 1.03,1.392 0.431,0.281 0.835,0.231 1.082,0.246 L 0,0"
         style="fill:#000000;fill-opacity:1;fill-rule:nonzero;stroke:none"
         transform="matrix(1.3333333,0,0,-1.3333333,242.736,713.54667)" />
      <path
         id="path319"
         d="m 0,0 c -0.174,0 -0.336,0.119 -0.336,0.365 0,0.245 0.162,0.377 0.33,0.377 0.231,0 0.35,-0.23 0.35,-0.384 C 0.344,0.218 0.231,0 0,0 Z m -0.671,-1.813 c 0.09,0.357 0.125,0.511 0.105,0.595 0,0.119 -0.036,0.168 -0.274,0.189 l -0.238,-0.007 v 0.112 c 0.287,0.014 0.917,0.126 1.191,0.175 L 0.134,-0.763 -0.595,-3.64 c -0.287,-1.121 -0.693,-1.646 -1.316,-1.646 -0.231,0 -0.546,0.105 -0.546,0.448 0,0.028 0.028,0.273 0.287,0.273 0.14,0 0.28,-0.105 0.28,-0.252 0,-0.147 -0.091,-0.147 -0.091,-0.231 0,-0.07 0.077,-0.077 0.14,-0.077 0.357,0 0.532,0.728 0.665,1.267 l 0.505,2.045"
         style="fill:#000000;fill-opacity:1;fill-rule:nonzero;stroke:none"
         transform="matrix(1.3333333,0,0,-1.3333333,264.52267,660.22667)" />
      <path
         id="path320"
         d="m 0,0 c -0.483,-0.168 -0.678,-0.294 -0.878,-0.539 -0.5,-0.609 -0.63,-1.414 -0.645,-1.884 -0.007,-0.363 0.046,-0.511 0.146,-0.629 0.112,-0.134 0.259,-0.168 0.467,-0.113 0.49,0.133 0.647,0.708 0.711,0.841 -0.049,0.364 -0.096,0.805 0.122,1.365 0.121,0.308 0.253,0.469 0.436,0.469 0.181,0 0.245,-0.161 0.236,-0.469 C 0.574,-1.519 0.34,-1.96 0.136,-2.324 0.143,-2.457 0.055,-3.032 0.49,-3.165 c 0.184,-0.055 0.345,-0.021 0.514,0.113 0.152,0.118 0.267,0.266 0.413,0.629 0.184,0.47 0.397,1.275 0.156,1.884 C 1.478,-0.294 1.337,-0.168 0.925,0 L 0.95,0.119 C 1.192,0.105 1.615,0.155 1.927,-0.126 2.297,-0.462 2.439,-0.91 2.366,-1.519 2.308,-2.023 2.192,-2.339 1.959,-2.709 1.769,-3.011 1.441,-3.298 1.181,-3.403 0.966,-3.493 0.589,-3.585 0.289,-3.382 c -0.215,0.141 -0.304,0.246 -0.424,0.575 -0.258,-0.329 -0.393,-0.434 -0.668,-0.575 -0.386,-0.203 -0.724,-0.111 -0.9,-0.021 -0.216,0.105 -0.422,0.392 -0.483,0.694 -0.075,0.37 -0.058,0.686 0.099,1.19 0.185,0.609 0.519,1.057 1.031,1.393 0.43,0.281 0.834,0.231 1.081,0.245 L 0,0"
         style="fill:#000000;fill-opacity:1;fill-rule:nonzero;stroke:none"
         transform="matrix(1.3333333,0,0,-1.3333333,268.14933,660.89333)" />
      <path
         id="path323"
         d="m 0,0 c -0.209,0 -0.602,0.034 -1.019,-0.28 -0.401,-0.308 -0.52,-0.833 -0.54,-0.994 -0.084,-0.624 0.105,-1.057 0.33,-1.274 0.154,-0.141 0.331,-0.294 0.813,-0.169 0.32,0.091 0.558,0.42 0.672,0.624 0.216,0.391 0.3,0.917 0.229,1.246 C 0.421,-0.525 0.298,-0.315 0,0 Z M 1.891,0 H 0.371 L 0.368,-0.014 c 0.353,-0.12 0.741,-0.665 0.816,-1.009 0.058,-0.251 0.026,-0.566 -0.18,-0.944 -0.129,-0.246 -0.62,-0.904 -1.431,-1.03 -0.246,-0.034 -0.754,-0.154 -1.211,0.168 -0.549,0.378 -0.67,1.064 -0.651,1.415 0.037,0.637 0.289,0.931 0.506,1.19 0.271,0.322 0.751,0.539 0.927,0.609 0.292,0.119 0.684,0.217 1.061,0.217 H 2.02 L 1.891,0"
         style="fill:#000000;fill-opacity:1;fill-rule:nonzero;stroke:none"
         transform="matrix(1.3333333,0,0,-1.3333333,325.216,703.81333)" />
      <path
         id="path325"
         d="m 0,0 c -0.1,-0.042 -0.505,-0.202 -0.469,-0.56 0.017,-0.217 0.182,-0.265 0.313,-0.307 0.373,0.272 0.531,0.454 1.091,0.72 0.209,0.098 0.37,0.126 0.479,0.05 C 1.476,-0.139 1.559,-0.28 1.325,-0.518 1.255,-0.588 1.142,-0.721 0.772,-0.882 0.502,-1.001 0.37,-1.029 0.054,-1.064 c -0.263,-0.181 -0.613,-0.574 -0.846,-0.882 -0.203,-0.266 -0.583,-0.868 -0.699,-1.575 -0.015,-0.105 -0.083,-0.357 0.046,-0.609 0.157,-0.316 0.415,-0.385 0.598,-0.379 l 0.325,0.015 c 0.581,0.027 0.859,-0.141 0.951,-0.239 0.17,-0.188 0.238,-0.364 0.19,-0.686 -0.08,-0.574 -0.522,-1.106 -1.002,-1.253 -0.307,-0.098 -0.599,-0.084 -0.759,-0.014 -0.095,0.042 -0.221,0.175 -0.193,0.308 0.034,0.161 0.201,0.385 0.565,0.322 0.33,-0.063 0.432,-0.175 0.664,-0.07 0.287,0.126 0.37,0.421 0.388,0.505 0.054,0.286 -0.157,0.447 -0.476,0.426 -0.299,-0.021 -0.606,-0.084 -0.902,-0.028 -0.237,0.042 -0.699,0.309 -0.779,0.721 -0.052,0.281 -0.022,0.687 0.033,0.91 0.117,0.484 0.187,0.778 0.69,1.597 0.16,0.259 0.465,0.609 0.781,0.939 l -0.286,0.105 c -0.357,0.132 -0.311,0.545 0.012,0.818 0.266,0.225 0.501,0.245 0.658,0.259 L 0,0"
         style="fill:#000000;fill-opacity:1;fill-rule:nonzero;stroke:none"
         transform="matrix(1.3333333,0,0,-1.3333333,238.00267,711.22667)" />
    </g>
  </g>
</svg>
