<?xml version="1.0" encoding="UTF-8" standalone="no"?>
<!-- Created with Inkscape (http://www.inkscape.org/) -->

<svg
   version="1.1"
   id="svg1"
   viewBox="0 0 351.16553 104.27179"
   xmlns="http://www.w3.org/2000/svg"
   xmlns:svg="http://www.w3.org/2000/svg">
  <defs
     id="defs1">
    <clipPath
       clipPathUnits="userSpaceOnUse"
       id="clipPath341">
      <path
         d="M 107.21,203.98 H 434.27 V 140.938 H 107.21 Z"
         transform="translate(-407.36001,-143.01001)"
         id="path341" />
    </clipPath>
    <clipPath
       clipPathUnits="userSpaceOnUse"
       id="clipPath347">
      <path
         d="M 107.21,203.98 H 434.27 V 140.938 H 107.21 Z"
         transform="translate(-434.35001,-151.12)"
         id="path347" />
    </clipPath>
  </defs>
  <g
     id="g412"
     transform="translate(-181.56152,-826.88897)">
    <rect
       style="fill:#ffffff;stroke-width:1.03407"
       id="rect409"
       width="351.16553"
       height="104.27181"
       x="181.56152"
       y="826.88898" />
    <g
       id="g406"
       transform="translate(13.08118,83.861393)">
      <path
         id="path329"
         d="M 0,0 3.727,-5.281"
         style="fill:none;stroke:#006779;stroke-width:0.75;stroke-linecap:butt;stroke-linejoin:miter;stroke-miterlimit:4;stroke-dasharray:none;stroke-opacity:1"
         transform="matrix(1.3333333,0,0,-1.3333333,240.70933,795.01333)" />
      <path
         id="path330"
         d="M 0,0 3.727,5.281"
         style="fill:none;stroke:#006779;stroke-width:0.75;stroke-linecap:butt;stroke-linejoin:miter;stroke-miterlimit:4;stroke-dasharray:none;stroke-opacity:1"
         transform="matrix(1.3333333,0,0,-1.3333333,240.70933,802.06667)" />
      <path
         id="path331"
         d="M 0,0 3.726,-5.281"
         style="fill:none;stroke:#006779;stroke-width:0.75;stroke-linecap:butt;stroke-linejoin:miter;stroke-miterlimit:4;stroke-dasharray:none;stroke-opacity:1"
         transform="matrix(1.3333333,0,0,-1.3333333,217.496,795.01333)" />
      <path
         id="path332"
         d="M 0,0 3.726,5.281"
         style="fill:none;stroke:#006779;stroke-width:0.75;stroke-linecap:butt;stroke-linejoin:miter;stroke-miterlimit:4;stroke-dasharray:none;stroke-opacity:1"
         transform="matrix(1.3333333,0,0,-1.3333333,217.496,802.06667)" />
      <path
         id="path333"
         d="m 0,0 c 0,1.597 -0.777,2.164 -1.492,2.164 -0.713,0 -1.491,-0.567 -1.491,-2.164 0,-1.54 0.714,-2.163 1.491,-2.163 C -0.714,-2.163 0,-1.54 0,0 Z m -3.781,-0.007 c 0,1.611 1.141,2.423 2.289,2.423 1.149,0 2.291,-0.812 2.291,-2.423 0,-1.491 -1.023,-2.408 -2.291,-2.408 -1.266,0 -2.289,0.917 -2.289,2.408"
         style="fill:#006779;fill-opacity:1;fill-rule:nonzero;stroke:none"
         transform="matrix(1.3333333,0,0,-1.3333333,441.34933,831.78667)" />
      <path
         id="path334"
         d="m 0,0 c -0.239,-0.021 -0.287,-0.133 -0.455,-0.546 l -0.897,-2.248 c -0.077,-0.188 -0.14,-0.35 -0.188,-0.35 -0.064,0 -0.078,0.028 -0.19,0.33 -0.168,0.433 -0.84,2.057 -1.092,2.555 -0.105,0.21 -0.245,0.252 -0.385,0.259 v 0.105 h 1.372 V 0 c -0.168,-0.015 -0.322,-0.035 -0.322,-0.21 0,-0.084 0.042,-0.189 0.063,-0.245 l 0.715,-1.793 c 0.237,0.673 0.734,1.765 0.734,2.017 0,0.161 -0.153,0.224 -0.329,0.231 V 0.105 H 0 V 0"
         style="fill:#006779;fill-opacity:1;fill-rule:nonzero;stroke:none"
         transform="matrix(1.3333333,0,0,-1.3333333,447.176,830.81333)" />
      <path
         id="path335"
         d="M 0,0 C -0.049,0.337 -0.118,0.806 -0.672,0.806 -1.057,0.806 -1.33,0.616 -1.442,0 Z m 0.848,-1.064 c -0.071,-0.217 -0.477,-1.169 -1.485,-1.169 -0.777,0 -1.309,0.574 -1.309,1.568 0,1.296 0.868,1.723 1.428,1.723 0.659,0 1.156,-0.365 1.233,-1.282 h -2.178 c 0.084,-1.239 0.651,-1.526 1.113,-1.526 0.623,0 0.924,0.476 1.085,0.735 l 0.113,-0.049"
         style="fill:#006779;fill-opacity:1;fill-rule:nonzero;stroke:none"
         transform="matrix(1.3333333,0,0,-1.3333333,450.22933,831.98667)" />
      <path
         id="path336"
         d="m 0,0 c 0,0.413 -0.132,0.42 -0.245,0.42 -0.097,0 -0.174,-0.014 -0.238,-0.028 V 0.504 C -0.139,0.616 0.21,0.742 0.553,0.882 L 0.588,0.868 V 0.245 H 0.602 C 0.931,0.742 1.169,0.882 1.436,0.882 1.673,0.882 1.814,0.735 1.814,0.504 1.814,0.329 1.715,0.195 1.547,0.195 1.302,0.195 1.233,0.44 1.065,0.44 0.897,0.44 0.588,0.091 0.588,-0.134 v -1.575 c 0,-0.482 0.239,-0.511 0.596,-0.524 v -0.106 h -1.681 v 0.106 C -0.112,-2.164 0,-2.143 0,-1.751 V 0"
         style="fill:#006779;fill-opacity:1;fill-rule:nonzero;stroke:none"
         transform="matrix(1.3333333,0,0,-1.3333333,452.256,831.76)" />
      <path
         id="path337"
         d="m 0,0 c -0.05,0.477 -0.392,0.7 -0.722,0.7 -0.391,0 -0.868,-0.343 -0.868,-1.295 0,-1.043 0.504,-1.435 0.967,-1.435 0.294,0 0.566,0.168 0.623,0.42 z M 1.057,-2.03 C 0.721,-2.149 0.399,-2.261 0.027,-2.395 L 0,-2.373 v 0.427 h -0.015 c -0.126,-0.189 -0.384,-0.449 -0.903,-0.449 -0.272,0 -1.273,0.141 -1.273,1.569 0,0.918 0.665,1.722 1.449,1.722 0.301,0 0.511,-0.097 0.742,-0.3 v 1.091 c 0,0.21 0,0.358 -0.308,0.358 -0.042,0 -0.113,0 -0.168,-0.007 v 0.111 c 0.35,0.092 0.693,0.19 1.029,0.309 L 0.588,2.444 v -3.97 c 0,-0.288 0,-0.427 0.469,-0.392 V -2.03"
         style="fill:#006779;fill-opacity:1;fill-rule:nonzero;stroke:none"
         transform="matrix(1.3333333,0,0,-1.3333333,457.816,831.77333)" />
      <path
         id="path338"
         d="m 0,0 c -1.058,-0.35 -1.135,-0.741 -1.135,-0.979 v -0.015 c 0,-0.329 0.203,-0.546 0.462,-0.546 0.154,0 0.371,0.091 0.435,0.126 C -0.021,-1.309 0,-1.225 0,-1.015 Z m 1.085,-1.596 c -0.294,-0.343 -0.511,-0.35 -0.623,-0.35 -0.126,0 -0.42,0.007 -0.455,0.511 -0.259,-0.231 -0.63,-0.511 -1.016,-0.511 -0.378,0 -0.742,0.26 -0.742,0.728 0,0.7 0.609,0.939 1.751,1.387 v 0.427 c 0,0.504 -0.329,0.581 -0.539,0.581 -0.232,0 -0.497,-0.126 -0.497,-0.343 0,-0.106 0.034,-0.21 0.034,-0.273 0,-0.148 -0.133,-0.301 -0.314,-0.301 -0.217,0 -0.301,0.196 -0.301,0.307 0,0.281 0.328,0.778 1.14,0.778 1.043,0 1.043,-0.7 1.043,-1.12 v -1.366 c 0,-0.203 0,-0.406 0.204,-0.406 0.147,0 0.238,0.07 0.315,0.133 v -0.182"
         style="fill:#006779;fill-opacity:1;fill-rule:nonzero;stroke:none"
         transform="matrix(1.3333333,0,0,-1.3333333,462.00267,832.37333)" />
      <path
         id="path339"
         d="m 0,0 c 0,0.441 -0.134,0.448 -0.245,0.448 -0.099,0 -0.168,-0.013 -0.225,-0.027 v 0.118 c 0.33,0.092 0.659,0.196 0.981,0.316 L 0.56,0.841 V 0.315 c 0.413,0.316 0.7,0.54 1.078,0.54 0.455,0 0.673,-0.294 0.749,-0.588 0.147,0.168 0.574,0.588 1.128,0.588 0.727,0 0.826,-0.729 0.826,-1.247 v -1.442 c 0,-0.154 -0.007,-0.364 0.301,-0.413 L 4.824,-2.261 V -2.366 H 3.29 v 0.105 c 0.351,0.042 0.463,0.056 0.463,0.504 v 1.478 C 3.753,0.077 3.745,0.49 3.241,0.49 2.857,0.49 2.618,0.302 2.464,0.064 v -1.765 c 0,-0.532 0.218,-0.553 0.505,-0.56 V -2.366 H 1.401 v 0.105 c 0.314,0.021 0.475,0.042 0.475,0.497 v 1.519 C 1.876,0.218 1.757,0.49 1.393,0.49 0.91,0.49 0.588,0.112 0.588,0.077 v -1.974 c 0,-0.343 0.231,-0.357 0.476,-0.364 V -2.366 H -0.49 v 0.105 C -0.211,-2.254 0,-2.24 0,-1.771 V 0"
         style="fill:#006779;fill-opacity:1;fill-rule:nonzero;stroke:none"
         transform="matrix(1.3333333,0,0,-1.3333333,464.26933,831.72)" />
      <path
         id="path340"
         d="m 0,0 c 0,-0.161 0.329,-0.462 0.714,-0.462 0.231,0 0.861,0.133 0.861,1.351 C 1.575,1.05 1.54,2.185 0.687,2.185 0.434,2.185 0.042,1.988 0,1.723 Z m -0.588,1.743 c 0,0.28 -0.021,0.4 -0.266,0.4 -0.063,0 -0.133,0 -0.196,-0.007 v 0.111 c 0.336,0.106 0.672,0.225 1.008,0.357 L 0,2.591 V 2.079 L 0.014,2.065 c 0.147,0.197 0.47,0.539 1.009,0.539 0.623,0 1.155,-0.574 1.155,-1.504 0,-0.806 -0.497,-1.786 -1.471,-1.786 -0.28,0 -0.475,0.077 -0.707,0.301 L 0,-1.484 C 0,-1.933 0.112,-2.01 0.616,-2.01 v -0.126 h -1.694 v 0.119 c 0.462,0.036 0.49,0.182 0.49,0.484 v 3.276"
         style="fill:#006779;fill-opacity:1;fill-rule:nonzero;stroke:none"
         transform="matrix(1.3333333,0,0,-1.3333333,472.20267,834.05333)"
         clip-path="url(#clipPath341)" />
      <path
         id="path342"
         d="M 0,0 C -0.049,0.337 -0.118,0.806 -0.672,0.806 -1.057,0.806 -1.33,0.616 -1.442,0 Z m 0.848,-1.064 c -0.071,-0.217 -0.477,-1.169 -1.485,-1.169 -0.777,0 -1.309,0.574 -1.309,1.568 0,1.296 0.868,1.723 1.428,1.723 0.659,0 1.156,-0.365 1.233,-1.282 h -2.178 c 0.084,-1.239 0.651,-1.526 1.113,-1.526 0.623,0 0.924,0.476 1.085,0.735 l 0.113,-0.049"
         style="fill:#006779;fill-opacity:1;fill-rule:nonzero;stroke:none"
         transform="matrix(1.3333333,0,0,-1.3333333,478.216,831.98667)" />
      <path
         id="path343"
         d="m 0,0 c -0.05,0.477 -0.392,0.7 -0.722,0.7 -0.391,0 -0.868,-0.343 -0.868,-1.295 0,-1.043 0.504,-1.435 0.967,-1.435 0.294,0 0.566,0.168 0.623,0.42 z M 1.057,-2.03 C 0.721,-2.149 0.399,-2.261 0.027,-2.395 L 0,-2.373 v 0.427 h -0.015 c -0.125,-0.189 -0.384,-0.449 -0.903,-0.449 -0.272,0 -1.273,0.141 -1.273,1.569 0,0.918 0.665,1.722 1.449,1.722 0.301,0 0.511,-0.097 0.742,-0.3 v 1.091 c 0,0.21 0,0.358 -0.308,0.358 -0.042,0 -0.113,0 -0.168,-0.007 v 0.111 c 0.35,0.092 0.693,0.19 1.029,0.309 L 0.588,2.444 v -3.97 c 0,-0.288 0,-0.427 0.469,-0.392 V -2.03"
         style="fill:#006779;fill-opacity:1;fill-rule:nonzero;stroke:none"
         transform="matrix(1.3333333,0,0,-1.3333333,482.70933,831.77333)" />
      <path
         id="path344"
         d="M 0,0 3.258,-0.859 0,-1.72 V 0"
         style="fill:#000000;fill-opacity:1;fill-rule:nonzero;stroke:none"
         transform="matrix(1.3333333,0,0,-1.3333333,496.776,823.10667)" />
      <path
         id="path345"
         d="M 0,0 0.858,3.257 1.72,0 H 0"
         style="fill:#000000;fill-opacity:1;fill-rule:nonzero;stroke:none"
         transform="matrix(1.3333333,0,0,-1.3333333,414.376,772.38667)" />
      <path
         id="path346"
         d="m 0,0 h -0.588 l -0.616,-2.331 c -0.007,-0.022 -0.007,-0.035 -0.007,-0.057 0,-0.062 0.035,-0.119 0.112,-0.119 0.14,0 0.385,0.329 0.56,0.554 l 0.091,-0.049 c -0.357,-0.539 -0.63,-0.848 -0.995,-0.848 -0.139,0 -0.336,0.071 -0.336,0.281 0,0.104 0.134,0.532 0.161,0.644 L -1.114,0 h -0.517 c -0.007,0.042 -0.007,0.077 0.013,0.112 0.042,0.063 0.239,0.113 0.358,0.175 0.23,0.119 0.567,0.435 0.763,0.68 0.028,0.034 0.056,0.097 0.119,0.084 0.049,0.013 0.063,-0.05 0.049,-0.106 l -0.196,-0.72 h 0.56 L 0,0"
         style="fill:#000000;fill-opacity:1;fill-rule:nonzero;stroke:none"
         transform="matrix(1.3333333,0,0,-1.3333333,508.18933,823.24)"
         clip-path="url(#clipPath347)" />
      <path
         id="path348"
         d="m 0,0 c -0.175,-0.224 -0.581,-0.75 -1.316,-0.75 -0.455,0 -1.036,0.176 -1.036,1.107 0,0.987 0.965,2.059 2.003,2.059 0.587,0 0.762,-0.351 0.762,-0.568 0,-0.196 -0.154,-0.322 -0.329,-0.322 -0.175,0 -0.28,0.098 -0.28,0.259 0,0.182 0.105,0.224 0.105,0.343 0,0.105 -0.139,0.141 -0.266,0.141 -0.91,0 -1.393,-1.24 -1.393,-1.912 0,-0.539 0.21,-0.855 0.637,-0.855 0.42,0 0.749,0.288 1.001,0.568 L 0,0"
         style="fill:#000000;fill-opacity:1;fill-rule:nonzero;stroke:none"
         transform="matrix(1.3333333,0,0,-1.3333333,415.60267,761.81333)" />
      <path
         id="path349"
         d="m 0,0 c -0.519,-0.413 -1.19,-0.959 -1.19,-2.738 0,-0.714 0,-2.247 1.19,-3.01 L -0.084,-5.86 c -0.406,0.216 -0.868,0.707 -1.135,1.099 -0.343,0.504 -0.574,1.008 -0.574,1.974 0,1.204 0.645,2.255 1.73,2.899 L 0,0"
         style="fill:#000000;fill-opacity:1;fill-rule:nonzero;stroke:none"
         transform="matrix(1.3333333,0,0,-1.3333333,419.16267,756.54667)" />
      <path
         id="path350"
         d="m 0,0 h -0.588 l -0.616,-2.332 c -0.007,-0.021 -0.007,-0.034 -0.007,-0.055 0,-0.063 0.035,-0.119 0.113,-0.119 0.139,0 0.384,0.329 0.559,0.553 l 0.092,-0.049 c -0.357,-0.539 -0.631,-0.848 -0.995,-0.848 -0.14,0 -0.336,0.071 -0.336,0.281 0,0.105 0.133,0.532 0.161,0.644 L -1.113,0 h -0.518 c -0.006,0.042 -0.006,0.077 0.014,0.112 0.042,0.063 0.238,0.112 0.357,0.175 0.231,0.119 0.568,0.434 0.763,0.679 0.028,0.035 0.057,0.098 0.119,0.084 0.049,0.014 0.064,-0.049 0.049,-0.105 L -0.524,0.224 H 0.035 L 0,0"
         style="fill:#000000;fill-opacity:1;fill-rule:nonzero;stroke:none"
         transform="matrix(1.3333333,0,0,-1.3333333,422.14933,759.01333)" />
      <path
         id="path351"
         d="m 0,0 c 0.517,0.413 1.19,0.959 1.19,2.738 0,0.714 0,2.247 -1.19,3.01 L 0.084,5.86 C 0.49,5.644 0.952,5.153 1.217,4.761 1.561,4.257 1.792,3.753 1.792,2.787 1.792,1.583 1.148,0.532 0.062,-0.112 L 0,0"
         style="fill:#000000;fill-opacity:1;fill-rule:nonzero;stroke:none"
         transform="matrix(1.3333333,0,0,-1.3333333,422.296,764.21333)" />
      <path
         id="path352"
         d="m 0,0 c 3.787,1.049 3.398,12.184 11.159,21.45 4.221,5.04 14.506,9.176 35.586,9.237"
         style="fill:none;stroke:#000000;stroke-width:0.75;stroke-linecap:butt;stroke-linejoin:miter;stroke-miterlimit:4;stroke-dasharray:none;stroke-opacity:1"
         transform="matrix(1.3333333,0,0,-1.3333333,415.48267,824.25333)" />
      <path
         id="path353"
         d="m 362.38,149.06 h 4.867 v 1.303 h -4.867 z"
         style="fill:#ffffff;fill-opacity:1;fill-rule:nonzero;stroke:none"
         transform="matrix(1.3333333,0,0,-1.3333333,-70.944,1024.7333)" />
      <path
         id="path354"
         d="M 0,0 V -39.677 H 61.748"
         style="fill:none;stroke:#000000;stroke-width:0.5;stroke-linecap:butt;stroke-linejoin:miter;stroke-miterlimit:4;stroke-dasharray:none;stroke-opacity:1"
         transform="matrix(1.3333333,0,0,-1.3333333,415.48267,771.34667)" />
      <path
         id="path355"
         d="M 0,0 5.111,-1.347 0,-2.696 V 0"
         style="fill:#000000;fill-opacity:1;fill-rule:nonzero;stroke:none"
         transform="matrix(1.3333333,0,0,-1.3333333,306.98933,796.74667)" />
      <path
         id="path356"
         d="M 0,0 H -74.831"
         style="fill:none;stroke:#000000;stroke-width:0.5;stroke-linecap:butt;stroke-linejoin:miter;stroke-miterlimit:10;stroke-dasharray:none;stroke-opacity:1"
         transform="matrix(1.3333333,0,0,-1.3333333,310.54933,798.53333)" />
      <path
         id="path357"
         d="M 0,0 1.347,5.109 2.697,0 H 0"
         style="fill:#000000;fill-opacity:1;fill-rule:nonzero;stroke:none"
         transform="matrix(1.3333333,0,0,-1.3333333,260.70933,769.62667)" />
      <path
         id="path358"
         d="M 0,0 V -49.596"
         style="fill:none;stroke:#000000;stroke-width:0.5;stroke-linecap:butt;stroke-linejoin:miter;stroke-miterlimit:10;stroke-dasharray:none;stroke-opacity:1"
         transform="matrix(1.3333333,0,0,-1.3333333,262.50933,766.06667)" />
      <path
         id="path363"
         d="m 0,0 c 0.049,-0.309 0.161,-0.952 0.728,-0.952 0.392,0 0.504,0.336 0.504,0.566 0,0.463 -0.833,1.135 -0.833,1.674 0,0.217 0.098,0.777 0.84,0.777 0.315,0 0.455,-0.119 0.665,-0.119 0.119,0 0.161,0.071 0.196,0.126 H 2.198 L 2.058,1.1 H 1.946 C 1.911,1.498 1.743,1.904 1.288,1.904 1.134,1.904 0.91,1.842 0.91,1.498 0.91,1.057 1.764,0.434 1.764,-0.161 1.764,-0.925 1.113,-1.1 0.721,-1.1 c -0.21,0 -0.491,0.133 -0.693,0.133 -0.099,0 -0.127,-0.069 -0.169,-0.146 H -0.252 L -0.113,0 H 0"
         style="fill:#000000;fill-opacity:1;fill-rule:nonzero;stroke:none"
         transform="matrix(1.3333333,0,0,-1.3333333,280.12267,778.76)" />
      <path
         id="path364"
         d="m 265.93,184.81 h 1.721 v 0.441 h -1.721 z"
         style="fill:#000000;fill-opacity:1;fill-rule:nonzero;stroke:none"
         transform="matrix(1.3333333,0,0,-1.3333333,-70.944,1024.7333)" />
      <path
         id="path365"
         d="m 0,0 c 0,-0.161 0.33,-0.462 0.714,-0.462 0.232,0 0.862,0.133 0.862,1.352 0,0.16 -0.035,1.294 -0.889,1.294 C 0.435,2.184 0.042,1.988 0,1.723 Z m -0.587,1.743 c 0,0.28 -0.022,0.4 -0.267,0.4 -0.063,0 -0.133,0 -0.195,-0.007 v 0.112 c 0.336,0.104 0.672,0.224 1.007,0.356 L 0,2.591 V 2.079 L 0.014,2.065 c 0.148,0.197 0.47,0.539 1.009,0.539 0.623,0 1.155,-0.574 1.155,-1.504 0,-0.806 -0.497,-1.786 -1.47,-1.786 -0.281,0 -0.476,0.077 -0.708,0.301 V -1.484 C 0,-1.933 0.113,-2.01 0.617,-2.01 v -0.126 h -1.695 v 0.119 c 0.462,0.036 0.491,0.182 0.491,0.484 v 3.276"
         style="fill:#000000;fill-opacity:1;fill-rule:nonzero;stroke:none"
         transform="matrix(1.3333333,0,0,-1.3333333,287.856,779.30667)" />
      <path
         id="path366"
         d="m 0,0 c 0.413,0.027 0.539,0.118 0.539,0.504 v 3.34 C 0.539,4.158 0.497,4.27 0.223,4.27 0.132,4.27 0.069,4.264 -0.015,4.257 V 4.369 C 0.356,4.46 0.727,4.558 1.098,4.677 L 1.127,4.663 V 0.483 C 1.127,0.076 1.246,0.021 1.652,0 V -0.105 H 0 V 0"
         style="fill:#000000;fill-opacity:1;fill-rule:nonzero;stroke:none"
         transform="matrix(1.3333333,0,0,-1.3333333,291.24267,779.98667)" />
      <path
         id="path367"
         d="m 0,0 c -1.057,-0.351 -1.135,-0.742 -1.135,-0.98 v -0.015 c 0,-0.329 0.204,-0.546 0.462,-0.546 0.155,0 0.371,0.091 0.435,0.126 C -0.021,-1.309 0,-1.226 0,-1.016 Z m 1.085,-1.597 c -0.294,-0.343 -0.511,-0.35 -0.623,-0.35 -0.126,0 -0.42,0.007 -0.455,0.512 -0.259,-0.232 -0.63,-0.512 -1.016,-0.512 -0.377,0 -0.742,0.26 -0.742,0.728 0,0.701 0.61,0.939 1.751,1.387 v 0.427 c 0,0.504 -0.329,0.581 -0.539,0.581 -0.231,0 -0.497,-0.126 -0.497,-0.343 0,-0.105 0.034,-0.21 0.034,-0.273 0,-0.147 -0.133,-0.301 -0.314,-0.301 -0.217,0 -0.301,0.196 -0.301,0.307 0,0.281 0.328,0.778 1.141,0.778 1.044,0 1.044,-0.7 1.044,-1.12 v -1.366 c 0,-0.203 0,-0.406 0.202,-0.406 0.147,0 0.238,0.071 0.315,0.133 v -0.182"
         style="fill:#000000;fill-opacity:1;fill-rule:nonzero;stroke:none"
         transform="matrix(1.3333333,0,0,-1.3333333,296.32267,777.62667)" />
      <path
         id="path368"
         d="m 0,0 c 0,0.441 -0.133,0.448 -0.245,0.448 -0.098,0 -0.175,-0.014 -0.203,-0.027 V 0.54 c 0.315,0.091 0.644,0.195 0.966,0.314 L 0.567,0.841 V 0.287 c 0.344,0.322 0.609,0.567 1.022,0.567 0.323,0 0.82,-0.188 0.82,-1.049 v -1.604 c 0,-0.329 0.084,-0.434 0.426,-0.462 V -2.366 H 1.379 v 0.105 c 0.259,0.021 0.442,0.056 0.442,0.588 v 1.463 c 0,0.428 -0.126,0.68 -0.539,0.68 -0.21,0 -0.428,-0.141 -0.694,-0.4 v -1.968 c 0,-0.23 0.098,-0.342 0.462,-0.363 v -0.105 h -1.484 v 0.105 C -0.105,-2.24 0,-2.149 0,-1.736 V 0"
         style="fill:#000000;fill-opacity:1;fill-rule:nonzero;stroke:none"
         transform="matrix(1.3333333,0,0,-1.3333333,298.52267,776.97333)" />
      <path
         id="path369"
         d="M 0,0 C -0.049,0.336 -0.118,0.805 -0.672,0.805 -1.057,0.805 -1.33,0.615 -1.442,0 Z m 0.848,-1.064 c -0.071,-0.218 -0.477,-1.17 -1.485,-1.17 -0.777,0 -1.309,0.574 -1.309,1.568 0,1.296 0.868,1.723 1.428,1.723 0.659,0 1.156,-0.365 1.233,-1.282 h -2.178 c 0.084,-1.239 0.651,-1.526 1.113,-1.526 0.623,0 0.924,0.477 1.085,0.735 l 0.113,-0.048"
         style="fill:#000000;fill-opacity:1;fill-rule:nonzero;stroke:none"
         transform="matrix(1.3333333,0,0,-1.3333333,305.28267,777.24)" />
      <path
         id="path370"
         d="M 0,0 1.167,-5.446 3.695,3.501 H 22.951"
         style="fill:none;stroke:#000000;stroke-width:0.35;stroke-linecap:butt;stroke-linejoin:miter;stroke-miterlimit:4;stroke-dasharray:none;stroke-opacity:1"
         transform="matrix(1.3333333,0,0,-1.3333333,223.38933,767.42667)" />
      <path
         id="path371"
         d="m 0,0 h -2.123 v 0.066 l 0.968,1.029 c 0.474,0.506 0.708,0.996 0.708,1.405 0,0.277 -0.135,0.778 -0.778,0.778 -0.496,0 -0.66,-0.413 -0.779,-0.708 l -0.114,0.028 c 0.163,0.822 0.674,1.084 1.154,1.084 0.495,0 0.985,-0.371 0.985,-0.981 0,-0.577 -0.457,-1.072 -0.697,-1.328 L -1.59,0.414 h 1.301 c 0.202,0 0.305,0.016 0.517,0.359 L 0.3,0.746 0,0"
         style="fill:#000000;fill-opacity:1;fill-rule:nonzero;stroke:none"
         transform="matrix(1.3333333,0,0,-1.3333333,236.62933,770.02667)" />
      <path
         id="path372"
         d="m 232.86,191.66 h 3.502 v 0.343 h -3.502 z"
         style="fill:#000000;fill-opacity:1;fill-rule:nonzero;stroke:none"
         transform="matrix(1.3333333,0,0,-1.3333333,-70.944,1024.7333)" />
      <path
         id="path373"
         d="m 0,0 c 0.407,0.014 0.665,0.027 0.665,0.546 v 3.172 c 0,0.147 0,0.329 -0.237,0.329 -0.084,0 -0.084,0 -0.476,-0.154 V 3.991 L 1.211,4.628 1.268,4.614 V 0.413 C 1.268,0.076 1.408,0 1.933,0 V -0.105 H 0 V 0"
         style="fill:#000000;fill-opacity:1;fill-rule:nonzero;stroke:none"
         transform="matrix(1.3333333,0,0,-1.3333333,247.64267,771.96)" />
      <path
         id="path374"
         d="m 0,0 c -0.099,-0.042 -0.504,-0.203 -0.468,-0.56 0.017,-0.217 0.181,-0.266 0.312,-0.308 0.374,0.273 0.531,0.455 1.092,0.722 0.21,0.097 0.37,0.125 0.479,0.048 C 1.477,-0.14 1.559,-0.28 1.327,-0.518 1.256,-0.587 1.143,-0.721 0.774,-0.882 0.502,-1.001 0.371,-1.029 0.055,-1.064 -0.208,-1.246 -0.557,-1.638 -0.791,-1.946 -0.994,-2.212 -1.374,-2.814 -1.49,-3.521 c -0.015,-0.105 -0.083,-0.357 0.046,-0.61 0.157,-0.314 0.415,-0.385 0.599,-0.378 l 0.325,0.015 C 0.06,-4.467 0.338,-4.635 0.43,-4.733 0.6,-4.921 0.668,-5.097 0.62,-5.419 0.539,-5.993 0.098,-6.525 -0.382,-6.672 -0.689,-6.77 -0.981,-6.756 -1.14,-6.686 c -0.096,0.042 -0.222,0.175 -0.194,0.308 0.035,0.161 0.202,0.385 0.566,0.322 0.329,-0.063 0.43,-0.174 0.663,-0.07 0.287,0.126 0.37,0.42 0.389,0.505 0.053,0.286 -0.158,0.447 -0.477,0.427 -0.299,-0.022 -0.606,-0.084 -0.902,-0.03 -0.237,0.042 -0.699,0.309 -0.779,0.722 -0.052,0.28 -0.021,0.687 0.033,0.91 0.117,0.484 0.187,0.778 0.69,1.596 0.159,0.26 0.466,0.61 0.78,0.939 l -0.285,0.105 c -0.357,0.133 -0.311,0.546 0.012,0.819 0.265,0.225 0.501,0.246 0.658,0.259 L 0,0"
         style="fill:#000000;fill-opacity:1;fill-rule:nonzero;stroke:none"
         transform="matrix(1.3333333,0,0,-1.3333333,231.64267,765.14667)" />
      <path
         id="path375"
         d="M 0,0 1.167,-5.446 3.696,3.501 H 22.95"
         style="fill:none;stroke:#000000;stroke-width:0.35;stroke-linecap:butt;stroke-linejoin:miter;stroke-miterlimit:4;stroke-dasharray:none;stroke-opacity:1"
         transform="matrix(1.3333333,0,0,-1.3333333,223.06933,824.88)" />
      <path
         id="path376"
         d="m 0,0 h -2.124 v 0.065 l 0.97,1.03 c 0.474,0.506 0.708,0.996 0.708,1.405 0,0.277 -0.137,0.778 -0.779,0.778 -0.495,0 -0.658,-0.414 -0.779,-0.708 l -0.114,0.028 c 0.163,0.822 0.676,1.084 1.154,1.084 0.497,0 0.987,-0.371 0.987,-0.981 0,-0.577 -0.458,-1.073 -0.697,-1.329 L -1.589,0.414 h 1.301 c 0.201,0 0.305,0.017 0.518,0.359 L 0.3,0.746 0,0"
         style="fill:#000000;fill-opacity:1;fill-rule:nonzero;stroke:none"
         transform="matrix(1.3333333,0,0,-1.3333333,236.30933,827.46667)" />
      <path
         id="path377"
         d="m 232.63,148.58 h 3.5 v 0.343 h -3.5 z"
         style="fill:#000000;fill-opacity:1;fill-rule:nonzero;stroke:none"
         transform="matrix(1.3333333,0,0,-1.3333333,-70.944,1024.7333)" />
      <path
         id="path378"
         d="m 0,0 c 0.406,0.014 0.665,0.027 0.665,0.546 v 3.172 c 0,0.146 0,0.329 -0.238,0.329 -0.084,0 -0.084,0 -0.476,-0.155 V 3.99 L 1.212,4.628 1.268,4.614 V 0.413 C 1.268,0.076 1.407,0 1.933,0 V -0.105 H 0 V 0"
         style="fill:#000000;fill-opacity:1;fill-rule:nonzero;stroke:none"
         transform="matrix(1.3333333,0,0,-1.3333333,247.336,829.4)" />
      <path
         id="path379"
         d="m 0,0 c -0.1,-0.042 -0.505,-0.202 -0.469,-0.56 0.016,-0.216 0.181,-0.266 0.312,-0.307 0.373,0.272 0.532,0.455 1.092,0.722 0.209,0.096 0.369,0.124 0.479,0.047 C 1.476,-0.14 1.558,-0.279 1.325,-0.518 1.254,-0.587 1.142,-0.721 0.772,-0.882 0.501,-1.001 0.37,-1.028 0.053,-1.064 c -0.262,-0.181 -0.612,-0.574 -0.845,-0.881 -0.204,-0.267 -0.584,-0.868 -0.7,-1.575 -0.014,-0.106 -0.083,-0.358 0.046,-0.61 0.157,-0.315 0.416,-0.385 0.599,-0.379 l 0.325,0.015 c 0.58,0.028 0.859,-0.141 0.95,-0.238 0.17,-0.189 0.238,-0.365 0.191,-0.687 -0.08,-0.574 -0.523,-1.105 -1.001,-1.253 -0.308,-0.098 -0.601,-0.084 -0.76,-0.015 -0.096,0.042 -0.222,0.176 -0.193,0.309 0.034,0.162 0.201,0.385 0.565,0.322 0.33,-0.063 0.432,-0.174 0.664,-0.07 0.287,0.127 0.369,0.421 0.388,0.505 0.053,0.286 -0.157,0.448 -0.478,0.427 -0.298,-0.021 -0.605,-0.084 -0.9,-0.029 -0.237,0.042 -0.699,0.309 -0.779,0.721 -0.053,0.281 -0.022,0.688 0.033,0.91 0.117,0.484 0.186,0.779 0.689,1.597 0.16,0.26 0.466,0.609 0.781,0.938 l -0.287,0.106 c -0.355,0.133 -0.31,0.546 0.014,0.818 0.266,0.225 0.5,0.246 0.657,0.259 L 0,0"
         style="fill:#000000;fill-opacity:1;fill-rule:nonzero;stroke:none"
         transform="matrix(1.3333333,0,0,-1.3333333,231.416,822.58667)" />
      <path
         id="path380"
         d="m 188.63,191.67 h 3.501 v 0.343 h -3.501 z"
         style="fill:#000000;fill-opacity:1;fill-rule:nonzero;stroke:none"
         transform="matrix(1.3333333,0,0,-1.3333333,-70.944,1024.7333)" />
      <path
         id="path381"
         d="m 0,0 c -0.272,-0.365 -0.463,-0.615 -0.757,-0.615 -0.251,0 -0.262,0.163 -0.262,0.321 0,0.131 0.403,1.459 0.403,1.677 0,0.098 -0.032,0.175 -0.136,0.175 -0.261,0 -0.604,-0.469 -0.8,-0.774 -0.251,-0.376 -0.322,-0.61 -0.545,-1.35 h -0.408 c 0.169,0.615 0.533,1.889 0.533,2.003 0,0.082 -0.054,0.142 -0.348,0.142 v 0.087 c 0.294,0.055 0.588,0.109 0.882,0.169 L -1.421,1.824 -1.77,0.686 -1.759,0.675 c 0.256,0.403 0.757,1.16 1.209,1.16 0.25,0 0.376,-0.131 0.376,-0.359 0,-0.235 -0.436,-1.58 -0.436,-1.743 0,-0.082 0.076,-0.092 0.087,-0.092 0.109,0 0.245,0.173 0.446,0.429 L 0,0"
         style="fill:#000000;fill-opacity:1;fill-rule:nonzero;stroke:none"
         transform="matrix(1.3333333,0,0,-1.3333333,199.68267,773.41333)" />
      <path
         id="path382"
         d="M 0,0 V -1.645 H 1.659 V -2.03 H 0 v -1.702 h -0.385 v 1.702 h -1.66 v 0.385 h 1.66 V 0 H 0"
         style="fill:#000000;fill-opacity:1;fill-rule:nonzero;stroke:none"
         transform="matrix(1.3333333,0,0,-1.3333333,202.696,767.12)" />
      <path
         id="path383"
         d="m 0,0 c -0.273,-0.365 -0.463,-0.615 -0.758,-0.615 -0.25,0 -0.261,0.163 -0.261,0.321 0,0.131 0.403,1.459 0.403,1.677 0,0.098 -0.033,0.175 -0.136,0.175 -0.261,0 -0.605,-0.469 -0.801,-0.774 -0.25,-0.376 -0.321,-0.61 -0.544,-1.35 h -0.409 c 0.169,0.615 0.534,1.889 0.534,2.003 0,0.082 -0.054,0.142 -0.349,0.142 v 0.087 c 0.295,0.055 0.589,0.109 0.883,0.169 L -1.422,1.824 -1.77,0.686 -1.76,0.675 c 0.256,0.403 0.757,1.16 1.209,1.16 0.251,0 0.376,-0.131 0.376,-0.359 0,-0.235 -0.436,-1.58 -0.436,-1.743 0,-0.082 0.077,-0.092 0.088,-0.092 0.109,0 0.245,0.173 0.446,0.429 L 0,0"
         style="fill:#000000;fill-opacity:1;fill-rule:nonzero;stroke:none"
         transform="matrix(1.3333333,0,0,-1.3333333,215.84267,773.41333)" />
      <path
         id="path384"
         d="m 0,0 c -0.483,-0.169 -0.679,-0.294 -0.877,-0.539 -0.501,-0.609 -0.63,-1.414 -0.646,-1.884 -0.007,-0.363 0.046,-0.511 0.147,-0.629 0.111,-0.134 0.258,-0.168 0.466,-0.113 0.49,0.133 0.647,0.708 0.711,0.841 -0.049,0.364 -0.096,0.805 0.122,1.364 0.121,0.309 0.253,0.47 0.436,0.47 0.181,0 0.245,-0.161 0.236,-0.47 -0.021,-0.559 -0.255,-1 -0.458,-1.364 0.007,-0.133 -0.081,-0.708 0.353,-0.841 0.184,-0.055 0.345,-0.021 0.514,0.113 0.152,0.118 0.267,0.266 0.413,0.629 0.185,0.47 0.397,1.275 0.156,1.884 C 1.479,-0.294 1.337,-0.169 0.925,0 L 0.95,0.119 C 1.192,0.105 1.616,0.154 1.928,-0.127 2.298,-0.461 2.439,-0.911 2.367,-1.519 2.308,-2.023 2.192,-2.339 1.959,-2.709 1.769,-3.011 1.441,-3.298 1.182,-3.402 0.966,-3.493 0.589,-3.585 0.29,-3.382 c -0.215,0.141 -0.306,0.246 -0.424,0.574 -0.26,-0.328 -0.394,-0.433 -0.669,-0.574 -0.386,-0.203 -0.724,-0.111 -0.9,-0.02 -0.216,0.104 -0.421,0.391 -0.483,0.693 -0.075,0.37 -0.058,0.686 0.1,1.19 0.185,0.608 0.519,1.058 1.03,1.392 0.431,0.281 0.834,0.232 1.081,0.246 L 0,0"
         style="fill:#000000;fill-opacity:1;fill-rule:nonzero;stroke:none"
         transform="matrix(1.3333333,0,0,-1.3333333,193.776,767.64)" />
      <path
         id="path385"
         d="m 0,0 c -0.1,-0.042 -0.505,-0.203 -0.469,-0.56 0.017,-0.216 0.182,-0.265 0.313,-0.307 0.373,0.272 0.531,0.454 1.092,0.72 0.209,0.098 0.369,0.126 0.479,0.05 C 1.477,-0.139 1.559,-0.28 1.326,-0.518 1.255,-0.587 1.143,-0.721 0.772,-0.881 0.502,-1.001 0.37,-1.029 0.054,-1.064 c -0.262,-0.182 -0.612,-0.574 -0.846,-0.882 -0.203,-0.266 -0.584,-0.868 -0.699,-1.575 -0.014,-0.105 -0.083,-0.357 0.046,-0.609 0.157,-0.315 0.416,-0.386 0.598,-0.379 l 0.326,0.015 c 0.58,0.027 0.859,-0.141 0.95,-0.239 0.17,-0.188 0.238,-0.364 0.19,-0.686 -0.08,-0.574 -0.522,-1.105 -1.001,-1.253 -0.307,-0.098 -0.599,-0.084 -0.76,-0.015 -0.095,0.042 -0.221,0.176 -0.193,0.309 0.035,0.161 0.201,0.385 0.565,0.322 0.33,-0.063 0.432,-0.174 0.665,-0.07 0.286,0.126 0.369,0.421 0.387,0.505 0.054,0.286 -0.157,0.448 -0.476,0.427 -0.299,-0.021 -0.606,-0.084 -0.902,-0.029 -0.236,0.042 -0.698,0.309 -0.778,0.721 -0.053,0.281 -0.022,0.687 0.032,0.91 0.117,0.484 0.187,0.778 0.69,1.597 0.16,0.26 0.465,0.609 0.781,0.939 l -0.286,0.105 c -0.357,0.133 -0.311,0.545 0.012,0.818 0.266,0.225 0.501,0.246 0.658,0.259 L 0,0"
         style="fill:#000000;fill-opacity:1;fill-rule:nonzero;stroke:none"
         transform="matrix(1.3333333,0,0,-1.3333333,189.30933,765.26667)" />
      <path
         id="path386"
         d="m 0,0 c -0.483,-0.169 -0.678,-0.294 -0.877,-0.539 -0.501,-0.609 -0.63,-1.414 -0.646,-1.884 -0.007,-0.363 0.046,-0.511 0.147,-0.629 0.111,-0.134 0.258,-0.168 0.466,-0.113 0.49,0.133 0.648,0.708 0.711,0.841 -0.048,0.364 -0.095,0.805 0.123,1.364 0.121,0.309 0.252,0.47 0.435,0.47 0.182,0 0.245,-0.161 0.236,-0.47 -0.021,-0.559 -0.254,-1 -0.458,-1.364 0.007,-0.133 -0.081,-0.708 0.353,-0.841 0.184,-0.055 0.346,-0.021 0.515,0.113 0.151,0.118 0.266,0.266 0.413,0.629 0.184,0.47 0.397,1.275 0.155,1.884 C 1.479,-0.294 1.338,-0.169 0.925,0 L 0.95,0.119 C 1.193,0.105 1.616,0.154 1.928,-0.127 2.298,-0.461 2.44,-0.911 2.367,-1.519 2.308,-2.023 2.193,-2.339 1.959,-2.709 1.769,-3.011 1.442,-3.298 1.182,-3.402 0.967,-3.493 0.59,-3.585 0.29,-3.382 c -0.215,0.141 -0.305,0.246 -0.424,0.574 -0.259,-0.328 -0.394,-0.433 -0.669,-0.574 -0.386,-0.203 -0.724,-0.111 -0.9,-0.02 -0.216,0.104 -0.421,0.391 -0.483,0.693 -0.075,0.37 -0.057,0.686 0.1,1.19 0.185,0.608 0.519,1.058 1.031,1.392 0.43,0.281 0.834,0.232 1.081,0.246 L 0,0"
         style="fill:#000000;fill-opacity:1;fill-rule:nonzero;stroke:none"
         transform="matrix(1.3333333,0,0,-1.3333333,208.98933,767.64)" />
      <path
         id="path387"
         d="m 188.68,148.59 h 3.501 v 0.343 h -3.501 z"
         style="fill:#000000;fill-opacity:1;fill-rule:nonzero;stroke:none"
         transform="matrix(1.3333333,0,0,-1.3333333,-70.944,1024.7333)" />
      <path
         id="path388"
         d="m 0,0 c -0.272,-0.365 -0.463,-0.615 -0.757,-0.615 -0.251,0 -0.262,0.163 -0.262,0.321 0,0.131 0.403,1.459 0.403,1.677 0,0.099 -0.032,0.175 -0.136,0.175 -0.261,0 -0.604,-0.469 -0.8,-0.774 -0.251,-0.376 -0.321,-0.61 -0.545,-1.35 h -0.408 c 0.169,0.615 0.533,1.889 0.533,2.004 0,0.082 -0.054,0.141 -0.348,0.141 v 0.087 c 0.294,0.055 0.588,0.109 0.882,0.169 L -1.421,1.824 -1.77,0.687 -1.759,0.675 c 0.256,0.403 0.757,1.16 1.209,1.16 0.25,0 0.376,-0.131 0.376,-0.359 0,-0.235 -0.436,-1.579 -0.436,-1.743 0,-0.082 0.076,-0.092 0.087,-0.092 0.109,0 0.245,0.174 0.446,0.429 L 0,0"
         style="fill:#000000;fill-opacity:1;fill-rule:nonzero;stroke:none"
         transform="matrix(1.3333333,0,0,-1.3333333,199.76267,830.85333)" />
      <path
         id="path389"
         d="m 203.17,148.59 h 3.501 v 0.343 h -3.501 z"
         style="fill:#000000;fill-opacity:1;fill-rule:nonzero;stroke:none"
         transform="matrix(1.3333333,0,0,-1.3333333,-70.944,1024.7333)" />
      <path
         id="path390"
         d="m 0,0 c -0.272,-0.365 -0.463,-0.615 -0.757,-0.615 -0.251,0 -0.261,0.163 -0.261,0.321 0,0.131 0.402,1.459 0.402,1.677 0,0.099 -0.032,0.175 -0.136,0.175 -0.261,0 -0.604,-0.469 -0.8,-0.774 -0.251,-0.376 -0.321,-0.61 -0.545,-1.35 h -0.408 c 0.169,0.615 0.533,1.889 0.533,2.004 0,0.082 -0.054,0.141 -0.348,0.141 v 0.087 c 0.294,0.055 0.588,0.109 0.882,0.169 L -1.421,1.824 -1.77,0.687 -1.759,0.675 c 0.256,0.403 0.757,1.16 1.209,1.16 0.25,0 0.376,-0.131 0.376,-0.359 0,-0.235 -0.436,-1.579 -0.436,-1.743 0,-0.082 0.076,-0.092 0.087,-0.092 0.109,0 0.245,0.174 0.446,0.429 L 0,0"
         style="fill:#000000;fill-opacity:1;fill-rule:nonzero;stroke:none"
         transform="matrix(1.3333333,0,0,-1.3333333,214.456,830.85333)" />
      <path
         id="path391"
         d="m 0,0 c -0.483,-0.168 -0.678,-0.294 -0.878,-0.539 -0.5,-0.609 -0.629,-1.414 -0.645,-1.883 -0.007,-0.364 0.045,-0.511 0.146,-0.63 0.111,-0.133 0.258,-0.168 0.466,-0.112 0.491,0.134 0.648,0.707 0.711,0.84 -0.048,0.364 -0.095,0.806 0.123,1.365 0.121,0.309 0.253,0.469 0.435,0.469 0.182,0 0.246,-0.16 0.237,-0.469 C 0.573,-1.518 0.34,-1.96 0.136,-2.324 0.143,-2.457 0.056,-3.03 0.49,-3.164 c 0.183,-0.056 0.345,-0.021 0.514,0.112 0.151,0.119 0.266,0.266 0.413,0.63 0.184,0.469 0.397,1.274 0.156,1.883 C 1.478,-0.294 1.337,-0.168 0.925,0 L 0.95,0.119 C 1.192,0.105 1.616,0.155 1.927,-0.126 2.297,-0.461 2.439,-0.91 2.366,-1.518 2.308,-2.023 2.192,-2.338 1.959,-2.709 1.768,-3.011 1.441,-3.297 1.182,-3.402 0.966,-3.493 0.589,-3.585 0.29,-3.381 c -0.216,0.14 -0.306,0.245 -0.424,0.573 -0.26,-0.328 -0.394,-0.433 -0.669,-0.573 -0.386,-0.204 -0.724,-0.112 -0.9,-0.021 -0.216,0.105 -0.422,0.391 -0.484,0.693 -0.074,0.371 -0.057,0.686 0.1,1.191 0.185,0.608 0.519,1.057 1.03,1.392 0.431,0.281 0.835,0.231 1.082,0.245 L 0,0"
         style="fill:#000000;fill-opacity:1;fill-rule:nonzero;stroke:none"
         transform="matrix(1.3333333,0,0,-1.3333333,193.44267,825.08)" />
      <path
         id="path392"
         d="m 0,0 c -0.1,-0.042 -0.505,-0.202 -0.468,-0.56 0.016,-0.216 0.181,-0.266 0.312,-0.307 0.373,0.272 0.531,0.455 1.092,0.722 0.209,0.097 0.369,0.124 0.479,0.048 C 1.476,-0.139 1.559,-0.279 1.326,-0.518 1.255,-0.587 1.143,-0.721 0.772,-0.881 0.502,-1.001 0.37,-1.028 0.054,-1.063 -0.208,-1.245 -0.558,-1.638 -0.792,-1.945 -0.995,-2.212 -1.374,-2.814 -1.491,-3.52 c -0.014,-0.106 -0.083,-0.358 0.046,-0.61 0.157,-0.315 0.416,-0.385 0.599,-0.378 l 0.325,0.014 c 0.58,0.028 0.859,-0.14 0.95,-0.238 0.17,-0.189 0.238,-0.365 0.19,-0.686 -0.08,-0.574 -0.522,-1.106 -1.002,-1.254 -0.307,-0.098 -0.598,-0.084 -0.759,-0.013 -0.095,0.042 -0.221,0.175 -0.192,0.307 0.034,0.162 0.2,0.386 0.565,0.322 0.329,-0.062 0.432,-0.174 0.664,-0.069 0.286,0.126 0.369,0.42 0.387,0.504 0.055,0.287 -0.157,0.448 -0.476,0.427 -0.299,-0.021 -0.606,-0.084 -0.902,-0.029 -0.236,0.042 -0.698,0.309 -0.778,0.722 -0.053,0.28 -0.022,0.687 0.032,0.91 0.118,0.484 0.187,0.777 0.69,1.596 0.16,0.26 0.466,0.609 0.781,0.939 l -0.286,0.105 c -0.357,0.133 -0.311,0.546 0.013,0.819 0.265,0.224 0.5,0.245 0.657,0.259 L 0,0"
         style="fill:#000000;fill-opacity:1;fill-rule:nonzero;stroke:none"
         transform="matrix(1.3333333,0,0,-1.3333333,188.98933,822.72)" />
      <path
         id="path393"
         d="m 0,0 c -0.483,-0.168 -0.678,-0.294 -0.877,-0.539 -0.501,-0.609 -0.63,-1.414 -0.646,-1.883 -0.007,-0.364 0.046,-0.511 0.146,-0.63 0.112,-0.133 0.259,-0.168 0.467,-0.112 0.49,0.134 0.648,0.707 0.71,0.84 -0.048,0.364 -0.095,0.806 0.123,1.365 0.121,0.309 0.253,0.469 0.436,0.469 0.181,0 0.245,-0.16 0.236,-0.469 C 0.573,-1.518 0.34,-1.96 0.136,-2.324 0.144,-2.457 0.056,-3.03 0.49,-3.164 c 0.184,-0.056 0.345,-0.021 0.514,0.112 0.151,0.119 0.267,0.266 0.413,0.63 0.184,0.469 0.398,1.274 0.156,1.883 C 1.478,-0.294 1.337,-0.168 0.925,0 L 0.95,0.119 C 1.192,0.105 1.616,0.155 1.927,-0.126 2.297,-0.461 2.439,-0.91 2.366,-1.518 2.308,-2.023 2.192,-2.338 1.959,-2.709 1.769,-3.011 1.441,-3.297 1.182,-3.402 0.966,-3.493 0.589,-3.585 0.29,-3.381 c -0.216,0.14 -0.305,0.245 -0.424,0.573 -0.259,-0.328 -0.394,-0.433 -0.669,-0.573 -0.386,-0.204 -0.724,-0.112 -0.9,-0.021 -0.216,0.105 -0.422,0.391 -0.483,0.693 -0.075,0.371 -0.058,0.686 0.099,1.191 0.185,0.608 0.519,1.057 1.031,1.392 0.431,0.281 0.834,0.231 1.082,0.245 L 0,0"
         style="fill:#000000;fill-opacity:1;fill-rule:nonzero;stroke:none"
         transform="matrix(1.3333333,0,0,-1.3333333,208.26933,825.08)" />
      <path
         id="path394"
         d="M 0,0 2.763,4.504 2.582,-0.777 0,0"
         style="fill:#000000;fill-opacity:1;fill-rule:nonzero;stroke:none"
         transform="matrix(1.3333333,0,0,-1.3333333,215.096,811.05333)" />
      <path
         id="path395"
         d="M 0,0 -2.504,-7.628"
         style="fill:none;stroke:#000000;stroke-width:0.5;stroke-linecap:butt;stroke-linejoin:miter;stroke-miterlimit:10;stroke-dasharray:none;stroke-opacity:1"
         transform="matrix(1.3333333,0,0,-1.3333333,217.82933,808.16)" />
      <path
         id="path396"
         d="M 0,0 0.52,-5.259 -2.528,-0.941 0,0"
         style="fill:#000000;fill-opacity:1;fill-rule:nonzero;stroke:none"
         transform="matrix(1.3333333,0,0,-1.3333333,242.776,784.58667)" />
      <path
         id="path397"
         d="M 0,0 -3.42,9.119"
         style="fill:none;stroke:#000000;stroke-width:0.5;stroke-linecap:butt;stroke-linejoin:miter;stroke-miterlimit:10;stroke-dasharray:none;stroke-opacity:1"
         transform="matrix(1.3333333,0,0,-1.3333333,242.34933,788.56)" />
      <path
         id="path398"
         d="m 0,0 c -0.175,0 -0.336,0.119 -0.336,0.364 0,0.245 0.161,0.378 0.329,0.378 0.23,0 0.349,-0.231 0.349,-0.385 C 0.342,0.217 0.231,0 0,0 Z m -0.672,-1.813 c 0.09,0.357 0.126,0.511 0.104,0.595 0,0.119 -0.035,0.168 -0.273,0.189 l -0.238,-0.007 v 0.112 c 0.288,0.014 0.917,0.126 1.191,0.175 l 0.021,-0.014 -0.728,-2.878 c -0.287,-1.12 -0.694,-1.645 -1.317,-1.645 -0.231,0 -0.546,0.105 -0.546,0.448 0,0.028 0.028,0.273 0.287,0.273 0.14,0 0.28,-0.105 0.28,-0.252 0,-0.147 -0.091,-0.147 -0.091,-0.231 0,-0.07 0.077,-0.077 0.141,-0.077 0.356,0 0.531,0.728 0.664,1.267 l 0.505,2.045"
         style="fill:#000000;fill-opacity:1;fill-rule:nonzero;stroke:none"
         transform="matrix(1.3333333,0,0,-1.3333333,260.136,753.74667)" />
      <path
         id="path399"
         d="m 0,0 c -0.483,-0.168 -0.678,-0.294 -0.878,-0.539 -0.5,-0.609 -0.629,-1.414 -0.645,-1.883 -0.008,-0.364 0.045,-0.511 0.146,-0.63 0.112,-0.134 0.258,-0.168 0.466,-0.113 0.491,0.134 0.648,0.708 0.711,0.841 -0.048,0.364 -0.095,0.805 0.122,1.365 0.122,0.309 0.254,0.469 0.436,0.469 0.181,0 0.246,-0.16 0.236,-0.469 C 0.573,-1.519 0.34,-1.96 0.136,-2.324 0.143,-2.457 0.055,-3.031 0.49,-3.165 c 0.183,-0.055 0.344,-0.021 0.514,0.113 0.151,0.119 0.266,0.266 0.413,0.63 0.184,0.469 0.398,1.274 0.156,1.883 C 1.478,-0.294 1.337,-0.168 0.924,0 L 0.95,0.12 C 1.192,0.105 1.616,0.155 1.927,-0.126 2.297,-0.461 2.439,-0.91 2.366,-1.519 2.308,-2.023 2.192,-2.338 1.959,-2.709 1.769,-3.011 1.441,-3.297 1.182,-3.402 0.965,-3.493 0.589,-3.585 0.289,-3.381 c -0.214,0.14 -0.304,0.245 -0.423,0.574 -0.26,-0.329 -0.395,-0.434 -0.669,-0.574 -0.386,-0.204 -0.724,-0.112 -0.9,-0.021 -0.217,0.105 -0.422,0.391 -0.484,0.693 -0.074,0.371 -0.057,0.686 0.1,1.19 0.185,0.609 0.519,1.058 1.031,1.393 0.43,0.281 0.834,0.231 1.082,0.246 L 0,0"
         style="fill:#000000;fill-opacity:1;fill-rule:nonzero;stroke:none"
         transform="matrix(1.3333333,0,0,-1.3333333,263.74933,754.41333)" />
      <path
         id="path400"
         d="m 0,0 c -0.21,0 -0.602,0.034 -1.019,-0.281 -0.401,-0.308 -0.52,-0.833 -0.54,-0.993 -0.084,-0.624 0.105,-1.058 0.33,-1.275 0.153,-0.14 0.33,-0.294 0.813,-0.168 0.32,0.091 0.557,0.419 0.671,0.623 0.216,0.392 0.3,0.917 0.23,1.246 C 0.421,-0.525 0.298,-0.315 0,0 Z M 1.89,0 H 0.371 L 0.368,-0.015 C 0.72,-0.134 1.108,-0.68 1.183,-1.023 1.242,-1.274 1.21,-1.59 1.004,-1.968 c -0.13,-0.246 -0.621,-0.904 -1.431,-1.03 -0.246,-0.034 -0.754,-0.153 -1.211,0.168 -0.549,0.379 -0.67,1.064 -0.651,1.415 0.037,0.637 0.289,0.932 0.505,1.19 0.272,0.322 0.751,0.538 0.927,0.61 0.292,0.118 0.684,0.217 1.062,0.217 H 2.018 L 1.89,0"
         style="fill:#000000;fill-opacity:1;fill-rule:nonzero;stroke:none"
         transform="matrix(1.3333333,0,0,-1.3333333,321.34933,796.81333)" />
    </g>
  </g>
</svg>
