<?xml version="1.0" encoding="UTF-8" standalone="no"?>
<!-- Created with Inkscape (http://www.inkscape.org/) -->

<svg
   version="1.1"
   id="svg1"
   viewBox="0 0 263.73221 204.23181"
   xmlns="http://www.w3.org/2000/svg"
   xmlns:svg="http://www.w3.org/2000/svg">
  <defs
     id="defs1">
    <clipPath
       clipPathUnits="userSpaceOnUse"
       id="clipPath196">
      <path
         d="m 69.279,374.57 h 189.3 V 230.23 h -189.3 z"
         transform="translate(-69.279002,-300.36001)"
         id="path196" />
    </clipPath>
    <clipPath
       clipPathUnits="userSpaceOnUse"
       id="clipPath198">
      <path
         d="m 69.279,374.57 h 189.3 V 230.23 h -189.3 z"
         transform="translate(-150.17001,-360.81001)"
         id="path198" />
    </clipPath>
  </defs>
  <g
     id="g256"
     transform="translate(-35.312931,-513.4967)">
    <rect
       style="fill:#ffffff;stroke-width:1.00958"
       id="rect255"
       width="263.73221"
       height="204.23178"
       x="35.312931"
       y="513.4967" />
    <g
       id="g255"
       transform="translate(-7.8179983,-7.5921351)">
      <path
         id="path195"
         d="M 0,0 H 176.89"
         style="fill:none;stroke:#000000;stroke-width:0.5;stroke-linecap:butt;stroke-linejoin:miter;stroke-miterlimit:4;stroke-dasharray:none;stroke-opacity:1"
         transform="matrix(1.3333333,0,0,-1.3333333,49.652,624.25333)"
         clip-path="url(#clipPath196)" />
      <path
         id="path197"
         d="M 0,0 V -130.67"
         style="fill:none;stroke:#000000;stroke-width:0.5;stroke-linecap:butt;stroke-linejoin:miter;stroke-miterlimit:4;stroke-dasharray:none;stroke-opacity:1"
         transform="matrix(1.3333333,0,0,-1.3333333,157.50667,543.65333)"
         clip-path="url(#clipPath198)" />
      <path
         id="path199"
         d="M 0,0 -55.667,39"
         style="fill:none;stroke:#000000;stroke-width:0.5;stroke-linecap:butt;stroke-linejoin:miter;stroke-miterlimit:4;stroke-dasharray:none;stroke-opacity:1"
         transform="matrix(1.3333333,0,0,-1.3333333,157.50667,624.25333)" />
      <path
         id="path200"
         d="M 0,0 H -59.278"
         style="fill:none;stroke:#000000;stroke-width:0.5;stroke-linecap:butt;stroke-linejoin:miter;stroke-miterlimit:4;stroke-dasharray:4, 2;stroke-dashoffset:0;stroke-opacity:1"
         transform="matrix(1.3333333,0,0,-1.3333333,162.24,572.10667)" />
      <path
         id="path201"
         d="M 0,0 V -29.294"
         style="fill:none;stroke:#000000;stroke-width:0.5;stroke-linecap:butt;stroke-linejoin:miter;stroke-miterlimit:4;stroke-dasharray:4, 2;stroke-dashoffset:0;stroke-opacity:1"
         transform="matrix(1.3333333,0,0,-1.3333333,83.206667,639.12)" />
      <path
         id="path202"
         d="M 0,0 V -40.9"
         style="fill:none;stroke:#000000;stroke-width:0.5;stroke-linecap:butt;stroke-linejoin:miter;stroke-miterlimit:4;stroke-dasharray:4, 2;stroke-dashoffset:0;stroke-opacity:1"
         transform="matrix(1.3333333,0,0,-1.3333333,83.206667,572.10667)" />
      <path
         id="path203"
         d="m 2.8600078,-0.72605469 c -0.2226562,0.29296875 -0.3867187,0.4921875 -0.5039062,0.4921875 -0.011719,0 -0.1054688,-0.0117188 -0.1054688,-0.10546875 0,-0.1875 0.5039063,-1.72265626 0.5039063,-1.99218746 0,-0.2578125 -0.1523438,-0.4101563 -0.4335938,-0.4101563 -0.515625,0 -1.0898437,0.8671875 -1.38281249,1.3242188 l -0.0117188,-0.011719 0.39843749,-1.3007812 -0.011719,-0.011719 c -0.33984369,0.070312 -0.67968744,0.1289063 -1.01953119,0.1875 v 0.1054688 c 0.33984375,0 0.3984375,0.070312 0.3984375,0.1640625 0,0.1289062 -0.41015625,1.58203121 -0.609375,2.2851562125 h 0.46875 C 0.80922656,-0.84324219 0.89125781,-1.1127734 1.1725078,-1.5463672 c 0.2226563,-0.3398437 0.6210938,-0.8789062 0.9140625,-0.8789062 0.1289063,0 0.1640625,0.082031 0.1640625,0.1992187 0,0.2460938 -0.46875,1.76953126 -0.46875,1.91015626 0,0.1875 0.011719,0.375 0.3046875,0.375 0.3398438,0 0.5507813,-0.29296875 0.8671875,-0.703125 z m 0,0"
         style="fill:#000000;fill-opacity:1;fill-rule:nonzero;stroke:none"
         aria-label="n"
         transform="matrix(1.3333333,0,0,1.3333333,80.964,636.02667)" />
      <path
         id="path204"
         d="m 2.3219331,-3.9133937 c -0.267047,0.011718 -0.7340155,-0.035154 -1.1498921,0.2695175 -0.49472079,0.3749808 -0.76289539,0.8788613 -0.81802408,1.5585141 -0.0565343,0.5624712 -0.005442,0.9140157 0.17774277,1.33586916 0.13063878,0.33982638 0.43209019,0.65621646 0.70302701,0.77339797 C 1.4563643,0.12936839 1.8512388,0.22311359 2.2259119,4.6872604e-4 2.5100221,-0.15186724 2.625804,-0.26904875 2.8392747,-0.64402958 3.0593977,-0.26904875 3.1779908,-0.15186724 3.4563806,4.6872604e-4 3.8317075,0.22311359 4.233708,0.12936839 4.457443,0.02390503 4.7255686,-0.09327648 5.0100547,-0.40966656 5.1606659,-0.74949294 5.3290432,-1.1713464 5.3951389,-1.5228909 5.3344857,-2.0853621 5.2724269,-2.7650149 5.001539,-3.2688954 4.5118847,-3.6438762 4.0840114,-3.9485482 3.6369174,-3.9016755 3.3649018,-3.9133937 l -0.00783,0.1288997 c 0.4967802,0.1874904 0.6906545,0.3281082 0.844028,0.6093438 0.42534,0.6796528 0.382257,1.5819504 0.292348,2.097549 -0.08883,0.41013532 -0.1829563,0.57418943 -0.317207,0.71480725 C 4.0185537,-0.22217614 3.8409909,-0.17530354 3.6151476,-0.24561244 3.1048671,-0.38623026 3.0736987,-1.0307286 3.0296839,-1.1830645 3.177108,-1.5931998 3.3305794,-2.0853621 3.2223484,-2.7064241 3.1478191,-3.0579687 3.0519606,-3.2337409 2.8410231,-3.2337409 c -0.1992187,0 -0.3142978,0.1757722 -0.3803934,0.5273168 -0.1027065,0.621062 0.04851,1.1132243 0.1823355,1.5233596 -0.026298,0.1523359 -0.065442,0.79683424 -0.5864114,0.93745206 C 1.8370847,-0.17530354 1.663085,-0.22217614 1.5160857,-0.36279395 1.3690865,-0.50341177 1.2757124,-0.66746588 1.2004802,-1.0776012 1.1028893,-1.5931998 1.0522223,-2.4954974 1.4706322,-3.1751502 1.6453837,-3.4563858 1.8265095,-3.5970036 2.3141043,-3.784494 Z m 0,0"
         style="fill:#000000;fill-opacity:1;fill-rule:nonzero;stroke:none"
         aria-label="ω"
         transform="matrix(1.3333333,0,-0.28267389,1.3334015,72.876,634.64)" />
      <path
         id="path205"
         d="m 1.019375,-0.23316406 c -0.38671875,0 -0.38671875,-0.3515625 -0.38671875,-0.45703125 0,-0.56249999 0.59765625,-1.91015629 1.28906255,-1.91015629 0.2929687,0 0.2929687,0.2695313 0.2929687,0.421875 0,0.7617188 -0.609375,1.94531254 -1.1953125,1.94531254 z m 1.8632813,-0.45703125 c -0.2578125,0.3046875 -0.3867188,0.4453125 -0.515625,0.4453125 -0.058594,0 -0.1054688,-0.046875 -0.1054688,-0.140625 0,-0.09375 0.75,-2.75390629 1.0195313,-3.83203129 l -0.035156,-0.035156 c -0.3164062,0.070312 -0.6328125,0.1171875 -0.9492187,0.1523437 v 0.1054688 c 0.3398437,0 0.3867187,0.035156 0.3867187,0.1757812 0,0.082031 -0.046875,0.2460938 -0.09375,0.421875 l -0.2695312,0.984375 -0.011719,0.011719 C 2.285,-2.5417578 2.238125,-2.7409766 1.8865625,-2.7409766 c -0.7382812,0 -1.79296875,1.1367188 -1.79296875,2.07421879 0,0.328125 0.12890625,0.73828125 0.64453125,0.73828125 0.3164063,0 0.65625,-0.10546875 1.1132813,-0.796875 l 0.011719,0.0117188 c -0.046875,0.22265625 -0.082031,0.36328125 -0.082031,0.50390625 0,0.140625 0.058594,0.29296875 0.2929687,0.29296875 0.2109375,0 0.609375,-0.29296875 0.8789063,-0.71484375 z m 0,0"
         style="fill:#000000;fill-opacity:1;fill-rule:nonzero;stroke:none"
         aria-label="d"
         transform="matrix(1.3333333,0,0,1.3333333,107.45333,636.98667)" />
      <path
         id="path206"
         d="M 4.6067456,-3.9133937 H 2.5794018 c -0.421875,0 -0.8448287,0.1054634 -1.1431419,0.2460812 -0.1725942,0.070309 -0.65948612,0.31639 -0.88715996,0.6796527 -0.18398596,0.2929538 -0.39567524,0.621062 -0.2817728,1.3241511 0.0610291,0.3984171 0.35141559,1.16009693 1.06194456,1.58195037 0.5926386,0.36326268 1.1278112,0.23436302 1.3874052,0.18749041 0.8842508,-0.14061781 1.2810047,-0.86714317 1.3620062,-1.14837878 0.1332211,-0.4218534 0.1055667,-0.773398 -0.024369,-1.0546336 -0.1640136,-0.386699 -0.7267915,-0.9960428 -1.1525564,-1.1249425 l 0.00675,-0.023436 h 1.6992187 z m -1.3681025,1.6171048 c 0.1498104,0.3749809 0.180276,0.9608884 0.026102,1.39446 C 3.1972441,-0.66746588 3.016445,-0.3042032 2.6755225,-0.19873984 2.1545528,-0.05812203 1.9180694,-0.23389429 1.7217108,-0.38623026 1.4117278,-0.63231143 1.0964492,-1.1244738 1.0553436,-1.8158447 c -0.025546,-0.1757722 -0.00914,-0.7616798 0.3616466,-1.1132243 0.382502,-0.3515445 0.8352674,-0.3163901 1.0696424,-0.3163901 0.4051386,0.3632627 0.5954499,0.5976257 0.7520105,0.9491702 z m 0,0"
         style="fill:#000000;fill-opacity:1;fill-rule:nonzero;stroke:none"
         aria-label="σ"
         transform="matrix(1.3333333,0,-0.28267389,1.3334015,101.17333,634.64)" />
      <path
         id="path207"
         d="m 2.8586328,-0.72605469 c -0.2226562,0.29296875 -0.3867187,0.4921875 -0.5039062,0.4921875 -0.011719,0 -0.1054688,-0.0117188 -0.1054688,-0.10546875 0,-0.1875 0.5039063,-1.72265626 0.5039063,-1.99218746 0,-0.2578125 -0.1523438,-0.4101563 -0.4335938,-0.4101563 -0.515625,0 -1.0898437,0.8671875 -1.38281249,1.3242188 l -0.0117188,-0.011719 0.39843759,-1.3007812 -0.011719,-0.011719 c -0.33984369,0.070312 -0.67968744,0.1289063 -1.01953119,0.1875 v 0.1054688 c 0.33984375,0 0.3984375,0.070312 0.3984375,0.1640625 0,0.1289062 -0.41015625,1.58203121 -0.609375,2.2851562125 h 0.46875 C 0.80785156,-0.84324219 0.88988281,-1.1127734 1.1711328,-1.5463672 c 0.2226563,-0.3398437 0.6210938,-0.8789062 0.9140625,-0.8789062 0.1289063,0 0.1640625,0.082031 0.1640625,0.1992187 0,0.2460938 -0.46875,1.76953126 -0.46875,1.91015626 0,0.1875 0.011719,0.375 0.3046875,0.375 0.3398438,0 0.5507813,-0.29296875 0.8671875,-0.703125 z m 0,0"
         style="fill:#000000;fill-opacity:1;fill-rule:nonzero;stroke:none"
         aria-label="n"
         transform="matrix(1.3333333,0,0,1.3333333,125.65333,598.02667)" />
      <path
         id="path208"
         d="M 2.3239012,-3.9140968 C 2.0568543,-3.9023786 1.5898858,-3.9492512 1.1740091,-3.6445793 0.67928834,-3.2695985 0.41111374,-2.765718 0.35598505,-2.0860652 0.29945076,-1.523594 0.3505426,-1.1720495 0.53372782,-0.75019603 0.6643666,-0.41036965 0.96581801,-0.09397957 1.2367549,0.02320194 1.4583324,0.1286653 1.8532069,0.22241051 2.22788,-2.3436302e-4 2.5119902,-0.15257033 2.6277721,-0.26975184 2.8412429,-0.64473267 3.0613658,-0.26975184 3.179959,-0.15257033 3.4583488,-2.3436302e-4 3.8336757,0.22241051 4.2356762,0.1286653 4.4594111,0.02320194 4.7275368,-0.09397957 5.0120228,-0.41036965 5.1626341,-0.75019603 5.3310114,-1.1720495 5.397107,-1.523594 5.3364538,-2.0860652 5.274395,-2.765718 5.0035071,-3.2695985 4.5138529,-3.6445793 4.0859795,-3.9492512 3.6388855,-3.9023786 3.36687,-3.9140968 l -0.00783,0.1288997 c 0.4967803,0.1874904 0.6906545,0.3281082 0.844028,0.6093438 0.4253401,0.6796528 0.382257,1.5819504 0.292348,2.097549 -0.08883,0.41013533 -0.1829562,0.57418945 -0.317207,0.71480726 C 4.0205207,-0.22287923 3.842958,-0.17600663 3.6171146,-0.24631553 3.1068352,-0.38693335 3.0756668,-1.0314316 3.031652,-1.1837676 3.1790761,-1.5939029 3.3325476,-2.0860652 3.2243165,-2.7071272 3.1497872,-3.0586718 3.0539288,-3.234444 2.8429913,-3.234444 c -0.1992188,0 -0.3142979,0.1757722 -0.3803935,0.5273168 -0.1027065,0.621062 0.04851,1.1132243 0.1823355,1.5233596 -0.026298,0.152336 -0.065442,0.79683425 -0.5864113,0.93745207 -0.2194692,0.0703089 -0.3934689,0.0234363 -0.5404682,-0.11718151 C 1.3710546,-0.50411485 1.2776805,-0.66816897 1.2024483,-1.0783043 1.1048574,-1.5939029 1.0541904,-2.4962005 1.4726003,-3.1758533 1.6473519,-3.4570889 1.8284776,-3.5977067 2.3160724,-3.7851971 Z M 17.536676,13.824254 c -0.585937,0 -1.020659,0.492163 -1.193629,0.726526 -0.265314,0.351544 -0.388222,0.656216 -0.465334,1.066351 -0.141425,0.714808 -0.0421,1.570233 0.0065,1.910059 0.04542,0.269517 0.145495,0.796834 0.476056,1.195251 0.442403,0.539035 0.919309,0.632781 1.177121,0.632781 0.269531,0 0.730126,-0.09375 1.178347,-0.632781 0.32569,-0.398417 0.424834,-0.925734 0.473163,-1.195251 0.05686,-0.339826 0.145038,-1.195251 0.0052,-1.910059 -0.07523,-0.410135 -0.198418,-0.714807 -0.448729,-1.066351 -0.178592,-0.234363 -0.611059,-0.726526 -1.208715,-0.726526 z m -0.942435,2.519403 0.05443,-0.738244 c 0.01922,-0.351544 0.160973,-0.843707 0.296302,-1.089788 0.06216,-0.09375 0.33244,-0.421853 0.590253,-0.421853 0.269531,0 0.53831,0.328108 0.581622,0.421853 0.15764,0.246081 0.297137,0.738244 0.324791,1.089788 l 0.03932,0.738244 z m 1.891638,0.410135 -0.05124,0.808552 c -0.01636,0.199209 -0.105566,0.773398 -0.386865,1.160097 -0.133548,0.199209 -0.326393,0.339827 -0.513893,0.339827 -0.1875,0 -0.357937,-0.140618 -0.505639,-0.339827 -0.292919,-0.386699 -0.379494,-0.960888 -0.386571,-1.160097 l -0.04251,-0.808552 z m -48.167968,7.001595 c -0.173297,0.01172 -0.437859,0.03515 -0.676173,0.292954 -0.298689,0.304672 -0.248676,0.76168 0.182058,0.914016 l 0.341249,0.117181 c -0.26283,0.363263 -0.541645,0.76168 -0.657803,1.042916 -0.366239,0.925734 -0.366991,1.253842 -0.381619,1.792877 -0.01814,0.246081 0.05531,0.703089 0.16926,1.019479 0.190639,0.457008 0.78009,0.749962 1.04784,0.796834 0.354749,0.07031 0.679687,0 1.002844,-0.02344 0.358312,-0.02344 0.629952,0.152336 0.638435,0.468726 -0.0036,0.09375 -0.02775,0.421853 -0.323582,0.574189 -0.232969,0.117182 -0.365765,-0.01172 -0.755671,-0.08203 -0.425062,-0.07031 -0.548673,0.175773 -0.555799,0.363263 0.0064,0.140618 0.179295,0.292954 0.294701,0.339826 0.193172,0.08203 0.523781,0.09375 0.841266,-0.01172 0.504282,-0.164054 0.86977,-0.76168 0.826883,-1.406178 -0.03014,-0.363263 -0.1402,-0.550753 -0.372418,-0.76168 -0.130312,-0.117181 -0.486467,-0.304672 -1.123545,-0.269517 l -0.360797,0.01172 c -0.208454,0.01172 -0.507094,-0.07031 -0.757404,-0.421854 -0.211968,-0.281235 -0.18956,-0.562471 -0.202684,-0.679652 -0.03754,-0.785116 0.251961,-1.464769 0.412509,-1.757723 0.183284,-0.351544 0.478083,-0.785116 0.740537,-0.984325 0.341625,-0.04687 0.477282,-0.07031 0.752157,-0.210926 0.384611,-0.175773 0.481221,-0.328109 0.534143,-0.410136 0.203158,-0.257799 0.08635,-0.421853 0.0061,-0.468726 -0.146296,-0.08203 -0.326343,-0.04687 -0.52664,0.05859 -0.570705,0.292954 -0.701769,0.503881 -1.047333,0.808553 -0.162281,-0.04687 -0.350484,-0.105464 -0.426092,-0.351545 -0.131341,-0.398417 0.288425,-0.574189 0.395675,-0.621062 z m 0,0"
         style="fill:#000000;fill-opacity:1;fill-rule:nonzero;stroke:none"
         aria-label="ω&#10;θ&#10;ζ"
         transform="matrix(1.3333333,0,-0.28267389,1.3334015,118.53333,595.68)" />
      <path
         id="path209"
         d="m -7.1875e-4,-2.0036719 v 0.3984375 H 3.995375 v -0.3984375 z m 0,0"
         style="fill:#000000;fill-opacity:1;fill-rule:nonzero;stroke:none"
         aria-label="–"
         transform="matrix(1.3333333,0,0,1.3333333,62.985333,634.32)" />
      <path
         id="path210"
         d="m 2.323604,-3.9134718 c -0.2670469,0.011718 -0.7340154,-0.035154 -1.1498921,0.2695175 -0.49472075,0.3749808 -0.76289535,0.8788613 -0.81802404,1.558514 -0.0565343,0.5624713 -0.005442,0.9140158 0.17774276,1.33586924 0.13063879,0.33982638 0.4320902,0.65621646 0.70302708,0.77339797 C 1.4580352,0.12929027 1.8529097,0.22303547 2.2275828,3.90605e-4 2.511693,-0.15194536 2.6274749,-0.26912687 2.8409457,-0.6441077 3.0610686,-0.26912687 3.1796618,-0.15194536 3.4580516,3.9060503e-4 3.8333785,0.22303547 4.235379,0.12929027 4.4591139,0.02382691 4.7272396,-0.0933546 5.0117257,-0.40974468 5.1623369,-0.74957106 5.3307142,-1.1714245 5.3968098,-1.522969 5.3361566,-2.0854403 5.2740978,-2.765093 5.0032099,-3.2689735 4.5135557,-3.6439543 4.0856823,-3.9486263 3.6385883,-3.9017537 3.3665728,-3.9134718 l -0.00783,0.1288996 c 0.4967803,0.1874905 0.6906545,0.3281083 0.844028,0.6093439 0.4253401,0.6796527 0.382257,1.5819504 0.292348,2.097549 -0.08883,0.4101353 -0.1829562,0.57418941 -0.317207,0.71480722 -0.1576883,0.14061782 -0.335251,0.18749042 -0.5610944,0.11718151 C 3.106538,-0.38630838 3.0753696,-1.0308067 3.0313548,-1.1831426 3.1787789,-1.5932779 3.3322504,-2.0854403 3.2240194,-2.7065023 3.14949,-3.0580468 3.0536316,-3.2338191 2.8426941,-3.2338191 c -0.1992188,0 -0.3142978,0.1757723 -0.3803935,0.5273168 -0.1027065,0.621062 0.04851,1.1132244 0.1823355,1.5233597 -0.026298,0.1523359 -0.065442,0.79683422 -0.5864113,0.93745203 -0.2194692,0.0703089 -0.3934689,0.0234363 -0.5404681,-0.11718151 C 1.3707574,-0.50348989 1.2773833,-0.667544 1.2021512,-1.0776793 1.1045602,-1.5932779 1.0538932,-2.4955756 1.4723031,-3.1752283 1.6470547,-3.4564639 1.8281804,-3.5970817 2.3157752,-3.7845722 Z m 0,0"
         style="fill:#000000;fill-opacity:1;fill-rule:nonzero;stroke:none"
         aria-label="ω"
         transform="matrix(1.3333333,0,-0.28267389,1.3334015,180.28,680.86667)" />
      <g
         id="g210"
         aria-label="–&#10;j1 –"
         transform="matrix(1.3333333,0,0,1.3333333,171.4,679.96)">
        <path
           id="path211"
           d="m -0.00117188,-2.0032031 v 0.3984375 H 3.9949219 v -0.3984375 z m 0,0"
           style="fill:#000000;fill-opacity:1;fill-rule:nonzero;stroke:none" />
        <path
           id="path212"
           d="M 4.4695312,0.68625 C 4.3171875,1.3073438 4.1179687,2.139375 3.7078125,2.139375 c -0.070312,0 -0.1523438,-0.011719 -0.1523438,-0.09375 0,-0.09375 0.1054688,-0.09375 0.1054688,-0.2578125 0,-0.1757812 -0.1640625,-0.2929687 -0.328125,-0.2929687 -0.2929688,0 -0.328125,0.28125 -0.328125,0.3164062 0,0.3867188 0.3632812,0.5039063 0.6328125,0.5039063 0.703125,0 1.171875,-0.5976563 1.5,-1.87500005 l 0.8320312,-3.29296875 -0.023437,-0.011719 c -0.3164062,0.058594 -1.03125,0.1875 -1.359375,0.1992187 v 0.1289063 L 4.85625,-2.548125 c 0.2695312,0.023437 0.3164062,0.082031 0.3164062,0.2226563 0.023437,0.09375 -0.023437,0.2695312 -0.1289062,0.6796875 z M 6.215625,-4.1301562 c 0,-0.1757813 -0.140625,-0.4453125 -0.4101563,-0.4453125 -0.1875,0 -0.375,0.1523437 -0.375,0.4335937 0,0.28125 0.1875,0.421875 0.3867188,0.421875 0.2695312,0 0.3984375,-0.2460937 0.3984375,-0.4101562 z m 0,0"
           style="fill:#000000;fill-opacity:1;fill-rule:nonzero;stroke:none" />
        <path
           id="path213"
           d="M 22.062305,0.6628125 H 24.26543 V 0.545625 c -0.597657,0 -0.761719,-0.09375 -0.761719,-0.48046875 V -4.7278125 l -0.05859,-0.023437 -1.441406,0.7265625 V -3.9075 c 0.445312,-0.1757812 0.445312,-0.1757812 0.539062,-0.1757812 0.269532,0 0.269532,0.2109375 0.269532,0.375 v 3.6210937 c 0,0.59765625 -0.292969,0.609375 -0.75,0.6328125 z m 5.050781,-2.0039062 v 0.39843745 H 31.10918 V -1.3410937 Z m 0,0"
           style="fill:#000000;fill-opacity:1;fill-rule:nonzero;stroke:none" />
      </g>
      <path
         id="path214"
         d="m 1.6633571,-5.9172756 c -0.173297,0.011718 -0.4378596,0.035154 -0.6761735,0.2929537 -0.29868915,0.304672 -0.248676,0.7616799 0.1820575,0.9140158 l 0.3412494,0.1171815 C 1.2476604,-4.2298619 0.96884576,-3.8314448 0.85268799,-3.5502091 0.4864486,-2.6244752 0.48569682,-2.296367 0.4710689,-1.757332 c -0.018142,0.2460811 0.0553087,0.703089 0.1692601,1.01947909 0.19063815,0.45700789 0.7800897,0.74996167 1.0478394,0.79683427 0.3547496,0.07030891 0.6796875,0 1.0028439,-0.0234363 C 3.0493249,0.01210876 3.3209646,0.18788102 3.3294473,0.5042711 3.3258843,0.5980163 3.301695,0.92612453 3.005866,1.0784605 2.7728966,1.195642 2.6401005,1.0667423 2.2501946,0.99643344 1.8251325,0.92612453 1.7015218,1.1722057 1.6943958,1.3596961 1.70077,1.5003139 1.873691,1.6526499 1.989097,1.6995225 2.1822685,1.7815496 2.5128778,1.7932677 2.8303627,1.6878043 3.3346449,1.5237502 3.7001325,0.92612453 3.6572453,0.28162623 3.6271067,-0.08163645 3.5170452,-0.26912687 3.2848276,-0.48005358 3.1545157,-0.59723509 2.7983605,-0.78472551 2.1612822,-0.74957106 l -0.360797,0.0117181 C 1.5920321,-0.72613476 1.2933919,-0.80816181 1.0430813,-1.1597063 0.83111406,-1.440942 0.85352183,-1.7221776 0.84039747,-1.8393591 0.80285485,-2.6244752 1.0923585,-3.304128 1.252907,-3.5970817 c 0.1832831,-0.3515446 0.4780824,-0.7851162 0.7405366,-0.9843247 0.3416252,-0.046873 0.4772816,-0.070309 0.7521574,-0.2109267 0.3846103,-0.1757723 0.4812205,-0.3281083 0.5341428,-0.4101353 0.2031577,-0.2577993 0.086346,-0.4218535 0.0061,-0.4687261 -0.1462964,-0.082027 -0.3263435,-0.046873 -0.5266409,0.058591 -0.5707047,0.2929538 -0.7017684,0.5038805 -1.0473325,0.8085524 -0.162281,-0.046873 -0.3504838,-0.1054634 -0.4260919,-0.3515445 -0.1313416,-0.3984172 0.288425,-0.5741894 0.3956753,-0.621062 z m 0,0"
         style="fill:#000000;fill-opacity:1;fill-rule:nonzero;stroke:none"
         aria-label="ζ"
         transform="matrix(1.3333333,0,-0.28267389,1.3334015,216.84,680.86667)" />
      <path
         id="path215"
         d="M 2.9545313,-0.85453125 2.8725,-0.87796875 C 2.638125,-0.49125 2.5209375,-0.4678125 2.2865625,-0.4678125 H 0.79828125 L 1.84125,-1.569375 c 0.28125,-0.2929687 0.796875,-0.8554687 0.796875,-1.5117187 0,-0.703125 -0.5625,-1.125 -1.125,-1.125 -0.55078125,0 -1.13671875,0.3046875 -1.32421875,1.2421875 l 0.140625,0.023437 C 0.4584375,-3.2685942 0.6459375,-3.749063 1.2201563,-3.749063 c 0.7265625,0 0.8789062,0.5742188 0.8789062,0.890625 0,0.46875 -0.2578125,1.03125 -0.8085937,1.6054688 L 0.18890625,-0.069375 V 9.375e-4 H 2.6146875 Z m 0,0"
         style="fill:#000000;fill-opacity:1;fill-rule:nonzero;stroke:none"
         aria-label="2"
         transform="matrix(1.3333333,0,0,1.3333333,223.92,677.28)" />
      <path
         id="path216"
         d="M 0,0 1.111,-5.778 4.667,3.778 H 24.889"
         style="fill:none;stroke:#000000;stroke-width:0.5;stroke-linecap:butt;stroke-linejoin:miter;stroke-miterlimit:4;stroke-dasharray:none;stroke-opacity:1"
         transform="matrix(1.3333333,0,0,-1.3333333,193.94667,673.42667)" />
      <path
         id="path217"
         d="m 2.8591016,-0.72542969 c -0.2226563,0.29296875 -0.3867188,0.4921875 -0.5039063,0.4921875 -0.011719,0 -0.1054687,-0.0117188 -0.1054687,-0.10546875 0,-0.1875 0.5039062,-1.72265626 0.5039062,-1.99218746 0,-0.2578125 -0.1523437,-0.4101563 -0.4335937,-0.4101563 -0.515625,0 -1.0898438,0.8671875 -1.38281254,1.3242188 l -0.0117188,-0.011719 0.39843744,-1.3007812 -0.011719,-0.011719 c -0.33984374,0.070312 -0.67968749,0.1289063 -1.01953124,0.1875 v 0.1054688 c 0.33984375,0 0.3984375,0.070312 0.3984375,0.1640625 0,0.1289062 -0.41015625,1.58203121 -0.609375,2.28515621 h 0.46875 c 0.2578125,-0.84375 0.33984375,-1.11328121 0.62109374,-1.54687501 0.2226562,-0.3398437 0.6210937,-0.8789062 0.9140625,-0.8789062 0.1289062,0 0.1640625,0.082031 0.1640625,0.1992187 0,0.2460938 -0.46875,1.76953126 -0.46875,1.91015626 0,0.1875 0.011719,0.375 0.3046875,0.375 0.3398437,0 0.5507812,-0.29296875 0.8671875,-0.703125 z m 0,0"
         style="fill:#000000;fill-opacity:1;fill-rule:nonzero;stroke:none"
         aria-label="n"
         transform="matrix(1.3333333,0,0,1.3333333,188.29333,683.21333)" />
      <path
         id="path218"
         d="m 2.321367,-3.9149952 c -0.2670469,0.011718 -0.7340154,-0.035154 -1.1498921,0.2695175 -0.49472077,0.3749808 -0.76289538,0.8788613 -0.81802406,1.5585141 -0.0565343,0.5624712 -0.005442,0.9140157 0.17774276,1.33586918 0.13063878,0.33982638 0.4320902,0.65621646 0.7030271,0.77339797 0.2215775,0.10546336 0.616452,0.19920856 0.9911251,-0.0234363 0.2841102,-0.15233597 0.3998921,-0.26951748 0.6133629,-0.64449831 0.2201229,0.37498083 0.338716,0.49216234 0.6171058,0.64449831 0.375327,0.22264486 0.7773275,0.12889966 1.0010624,0.0234363 0.2681256,-0.11718151 0.5526117,-0.43357159 0.703223,-0.77339797 C 5.3284771,-1.1729479 5.3945728,-1.5244924 5.3339196,-2.0869636 5.2718608,-2.7666164 5.0009729,-3.2704969 4.5113187,-3.6454777 4.0834453,-3.9501496 3.6363513,-3.903277 3.3643357,-3.9149952 l -0.00783,0.1288997 c 0.4967803,0.1874904 0.6906545,0.3281082 0.844028,0.6093438 0.42534,0.6796528 0.382257,1.5819504 0.292348,2.0975491 -0.08883,0.41013524 -0.1829563,0.57418935 -0.317207,0.71480717 -0.1576883,0.14061781 -0.335251,0.18749041 -0.5610944,0.1171815 C 3.104301,-0.38783174 3.0731326,-1.03233 3.0291178,-1.184666 3.1765419,-1.5948013 3.3300133,-2.0869636 3.2217823,-2.7080256 3.147253,-3.0595702 3.0513946,-3.2353424 2.8404571,-3.2353424 c -0.1992188,0 -0.3142979,0.1757722 -0.3803935,0.5273168 -0.1027065,0.621062 0.04851,1.1132243 0.1823355,1.5233596 -0.026298,0.152336 -0.065442,0.79683426 -0.5864114,0.93745207 -0.2194691,0.0703089 -0.3934688,0.0234363 -0.5404681,-0.1171815 C 1.3685204,-0.50501325 1.2751463,-0.66906736 1.1999141,-1.0792026 1.1023232,-1.5948013 1.0516562,-2.4970989 1.4700661,-3.1767517 1.6448176,-3.4579873 1.8259434,-3.5986051 2.3135382,-3.7860955 Z m 0,0"
         style="fill:#000000;fill-opacity:1;fill-rule:nonzero;stroke:none"
         aria-label="ω"
         transform="matrix(1.3333333,0,-0.28267389,1.3334015,180.33333,574.78667)" />
      <g
         id="g218"
         aria-label="j1 –"
         transform="matrix(1.3333333,0,0,1.3333333,177.02667,574.77333)">
        <path
           id="path219"
           d="M 0.46925781,0.02351563 C 0.31691406,0.64460938 0.11769531,1.4766406 -0.29246094,1.4766406 c -0.0703125,0 -0.15234375,-0.011719 -0.15234375,-0.09375 0,-0.09375 0.10546875,-0.09375 0.10546875,-0.2578125 0,-0.17578122 -0.1640625,-0.29296872 -0.328125,-0.29296872 -0.29296875,0 -0.328125,0.28125002 -0.328125,0.31640622 0,0.3867188 0.36328125,0.5039063 0.6328125,0.5039063 0.703125,0 1.171875,-0.5976563 1.50000004,-1.87500002 l 0.8320312,-3.29296878 -0.023437,-0.011719 c -0.3164062,0.058594 -1.03124999,0.1875 -1.35937499,0.1992187 v 0.1289063 l 0.26953125,-0.011719 c 0.26953124,0.023437 0.31640624,0.082031 0.31640624,0.2226563 0.023437,0.09375 -0.023437,0.2695312 -0.1289062,0.6796875 z M 2.2153516,-4.7928906 c 0,-0.1757813 -0.140625,-0.4453125 -0.4101563,-0.4453125 -0.1875,0 -0.375,0.1523437 -0.375,0.4335937 0,0.28125 0.1875,0.421875 0.3867188,0.421875 0.2695312,0 0.3984375,-0.2460937 0.3984375,-0.4101562 z m 0,0"
           style="fill:#000000;fill-opacity:1;fill-rule:nonzero;stroke:none" />
        <path
           id="path220"
           d="M 17.836445,7.8125e-5 H 20.03957 V -0.11710937 c -0.597656,0 -0.761718,-0.09375 -0.761718,-0.48046875 V -5.3905469 l -0.05859,-0.023437 -1.441406,0.7265625 v 0.1171875 c 0.445312,-0.1757812 0.445312,-0.1757812 0.539062,-0.1757812 0.269531,0 0.269531,0.2109375 0.269531,0.375 v 3.62109373 c 0,0.59765625 -0.292968,0.609375 -0.75,0.6328125 z M 22.887227,-2.0038281 v 0.3984375 h 3.996093 v -0.3984375 z m 0,0"
           style="fill:#000000;fill-opacity:1;fill-rule:nonzero;stroke:none" />
      </g>
      <path
         id="path221"
         d="m 1.6630341,-5.918799 c -0.1732969,0.011718 -0.4378596,0.035154 -0.67617346,0.2929538 -0.29868915,0.3046719 -0.248676,0.7616798 0.18205756,0.9140158 l 0.3412494,0.1171815 c -0.2628301,0.3632626 -0.5416448,0.7616798 -0.65780257,1.0429154 -0.36623939,0.9257339 -0.36699117,1.2538422 -0.38161909,1.7928771 -0.018142,0.2460812 0.0553087,0.7030891 0.1692601,1.01947913 0.19063815,0.45700789 0.78008966,0.74996167 1.04783946,0.79683427 0.3547496,0.07030891 0.6796875,0 1.0028438,-0.0234363 C 3.049002,0.0105854 3.3206416,0.18635766 3.3291243,0.50274774 3.3255613,0.59649295 3.301372,0.92460117 3.0055431,1.0769371 2.7725737,1.1941186 2.6397775,1.065219 2.2498716,0.99491008 1.8248095,0.92460117 1.7011988,1.1706823 1.6940728,1.3581728 1.700447,1.4987906 1.8733681,1.6511265 1.9887741,1.6979991 2.1819455,1.7800262 2.5125548,1.7917443 2.8300398,1.686281 3.3343219,1.5222269 3.6998095,0.92460117 3.6569224,0.28010287 3.6267837,-0.08315981 3.5167222,-0.27065023 3.2845046,-0.48157694 3.1541928,-0.59875845 2.7980375,-0.78624887 2.1609592,-0.75109442 l -0.3607969,0.0117182 C 1.5917091,-0.72765811 1.2930689,-0.80968517 1.0427583,-1.1612297 0.8307911,-1.4424653 0.85319887,-1.7237009 0.84007451,-1.8408825 0.80253189,-2.6259986 1.0920356,-3.3056513 1.252584,-3.5986051 c 0.1832832,-0.3515445 0.4780824,-0.7851161 0.7405366,-0.9843247 0.3416253,-0.046873 0.4772816,-0.070309 0.7521574,-0.2109267 0.3846103,-0.1757723 0.4812205,-0.3281082 0.5341429,-0.4101353 0.2031576,-0.2577993 0.086346,-0.4218534 0.0061,-0.468726 C 3.1392245,-5.7547448 2.9591774,-5.7195908 2.75888,-5.6141268 2.1881753,-5.321173 2.0571116,-5.1102463 1.7115475,-4.8055744 1.5492665,-4.8524474 1.3610637,-4.9110377 1.2854557,-5.1571189 1.1541141,-5.555536 1.5738806,-5.7313083 1.6811309,-5.7781809 Z m 0,0"
         style="fill:#000000;fill-opacity:1;fill-rule:nonzero;stroke:none"
         aria-label="ζ"
         transform="matrix(1.3333333,0,-0.28267389,1.3334015,216.84,574.78667)" />
      <path
         id="path222"
         d="m 2.9530078,-0.85433594 -0.082031,-0.0234375 c -0.234375,0.38671875 -0.3515625,0.41015625 -0.5859375,0.41015625 H 0.79675781 L 1.8397266,-1.5691797 c 0.28125,-0.2929687 0.796875,-0.8554687 0.796875,-1.5117187 0,-0.703125 -0.5625,-1.125 -1.125,-1.125 -0.55078129,0 -1.13671879,0.3046875 -1.32421879,1.2421875 l 0.140625,0.023437 c 0.12890625,-0.328125 0.31640625,-0.8085938 0.89062499,-0.8085938 0.7265625,0 0.8789063,0.5742188 0.8789063,0.890625 0,0.46875 -0.2578125,1.03125 -0.8085938,1.6054688 l -1.10156249,1.18359371 v 0.0703125 H 2.6131641 Z m 0,0"
         style="fill:#000000;fill-opacity:1;fill-rule:nonzero;stroke:none"
         aria-label="2"
         transform="matrix(1.3333333,0,0,1.3333333,223.84,571.21333)" />
      <path
         id="path223"
         d="M 0,0 1.111,-5.778 4.667,3.778 H 24.889"
         style="fill:none;stroke:#000000;stroke-width:0.5;stroke-linecap:butt;stroke-linejoin:miter;stroke-miterlimit:4;stroke-dasharray:none;stroke-opacity:1"
         transform="matrix(1.3333333,0,0,-1.3333333,193.94667,567.36)" />
      <path
         id="path224"
         d="m 2.8591016,-0.72695312 c -0.2226563,0.29296875 -0.3867188,0.4921875 -0.5039063,0.4921875 -0.011719,0 -0.1054687,-0.0117188 -0.1054687,-0.10546875 0,-0.1875 0.5039062,-1.72265623 0.5039062,-1.99218753 0,-0.2578125 -0.1523437,-0.4101562 -0.4335937,-0.4101562 -0.515625,0 -1.0898438,0.8671875 -1.38281254,1.3242187 l -0.0117188,-0.011719 0.39843744,-1.3007813 -0.011719,-0.011719 c -0.33984374,0.070312 -0.67968749,0.1289062 -1.01953124,0.1875 V -2.44961 c 0.33984375,0 0.3984375,0.070312 0.3984375,0.1640625 0,0.1289063 -0.41015625,1.58203128 -0.609375,2.285156275 h 0.46875 C 0.80832031,-0.84414062 0.89035156,-1.1136719 1.1716016,-1.5472656 c 0.2226562,-0.3398438 0.6210937,-0.8789063 0.9140625,-0.8789063 0.1289062,0 0.1640625,0.082031 0.1640625,0.1992188 0,0.2460937 -0.46875,1.76953123 -0.46875,1.91015623 0,0.1875 0.011719,0.375 0.3046875,0.375 0.3398437,0 0.5507812,-0.29296875 0.8671875,-0.703125 z m 0,0"
         style="fill:#000000;fill-opacity:1;fill-rule:nonzero;stroke:none"
         aria-label="n"
         transform="matrix(1.3333333,0,0,1.3333333,188.29333,577.13333)" />
      <path
         id="path225"
         d="M 4.6063953,-3.9139405 H 2.5790515 c -0.421875,0 -0.8448287,0.1054633 -1.1431419,0.2460811 -0.1725942,0.070309 -0.65948613,0.3163901 -0.88715997,0.6796528 -0.18398596,0.2929538 -0.39567524,0.621062 -0.2817728,1.324151 0.0610291,0.3984172 0.35141559,1.16009699 1.06194457,1.58195042 C 1.92156,0.2811575 2.4567326,0.15225784 2.7163266,0.10538524 3.6005774,-0.03523257 3.9973313,-0.76175793 4.0783328,-1.0429936 4.2115539,-1.464847 4.1838995,-1.8163915 4.0539636,-2.0976271 3.88995,-2.4843261 3.3271721,-3.09367 2.9014071,-3.2225696 l 0.00675,-0.023436 H 4.607376 Z m -1.3681025,1.6171048 c 0.1498104,0.3749808 0.180276,0.9608884 0.026102,1.39445995 -0.067501,0.23436302 -0.2483001,0.5976257 -0.5892226,0.70308906 -0.5209695,0.14061781 -0.7574529,-0.0351545 -0.9538115,-0.18749041 -0.309983,-0.24608117 -0.6252616,-0.7382435 -0.6663672,-1.4296144 -0.025546,-0.1757723 -0.00914,-0.7616798 0.3616466,-1.1132244 0.3825019,-0.3515445 0.8352674,-0.31639 1.0696424,-0.31639 0.4051386,0.3632626 0.5954499,0.5976257 0.7520103,0.9491702 z m 0,0"
         style="fill:#000000;fill-opacity:1;fill-rule:nonzero;stroke:none"
         aria-label="σ"
         transform="matrix(1.3333333,0,-0.28267389,1.3334015,293.85333,627.22667)" />
      <path
         id="path226"
         d="M 0,0 4.257,-6.034"
         style="fill:none;stroke:#000000;stroke-width:1;stroke-linecap:butt;stroke-linejoin:miter;stroke-miterlimit:4;stroke-dasharray:none;stroke-opacity:1"
         transform="matrix(1.3333333,0,0,-1.3333333,80.221333,568)" />
      <path
         id="path227"
         d="m 0,0 2.133,3.024 2.124,3.01"
         style="fill:none;stroke:#000000;stroke-width:1;stroke-linecap:butt;stroke-linejoin:miter;stroke-miterlimit:4;stroke-dasharray:none;stroke-opacity:1"
         transform="matrix(1.3333333,0,0,-1.3333333,80.221333,576.05333)" />
      <path
         id="path228"
         d="M 0,0 4.257,-6.033"
         style="fill:none;stroke:#000000;stroke-width:1;stroke-linecap:butt;stroke-linejoin:miter;stroke-miterlimit:4;stroke-dasharray:none;stroke-opacity:1"
         transform="matrix(1.3333333,0,0,-1.3333333,80.294667,674.30667)" />
      <path
         id="path229"
         d="m 0,0 2.175,3.083 2.082,2.95"
         style="fill:none;stroke:#000000;stroke-width:1;stroke-linecap:butt;stroke-linejoin:miter;stroke-miterlimit:4;stroke-dasharray:none;stroke-opacity:1"
         transform="matrix(1.3333333,0,0,-1.3333333,80.294667,682.34667)" />
      <path
         id="path230"
         d="M 0,0 1.283,4.894 2.571,0 H 0"
         style="fill:#000000;fill-opacity:1;fill-rule:nonzero;stroke:#000000;stroke-width:0.5;stroke-linecap:butt;stroke-linejoin:miter;stroke-miterlimit:10;stroke-dasharray:none;stroke-opacity:1"
         transform="matrix(1.3333333,0,0,-1.3333333,155.78667,546.33333)" />
      <g
         id="g230"
         aria-label="j&#10;s-plane"
         transform="matrix(1.3333333,0,0,1.3333333,153.05333,534.46667)">
        <path
           id="path231"
           d="M 0.46976562,0.02207031 C 0.31742187,0.64316406 0.11820312,1.4751953 -0.29195313,1.4751953 c -0.0703125,0 -0.15234375,-0.011719 -0.15234375,-0.09375 0,-0.09375 0.10546875,-0.09375 0.10546875,-0.2578125 0,-0.17578124 -0.1640625,-0.29296874 -0.328125,-0.29296874 -0.29296875,0 -0.328125,0.28125004 -0.328125,0.31640624 0,0.3867188 0.36328125,0.5039063 0.6328125,0.5039063 0.703125,0 1.171875,-0.5976563 1.50000003,-1.87500004 l 0.8320312,-3.29296876 -0.023437,-0.011719 c -0.3164062,0.058594 -1.03124998,0.1875 -1.35937498,0.1992187 v 0.1289063 l 0.26953125,-0.011719 c 0.26953123,0.023437 0.31640623,0.082031 0.31640623,0.2226563 0.023437,0.09375 -0.023437,0.2695312 -0.1289062,0.6796875 z M 2.2158594,-4.7943359 c 0,-0.1757813 -0.140625,-0.4453125 -0.4101563,-0.4453125 -0.1875,0 -0.375,0.1523437 -0.375,0.4335937 0,0.28125 0.1875,0.421875 0.3867188,0.421875 0.2695312,0 0.3984375,-0.2460937 0.3984375,-0.4101562 z M 33.364297,46.114844 33.200234,47.392188 h 0.128907 c 0.04687,-0.09375 0.08203,-0.164063 0.1875,-0.164063 0.234375,0 0.550781,0.152344 0.796875,0.152344 0.445312,0 1.195312,-0.210938 1.195312,-1.078125 0,-0.679688 -0.984375,-1.394531 -0.984375,-1.898438 0,-0.386718 0.257813,-0.457031 0.433594,-0.457031 0.527344,0 0.714844,0.457031 0.75,0.914063 h 0.128906 l 0.164063,-1.113282 h -0.117188 c -0.03516,0.07031 -0.08203,0.140625 -0.222656,0.140625 -0.234375,0 -0.398438,-0.128906 -0.761719,-0.128906 -0.84375,0 -0.960937,0.632813 -0.960937,0.890625 0,0.609375 0.960937,1.382813 0.960937,1.910156 0,0.257813 -0.128906,0.644532 -0.574219,0.644532 -0.65625,0 -0.785156,-0.738282 -0.832031,-1.089844 z m 0,0"
           style="fill:#000000;fill-opacity:1;fill-rule:nonzero;stroke:none" />
        <path
           id="path232"
           d="m 36.499062,45.224219 v 0.503906 h 1.96875 v -0.503906 z m 2.947266,3.105469 c 0,0.351562 -0.03516,0.515625 -0.5625,0.5625 v 0.128906 h 1.945313 v -0.140625 c -0.574219,0 -0.703125,-0.09375 -0.703125,-0.597656 v -1.265625 c 0.257812,0.257812 0.480468,0.351562 0.808593,0.351562 1.113282,0 1.675782,-1.125 1.675782,-2.039062 0,-1.066407 -0.609375,-1.722657 -1.324219,-1.722657 -0.609375,0 -0.984375,0.386719 -1.148438,0.609375 l -0.01172,-0.01172 V 43.61875 l -0.05859,-0.01172 c -0.375,0.152344 -0.761719,0.28125 -1.148438,0.410157 v 0.128906 c 0.07031,-0.01172 0.152344,-0.01172 0.222657,-0.01172 0.28125,0 0.304687,0.140625 0.304687,0.457031 z m 0.679688,-3.714844 c 0.04687,-0.304688 0.492187,-0.527344 0.785156,-0.527344 0.972656,0 1.007812,1.289063 1.007812,1.476563 0,1.394531 -0.714843,1.546875 -0.984375,1.546875 -0.433593,0 -0.808593,-0.339844 -0.808593,-0.527344 z m 2.885742,2.671875 h 1.898437 V 47.169531 C 44.441445,47.146094 44.30082,47.075781 44.30082,46.61875 V 41.8375 l -0.02344,-0.01172 c -0.433594,0.128907 -0.855469,0.246094 -1.277344,0.351563 v 0.117187 c 0.09375,0 0.164063,-0.01172 0.269531,-0.01172 0.316407,0 0.363282,0.128906 0.363282,0.492187 v 3.820313 c 0,0.433593 -0.140625,0.539062 -0.621094,0.574218 z m 4.356445,-0.984375 c 0,0.234375 -0.02344,0.339844 -0.269531,0.457031 C 47.028359,46.794531 46.770547,46.9 46.594766,46.9 c -0.292969,0 -0.527344,-0.246094 -0.527344,-0.621094 v -0.01172 c 0,-0.28125 0.09375,-0.726563 1.300781,-1.125 z m 1.242188,0.457031 c -0.09375,0.07031 -0.199219,0.152344 -0.363282,0.152344 -0.234375,0 -0.234375,-0.234375 -0.234375,-0.46875 v -1.558594 c 0,-0.480469 0,-1.277344 -1.183593,-1.277344 -0.9375,0 -1.3125,0.5625 -1.3125,0.890625 0,0.128907 0.09375,0.351563 0.351562,0.351563 0.199219,0 0.351563,-0.175781 0.351563,-0.351563 0,-0.07031 -0.03516,-0.1875 -0.03516,-0.304687 0,-0.246094 0.304688,-0.398438 0.5625,-0.398438 0.246094,0 0.621094,0.09375 0.621094,0.667969 v 0.492188 c -1.300781,0.503906 -2.003906,0.773437 -2.003906,1.582031 0,0.539062 0.421875,0.832031 0.855469,0.832031 0.433593,0 0.855468,-0.316406 1.160156,-0.585937 0.03516,0.574218 0.375,0.585937 0.515625,0.585937 0.128906,0 0.375,-0.01172 0.714844,-0.398437 z m 0.65625,-0.1875 c 0,0.46875 -0.128907,0.574219 -0.503907,0.597656 v 0.117188 h 1.699219 v -0.117188 c -0.410156,-0.02344 -0.527344,-0.152343 -0.527344,-0.421875 v -2.25 c 0.304688,-0.292968 0.550782,-0.457031 0.796875,-0.457031 0.46875,0 0.609375,0.292969 0.609375,0.785156 v 1.664063 c 0,0.609375 -0.210937,0.65625 -0.503906,0.679687 v 0.117188 h 1.664063 v -0.117188 c -0.386719,-0.03516 -0.480469,-0.152343 -0.480469,-0.527343 v -1.839844 c 0,-0.984375 -0.574219,-1.195313 -0.9375,-1.195313 -0.480469,0 -0.785156,0.28125 -1.171875,0.644532 V 43.61875 l -0.05859,-0.01172 c -0.363281,0.128907 -0.738281,0.257813 -1.101562,0.363282 v 0.128906 c 0.03516,-0.01172 0.117187,-0.03516 0.234375,-0.03516 0.128906,0 0.28125,0.01172 0.28125,0.515625 z m 6.626953,-0.597656 c -0.1875,0.292969 -0.527344,0.84375 -1.242188,0.84375 -0.527344,0 -1.183594,-0.328125 -1.277344,-1.746094 h 2.496094 c -0.09375,-1.054687 -0.65625,-1.464844 -1.417969,-1.464844 -0.632812,0 -1.628906,0.480469 -1.628906,1.96875 0,1.136719 0.609375,1.792969 1.5,1.792969 1.148438,0 1.617188,-1.089844 1.699219,-1.335937 z M 53.3975,44.814063 c 0.128906,-0.703125 0.445312,-0.925782 0.878906,-0.925782 0.632813,0 0.714844,0.539063 0.773438,0.925782 z m 0,0"
           style="fill:#000000;fill-opacity:1;fill-rule:nonzero;stroke:none" />
      </g>
      <path
         id="path233"
         d="m 2.3219282,-3.9147718 c -0.267047,0.011718 -0.7340155,-0.035155 -1.1498918,0.2695209 -0.49472034,0.3749856 -0.76289435,0.8788726 -0.81802223,1.558534 -0.0565336,0.5624785 -0.005441,0.9140275 0.17774433,1.33588631 0.13063918,0.33983072 0.43209096,0.65622484 0.703028,0.77340785 C 1.4563641,0.12804197 1.8512387,0.22178837 2.2259116,-8.5934206e-4 2.5100216,-0.15319725 2.6258033,-0.27038026 2.8392737,-0.64536589 3.0593971,-0.27038026 3.1779903,-0.15319725 3.4563803,-8.5934206e-4 3.8317075,0.22178837 4.2337079,0.12804197 4.4574427,0.02257726 4.7255682,-0.09460575 5.0100539,-0.41099987 5.1606647,-0.75083059 5.3290415,-1.1726894 5.3951368,-1.5242384 5.3344829,-2.0867169 5.2724233,-2.7663783 5.0015348,-3.2702653 4.5118802,-3.6452509 4.0840064,-3.9499267 3.6369125,-3.9030535 3.3648969,-3.9147718 l -0.00783,0.1289013 c 0.4967805,0.1874928 0.6906549,0.3281124 0.8440287,0.6093516 0.4253409,0.6796615 0.3822589,1.5819707 0.2923505,2.0975759 -0.08883,0.41014051 -0.1829556,0.57419672 -0.3172062,0.71481633 C 4.0185531,-0.22350706 3.8409904,-0.17663385 3.615147,-0.24694366 3.1048663,-0.38756327 3.0736972,-1.0320698 3.0296822,-1.1844077 3.1771058,-1.5945482 3.3305767,-2.0867169 3.2223449,-2.7077868 3.1478152,-3.0593358 3.0519565,-3.2351104 2.841019,-3.2351104 c -0.1992187,0 -0.3142976,0.1757746 -0.3803928,0.5273236 -0.1027058,0.6210699 0.048511,1.1132386 0.1823373,1.5233791 -0.026298,0.1523379 -0.065441,0.79684443 -0.5864103,0.93746404 -0.219469,0.0703098 -0.3934688,0.0234366 -0.5404682,-0.11718301 C 1.3690856,-0.50474628 1.2757113,-0.66880249 1.2004786,-1.078943 1.1028871,-1.5945482 1.052219,-2.4968574 1.4706282,-3.1765189 1.6453794,-3.4577581 1.826505,-3.5983777 2.3140995,-3.7858705 Z m 0,0"
         style="fill:#000000;fill-opacity:1;fill-rule:nonzero;stroke:none"
         aria-label="ω"
         transform="matrix(1.3333333,0,-0.28267185,1.3333844,156.36,534.49333)" />
      <g
         id="g233"
         aria-label="+&#10;=&#10; &#10;–&#10;=&#10; –&#10;j"
         transform="matrix(1.3333333,0,0,1.3333333,169.01333,574.77333)">
        <path
           id="path234"
           d="M 2.4362891,-2.2850781 H 0.69019531 v 0.5273437 H 2.4362891 V 7.8125e-5 H 2.9636328 V -1.7577344 H 4.7214453 V -2.2850781 H 2.9636328 V -4.0546094 H 2.4362891 Z m 0,0"
           style="fill:#000000;fill-opacity:1;fill-rule:nonzero;stroke:none" />
        <path
           id="path235"
           d="m -57.490469,41.352617 h -4.042969 v 0.527344 h 4.042969 z m 0,1.605469 h -4.042969 v 0.527344 h 4.042969 z m 2.235352,-0.729492 v 0.398437 h 3.996094 V 42.228594 Z M 51.435312,76.025469 h -4.042968 v 0.527344 h 4.042968 z m 0,1.605469 h -4.042968 v 0.527343 h 4.042968 z m 2.235352,-0.741211 v 0.398437 h 3.996094 v -0.398437 z m 0,0"
           style="fill:#000000;fill-opacity:1;fill-rule:nonzero;stroke:none" />
        <path
           id="path236"
           d="m 58.141367,79.582109 c -0.152344,0.621094 -0.351562,1.453125 -0.761719,1.453125 -0.07031,0 -0.152343,-0.01172 -0.152343,-0.09375 0,-0.09375 0.105468,-0.09375 0.105468,-0.257812 0,-0.175781 -0.164062,-0.292969 -0.328125,-0.292969 -0.292968,0 -0.328125,0.28125 -0.328125,0.316406 0,0.386719 0.363282,0.503907 0.632813,0.503907 0.703125,0 1.171875,-0.597657 1.5,-1.875 l 0.832031,-3.292969 -0.02344,-0.01172 c -0.316407,0.05859 -1.03125,0.1875 -1.359375,0.199219 v 0.128906 l 0.269531,-0.01172 c 0.269531,0.02344 0.316406,0.08203 0.316406,0.222657 0.02344,0.09375 -0.02344,0.269531 -0.128906,0.679687 z m 1.746094,-4.816406 c 0,-0.175781 -0.140625,-0.445312 -0.410156,-0.445312 -0.1875,0 -0.375,0.152343 -0.375,0.433593 0,0.28125 0.1875,0.421875 0.386718,0.421875 0.269532,0 0.398438,-0.246093 0.398438,-0.410156 z m 0,0"
           style="fill:#000000;fill-opacity:1;fill-rule:nonzero;stroke:none" />
      </g>
      <path
         id="path237"
         d="m 2.3220806,-3.9134718 c -0.267047,0.011718 -0.7340155,-0.035154 -1.1498921,0.2695175 -0.49472079,0.3749808 -0.76289539,0.8788613 -0.81802407,1.558514 -0.0565343,0.5624713 -0.005442,0.9140158 0.17774276,1.33586924 C 0.66254597,-0.40974468 0.96399738,-0.0933546 1.2349342,0.02382691 1.4565118,0.12929027 1.8513863,0.22303547 2.2260594,3.9060503e-4 2.5101696,-0.15194536 2.6259515,-0.26912687 2.8394222,-0.6441077 3.0595452,-0.26912687 3.1781383,-0.15194536 3.4565281,3.9060503e-4 3.831855,0.22303547 4.2338555,0.12929027 4.4575905,0.02382691 4.7257161,-0.0933546 5.0102022,-0.40974468 5.1608134,-0.74957106 5.3291907,-1.1714245 5.3952864,-1.522969 5.3346332,-2.0854403 5.2725744,-2.765093 5.0016865,-3.2689735 4.5120322,-3.6439543 4.0841589,-3.9486263 3.6370649,-3.9017537 3.3650493,-3.9134718 l -0.00783,0.1288996 c 0.4967802,0.1874905 0.6906545,0.3281083 0.844028,0.6093439 0.42534,0.6796527 0.382257,1.5819504 0.292348,2.097549 -0.08883,0.4101353 -0.1829563,0.57418941 -0.317207,0.71480722 C 4.0187,-0.22225426 3.8411373,-0.17538166 3.6152939,-0.24569057 3.1050146,-0.38630838 3.0738462,-1.0308067 3.0298314,-1.1831426 3.1772555,-1.5932779 3.3307269,-2.0854403 3.2224959,-2.7065023 3.1479666,-3.0580468 3.0521081,-3.2338191 2.8411706,-3.2338191 c -0.1992187,0 -0.3142978,0.1757723 -0.3803934,0.5273168 -0.1027065,0.621062 0.04851,1.1132244 0.1823355,1.5233597 -0.026298,0.1523359 -0.065442,0.79683422 -0.5864114,0.93745203 -0.2194691,0.0703089 -0.3934688,0.0234363 -0.5404681,-0.11718151 C 1.369234,-0.50348989 1.2758599,-0.667544 1.2006277,-1.0776793 1.1030368,-1.5932779 1.0523698,-2.4955756 1.4707797,-3.1752283 1.6455312,-3.4564639 1.826657,-3.5970817 2.3142518,-3.7845722 Z m 0,0"
         style="fill:#000000;fill-opacity:1;fill-rule:nonzero;stroke:none"
         aria-label="ω"
         transform="matrix(1.3333333,0,-0.28267389,1.3334015,249.2,680.86667)" />
      <path
         id="path238"
         d="m 1.0206641,-0.23324219 c -0.38671879,0 -0.38671879,-0.3515625 -0.38671879,-0.45703125 0,-0.56249996 0.59765629,-1.91015626 1.28906249,-1.91015626 0.2929688,0 0.2929688,0.2695313 0.2929688,0.421875 0,0.7617188 -0.609375,1.94531251 -1.1953125,1.94531251 z m 1.8632812,-0.45703125 c -0.2578125,0.3046875 -0.3867187,0.4453125 -0.515625,0.4453125 -0.058594,0 -0.1054687,-0.046875 -0.1054687,-0.140625 0,-0.09375 0.75,-2.75390626 1.0195312,-3.83203126 l -0.035156,-0.035156 c -0.3164063,0.070312 -0.6328125,0.1171875 -0.9492188,0.1523437 v 0.1054688 c 0.3398438,0 0.3867188,0.035156 0.3867188,0.1757812 0,0.082031 -0.046875,0.2460938 -0.09375,0.421875 l -0.2695313,0.984375 -0.011719,0.011719 c -0.023437,-0.140625 -0.070312,-0.3398438 -0.421875,-0.3398438 -0.7382813,0 -1.79296879,1.1367188 -1.79296879,2.07421876 0,0.328125 0.12890625,0.73828125 0.64453125,0.73828125 0.31640624,0 0.65625004,-0.10546875 1.11328124,-0.796875 l 0.011719,0.0117188 c -0.046875,0.22265625 -0.082031,0.36328125 -0.082031,0.50390625 0,0.140625 0.058594,0.29296875 0.2929688,0.29296875 0.2109375,0 0.609375,-0.29296875 0.8789062,-0.71484375 z m 0,0"
         style="fill:#000000;fill-opacity:1;fill-rule:nonzero;stroke:none"
         aria-label="d"
         transform="matrix(1.3333333,0,0,1.3333333,257.21333,683.21333)" />
      <g
         id="g238"
         aria-label="=&#10; &#10;j"
         transform="matrix(1.3333333,0,0,1.3333333,233.24,573.98667)">
        <path
           id="path239"
           d="M 4.2760547,-3.0925391 H 0.23308594 v 0.5273438 H 4.2760547 Z m 0,1.6054688 H 0.23308594 v 0.52734374 H 4.2760547 Z m 0,0"
           style="fill:#000000;fill-opacity:1;fill-rule:nonzero;stroke:none" />
        <path
           id="path240"
           d="M 6.9801563,0.46410156 C 6.8278125,1.0851953 6.6285938,1.9172266 6.2184375,1.9172266 c -0.070312,0 -0.1523437,-0.011719 -0.1523437,-0.09375 0,-0.09375 0.1054687,-0.09375 0.1054687,-0.2578125 0,-0.1757813 -0.1640625,-0.2929688 -0.328125,-0.2929688 -0.2929687,0 -0.328125,0.28125 -0.328125,0.3164063 0,0.3867187 0.3632813,0.5039062 0.6328125,0.5039062 0.703125,0 1.171875,-0.5976562 1.5,-1.87499999 l 0.8320313,-3.29296871 -0.023437,-0.011719 c -0.3164063,0.058594 -1.03125,0.1875 -1.359375,0.1992188 v 0.1289062 l 0.2695312,-0.011719 c 0.2695313,0.023437 0.3164063,0.082031 0.3164063,0.2226562 0.023437,0.09375 -0.023437,0.2695313 -0.1289063,0.6796875 z M 8.72625,-4.3523047 c 0,-0.1757812 -0.140625,-0.4453125 -0.4101562,-0.4453125 -0.1875,0 -0.375,0.1523438 -0.375,0.4335938 0,0.28125 0.1875,0.421875 0.3867187,0.421875 0.2695313,0 0.3984375,-0.2460938 0.3984375,-0.4101563 z m 0,0"
           style="fill:#000000;fill-opacity:1;fill-rule:nonzero;stroke:none" />
      </g>
      <path
         id="path241"
         d="m 2.3211787,-3.9144093 c -0.2670469,0.011718 -0.7340154,-0.035154 -1.1498921,0.2695175 -0.49472076,0.3749808 -0.76289536,0.8788613 -0.81802404,1.5585141 -0.0565343,0.5624712 -0.005442,0.9140158 0.17774276,1.33586919 C 0.6616441,-0.41068213 0.96309551,-0.09429205 1.2340324,0.02288945 1.4556099,0.12835281 1.8504844,0.22209802 2.2251575,-5.468471e-4 2.5092677,-0.15288281 2.6250496,-0.27006432 2.8385204,-0.64504515 3.0586433,-0.27006432 3.1772365,-0.15288281 3.4556263,-5.4684705e-4 3.8309532,0.22209802 4.2329537,0.12835281 4.4566886,0.02288945 4.7248143,-0.09429205 5.0093004,-0.41068213 5.1599116,-0.75050851 5.3282889,-1.1723619 5.3943845,-1.5239065 5.3337313,-2.0863777 5.2716725,-2.7660305 5.0007846,-3.269911 4.5111304,-3.6448918 4.083257,-3.9495637 3.636163,-3.9026911 3.3641475,-3.9144093 l -0.00783,0.1288997 c 0.4967803,0.1874904 0.6906545,0.3281082 0.844028,0.6093438 0.4253401,0.6796528 0.382257,1.5819504 0.292348,2.0975491 -0.08883,0.41013525 -0.1829562,0.57418936 -0.317207,0.71480717 -0.1576883,0.14061781 -0.335251,0.18749042 -0.5610944,0.11718151 C 3.1041127,-0.38724583 3.0729443,-1.0317441 3.0289295,-1.1840801 3.1763536,-1.5942154 3.3298251,-2.0863777 3.221594,-2.7074397 3.1470647,-3.0589843 3.0512063,-3.2347565 2.8402688,-3.2347565 c -0.1992188,0 -0.3142978,0.1757722 -0.3803935,0.5273168 -0.1027065,0.621062 0.04851,1.1132243 0.1823355,1.5233596 -0.026298,0.152336 -0.065442,0.79683427 -0.5864113,0.93745208 -0.2194692,0.0703089 -0.3934689,0.0234363 -0.5404682,-0.11718151 C 1.3683321,-0.50442734 1.274958,-0.66848145 1.1997258,-1.0786167 1.1021349,-1.5942154 1.0514679,-2.496513 1.4698778,-3.1761658 1.6446294,-3.4574014 1.8257551,-3.5980192 2.3133499,-3.7855096 Z m 0,0"
         style="fill:#000000;fill-opacity:1;fill-rule:nonzero;stroke:none"
         aria-label="ω"
         transform="matrix(1.3333333,0,-0.28267389,1.3334015,245.24,574.58667)" />
      <path
         id="path242"
         d="m 1.0199609,-0.23539062 c -0.38671871,0 -0.38671871,-0.3515625 -0.38671871,-0.45703125 0,-0.56250003 0.59765621,-1.91015623 1.28906251,-1.91015623 0.2929687,0 0.2929687,0.2695312 0.2929687,0.421875 0,0.7617187 -0.609375,1.94531248 -1.1953125,1.94531248 z m 1.8632813,-0.45703125 c -0.2578125,0.3046875 -0.3867188,0.4453125 -0.515625,0.4453125 -0.058594,0 -0.1054688,-0.046875 -0.1054688,-0.140625 0,-0.09375 0.75,-2.75390623 1.0195313,-3.83203123 l -0.035156,-0.035156 c -0.3164062,0.070312 -0.6328125,0.1171875 -0.9492187,0.1523438 v 0.1054687 c 0.3398437,0 0.3867187,0.035156 0.3867187,0.1757813 0,0.082031 -0.046875,0.2460937 -0.09375,0.421875 l -0.2695312,0.984375 -0.011719,0.011719 c -0.023437,-0.140625 -0.070312,-0.3398437 -0.421875,-0.3398437 -0.7382812,0 -1.79296871,1.1367187 -1.79296871,2.07421873 0,0.328125 0.12890625,0.73828125 0.64453125,0.73828125 0.31640626,0 0.65624996,-0.10546875 1.11328126,-0.796875 l 0.011719,0.0117188 c -0.046875,0.22265625 -0.082031,0.36328125 -0.082031,0.50390625 0,0.140625 0.058594,0.29296875 0.2929687,0.29296875 0.2109375,0 0.609375,-0.29296875 0.8789063,-0.71484375 z m 0,0"
         style="fill:#000000;fill-opacity:1;fill-rule:nonzero;stroke:none"
         aria-label="d"
         transform="matrix(1.3333333,0,0,1.3333333,253.25333,576.94667)" />
      <path
         id="path243"
         d="M 0,0 4.893,-1.283 0,-2.571 V 0"
         style="fill:#000000;fill-opacity:1;fill-rule:nonzero;stroke:#000000;stroke-width:0.5;stroke-linecap:butt;stroke-linejoin:miter;stroke-miterlimit:10;stroke-dasharray:none;stroke-opacity:1"
         transform="matrix(1.3333333,0,0,-1.3333333,283.42667,622.53333)" />
      <path
         id="path244"
         d="M 0,0 H -59.278"
         style="fill:none;stroke:#000000;stroke-width:0.5;stroke-linecap:butt;stroke-linejoin:miter;stroke-miterlimit:4;stroke-dasharray:4, 2;stroke-dashoffset:0;stroke-opacity:1"
         transform="matrix(1.3333333,0,0,-1.3333333,162.24,678.17333)" />
    </g>
  </g>
</svg>
