<?xml version="1.0" encoding="UTF-8" standalone="no"?>
<!-- Created with Inkscape (http://www.inkscape.org/) -->

<svg
   version="1.1"
   id="svg1"
   viewBox="0 0 317.55188 96.970185"
   xmlns="http://www.w3.org/2000/svg"
   xmlns:svg="http://www.w3.org/2000/svg">
  <defs
     id="defs1" />
  <g
     id="g409"
     transform="translate(-208.4469,-478.15042)">
    <rect
       style="fill:#ffffff;stroke-width:1.01571"
       id="rect406"
       width="317.55191"
       height="96.9702"
       x="208.4469"
       y="478.15042" />
    <g
       id="g403"
       transform="translate(4.4901075,13.698282)">
      <path
         id="path154"
         d="M 0,0 3.726,-5.281"
         style="fill:none;stroke:#006779;stroke-width:0.75;stroke-linecap:butt;stroke-linejoin:miter;stroke-miterlimit:4;stroke-dasharray:none;stroke-opacity:1"
         transform="matrix(1.3333333,0,0,-1.3333333,264.54933,532.42667)" />
      <path
         id="path155"
         d="M 0,0 3.726,5.281"
         style="fill:none;stroke:#006779;stroke-width:0.75;stroke-linecap:butt;stroke-linejoin:miter;stroke-miterlimit:4;stroke-dasharray:none;stroke-opacity:1"
         transform="matrix(1.3333333,0,0,-1.3333333,264.54933,539.46667)" />
      <path
         id="path156"
         d="M 0,0 3.726,-5.281"
         style="fill:none;stroke:#006779;stroke-width:0.75;stroke-linecap:butt;stroke-linejoin:miter;stroke-miterlimit:4;stroke-dasharray:none;stroke-opacity:1"
         transform="matrix(1.3333333,0,0,-1.3333333,264.54933,498.18667)" />
      <path
         id="path157"
         d="M 0,0 3.726,5.281"
         style="fill:none;stroke:#006779;stroke-width:0.75;stroke-linecap:butt;stroke-linejoin:miter;stroke-miterlimit:4;stroke-dasharray:none;stroke-opacity:1"
         transform="matrix(1.3333333,0,0,-1.3333333,264.54933,505.24)" />
      <path
         id="path173"
         d="m 0,0 c -0.539,-0.056 -0.658,-0.161 -0.658,-0.896 v -1.828 c 0,-0.56 0,-1.876 -1.813,-1.876 -1.737,0 -1.737,1.365 -1.737,1.786 v 2.184 c 0,0.518 -0.098,0.595 -0.63,0.63 v 0.133 h 1.981 V 0 C -3.41,-0.042 -3.494,-0.133 -3.494,-0.63 v -2.241 c 0,-0.448 0,-1.421 1.218,-1.421 0.547,0 0.945,0.224 1.149,0.553 0.09,0.154 0.161,0.385 0.161,0.952 v 1.891 c 0,0.749 -0.168,0.868 -0.659,0.896 V 0.133 H 0 V 0"
         style="fill:#006779;fill-opacity:1;fill-rule:nonzero;stroke:none"
         transform="matrix(1.3333333,0,0,-1.3333333,446.62933,544.76)" />
      <path
         id="path174"
         d="m 0,0 c 0,0.441 -0.134,0.448 -0.245,0.448 -0.099,0 -0.176,-0.014 -0.203,-0.028 V 0.539 C -0.134,0.63 0.196,0.735 0.518,0.854 L 0.567,0.84 V 0.287 c 0.343,0.322 0.609,0.567 1.022,0.567 0.322,0 0.819,-0.189 0.819,-1.05 V -1.8 c 0,-0.328 0.084,-0.434 0.427,-0.462 V -2.367 H 1.379 v 0.105 c 0.259,0.021 0.442,0.056 0.442,0.589 v 1.463 c 0,0.427 -0.126,0.679 -0.54,0.679 -0.21,0 -0.427,-0.14 -0.693,-0.399 v -1.967 c 0,-0.231 0.098,-0.344 0.462,-0.365 v -0.105 h -1.484 v 0.105 C -0.105,-2.241 0,-2.149 0,-1.736 V 0"
         style="fill:#006779;fill-opacity:1;fill-rule:nonzero;stroke:none"
         transform="matrix(1.3333333,0,0,-1.3333333,447.536,547.6)" />
      <path
         id="path175"
         d="m 0,0 c -0.048,0.476 -0.392,0.7 -0.721,0.7 -0.392,0 -0.868,-0.343 -0.868,-1.295 0,-1.044 0.504,-1.436 0.966,-1.436 0.294,0 0.567,0.168 0.623,0.421 z M 1.057,-2.031 C 0.721,-2.149 0.399,-2.262 0.028,-2.394 L 0,-2.373 v 0.426 h -0.014 c -0.126,-0.189 -0.385,-0.447 -0.903,-0.447 -0.273,0 -1.274,0.139 -1.274,1.568 0,0.917 0.665,1.722 1.449,1.722 0.301,0 0.511,-0.098 0.742,-0.301 v 1.092 c 0,0.211 0,0.357 -0.308,0.357 -0.042,0 -0.111,0 -0.168,-0.007 V 2.149 C -0.125,2.24 0.217,2.338 0.553,2.458 L 0.588,2.443 v -3.969 c 0,-0.287 0,-0.428 0.469,-0.392 v -0.113"
         style="fill:#006779;fill-opacity:1;fill-rule:nonzero;stroke:none"
         transform="matrix(1.3333333,0,0,-1.3333333,454.62933,547.66667)" />
      <path
         id="path176"
         d="m 0,0 c -1.057,-0.35 -1.134,-0.742 -1.134,-0.98 v -0.014 c 0,-0.329 0.203,-0.547 0.462,-0.547 0.154,0 0.371,0.092 0.434,0.126 0.217,0.105 0.238,0.19 0.238,0.4 z m 1.085,-1.596 c -0.294,-0.343 -0.51,-0.35 -0.623,-0.35 -0.126,0 -0.42,0.007 -0.455,0.51 -0.259,-0.23 -0.63,-0.51 -1.015,-0.51 -0.378,0 -0.743,0.259 -0.743,0.728 0,0.7 0.61,0.938 1.751,1.386 v 0.427 c 0,0.504 -0.329,0.581 -0.539,0.581 -0.231,0 -0.497,-0.126 -0.497,-0.343 0,-0.105 0.034,-0.21 0.034,-0.273 0,-0.147 -0.132,-0.301 -0.314,-0.301 -0.217,0 -0.302,0.196 -0.302,0.308 0,0.28 0.329,0.777 1.142,0.777 1.043,0 1.043,-0.7 1.043,-1.12 v -1.365 c 0,-0.203 0,-0.406 0.203,-0.406 0.147,0 0.238,0.069 0.315,0.132 v -0.181"
         style="fill:#006779;fill-opacity:1;fill-rule:nonzero;stroke:none"
         transform="matrix(1.3333333,0,0,-1.3333333,458.80267,548.25333)" />
      <path
         id="path177"
         d="M 0,0 C 0,0.441 -0.134,0.448 -0.246,0.448 -0.344,0.448 -0.414,0.434 -0.47,0.42 V 0.539 C -0.141,0.63 0.188,0.735 0.51,0.854 L 0.559,0.84 V 0.315 c 0.413,0.315 0.7,0.539 1.078,0.539 0.455,0 0.673,-0.294 0.749,-0.588 0.148,0.168 0.574,0.588 1.128,0.588 0.728,0 0.826,-0.728 0.826,-1.246 v -1.443 c 0,-0.154 -0.006,-0.364 0.301,-0.413 L 4.823,-2.262 V -2.367 H 3.29 v 0.105 c 0.35,0.042 0.462,0.056 0.462,0.505 v 1.477 c 0,0.357 -0.007,0.77 -0.511,0.77 -0.385,0 -0.623,-0.189 -0.778,-0.427 v -1.765 c 0,-0.532 0.218,-0.553 0.505,-0.56 V -2.367 H 1.4 v 0.105 c 0.314,0.021 0.476,0.042 0.476,0.497 v 1.52 C 1.876,0.217 1.756,0.49 1.392,0.49 0.91,0.49 0.587,0.112 0.587,0.077 v -1.974 c 0,-0.344 0.231,-0.358 0.476,-0.365 v -0.105 h -1.554 v 0.105 C -0.21,-2.255 0,-2.241 0,-1.771 V 0"
         style="fill:#006779;fill-opacity:1;fill-rule:nonzero;stroke:none"
         transform="matrix(1.3333333,0,0,-1.3333333,461.06933,547.6)" />
      <path
         id="path178"
         d="m 0,0 c 0,-0.161 0.329,-0.462 0.713,-0.462 0.232,0 0.862,0.133 0.862,1.351 C 1.575,1.05 1.54,2.185 0.686,2.185 0.433,2.185 0.042,1.988 0,1.722 Z m -0.588,1.743 c 0,0.28 -0.022,0.4 -0.267,0.4 -0.062,0 -0.133,0 -0.195,-0.008 v 0.113 c 0.336,0.105 0.672,0.224 1.008,0.356 L 0,2.59 V 2.08 L 0.013,2.065 c 0.148,0.196 0.47,0.539 1.009,0.539 0.623,0 1.155,-0.574 1.155,-1.505 0,-0.805 -0.497,-1.785 -1.47,-1.785 -0.281,0 -0.476,0.077 -0.707,0.301 L 0,-1.484 C 0,-1.933 0.112,-2.01 0.616,-2.01 v -0.126 h -1.695 v 0.119 c 0.462,0.036 0.491,0.182 0.491,0.484 v 3.276"
         style="fill:#006779;fill-opacity:1;fill-rule:nonzero;stroke:none"
         transform="matrix(1.3333333,0,0,-1.3333333,469.016,549.93333)" />
      <path
         id="path179"
         d="M 0,0 C -0.048,0.336 -0.118,0.805 -0.672,0.805 -1.056,0.805 -1.33,0.616 -1.442,0 Z m 0.848,-1.064 c -0.07,-0.217 -0.477,-1.169 -1.484,-1.169 -0.778,0 -1.31,0.573 -1.31,1.568 0,1.295 0.868,1.722 1.429,1.722 0.658,0 1.155,-0.364 1.232,-1.281 h -2.178 c 0.084,-1.239 0.652,-1.526 1.114,-1.526 0.623,0 0.924,0.476 1.085,0.735 l 0.112,-0.049"
         style="fill:#006779;fill-opacity:1;fill-rule:nonzero;stroke:none"
         transform="matrix(1.3333333,0,0,-1.3333333,475.02933,547.88)" />
      <path
         id="path180"
         d="m 0,0 c -0.049,0.476 -0.393,0.7 -0.722,0.7 -0.392,0 -0.868,-0.343 -0.868,-1.295 0,-1.044 0.504,-1.436 0.966,-1.436 0.294,0 0.567,0.168 0.624,0.421 z M 1.056,-2.031 C 0.72,-2.149 0.398,-2.262 0.027,-2.394 L 0,-2.373 v 0.426 h -0.015 c -0.126,-0.189 -0.385,-0.447 -0.903,-0.447 -0.273,0 -1.274,0.139 -1.274,1.568 0,0.917 0.665,1.722 1.449,1.722 0.301,0 0.511,-0.098 0.743,-0.301 v 1.092 c 0,0.211 0,0.357 -0.309,0.357 -0.042,0 -0.111,0 -0.168,-0.007 V 2.149 C -0.126,2.24 0.216,2.338 0.552,2.458 L 0.587,2.443 v -3.969 c 0,-0.287 0,-0.428 0.469,-0.392 v -0.113"
         style="fill:#006779;fill-opacity:1;fill-rule:nonzero;stroke:none"
         transform="matrix(1.3333333,0,0,-1.3333333,479.52267,547.66667)" />
      <path
         id="path211"
         d="M 0,0 3.257,-0.859 0,-1.72 V 0"
         style="fill:#000000;fill-opacity:1;fill-rule:nonzero;stroke:none"
         transform="matrix(1.3333333,0,0,-1.3333333,497.98933,538.44)" />
      <path
         id="path212"
         d="M 0,0 0.858,3.258 1.72,0 H 0"
         style="fill:#000000;fill-opacity:1;fill-rule:nonzero;stroke:none"
         transform="matrix(1.3333333,0,0,-1.3333333,420.056,490)" />
      <path
         id="path213"
         d="m 0,0 h -0.588 l -0.616,-2.331 c -0.007,-0.021 -0.007,-0.035 -0.007,-0.056 0,-0.063 0.035,-0.119 0.113,-0.119 0.139,0 0.384,0.329 0.559,0.553 l 0.092,-0.049 c -0.357,-0.54 -0.631,-0.848 -0.995,-0.848 -0.14,0 -0.336,0.071 -0.336,0.281 0,0.105 0.134,0.532 0.161,0.644 L -1.113,0 h -0.518 c -0.006,0.042 -0.006,0.077 0.014,0.112 0.042,0.063 0.238,0.112 0.357,0.175 0.231,0.119 0.568,0.434 0.763,0.679 0.028,0.035 0.057,0.098 0.119,0.084 0.049,0.014 0.064,-0.049 0.049,-0.105 L -0.524,0.224 H 0.035 L 0,0"
         style="fill:#000000;fill-opacity:1;fill-rule:nonzero;stroke:none"
         transform="matrix(1.3333333,0,0,-1.3333333,509.64267,538.22667)" />
      <path
         id="path214"
         d="m 0,0 c -0.175,-0.224 -0.581,-0.749 -1.316,-0.749 -0.455,0 -1.037,0.175 -1.037,1.106 0,0.987 0.966,2.058 2.003,2.058 0.588,0 0.763,-0.35 0.763,-0.567 0,-0.196 -0.154,-0.322 -0.329,-0.322 -0.175,0 -0.28,0.098 -0.28,0.259 0,0.182 0.105,0.224 0.105,0.343 0,0.105 -0.139,0.14 -0.266,0.14 -0.911,0 -1.393,-1.239 -1.393,-1.911 0,-0.539 0.21,-0.854 0.637,-0.854 0.42,0 0.749,0.287 1.001,0.567 L 0,0"
         style="fill:#000000;fill-opacity:1;fill-rule:nonzero;stroke:none"
         transform="matrix(1.3333333,0,0,-1.3333333,419.98933,479.81333)" />
      <path
         id="path215"
         d="m 0,0 c -0.519,-0.413 -1.191,-0.959 -1.191,-2.738 0,-0.714 0,-2.247 1.191,-3.01 L -0.084,-5.86 c -0.406,0.216 -0.868,0.707 -1.135,1.099 -0.343,0.504 -0.574,1.008 -0.574,1.974 0,1.205 0.644,2.255 1.729,2.899 L 0,0"
         style="fill:#000000;fill-opacity:1;fill-rule:nonzero;stroke:none"
         transform="matrix(1.3333333,0,0,-1.3333333,423.56267,474.56)" />
      <path
         id="path216"
         d="m 0,0 h -0.588 l -0.616,-2.332 c -0.007,-0.021 -0.007,-0.034 -0.007,-0.055 0,-0.063 0.035,-0.119 0.112,-0.119 0.14,0 0.385,0.329 0.56,0.553 l 0.092,-0.05 c -0.358,-0.539 -0.631,-0.847 -0.995,-0.847 -0.14,0 -0.336,0.071 -0.336,0.281 0,0.105 0.133,0.532 0.161,0.644 L -1.113,0 h -0.518 c -0.007,0.042 -0.007,0.077 0.014,0.112 0.042,0.063 0.238,0.112 0.357,0.175 0.231,0.119 0.568,0.434 0.763,0.679 0.028,0.035 0.057,0.098 0.119,0.084 0.049,0.014 0.064,-0.049 0.049,-0.105 L -0.524,0.224 H 0.035 L 0,0"
         style="fill:#000000;fill-opacity:1;fill-rule:nonzero;stroke:none"
         transform="matrix(1.3333333,0,0,-1.3333333,426.54933,477.01333)" />
      <path
         id="path217"
         d="m 0,0 c 0.518,0.413 1.191,0.959 1.191,2.738 0,0.714 0,2.247 -1.191,3.01 L 0.084,5.86 C 0.491,5.643 0.953,5.153 1.218,4.761 1.562,4.257 1.792,3.753 1.792,2.787 1.792,1.582 1.149,0.532 0.063,-0.112 L 0,0"
         style="fill:#000000;fill-opacity:1;fill-rule:nonzero;stroke:none"
         transform="matrix(1.3333333,0,0,-1.3333333,426.696,482.21333)" />
      <path
         id="path237"
         d="M 0,0 5.11,-1.347 0,-2.697 V 0"
         style="fill:#000000;fill-opacity:1;fill-rule:nonzero;stroke:none"
         transform="matrix(1.3333333,0,0,-1.3333333,311.376,517.02667)" />
      <path
         id="path238"
         d="M 0,0 H -74.491"
         style="fill:none;stroke:#000000;stroke-width:0.5;stroke-linecap:butt;stroke-linejoin:miter;stroke-miterlimit:10;stroke-dasharray:none;stroke-opacity:1"
         transform="matrix(1.3333333,0,0,-1.3333333,314.94933,518.81333)" />
      <path
         id="path239"
         d="M 0,0 1.347,5.109 2.697,0 H 0"
         style="fill:#000000;fill-opacity:1;fill-rule:nonzero;stroke:none"
         transform="matrix(1.3333333,0,0,-1.3333333,265.10933,489.92)" />
      <path
         id="path240"
         d="M 0,0 V -49.595"
         style="fill:none;stroke:#000000;stroke-width:0.5;stroke-linecap:butt;stroke-linejoin:miter;stroke-miterlimit:10;stroke-dasharray:none;stroke-opacity:1"
         transform="matrix(1.3333333,0,0,-1.3333333,266.896,486.34667)" />
      <path
         id="path262"
         d="m 0,0 c 0.049,-0.308 0.161,-0.953 0.728,-0.953 0.392,0 0.505,0.337 0.505,0.568 0,0.462 -0.833,1.134 -0.833,1.673 0,0.217 0.097,0.777 0.84,0.777 0.315,0 0.455,-0.119 0.665,-0.119 0.119,0 0.161,0.071 0.196,0.126 H 2.199 L 2.059,1.099 H 1.947 C 1.911,1.498 1.743,1.904 1.288,1.904 1.134,1.904 0.91,1.841 0.91,1.498 0.91,1.057 1.765,0.434 1.765,-0.161 1.765,-0.924 1.114,-1.1 0.721,-1.1 c -0.21,0 -0.49,0.134 -0.692,0.134 -0.099,0 -0.127,-0.071 -0.169,-0.147 H -0.252 L -0.112,0 H 0"
         style="fill:#000000;fill-opacity:1;fill-rule:nonzero;stroke:none"
         transform="matrix(1.3333333,0,0,-1.3333333,292.816,499.57333)" />
      <path
         id="path263"
         d="m 275.45,394.21 h 1.722 v 0.441 h -1.722 z"
         style="fill:#000000;fill-opacity:1;fill-rule:nonzero;stroke:none"
         transform="matrix(1.3333333,0,0,-1.3333333,-70.944,1024.7333)" />
      <path
         id="path264"
         d="m 0,0 c 0,-0.161 0.329,-0.462 0.714,-0.462 0.231,0 0.861,0.133 0.861,1.351 C 1.575,1.05 1.54,2.185 0.687,2.185 0.435,2.185 0.042,1.988 0,1.723 Z m -0.588,1.744 c 0,0.279 -0.021,0.399 -0.266,0.399 -0.063,0 -0.133,0 -0.196,-0.007 v 0.112 c 0.336,0.105 0.672,0.224 1.008,0.356 L 0,2.591 V 2.08 L 0.014,2.065 c 0.147,0.197 0.469,0.539 1.008,0.539 0.624,0 1.156,-0.574 1.156,-1.505 0,-0.805 -0.497,-1.785 -1.471,-1.785 -0.28,0 -0.476,0.077 -0.707,0.301 L 0,-1.484 C 0,-1.933 0.112,-2.01 0.616,-2.01 v -0.126 h -1.694 v 0.119 c 0.462,0.036 0.49,0.183 0.49,0.484 v 3.277"
         style="fill:#000000;fill-opacity:1;fill-rule:nonzero;stroke:none"
         transform="matrix(1.3333333,0,0,-1.3333333,300.54933,500.10667)" />
      <path
         id="path265"
         d="m 0,0 c 0.413,0.028 0.539,0.119 0.539,0.504 v 3.34 c 0,0.315 -0.042,0.427 -0.315,0.427 -0.091,0 -0.155,-0.007 -0.238,-0.014 V 4.369 C 0.357,4.46 0.728,4.558 1.099,4.677 L 1.127,4.663 V 0.483 C 1.127,0.077 1.246,0.021 1.652,0 V -0.105 H 0 V 0"
         style="fill:#000000;fill-opacity:1;fill-rule:nonzero;stroke:none"
         transform="matrix(1.3333333,0,0,-1.3333333,303.936,500.78667)" />
      <path
         id="path266"
         d="m 0,0 c -1.058,-0.35 -1.135,-0.742 -1.135,-0.98 v -0.014 c 0,-0.329 0.203,-0.546 0.462,-0.546 0.154,0 0.371,0.091 0.434,0.125 0.217,0.106 0.239,0.19 0.239,0.4 z m 1.085,-1.596 c -0.294,-0.344 -0.511,-0.35 -0.623,-0.35 -0.126,0 -0.42,0.006 -0.455,0.511 -0.259,-0.232 -0.63,-0.511 -1.016,-0.511 -0.378,0 -0.742,0.259 -0.742,0.728 0,0.7 0.609,0.938 1.751,1.386 v 0.427 c 0,0.504 -0.329,0.581 -0.539,0.581 -0.232,0 -0.497,-0.126 -0.497,-0.343 0,-0.105 0.034,-0.21 0.034,-0.273 0,-0.147 -0.133,-0.301 -0.315,-0.301 -0.216,0 -0.3,0.196 -0.3,0.308 0,0.28 0.328,0.777 1.14,0.777 1.044,0 1.044,-0.7 1.044,-1.12 v -1.365 c 0,-0.203 0,-0.406 0.202,-0.406 0.148,0 0.239,0.069 0.316,0.132 v -0.181"
         style="fill:#000000;fill-opacity:1;fill-rule:nonzero;stroke:none"
         transform="matrix(1.3333333,0,0,-1.3333333,309.00267,498.42667)" />
      <path
         id="path267"
         d="m 0,0 c 0,0.441 -0.134,0.448 -0.245,0.448 -0.099,0 -0.176,-0.014 -0.203,-0.028 V 0.539 C -0.134,0.63 0.195,0.735 0.518,0.854 L 0.566,0.84 V 0.287 c 0.344,0.322 0.61,0.567 1.023,0.567 0.322,0 0.819,-0.189 0.819,-1.05 v -1.603 c 0,-0.329 0.084,-0.435 0.427,-0.463 V -2.367 H 1.379 v 0.105 c 0.259,0.021 0.441,0.057 0.441,0.589 v 1.463 c 0,0.427 -0.126,0.679 -0.539,0.679 -0.21,0 -0.428,-0.14 -0.693,-0.399 v -1.967 c 0,-0.231 0.097,-0.344 0.462,-0.365 v -0.105 h -1.485 v 0.105 C -0.106,-2.241 0,-2.149 0,-1.736 V 0"
         style="fill:#000000;fill-opacity:1;fill-rule:nonzero;stroke:none"
         transform="matrix(1.3333333,0,0,-1.3333333,311.216,497.77333)" />
      <path
         id="path268"
         d="M 0,0 C -0.048,0.336 -0.118,0.805 -0.671,0.805 -1.056,0.805 -1.33,0.616 -1.442,0 Z m 0.848,-1.064 c -0.07,-0.217 -0.476,-1.169 -1.484,-1.169 -0.778,0 -1.31,0.573 -1.31,1.568 0,1.295 0.868,1.722 1.429,1.722 0.658,0 1.155,-0.364 1.232,-1.281 h -2.177 c 0.084,-1.239 0.651,-1.526 1.113,-1.526 0.623,0 0.924,0.476 1.085,0.735 l 0.112,-0.049"
         style="fill:#000000;fill-opacity:1;fill-rule:nonzero;stroke:none"
         transform="matrix(1.3333333,0,0,-1.3333333,317.96267,498.05333)" />
      <path
         id="path269"
         d="m 0,0 c -0.175,0 -0.337,0.119 -0.337,0.364 0,0.245 0.162,0.378 0.33,0.378 0.231,0 0.35,-0.231 0.35,-0.385 C 0.343,0.217 0.231,0 0,0 Z m -0.673,-1.814 c 0.091,0.358 0.126,0.512 0.106,0.596 0,0.119 -0.035,0.168 -0.273,0.189 l -0.239,-0.007 v 0.112 c 0.287,0.014 0.918,0.126 1.191,0.175 l 0.021,-0.014 -0.728,-2.878 c -0.287,-1.12 -0.693,-1.645 -1.317,-1.645 -0.231,0 -0.546,0.105 -0.546,0.448 0,0.028 0.028,0.273 0.287,0.273 0.141,0 0.28,-0.105 0.28,-0.252 0,-0.147 -0.091,-0.147 -0.091,-0.231 0,-0.07 0.078,-0.077 0.141,-0.077 0.356,0 0.532,0.728 0.665,1.267 l 0.503,2.044"
         style="fill:#000000;fill-opacity:1;fill-rule:nonzero;stroke:none"
         transform="matrix(1.3333333,0,0,-1.3333333,275.416,501.78667)" />
      <path
         id="path270"
         d="m 0,0 c -0.273,-0.365 -0.463,-0.615 -0.757,-0.615 -0.25,0 -0.262,0.163 -0.262,0.321 0,0.13 0.403,1.459 0.403,1.677 0,0.098 -0.032,0.175 -0.135,0.175 -0.262,0 -0.605,-0.469 -0.801,-0.774 -0.251,-0.376 -0.321,-0.61 -0.545,-1.35 h -0.408 c 0.169,0.615 0.534,1.889 0.534,2.004 0,0.082 -0.055,0.141 -0.349,0.141 v 0.088 c 0.294,0.054 0.588,0.108 0.882,0.168 L -1.421,1.824 -1.77,0.686 -1.759,0.675 c 0.256,0.403 0.757,1.16 1.209,1.16 0.251,0 0.376,-0.131 0.376,-0.36 0,-0.233 -0.436,-1.579 -0.436,-1.742 0,-0.082 0.076,-0.092 0.087,-0.092 0.108,0 0.245,0.174 0.446,0.43 L 0,0"
         style="fill:#000000;fill-opacity:1;fill-rule:nonzero;stroke:none"
         transform="matrix(1.3333333,0,0,-1.3333333,285.736,508.21333)" />
      <path
         id="path271"
         d="m 0,0 c -0.482,-0.168 -0.678,-0.294 -0.877,-0.539 -0.501,-0.609 -0.63,-1.414 -0.645,-1.884 -0.007,-0.364 0.046,-0.511 0.145,-0.63 0.113,-0.133 0.259,-0.168 0.467,-0.112 0.49,0.133 0.648,0.708 0.711,0.841 -0.049,0.364 -0.096,0.805 0.122,1.365 0.122,0.308 0.253,0.469 0.437,0.469 0.181,0 0.244,-0.161 0.235,-0.469 C 0.573,-1.519 0.34,-1.96 0.137,-2.324 0.144,-2.457 0.056,-3.032 0.49,-3.165 c 0.184,-0.056 0.346,-0.021 0.514,0.112 0.152,0.119 0.268,0.266 0.414,0.63 0.184,0.47 0.397,1.275 0.155,1.884 C 1.479,-0.294 1.338,-0.168 0.925,0 L 0.95,0.119 C 1.193,0.105 1.616,0.154 1.928,-0.126 2.298,-0.462 2.44,-0.91 2.366,-1.519 2.309,-2.023 2.193,-2.339 1.959,-2.71 1.77,-3.011 1.442,-3.298 1.182,-3.403 0.967,-3.494 0.59,-3.584 0.29,-3.382 c -0.216,0.14 -0.305,0.245 -0.424,0.574 -0.259,-0.329 -0.394,-0.434 -0.669,-0.574 -0.385,-0.202 -0.724,-0.112 -0.9,-0.021 -0.216,0.105 -0.421,0.392 -0.483,0.693 -0.075,0.371 -0.057,0.687 0.099,1.191 0.186,0.609 0.52,1.057 1.032,1.393 0.43,0.28 0.834,0.231 1.081,0.245 L 0,0"
         style="fill:#000000;fill-opacity:1;fill-rule:nonzero;stroke:none"
         transform="matrix(1.3333333,0,0,-1.3333333,279.42933,502.45333)" />
      <path
         id="path274"
         d="m 0,0 h -3.522 l 0.056,0.322 H 0.056 L 0,0"
         style="fill:#000000;fill-opacity:1;fill-rule:nonzero;stroke:none"
         transform="matrix(1.3333333,0,0,-1.3333333,277.936,536.17333)" />
      <path
         id="path275"
         d="m 0,0 c -0.175,0 -0.337,0.119 -0.337,0.364 0,0.245 0.162,0.378 0.33,0.378 0.231,0 0.35,-0.231 0.35,-0.385 C 0.343,0.217 0.231,0 0,0 Z m -0.673,-1.813 c 0.091,0.357 0.126,0.511 0.106,0.595 0,0.119 -0.035,0.168 -0.274,0.189 l -0.238,-0.007 v 0.112 c 0.287,0.014 0.918,0.126 1.191,0.175 l 0.021,-0.014 -0.728,-2.878 c -0.287,-1.12 -0.694,-1.645 -1.317,-1.645 -0.23,0 -0.546,0.105 -0.546,0.448 0,0.028 0.029,0.273 0.287,0.273 0.14,0 0.281,-0.105 0.281,-0.252 0,-0.147 -0.092,-0.147 -0.092,-0.231 0,-0.07 0.077,-0.077 0.141,-0.077 0.357,0 0.532,0.728 0.665,1.267 l 0.503,2.045"
         style="fill:#000000;fill-opacity:1;fill-rule:nonzero;stroke:none"
         transform="matrix(1.3333333,0,0,-1.3333333,280.08267,533.93333)" />
      <path
         id="path276"
         d="m 0,0 c -0.273,-0.365 -0.463,-0.615 -0.757,-0.615 -0.25,0 -0.262,0.163 -0.262,0.321 0,0.13 0.403,1.459 0.403,1.677 0,0.098 -0.032,0.175 -0.135,0.175 -0.262,0 -0.605,-0.469 -0.801,-0.774 -0.251,-0.376 -0.322,-0.61 -0.545,-1.35 h -0.408 c 0.169,0.615 0.534,1.889 0.534,2.004 0,0.081 -0.055,0.141 -0.349,0.141 v 0.087 c 0.294,0.055 0.588,0.109 0.882,0.169 L -1.421,1.824 -1.77,0.686 -1.759,0.675 c 0.256,0.403 0.757,1.16 1.209,1.16 0.251,0 0.376,-0.13 0.376,-0.359 0,-0.234 -0.436,-1.58 -0.436,-1.743 0,-0.082 0.076,-0.092 0.087,-0.092 0.108,0 0.245,0.174 0.446,0.43 L 0,0"
         style="fill:#000000;fill-opacity:1;fill-rule:nonzero;stroke:none"
         transform="matrix(1.3333333,0,0,-1.3333333,290.416,540.37333)" />
      <path
         id="path277"
         d="m 0,0 c -0.483,-0.168 -0.677,-0.294 -0.877,-0.539 -0.501,-0.609 -0.63,-1.414 -0.645,-1.883 -0.008,-0.364 0.045,-0.512 0.145,-0.63 0.112,-0.133 0.259,-0.168 0.467,-0.112 0.49,0.133 0.648,0.708 0.711,0.84 -0.049,0.364 -0.096,0.806 0.122,1.365 0.121,0.309 0.253,0.469 0.436,0.469 0.181,0 0.245,-0.16 0.236,-0.469 C 0.573,-1.518 0.34,-1.96 0.137,-2.324 0.144,-2.456 0.056,-3.031 0.49,-3.164 c 0.184,-0.056 0.345,-0.021 0.514,0.112 0.152,0.118 0.267,0.266 0.413,0.63 0.185,0.469 0.398,1.274 0.156,1.883 C 1.479,-0.294 1.337,-0.168 0.925,0 L 0.95,0.12 C 1.193,0.105 1.616,0.155 1.927,-0.126 2.298,-0.461 2.44,-0.91 2.366,-1.518 2.308,-2.023 2.193,-2.338 1.959,-2.709 1.769,-3.011 1.442,-3.297 1.182,-3.402 0.966,-3.493 0.589,-3.585 0.29,-3.381 c -0.216,0.14 -0.305,0.245 -0.424,0.574 -0.259,-0.329 -0.394,-0.434 -0.668,-0.574 -0.387,-0.204 -0.725,-0.112 -0.901,-0.021 -0.216,0.105 -0.422,0.391 -0.483,0.693 -0.074,0.371 -0.058,0.686 0.099,1.191 0.186,0.608 0.52,1.057 1.032,1.392 0.43,0.281 0.834,0.231 1.081,0.246 L 0,0"
         style="fill:#000000;fill-opacity:1;fill-rule:nonzero;stroke:none"
         transform="matrix(1.3333333,0,0,-1.3333333,284.536,534.53333)" />
      <path
         id="path278"
         d="m 0,0 c -0.174,0 -0.336,0.119 -0.336,0.364 0,0.245 0.162,0.378 0.33,0.378 0.231,0 0.35,-0.231 0.35,-0.385 C 0.344,0.217 0.231,0 0,0 Z m -0.671,-1.813 c 0.09,0.357 0.125,0.511 0.105,0.595 0,0.119 -0.036,0.168 -0.274,0.189 l -0.238,-0.007 v 0.112 c 0.287,0.014 0.917,0.126 1.191,0.175 l 0.021,-0.014 -0.729,-2.878 c -0.287,-1.12 -0.693,-1.645 -1.316,-1.645 -0.231,0 -0.546,0.105 -0.546,0.448 0,0.028 0.028,0.273 0.287,0.273 0.14,0 0.28,-0.105 0.28,-0.252 0,-0.147 -0.091,-0.147 -0.091,-0.231 0,-0.07 0.077,-0.077 0.14,-0.077 0.357,0 0.532,0.728 0.665,1.267 l 0.505,2.045"
         style="fill:#000000;fill-opacity:1;fill-rule:nonzero;stroke:none"
         transform="matrix(1.3333333,0,0,-1.3333333,264.52267,473.38667)" />
      <path
         id="path279"
         d="m 0,0 c -0.483,-0.168 -0.678,-0.294 -0.877,-0.539 -0.501,-0.609 -0.63,-1.414 -0.646,-1.884 -0.007,-0.364 0.046,-0.511 0.147,-0.63 0.111,-0.133 0.258,-0.168 0.466,-0.112 0.49,0.133 0.648,0.707 0.711,0.841 -0.049,0.364 -0.096,0.804 0.122,1.364 0.121,0.309 0.254,0.47 0.436,0.47 0.182,0 0.245,-0.161 0.236,-0.47 -0.022,-0.56 -0.255,-1 -0.458,-1.364 0.007,-0.134 -0.081,-0.708 0.353,-0.841 0.184,-0.056 0.346,-0.021 0.515,0.112 0.151,0.119 0.266,0.266 0.413,0.63 0.184,0.47 0.397,1.275 0.155,1.884 C 1.479,-0.294 1.338,-0.168 0.925,0 L 0.95,0.119 C 1.193,0.105 1.616,0.154 1.927,-0.126 2.298,-0.462 2.44,-0.91 2.366,-1.52 2.308,-2.023 2.193,-2.339 1.959,-2.71 1.769,-3.011 1.442,-3.298 1.182,-3.403 0.966,-3.494 0.59,-3.585 0.29,-3.382 c -0.216,0.14 -0.305,0.245 -0.424,0.574 -0.259,-0.329 -0.394,-0.434 -0.669,-0.574 -0.386,-0.203 -0.724,-0.112 -0.9,-0.021 -0.216,0.105 -0.421,0.392 -0.483,0.693 -0.075,0.371 -0.057,0.687 0.099,1.19 0.186,0.61 0.519,1.058 1.031,1.394 0.431,0.28 0.835,0.231 1.082,0.245 L 0,0"
         style="fill:#000000;fill-opacity:1;fill-rule:nonzero;stroke:none"
         transform="matrix(1.3333333,0,0,-1.3333333,268.14933,474.05333)" />
      <path
         id="path321"
         d="m 0,0 c -0.21,0 -0.601,0.035 -1.018,-0.28 -0.402,-0.308 -0.521,-0.833 -0.54,-0.994 -0.084,-0.623 0.104,-1.058 0.33,-1.274 0.153,-0.141 0.33,-0.294 0.812,-0.168 0.321,0.091 0.558,0.42 0.672,0.623 0.216,0.392 0.3,0.917 0.23,1.246 C 0.421,-0.525 0.298,-0.315 0,0 Z M 1.891,0 H 0.371 L 0.368,-0.014 C 0.721,-0.133 1.11,-0.679 1.184,-1.022 1.243,-1.274 1.21,-1.589 1.004,-1.967 0.875,-2.212 0.384,-2.87 -0.426,-2.996 c -0.247,-0.036 -0.754,-0.154 -1.21,0.168 -0.55,0.378 -0.671,1.064 -0.653,1.414 0.037,0.637 0.289,0.931 0.506,1.19 0.272,0.322 0.751,0.539 0.927,0.609 0.292,0.119 0.684,0.217 1.061,0.217 H 2.02 L 1.891,0"
         style="fill:#000000;fill-opacity:1;fill-rule:nonzero;stroke:none"
         transform="matrix(1.3333333,0,0,-1.3333333,325.36267,517.36)" />
      <path
         id="path326"
         d="m 0,0 c 5.129,1.716 6.603,38.685 11.757,38.685 3.473,0 4.711,-38.437 9.176,-38.437 3.223,0 4.464,38.437 9.423,38.437 3.72,0 4.464,-38.437 8.68,-38.437 2.726,0 5.702,27.774 6.695,33.477"
         style="fill:none;stroke:#000000;stroke-width:0.75;stroke-linecap:butt;stroke-linejoin:miter;stroke-miterlimit:4;stroke-dasharray:none;stroke-opacity:1"
         transform="matrix(1.3333333,0,0,-1.3333333,421.20267,539.58667)" />
      <path
         id="path327"
         d="M 0,0 H 1.703 V -1.653 H 3.064 V -3.355 H 0 V 0"
         style="fill:#ffffff;fill-opacity:1;fill-rule:nonzero;stroke:none"
         transform="matrix(1.3333333,0,0,-1.3333333,418.96267,537.37333)" />
      <path
         id="path328"
         d="M 0,0 V -37.693 H 58.276"
         style="fill:none;stroke:#000000;stroke-width:0.5;stroke-linecap:butt;stroke-linejoin:miter;stroke-miterlimit:4;stroke-dasharray:none;stroke-opacity:1"
         transform="matrix(1.3333333,0,0,-1.3333333,421.20267,489.33333)" />
    </g>
  </g>
</svg>
