<?xml version="1.0" encoding="UTF-8" standalone="no"?>
<!-- Created with Inkscape (http://www.inkscape.org/) -->

<svg
   version="1.1"
   id="svg1"
   viewBox="0 0 387.7338 102.28986"
   xmlns="http://www.w3.org/2000/svg"
   xmlns:svg="http://www.w3.org/2000/svg">
  <defs
     id="defs1">
    <clipPath
       clipPathUnits="userSpaceOnUse"
       id="clipPath24">
      <path
         d="m 163.806,144.956 h 290.388 v 68.499 H 163.806 Z"
         transform="translate(-219.66411,-201.28551)"
         id="path24" />
    </clipPath>
    <clipPath
       clipPathUnits="userSpaceOnUse"
       id="clipPath26">
      <path
         d="m 163.806,144.956 h 290.388 v 68.499 H 163.806 Z"
         transform="translate(-299.57181,-201.28551)"
         id="path26" />
    </clipPath>
    <clipPath
       clipPathUnits="userSpaceOnUse"
       id="clipPath28">
      <path
         d="m 163.806,144.956 h 290.388 v 68.499 H 163.806 Z"
         transform="translate(-412.22131,-201.28551)"
         id="path28" />
    </clipPath>
    <clipPath
       clipPathUnits="userSpaceOnUse"
       id="clipPath30">
      <path
         d="m 163.806,144.956 h 290.388 v 68.499 H 163.806 Z"
         transform="translate(-203.57521,-177.70641)"
         id="path30" />
    </clipPath>
    <clipPath
       clipPathUnits="userSpaceOnUse"
       id="clipPath32">
      <path
         d="m 163.806,144.956 h 290.388 v 68.499 H 163.806 Z"
         transform="translate(-219.66411,-177.70641)"
         id="path32" />
    </clipPath>
    <clipPath
       clipPathUnits="userSpaceOnUse"
       id="clipPath34">
      <path
         d="m 163.806,144.956 h 290.388 v 68.499 H 163.806 Z"
         transform="translate(-299.7397,-177.70641)"
         id="path34" />
    </clipPath>
    <clipPath
       clipPathUnits="userSpaceOnUse"
       id="clipPath36">
      <path
         d="m 163.806,144.956 h 290.388 v 68.499 H 163.806 Z"
         transform="translate(-338.14891,-177.70641)"
         id="path36" />
    </clipPath>
    <clipPath
       clipPathUnits="userSpaceOnUse"
       id="clipPath38">
      <path
         d="m 163.806,144.956 h 290.388 v 68.499 H 163.806 Z"
         transform="translate(-396.57081,-174.64)"
         id="path38" />
    </clipPath>
    <clipPath
       clipPathUnits="userSpaceOnUse"
       id="clipPath40">
      <path
         d="m 163.806,144.956 h 290.388 v 68.499 H 163.806 Z"
         id="path40" />
    </clipPath>
    <clipPath
       clipPathUnits="userSpaceOnUse"
       id="clipPath42">
      <path
         d="m 163.806,144.956 h 290.388 v 68.499 H 163.806 Z"
         transform="translate(-299.30151,-168.0361)"
         id="path42" />
    </clipPath>
    <clipPath
       clipPathUnits="userSpaceOnUse"
       id="clipPath44">
      <path
         d="m 163.806,144.956 h 290.388 v 68.499 H 163.806 Z"
         id="path44" />
    </clipPath>
    <clipPath
       clipPathUnits="userSpaceOnUse"
       id="clipPath46">
      <path
         d="m 163.806,144.956 h 290.388 v 68.499 H 163.806 Z"
         transform="translate(-396.51151,-159.2331)"
         id="path46" />
    </clipPath>
    <clipPath
       clipPathUnits="userSpaceOnUse"
       id="clipPath50">
      <path
         d="M 0,0 H 582 V 744 H 0 Z"
         transform="translate(-15,-705.00002)"
         id="path50" />
    </clipPath>
    <clipPath
       clipPathUnits="userSpaceOnUse"
       id="clipPath52">
      <path
         d="M 0,0 H 582 V 744 H 0 Z"
         transform="translate(-15,-705.00002)"
         id="path52" />
    </clipPath>
  </defs>
  <g
     id="g1"
     transform="translate(-215.41502,-702.61884)">
    <g
       id="g222">
      <g
         id="g221"
         transform="matrix(0.99627649,0,0,1,2.2458336,0)">
        <g
           id="g220">
          <rect
             style="fill:#ffffff"
             id="rect220"
             width="389.18292"
             height="102.28983"
             x="213.9659"
             y="702.61884" />
        </g>
      </g>
      <g
         id="group-MC0">
        <path
           id="path22"
           d="M 0,0 H 27.905"
           style="fill:none;stroke:#231f20;stroke-width:0.5;stroke-linecap:butt;stroke-linejoin:miter;stroke-miterlimit:4;stroke-dasharray:none;stroke-opacity:1"
           transform="matrix(1.3333333,0,0,-1.3333333,255.78773,723.61933)" />
        <path
           id="path23"
           d="m 0,0 -1.095,1.802 0.061,0.04 2.938,-1.166 C 2.927,0.45 3.951,0.226 4.975,0 3.951,-0.225 2.927,-0.45 1.904,-0.676 l -2.938,-1.166 -0.061,0.03 z"
           style="fill:#231f20;fill-opacity:1;fill-rule:nonzero;stroke:none"
           transform="matrix(1.3333333,0,0,-1.3333333,292.88547,723.61933)"
           clip-path="url(#clipPath24)" />
        <path
           id="path25"
           d="M 0,0 H 112.73"
           style="fill:none;stroke:#231f20;stroke-width:0.5;stroke-linecap:butt;stroke-linejoin:miter;stroke-miterlimit:4;stroke-dasharray:none;stroke-opacity:1"
           transform="matrix(1.3333333,0,0,-1.3333333,399.42907,723.61933)"
           clip-path="url(#clipPath26)" />
        <path
           id="path27"
           d="m 0,0 -1.096,1.802 0.062,0.04 2.937,-1.166 C 2.927,0.45 3.951,0.226 4.975,0 3.951,-0.225 2.927,-0.45 1.903,-0.676 l -2.937,-1.166 -0.062,0.03 z"
           style="fill:#231f20;fill-opacity:1;fill-rule:nonzero;stroke:none"
           transform="matrix(1.3333333,0,0,-1.3333333,549.6284,723.61933)"
           clip-path="url(#clipPath28)" />
        <path
           id="path29"
           d="M 0,0 H 16.17"
           style="fill:none;stroke:#231f20;stroke-width:0.5;stroke-linecap:butt;stroke-linejoin:miter;stroke-miterlimit:4;stroke-dasharray:none;stroke-opacity:1"
           transform="matrix(1.3333333,0,0,-1.3333333,271.4336,755.05813)"
           clip-path="url(#clipPath30)" />
        <path
           id="path31"
           d="m 0,0 -1.095,1.803 0.061,0.04 2.938,-1.167 C 2.927,0.451 3.951,0.227 4.975,0 3.951,-0.225 2.927,-0.449 1.904,-0.676 l -2.938,-1.166 -0.061,0.031 z"
           style="fill:#231f20;fill-opacity:1;fill-rule:nonzero;stroke:none"
           transform="matrix(1.3333333,0,0,-1.3333333,292.88547,755.05813)"
           clip-path="url(#clipPath32)" />
        <path
           id="path33"
           d="M 0,0 H 38.49"
           style="fill:none;stroke:#231f20;stroke-width:0.5;stroke-linecap:butt;stroke-linejoin:miter;stroke-miterlimit:4;stroke-dasharray:none;stroke-opacity:1"
           transform="matrix(1.3333333,0,0,-1.3333333,399.65293,755.05813)"
           clip-path="url(#clipPath34)" />
        <path
           id="path35"
           d="m 0,0 -1.095,1.803 0.061,0.04 2.937,-1.167 C 2.927,0.451 3.951,0.227 4.975,0 3.951,-0.225 2.927,-0.449 1.903,-0.676 l -2.937,-1.166 -0.061,0.031 z"
           style="fill:#231f20;fill-opacity:1;fill-rule:nonzero;stroke:none"
           transform="matrix(1.3333333,0,0,-1.3333333,450.8652,755.05813)"
           clip-path="url(#clipPath36)" />
        <path
           id="path37"
           d="M 0,0 H 20.892 V -27.684 H -193.059 V 3.314"
           style="fill:none;stroke:#231f20;stroke-width:0.5;stroke-linecap:butt;stroke-linejoin:miter;stroke-miterlimit:4;stroke-dasharray:none;stroke-opacity:1"
           transform="matrix(1.3333333,0,0,-1.3333333,528.76107,759.14667)"
           clip-path="url(#clipPath38)" />
        <path
           id="path39"
           d="m 299.302,168.036 h -74.466 v 42.919 h 74.466 z"
           style="fill:#e6f7fd;fill-opacity:1;fill-rule:nonzero;stroke:none"
           transform="matrix(1.3333333,0,0,-1.3333333,0,992)"
           clip-path="url(#clipPath40)" />
        <path
           id="path41"
           d="M 0,0 H -74.466 V 42.919 H 0 Z"
           style="fill:none;stroke:#231f20;stroke-width:0.75;stroke-linecap:butt;stroke-linejoin:miter;stroke-miterlimit:4;stroke-dasharray:none;stroke-opacity:1"
           transform="matrix(1.3333333,0,0,-1.3333333,399.06867,767.95187)"
           clip-path="url(#clipPath42)" />
        <path
           id="path43"
           d="m 396.512,159.233 h -53.19 v 30.813 h 53.19 z"
           style="fill:#e6f7fd;fill-opacity:1;fill-rule:nonzero;stroke:none"
           transform="matrix(1.3333333,0,0,-1.3333333,0,992)"
           clip-path="url(#clipPath44)" />
        <path
           id="path45"
           d="M 0,0 H -53.19 V 30.813 H 0 Z"
           style="fill:none;stroke:#231f20;stroke-width:0.75;stroke-linecap:butt;stroke-linejoin:miter;stroke-miterlimit:4;stroke-dasharray:none;stroke-opacity:1"
           transform="matrix(1.3333333,0,0,-1.3333333,528.682,779.6892)"
           clip-path="url(#clipPath46)" />
        <g
           id="g46"
           aria-label="Combinational&#10;circuit&#10;Memory&#10;elements&#10;Inputs&#10;Outputs"
           transform="matrix(1.3333333,0,0,1.3333333,314.74667,737.04507)">
          <path
             id="path47"
             d="M 5.4253516,-5.5884875 H 5.2612891 c -0.058594,0.5976562 -0.7382813,-0.058594 -1.8398438,-0.058594 -1.6875,0 -2.99999999,1.21875 -2.99999999,2.9414063 0,1.88671875 1.42968749,2.8359375 3.02343749,2.8359375 0.5507813,0 1.4882813,-0.17578125 2.2617188,-1.2539063 L 5.5659766,-1.25255 c -0.5039063,0.62109375 -1.1132813,1.08984375 -2.0507813,1.08984375 -1.2773437,0 -2.1210937,-1.00781255 -2.1210937,-2.67187505 0,-1.265625 0.6679687,-2.5195312 2.109375,-2.5195312 0.9609375,0 1.6875,0.6210937 1.8984375,1.546875 h 0.1640625 z m 1.4296875,3.4453125 c 0,-0.7148438 0.2695312,-1.453125 1.078125,-1.453125 0.9726562,0 1.21875,1.1835937 1.21875,2.0390625 0,0.59765625 -0.2929688,1.39453125 -1.0078125,1.39453125 -0.9726563,0 -1.2890625,-1.20703125 -1.2890625,-1.98046875 z m 3.0703125,0.28125 c 0,-1.2070313 -0.703125,-1.9804688 -1.9335938,-1.9804688 -1.0898437,0 -1.9101562,0.9023438 -1.9101562,1.9804688 0,1.1015625 0.796875,1.9453125 1.9101562,1.9453125 1.0898438,0 1.9335938,-0.85546875 1.9335938,-1.9453125 z m 0.4511714,1.86328125 h 1.875 v -0.1640625 c -0.421875,0 -0.597656,-0.0585938 -0.597656,-0.52734375 v -2.25 c 0.246094,-0.2109375 0.527344,-0.3984375 0.855469,-0.3984375 0.398437,0 0.703125,0.2226562 0.703125,0.7851562 V -0.69005 c 0,0.46875 -0.175781,0.52734375 -0.597656,0.52734375 v 0.1640625 h 1.875 v -0.1640625 c -0.410157,0 -0.574219,-0.0585938 -0.574219,-0.52734375 v -2.25 c 0.257812,-0.2578125 0.585937,-0.3984375 0.84375,-0.3984375 0.410156,0 0.703125,0.2226562 0.703125,0.7851562 V -0.69005 c 0,0.46875 -0.164063,0.52734375 -0.585938,0.52734375 v 0.1640625 h 1.875 v -0.1640625 c -0.410156,0 -0.585937,-0.0585938 -0.585937,-0.52734375 v -1.8398438 c 0,-0.9609375 -0.375,-1.3125 -1.007813,-1.3125 -0.398437,0 -0.75,0.2226563 -1.300781,0.6679688 -0.1875,-0.4453125 -0.457031,-0.6679688 -0.949219,-0.6679688 -0.503906,0 -0.878906,0.328125 -1.253906,0.6210938 v -0.6210938 c -0.386719,0.1289063 -0.832031,0.2929688 -1.277344,0.375 V -3.31505 h 0.08203 c 0.375,0 0.492187,0.140625 0.492187,0.4453125 V -0.69005 c 0,0.46875 -0.164062,0.52734375 -0.574219,0.52734375 z M 18.28375,-2.9752063 c 0,-0.070312 0.363281,-0.3632812 0.820312,-0.3632812 0.855469,0 1.230469,0.8554687 1.230469,1.59375 0,0.7382812 -0.316406,1.58203125 -1.171875,1.58203125 -0.539062,0 -0.878906,-0.31640625 -0.878906,-0.50390625 z m -0.703125,2.55468755 C 17.967344,-0.1041125 18.447812,0.0833875 18.94,0.0833875 c 1.03125,0 2.097656,-0.7734375 2.097656,-2.25 0,-0.8320313 -0.527344,-1.6757813 -1.429687,-1.6757813 -0.574219,0 -0.890625,0.2109375 -1.324219,0.5507813 v -2.4257813 c -0.375,0.09375 -0.832031,0.2578125 -1.253906,0.3398438 v 0.1640625 h 0.09375 c 0.222656,0 0.457031,0.046875 0.457031,0.3046875 z M 21.500547,-3.31505 h 0.105469 c 0.375,0 0.492187,0.140625 0.492187,0.4453125 V -0.69005 c 0,0.46875 -0.164062,0.52734375 -0.597656,0.52734375 v 0.1640625 h 1.898437 v -0.1640625 c -0.433593,0 -0.597656,-0.0585938 -0.597656,-0.52734375 v -3.1523438 c -0.386719,0.1289063 -0.84375,0.2929688 -1.300781,0.375 z m 0.492187,-1.96875 c 0,0.234375 0.1875,0.421875 0.433594,0.421875 0.234375,0 0.433594,-0.1875 0.433594,-0.421875 0,-0.2460938 -0.199219,-0.4335938 -0.433594,-0.4335938 -0.246094,0 -0.433594,0.1875 -0.433594,0.4335938 z m 1.731446,5.28515625 h 1.875 v -0.1640625 c -0.421875,0 -0.585938,-0.0585938 -0.585938,-0.52734375 v -2.25 c 0.234375,-0.2109375 0.515625,-0.3984375 0.84375,-0.3984375 0.410156,0 0.703125,0.2226562 0.703125,0.7851562 V -0.69005 c 0,0.46875 -0.164062,0.52734375 -0.585937,0.52734375 v 0.1640625 h 1.863281 v -0.1640625 c -0.398438,0 -0.574219,-0.0585938 -0.574219,-0.52734375 v -1.8398438 c 0,-0.9609375 -0.375,-1.3125 -1.007812,-1.3125 -0.503907,0 -0.867188,0.328125 -1.242188,0.6210938 v -0.6210938 c -0.398437,0.1289063 -0.84375,0.2929688 -1.289062,0.375 V -3.31505 h 0.09375 c 0.363281,0 0.492187,0.140625 0.492187,0.4453125 V -0.69005 c 0,0.46875 -0.175781,0.52734375 -0.585937,0.52734375 z m 5.361328,-0.99609375 c 0,-0.7265625 0.925781,-0.9726563 1.464844,-1.1953125 v 1.37109375 c 0,0.19921875 -0.433594,0.50390625 -0.785157,0.50390625 -0.445312,0 -0.679687,-0.24609375 -0.679687,-0.6796875 z m 2.167969,-1.4414063 c 0,-0.9023437 -0.328125,-1.40625 -1.3125,-1.40625 -0.515625,0 -1.382813,0.2460938 -1.382813,0.8789063 0,0.2226562 0.105469,0.3984375 0.339844,0.3984375 0.257812,0 0.363281,-0.1992188 0.363281,-0.421875 0,-0.09375 -0.02344,-0.1757813 -0.01172,-0.2695313 0.01172,-0.2695312 0.410157,-0.3398437 0.609375,-0.3398437 0.597657,0 0.691407,0.4335937 0.691407,0.7851562 v 0.421875 c -0.363282,0.1054688 -0.925782,0.2578125 -1.324219,0.46875 -0.46875,0.2460938 -0.855469,0.5859375 -0.855469,1.12500005 0,0.50390625 0.398438,0.87890625 0.902344,0.87890625 0.492187,0 0.914062,-0.24609375 1.289062,-0.52734375 0.01172,0.2578125 0.1875,0.52734375 0.46875,0.52734375 0.386719,0 0.644532,-0.1875 0.84375,-0.50390625 L 31.78082,-0.50255 c -0.07031,0.0820313 -0.175781,0.1875 -0.304687,0.1875 -0.210938,0 -0.222656,-0.2109375 -0.222656,-0.375 z m 1.517578,-1.0898437 v 2.5078125 c 0,0.5625 0.08203,1.1015625 0.761718,1.1015625 0.457032,0 0.738282,-0.29296875 1.007813,-0.64453125 L 34.399961,-0.643175 c -0.117188,0.12890625 -0.316406,0.28125 -0.503906,0.28125 -0.1875,0 -0.421875,-0.0820313 -0.421875,-0.6679688 v -2.4960937 h 0.890625 v -0.234375 H 33.47418 v -1.1367188 h -0.164063 c -0.222656,0.5390625 -0.632812,0.9960938 -1.113281,1.265625 v 0.1054688 z m 2.065429,0.2109375 h 0.105469 c 0.375,0 0.492188,0.140625 0.492188,0.4453125 V -0.69005 c 0,0.46875 -0.164063,0.52734375 -0.597657,0.52734375 v 0.1640625 h 1.898438 v -0.1640625 c -0.433594,0 -0.597656,-0.0585938 -0.597656,-0.52734375 v -3.1523438 c -0.386719,0.1289063 -0.84375,0.2929688 -1.300782,0.375 z m 0.492188,-1.96875 c 0,0.234375 0.1875,0.421875 0.433594,0.421875 0.234375,0 0.433593,-0.1875 0.433593,-0.421875 0,-0.2460938 -0.199218,-0.4335938 -0.433593,-0.4335938 -0.246094,0 -0.433594,0.1875 -0.433594,0.4335938 z m 2.645508,3.140625 c 0,-0.7148438 0.269531,-1.453125 1.078125,-1.453125 0.972656,0 1.21875,1.1835937 1.21875,2.0390625 0,0.59765625 -0.292969,1.39453125 -1.007813,1.39453125 -0.972656,0 -1.289062,-1.20703125 -1.289062,-1.98046875 z m 3.070312,0.28125 c 0,-1.2070313 -0.703125,-1.9804688 -1.933594,-1.9804688 -1.089843,0 -1.910156,0.9023438 -1.910156,1.9804688 0,1.1015625 0.796875,1.9453125 1.910156,1.9453125 1.089844,0 1.933594,-0.85546875 1.933594,-1.9453125 z m 0.462891,1.86328125 h 1.875 v -0.1640625 c -0.421875,0 -0.585938,-0.0585938 -0.585938,-0.52734375 v -2.25 c 0.234375,-0.2109375 0.515625,-0.3984375 0.84375,-0.3984375 0.410157,0 0.703125,0.2226562 0.703125,0.7851562 V -0.69005 c 0,0.46875 -0.164062,0.52734375 -0.585937,0.52734375 v 0.1640625 h 1.863281 v -0.1640625 c -0.398437,0 -0.574219,-0.0585938 -0.574219,-0.52734375 v -1.8398438 c 0,-0.9609375 -0.375,-1.3125 -1.007812,-1.3125 -0.503906,0 -0.867188,0.328125 -1.242188,0.6210938 v -0.6210938 c -0.398437,0.1289063 -0.84375,0.2929688 -1.289062,0.375 V -3.31505 h 0.09375 c 0.363281,0 0.492187,0.140625 0.492187,0.4453125 V -0.69005 c 0,0.46875 -0.175781,0.52734375 -0.585937,0.52734375 z m 5.361328,-0.99609375 c 0,-0.7265625 0.925781,-0.9726563 1.464844,-1.1953125 v 1.37109375 c 0,0.19921875 -0.433594,0.50390625 -0.785157,0.50390625 -0.445312,0 -0.679687,-0.24609375 -0.679687,-0.6796875 z m 2.167969,-1.4414063 c 0,-0.9023437 -0.328125,-1.40625 -1.3125,-1.40625 -0.515625,0 -1.382813,0.2460938 -1.382813,0.8789063 0,0.2226562 0.105469,0.3984375 0.339844,0.3984375 0.257812,0 0.363281,-0.1992188 0.363281,-0.421875 0,-0.09375 -0.02344,-0.1757813 -0.01172,-0.2695313 0.01172,-0.2695312 0.410157,-0.3398437 0.609375,-0.3398437 0.597657,0 0.691407,0.4335937 0.691407,0.7851562 v 0.421875 c -0.363282,0.1054688 -0.925782,0.2578125 -1.324219,0.46875 -0.46875,0.2460938 -0.855469,0.5859375 -0.855469,1.12500005 0,0.50390625 0.398438,0.87890625 0.902344,0.87890625 0.492187,0 0.914062,-0.24609375 1.289062,-0.52734375 0.01172,0.2578125 0.1875,0.52734375 0.46875,0.52734375 0.386719,0 0.644532,-0.1875 0.84375,-0.50390625 L 49.564023,-0.50255 c -0.07031,0.0820313 -0.175781,0.1875 -0.304687,0.1875 -0.210938,0 -0.222656,-0.2109375 -0.222656,-0.375 z m 1.517578,1.7460938 c 0,0.46875 -0.164063,0.52734375 -0.597656,0.52734375 v 0.1640625 h 1.898437 v -0.1640625 c -0.433594,0 -0.597656,-0.0585938 -0.597656,-0.52734375 V -5.7173938 C 50.917539,-5.611925 50.43707,-5.4595813 50.003477,-5.37755 v 0.1640625 h 0.09375 c 0.222656,0 0.457031,0.046875 0.457031,0.3046875 z M 17.293516,5.1576062 c -1.089844,0 -1.863282,0.8554688 -1.863282,1.921875 0,1.7109375 1.066407,2.0039063 1.582032,2.0039063 0.808593,0 1.242187,-0.4921875 1.640625,-1.2773438 l -0.152344,-0.09375 c -0.222656,0.421875 -0.644531,0.7617188 -1.148438,0.7617188 -0.867187,0 -1.265625,-0.8789063 -1.265625,-1.6289063 0,-0.6328125 0.304688,-1.3945312 1.042969,-1.3945312 0.269531,0 0.539063,0.1289062 0.539063,0.4101562 0,0.2460938 0.152343,0.5039063 0.421875,0.5039063 0.234375,0 0.410156,-0.1757813 0.410156,-0.4335938 0,-0.5507812 -0.773438,-0.7734375 -1.207031,-0.7734375 z M 18.898984,5.68495 h 0.105469 c 0.375,0 0.492188,0.140625 0.492188,0.4453125 V 8.30995 c 0,0.46875 -0.164063,0.5273437 -0.597657,0.5273437 v 0.1640625 h 1.898438 V 8.8372937 c -0.433594,0 -0.597656,-0.058594 -0.597656,-0.5273437 V 5.1576062 c -0.386719,0.1289063 -0.84375,0.2929688 -1.300782,0.375 z M 19.391172,3.7162 c 0,0.234375 0.1875,0.421875 0.433594,0.421875 0.234375,0 0.433593,-0.1875 0.433593,-0.421875 0,-0.2460938 -0.199218,-0.4335938 -0.433593,-0.4335938 -0.246094,0 -0.433594,0.1875 -0.433594,0.4335938 z m 1.731445,5.2851562 h 2.015625 V 8.8372937 c -0.585937,0 -0.679687,-0.082031 -0.679687,-0.7148437 V 6.2591687 c 0,-0.046875 0.316406,-0.5507812 0.609375,-0.5507812 0.09375,0 0.152343,0.046875 0.210937,0.1054687 0.07031,0.058594 0.140625,0.1171875 0.269531,0.1171875 0.199219,0 0.386719,-0.1523437 0.386719,-0.3632812 0,-0.2695313 -0.234375,-0.4101563 -0.46875,-0.4101563 -0.398437,0 -0.773437,0.4570313 -1.007812,0.7148438 V 5.1576062 h -0.03516 C 22.013242,5.2982312 21.56793,5.4271375 21.122617,5.544325 v 0.1640625 c 0.5625,0 0.632813,0.070312 0.632813,0.6445312 v 1.7578125 c 0,0.5859375 -0.02344,0.703125 -0.632813,0.7265625 z m 4.939453,-3.84375 c -1.089843,0 -1.863281,0.8554688 -1.863281,1.921875 0,1.7109375 1.066406,2.0039063 1.582031,2.0039063 0.808594,0 1.242188,-0.4921875 1.640625,-1.2773438 l -0.152343,-0.09375 c -0.222657,0.421875 -0.644532,0.7617188 -1.148438,0.7617188 -0.867187,0 -1.265625,-0.8789063 -1.265625,-1.6289063 0,-0.6328125 0.304688,-1.3945312 1.042969,-1.3945312 0.269531,0 0.539062,0.1289062 0.539062,0.4101562 0,0.2460938 0.152344,0.5039063 0.421875,0.5039063 0.234375,0 0.410157,-0.1757813 0.410157,-0.4335938 0,-0.5507812 -0.773438,-0.7734375 -1.207032,-0.7734375 z m 5.144532,0 -1.277344,0.082031 V 5.4037 c 0.257812,0 0.574219,0.035156 0.574219,0.421875 v 2.25 c -0.09375,0.1875 -0.433594,0.5039062 -0.855469,0.5039062 -0.46875,0 -0.691406,-0.3164062 -0.691406,-0.75 v -2.671875 l -1.289063,0.082031 V 5.4037 c 0.269531,0 0.585938,0.035156 0.585938,0.421875 v 2.2617187 c 0,0.6679688 0.445312,0.9960938 1.089843,0.9960938 0.515625,0 0.84375,-0.3164063 1.183594,-0.65625 v 0.65625 h 0.03516 C 30.948789,8.9427625 31.370664,8.8372937 31.78082,8.731825 V 8.5677625 c -0.292968,-0.011719 -0.574218,-0.046875 -0.574218,-0.375 z M 32.114805,5.68495 h 0.105468 c 0.375,0 0.492188,0.140625 0.492188,0.4453125 V 8.30995 c 0,0.46875 -0.164063,0.5273437 -0.597656,0.5273437 v 0.1640625 h 1.898437 V 8.8372937 c -0.433594,0 -0.597656,-0.058594 -0.597656,-0.5273437 V 5.1576062 c -0.386719,0.1289063 -0.84375,0.2929688 -1.300781,0.375 z M 32.606992,3.7162 c 0,0.234375 0.1875,0.421875 0.433594,0.421875 0.234375,0 0.433594,-0.1875 0.433594,-0.421875 0,-0.2460938 -0.199219,-0.4335938 -0.433594,-0.4335938 -0.246094,0 -0.433594,0.1875 -0.433594,0.4335938 z m 2.332031,1.7578125 V 7.981825 c 0,0.5625 0.08203,1.1015625 0.761719,1.1015625 0.457031,0 0.738281,-0.2929688 1.007813,-0.6445313 L 36.56793,8.356825 c -0.117188,0.1289062 -0.316407,0.28125 -0.503907,0.28125 -0.1875,0 -0.421875,-0.082031 -0.421875,-0.6679688 V 5.4740125 h 0.890625 V 5.2396375 H 35.642148 V 4.1029187 h -0.164062 c -0.222656,0.5390625 -0.632813,0.9960938 -1.113281,1.265625 v 0.1054688 z m 84.216797,4.0136719 c 0.72656,0 0.76172,0.3164062 0.76172,1.0429686 v 3.046875 c 0,0.808594 0,1.089844 -0.76172,1.113281 v 0.164063 h 1.89844 v -0.164063 c -0.77344,-0.02344 -0.77344,-0.304687 -0.77344,-1.113281 v -3.199219 h 0.0117 l 2.13281,4.476563 h 0.14063 l 2.10937,-4.664063 h 0.0117 v 3.539063 c 0,0.609375 -0.0234,0.960937 -0.77344,0.960937 v 0.164063 h 2.42578 v -0.164063 c -0.77343,-0.02344 -0.82031,-0.269531 -0.82031,-0.960937 v -3.445313 c 0,-0.6210934 0.1875,-0.7968746 0.82031,-0.7968746 V 9.3353406 h -1.6289 l -1.96875,4.2070314 -1.99219,-4.2070314 h -1.59375 z m 8.29102,2.8124996 c 0.0117,-0.503906 0.43359,-1.042968 0.96093,-1.042968 0.65625,0 0.86719,0.457031 0.86719,1.042968 z m 2.60156,0.246094 c -0.0117,-0.867187 -0.58594,-1.535156 -1.45313,-1.535156 -1.17187,0 -1.76953,1.042969 -1.76953,2.109375 0,1.042969 0.63281,1.816406 1.71094,1.816406 0.79687,0 1.39453,-0.703125 1.71094,-1.359375 l -0.14063,-0.09375 c -0.26953,0.421875 -0.6914,0.84375 -1.38281,0.84375 -0.87891,0 -1.28906,-0.785156 -1.28906,-1.6875 v -0.09375 z m 0.62402,2.308594 h 1.875 v -0.164063 c -0.42187,0 -0.59765,-0.05859 -0.59765,-0.527343 v -2.25 c 0.24609,-0.210938 0.52734,-0.398438 0.85546,-0.398438 0.39844,0 0.70313,0.222656 0.70313,0.785156 v 1.863282 c 0,0.46875 -0.17578,0.527343 -0.59766,0.527343 v 0.164063 h 1.875 v -0.164063 c -0.41015,0 -0.57422,-0.05859 -0.57422,-0.527343 v -2.25 c 0.25782,-0.257813 0.58594,-0.398438 0.84375,-0.398438 0.41016,0 0.70313,0.222656 0.70313,0.785156 v 1.863282 c 0,0.46875 -0.16406,0.527343 -0.58594,0.527343 v 0.164063 h 1.875 v -0.164063 c -0.41015,0 -0.58594,-0.05859 -0.58594,-0.527343 v -1.839844 c 0,-0.960938 -0.375,-1.3125 -1.00781,-1.3125 -0.39844,0 -0.75,0.222656 -1.30078,0.667969 -0.1875,-0.445313 -0.45703,-0.667969 -0.94922,-0.667969 -0.5039,0 -0.8789,0.328125 -1.2539,0.621094 v -0.621094 c -0.38672,0.128906 -0.83204,0.292969 -1.27735,0.375 v 0.152344 h 0.082 c 0.375,0 0.49219,0.140625 0.49219,0.445312 v 2.179688 c 0,0.46875 -0.16406,0.527343 -0.57422,0.527343 z m 7.59082,-2.144531 c 0,-0.714844 0.26953,-1.453125 1.07813,-1.453125 0.97265,0 1.21875,1.183593 1.21875,2.039062 0,0.597656 -0.29297,1.394531 -1.00782,1.394531 -0.97265,0 -1.28906,-1.207031 -1.28906,-1.980468 z m 3.07031,0.28125 c 0,-1.207032 -0.70312,-1.980469 -1.93359,-1.980469 -1.08984,0 -1.91016,0.902344 -1.91016,1.980469 0,1.101562 0.79688,1.945312 1.91016,1.945312 1.08984,0 1.93359,-0.855469 1.93359,-1.945312 z m 0.4629,1.863281 h 2.01562 v -0.164063 c -0.58594,0 -0.67969,-0.08203 -0.67969,-0.714843 v -1.863282 c 0,-0.04687 0.31641,-0.550781 0.60938,-0.550781 0.0937,0 0.15234,0.04687 0.21094,0.105469 0.0703,0.05859 0.14062,0.117187 0.26953,0.117187 0.19922,0 0.38672,-0.152343 0.38672,-0.363281 0,-0.269531 -0.23438,-0.410156 -0.46875,-0.410156 -0.39844,0 -0.77344,0.457031 -1.00782,0.714844 v -0.714844 h -0.0352 c -0.41016,0.140625 -0.85547,0.269531 -1.30078,0.386719 v 0.164062 c 0.5625,0 0.63281,0.07031 0.63281,0.644531 v 1.757813 c 0,0.585937 -0.0234,0.703125 -0.63281,0.726562 z m 3.04101,-3.761719 v 0.164063 c 0.29297,0.02344 0.39844,0.246093 0.50391,0.503906 l 1.35937,3.164062 -0.0937,0.257813 c -0.15234,0.398437 -0.33984,0.9375 -0.64453,0.9375 -0.24609,0 -0.28125,-0.164063 -0.5625,-0.164063 -0.22266,0 -0.375,0.152344 -0.375,0.375 0,0.257813 0.23438,0.398438 0.49219,0.398438 0.22265,0 0.42187,-0.05859 0.59765,-0.199219 0.36329,-0.28125 0.60938,-0.890625 0.83204,-1.476562 l 1.16015,-3.140625 c 0.11719,-0.316407 0.1875,-0.609375 0.51563,-0.65625 v -0.164063 h -1.21875 v 0.164063 c 0.19922,0 0.44531,0.02344 0.44531,0.257812 0,0.09375 -0.0117,0.199219 -0.12891,0.527344 l -0.66797,1.921875 -0.84375,-2.039063 c -0.0703,-0.175781 -0.11718,-0.316406 -0.11718,-0.410156 0,-0.175781 0.11718,-0.257812 0.46875,-0.257812 V 11.093153 Z M 119.2232,21.300184 c 0.0117,-0.503906 0.4336,-1.042968 0.96094,-1.042968 0.65625,0 0.86719,0.457031 0.86719,1.042968 z m 2.60157,0.246094 c -0.0117,-0.867187 -0.58594,-1.535156 -1.45313,-1.535156 -1.17187,0 -1.76953,1.042969 -1.76953,2.109375 0,1.042969 0.63281,1.816406 1.71094,1.816406 0.79687,0 1.39453,-0.703125 1.71093,-1.359375 l -0.14062,-0.09375 c -0.26953,0.421875 -0.69141,0.84375 -1.38281,0.84375 -0.87891,0 -1.28907,-0.785156 -1.28907,-1.6875 v -0.09375 z m 1.23339,1.617188 c 0,0.46875 -0.16406,0.527343 -0.59765,0.527343 v 0.164063 h 1.89844 v -0.164063 c -0.4336,0 -0.59766,-0.05859 -0.59766,-0.527343 v -5.027344 c -0.33984,0.105469 -0.82031,0.257812 -1.25391,0.339844 v 0.164062 h 0.0937 c 0.22266,0 0.45703,0.04687 0.45703,0.304688 z m 2.3877,-1.863282 c 0.0117,-0.503906 0.43359,-1.042968 0.96094,-1.042968 0.65625,0 0.86718,0.457031 0.86718,1.042968 z m 2.60156,0.246094 c -0.0117,-0.867187 -0.58594,-1.535156 -1.45312,-1.535156 -1.17188,0 -1.76953,1.042969 -1.76953,2.109375 0,1.042969 0.63281,1.816406 1.71093,1.816406 0.79688,0 1.39453,-0.703125 1.71094,-1.359375 l -0.14062,-0.09375 c -0.26954,0.421875 -0.69141,0.84375 -1.38282,0.84375 -0.8789,0 -1.28906,-0.785156 -1.28906,-1.6875 v -0.09375 z m 0.62403,2.308594 h 1.875 v -0.164063 c -0.42188,0 -0.59766,-0.05859 -0.59766,-0.527343 v -2.25 c 0.24609,-0.210938 0.52734,-0.398438 0.85547,-0.398438 0.39844,0 0.70312,0.222656 0.70312,0.785156 v 1.863282 c 0,0.46875 -0.17578,0.527343 -0.59765,0.527343 v 0.164063 h 1.875 v -0.164063 c -0.41016,0 -0.57422,-0.05859 -0.57422,-0.527343 v -2.25 c 0.25781,-0.257813 0.58594,-0.398438 0.84375,-0.398438 0.41015,0 0.70312,0.222656 0.70312,0.785156 v 1.863282 c 0,0.46875 -0.16406,0.527343 -0.58593,0.527343 v 0.164063 h 1.875 v -0.164063 c -0.41016,0 -0.58594,-0.05859 -0.58594,-0.527343 v -1.839844 c 0,-0.960938 -0.375,-1.3125 -1.00781,-1.3125 -0.39844,0 -0.75,0.222656 -1.30079,0.667969 -0.1875,-0.445313 -0.45703,-0.667969 -0.94921,-0.667969 -0.50391,0 -0.87891,0.328125 -1.25391,0.621094 v -0.621094 c -0.38672,0.128906 -0.83203,0.292969 -1.27734,0.375 v 0.152344 h 0.082 c 0.375,0 0.49218,0.140625 0.49218,0.445312 v 2.179688 c 0,0.46875 -0.16406,0.527343 -0.57421,0.527343 z m 7.43847,-2.554688 c 0.0117,-0.503906 0.4336,-1.042968 0.96094,-1.042968 0.65625,0 0.86719,0.457031 0.86719,1.042968 z m 2.60156,0.246094 c -0.0117,-0.867187 -0.58593,-1.535156 -1.45312,-1.535156 -1.17188,0 -1.76953,1.042969 -1.76953,2.109375 0,1.042969 0.63281,1.816406 1.71094,1.816406 0.79687,0 1.39453,-0.703125 1.71093,-1.359375 l -0.14062,-0.09375 c -0.26953,0.421875 -0.69141,0.84375 -1.38281,0.84375 -0.87891,0 -1.28907,-0.785156 -1.28907,-1.6875 v -0.09375 z m 0.63575,2.308594 h 1.875 v -0.164063 c -0.42188,0 -0.58594,-0.05859 -0.58594,-0.527343 v -2.25 c 0.23437,-0.210938 0.51562,-0.398438 0.84375,-0.398438 0.41016,0 0.70312,0.222656 0.70312,0.785156 v 1.863282 c 0,0.46875 -0.16406,0.527343 -0.58593,0.527343 v 0.164063 h 1.86328 v -0.164063 c -0.39844,0 -0.57422,-0.05859 -0.57422,-0.527343 v -1.839844 c 0,-0.960938 -0.375,-1.3125 -1.00781,-1.3125 -0.50391,0 -0.86719,0.328125 -1.24219,0.621094 v -0.621094 c -0.39844,0.128906 -0.84375,0.292969 -1.28906,0.375 v 0.152344 h 0.0937 c 0.36328,0 0.49218,0.140625 0.49218,0.445312 v 2.179688 c 0,0.46875 -0.17578,0.527343 -0.58593,0.527343 z m 5.04785,-3.527344 v 2.507813 c 0,0.5625 0.082,1.101562 0.76172,1.101562 0.45703,0 0.73828,-0.292969 1.00781,-0.644531 l -0.14063,-0.08203 c -0.11718,0.128906 -0.3164,0.28125 -0.5039,0.28125 -0.1875,0 -0.42188,-0.08203 -0.42188,-0.667969 v -2.496094 h 0.89063 v -0.234375 h -0.89063 v -1.136719 h -0.16406 c -0.22266,0.539063 -0.63281,0.996094 -1.11328,1.265625 v 0.105469 z m 4.40918,-0.316406 h -0.14063 c -0.0117,0.09375 -0.0703,0.128906 -0.15234,0.128906 -0.11719,0 -0.24609,-0.03516 -0.36328,-0.05859 -0.12891,-0.03516 -0.25781,-0.07031 -0.39844,-0.07031 -0.59766,0 -1.18359,0.339844 -1.18359,0.996094 0,1.230468 1.99218,1.21875 1.99218,2.132812 0,0.375 -0.35156,0.550781 -0.6914,0.550781 -0.58594,0 -1.05469,-0.527343 -1.06641,-1.089843 h -0.1875 l 0.0469,1.253906 h 0.16406 c 0.0117,-0.05859 0,-0.117188 0.11719,-0.117188 0.1289,0 0.57422,0.199219 1.00781,0.199219 0.59766,0 1.16016,-0.398437 1.16016,-1.160156 0,-1.160156 -1.98047,-1.207031 -1.98047,-2.039063 0,-0.316406 0.29297,-0.480468 0.60937,-0.480468 0.57422,0 0.79688,0.398437 0.94922,0.890625 h 0.15234 z m 0,0"
             style="fill:#231f20;fill-opacity:1;fill-rule:nonzero;stroke:none" />
          <path
             id="path48"
             d="m -69.431094,-8.1841906 h 2.320313 l 0.03516,-0.140625 c -0.597656,0 -0.75,-0.1523438 -0.75,-0.3515625 0,-0.070312 0.02344,-0.1992188 0.04687,-0.3046875 l 1.089844,-3.9257814 c 0.09375,-0.328125 0.199218,-0.621094 0.773437,-0.667969 l 0.04687,-0.128906 h -2.238281 l -0.03516,0.128906 c 0.5625,0.02344 0.703125,0.164063 0.703125,0.375 0,0.09375 -0.02344,0.1875 -0.05859,0.292969 l -1.113281,3.9960939 c -0.105469,0.3984375 -0.175782,0.5390625 -0.785157,0.5859375 z m 3.884766,0 c 0.269531,-0.9609375 0.515625,-1.4765625 0.691406,-1.7929688 0.421875,-0.7499996 1.148438,-1.4882816 1.546875,-1.4882816 0.07031,0 0.210938,0.05859 0.210938,0.210938 0,0.152344 -0.140625,0.679687 -0.1875,0.832031 l -0.421875,1.5585939 c -0.02344,0.1171875 -0.04687,0.2460937 -0.04687,0.3398437 0,0.1757813 0.09375,0.421875 0.375,0.421875 0.550781,0 0.9375,-0.5742187 1.207031,-1.0078125 l -0.128906,-0.1171875 c -0.175782,0.2929688 -0.445313,0.6796875 -0.644532,0.6796875 -0.09375,0 -0.128906,-0.1054687 -0.128906,-0.1875 0,-0.070312 0.01172,-0.1875 0.04687,-0.2929687 l 0.351563,-1.2773434 c 0.05859,-0.199219 0.257812,-0.890625 0.257812,-1.101563 0,-0.351562 -0.128906,-0.503906 -0.492187,-0.503906 -0.351563,0 -0.785157,0.28125 -1.171875,0.621094 -0.363282,0.316406 -0.65625,0.726562 -0.855469,1.054687 l -0.01172,-0.01172 0.363281,-1.3125 c 0.03516,-0.09375 0.05859,-0.199218 0.05859,-0.246093 0,-0.05859 -0.02344,-0.09375 -0.09375,-0.09375 -0.05859,0 -0.199219,0.04687 -0.351562,0.08203 -0.199219,0.04687 -0.527344,0.105469 -0.878907,0.117187 l -0.02344,0.140625 c 0.339844,0 0.539062,0 0.539062,0.257813 0,0.07031 -0.01172,0.140625 -0.03516,0.210937 l -0.855469,2.9062504 z m 6.966797,-2.6015624 c 0,0.8789061 -0.703125,2.4843749 -1.746094,2.4843749 -0.304688,0 -0.480469,-0.070312 -0.480469,-0.2226563 0,-0.070312 0.03516,-0.2226562 0.07031,-0.3632812 l 0.292968,-1.2070314 c 0.152344,-0.65625 0.632813,-1.453125 1.289063,-1.453125 0.46875,0 0.574219,0.375 0.574219,0.761719 z m -3.914063,4.3242186 h 1.875 l 0.04687,-0.140625 c -0.445312,0 -0.667969,-0.023437 -0.667969,-0.2695312 0,-0.046875 0.03516,-0.2109375 0.04687,-0.2929688 l 0.269532,-1.0664062 c 0.1875,0.09375 0.398437,0.1289062 0.597656,0.1289062 1.347656,0 2.472656,-1.5117187 2.472656,-2.7656246 0,-0.609375 -0.328125,-1.042969 -0.949219,-1.042969 -0.585937,0 -0.972656,0.328125 -1.3125,0.714844 h -0.02344 l 0.128906,-0.515625 c 0.01172,-0.04687 0.03516,-0.117188 0.03516,-0.140625 0,-0.03516 -0.01172,-0.05859 -0.04687,-0.05859 -0.152343,0 -0.65625,0.175781 -1.265625,0.210937 l -0.03516,0.140625 c 0.421875,0 0.527344,0.09375 0.527344,0.222657 0,0.03516 -0.01172,0.105468 -0.05859,0.292968 l -0.984375,3.8671879 c -0.07031,0.2460937 -0.152344,0.5625 -0.609375,0.5742187 z m 9.114258,-5.3671876 h -0.644531 c -0.316406,1.488281 -1.417969,3.2812501 -2.144531,3.2812501 -0.199219,0 -0.234375,-0.1523437 -0.234375,-0.234375 0,-0.046875 0.03516,-0.1992187 0.08203,-0.3632812 l 0.632812,-2.4140629 c 0.03516,-0.09375 0.05859,-0.199218 0.05859,-0.246093 0,-0.05859 -0.02344,-0.09375 -0.09375,-0.09375 -0.05859,0 -0.199219,0.04687 -0.351562,0.08203 -0.199219,0.04687 -0.527344,0.105469 -0.878907,0.117187 l -0.02344,0.140625 c 0.339844,0 0.539062,0 0.539062,0.257813 0,0.07031 -0.01172,0.140625 -0.07031,0.316406 l -0.503906,1.8281251 c -0.05859,0.2226563 -0.07031,0.3984375 -0.07031,0.5039063 0,0.328125 0.175781,0.5507812 0.515625,0.5507812 0.820313,0 1.6875,-1.265625 2.0625,-1.8867187 h 0.01172 l -0.328125,1.125 c -0.03516,0.1171875 -0.05859,0.2460937 -0.05859,0.3398437 0,0.1757813 0.105469,0.421875 0.386719,0.421875 0.539062,0 0.972656,-0.5390625 1.277344,-0.9492187 l -0.117188,-0.1054688 c -0.199219,0.2578125 -0.492187,0.609375 -0.691406,0.609375 -0.128906,0 -0.175781,-0.1054687 -0.175781,-0.1875 0,-0.070312 0.02344,-0.1992187 0.04687,-0.2929687 z m 2.162109,2.7539064 c -0.175781,0.2109375 -0.410156,0.5273437 -0.609375,0.5273437 -0.128906,0 -0.164062,-0.1054687 -0.164062,-0.1992187 0,-0.058594 0.02344,-0.2109375 0.03516,-0.28125 l 0.65625,-2.5312504 h 0.667969 l 0.07031,-0.269531 h -0.644531 l 0.234375,-0.960937 h -0.164062 c -0.28125,0.550781 -0.738282,0.984375 -1.347657,1.089843 l -0.03516,0.140625 h 0.574219 l -0.679688,2.6953129 c -0.03516,0.1171875 -0.04687,0.2460937 -0.04687,0.3398437 0,0.1757813 0.09375,0.421875 0.375,0.421875 0.539063,0 0.949219,-0.5507812 1.183594,-0.8554687 z m 3.383789,-2.8359374 h -0.140625 c -0.01172,0.01172 -0.02344,0.02344 -0.03516,0.07031 -0.01172,0.05859 -0.105469,0.105469 -0.199219,0.105469 -0.07031,0 -0.1875,-0.04687 -0.328125,-0.09375 -0.128906,-0.03516 -0.304687,-0.08203 -0.480468,-0.08203 -0.515625,0 -1.042969,0.339844 -1.042969,0.890625 0,0.351562 0.28125,0.773437 0.550781,1.0898436 0.386719,0.4453125 0.515625,0.703125 0.515625,0.9960938 0,0.3515625 -0.210937,0.6328125 -0.65625,0.6328125 -0.621094,0 -0.785156,-0.5976563 -0.84375,-1.1132813 H -50.6225 l -0.152344,1.3125 h 0.140625 c 0,-0.082031 0.07031,-0.1523437 0.140625,-0.1523437 0.07031,0 0.480469,0.1523437 0.890625,0.1523437 0.632813,0 1.242188,-0.3867187 1.242188,-1.125 0,-0.3515625 -0.152344,-0.6328125 -0.527344,-1.1015626 -0.46875,-0.597656 -0.539063,-0.75 -0.539063,-0.925781 0,-0.304688 0.234375,-0.457031 0.503907,-0.457031 0.539062,0 0.761718,0.550781 0.773437,1.007812 h 0.140625 z m 234.082028,4.7402342 c 1.92188,0 3.64453,-2.0039062 3.64453,-3.7617192 0,-1.21875 -0.86718,-1.992187 -2.01562,-1.992187 -2.0625,0 -3.67969,1.933594 -3.67969,3.75 0,0.7382812 0.55078,2.0039062 2.05078,2.0039062 z m 0.082,-0.2695312 c -0.79687,0 -1.20703,-0.5625 -1.20703,-1.3945313 0,-1.5351567 0.91407,-3.8203127 2.6836,-3.8203127 0.8789,0 1.16015,0.550781 1.16015,1.464844 0,1.3125 -0.94922,3.75 -2.63672,3.75 z m 7.92774,-3.492188 h -0.64453 c -0.31641,1.4882817 -1.41797,3.2812505 -2.14453,3.2812505 -0.19922,0 -0.23438,-0.1523438 -0.23438,-0.234375 0,-0.046875 0.0352,-0.1992188 0.082,-0.3632813 l 0.63282,-2.4140622 c 0.0351,-0.09375 0.0586,-0.199219 0.0586,-0.246094 0,-0.05859 -0.0234,-0.09375 -0.0937,-0.09375 -0.0586,0 -0.19922,0.04687 -0.35156,0.08203 -0.19922,0.04687 -0.52735,0.105469 -0.87891,0.117188 l -0.0234,0.140625 c 0.33985,0 0.53907,0 0.53907,0.257812 0,0.07031 -0.0117,0.140625 -0.0703,0.316406 l -0.5039,1.8281255 c -0.0586,0.2226562 -0.0703,0.3984375 -0.0703,0.5039062 0,0.328125 0.17579,0.5507813 0.51563,0.5507813 0.82031,0 1.6875,-1.265625 2.0625,-1.8867188 h 0.0117 l -0.32813,1.125 c -0.0351,0.1171875 -0.0586,0.2460938 -0.0586,0.3398438 0,0.1757812 0.10547,0.421875 0.38672,0.421875 0.53906,0 0.97265,-0.5390625 1.27734,-0.9492188 l -0.11719,-0.1054687 c -0.19921,0.2578125 -0.49218,0.609375 -0.6914,0.609375 -0.12891,0 -0.17578,-0.1054688 -0.17578,-0.1875 0,-0.070312 0.0234,-0.1992188 0.0469,-0.2929688 z m 2.16504,2.7539067 c -0.17578,0.2109375 -0.41016,0.5273438 -0.60938,0.5273438 -0.1289,0 -0.16406,-0.1054688 -0.16406,-0.1992188 0,-0.058594 0.0234,-0.2109375 0.0352,-0.28125 l 0.65625,-2.5312497 h 0.66797 l 0.0703,-0.269532 h -0.64453 l 0.23437,-0.960937 h -0.16406 c -0.28125,0.550781 -0.73828,0.984375 -1.34766,1.089844 l -0.0351,0.140625 h 0.57422 l -0.67969,2.6953122 c -0.0352,0.1171875 -0.0469,0.2460938 -0.0469,0.3398438 0,0.1757812 0.0937,0.421875 0.375,0.421875 0.53907,0 0.94922,-0.5507813 1.1836,-0.8554688 z m 3.75879,-1.7109375 c 0,0.8789063 -0.70313,2.484375 -1.7461,2.484375 -0.30468,0 -0.48047,-0.070312 -0.48047,-0.2226562 0,-0.070312 0.0352,-0.2226563 0.0703,-0.3632813 l 0.29297,-1.2070312 c 0.15234,-0.65625 0.63281,-1.4531255 1.28906,-1.4531255 0.46875,0 0.57422,0.375 0.57422,0.7617192 z m -3.91407,4.3242188 h 1.875 l 0.0469,-0.140625 c -0.44531,0 -0.66797,-0.023437 -0.66797,-0.2695313 0,-0.046875 0.0352,-0.2109375 0.0469,-0.2929687 l 0.26953,-1.0664063 c 0.1875,0.09375 0.39843,0.1289063 0.59765,0.1289063 1.34766,0 2.47266,-1.5117188 2.47266,-2.765625 0,-0.609375 -0.32813,-1.042969 -0.94922,-1.042969 -0.58594,0 -0.97266,0.328125 -1.3125,0.714844 h -0.0234 l 0.12891,-0.515625 c 0.0117,-0.04687 0.0352,-0.117188 0.0352,-0.140625 0,-0.03516 -0.0117,-0.05859 -0.0469,-0.05859 -0.15234,0 -0.65625,0.175781 -1.26562,0.210938 l -0.0352,0.140625 c 0.42187,0 0.52734,0.09375 0.52734,0.222656 0,0.03516 -0.0117,0.105469 -0.0586,0.292969 l -0.98438,3.8671872 c -0.0703,0.2460938 -0.15234,0.5625 -0.60937,0.5742188 z m 9.11133,-5.367188 h -0.64453 c -0.3164,1.4882817 -1.41797,3.2812505 -2.14453,3.2812505 -0.19922,0 -0.23437,-0.1523438 -0.23437,-0.234375 0,-0.046875 0.0351,-0.1992188 0.082,-0.3632813 l 0.63281,-2.4140622 c 0.0352,-0.09375 0.0586,-0.199219 0.0586,-0.246094 0,-0.05859 -0.0234,-0.09375 -0.0937,-0.09375 -0.0586,0 -0.19922,0.04687 -0.35156,0.08203 -0.19922,0.04687 -0.52734,0.105469 -0.87891,0.117188 l -0.0234,0.140625 c 0.33984,0 0.53906,0 0.53906,0.257812 0,0.07031 -0.0117,0.140625 -0.0703,0.316406 l -0.50391,1.8281255 c -0.0586,0.2226562 -0.0703,0.3984375 -0.0703,0.5039062 0,0.328125 0.17578,0.5507813 0.51562,0.5507813 0.82032,0 1.6875,-1.265625 2.0625,-1.8867188 h 0.0117 l -0.32812,1.125 c -0.0352,0.1171875 -0.0586,0.2460938 -0.0586,0.3398438 0,0.1757812 0.10547,0.421875 0.38672,0.421875 0.53906,0 0.97266,-0.5390625 1.27735,-0.9492188 l -0.11719,-0.1054687 c -0.19922,0.2578125 -0.49219,0.609375 -0.69141,0.609375 -0.1289,0 -0.17578,-0.1054688 -0.17578,-0.1875 0,-0.070312 0.0234,-0.1992188 0.0469,-0.2929688 z m 2.16211,2.7539067 c -0.17578,0.2109375 -0.41015,0.5273438 -0.60937,0.5273438 -0.12891,0 -0.16407,-0.1054688 -0.16407,-0.1992188 0,-0.058594 0.0234,-0.2109375 0.0352,-0.28125 l 0.65625,-2.5312497 h 0.66797 l 0.0703,-0.269532 h -0.64453 l 0.23438,-0.960937 h -0.16407 c -0.28125,0.550781 -0.73828,0.984375 -1.34765,1.089844 l -0.0352,0.140625 h 0.57422 l -0.67969,2.6953122 c -0.0352,0.1171875 -0.0469,0.2460938 -0.0469,0.3398438 0,0.1757812 0.0937,0.421875 0.375,0.421875 0.53906,0 0.94922,-0.5507813 1.18359,-0.8554688 z m 3.38379,-2.8359377 h -0.14062 c -0.0117,0.01172 -0.0234,0.02344 -0.0352,0.07031 -0.0117,0.05859 -0.10547,0.105468 -0.19922,0.105468 -0.0703,0 -0.1875,-0.04687 -0.32812,-0.09375 -0.12891,-0.03516 -0.30469,-0.08203 -0.48047,-0.08203 -0.51563,0 -1.04297,0.339844 -1.04297,0.890625 0,0.3515627 0.28125,0.7734377 0.55078,1.089844 0.38672,0.4453125 0.51563,0.703125 0.51563,0.9960937 0,0.3515625 -0.21094,0.6328125 -0.65625,0.6328125 -0.6211,0 -0.78516,-0.5976562 -0.84375,-1.1132812 h -0.12891 l -0.15234,1.3125 h 0.14062 c 0,-0.082031 0.0703,-0.1523438 0.14063,-0.1523438 0.0703,0 0.48046,0.1523438 0.89062,0.1523438 0.63281,0 1.24219,-0.3867188 1.24219,-1.125 0,-0.3515625 -0.15235,-0.6328125 -0.52735,-1.1015625 -0.46875,-0.5976565 -0.53906,-0.7500005 -0.53906,-0.9257815 0,-0.304687 0.23438,-0.457031 0.50391,-0.457031 0.53906,0 0.76172,0.550781 0.77344,1.0078125 h 0.14062 z m 0,0"
             style="fill:#231f20;fill-opacity:1;fill-rule:nonzero;stroke:none" />
        </g>
      </g>
    </g>
    <path
       id="path49"
       d="m 0,0 h -15 m 567,0 h 15 M 0,-666 h -15 m 567,0 h 15 M 24,24 v 15 m 0,-729 v -15 M 528,24 v 15 m 0,-729 v -15"
       style="fill:none;stroke:#ffffff;stroke-width:1.25;stroke-linecap:butt;stroke-linejoin:miter;stroke-miterlimit:10;stroke-dasharray:none;stroke-opacity:1"
       transform="matrix(1.3333333,0,0,-1.3333333,20,52)"
       clip-path="url(#clipPath50)" />
    <path
       id="path51"
       d="m 0,0 h -15 m 567,0 h 15 M 0,-666 h -15 m 567,0 h 15 M 24,24 v 15 m 0,-729 v -15 M 528,24 v 15 m 0,-729 v -15"
       style="fill:none;stroke:#000000;stroke-width:0.25;stroke-linecap:butt;stroke-linejoin:miter;stroke-miterlimit:10;stroke-dasharray:none;stroke-opacity:1"
       transform="matrix(1.3333333,0,0,-1.3333333,20,52)"
       clip-path="url(#clipPath52)" />
  </g>
</svg>
