<svg xmlns="http://www.w3.org/2000/svg"
   xmlns:xlink="http://www.w3.org/1999/xlink"
   version="1.1"
   id="source-free-parallel-rlc-circuit" width="100%" height="100%"  viewBox="-6 -6 678 470">
<desc>
XCircuit Version 3.10
File "Documents/Schematics/circuit/notes/source-free-parallel-rlc-circuit.ps" Page 1
</desc>
<g stroke="black">
<path d="M0,0 L0,464 672,464 672,0 z" fill="#ffffff" stroke-width="2" stroke-linejoin="bevel" stroke-linecap="round" stroke="#ffffff" />
<path d="M32,288 L32,260 " fill="none" stroke-width="2" stroke-linejoin="bevel" stroke-linecap="round" stroke="#000000" />
<path d="M32,160 L32,188 " fill="none" stroke-width="2" stroke-linejoin="bevel" stroke-linecap="round" stroke="#000000" />
<path d="M32,188 L18,194 46,206 18,218 46,230 18,242 46,254 32,260 " fill="none" stroke-width="2" stroke-linejoin="bevel" stroke-linecap="round" stroke="#000000" />
<path d="M304,242 C324,246 324,262 304,266 " fill="none" stroke-width="2" stroke-linejoin="bevel" stroke-linecap="round" stroke="#000000" />
<path d="M304,242 C284,238 284,250 304,246 " fill="none" stroke-width="2" stroke-linejoin="bevel" stroke-linecap="round" stroke="#000000" />
<path d="M304,182 C324,186 324,202 304,206 " fill="none" stroke-width="2" stroke-linejoin="bevel" stroke-linecap="round" stroke="#000000" />
<path d="M304,202 C324,206 324,222 304,226 " fill="none" stroke-width="2" stroke-linejoin="bevel" stroke-linecap="round" stroke="#000000" />
<path d="M304,222 C324,226 324,242 304,246 " fill="none" stroke-width="2" stroke-linejoin="bevel" stroke-linecap="round" stroke="#000000" />
<path d="M304,202 C284,198 284,210 304,206 " fill="none" stroke-width="2" stroke-linejoin="bevel" stroke-linecap="round" stroke="#000000" />
<path d="M304,222 C284,218 284,230 304,226 " fill="none" stroke-width="2" stroke-linejoin="bevel" stroke-linecap="round" stroke="#000000" />
<path d="M304,266 L304,288 " fill="none" stroke-width="2" stroke-linejoin="bevel" stroke-linecap="round" stroke="#000000" />
<path d="M304,182 L304,160 " fill="none" stroke-width="2" stroke-linejoin="bevel" stroke-linecap="round" stroke="#000000" />
<path d="M576,288 L576,230 " fill="none" stroke-width="2" stroke-linejoin="bevel" stroke-linecap="round" stroke="#000000" />
<path d="M576,160 L576,218 " fill="none" stroke-width="2" stroke-linejoin="bevel" stroke-linecap="round" stroke="#000000" />
<path d="M544,218 L608,218 " fill="none" stroke-width="2" stroke-linejoin="bevel" stroke-linecap="round" stroke="#000000" />
<path d="M544,230 L608,230 " fill="none" stroke-width="2" stroke-linejoin="bevel" stroke-linecap="round" stroke="#000000" />
<g transform="matrix(   1    0   -0    1  64 240)" fill="#000000" >
<text stroke="none" font-family="Helvetica"  font-style="oblique" font-size="40" ><tspan x="0" y="0">R</tspan>
</text></g>
<g transform="matrix(   1    0   -0    1 336 240)" fill="#000000" >
<text stroke="none" font-family="Helvetica"  font-style="oblique" font-size="40" ><tspan x="0" y="0">L</tspan>
</text></g>
<g transform="matrix(   1    0   -0    1 528 184)" fill="#2e8b57" >
<text stroke="none" font-family="Helvetica" font-size="40" ><tspan x="0" y="0">+</tspan>
</text></g>
<g transform="matrix(   1    0   -0    1 528 288)" fill="#2e8b57" >
<text stroke="none" font-family="Helvetica" font-size="40" ><tspan x="0" y="0">-</tspan>
</text></g>
<g transform="matrix(   1    0   -0    1 504 232)" fill="#2e8b57" >
<text stroke="none" font-family="Helvetica"  font-style="oblique" font-size="40" ><tspan x="0" y="0">v</tspan>
</text></g>
<g transform="matrix(   1    0   -0    1 624 240)" fill="#000000" >
<text stroke="none" font-family="Helvetica"  font-style="oblique" font-size="40" ><tspan x="0" y="0">C</tspan>
</text></g>
<path d="M272,88 L272,148 " fill="none" stroke-width="1.6" stroke-linejoin="bevel" stroke-linecap="round" stroke="#2e8b57" />
<path d="M264,140 C269,150 269,153 272,168 C275,153 275,150 280,140 C274,142 270,142 264,140 " fill="#2e8b57" stroke="none" />
<g transform="matrix(   1    0   -0    1 240 120)" fill="#2e8b57" >
<text stroke="none" font-family="Helvetica"  font-style="oblique" font-size="40" ><tspan x="0" y="0">i</tspan>
</text></g>
<path d="M304,384 L304,416 " fill="none" stroke-width="2" stroke-linejoin="bevel" stroke-linecap="round" stroke="#000000" />
<path d="M272,416 L336,416 " fill="none" stroke-width="2" stroke-linejoin="bevel" stroke-linecap="round" stroke="#000000" />
<path d="M286,430 L322,430 " fill="none" stroke-width="2" stroke-linejoin="bevel" stroke-linecap="round" stroke="#000000" />
<path d="M300,444 L308,444 " fill="none" stroke-width="2" stroke-linejoin="bevel" stroke-linecap="round" stroke="#000000" />
<path d="M304,288 L304,384 " fill="none" stroke-width="2" stroke-linejoin="bevel" stroke-linecap="round" stroke="#000000" />
<path d="M304,160 L304,64 576,64 576,160 " fill="none" stroke-width="2" stroke-linejoin="bevel" stroke-linecap="round" stroke="#000000" />
<path d="M32,288 L32,384 576,384 576,288 " fill="none" stroke-width="2" stroke-linejoin="bevel" stroke-linecap="round" stroke="#000000" />
<ellipse cx="304" cy="384" rx="6" ry="6" fill="#000000" stroke="none" />
<path d="M32,160 L32,64 304,64 " fill="none" stroke-width="2" stroke-linejoin="bevel" stroke-linecap="round" stroke="#000000" />
<ellipse cx="304" cy="64" rx="6" ry="6" fill="#000000" stroke="none" />
<g transform="matrix(   1    0   -0    1 288  40)" fill="#2e8b57" >
<text stroke="none" font-family="Helvetica"  font-style="oblique" font-size="40" ><tspan x="0" y="0">v</tspan>
</text></g>
</g>
</svg>
