<svg xmlns="http://www.w3.org/2000/svg"
   xmlns:xlink="http://www.w3.org/1999/xlink"
   version="1.1"
   id="source-free-series-rlc-circuit" width="100%" height="100%"  viewBox="-6 -6 694 454">
<desc>
XCircuit Version 3.10
File "source-free-series-rlc-circuit.ps" Page 1
</desc>
<g stroke="black">
<path d="M0,0 L0,448 688,448 688,0 z" fill="#ffffff" stroke-width="2" stroke-linejoin="bevel" stroke-linecap="round" stroke="#ffffff" />
<path d="M240,96 L212,96 " fill="none" stroke-width="2" stroke-linejoin="bevel" stroke-linecap="round" stroke="#000000" />
<path d="M112,96 L140,96 " fill="none" stroke-width="2" stroke-linejoin="bevel" stroke-linecap="round" stroke="#000000" />
<path d="M140,96 L146,110 158,82 170,110 182,82 194,110 206,82 212,96 " fill="none" stroke-width="2" stroke-linejoin="bevel" stroke-linecap="round" stroke="#000000" />
<path d="M450,96 C454,76 470,76 474,96 " fill="none" stroke-width="2" stroke-linejoin="bevel" stroke-linecap="round" stroke="#000000" />
<path d="M450,96 C446,116 458,116 454,96 " fill="none" stroke-width="2" stroke-linejoin="bevel" stroke-linecap="round" stroke="#000000" />
<path d="M390,96 C394,76 410,76 414,96 " fill="none" stroke-width="2" stroke-linejoin="bevel" stroke-linecap="round" stroke="#000000" />
<path d="M410,96 C414,76 430,76 434,96 " fill="none" stroke-width="2" stroke-linejoin="bevel" stroke-linecap="round" stroke="#000000" />
<path d="M430,96 C434,76 450,76 454,96 " fill="none" stroke-width="2" stroke-linejoin="bevel" stroke-linecap="round" stroke="#000000" />
<path d="M410,96 C406,116 418,116 414,96 " fill="none" stroke-width="2" stroke-linejoin="bevel" stroke-linecap="round" stroke="#000000" />
<path d="M430,96 C426,116 438,116 434,96 " fill="none" stroke-width="2" stroke-linejoin="bevel" stroke-linecap="round" stroke="#000000" />
<path d="M474,96 L496,96 " fill="none" stroke-width="2" stroke-linejoin="bevel" stroke-linecap="round" stroke="#000000" />
<path d="M390,96 L368,96 " fill="none" stroke-width="2" stroke-linejoin="bevel" stroke-linecap="round" stroke="#000000" />
<path d="M576,320 L576,262 " fill="none" stroke-width="2" stroke-linejoin="bevel" stroke-linecap="round" stroke="#000000" />
<path d="M576,192 L576,250 " fill="none" stroke-width="2" stroke-linejoin="bevel" stroke-linecap="round" stroke="#000000" />
<path d="M544,250 L608,250 " fill="none" stroke-width="2" stroke-linejoin="bevel" stroke-linecap="round" stroke="#000000" />
<path d="M544,262 L608,262 " fill="none" stroke-width="2" stroke-linejoin="bevel" stroke-linecap="round" stroke="#000000" />
<path d="M496,96 L576,96 576,192 " fill="none" stroke-width="2" stroke-linejoin="bevel" stroke-linecap="round" stroke="#000000" />
<path d="M112,96 L32,96 32,352 32,416 576,416 576,320 " fill="none" stroke-width="2" stroke-linejoin="bevel" stroke-linecap="round" stroke="#000000" />
<path d="M368,96 L240,96 " fill="none" stroke-width="2" stroke-linejoin="bevel" stroke-linecap="round" stroke="#000000" />
<g transform="matrix(   1    0   -0    1 160  64)" fill="#000000" >
<text stroke="none" font-family="Helvetica"  font-style="oblique" font-size="40" ><tspan x="0" y="0">R</tspan>
</text></g>
<g transform="matrix(   1    0   -0    1 416  64)" fill="#000000" >
<text stroke="none" font-family="Helvetica"  font-style="oblique" font-size="40" ><tspan x="0" y="0">L</tspan>
</text></g>
<g transform="matrix(   1    0   -0    1 528 216)" fill="#2e8b57" >
<text stroke="none" font-family="Helvetica" font-size="40" ><tspan x="0" y="0">+</tspan>
</text></g>
<g transform="matrix(   1    0   -0    1 528 320)" fill="#2e8b57" >
<text stroke="none" font-family="Helvetica" font-size="40" ><tspan x="0" y="0">-</tspan>
</text></g>
<g transform="matrix(   1    0   -0    1 504 264)" fill="#2e8b57" >
<text stroke="none" font-family="Helvetica"  font-style="oblique" font-size="40" ><tspan x="0" y="0">v</tspan>
</text></g>
<g transform="matrix(   1    0   -0    1 624 272)" fill="#000000" >
<text stroke="none" font-family="Helvetica"  font-style="oblique" font-size="40" ><tspan x="0" y="0">C</tspan>
</text></g>
<path d="M264,128 L324,128 " fill="none" stroke-width="1.6" stroke-linejoin="bevel" stroke-linecap="round" stroke="#2e8b57" />
<path d="M316,136 C326,131 329,131 344,128 C329,125 326,125 316,120 C318,126 318,130 316,136 " fill="#2e8b57" stroke="none" />
<g transform="matrix(   1    0   -0    1 288 168)" fill="#2e8b57" >
<text stroke="none" font-family="Helvetica"  font-style="oblique" font-size="40" ><tspan x="0" y="0">i</tspan>
</text></g>
</g>
</svg>
