<?xml version="1.0" encoding="UTF-8" standalone="no"?>
<!-- Created with Inkscape (http://www.inkscape.org/) -->

<svg
   version="1.1"
   id="svg1"
   viewBox="0 0 275.47186 112.95124"
   xmlns="http://www.w3.org/2000/svg"
   xmlns:svg="http://www.w3.org/2000/svg">
  <defs
     id="defs1">
    <clipPath
       clipPathUnits="userSpaceOnUse"
       id="clipPath1">
      <path
         d="M 50.88,11.539973 H 825.11999 V 937.98 H 50.88 Z"
         id="path1" />
    </clipPath>
    <clipPath
       clipPathUnits="userSpaceOnUse"
       id="clipPath102">
      <path
         d="M 0,672.772 H 576 V 0.03 H 0 Z"
         id="path102" />
    </clipPath>
    <clipPath
       clipPathUnits="userSpaceOnUse"
       id="clipPath103">
      <path
         d="M 0,672.772 H 576 V 0.03 H 0 Z"
         id="path103" />
    </clipPath>
    <clipPath
       clipPathUnits="userSpaceOnUse"
       id="clipPath104">
      <path
         d="M 0,672.772 H 576 V 0.03 H 0 Z"
         id="path104" />
    </clipPath>
    <clipPath
       clipPathUnits="userSpaceOnUse"
       id="clipPath105">
      <path
         d="M 0,672.772 H 576 V 0.03 H 0 Z"
         id="path105" />
    </clipPath>
    <clipPath
       clipPathUnits="userSpaceOnUse"
       id="clipPath106">
      <path
         d="M 0,672.772 H 576 V 0.03 H 0 Z"
         id="path106" />
    </clipPath>
    <clipPath
       clipPathUnits="userSpaceOnUse"
       id="clipPath107">
      <path
         d="M 0,672.772 H 576 V 0.03 H 0 Z"
         id="path107" />
    </clipPath>
    <clipPath
       clipPathUnits="userSpaceOnUse"
       id="clipPath108">
      <path
         d="M 0,672.772 H 576 V 0.03 H 0 Z"
         id="path108" />
    </clipPath>
    <clipPath
       clipPathUnits="userSpaceOnUse"
       id="clipPath109">
      <path
         d="M 0,672.772 H 576 V 0.03 H 0 Z"
         id="path109" />
    </clipPath>
    <clipPath
       clipPathUnits="userSpaceOnUse"
       id="clipPath110">
      <path
         d="M 0,672.772 H 576 V 0.03 H 0 Z"
         id="path110" />
    </clipPath>
    <clipPath
       clipPathUnits="userSpaceOnUse"
       id="clipPath111">
      <path
         d="M 0,672.772 H 576 V 0.03 H 0 Z"
         id="path111" />
    </clipPath>
    <clipPath
       clipPathUnits="userSpaceOnUse"
       id="clipPath112">
      <path
         d="M 0,672.772 H 576 V 0.03 H 0 Z"
         id="path112" />
    </clipPath>
    <clipPath
       clipPathUnits="userSpaceOnUse"
       id="clipPath113">
      <path
         d="M 0,672.772 H 576 V 0.03 H 0 Z"
         id="path113" />
    </clipPath>
    <clipPath
       clipPathUnits="userSpaceOnUse"
       id="clipPath114">
      <path
         d="M 0,672.772 H 576 V 0.03 H 0 Z"
         id="path114" />
    </clipPath>
    <clipPath
       clipPathUnits="userSpaceOnUse"
       id="clipPath115">
      <path
         d="M 0,672.772 H 576 V 0.03 H 0 Z"
         transform="matrix(1,0,0,-1,-279.33601,624.77202)"
         id="path115" />
    </clipPath>
    <clipPath
       clipPathUnits="userSpaceOnUse"
       id="clipPath116">
      <path
         d="M 0,672.772 H 576 V 0.03 H 0 Z"
         id="path116" />
    </clipPath>
    <clipPath
       clipPathUnits="userSpaceOnUse"
       id="clipPath117">
      <path
         d="M 0,672.772 H 576 V 0.03 H 0 Z"
         id="path117" />
    </clipPath>
    <clipPath
       clipPathUnits="userSpaceOnUse"
       id="clipPath118">
      <path
         d="M 0,672.772 H 576 V 0.03 H 0 Z"
         id="path118" />
    </clipPath>
    <clipPath
       clipPathUnits="userSpaceOnUse"
       id="clipPath119">
      <path
         d="M 0,672.772 H 576 V 0.03 H 0 Z"
         transform="matrix(1,0,0,-1,-304.98601,617.75102)"
         id="path119" />
    </clipPath>
    <clipPath
       clipPathUnits="userSpaceOnUse"
       id="clipPath120">
      <path
         d="m 274,633.772 h 166 v -67 H 274 Z"
         transform="matrix(1.3333333,0,0,-1.3333333,0,908.20005)"
         clip-rule="evenodd"
         id="path120" />
    </clipPath>
    <clipPath
       clipPathUnits="userSpaceOnUse"
       id="clipPath121">
      <path
         d="m -6,678.772 h 594 v -685 H -6 Z"
         transform="matrix(1.3333333,0,0,-1.3333333,0,908.20005)"
         id="path121" />
    </clipPath>
    <clipPath
       clipPathUnits="userSpaceOnUse"
       id="clipPath164">
      <path
         d="M -45,717.762 H 639 V -45.228 H -45 Z"
         transform="matrix(1.3333333,0,0,-1.3333333,0,908.20005)"
         id="path164" />
    </clipPath>
  </defs>
  <g
     id="g1"
     clip-path="url(#clipPath1)"
     transform="translate(-335.67108,-51.02235)">
    <g
       id="g178">
      <rect
         style="fill:#ffffff;stroke-width:1.02924"
         id="rect178"
         width="275.47186"
         height="112.95123"
         x="335.67108"
         y="51.02235" />
      <g
         id="g164"
         clip-path="url(#clipPath164)">
        <g
           clip-path="url(#clipPath121)"
           id="g163">
          <g
             clip-path="url(#clipPath120)"
             id="g162">
            <path
               d="m 294.073,619.926 c 0,-1.076 -0.417,-2.197 -0.734,-2.572 1.072,1.018 5.893,2.143 10.286,2.572 -4.393,0.428 -9.214,1.553 -10.286,2.572 0.317,-0.375 0.734,-1.496 0.734,-2.572"
               style="fill:#000000;fill-opacity:1;fill-rule:nonzero;stroke:none"
               transform="matrix(1.3333333,0,0,-1.3333333,0,908.20005)"
               clip-path="url(#clipPath102)"
               id="path122" />
            <path
               d="M 294.073,619.926 H 274 m 156.2,0 h -56.782"
               style="fill:none;stroke:#000000;stroke-width:1.6;stroke-linecap:butt;stroke-linejoin:miter;stroke-miterlimit:4;stroke-dasharray:none;stroke-opacity:1"
               transform="matrix(1.3333333,0,0,-1.3333333,0,908.20005)"
               clip-path="url(#clipPath103)"
               id="path123" />
            <path
               d="m 430.2,619.926 c 0,-1.076 -0.417,-2.197 -0.734,-2.572 1.072,1.018 5.893,2.143 10.286,2.572 -4.393,0.428 -9.214,1.553 -10.286,2.572 0.317,-0.375 0.734,-1.496 0.734,-2.572"
               style="fill:#000000;fill-opacity:1;fill-rule:nonzero;stroke:none"
               transform="matrix(1.3333333,0,0,-1.3333333,0,908.20005)"
               clip-path="url(#clipPath104)"
               id="path124" />
            <path
               d="m 338.7,619.926 c 0,-1.076 -0.417,-2.197 -0.734,-2.572 1.072,1.018 5.893,2.143 10.286,2.572 -4.393,0.428 -9.214,1.553 -10.286,2.572 0.317,-0.375 0.734,-1.496 0.734,-2.572"
               style="fill:#000000;fill-opacity:1;fill-rule:nonzero;stroke:none"
               transform="matrix(1.3333333,0,0,-1.3333333,0,908.20005)"
               clip-path="url(#clipPath105)"
               id="path125" />
            <path
               d="M 338.7,619.926 H 319.941"
               style="fill:none;stroke:#000000;stroke-width:1.6;stroke-linecap:butt;stroke-linejoin:miter;stroke-miterlimit:4;stroke-dasharray:none;stroke-opacity:1"
               transform="matrix(1.3333333,0,0,-1.3333333,0,908.20005)"
               clip-path="url(#clipPath106)"
               id="path126" />
            <path
               d="m 312.706,601.345 c 1.076,0 2.197,-0.417 2.571,-0.734 -1.018,1.072 -2.143,5.893 -2.571,10.286 -0.429,-4.393 -1.554,-9.214 -2.572,-10.286 0.375,0.317 1.495,0.734 2.572,0.734"
               style="fill:#000000;fill-opacity:1;fill-rule:nonzero;stroke:none"
               transform="matrix(1.3333333,0,0,-1.3333333,0,908.20005)"
               clip-path="url(#clipPath107)"
               id="path127" />
            <path
               d="m 383.077,580.638 c 0,1.076 0.416,2.197 0.733,2.572 -1.071,-1.018 -5.893,-2.143 -10.286,-2.572 4.393,-0.428 9.215,-1.553 10.286,-2.572 -0.317,0.375 -0.733,1.496 -0.733,2.572"
               style="fill:#000000;fill-opacity:1;fill-rule:nonzero;stroke:none"
               transform="matrix(1.3333333,0,0,-1.3333333,0,908.20005)"
               clip-path="url(#clipPath108)"
               id="path128" />
            <path
               d="m 383.077,580.638 h 26.227 v 39.288"
               style="fill:none;stroke:#000000;stroke-width:1.6;stroke-linecap:butt;stroke-linejoin:miter;stroke-miterlimit:4;stroke-dasharray:none;stroke-opacity:1"
               transform="matrix(1.3333333,0,0,-1.3333333,0,908.20005)"
               clip-path="url(#clipPath109)"
               id="path129" />
            <path
               d="m 312.706,601.345 v -20.707 h 36.046"
               style="fill:none;stroke:#000000;stroke-width:1.6;stroke-linecap:butt;stroke-linejoin:miter;stroke-miterlimit:4;stroke-dasharray:none;stroke-opacity:1"
               transform="matrix(1.3333333,0,0,-1.3333333,0,908.20005)"
               clip-path="url(#clipPath110)"
               id="path130" />
            <path
               d="m 373.585,607.772 h -25 v 25 h 25 z"
               style="fill:#ffffff;fill-opacity:1;fill-rule:nonzero;stroke:none"
               transform="matrix(1.3333333,0,0,-1.3333333,0,908.20005)"
               clip-path="url(#clipPath111)"
               id="path131" />
            <path
               d="m 348.585,607.772 h 25 v 25 h -25 z m 25,0 z"
               style="fill:none;stroke:#000000;stroke-width:0.8;stroke-linecap:butt;stroke-linejoin:miter;stroke-miterlimit:4;stroke-dasharray:none;stroke-opacity:1"
               transform="matrix(1.3333333,0,0,-1.3333333,0,908.20005)"
               clip-path="url(#clipPath112)"
               id="path132" />
            <path
               d="m 373.504,568.138 h -25 v 25 h 25 z"
               style="fill:#ffffff;fill-opacity:1;fill-rule:nonzero;stroke:none"
               transform="matrix(1.3333333,0,0,-1.3333333,0,908.20005)"
               clip-path="url(#clipPath113)"
               id="path133" />
            <path
               d="m 348.504,568.138 h 25 v 25 h -25 z m 25,0 z"
               style="fill:none;stroke:#000000;stroke-width:0.8;stroke-linecap:butt;stroke-linejoin:miter;stroke-miterlimit:4;stroke-dasharray:none;stroke-opacity:1"
               transform="matrix(1.3333333,0,0,-1.3333333,0,908.20005)"
               clip-path="url(#clipPath114)"
               id="path134" />
            <g
               aria-label="R(s)&#10;B(s)&#10;E(s)&#10;G(s)&#10;H(s)&#10;C(s)"
               transform="matrix(1.3333333,0,0,1.3333333,372.448,75.170715)"
               clip-path="url(#clipPath115)"
               id="g158">
              <path
                 d="m 4.5339609,-0.13028256 c -0.4335937,-0.0117188 -0.5625,-0.29296875 -0.65625,-0.57421875 l -0.75,-1.95703129 c 1.1484375,-0.2226562 1.5820313,-0.7851562 1.5820313,-1.4179687 0,-1.1484375 -1.3828125,-1.1484375 -1.6640625,-1.1484375 H 1.0534922 v 0.1289062 c 0.375,0.046875 0.5742187,0.058594 0.5742187,0.375 0,0.09375 -0.070312,0.375 -0.1054687,0.46875 l -0.98437501,3.53906254 c -0.140625,0.50390625 -0.234375,0.515625 -0.64453125,0.5859375 v 0.12890625 H 1.8503672 v -0.12890625 c -0.4335938,-0.0585938 -0.5507813,-0.0703125 -0.5507813,-0.375 0,-0.0585938 0,-0.09375 0.1054688,-0.45703125 l 0.4453125,-1.67578129 0.515625,0.046875 0.984375,2.58984379 H 4.5339609 Z M 2.4597422,-4.7591888 c 0.058594,-0.1523438 0.09375,-0.234375 0.4570312,-0.234375 0.4570313,0 0.9492188,0.1875 0.9492188,0.8789062 0,0.5976563 -0.2929688,1.21875 -1.453125,1.21875 -0.2109375,0 -0.28125,0 -0.46875,-0.035156 z m 0,0"
                 style="fill:#000000;fill-opacity:1;fill-rule:nonzero;stroke:none"
                 id="path135" />
              <path
                 d="m 7.2439219,-5.4154388 c -1.2304688,0.7382812 -1.96875,1.9453125 -1.96875,3.3164062 0,1.10156254 0.2578125,1.67578129 0.65625,2.26171879 0.3046875,0.4453125 0.8320312,1.00781251 1.2890625,1.25390621 L 7.3259531,1.2876862 c -1.359375,-0.86718751 -1.359375,-2.625 -1.359375,-3.4453125 0,-2.0273438 0.7617188,-2.6484375 1.359375,-3.1289063 z m 0,0"
                 style="fill:#000000;fill-opacity:1;fill-rule:nonzero;stroke:none"
                 id="path136" />
              <path
                 d="M 7.8445078,-1.1732513 7.6804453,0.10409244 h 0.1289063 c 0.046875,-0.09375 0.082031,-0.1640625 0.1875,-0.1640625 0.234375,0 0.5507812,0.15234375 0.796875,0.15234375 0.4453125,0 1.1953125,-0.2109375 1.1953125,-1.078125 0,-0.67968749 -0.984375,-1.39453129 -0.984375,-1.89843749 0,-0.3867188 0.2578125,-0.4570313 0.4335937,-0.4570313 0.5273438,0 0.7148442,0.4570313 0.7500002,0.9140625 h 0.128906 l 0.164063,-1.1132812 h -0.117188 c -0.03516,0.070312 -0.08203,0.140625 -0.222656,0.140625 -0.2343752,0 -0.3984377,-0.1289063 -0.7617189,-0.1289063 -0.84375,0 -0.9609375,0.6328125 -0.9609375,0.890625 0,0.609375 0.9609375,1.3828125 0.9609375,1.91015629 0,0.2578125 -0.1289063,0.64453125 -0.5742188,0.64453125 -0.65625,0 -0.7851562,-0.73828125 -0.8320312,-1.08984374 z m 0,0"
                 style="fill:#000000;fill-opacity:1;fill-rule:nonzero;stroke:none"
                 id="path137" />
              <path
                 d="m 10.967555,1.4165924 c 1.242187,-0.73828121 1.980468,-1.93359371 1.980468,-3.3164062 0,-1.1015625 -0.269531,-1.6757813 -0.65625,-2.25 -0.304687,-0.4570313 -0.832031,-1.0195313 -1.300781,-1.265625 l -0.09375,0.1289062 c 1.359375,0.8789063 1.359375,2.625 1.359375,3.4453125 0,2.02734379 -0.773437,2.66015629 -1.359375,3.1289063 z m 0,0"
                 style="fill:#000000;fill-opacity:1;fill-rule:nonzero;stroke:none"
                 id="path138" />
              <path
                 d="m 14.776148,30.4996 h 2.25 c 1.03125,0 2.121094,-0.492187 2.121094,-1.59375 0,-0.785156 -0.5625,-1.019531 -0.984375,-1.207031 V 27.6871 c 0.75,-0.152343 1.382813,-0.503906 1.382813,-1.21875 0,-0.925781 -0.773438,-1.195312 -1.605469,-1.195312 h -2.0625 v 0.128906 c 0.375,0.02344 0.609375,0.04687 0.609375,0.339844 0,0.140625 -0.03516,0.316406 -0.08203,0.503906 l -0.984375,3.539063 c -0.140625,0.492187 -0.257813,0.515625 -0.644532,0.585937 z m 1.429688,-0.597656 c 0,-0.152344 0.410156,-1.535156 0.539062,-2.050781 0.539063,0.01172 0.902344,0.01172 1.101563,0.140625 0.246094,0.152344 0.433594,0.433594 0.433594,0.84375 0,0.796875 -0.457032,1.429687 -1.582032,1.429687 -0.234375,0 -0.492187,-0.05859 -0.492187,-0.363281 z m 1.136719,-4.160156 c 0.03516,-0.128906 0.05859,-0.234375 0.492187,-0.234375 0.597656,0 0.902344,0.292969 0.902344,0.84375 0,1.242187 -1.148438,1.265625 -1.921875,1.242187 z m 0,0"
                 style="fill:#000000;fill-opacity:1;fill-rule:nonzero;stroke:none"
                 id="path139" />
              <path
                 d="m 22.079859,25.085538 c -1.230468,0.738281 -1.96875,1.945312 -1.96875,3.316406 0,1.101563 0.257813,1.675781 0.65625,2.261719 0.304688,0.445312 0.832032,1.007812 1.289063,1.253906 l 0.105469,-0.128906 c -1.359375,-0.867188 -1.359375,-2.625 -1.359375,-3.445313 0,-2.027343 0.761718,-2.648437 1.359375,-3.128906 z m 0,0"
                 style="fill:#000000;fill-opacity:1;fill-rule:nonzero;stroke:none"
                 id="path140" />
              <path
                 d="m 22.680445,29.327725 -0.164062,1.277344 h 0.128906 c 0.04687,-0.09375 0.08203,-0.164062 0.1875,-0.164062 0.234375,0 0.550781,0.152343 0.796875,0.152343 0.445313,0 1.195313,-0.210937 1.195313,-1.078125 0,-0.679687 -0.984375,-1.394531 -0.984375,-1.898437 0,-0.386719 0.257812,-0.457031 0.433593,-0.457031 0.527344,0 0.714844,0.457031 0.75,0.914062 h 0.128907 l 0.164062,-1.113281 h -0.117187 c -0.03516,0.07031 -0.08203,0.140625 -0.222657,0.140625 -0.234375,0 -0.398437,-0.128906 -0.761718,-0.128906 -0.84375,0 -0.960938,0.632812 -0.960938,0.890625 0,0.609375 0.960938,1.382812 0.960938,1.910156 0,0.257812 -0.128907,0.644531 -0.574219,0.644531 -0.65625,0 -0.785156,-0.738281 -0.832031,-1.089844 z m 0,0"
                 style="fill:#000000;fill-opacity:1;fill-rule:nonzero;stroke:none"
                 id="path141" />
              <path
                 d="m 25.803492,31.917569 c 1.242188,-0.738281 1.980469,-1.933594 1.980469,-3.316406 0,-1.101563 -0.269531,-1.675781 -0.65625,-2.25 -0.304688,-0.457031 -0.832031,-1.019531 -1.300781,-1.265625 l -0.09375,0.128906 c 1.359375,0.878906 1.359375,2.625 1.359375,3.445313 0,2.027343 -0.773438,2.660156 -1.359375,3.128906 z m 0,0"
                 style="fill:#000000;fill-opacity:1;fill-rule:nonzero;stroke:none"
                 id="path142" />
              <path
                 d="m 51.573023,-5.7757904 h -3.972656 v 0.1289063 c 0.398438,0.035156 0.609375,0.070312 0.609375,0.3515625 0,0.082031 -0.05859,0.4101562 -0.08203,0.4921875 l -0.984375,3.5390625 c -0.140625,0.49218748 -0.257813,0.51562498 -0.65625,0.58593748 v 0.12890625 h 4.066406 l 0.492188,-1.30078123 -0.128907,-0.058594 c -0.5625,0.796875 -0.914062,1.08984378 -2.460937,1.08984378 -0.199219,0 -0.550781,-0.0234375 -0.550781,-0.26953128 0,-0.09375 0.03516,-0.234375 0.550781,-2.0859375 1.300781,0.035156 1.300781,0.035156 1.300781,0.4335938 0,0.1289062 -0.02344,0.2578125 -0.05859,0.375 l 0.164063,0.035156 0.539062,-1.8515625 -0.140625,-0.035156 c -0.08203,0.1757812 -0.152343,0.328125 -0.222656,0.4453125 -0.175781,0.2460937 -0.222656,0.3164062 -1.511719,0.328125 l 0.527344,-1.8632813 c 0.04687,-0.1523437 0.05859,-0.1992187 0.644531,-0.1992187 1.5,0 1.523438,0.1640625 1.464844,0.9375 l 0.164063,0.023437 z m 0,0"
                 style="fill:#000000;fill-opacity:1;fill-rule:nonzero;stroke:none"
                 id="path143" />
              <path
                 d="m 53.743922,-5.9632904 c -1.230469,0.7382813 -1.96875,1.9453125 -1.96875,3.3164063 0,1.1015625 0.257812,1.67578123 0.65625,2.26171873 0.304687,0.4453125 0.832031,1.0078125 1.289062,1.25390625 l 0.105469,-0.12890625 c -1.359375,-0.8671875 -1.359375,-2.62500003 -1.359375,-3.44531253 0,-2.0273437 0.761719,-2.6484375 1.359375,-3.1289062 z m 0,0"
                 style="fill:#000000;fill-opacity:1;fill-rule:nonzero;stroke:none"
                 id="path144" />
              <path
                 d="m 54.344508,-1.7211029 -0.164063,1.27734378 h 0.128907 c 0.04687,-0.09375 0.08203,-0.1640625 0.1875,-0.1640625 0.234375,0 0.550781,0.15234375 0.796875,0.15234375 0.445312,0 1.195312,-0.2109375 1.195312,-1.07812503 0,-0.6796875 -0.984375,-1.3945312 -0.984375,-1.8984375 0,-0.3867187 0.257813,-0.4570312 0.433594,-0.4570312 0.527344,0 0.714844,0.4570312 0.75,0.9140625 h 0.128906 l 0.164063,-1.1132813 h -0.117188 c -0.03516,0.070312 -0.08203,0.140625 -0.222656,0.140625 -0.234375,0 -0.398438,-0.1289062 -0.761719,-0.1289062 -0.84375,0 -0.960937,0.6328125 -0.960937,0.890625 0,0.609375 0.960937,1.3828125 0.960937,1.9101562 0,0.2578125 -0.128906,0.64453128 -0.574219,0.64453128 -0.65625,0 -0.785156,-0.73828128 -0.832031,-1.08984378 z m 0,0"
                 style="fill:#000000;fill-opacity:1;fill-rule:nonzero;stroke:none"
                 id="path145" />
              <path
                 d="m 57.467555,0.86874088 c 1.242187,-0.73828125 1.980468,-1.93359378 1.980468,-3.31640628 0,-1.1015625 -0.269531,-1.6757812 -0.65625,-2.25 -0.304687,-0.4570312 -0.832031,-1.0195312 -1.300781,-1.265625 l -0.09375,0.1289063 c 1.359375,0.8789062 1.359375,2.625 1.359375,3.4453125 0,2.02734373 -0.773437,2.66015623 -1.359375,3.12890623 z m 0,0"
                 style="fill:#000000;fill-opacity:1;fill-rule:nonzero;stroke:none"
                 id="path146" />
              <path
                 d="M 80.231227,2.245694 80.10232,2.2105378 c -0.08203,0.1171875 -0.1875,0.2695312 -0.503906,0.2695312 -0.199219,0 -0.703125,-0.2695312 -1.382812,-0.2695312 -1.710938,0 -3.234375,1.5820312 -3.234375,3.4101562 0,0.3398438 0.222656,2.0625 2.34375,2.0625 0.574218,0 1.335937,-0.1757812 1.839843,-0.4921875 l 0.398438,-1.5 C 79.692164,5.1871003 79.91482,5.151944 80.336695,5.1167878 V 4.9878815 h -2.132812 v 0.1289063 c 0.433594,0.035156 0.632812,0.070312 0.632812,0.2929687 0,0.1289063 -0.292968,1.5234375 -0.527343,1.7109375 -0.222657,0.1875 -0.433594,0.2695313 -0.832032,0.2695313 -1.359375,0 -1.617187,-0.9960938 -1.617187,-1.6171875 0,-1.3125 0.785156,-3.2929688 2.390625,-3.2929688 0.5625,0 1.371094,0.2695313 1.441406,1.3125 l 0.140625,0.023437 z m 0,0"
                 style="fill:#000000;fill-opacity:1;fill-rule:nonzero;stroke:none"
                 id="path147" />
              <path
                 d="m 82.692164,2.1285065 c -1.230469,0.7382813 -1.96875,1.9453125 -1.96875,3.3164063 0,1.1015625 0.257813,1.6757812 0.65625,2.2617187 0.304688,0.4453125 0.832031,1.0078125 1.289063,1.2539063 L 82.774195,8.8316315 C 81.41482,7.964444 81.41482,6.2066315 81.41482,5.386319 c 0,-2.0273437 0.761719,-2.6484375 1.359375,-3.1289062 z m 0,0"
                 style="fill:#000000;fill-opacity:1;fill-rule:nonzero;stroke:none"
                 id="path148" />
              <path
                 d="m 83.29275,6.370694 -0.164062,1.2773438 h 0.128906 c 0.04687,-0.09375 0.08203,-0.1640625 0.1875,-0.1640625 0.234375,0 0.550781,0.1523437 0.796875,0.1523437 0.445312,0 1.195312,-0.2109375 1.195312,-1.078125 0,-0.6796875 -0.984375,-1.3945312 -0.984375,-1.8984375 0,-0.3867187 0.257813,-0.4570312 0.433594,-0.4570312 0.527344,0 0.714844,0.4570312 0.75,0.9140625 h 0.128906 l 0.164063,-1.1132813 h -0.117188 c -0.03516,0.070312 -0.08203,0.140625 -0.222656,0.140625 -0.234375,0 -0.398437,-0.1289062 -0.761719,-0.1289062 -0.84375,0 -0.960937,0.6328125 -0.960937,0.890625 0,0.609375 0.960937,1.3828125 0.960937,1.9101562 0,0.2578125 -0.128906,0.6445313 -0.574218,0.6445313 -0.65625,0 -0.785157,-0.7382813 -0.832032,-1.0898438 z m 0,0"
                 style="fill:#000000;fill-opacity:1;fill-rule:nonzero;stroke:none"
                 id="path149" />
              <path
                 d="m 86.415797,8.9605378 c 1.242187,-0.7382813 1.980469,-1.9335938 1.980469,-3.3164063 0,-1.1015625 -0.269532,-1.6757812 -0.65625,-2.25 -0.304688,-0.4570312 -0.832032,-1.0195312 -1.300782,-1.265625 l -0.09375,0.1289063 c 1.359375,0.8789062 1.359375,2.625 1.359375,3.4453125 0,2.0273437 -0.773437,2.6601562 -1.359375,3.1289062 z m 0,0"
                 style="fill:#000000;fill-opacity:1;fill-rule:nonzero;stroke:none"
                 id="path150" />
              <path
                 d="m 80.699977,41.603116 h -1.980469 v 0.128906 c 0.351562,0.03516 0.5625,0.05859 0.5625,0.339844 0,0.152344 -0.03516,0.339844 -0.09375,0.503906 l -0.363281,1.3125 H 76.53982 l 0.433594,-1.570312 c 0.152344,-0.527344 0.527344,-0.5625 0.808594,-0.585938 V 41.603116 H 75.60232 v 0.128906 c 0.398438,0.03516 0.609375,0.07031 0.609375,0.339844 0,0.152344 -0.03516,0.339844 -0.08203,0.503906 l -0.984375,3.539063 c -0.140625,0.492187 -0.257812,0.515625 -0.644531,0.585937 v 0.128906 h 1.96875 v -0.128906 c -0.421875,-0.05859 -0.65625,-0.08203 -0.550781,-0.527344 l 0.527343,-1.957031 h 2.285157 l -0.527344,1.898438 c -0.140625,0.503906 -0.433594,0.539062 -0.808594,0.585937 v 0.128906 h 2.191406 v -0.128906 c -0.433593,-0.03516 -0.726562,-0.05859 -0.597656,-0.527344 l 1.054688,-3.855468 c 0.128906,-0.503907 0.257812,-0.515625 0.65625,-0.585938 z m 0,0"
                 style="fill:#000000;fill-opacity:1;fill-rule:nonzero;stroke:none"
                 id="path151" />
              <path
                 d="m 82.692164,41.415616 c -1.230469,0.738281 -1.96875,1.945312 -1.96875,3.316406 0,1.101563 0.257813,1.675781 0.65625,2.261719 0.304688,0.445312 0.832031,1.007812 1.289063,1.253906 l 0.105468,-0.128906 c -1.359375,-0.867188 -1.359375,-2.625 -1.359375,-3.445313 0,-2.027343 0.761719,-2.648437 1.359375,-3.128906 z m 0,0"
                 style="fill:#000000;fill-opacity:1;fill-rule:nonzero;stroke:none"
                 id="path152" />
              <path
                 d="m 83.29275,45.657803 -0.164062,1.277344 h 0.128906 c 0.04687,-0.09375 0.08203,-0.164062 0.1875,-0.164062 0.234375,0 0.550781,0.152343 0.796875,0.152343 0.445312,0 1.195312,-0.210937 1.195312,-1.078125 0,-0.679687 -0.984375,-1.394531 -0.984375,-1.898437 0,-0.386719 0.257813,-0.457031 0.433594,-0.457031 0.527344,0 0.714844,0.457031 0.75,0.914062 h 0.128906 l 0.164063,-1.113281 h -0.117188 c -0.03516,0.07031 -0.08203,0.140625 -0.222656,0.140625 -0.234375,0 -0.398437,-0.128906 -0.761719,-0.128906 -0.84375,0 -0.960937,0.632812 -0.960937,0.890625 0,0.609375 0.960937,1.382812 0.960937,1.910156 0,0.257812 -0.128906,0.644531 -0.574218,0.644531 -0.65625,0 -0.785157,-0.738281 -0.832032,-1.089844 z m 0,0"
                 style="fill:#000000;fill-opacity:1;fill-rule:nonzero;stroke:none"
                 id="path153" />
              <path
                 d="m 86.415797,48.247647 c 1.242187,-0.738281 1.980469,-1.933594 1.980469,-3.316406 0,-1.101563 -0.269532,-1.675781 -0.65625,-2.25 -0.304688,-0.457031 -0.832032,-1.019531 -1.300782,-1.265625 l -0.09375,0.128906 c 1.359375,0.878906 1.359375,2.625 1.359375,3.445313 0,2.027343 -0.773437,2.660156 -1.359375,3.128906 z m 0,0"
                 style="fill:#000000;fill-opacity:1;fill-rule:nonzero;stroke:none"
                 id="path154" />
              <path
                 d="m 140.24295,-4.2757904 0.30468,-1.59375 h -0.17578 c -0.0351,0.082031 -0.082,0.1875 -0.3164,0.1875 -0.1875,0 -0.66797,-0.1992187 -1.25391,-0.1992187 -1.82813,0 -3.24609,1.7695312 -3.24609,3.3164062 0,1.59375003 1.17187,2.15625003 2.09765,2.15625003 1.17188,0 1.88672,-0.83203123 2.17969,-1.18359373 l -0.14063,-0.1171875 c -0.38671,0.375 -0.9375,0.94921873 -1.85156,0.94921873 -0.94922,0 -1.38281,-0.66796873 -1.38281,-1.72265623 0,-1.171875 0.80859,-3.1054688 2.41406,-3.1054688 1.14844,0 1.21875,1.0664063 1.23047,1.2890625 z m 0,0"
                 style="fill:#000000;fill-opacity:1;fill-rule:nonzero;stroke:none"
                 id="path155" />
              <path
                 d="m 142.71853,-5.9632904 c -1.23047,0.7382813 -1.96875,1.9453125 -1.96875,3.3164063 0,1.1015625 0.25781,1.67578123 0.65625,2.26171873 0.30469,0.4453125 0.83203,1.0078125 1.28906,1.25390625 l 0.10547,-0.12890625 c -1.35937,-0.8671875 -1.35937,-2.62500003 -1.35937,-3.44531253 0,-2.0273437 0.76172,-2.6484375 1.35937,-3.1289062 z m 0,0"
                 style="fill:#000000;fill-opacity:1;fill-rule:nonzero;stroke:none"
                 id="path156" />
              <path
                 d="m 143.32205,-1.7211029 -0.16407,1.27734378 h 0.12891 c 0.0469,-0.09375 0.082,-0.1640625 0.1875,-0.1640625 0.23438,0 0.55078,0.15234375 0.79688,0.15234375 0.44531,0 1.19531,-0.2109375 1.19531,-1.07812503 0,-0.6796875 -0.98438,-1.3945312 -0.98438,-1.8984375 0,-0.3867187 0.25782,-0.4570312 0.4336,-0.4570312 0.52734,0 0.71484,0.4570312 0.75,0.9140625 h 0.1289 l 0.16407,-1.1132813 h -0.11719 c -0.0352,0.070312 -0.082,0.140625 -0.22266,0.140625 -0.23437,0 -0.39844,-0.1289062 -0.76172,-0.1289062 -0.84375,0 -0.96093,0.6328125 -0.96093,0.890625 0,0.609375 0.96093,1.3828125 0.96093,1.9101562 0,0.2578125 -0.1289,0.64453128 -0.57422,0.64453128 -0.65625,0 -0.78515,-0.73828128 -0.83203,-1.08984378 z m 0,0"
                 style="fill:#000000;fill-opacity:1;fill-rule:nonzero;stroke:none"
                 id="path157" />
              <path
                 d="m 146.44509,0.86874088 c 1.24219,-0.73828125 1.98047,-1.93359378 1.98047,-3.31640628 0,-1.1015625 -0.26953,-1.6757812 -0.65625,-2.25 -0.30468,-0.4570312 -0.83203,-1.0195312 -1.30078,-1.265625 l -0.0937,0.1289063 c 1.35938,0.8789062 1.35938,2.625 1.35938,3.4453125 0,2.02734373 -0.77344,2.66015623 -1.35938,3.12890623 z m 0,0"
                 style="fill:#000000;fill-opacity:1;fill-rule:nonzero;stroke:none"
                 id="path158" />
            </g>
            <path
               d="m 312.739,610.276 c 5.235,0 9.478,4.244 9.478,9.479 0,5.235 -4.243,9.479 -9.478,9.479 -5.235,0 -9.479,-4.244 -9.479,-9.479 0,-5.235 4.244,-9.479 9.479,-9.479"
               style="fill:#ffffff;fill-opacity:1;fill-rule:nonzero;stroke:none"
               transform="matrix(1.3333333,0,0,-1.3333333,0,908.20005)"
               clip-path="url(#clipPath116)"
               id="path159" />
            <path
               d="m 312.739,610.276 c 5.235,0 9.478,4.244 9.478,9.479 0,5.235 -4.243,9.479 -9.478,9.479 -5.235,0 -9.479,-4.244 -9.479,-9.479 0,-5.235 4.244,-9.479 9.479,-9.479 z"
               style="fill:none;stroke:#000000;stroke-width:0.8;stroke-linecap:butt;stroke-linejoin:miter;stroke-miterlimit:4;stroke-dasharray:none;stroke-opacity:1"
               transform="matrix(1.3333333,0,0,-1.3333333,0,908.20005)"
               clip-path="url(#clipPath117)"
               id="path160" />
            <path
               d="m 319.392,626.478 -13.307,-13.307 m 0,13.307 13.307,-13.307"
               style="fill:none;stroke:#000000;stroke-width:0.4;stroke-linecap:butt;stroke-linejoin:miter;stroke-miterlimit:4;stroke-dasharray:none;stroke-opacity:1"
               transform="matrix(1.3333333,0,0,-1.3333333,0,908.20005)"
               clip-path="url(#clipPath118)"
               id="path161" />
            <path
               d="M 1.9933359,-2.2850716 H 0.23552344 v 0.5273437 H 1.9933359 V 8.4625e-5 H 2.5206797 V -1.7577279 H 4.2784922 V -2.2850716 H 2.5206797 V -4.0546029 H 1.9933359 Z M 5.752125,3.5186393 V 3.9170768 H 9.7482188 V 3.5186393 Z m 0,0"
               style="fill:#000000;fill-opacity:1;fill-rule:nonzero;stroke:none"
               aria-label="+&#10;–"
               transform="matrix(1.3333333,0,0,1.3333333,406.648,84.532048)"
               clip-path="url(#clipPath119)"
               id="path162" />
          </g>
        </g>
      </g>
    </g>
  </g>
</svg>
