<?xml version="1.0" encoding="UTF-8" standalone="no"?>
<!-- Created with Inkscape (http://www.inkscape.org/) -->

<svg
   version="1.1"
   id="svg1"
   viewBox="0 0 566.34277 162.58032"
   xmlns="http://www.w3.org/2000/svg"
   xmlns:svg="http://www.w3.org/2000/svg">
  <defs
     id="defs1">
    <clipPath
       clipPathUnits="userSpaceOnUse"
       id="clipPath74">
      <path
         d="M 73.849,527.865 H 489.152 V 640.5 H 73.849 Z"
         transform="translate(-158.46891,-556.57961)"
         id="path74" />
    </clipPath>
    <clipPath
       clipPathUnits="userSpaceOnUse"
       id="clipPath76">
      <path
         d="M 73.849,527.865 H 489.152 V 640.5 H 73.849 Z"
         transform="translate(-112.88301,-572.90131)"
         id="path76" />
    </clipPath>
    <clipPath
       clipPathUnits="userSpaceOnUse"
       id="clipPath82">
      <path
         d="M 73.849,527.865 H 489.152 V 640.5 H 73.849 Z"
         transform="translate(-99.383905,-599.28172)"
         id="path82" />
    </clipPath>
    <clipPath
       clipPathUnits="userSpaceOnUse"
       id="clipPath89">
      <path
         d="M 73.849,527.865 H 489.152 V 640.5 H 73.849 Z"
         transform="translate(-462.90151,-556.57961)"
         id="path89" />
    </clipPath>
    <clipPath
       clipPathUnits="userSpaceOnUse"
       id="clipPath91">
      <path
         d="M 73.849,527.865 H 489.152 V 640.5 H 73.849 Z"
         transform="translate(-417.31561,-551.59331)"
         id="path91" />
    </clipPath>
    <clipPath
       clipPathUnits="userSpaceOnUse"
       id="clipPath101">
      <path
         d="M 73.849,527.865 H 489.152 V 640.5 H 73.849 Z"
         transform="translate(-341.96111,-556.45261)"
         id="path101" />
    </clipPath>
    <clipPath
       clipPathUnits="userSpaceOnUse"
       id="clipPath103">
      <path
         d="M 73.849,527.865 H 489.152 V 640.5 H 73.849 Z"
         transform="translate(-296.37511,-551.46731)"
         id="path103" />
    </clipPath>
    <clipPath
       clipPathUnits="userSpaceOnUse"
       id="clipPath105">
      <path
         d="M 73.849,527.865 H 489.152 V 640.5 H 73.849 Z"
         transform="translate(-351.84681,-599.15531)"
         id="path105" />
    </clipPath>
    <clipPath
       clipPathUnits="userSpaceOnUse"
       id="clipPath107">
      <path
         d="M 73.849,527.865 H 489.152 V 640.5 H 73.849 Z"
         transform="translate(-236.92101,-599.00932)"
         id="path107" />
    </clipPath>
    <clipPath
       clipPathUnits="userSpaceOnUse"
       id="clipPath109">
      <path
         d="M 73.849,527.865 H 489.152 V 640.5 H 73.849 Z"
         transform="translate(-234.92101,-588.21631)"
         id="path109" />
    </clipPath>
    <clipPath
       clipPathUnits="userSpaceOnUse"
       id="clipPath111">
      <path
         d="M 73.849,527.865 H 489.152 V 640.5 H 73.849 Z"
         transform="translate(-265.14961,-599.06981)"
         id="path111" />
    </clipPath>
    <clipPath
       clipPathUnits="userSpaceOnUse"
       id="clipPath113">
      <path
         d="M 73.849,527.865 H 489.152 V 640.5 H 73.849 Z"
         transform="translate(-239.8126,-605.20612)"
         id="path113" />
    </clipPath>
    <clipPath
       clipPathUnits="userSpaceOnUse"
       id="clipPath115">
      <path
         d="M 73.849,527.865 H 489.152 V 640.5 H 73.849 Z"
         transform="translate(-239.56561,-593.03032)"
         id="path115" />
    </clipPath>
    <clipPath
       clipPathUnits="userSpaceOnUse"
       id="clipPath216">
      <path
         d="M 0,0 H 582 V 744 H 0 Z"
         transform="translate(-15,-705.00002)"
         id="path216" />
    </clipPath>
    <clipPath
       clipPathUnits="userSpaceOnUse"
       id="clipPath218">
      <path
         d="M 0,0 H 582 V 744 H 0 Z"
         transform="translate(-15,-705.00002)"
         id="path218" />
    </clipPath>
  </defs>
  <g
     id="g1"
     transform="translate(-94.170753,-130.29346)">
    <g
       id="group-MC0">
      <g
         id="g387">
        <rect
           style="fill:#ffffff;stroke-width:1.01513"
           id="rect386"
           width="566.34277"
           height="162.58031"
           x="94.170753"
           y="130.29346" />
        <g
           id="g386">
          <path
             id="path59"
             d="m 154.531,543.788 h -41.752 v 67.247 h 41.752 z"
             style="fill:#e6f7fd;fill-opacity:1;fill-rule:nonzero;stroke:none"
             transform="matrix(1.3333333,0,0,-1.3333333,0,992)" />
          <path
             id="path60"
             d="M 0,0 H -41.752 V 67.247 H 0 Z"
             style="fill:none;stroke:#231f20;stroke-width:0.75;stroke-linecap:butt;stroke-linejoin:miter;stroke-miterlimit:4;stroke-dasharray:none;stroke-opacity:1"
             transform="matrix(1.3333333,0,0,-1.3333333,206.0416,266.94867)" />
          <path
             id="path61"
             d="m 458.87,543.788 h -41.752 v 67.247 h 41.752 z"
             style="fill:#e6f7fd;fill-opacity:1;fill-rule:nonzero;stroke:none"
             transform="matrix(1.3333333,0,0,-1.3333333,0,992)" />
          <path
             id="path62"
             d="M 0,0 H -41.752 V 67.247 H 0 Z"
             style="fill:none;stroke:#231f20;stroke-width:0.75;stroke-linecap:butt;stroke-linejoin:miter;stroke-miterlimit:4;stroke-dasharray:none;stroke-opacity:1"
             transform="matrix(1.3333333,0,0,-1.3333333,611.82693,266.94867)" />
          <path
             id="path63"
             d="m 338.269,543.788 h -41.752 v 67.247 h 41.752 z"
             style="fill:#e6f7fd;fill-opacity:1;fill-rule:nonzero;stroke:none"
             transform="matrix(1.3333333,0,0,-1.3333333,0,992)" />
          <path
             id="path64"
             d="M 0,0 H -41.752 V 67.247 H 0 Z"
             style="fill:none;stroke:#231f20;stroke-width:0.75;stroke-linecap:butt;stroke-linejoin:miter;stroke-miterlimit:4;stroke-dasharray:none;stroke-opacity:1"
             transform="matrix(1.3333333,0,0,-1.3333333,451.0256,266.94867)" />
          <path
             id="path65"
             d="M 0,0 H -14.672 V 42.806"
             style="fill:none;stroke:#231f20;stroke-width:0.5;stroke-linecap:butt;stroke-linejoin:miter;stroke-miterlimit:4;stroke-dasharray:none;stroke-opacity:1"
             transform="matrix(1.3333333,0,0,-1.3333333,150.07827,249.83787)" />
          <path
             id="path66"
             d="M 0,0 H -27.672"
             style="fill:none;stroke:#231f20;stroke-width:0.5;stroke-linecap:butt;stroke-linejoin:miter;stroke-miterlimit:4;stroke-dasharray:none;stroke-opacity:1"
             transform="matrix(1.3333333,0,0,-1.3333333,243.6252,192.9844)" />
          <path
             id="path67"
             d="M 0,0 H -27.672"
             style="fill:none;stroke:#231f20;stroke-width:0.5;stroke-linecap:butt;stroke-linejoin:miter;stroke-miterlimit:4;stroke-dasharray:none;stroke-opacity:1"
             transform="matrix(1.3333333,0,0,-1.3333333,555.94293,249.92507)" />
          <path
             id="path68"
             d="M 0,0 H -27.672"
             style="fill:none;stroke:#231f20;stroke-width:0.5;stroke-linecap:butt;stroke-linejoin:miter;stroke-miterlimit:4;stroke-dasharray:none;stroke-opacity:1"
             transform="matrix(1.3333333,0,0,-1.3333333,395.27227,250.13347)" />
          <path
             id="path69"
             d="M 0,0 H -7.234"
             style="fill:none;stroke:#231f20;stroke-width:0.5;stroke-linecap:butt;stroke-linejoin:miter;stroke-miterlimit:4;stroke-dasharray:none;stroke-opacity:1"
             transform="matrix(1.3333333,0,0,-1.3333333,149.83293,221.4108)" />
          <path
             id="path70"
             d="M 0,0 H -27.97"
             style="fill:none;stroke:#231f20;stroke-width:0.5;stroke-linecap:butt;stroke-linejoin:miter;stroke-miterlimit:4;stroke-dasharray:none;stroke-opacity:1"
             transform="matrix(1.3333333,0,0,-1.3333333,150.03533,192.9844)" />
          <path
             id="path71"
             d="M 0,0 H -24.254"
             style="fill:none;stroke:#231f20;stroke-width:0.5;stroke-linecap:butt;stroke-linejoin:miter;stroke-miterlimit:4;stroke-dasharray:none;stroke-opacity:1"
             transform="matrix(1.3333333,0,0,-1.3333333,243.6252,249.83787)" />
          <path
             id="path72"
             d="m 1.6047891,-5.3901219 c 0.5625,0.023437 0.703125,0.1640625 0.703125,0.375 0,0.09375 -0.023437,0.1875 -0.046875,0.2929688 l -1.1132813,3.99609372 c -0.09375,0.3046875 -0.17578124,0.6328125 -0.48046874,0.6328125 -0.12890625,0 -0.19921875,-0.08203125 -0.19921875,-0.19921875 0,-0.15234375 0.0585938,-0.19921875 0.0585938,-0.3515625 0,-0.22265625 -0.19921875,-0.3515625 -0.3515625,-0.3515625 -0.1171875,0 -0.421875,0.0234375 -0.421875,0.45703125 0,0.17578125 0.10546875,0.65625 0.84375,0.65625 0.89062509,0 1.25390629,-0.48046875 1.55859379,-1.54687502 l 0.9140625,-3.2929687 c 0.082031,-0.328125 0.1992188,-0.6210938 0.7734375,-0.6679688 l 0.035156,-0.1289062 H 1.6516641 Z M 0.37432031,43.535659 H 2.6946328 l 0.046875,-0.140625 c -0.609375,0 -0.7617187,-0.152343 -0.7617187,-0.351562 0,-0.07031 0.023437,-0.199219 0.058594,-0.304688 l 0.5507813,-1.992187 h 0.1757812 l 1.3359375,1.992187 c 0.1054688,0.152344 0.1875,0.28125 0.1757813,0.398438 0,0.175781 -0.1757813,0.257812 -0.5742188,0.257812 l -0.046875,0.140625 h 2.3671875 l 0.035156,-0.140625 C 5.5657266,43.383316 5.3313516,43.172378 4.8860391,42.504409 L 3.5032266,40.406753 5.7415078,38.602066 c 0.28125,-0.234375 0.5625,-0.386719 0.9726563,-0.457032 l 0.035156,-0.128906 h -1.863281 l -0.046875,0.128906 c 0.1640625,0.02344 0.4804687,0.02344 0.4804687,0.234375 0,0.164063 -0.1289062,0.28125 -0.328125,0.445313 l -2.1679687,1.722656 h -0.1875 l 0.4804687,-1.734375 c 0.09375,-0.328125 0.1992188,-0.621094 0.7851563,-0.667969 l 0.035156,-0.128906 H 1.7102578 l -0.046875,0.128906 c 0.5625,0.02344 0.703125,0.164063 0.703125,0.375 0,0.09375 -0.023437,0.1875 -0.058594,0.292969 l -1.1132813,3.996094 c -0.09375,0.398437 -0.1757812,0.539062 -0.77343749,0.585937 z M 13.865531,17.024917 h -0.140625 c -0.07031,0.152344 -0.128906,0.1875 -0.316406,0.1875 -0.09375,0 -0.234375,-0.05859 -0.433594,-0.117187 -0.210937,-0.05859 -0.457031,-0.117188 -0.785156,-0.117188 -1.863281,0 -3.609375,1.640625 -3.609375,3.515625 0,1.347656 0.9375,2.238281 2.273438,2.238281 0.996093,0 1.769531,-0.46875 2.390625,-1.21875 l -0.152344,-0.117187 c -0.527344,0.550781 -1.171875,0.972656 -1.96875,0.972656 -1.101563,0 -1.6171877,-0.855469 -1.6171877,-1.851562 0,-1.371094 1.1015627,-3.269532 2.6367187,-3.269532 0.925781,0 1.253906,0.445313 1.253906,1.183594 v 0.199219 h 0.140625 z m 1.640625,4.640625 c -0.09375,0.128906 -0.46875,0.585938 -0.632812,0.585938 -0.105469,0 -0.175781,-0.05859 -0.175781,-0.222657 0,-0.09375 0.03516,-0.257812 0.08203,-0.410156 l 1.230469,-4.382812 c 0.03516,-0.105469 0.05859,-0.210938 0.05859,-0.257813 0,-0.05859 -0.02344,-0.08203 -0.09375,-0.08203 -0.05859,0 -0.199218,0.03516 -0.351562,0.07031 -0.199219,0.05859 -0.539063,0.105469 -0.878906,0.128907 L 14.721,17.224136 c 0.445313,0.01172 0.515625,0.07031 0.515625,0.222656 0,0.105469 -0.02344,0.269531 -0.105469,0.539063 l -0.925781,3.386718 c -0.117187,0.421875 -0.1875,0.644532 -0.1875,0.914063 0,0.257812 0.117188,0.410156 0.386719,0.410156 0.503906,0 0.9375,-0.574219 1.230469,-0.925781 z m 0.665039,0.949219 h 0.679688 l 0.433594,-1.476563 0.503906,-0.386718 0.65625,1.523437 c 0.117187,0.257813 0.28125,0.421875 0.503906,0.421875 0.480469,0 0.855469,-0.480469 1.136719,-0.878906 l -0.152344,-0.105469 c -0.09375,0.1875 -0.445312,0.539063 -0.609375,0.539063 -0.140625,0 -0.269531,-0.199219 -0.421875,-0.5625 l -0.597656,-1.335938 1.066406,-0.808594 c 0.316406,-0.246093 0.644531,-0.433593 0.996094,-0.433593 l 0.02344,-0.140625 H 18.74932 l -0.02344,0.140625 c 0.210937,0 0.398437,0.02344 0.398437,0.164062 0,0.117188 -0.246093,0.328125 -0.5625,0.574219 l -1.183593,0.9375 h -0.01172 l 0.984375,-3.550781 c 0.03516,-0.105469 0.05859,-0.210938 0.05859,-0.257813 0,-0.05859 -0.02344,-0.08203 -0.09375,-0.08203 -0.05859,0 -0.199219,0.03516 -0.351563,0.07031 -0.199219,0.05859 -0.527344,0.105469 -0.878906,0.128907 l -0.02344,0.128906 c 0.457032,0.01172 0.515625,0.07031 0.515625,0.222656 0,0.105469 -0.02344,0.269531 -0.105468,0.539063 z m 0,0"
             style="fill:#231f20;fill-opacity:1;fill-rule:nonzero;stroke:none"
             aria-label="J&#10;K&#10;Clk"
             transform="matrix(1.3333333,0,0,1.3333333,154.372,196.21027)" />
          <path
             id="path73"
             d="m 0,0 c 0,-0.967 -0.783,-1.75 -1.75,-1.75 -0.967,0 -1.75,0.783 -1.75,1.75 0,0.967 0.783,1.75 1.75,1.75 C -0.783,1.75 0,0.967 0,0"
             style="fill:#e6f7fd;fill-opacity:1;fill-rule:nonzero;stroke:#231f20;stroke-width:0.5;stroke-linecap:butt;stroke-linejoin:miter;stroke-miterlimit:4;stroke-dasharray:none;stroke-opacity:1"
             transform="matrix(1.3333333,0,0,-1.3333333,211.29187,249.89387)"
             clip-path="url(#clipPath74)" />
          <path
             id="path75"
             d="M 0,0 V 8.276 L 7.138,4.138 Z"
             style="fill:none;stroke:#231f20;stroke-width:0.5;stroke-linecap:butt;stroke-linejoin:miter;stroke-miterlimit:4;stroke-dasharray:none;stroke-opacity:1"
             transform="matrix(1.3333333,0,0,-1.3333333,150.51067,228.1316)"
             clip-path="url(#clipPath76)" />
          <g
             id="g76"
             aria-label="(a) From JK fip-fop&#10;T"
             transform="matrix(1.3333333,0,0,1.3333333,128.2116,283.65427)">
            <path
               id="path77"
               d="m 5.7286817,-2.658262 0.7734375,-0.046875 z m 3.3779301,1.83984369 h 2.5898432 v -0.1640625 c -0.632812,0 -0.855468,-0.12890629 -0.855468,-0.78515629 v -1.7929687 h 1.265625 c 0.574218,0 0.75,0.234375 0.773437,0.8085938 h 0.152344 v -1.9101563 h -0.152344 c -0.02344,0.5273438 -0.222656,0.7617188 -0.773437,0.7617188 h -1.265625 v -1.5820313 c 0,-0.3984375 0.01172,-0.5273437 0.339843,-0.5273437 h 1.558594 c 0.632813,0 0.820313,0.375 0.9375,0.9492187 h 0.164063 l -0.09375,-1.2773437 H 9.1066118 v 0.1523437 c 0.644531,0 0.867187,0.1289063 0.867187,0.7851563 v 3.6328124 c 0,0.65625 -0.222656,0.78515629 -0.867187,0.78515629 z m 4.9804682,0 h 2.015625 v -0.1640625 c -0.585937,0 -0.679687,-0.0820313 -0.679687,-0.71484379 v -1.8632812 c 0,-0.046875 0.316406,-0.5507812 0.609375,-0.5507812 0.09375,0 0.152344,0.046875 0.210937,0.1054687 0.07031,0.058594 0.140625,0.1171875 0.269532,0.1171875 0.199218,0 0.386718,-0.1523437 0.386718,-0.3632812 0,-0.2695313 -0.234375,-0.4101563 -0.46875,-0.4101563 -0.398437,0 -0.773437,0.4570313 -1.007812,0.7148438 v -0.7148438 h -0.03516 c -0.410157,0.140625 -0.855469,0.2695313 -1.300782,0.3867188 v 0.1640625 c 0.5625,0 0.632813,0.070312 0.632813,0.6445312 v 1.7578125 c 0,0.5859375 -0.02344,0.703125 -0.632813,0.72656249 z m 4.025391,-2.14453119 c 0,-0.7148438 0.269531,-1.453125 1.078125,-1.453125 0.972656,0 1.21875,1.1835937 1.21875,2.0390625 0,0.5976562 -0.292969,1.39453119 -1.007813,1.39453119 -0.972656,0 -1.289062,-1.20703119 -1.289062,-1.98046869 z m 3.070312,0.28125 c 0,-1.2070313 -0.703125,-1.9804688 -1.933593,-1.9804688 -1.089844,0 -1.910157,0.9023438 -1.910157,1.9804688 0,1.1015624 0.796875,1.94531244 1.910157,1.94531244 1.089843,0 1.933593,-0.85546874 1.933593,-1.94531244 z m 0.454102,1.86328119 h 1.875 v -0.1640625 c -0.421875,0 -0.597656,-0.0585938 -0.597656,-0.52734379 v -2.2499999 c 0.246094,-0.2109375 0.527344,-0.3984375 0.855469,-0.3984375 0.398437,0 0.703125,0.2226562 0.703125,0.7851562 v 1.8632812 c 0,0.46875 -0.175782,0.52734379 -0.597657,0.52734379 v 0.1640625 h 1.875 v -0.1640625 c -0.410156,0 -0.574218,-0.0585938 -0.574218,-0.52734379 v -2.2499999 c 0.257812,-0.2578125 0.585937,-0.3984375 0.84375,-0.3984375 0.410156,0 0.703125,0.2226562 0.703125,0.7851562 v 1.8632812 c 0,0.46875 -0.164063,0.52734379 -0.585938,0.52734379 v 0.1640625 h 1.875 v -0.1640625 c -0.410156,0 -0.585937,-0.0585938 -0.585937,-0.52734379 v -1.8398437 c 0,-0.9609375 -0.375,-1.3125 -1.007813,-1.3125 -0.398437,0 -0.75,0.2226563 -1.300781,0.6679688 -0.1875,-0.4453125 -0.457031,-0.6679688 -0.949219,-0.6679688 -0.503906,0 -0.878906,0.328125 -1.253906,0.6210938 v -0.6210938 c -0.386719,0.1289063 -0.832031,0.2929688 -1.277344,0.375 v 0.1523438 h 0.08203 c 0.375,0 0.492188,0.140625 0.492188,0.4453125 v 2.1796874 c 0,0.46875 -0.164063,0.52734379 -0.574219,0.52734379 z"
               style="fill:#231f20;fill-opacity:1;fill-rule:nonzero;stroke:none" />
            <path
               id="path78"
               d="m 31.753096,-6.2090433 c 0.5625,0.023437 0.703125,0.1640625 0.703125,0.375 0,0.09375 -0.02344,0.1875 -0.04687,0.2929688 l -1.113281,3.9960937 c -0.09375,0.3046875 -0.175782,0.63281249 -0.480469,0.63281249 -0.128906,0 -0.199219,-0.0820313 -0.199219,-0.19921879 0,-0.1523437 0.05859,-0.1992187 0.05859,-0.3515625 0,-0.2226562 -0.199219,-0.3515625 -0.351563,-0.3515625 -0.117187,0 -0.421875,0.023437 -0.421875,0.4570313 0,0.1757812 0.105469,0.65624999 0.84375,0.65624999 0.890625,0 1.253907,-0.48046879 1.558594,-1.54687499 l 0.914063,-3.2929687 c 0.08203,-0.328125 0.199218,-0.6210938 0.773437,-0.6679688 l 0.03516,-0.1289062 h -2.226562 z m 2.015625,5.39062499 h 2.320312 l 0.04687,-0.140625 c -0.609375,0 -0.761718,-0.15234379 -0.761718,-0.35156249 0,-0.070312 0.02344,-0.1992188 0.05859,-0.3046875 l 0.550782,-1.9921875 h 0.175781 l 1.335937,1.9921875 c 0.105469,0.1523437 0.1875,0.28125 0.175782,0.3984375 0,0.1757812 -0.175782,0.25781249 -0.574219,0.25781249 l -0.04687,0.140625 h 2.367187 l 0.03516,-0.140625 C 38.960127,-0.97076206 38.725752,-1.1816996 38.28044,-1.8496683 l -1.382813,-2.0976562 2.238281,-1.8046875 c 0.28125,-0.234375 0.5625,-0.3867188 0.972657,-0.4570313 l 0.03516,-0.1289062 H 38.28044 l -0.04687,0.1289062 c 0.164062,0.023437 0.480468,0.023437 0.480468,0.234375 0,0.1640625 -0.128906,0.28125 -0.328125,0.4453125 l -2.167968,1.7226563 h -0.1875 l 0.480468,-1.734375 c 0.09375,-0.328125 0.199219,-0.6210938 0.785157,-0.6679688 l 0.03516,-0.1289062 h -2.226563 l -0.04687,0.1289062 c 0.5625,0.023437 0.703125,0.1640625 0.703125,0.375 0,0.09375 -0.02344,0.1875 -0.05859,0.2929688 l -1.113282,3.9960937 c -0.09375,0.3984375 -0.175781,0.5390625 -0.773437,0.58593749 z m 0,0"
               style="fill:#231f20;fill-opacity:1;fill-rule:nonzero;stroke:none" />
            <path
               id="path79"
               d="m 42.074385,-4.345762 h 0.597656 v 2.8359374 c 0,0.46875 -0.175781,0.52734379 -0.597656,0.52734379 v 0.1640625 h 1.886719 v -0.1640625 c -0.421875,0 -0.585938,-0.0585938 -0.585938,-0.52734379 V -4.345762 h 1.546875 v 2.8359374 c 0,0.46875 -0.164062,0.52734379 -0.585937,0.52734379 v 0.1640625 h 1.886719 v -0.1640625 c -0.421875,0 -0.597657,-0.0585938 -0.597657,-0.52734379 v -4.9687499 l -0.703125,0.2695312 c -0.1875,-0.1289062 -0.433593,-0.2578125 -0.808593,-0.2578125 -1.171875,0 -1.441407,0.9492188 -1.441407,1.8867188 h -0.597656 z m 1.300781,-0.234375 v -0.515625 c 0,-0.3515625 0,-1.1367188 0.480469,-1.1367188 0.164063,0 0.269531,0.140625 0.351563,0.2695313 0.140625,0.234375 0.257812,0.3398437 0.433593,0.3398437 0.09375,0 0.222657,-0.023437 0.269532,-0.1289062 h 0.01172 v 1.171875 z m 3.161133,0.4453125 h 0.105469 c 0.375,0 0.492187,0.140625 0.492187,0.4453125 v 2.1796874 c 0,0.46875 -0.164062,0.52734379 -0.597656,0.52734379 v 0.1640625 h 1.898438 v -0.1640625 c -0.433594,0 -0.597657,-0.0585938 -0.597657,-0.52734379 v -3.1523437 c -0.386718,0.1289063 -0.84375,0.2929688 -1.300781,0.375 z m 0.492188,-1.96875 c 0,0.234375 0.1875,0.421875 0.433593,0.421875 0.234375,0 0.433594,-0.1875 0.433594,-0.421875 0,-0.2460938 -0.199219,-0.4335938 -0.433594,-0.4335938 -0.246093,0 -0.433593,0.1875 -0.433593,0.4335938 z m 2.961914,2.5195312 c 0,-0.1523437 0.351562,-0.5742187 0.867187,-0.5742187 0.878906,0 1.183594,0.8789062 1.183594,1.6289062 0,0.6679688 -0.328125,1.54687499 -1.136719,1.54687499 -0.328125,0 -0.785156,-0.17578129 -0.914062,-0.52734379 z m -0.703125,3.97265628 c 0,0.5039062 -0.234375,0.5039062 -0.574219,0.5039062 V 1.0565817 h 1.921875 V 0.89251918 c -0.386719,0 -0.644531,0 -0.644531,-0.4453125 V -1.0059183 c 0.257812,0.21093749 0.585937,0.26953124 0.914062,0.26953124 1.183594,0 1.839844,-1.18359374 1.839844,-2.19140624 0,-0.9375 -0.574219,-1.734375 -1.546875,-1.734375 -0.492188,0 -0.925781,0.3046875 -1.195313,0.6796875 h -0.01172 v -0.6796875 h -0.03516 c -0.386718,0.2226563 -0.808593,0.3984375 -1.242187,0.5039063 v 0.1523437 h 0.175781 c 0.351563,0 0.398438,0.1171875 0.398438,0.5859375 z m 6.064453,-2.82421878 v -0.5390625 h -1.945313 v 0.5390625 z m 0.506836,-1.9101562 h 0.597656 v 2.8359374 c 0,0.46875 -0.175781,0.52734379 -0.597656,0.52734379 v 0.1640625 h 1.886718 v -0.1640625 c -0.421875,0 -0.585937,-0.0585938 -0.585937,-0.52734379 V -4.345762 h 1.546875 v 2.8359374 c 0,0.46875 -0.164063,0.52734379 -0.585938,0.52734379 v 0.1640625 h 1.886719 v -0.1640625 c -0.421875,0 -0.597656,-0.0585938 -0.597656,-0.52734379 v -4.9687499 l -0.703125,0.2695312 c -0.1875,-0.1289062 -0.433594,-0.2578125 -0.808594,-0.2578125 -1.171875,0 -1.441406,0.9492188 -1.441406,1.8867188 h -0.597656 z m 1.300781,-0.234375 v -0.515625 c 0,-0.3515625 0,-1.1367188 0.480469,-1.1367188 0.164062,0 0.269531,0.140625 0.351562,0.2695313 0.140625,0.234375 0.257813,0.3398437 0.433594,0.3398437 0.09375,0 0.222656,-0.023437 0.269531,-0.1289062 h 0.01172 v 1.171875 z m 4.075195,1.6171875 c 0,-0.7148438 0.269532,-1.453125 1.078125,-1.453125 0.972657,0 1.21875,1.1835937 1.21875,2.0390625 0,0.5976562 -0.292968,1.39453119 -1.007812,1.39453119 -0.972656,0 -1.289063,-1.20703119 -1.289063,-1.98046869 z m 3.070313,0.28125 c 0,-1.2070313 -0.703125,-1.9804688 -1.933594,-1.9804688 -1.089844,0 -1.910156,0.9023438 -1.910156,1.9804688 0,1.1015624 0.796875,1.94531244 1.910156,1.94531244 1.089844,0 1.933594,-0.85546874 1.933594,-1.94531244 z m 1.693359,-0.9023438 c 0,-0.1523437 0.351563,-0.5742187 0.867188,-0.5742187 0.878906,0 1.183593,0.8789062 1.183593,1.6289062 0,0.6679688 -0.328125,1.54687499 -1.136718,1.54687499 -0.328125,0 -0.785157,-0.17578129 -0.914063,-0.52734379 z m -0.703125,3.97265628 c 0,0.5039062 -0.234375,0.5039062 -0.574219,0.5039062 V 1.0565817 h 1.921875 V 0.89251918 c -0.386718,0 -0.644531,0 -0.644531,-0.4453125 V -1.0059183 c 0.257813,0.21093749 0.585938,0.26953124 0.914063,0.26953124 1.183593,0 1.839843,-1.18359374 1.839843,-2.19140624 0,-0.9375 -0.574218,-1.734375 -1.546875,-1.734375 -0.492187,0 -0.925781,0.3046875 -1.195312,0.6796875 h -0.01172 v -0.6796875 h -0.03516 c -0.386719,0.2226563 -0.808594,0.3984375 -1.242188,0.5039063 v 0.1523437 h 0.175782 c 0.351562,0 0.398437,0.1171875 0.398437,0.5859375 z m 0,0"
               style="fill:#231f20;fill-opacity:1;fill-rule:nonzero;stroke:none" />
            <path
               id="path80"
               d="m -18.504403,-65.793434 h 2.507812 l 0.03516,-0.140625 c -0.632813,0 -0.855469,-0.08203 -0.855469,-0.328125 0,-0.07031 0.01172,-0.128907 0.03516,-0.210938 l 1.183594,-4.265625 c 0.08203,-0.292969 0.140625,-0.316406 0.585937,-0.316406 0.808594,0 1.019532,0.246094 1.007813,1.101562 h 0.140625 l 0.246094,-1.359375 h -4.652344 l -0.351563,1.335938 h 0.128907 c 0.304687,-0.878906 0.761718,-1.078125 1.6875,-1.078125 0.328125,0 0.421875,0.04687 0.421875,0.175781 0,0.03516 -0.01172,0.08203 -0.02344,0.140625 l -1.171875,4.230469 c -0.152344,0.550781 -0.339844,0.550781 -0.890625,0.574219 z m 0,0"
               style="fill:#231f20;fill-opacity:1;fill-rule:nonzero;stroke:none" />
          </g>
          <path
             id="path81"
             d="M 0,0 C 0,-0.829 -0.671,-1.5 -1.5,-1.5 -2.329,-1.5 -3,-0.829 -3,0 -3,0.829 -2.329,1.5 -1.5,1.5 -0.671,1.5 0,0.829 0,0"
             style="fill:#231f20;fill-opacity:1;fill-rule:nonzero;stroke:none"
             transform="matrix(1.3333333,0,0,-1.3333333,132.51187,192.95773)"
             clip-path="url(#clipPath82)" />
          <path
             id="path83"
             d="m 555.51363,278.35665 -0.14063,-2.25 h -0.17187 c -0.0469,0.26563 -0.17188,0.35938 -0.34375,0.35938 -0.20313,0 -0.5,-0.10938 -0.85938,-0.21875 -0.35937,-0.10938 -0.79687,-0.21875 -1.45312,-0.21875 -2.25,0 -4,1.625 -4,3.92187 0,2.51563 1.90625,3.78125 4.03125,3.78125 1.3125,0 2.76562,-0.53125 3.10937,-0.92187 v -2.32813 c 0,-0.625 0.39063,-0.67187 0.89063,-0.67187 v -0.21875 h -3.15625 v 0.21875 c 0.625,0 1.10937,0.0469 1.10937,0.71875 v 2.23437 c -0.26562,0.4375 -1.26562,0.57813 -1.85937,0.57813 -1.70313,0 -2.82813,-1.34375 -2.82813,-3.5625 0,-1.6875 0.89063,-3.35938 2.8125,-3.35938 1.34375,0 2.21875,0.64063 2.64063,1.9375 z m 1.57422,5.20313 h 2.6875 v -0.21875 c -0.78125,0 -0.90625,-0.10938 -0.90625,-0.95313 v -2.48437 c 0,-0.0625 0.42187,-0.73438 0.8125,-0.73438 0.125,0 0.20312,0.0625 0.28125,0.14063 0.0937,0.0781 0.1875,0.15625 0.35937,0.15625 0.26563,0 0.51563,-0.20313 0.51563,-0.48438 0,-0.35937 -0.3125,-0.54687 -0.625,-0.54687 -0.53125,0 -1.03125,0.60937 -1.34375,0.95312 v -0.95312 h -0.0469 c -0.54688,0.1875 -1.14063,0.35937 -1.73438,0.51562 v 0.21875 c 0.75,0 0.84375,0.0937 0.84375,0.85938 v 2.34375 c 0,0.78125 -0.0312,0.9375 -0.84375,0.96875 z m 5.36718,-1.32813 c 0,-0.96875 1.23438,-1.29687 1.95313,-1.59375 v 1.82813 c 0,0.26562 -0.57813,0.67187 -1.04688,0.67187 -0.59375,0 -0.90625,-0.32812 -0.90625,-0.90625 z m 2.89063,-1.92187 c 0,-1.20313 -0.4375,-1.875 -1.75,-1.875 -0.6875,0 -1.84375,0.32812 -1.84375,1.17187 0,0.29688 0.14062,0.53125 0.45312,0.53125 0.34375,0 0.48438,-0.26562 0.48438,-0.5625 0,-0.125 -0.0312,-0.23437 -0.0156,-0.35937 0.0156,-0.35938 0.54688,-0.45313 0.8125,-0.45313 0.79688,0 0.92188,0.57813 0.92188,1.04688 v 0.5625 c -0.48438,0.14062 -1.23438,0.34375 -1.76563,0.625 -0.625,0.32812 -1.14062,0.78125 -1.14062,1.5 0,0.67187 0.53125,1.17187 1.20312,1.17187 0.65625,0 1.21875,-0.32812 1.71875,-0.70312 0.0156,0.34375 0.25,0.70312 0.625,0.70312 0.51563,0 0.85938,-0.25 1.125,-0.67187 l -0.125,-0.10938 c -0.0937,0.10938 -0.23437,0.25 -0.40625,0.25 -0.28125,0 -0.29687,-0.28125 -0.29687,-0.5 z m 2.86328,-0.4375 c 0,-0.20313 0.46875,-0.76563 1.15625,-0.76563 1.17188,0 1.57813,1.17188 1.57813,2.17188 0,0.89062 -0.4375,2.0625 -1.51563,2.0625 -0.4375,0 -1.04687,-0.23438 -1.21875,-0.70313 z m -0.9375,5.29687 c 0,0.67188 -0.3125,0.67188 -0.76562,0.67188 v 0.21875 h 2.5625 v -0.21875 c -0.51563,0 -0.85938,0 -0.85938,-0.59375 v -1.9375 c 0.34375,0.28125 0.78125,0.35937 1.21875,0.35937 1.57813,0 2.45313,-1.57812 2.45313,-2.92187 0,-1.25 -0.76563,-2.3125 -2.0625,-2.3125 -0.65625,0 -1.23438,0.40625 -1.59375,0.90625 h -0.0156 v -0.90625 h -0.0469 c -0.51563,0.29687 -1.07813,0.53125 -1.65625,0.67187 v 0.20313 h 0.23437 c 0.46875,0 0.53125,0.15625 0.53125,0.78125 z m 5.22656,-1.60937 h 2.5 v -0.21875 c -0.5625,0 -0.78125,-0.0781 -0.78125,-0.70313 v -3 c 0.3125,-0.28125 0.6875,-0.53125 1.125,-0.53125 0.54688,0 0.9375,0.29688 0.9375,1.04688 v 2.48437 c 0,0.625 -0.21875,0.70313 -0.78125,0.70313 v 0.21875 h 2.48438 v -0.21875 c -0.53125,0 -0.76563,-0.0781 -0.76563,-0.70313 v -2.45312 c 0,-1.28125 -0.5,-1.75 -1.34375,-1.75 -0.67187,0 -1.15625,0.4375 -1.65625,0.82812 v -3.32812 c -0.46875,0.14062 -1.10937,0.34375 -1.67187,0.45312 v 0.21875 h 0.125 c 0.29687,0 0.60937,0.0625 0.60937,0.40625 v 5.625 c 0,0.625 -0.23437,0.70313 -0.78125,0.70313 z m 5.9336,-4.42188 h 0.14062 c 0.5,0 0.65625,0.1875 0.65625,0.59375 v 2.90625 c 0,0.625 -0.21875,0.70313 -0.79687,0.70313 v 0.21875 h 2.53125 v -0.21875 c -0.57813,0 -0.79688,-0.0781 -0.79688,-0.70313 v -4.20312 c -0.51562,0.17187 -1.125,0.39062 -1.73437,0.5 z m 0.65625,-2.625 c 0,0.3125 0.25,0.5625 0.57812,0.5625 0.3125,0 0.57813,-0.25 0.57813,-0.5625 0,-0.32812 -0.26563,-0.57812 -0.57813,-0.57812 -0.32812,0 -0.57812,0.25 -0.57812,0.57812 z m 4.90234,1.92188 c -1.45312,0 -2.48438,1.14062 -2.48438,2.5625 0,2.28125 1.42188,2.67187 2.10938,2.67187 1.07812,0 1.65625,-0.65625 2.1875,-1.70312 l -0.20312,-0.125 c -0.29688,0.5625 -0.85938,1.01562 -1.53126,1.01562 -1.15624,0 -1.6875,-1.17187 -1.6875,-2.17187 0,-0.84375 0.40626,-1.85938 1.39063,-1.85938 0.35937,0 0.71875,0.17188 0.71875,0.54688 0,0.32812 0.20312,0.67187 0.5625,0.67187 0.3125,0 0.54688,-0.23437 0.54688,-0.57812 0,-0.73438 -1.03126,-1.03125 -1.60938,-1.03125 z m 7.93359,0 h -0.1875 c -0.0156,0.125 -0.0937,0.17187 -0.20312,0.17187 -0.15625,0 -0.32813,-0.0469 -0.48438,-0.0781 -0.17187,-0.0469 -0.34375,-0.0937 -0.53125,-0.0937 -0.79687,0 -1.57812,0.45312 -1.57812,1.32812 0,1.64063 2.65625,1.625 2.65625,2.84375 0,0.5 -0.46875,0.73438 -0.92188,0.73438 -0.78125,0 -1.40625,-0.70313 -1.42187,-1.45313 h -0.25 l 0.0625,1.67188 h 0.21876 c 0.0156,-0.0781 0,-0.15625 0.15625,-0.15625 0.17187,0 0.76562,0.26562 1.34375,0.26562 0.79687,0 1.54687,-0.53125 1.54687,-1.54687 0,-1.54688 -2.64062,-1.60938 -2.64062,-2.71875 0,-0.42188 0.39062,-0.64063 0.8125,-0.64063 0.76562,0 1.0625,0.53125 1.26562,1.1875 h 0.20313 z m 0.92969,0.10937 v 0.21875 c 0.39063,0.0312 0.53125,0.32813 0.67188,0.67188 l 1.8125,4.21875 -0.125,0.34375 c -0.20313,0.53125 -0.45313,1.25 -0.85938,1.25 -0.32812,0 -0.375,-0.21875 -0.75,-0.21875 -0.29687,0 -0.5,0.20312 -0.5,0.5 0,0.34375 0.3125,0.53125 0.65625,0.53125 0.29688,0 0.5625,-0.0781 0.79688,-0.26563 0.48437,-0.375 0.8125,-1.1875 1.10937,-1.96875 l 1.54688,-4.1875 c 0.15625,-0.42187 0.25,-0.8125 0.6875,-0.875 v -0.21875 h -1.625 v 0.21875 c 0.26562,0 0.59375,0.0312 0.59375,0.34375 0,0.125 -0.0156,0.26563 -0.17188,0.70313 l -0.89062,2.5625 -1.125,-2.71875 c -0.0937,-0.23438 -0.15625,-0.42188 -0.15625,-0.54688 0,-0.23437 0.15625,-0.34375 0.625,-0.34375 v -0.21875 z m 5.41016,5.01563 h 2.5 v -0.21875 c -0.5625,0 -0.79688,-0.0781 -0.79688,-0.70313 v -3 c 0.32813,-0.28125 0.70313,-0.53125 1.14063,-0.53125 0.53125,0 0.9375,0.29688 0.9375,1.04688 v 2.48437 c 0,0.625 -0.23438,0.70313 -0.79688,0.70313 v 0.21875 h 2.5 v -0.21875 c -0.54687,0 -0.76562,-0.0781 -0.76562,-0.70313 v -3 c 0.34375,-0.34375 0.78125,-0.53125 1.125,-0.53125 0.54687,0 0.9375,0.29688 0.9375,1.04688 v 2.48437 c 0,0.625 -0.21875,0.70313 -0.78125,0.70313 v 0.21875 h 2.5 v -0.21875 c -0.54688,0 -0.78125,-0.0781 -0.78125,-0.70313 v -2.45312 c 0,-1.28125 -0.5,-1.75 -1.34375,-1.75 -0.53125,0 -1,0.29687 -1.73438,0.89062 -0.25,-0.59375 -0.60937,-0.89062 -1.26562,-0.89062 -0.67188,0 -1.17188,0.4375 -1.67188,0.82812 v -0.82812 c -0.51562,0.17187 -1.10937,0.39062 -1.70312,0.5 v 0.20312 h 0.10937 c 0.5,0 0.65625,0.1875 0.65625,0.59375 v 2.90625 c 0,0.625 -0.21875,0.70313 -0.76562,0.70313 z m 10.54297,-3.96875 c 0,-0.0937 0.48437,-0.48438 1.09375,-0.48438 1.14062,0 1.64062,1.14063 1.64062,2.125 0,0.98438 -0.42187,2.10938 -1.5625,2.10938 -0.71875,0 -1.17187,-0.42188 -1.17187,-0.67188 z m -0.9375,3.40625 c 0.51562,0.42187 1.15625,0.67187 1.8125,0.67187 1.375,0 2.79687,-1.03125 2.79687,-3 0,-1.10937 -0.70312,-2.23437 -1.90625,-2.23437 -0.76562,0 -1.1875,0.28125 -1.76562,0.73437 v -3.23437 c -0.5,0.125 -1.10938,0.34375 -1.67188,0.45312 v 0.21875 h 0.125 c 0.29688,0 0.60938,0.0625 0.60938,0.40625 z m 6.44531,-2.29688 c 0,-0.95312 0.35937,-1.9375 1.4375,-1.9375 1.29687,0 1.625,1.57813 1.625,2.71875 0,0.79688 -0.39063,1.85938 -1.34375,1.85938 -1.29688,0 -1.71875,-1.60938 -1.71875,-2.64063 z m 4.09375,0.375 c 0,-1.60937 -0.9375,-2.64062 -2.57813,-2.64062 -1.45312,0 -2.54687,1.20312 -2.54687,2.64062 0,1.46875 1.0625,2.59375 2.54687,2.59375 1.45313,0 2.57813,-1.14062 2.57813,-2.59375 z m 1.41797,1.5625 c 0,0.625 -0.21875,0.70313 -0.79688,0.70313 v 0.21875 h 2.53125 v -0.21875 c -0.57812,0 -0.79687,-0.0781 -0.79687,-0.70313 v -6.70312 c -0.45313,0.14062 -1.09375,0.34375 -1.67188,0.45312 v 0.21875 h 0.125 c 0.29688,0 0.60938,0.0625 0.60938,0.40625 z"
             style="fill:#231f20;fill-opacity:1;fill-rule:nonzero;stroke:none;stroke-width:1.33333"
             aria-label="(c) Graphic symbol" />
          <path
             id="path84"
             d="M 0,0 H -27.672"
             style="fill:none;stroke:#231f20;stroke-width:0.5;stroke-linecap:butt;stroke-linejoin:miter;stroke-miterlimit:4;stroke-dasharray:none;stroke-opacity:1"
             transform="matrix(1.3333333,0,0,-1.3333333,649.53533,192.9844)" />
          <path
             id="path85"
             d="M 0,0 H -27.969"
             style="fill:none;stroke:#231f20;stroke-width:0.5;stroke-linecap:butt;stroke-linejoin:miter;stroke-miterlimit:4;stroke-dasharray:none;stroke-opacity:1"
             transform="matrix(1.3333333,0,0,-1.3333333,555.94427,192.9844)" />
          <path
             id="path86"
             d="M 0,0 H -24.254"
             style="fill:none;stroke:#231f20;stroke-width:0.5;stroke-linecap:butt;stroke-linejoin:miter;stroke-miterlimit:4;stroke-dasharray:none;stroke-opacity:1"
             transform="matrix(1.3333333,0,0,-1.3333333,649.53533,249.83787)" />
          <path
             id="path87"
             d="m 0.959825,5.03125e-4 h 2.5078125 l 0.035156,-0.140625005 c -0.6328125,0 -0.8554688,-0.0820313 -0.8554688,-0.328125 0,-0.0703125 0.011719,-0.12890625 0.035156,-0.2109375 L 3.866075,-4.9448094 c 0.082031,-0.2929687 0.140625,-0.3164062 0.5859375,-0.3164062 0.8085938,0 1.0195313,0.2460937 1.0078125,1.1015625 H 5.60045 l 0.2460938,-1.359375 H 1.1942 l -0.3515625,1.3359375 h 0.12890625 c 0.30468755,-0.8789063 0.76171875,-1.078125 1.68750005,-1.078125 0.328125,0 0.421875,0.046875 0.421875,0.1757812 0,0.035156 -0.011719,0.082031 -0.023437,0.140625 l -1.171875,4.23046877 C 1.7332625,-0.16355938 1.5457625,-0.16355938 0.99498125,-0.14012188 Z M 12.763536,38.329605 h -0.140625 c -0.07031,0.152343 -0.128906,0.1875 -0.316406,0.1875 -0.09375,0 -0.234375,-0.05859 -0.433594,-0.117188 -0.210938,-0.05859 -0.457031,-0.117187 -0.785156,-0.117187 -1.8632816,0 -3.6093753,1.640625 -3.6093753,3.515625 0,1.347656 0.9375,2.238281 2.2734375,2.238281 0.9960938,0 1.7695308,-0.46875 2.3906248,-1.21875 l -0.152344,-0.117188 c -0.527343,0.550782 -1.171875,0.972657 -1.96875,0.972657 -1.1015621,0 -1.6171871,-0.855469 -1.6171871,-1.851563 0,-1.371094 1.1015625,-3.269531 2.6367191,-3.269531 0.925781,0 1.253906,0.445312 1.253906,1.183594 v 0.199218 h 0.140625 z m 1.637695,4.640625 c -0.09375,0.128906 -0.46875,0.585937 -0.632812,0.585937 -0.105469,0 -0.175781,-0.05859 -0.175781,-0.222656 0,-0.09375 0.03516,-0.257813 0.08203,-0.410156 l 1.230469,-4.382813 c 0.03516,-0.105469 0.05859,-0.210937 0.05859,-0.257812 0,-0.05859 -0.02344,-0.08203 -0.09375,-0.08203 -0.05859,0 -0.199218,0.03516 -0.351562,0.07031 -0.199219,0.05859 -0.539063,0.105469 -0.878906,0.128906 l -0.02344,0.128906 c 0.445313,0.01172 0.515625,0.07031 0.515625,0.222657 0,0.105468 -0.02344,0.269531 -0.105469,0.539062 l -0.925781,3.386719 c -0.117187,0.421875 -0.1875,0.644531 -0.1875,0.914062 0,0.257813 0.117188,0.410157 0.386719,0.410157 0.503906,0 0.9375,-0.574219 1.230469,-0.925782 z m 0.665039,0.949218 h 0.679688 l 0.433594,-1.476562 0.503906,-0.386719 0.65625,1.523438 c 0.117187,0.257812 0.28125,0.421875 0.503906,0.421875 0.480469,0 0.855469,-0.480469 1.136719,-0.878907 l -0.152344,-0.105468 c -0.09375,0.1875 -0.445312,0.539062 -0.609375,0.539062 -0.140625,0 -0.269531,-0.199219 -0.421875,-0.5625 l -0.597656,-1.335937 1.066406,-0.808594 c 0.316406,-0.246094 0.644531,-0.433594 0.996094,-0.433594 l 0.02344,-0.140625 h -1.640625 l -0.02344,0.140625 c 0.210937,0 0.398437,0.02344 0.398437,0.164063 0,0.117187 -0.246093,0.328125 -0.5625,0.574218 l -1.183593,0.9375 h -0.01172 l 0.984375,-3.550781 c 0.03516,-0.105469 0.05859,-0.210937 0.05859,-0.257812 0,-0.05859 -0.02344,-0.08203 -0.09375,-0.08203 -0.05859,0 -0.199219,0.03516 -0.351563,0.07031 -0.199219,0.05859 -0.527344,0.105469 -0.878906,0.128906 l -0.02344,0.128906 c 0.457032,0.01172 0.515625,0.07031 0.515625,0.222657 0,0.105468 -0.02344,0.269531 -0.105468,0.539062 z m 0,0"
             style="fill:#231f20;fill-opacity:1;fill-rule:nonzero;stroke:none"
             aria-label="T&#10;Clk"
             transform="matrix(1.3333333,0,0,1.3333333,560.15773,196.21027)" />
          <path
             id="path88"
             d="m 0,0 c 0,-0.967 -0.783,-1.75 -1.75,-1.75 -0.967,0 -1.75,0.783 -1.75,1.75 0,0.967 0.783,1.75 1.75,1.75 C -0.783,1.75 0,0.967 0,0"
             style="fill:#e6f7fd;fill-opacity:1;fill-rule:nonzero;stroke:#231f20;stroke-width:0.5;stroke-linecap:butt;stroke-linejoin:miter;stroke-miterlimit:4;stroke-dasharray:none;stroke-opacity:1"
             transform="matrix(1.3333333,0,0,-1.3333333,617.202,249.89387)"
             clip-path="url(#clipPath89)" />
          <path
             id="path90"
             d="M 0,0 V 8.277 L 7.137,4.139 Z"
             style="fill:none;stroke:#231f20;stroke-width:0.5;stroke-linecap:butt;stroke-linejoin:miter;stroke-miterlimit:4;stroke-dasharray:none;stroke-opacity:1"
             transform="matrix(1.3333333,0,0,-1.3333333,556.4208,256.54227)"
             clip-path="url(#clipPath91)" />
          <g
             id="g91"
             aria-label="(b) From D fip-fop&#10;T"
             transform="matrix(1.3333333,0,0,1.3333333,329.73185,283.43469)">
            <path
               id="path92"
               d="m 9.3637656,-1.8412859 0.7734374,-0.046875 z m 3.3779294,1.83984371 h 2.589844 v -0.1640625 c -0.632812,0 -0.855469,-0.12890625 -0.855469,-0.78515625 V -2.7436297 h 1.265625 c 0.574219,0 0.75,0.234375 0.773438,0.8085938 h 0.152344 v -1.9101563 h -0.152344 c -0.02344,0.5273438 -0.222656,0.7617188 -0.773438,0.7617188 H 14.47607 v -1.5820313 c 0,-0.3984375 0.01172,-0.5273437 0.339844,-0.5273437 h 1.558594 c 0.632812,0 0.820312,0.375 0.9375,0.9492187 h 0.164062 l -0.09375,-1.2773437 h -4.640625 v 0.1523437 c 0.644532,0 0.867188,0.1289063 0.867188,0.7851563 v 3.63281246 c 0,0.65625 -0.222656,0.78515625 -0.867188,0.78515625 z m 4.983399,0 h 2.015625 v -0.1640625 c -0.585938,0 -0.679688,-0.0820313 -0.679688,-0.71484375 V -2.7436297 c 0,-0.046875 0.316407,-0.5507812 0.609375,-0.5507812 0.09375,0 0.152344,0.046875 0.210938,0.1054687 0.07031,0.058594 0.140625,0.1171875 0.269531,0.1171875 0.199219,0 0.386719,-0.1523437 0.386719,-0.3632812 0,-0.2695313 -0.234375,-0.4101563 -0.46875,-0.4101563 -0.398438,0 -0.773438,0.4570313 -1.007813,0.7148438 v -0.7148438 h -0.03516 c -0.410156,0.140625 -0.855469,0.2695313 -1.300781,0.3867188 v 0.1640625 c 0.5625,0 0.632812,0.070312 0.632812,0.6445312 v 1.75781251 c 0,0.5859375 -0.02344,0.703125 -0.632812,0.7265625 z m 4.02539,-2.14453121 c 0,-0.7148438 0.269532,-1.453125 1.078125,-1.453125 0.972657,0 1.21875,1.1835937 1.21875,2.0390625 0,0.59765621 -0.292968,1.39453121 -1.007812,1.39453121 -0.972656,0 -1.289063,-1.20703121 -1.289063,-1.98046871 z m 3.070313,0.28125 c 0,-1.2070313 -0.703125,-1.9804688 -1.933594,-1.9804688 -1.089844,0 -1.910156,0.9023438 -1.910156,1.9804688 0,1.10156246 0.796875,1.94531246 1.910156,1.94531246 1.089844,0 1.933594,-0.85546875 1.933594,-1.94531246 z m 0.451172,1.86328121 h 1.875 v -0.1640625 c -0.421875,0 -0.597656,-0.0585938 -0.597656,-0.52734375 V -2.9428484 c 0.246093,-0.2109375 0.527343,-0.3984375 0.855468,-0.3984375 0.398438,0 0.703125,0.2226562 0.703125,0.7851562 v 1.86328126 c 0,0.46875 -0.175781,0.52734375 -0.597656,0.52734375 v 0.1640625 h 1.875 v -0.1640625 c -0.410156,0 -0.574219,-0.0585938 -0.574219,-0.52734375 V -2.9428484 c 0.257813,-0.2578125 0.585938,-0.3984375 0.84375,-0.3984375 0.410157,0 0.703125,0.2226562 0.703125,0.7851562 v 1.86328126 c 0,0.46875 -0.164062,0.52734375 -0.585937,0.52734375 v 0.1640625 h 1.875 v -0.1640625 c -0.410156,0 -0.585938,-0.0585938 -0.585938,-0.52734375 V -2.5326922 c 0,-0.9609375 -0.375,-1.3125 -1.007812,-1.3125 -0.398438,0 -0.75,0.2226563 -1.300781,0.6679688 -0.1875,-0.4453125 -0.457032,-0.6679688 -0.949219,-0.6679688 -0.503906,0 -0.878906,0.328125 -1.253906,0.6210938 v -0.6210938 c -0.386719,0.1289063 -0.832032,0.2929688 -1.277344,0.375 v 0.1523438 H 25.354 c 0.375,0 0.492188,0.140625 0.492188,0.4453125 v 2.17968746 c 0,0.46875 -0.164063,0.52734375 -0.574219,0.52734375 z"
               style="fill:#231f20;fill-opacity:1;fill-rule:nonzero;stroke:none" />
            <path
               id="path93"
               d="m 36.560055,-4.5365984 c 0.152343,-0.5625 0.222656,-0.7265625 0.703125,-0.7265625 1.230468,0 1.769531,0.6914062 1.769531,1.875 0,1.6289062 -0.960938,3.11718746 -2.695313,3.11718746 h -0.316406 c -0.351562,0 -0.527344,-0.0703125 -0.527344,-0.328125 0,-0.046875 0.01172,-0.1171875 0.03516,-0.19921875 z m -2.707032,4.53515621 h 2.566407 c 2.027343,0 3.539062,-1.60546871 3.539062,-3.25781251 0,-1.5585937 -1.183594,-2.2617187 -2.332031,-2.2617187 h -2.4375 l -0.04687,0.1289062 c 0.5625,0.023437 0.703125,0.1640625 0.703125,0.375 0,0.09375 -0.02344,0.1875 -0.05859,0.2929688 l -1.113281,3.99609371 c -0.09375,0.3984375 -0.175781,0.5390625 -0.773438,0.5859375 z m 0,0"
               style="fill:#231f20;fill-opacity:1;fill-rule:nonzero;stroke:none" />
            <path
               id="path94"
               d="m 42.60107,-3.5287859 h 0.597657 v 2.83593746 c 0,0.46875 -0.175782,0.52734375 -0.597657,0.52734375 v 0.1640625 h 1.886719 v -0.1640625 c -0.421875,0 -0.585937,-0.0585938 -0.585937,-0.52734375 V -3.5287859 h 1.546875 v 2.83593746 c 0,0.46875 -0.164063,0.52734375 -0.585938,0.52734375 v 0.1640625 h 1.886719 v -0.1640625 c -0.421875,0 -0.597656,-0.0585938 -0.597656,-0.52734375 V -5.6615984 l -0.703125,0.2695312 c -0.1875,-0.1289062 -0.433594,-0.2578125 -0.808594,-0.2578125 -1.171875,0 -1.441406,0.9492188 -1.441406,1.8867188 H 42.60107 Z m 1.300782,-0.234375 v -0.515625 c 0,-0.3515625 0,-1.1367188 0.480468,-1.1367188 0.164063,0 0.269532,0.140625 0.351563,0.2695313 0.140625,0.234375 0.257812,0.3398437 0.433594,0.3398437 0.09375,0 0.222656,-0.023437 0.269531,-0.1289062 h 0.01172 v 1.171875 z m 3.158203,0.4453125 h 0.105468 c 0.375,0 0.492188,0.140625 0.492188,0.4453125 v 2.17968746 c 0,0.46875 -0.164063,0.52734375 -0.597656,0.52734375 v 0.1640625 h 1.898437 v -0.1640625 c -0.433594,0 -0.597656,-0.0585938 -0.597656,-0.52734375 V -3.8451922 c -0.386719,0.1289063 -0.84375,0.2929688 -1.300781,0.375 z m 0.492187,-1.96875 c 0,0.234375 0.1875,0.421875 0.433594,0.421875 0.234375,0 0.433594,-0.1875 0.433594,-0.421875 0,-0.2460938 -0.199219,-0.4335938 -0.433594,-0.4335938 -0.246094,0 -0.433594,0.1875 -0.433594,0.4335938 z m 2.961914,2.5195312 c 0,-0.1523437 0.351563,-0.5742187 0.867188,-0.5742187 0.878906,0 1.183594,0.8789062 1.183594,1.6289062 0,0.6679688 -0.328125,1.54687501 -1.136719,1.54687501 -0.328125,0 -0.785156,-0.17578125 -0.914063,-0.52734375 z m -0.703125,3.9726563 c 0,0.5039062 -0.234375,0.5039062 -0.574218,0.5039062 v 0.1640625 h 1.921875 V 1.7094953 c -0.386719,0 -0.644532,0 -0.644532,-0.4453125 v -1.45312499 c 0.257813,0.2109375 0.585938,0.26953125 0.914063,0.26953125 1.183594,0 1.839844,-1.18359376 1.839844,-2.19140626 0,-0.9375 -0.574219,-1.734375 -1.546875,-1.734375 -0.492188,0 -0.925782,0.3046875 -1.195313,0.6796875 h -0.01172 V -3.8451922 H 50.479 c -0.386719,0.2226563 -0.808594,0.3984375 -1.242187,0.5039063 v 0.1523437 h 0.175781 c 0.351562,0 0.398437,0.1171875 0.398437,0.5859375 z m 6.064453,-2.8242188 v -0.5390625 h -1.945312 v 0.5390625 z m 0.509766,-1.9101562 h 0.597656 v 2.83593746 c 0,0.46875 -0.175781,0.52734375 -0.597656,0.52734375 v 0.1640625 h 1.886719 v -0.1640625 c -0.421875,0 -0.585938,-0.0585938 -0.585938,-0.52734375 V -3.5287859 h 1.546875 v 2.83593746 c 0,0.46875 -0.164062,0.52734375 -0.585937,0.52734375 v 0.1640625 h 1.886719 v -0.1640625 c -0.421875,0 -0.597657,-0.0585938 -0.597657,-0.52734375 V -5.6615984 l -0.703125,0.2695312 c -0.1875,-0.1289062 -0.433593,-0.2578125 -0.808593,-0.2578125 -1.171875,0 -1.441407,0.9492188 -1.441407,1.8867188 H 56.38525 Z m 1.300781,-0.234375 v -0.515625 c 0,-0.3515625 0,-1.1367188 0.480469,-1.1367188 0.164063,0 0.269531,0.140625 0.351563,0.2695313 0.140625,0.234375 0.257812,0.3398437 0.433593,0.3398437 0.09375,0 0.222657,-0.023437 0.269532,-0.1289062 h 0.01172 v 1.171875 z m 4.072266,1.6171875 c 0,-0.7148438 0.269531,-1.453125 1.078125,-1.453125 0.972656,0 1.21875,1.1835937 1.21875,2.0390625 0,0.59765621 -0.292969,1.39453121 -1.007813,1.39453121 -0.972656,0 -1.289062,-1.20703121 -1.289062,-1.98046871 z m 3.070312,0.28125 c 0,-1.2070313 -0.703125,-1.9804688 -1.933593,-1.9804688 -1.089844,0 -1.910157,0.9023438 -1.910157,1.9804688 0,1.10156246 0.796875,1.94531246 1.910157,1.94531246 1.089843,0 1.933593,-0.85546875 1.933593,-1.94531246 z m 1.69336,-0.9023438 c 0,-0.1523437 0.351562,-0.5742187 0.867187,-0.5742187 0.878907,0 1.183594,0.8789062 1.183594,1.6289062 0,0.6679688 -0.328125,1.54687501 -1.136719,1.54687501 -0.328125,0 -0.785156,-0.17578125 -0.914062,-0.52734375 z m -0.703125,3.9726563 c 0,0.5039062 -0.234375,0.5039062 -0.574219,0.5039062 V 1.8735578 H 67.1665 V 1.7094953 c -0.386719,0 -0.644531,0 -0.644531,-0.4453125 v -1.45312499 c 0.257812,0.2109375 0.585937,0.26953125 0.914062,0.26953125 1.183594,0 1.839844,-1.18359376 1.839844,-2.19140626 0,-0.9375 -0.574219,-1.734375 -1.546875,-1.734375 -0.492187,0 -0.925781,0.3046875 -1.195312,0.6796875 h -0.01172 v -0.6796875 h -0.03516 c -0.386719,0.2226563 -0.808594,0.3984375 -1.242188,0.5039063 v 0.1523437 h 0.175781 c 0.351563,0 0.398438,0.1171875 0.398438,0.5859375 z m 0,0"
               style="fill:#231f20;fill-opacity:1;fill-rule:nonzero;stroke:none" />
            <path
               id="path95"
               d="m -50.949711,-59.345192 h 2.507813 l 0.03516,-0.140625 c -0.632813,0 -0.855469,-0.08203 -0.855469,-0.328125 0,-0.07031 0.01172,-0.128906 0.03516,-0.210938 l 1.183594,-4.265625 c 0.08203,-0.292968 0.140625,-0.316406 0.585938,-0.316406 0.808593,0 1.019531,0.246094 1.007812,1.101563 h 0.140625 l 0.246094,-1.359375 h -4.652344 l -0.351562,1.335937 h 0.128906 c 0.304687,-0.878906 0.761719,-1.078125 1.6875,-1.078125 0.328125,0 0.421875,0.04687 0.421875,0.175781 0,0.03516 -0.01172,0.08203 -0.02344,0.140625 l -1.171875,4.230469 c -0.152343,0.550781 -0.339843,0.550781 -0.890625,0.574219 z m 0,0"
               style="fill:#231f20;fill-opacity:1;fill-rule:nonzero;stroke:none" />
          </g>
          <path
             id="path96"
             d="M 0,0 H -27.672"
             style="fill:none;stroke:#231f20;stroke-width:0.5;stroke-linecap:butt;stroke-linejoin:miter;stroke-miterlimit:4;stroke-dasharray:none;stroke-opacity:1"
             transform="matrix(1.3333333,0,0,-1.3333333,488.28147,193.15293)" />
          <path
             id="path97"
             d="M 0,0 H -31"
             style="fill:none;stroke:#231f20;stroke-width:0.5;stroke-linecap:butt;stroke-linejoin:miter;stroke-miterlimit:4;stroke-dasharray:none;stroke-opacity:1"
             transform="matrix(1.3333333,0,0,-1.3333333,394.69027,193.15293)" />
          <path
             id="path98"
             d="M 0,0 H -24.254"
             style="fill:none;stroke:#231f20;stroke-width:0.5;stroke-linecap:butt;stroke-linejoin:miter;stroke-miterlimit:4;stroke-dasharray:none;stroke-opacity:1"
             transform="matrix(1.3333333,0,0,-1.3333333,488.28147,250.00587)" />
          <path
             id="path99"
             d="m 2.7762453,-4.5351766 c 0.1523438,-0.5625 0.2226563,-0.7265625 0.703125,-0.7265625 1.2304688,0 1.7695313,0.6914063 1.7695313,1.875 0,1.6289063 -0.9609375,3.11718754 -2.6953125,3.11718754 H 2.2371828 c -0.3515625,0 -0.5273437,-0.0703125 -0.5273437,-0.328125 0,-0.046875 0.011719,-0.1171875 0.035156,-0.19921875 z M 0.06921406,-2.03125e-5 H 2.6356203 c 2.0273438,0 3.5390625,-1.6054687875 3.5390625,-3.2578124875 0,-1.5585938 -1.1835937,-2.2617188 -2.3320312,-2.2617188 h -2.4375 l -0.046875,0.1289063 c 0.5625,0.023437 0.703125,0.1640625 0.703125,0.375 0,0.09375 -0.023437,0.1875 -0.058594,0.2929687 l -1.11328124,3.99609379 c -0.09375,0.3984375 -0.17578125,0.5390625 -0.7734375,0.5859375 z M 12.051636,38.329081 h -0.140625 c -0.07031,0.152344 -0.128906,0.1875 -0.316406,0.1875 -0.09375,0 -0.234375,-0.05859 -0.433594,-0.117187 -0.210938,-0.05859 -0.457031,-0.117188 -0.785156,-0.117188 -1.8632816,0 -3.6093753,1.640625 -3.6093753,3.515625 0,1.347657 0.9375,2.238282 2.2734375,2.238282 0.9960938,0 1.7695308,-0.46875 2.3906248,-1.21875 l -0.152344,-0.117188 c -0.527343,0.550781 -1.171875,0.972656 -1.9687496,0.972656 -1.1015625,0 -1.6171875,-0.855468 -1.6171875,-1.851562 0,-1.371094 1.1015625,-3.269531 2.6367191,-3.269531 0.925781,0 1.253906,0.445312 1.253906,1.183593 v 0.199219 h 0.140625 z m 1.637695,4.640625 c -0.09375,0.128907 -0.46875,0.585938 -0.632812,0.585938 -0.105469,0 -0.175781,-0.05859 -0.175781,-0.222656 0,-0.09375 0.03516,-0.257813 0.08203,-0.410157 l 1.230469,-4.382812 c 0.03516,-0.105469 0.05859,-0.210938 0.05859,-0.257813 0,-0.05859 -0.02344,-0.08203 -0.09375,-0.08203 -0.05859,0 -0.199218,0.03516 -0.351562,0.07031 -0.199219,0.05859 -0.539063,0.105468 -0.878906,0.128906 l -0.02344,0.128906 c 0.445313,0.01172 0.515625,0.07031 0.515625,0.222656 0,0.105469 -0.02344,0.269532 -0.105469,0.539063 l -0.925781,3.386719 c -0.117187,0.421875 -0.1875,0.644531 -0.1875,0.914062 0,0.257813 0.117188,0.410156 0.386719,0.410156 0.503906,0 0.9375,-0.574218 1.230469,-0.925781 z m 0.665039,0.949219 h 0.679688 l 0.433594,-1.476562 0.503906,-0.386719 0.65625,1.523437 c 0.117187,0.257813 0.28125,0.421875 0.503906,0.421875 0.480469,0 0.855469,-0.480468 1.136719,-0.878906 l -0.152344,-0.105469 c -0.09375,0.1875 -0.445312,0.539063 -0.609375,0.539063 -0.140625,0 -0.269531,-0.199219 -0.421875,-0.5625 l -0.597656,-1.335938 1.066406,-0.808593 c 0.316406,-0.246094 0.644531,-0.433594 0.996094,-0.433594 l 0.02344,-0.140625 h -1.640625 l -0.02344,0.140625 c 0.210937,0 0.398437,0.02344 0.398437,0.164062 0,0.117188 -0.246093,0.328125 -0.5625,0.574219 l -1.183593,0.9375 h -0.01172 l 0.984375,-3.550781 c 0.03516,-0.105469 0.05859,-0.210938 0.05859,-0.257813 0,-0.05859 -0.02344,-0.08203 -0.09375,-0.08203 -0.05859,0 -0.199219,0.03516 -0.351563,0.07031 -0.199219,0.05859 -0.527344,0.105468 -0.878906,0.128906 l -0.02344,0.128906 c 0.457032,0.01172 0.515625,0.07031 0.515625,0.222656 0,0.105469 -0.02344,0.269532 -0.105468,0.539063 z m 0,0"
             style="fill:#231f20;fill-opacity:1;fill-rule:nonzero;stroke:none"
             aria-label="D&#10;Clk"
             transform="matrix(1.3333333,0,0,1.3333333,399.35693,196.37893)" />
          <path
             id="path100"
             d="m 0,0 c 0,-0.967 -0.783,-1.75 -1.75,-1.75 -0.967,0 -1.75,0.783 -1.75,1.75 0,0.967 0.783,1.75 1.75,1.75 C -0.783,1.75 0,0.967 0,0"
             style="fill:#e6f7fd;fill-opacity:1;fill-rule:nonzero;stroke:#231f20;stroke-width:0.5;stroke-linecap:butt;stroke-linejoin:miter;stroke-miterlimit:4;stroke-dasharray:none;stroke-opacity:1"
             transform="matrix(1.3333333,0,0,-1.3333333,455.94813,250.0632)"
             clip-path="url(#clipPath101)" />
          <path
             id="path102"
             d="M 0,0 V 8.276 L 7.137,4.138 Z"
             style="fill:none;stroke:#231f20;stroke-width:0.5;stroke-linecap:butt;stroke-linejoin:miter;stroke-miterlimit:4;stroke-dasharray:none;stroke-opacity:1"
             transform="matrix(1.3333333,0,0,-1.3333333,395.1668,256.71027)"
             clip-path="url(#clipPath103)" />
          <path
             id="path104"
             d="M 0,0 C 0,-0.829 -0.671,-1.5 -1.5,-1.5 -2.328,-1.5 -3,-0.829 -3,0 -3,0.829 -2.328,1.5 -1.5,1.5 -0.671,1.5 0,0.829 0,0"
             style="fill:#231f20;fill-opacity:1;fill-rule:nonzero;stroke:none"
             transform="matrix(1.3333333,0,0,-1.3333333,469.12907,193.12627)"
             clip-path="url(#clipPath105)" />
          <path
             id="path106"
             d="M 0,0 C 0,6.875 -2,10.895 -2,10.895"
             style="fill:none;stroke:#231f20;stroke-width:0.75;stroke-linecap:butt;stroke-linejoin:round;stroke-miterlimit:4;stroke-dasharray:none;stroke-opacity:1"
             transform="matrix(1.3333333,0,0,-1.3333333,315.89467,193.32093)"
             clip-path="url(#clipPath107)" />
          <path
             id="path108"
             d="M 0,0 C 0,0 2,3.918 2,10.793"
             style="fill:none;stroke:#231f20;stroke-width:0.75;stroke-linecap:butt;stroke-linejoin:round;stroke-miterlimit:4;stroke-dasharray:none;stroke-opacity:1"
             transform="matrix(1.3333333,0,0,-1.3333333,313.228,207.7116)"
             clip-path="url(#clipPath109)" />
          <path
             id="path110"
             d="m 0,0 c -6.617,-12.76 -26.906,-10.793 -26.906,-10.793 0,0 2,3.918 2,10.793 0,6.875 -2,10.895 -2,10.895 0,0 20.32,1.918 26.914,-10.895 z"
             style="fill:#e6f7fd;fill-opacity:1;fill-rule:nonzero;stroke:#231f20;stroke-width:0.75;stroke-linecap:butt;stroke-linejoin:round;stroke-miterlimit:4;stroke-dasharray:none;stroke-opacity:1"
             transform="matrix(1.3333333,0,0,-1.3333333,353.5328,193.24027)"
             clip-path="url(#clipPath111)" />
          <path
             id="path112"
             d="M 0,0 H -23.796 V 33.294 H 110.55 V -6.051"
             style="fill:none;stroke:#231f20;stroke-width:0.5;stroke-linecap:butt;stroke-linejoin:miter;stroke-miterlimit:4;stroke-dasharray:none;stroke-opacity:1"
             transform="matrix(1.3333333,0,0,-1.3333333,319.75013,185.05853)"
             clip-path="url(#clipPath113)" />
          <path
             id="path114"
             d="M 0,0 H -29.714"
             style="fill:none;stroke:#231f20;stroke-width:0.5;stroke-linecap:butt;stroke-linejoin:miter;stroke-miterlimit:4;stroke-dasharray:none;stroke-opacity:1"
             transform="matrix(1.3333333,0,0,-1.3333333,319.4208,201.29293)"
             clip-path="url(#clipPath115)" />
        </g>
      </g>
    </g>
    <path
       id="path215"
       d="m 0,0 h -15 m 567,0 h 15 M 0,-666 h -15 m 567,0 h 15 M 24,24 v 15 m 0,-729 v -15 M 528,24 v 15 m 0,-729 v -15"
       style="fill:none;stroke:#ffffff;stroke-width:1.25;stroke-linecap:butt;stroke-linejoin:miter;stroke-miterlimit:10;stroke-dasharray:none;stroke-opacity:1"
       transform="matrix(1.3333333,0,0,-1.3333333,20,52)"
       clip-path="url(#clipPath216)" />
    <path
       id="path217"
       d="m 0,0 h -15 m 567,0 h 15 M 0,-666 h -15 m 567,0 h 15 M 24,24 v 15 m 0,-729 v -15 M 528,24 v 15 m 0,-729 v -15"
       style="fill:none;stroke:#000000;stroke-width:0.25;stroke-linecap:butt;stroke-linejoin:miter;stroke-miterlimit:10;stroke-dasharray:none;stroke-opacity:1"
       transform="matrix(1.3333333,0,0,-1.3333333,20,52)"
       clip-path="url(#clipPath218)" />
  </g>
</svg>
