<?xml version="1.0" encoding="UTF-8" standalone="no"?>
<!-- Created with Inkscape (http://www.inkscape.org/) -->

<svg
   version="1.1"
   id="svg1"
   viewBox="0 0 463.46771 149.1416"
   sodipodi:docname="Analog and Digital Signal Processing (1E).pdf"
   xmlns:inkscape="http://www.inkscape.org/namespaces/inkscape"
   xmlns:sodipodi="http://sodipodi.sourceforge.net/DTD/sodipodi-0.dtd"
   xmlns="http://www.w3.org/2000/svg"
   xmlns:svg="http://www.w3.org/2000/svg">
  <defs
     id="defs1">
    <clipPath
       clipPathUnits="userSpaceOnUse"
       id="clipPath8">
      <path
         d="M 0,0 H 612 V 792 H 0 Z"
         transform="matrix(1,0,0,-1,-436.14701,666.64001)"
         id="path8" />
    </clipPath>
    <clipPath
       clipPathUnits="userSpaceOnUse"
       id="clipPath10">
      <path
         d="M 0,0 H 612 V 792 H 0 Z"
         transform="matrix(1,0,0,-1,-440.41521,666.64001)"
         id="path10" />
    </clipPath>
    <clipPath
       clipPathUnits="userSpaceOnUse"
       id="clipPath12">
      <path
         d="M 0,0 H 612 V 792 H 0 Z"
         transform="matrix(1,0,0,-1,-444.24701,666.64001)"
         id="path12" />
    </clipPath>
    <clipPath
       clipPathUnits="userSpaceOnUse"
       id="clipPath14">
      <path
         d="M 0,0 H 612 V 792 H 0 Z"
         transform="matrix(1,0,0,-1,-158.047,580.24001)"
         id="path14" />
    </clipPath>
    <clipPath
       clipPathUnits="userSpaceOnUse"
       id="clipPath16">
      <path
         d="M 0,0 H 612 V 792 H 0 Z"
         transform="matrix(1,0,0,-1,-182.347,580.24001)"
         id="path16" />
    </clipPath>
    <clipPath
       clipPathUnits="userSpaceOnUse"
       id="clipPath18">
      <path
         d="M 0,0 H 612 V 792 H 0 Z"
         transform="matrix(1,0,0,-1,-189.25041,580.24001)"
         id="path18" />
    </clipPath>
    <clipPath
       clipPathUnits="userSpaceOnUse"
       id="clipPath20">
      <path
         d="M 0,0 H 612 V 792 H 0 Z"
         transform="matrix(1,0,0,-1,-244.447,580.24001)"
         id="path20" />
    </clipPath>
    <clipPath
       clipPathUnits="userSpaceOnUse"
       id="clipPath22">
      <path
         d="M 0,0 H 612 V 792 H 0 Z"
         transform="matrix(1,0,0,-1,-268.747,580.24001)"
         id="path22" />
    </clipPath>
    <clipPath
       clipPathUnits="userSpaceOnUse"
       id="clipPath24">
      <path
         d="M 0,0 H 612 V 792 H 0 Z"
         transform="matrix(1,0,0,-1,-275.65041,580.24001)"
         id="path24" />
    </clipPath>
    <clipPath
       clipPathUnits="userSpaceOnUse"
       id="clipPath26">
      <path
         d="M 0,0 H 612 V 792 H 0 Z"
         transform="matrix(1,0,0,-1,-330.84701,580.24001)"
         id="path26" />
    </clipPath>
    <clipPath
       clipPathUnits="userSpaceOnUse"
       id="clipPath28">
      <path
         d="M 0,0 H 612 V 792 H 0 Z"
         transform="matrix(1,0,0,-1,-355.14701,580.24001)"
         id="path28" />
    </clipPath>
    <clipPath
       clipPathUnits="userSpaceOnUse"
       id="clipPath30">
      <path
         d="M 0,0 H 612 V 792 H 0 Z"
         transform="matrix(1,0,0,-1,-362.05041,580.24001)"
         id="path30" />
    </clipPath>
    <clipPath
       clipPathUnits="userSpaceOnUse"
       id="clipPath32">
      <path
         d="M 0,0 H 612 V 792 H 0 Z"
         transform="matrix(1,0,0,-1,-274.147,607.24001)"
         id="path32" />
    </clipPath>
    <clipPath
       clipPathUnits="userSpaceOnUse"
       id="clipPath34">
      <path
         d="M 0,0 H 612 V 792 H 0 Z"
         transform="matrix(1,0,0,-1,-295.747,607.24001)"
         id="path34" />
    </clipPath>
    <clipPath
       clipPathUnits="userSpaceOnUse"
       id="clipPath36">
      <path
         d="M 0,0 H 612 V 792 H 0 Z"
         transform="matrix(1,0,0,-1,-355.14701,607.24001)"
         id="path36" />
    </clipPath>
    <clipPath
       clipPathUnits="userSpaceOnUse"
       id="clipPath38">
      <path
         d="M 0,0 H 612 V 792 H 0 Z"
         transform="matrix(1,0,0,-1,-376.74701,607.24001)"
         id="path38" />
    </clipPath>
    <clipPath
       clipPathUnits="userSpaceOnUse"
       id="clipPath40">
      <path
         d="M 0,0 H 612 V 792 H 0 Z"
         transform="matrix(1,0,0,-1,-436.14701,607.24001)"
         id="path40" />
    </clipPath>
    <clipPath
       clipPathUnits="userSpaceOnUse"
       id="clipPath42">
      <path
         d="M 0,0 H 612 V 792 H 0 Z"
         transform="matrix(1,0,0,-1,-457.74701,607.24001)"
         id="path42" />
    </clipPath>
    <clipPath
       clipPathUnits="userSpaceOnUse"
       id="clipPath44">
      <path
         d="M 0,0 H 612 V 792 H 0 Z"
         transform="matrix(1,0,0,-1,-182.347,612.64001)"
         id="path44" />
    </clipPath>
    <clipPath
       clipPathUnits="userSpaceOnUse"
       id="clipPath46">
      <path
         d="M 0,0 H 612 V 792 H 0 Z"
         transform="matrix(1,0,0,-1,-203.947,612.64001)"
         id="path46" />
    </clipPath>
    <clipPath
       clipPathUnits="userSpaceOnUse"
       id="clipPath48">
      <path
         d="M 0,0 H 612 V 792 H 0 Z"
         id="path48" />
    </clipPath>
    <clipPath
       clipPathUnits="userSpaceOnUse"
       id="clipPath50">
      <path
         d="M 0,0 H 612 V 792 H 0 Z"
         id="path50" />
    </clipPath>
    <clipPath
       clipPathUnits="userSpaceOnUse"
       id="clipPath52">
      <path
         d="M 0,0 H 612 V 792 H 0 Z"
         id="path52" />
    </clipPath>
    <clipPath
       clipPathUnits="userSpaceOnUse"
       id="clipPath54">
      <path
         d="M 0,0 H 612 V 792 H 0 Z"
         id="path54" />
    </clipPath>
    <clipPath
       clipPathUnits="userSpaceOnUse"
       id="clipPath56">
      <path
         d="M 0,0 H 612 V 792 H 0 Z"
         id="path56" />
    </clipPath>
    <clipPath
       clipPathUnits="userSpaceOnUse"
       id="clipPath58">
      <path
         d="M 0,0 H 612 V 792 H 0 Z"
         id="path58" />
    </clipPath>
    <clipPath
       clipPathUnits="userSpaceOnUse"
       id="clipPath60">
      <path
         d="M 0,0 H 612 V 792 H 0 Z"
         id="path60" />
    </clipPath>
    <clipPath
       clipPathUnits="userSpaceOnUse"
       id="clipPath62">
      <path
         d="M 0,0 H 612 V 792 H 0 Z"
         id="path62" />
    </clipPath>
    <clipPath
       clipPathUnits="userSpaceOnUse"
       id="clipPath64">
      <path
         d="M 0,0 H 612 V 792 H 0 Z"
         id="path64" />
    </clipPath>
    <clipPath
       clipPathUnits="userSpaceOnUse"
       id="clipPath66">
      <path
         d="M 0,0 H 612 V 792 H 0 Z"
         id="path66" />
    </clipPath>
    <clipPath
       clipPathUnits="userSpaceOnUse"
       id="clipPath68">
      <path
         d="M 0,0 H 612 V 792 H 0 Z"
         id="path68" />
    </clipPath>
    <clipPath
       clipPathUnits="userSpaceOnUse"
       id="clipPath70">
      <path
         d="M 0,0 H 612 V 792 H 0 Z"
         id="path70" />
    </clipPath>
    <clipPath
       clipPathUnits="userSpaceOnUse"
       id="clipPath72">
      <path
         d="M 0,0 H 612 V 792 H 0 Z"
         id="path72" />
    </clipPath>
    <clipPath
       clipPathUnits="userSpaceOnUse"
       id="clipPath74">
      <path
         d="M 0,0 H 612 V 792 H 0 Z"
         id="path74" />
    </clipPath>
    <clipPath
       clipPathUnits="userSpaceOnUse"
       id="clipPath76">
      <path
         d="M 0,0 H 612 V 792 H 0 Z"
         transform="matrix(1,0,0,-1,-438.84701,626.14001)"
         id="path76" />
    </clipPath>
    <clipPath
       clipPathUnits="userSpaceOnUse"
       id="clipPath78">
      <path
         d="M 0,0 H 612 V 792 H 0 Z"
         transform="matrix(1,0,0,-1,-463.14701,591.04001)"
         id="path78" />
    </clipPath>
    <clipPath
       clipPathUnits="userSpaceOnUse"
       id="clipPath80">
      <path
         d="M 0,0 H 612 V 792 H 0 Z"
         transform="matrix(1,0,0,-1,-209.347,591.04001)"
         id="path80" />
    </clipPath>
    <clipPath
       clipPathUnits="userSpaceOnUse"
       id="clipPath82">
      <path
         d="M 0,0 H 612 V 792 H 0 Z"
         transform="matrix(1,0,0,-1,-263.347,634.24001)"
         id="path82" />
    </clipPath>
    <clipPath
       clipPathUnits="userSpaceOnUse"
       id="clipPath84">
      <path
         d="M 0,0 H 612 V 792 H 0 Z"
         transform="matrix(1,0,0,-1,-270.06891,634.24001)"
         id="path84" />
    </clipPath>
    <clipPath
       clipPathUnits="userSpaceOnUse"
       id="clipPath86">
      <path
         d="M 0,0 H 612 V 792 H 0 Z"
         transform="matrix(1,0,0,-1,-349.74701,655.84001)"
         id="path86" />
    </clipPath>
    <clipPath
       clipPathUnits="userSpaceOnUse"
       id="clipPath88">
      <path
         d="M 0,0 H 612 V 792 H 0 Z"
         transform="matrix(1,0,0,-1,-356.46891,655.84001)"
         id="path88" />
    </clipPath>
    <clipPath
       clipPathUnits="userSpaceOnUse"
       id="clipPath90">
      <path
         d="M 0,0 H 612 V 792 H 0 Z"
         transform="matrix(1,0,0,-1,-160.747,612.64001)"
         id="path90" />
    </clipPath>
    <clipPath
       clipPathUnits="userSpaceOnUse"
       id="clipPath92">
      <path
         d="M 0,0 H 612 V 792 H 0 Z"
         transform="matrix(1,0,0,-1,-167.46891,612.64001)"
         id="path92" />
    </clipPath>
    <clipPath
       clipPathUnits="userSpaceOnUse"
       id="clipPath94">
      <path
         d="M 0,0 H 612 V 792 H 0 Z"
         transform="matrix(1,0,0,-1,-290.347,591.04001)"
         id="path94" />
    </clipPath>
  </defs>
  <sodipodi:namedview
     id="namedview1"
     pagecolor="#ffffff"
     bordercolor="#000000"
     borderopacity="0.25"
     inkscape:showpageshadow="2"
     inkscape:pageopacity="0.0"
     inkscape:pagecheckerboard="0"
     inkscape:deskcolor="#d1d1d1" />
  <g
     id="g1"
     inkscape:groupmode="layer"
     inkscape:label="36"
     transform="translate(-172.65431,-143.94501)">
    <path
       id="path15"
       d="M 4.3824922,-1.1711328 H 0.37467969 V -1.7570703 H 4.3824922 Z m 0,-1.1484375 H 0.37467969 V -2.9055078 H 4.3824922 Z m 0,0"
       style="fill:#000000;fill-opacity:1;fill-rule:nonzero;stroke:none"
       aria-label="= "
       transform="matrix(1.3333333,0,0,1.3333333,243.12933,282.34667)"
       clip-path="url(#clipPath16)" />
    <path
       id="path21"
       d="M 4.3819062,-1.1711328 H 0.37409375 V -1.7570703 H 4.3819062 Z m 0,-1.1484375 H 0.37409375 V -2.9055078 H 4.3819062 Z m 0,0"
       style="fill:#000000;fill-opacity:1;fill-rule:nonzero;stroke:none"
       aria-label="= "
       transform="matrix(1.3333333,0,0,1.3333333,358.32933,282.34667)"
       clip-path="url(#clipPath22)" />
    <path
       id="path27"
       d="M 4.38425,-1.1711328 H 0.3764375 V -1.7570703 H 4.38425 Z m 0,-1.1484375 H 0.3764375 V -2.9055078 H 4.38425 Z m 0,0"
       style="fill:#000000;fill-opacity:1;fill-rule:nonzero;stroke:none"
       aria-label="= "
       transform="matrix(1.3333333,0,0,1.3333333,473.52933,282.34667)"
       clip-path="url(#clipPath28)" />
    <path
       id="path55"
       d="m 173.167,670.42 1.08,4.32 1.08,-4.32"
       style="fill:none;stroke:#000000;stroke-width:0.54;stroke-linecap:butt;stroke-linejoin:bevel;stroke-miterlimit:10;stroke-dasharray:none;stroke-opacity:1"
       transform="matrix(1.3333333,0,0,-1.3333333,0,1056)"
       clip-path="url(#clipPath56)" />
    <g
       id="g674"
       inkscape:export-filename="../../../g674.svg"
       inkscape:export-xdpi="96"
       inkscape:export-ydpi="96">
      <rect
         style="fill:#ffffff;stroke-width:1.05815"
         id="rect674"
         width="463.46768"
         height="149.14162"
         x="172.65431"
         y="143.94501" />
      <path
         id="path7"
         d="m 3.2006562,-1.5689844 c 0,-0.5771484 -0.1054687,-1.0429687 -0.3164062,-1.3945312 -0.2109375,-0.3515625 -0.4892578,-0.5273438 -0.8320313,-0.5273438 -0.2988281,0 -0.5332031,0.1259766 -0.703125,0.375 C 1.1850312,-2.8639063 1.103,-2.5123438 1.103,-2.0611719 c 0,0.5566406 0.1054687,1.0078125 0.3164062,1.35937502 0.2109375,0.34570313 0.4804688,0.515625 0.8085938,0.515625 0.328125,0 0.5683594,-0.11132812 0.7265625,-0.33984375 C 3.118625,-0.75160156 3.2006562,-1.1002344 3.2006562,-1.5689844 Z M 2.32175,-3.7017969 2.2162812,-3.7603906 c -0.8847656,-0.5859375 -1.3242187,-1.078125 -1.3242187,-1.4765625 0,-0.2490235 0.0878906,-0.4511719 0.2695312,-0.609375 0.178711,-0.1640625 0.4042969,-0.2460938 0.6796875,-0.2460938 0.319336,0 0.609375,0.1054688 0.8671875,0.3164063 0.2578125,0.2050781 0.4160157,0.4541015 0.4804688,0.75 H 2.9545625 C 2.8520234,-5.2750391 2.6996797,-5.4742578 2.4975312,-5.6236719 c -0.2050781,-0.1464844 -0.421875,-0.2226562 -0.65625,-0.2226562 -0.149414,0 -0.2666015,0.035156 -0.3515625,0.1054687 -0.079102,0.064453 -0.1171875,0.1523438 -0.1171875,0.2695313 0,0.234375 0.234375,0.5009765 0.703125,0.796875 0.1552735,0.102539 0.28125,0.1845703 0.375,0.2460937 0.5214844,0.3603516 0.9082032,0.75 1.1601563,1.171875 0.2490234,0.4160156 0.375,0.8671875 0.375,1.359375 0,0.6035156 -0.1728516,1.08691409 -0.515625,1.45312502 -0.3369141,0.36035157 -0.7939453,0.5390625 -1.3710938,0.5390625 -0.524414,0 -0.9550781,-0.17578125 -1.28906245,-0.52734375 C 0.47311719,-0.78382813 0.306125,-1.2320703 0.306125,-1.7799219 c 0,-0.5771484 0.1640625,-1.0458984 0.4921875,-1.40625 0.3339844,-0.3574219 0.7646484,-0.5390625 1.2890625,-0.5390625 0.046875,0 0.084961,0.00586 0.1171875,0.011719 0.038086,0 0.076172,0.00586 0.1171875,0.011718 z m 0,0"
         style="fill:#000000;fill-opacity:1;fill-rule:nonzero;stroke:none"
         aria-label="δ"
         transform="matrix(1.3333333,0,0,1.3333333,581.52933,167.14667)"
         clip-path="url(#clipPath8)" />
      <path
         id="path9"
         d="m 2.4715188,-6.0689844 c -0.4775391,0.4306641 -0.8173829,0.9316406 -1.0195313,1.5 C 1.2469094,-3.9976953 1.1473,-3.2330469 1.1473,-2.2721094 c 0,0.9609375 0.099609,1.72265627 0.3046875,2.28515627 C 1.6541359,0.58140625 1.9939797,1.0853125 2.4715188,1.5247656 L 2.2957375,1.7005469 C 1.7010109,1.2610937 1.2351906,0.69566406 0.90120625,0.00132812 0.56429219,-0.70179688 0.3973,-1.4576563 0.3973,-2.2721094 c 0,-0.8115234 0.16699219,-1.5703125 0.50390625,-2.2734375 0.33398435,-0.703125 0.79980465,-1.2714844 1.39453125,-1.7109375 z m 0,0"
         style="fill:#000000;fill-opacity:1;fill-rule:nonzero;stroke:none"
         aria-label="("
         transform="matrix(1.3333333,0,0,1.3333333,587.22027,167.14667)"
         clip-path="url(#clipPath10)" />
      <path
         id="path11"
         d="m 0.32721875,-0.27992188 c 0,-0.0234375 0,-0.046875 0,-0.0703125 0,-0.0292969 0.005859,-0.0615234 0.0234375,-0.09375 L 1.1358125,-3.3971094 H 0.49128125 c 0,-0.070312 0.00293,-0.1113281 0.0117188,-0.1289062 0.0146484,-0.023437 0.046875,-0.046875 0.09375,-0.070312 0.28125,-0.1171875 0.49804695,-0.2285157 0.65624995,-0.3398438 0.1552734,-0.1171875 0.3691406,-0.3339844 0.6445312,-0.65625 l 0.070312,-0.082031 c 0.00586,-0.014648 0.014649,-0.023437 0.023437,-0.023437 0.014648,-0.00586 0.029297,-0.011719 0.046875,-0.011719 0.023437,0 0.041016,0.00586 0.058594,0.011719 0.00586,0.023437 0.011719,0.043945 0.011719,0.058594 0,0.017578 0,0.032227 0,0.046875 l -0.2460932,0.914061 h 0.6914062 l -0.046875,0.28125 H 1.7920625 l -0.7617188,2.83593752 c -0.017578,0.0556641 -0.011719,0.10546875 0.011719,0.15234375 0.023437,0.046875 0.061523,0.0703125 0.1171875,0.0703125 0.070312,0 0.1699219,-0.0732422 0.3046875,-0.22265625 0.076172,-0.0761719 0.2050781,-0.234375 0.3867187,-0.46875002 l 0.1054688,0.0703125 -0.058594,0.0820313 C 1.6543672,-0.5084375 1.4405,-0.25648438 1.253,-0.11585938 c -0.1816406,0.140625 -0.3515625,0.2109375 -0.515625,0.2109375 -0.14941406,0 -0.25488281,-0.04101562 -0.31640625,-0.1171875 -0.0644531,-0.07617187 -0.09375,-0.1640625 -0.09375,-0.2578125 z M 2.5420625,1.4192969 C 2.8291719,1.1058203 3.0518281,0.83335937 3.2100312,0.59898437 3.4737031,0.20054687 3.6934297,-0.2740625 3.8662812,-0.83070313 4.0127656,-1.3053125 4.1240937,-1.7682031 4.1944062,-2.2135156 4.2647187,-2.6588281 4.299875,-3.0836328 4.299875,-3.4908594 c 0,-0.4980469 -0.043945,-0.9375 -0.1289063,-1.3125 C 4.0918672,-5.1842188 3.9951875,-5.4976953 3.878,-5.7408594 l 0.1640625,-0.046875 c 0.2636719,0.4306641 0.4716797,0.9199219 0.6210937,1.4648438 0.1552735,0.5390625 0.234375,1.0839843 0.234375,1.6289062 0,0.6328125 -0.09375,1.1923828 -0.28125,1.6757813 -0.3457031,0.8847656 -1.0019531,1.73730466 -1.96875,2.5664062 z m 0,0"
         style="fill:#000000;fill-opacity:1;fill-rule:nonzero;stroke:none"
         aria-label="t)"
         transform="matrix(1.3333333,0,0,1.3333333,592.32933,167.14667)"
         clip-path="url(#clipPath12)" />
      <path
         id="path13"
         d="m 2.1571016,-5.7180078 v 0.1640625 c -0.1728516,0.00879 -0.2929688,0.023437 -0.3632813,0.046875 -0.1347656,0.046875 -0.1992187,0.1347656 -0.1992187,0.2578125 0,0.064453 0.00586,0.1230469 0.023437,0.1757812 0.014648,0.046875 0.038086,0.1142578 0.070312,0.1992188 l 1.2421875,3.2460937 0.9257812,-2.4375 -0.4101562,-1.0429687 c -0.079102,-0.1875 -0.1933594,-0.3164063 -0.3398438,-0.3867188 -0.09375,-0.038086 -0.2314453,-0.058594 -0.4101562,-0.058594 v -0.1640625 h 2.3085937 v 0.1640625 c -0.2197265,0 -0.3691406,0.017578 -0.4453125,0.046875 -0.1347656,0.046875 -0.1992187,0.1464844 -0.1992187,0.2929687 0,0.055664 0.00293,0.1025391 0.011719,0.140625 0.014648,0.032227 0.046875,0.1113282 0.09375,0.234375 l 1.2539063,3.234375 1.078125,-2.9296875 c 0.061523,-0.1640625 0.1054687,-0.3105468 0.1289062,-0.4453125 0.00586,-0.070312 0.011719,-0.1289062 0.011719,-0.1757812 0,-0.1640625 -0.076172,-0.2753906 -0.2226563,-0.3398438 -0.087891,-0.029297 -0.2109375,-0.049805 -0.375,-0.058594 v -0.1640625 h 1.7109375 v 0.1640625 c -0.1582031,0.023437 -0.2783203,0.058594 -0.3632812,0.1054687 -0.140625,0.079102 -0.2519532,0.2197266 -0.328125,0.421875 l -0.914062,2.5664069 -0.3632813,0.9960937 -0.515625,1.57031254 H 5.4383516 L 5.0867891,-0.90160156 4.0555391,-3.5500391 2.7313203,0.10621094 H 2.6024141 l -0.6210938,-1.80468754 -0.75,-2.015625 C 0.92663281,-4.5490625 0.71569531,-5.0617578 0.59850781,-5.2492578 c -0.1171875,-0.1875 -0.3046875,-0.2871094 -0.5625,-0.3046875 v -0.1640625 z m 6.703125,0.2695312 c 0,-0.1171875 0.041016,-0.2167968 0.1289062,-0.3046875 0.084961,-0.084961 0.1904297,-0.1289062 0.3164063,-0.1289062 0.1171875,0 0.2167968,0.043945 0.3046875,0.1289062 0.084961,0.087891 0.1289062,0.1875 0.1289062,0.3046875 0,0.1259766 -0.043945,0.2314453 -0.1289062,0.3164063 -0.087891,0.087891 -0.1875,0.1289062 -0.3046875,0.1289062 -0.1259766,0 -0.2314453,-0.041016 -0.3164063,-0.1289062 C 8.9012422,-5.2170313 8.8602266,-5.3225 8.8602266,-5.4484766 Z m -0.5390625,5.33203129 c 0.3046875,-0.0292969 0.4951172,-0.0820313 0.5742187,-0.15234375 0.076172,-0.0761719 0.1171875,-0.28125 0.1171875,-0.609375 V -2.8937891 c 0,-0.1787109 -0.011719,-0.3046875 -0.035156,-0.375 -0.046875,-0.1171875 -0.1376953,-0.1757812 -0.2695313,-0.1757812 -0.032227,0 -0.064453,0.00586 -0.09375,0.011719 -0.023437,0.00879 -0.1054687,0.032227 -0.2460937,0.070312 v -0.1289062 l 0.1757812,-0.058594 c 0.4921875,-0.1640625 0.834961,-0.2841797 1.03125,-0.3632812 0.076172,-0.038086 0.1289063,-0.058594 0.1523438,-0.058594 0.00586,0.023437 0.011719,0.046875 0.011719,0.070312 v 3.02343754 c 0,0.32226562 0.035156,0.52441406 0.1054688,0.609375 0.076172,0.0791016 0.2519529,0.12890625 0.5273429,0.15234375 V 7.421875e-4 H 8.3211641 Z M 12.610227,-3.9836328 c 0.202148,0 0.389648,0.043945 0.5625,0.1289062 0.108398,0.064453 0.213867,0.1464844 0.316406,0.2460938 v -1.3359375 c 0,-0.1699219 -0.02051,-0.2871094 -0.05859,-0.3515625 -0.03223,-0.070312 -0.123047,-0.1054688 -0.269531,-0.1054688 -0.03223,0 -0.05859,0.00586 -0.08203,0.011719 -0.02344,0 -0.08203,0.00586 -0.175782,0.011719 v -0.140625 l 0.351563,-0.082031 c 0.123047,-0.038086 0.249023,-0.073242 0.375,-0.1054688 0.131836,-0.038086 0.246094,-0.073242 0.339844,-0.1054687 0.04687,-0.014649 0.120117,-0.041016 0.222656,-0.082031 l 0.02344,0.011719 -0.01172,0.4335937 c 0,0.1640625 -0.0059,0.3339844 -0.01172,0.5039063 0,0.1640625 0,0.3339844 0,0.5039062 l -0.01172,3.44531254 c 0,0.18164062 0.02344,0.31054687 0.07031,0.38671875 0.04687,0.0703125 0.166992,0.10546875 0.363281,0.10546875 0.0293,0 0.06152,0 0.09375,0 0.0293,-0.005859 0.06152,-0.0117188 0.09375,-0.0117188 v 0.140625 c -0.01758,0 -0.222656,0.0703125 -0.621094,0.2109375 L 13.52429,0.08277459 13.48913,0.04761834 v -0.52734375 c -0.158203,0.17285156 -0.290039,0.29882812 -0.398438,0.375 -0.210937,0.12304687 -0.451172,0.1875 -0.714843,0.1875 -0.477539,0 -0.864258,-0.18164063 -1.160157,-0.55078125 -0.298828,-0.375 -0.445312,-0.80273434 -0.445312,-1.28906244 0,-0.609375 0.175781,-1.1308594 0.527344,-1.5703125 0.357421,-0.4365235 0.796875,-0.65625 1.3125,-0.65625 z m 0.152343,3.60937499 c 0.216797,0 0.392578,-0.0615234 0.527344,-0.1875 0.131836,-0.13183594 0.199219,-0.2578125 0.199219,-0.375 V -2.7414453 c 0,-0.366211 -0.09961,-0.6240235 -0.292969,-0.7734375 -0.196289,-0.1552735 -0.383789,-0.234375 -0.5625,-0.234375 -0.360351,0 -0.638672,0.1611328 -0.832031,0.4804687 -0.196289,0.3134766 -0.292969,0.6972657 -0.292969,1.1484375 0,0.4541016 0.105469,0.8613282 0.316406,1.21875004 0.210938,0.3515625 0.521485,0.52734375 0.9375,0.52734375 z m 4.306641,-3.51562499 v 0.3046875 h -0.855469 l -0.01172,2.4257812 c 0,0.2197266 0.01758,0.3837891 0.05859,0.49218754 0.07031,0.19628906 0.202149,0.29296875 0.398438,0.29296875 0.09961,0 0.1875,-0.0234375 0.257812,-0.0703125 0.07617,-0.0527344 0.164063,-0.13183594 0.257813,-0.234375 l 0.105468,0.09375 -0.08203,0.12890625 C 17.048703,-0.26 16.89343,-0.119375 16.729367,-0.03441406 c -0.164062,0.07617187 -0.322265,0.1171875 -0.46875,0.1171875 -0.336914,0 -0.5625,-0.14648438 -0.679687,-0.4453125 -0.06445,-0.15527344 -0.09375,-0.37792969 -0.09375,-0.66796874 v -2.5546875 h -0.457032 c -0.01758,-0.00586 -0.0293,-0.014648 -0.03516,-0.023437 -0.0088,-0.00586 -0.01172,-0.017578 -0.01172,-0.035156 0,-0.029297 0.0029,-0.049805 0.01172,-0.058594 0.01465,-0.014648 0.05859,-0.052734 0.128906,-0.1171875 0.19336,-0.1552735 0.333985,-0.2841797 0.421875,-0.3867188 0.08496,-0.099609 0.28418,-0.3632812 0.597657,-0.7851562 0.03809,0 0.06152,0.00586 0.07031,0.011719 0.0059,0 0.01172,0.020508 0.01172,0.058594 v 1.03125 z m 0.28125,3.77343749 c 0.234375,-0.0292969 0.386719,-0.0849609 0.457031,-0.1640625 0.07031,-0.0849609 0.105469,-0.28417969 0.105469,-0.59765625 V -4.9211328 c 0,-0.1552735 -0.02051,-0.272461 -0.05859,-0.3515625 -0.04102,-0.076172 -0.137695,-0.1171875 -0.292969,-0.1171875 -0.03223,0 -0.06445,0.00586 -0.09375,0.011719 -0.03223,0.00879 -0.06445,0.011719 -0.09375,0.011719 v -0.1523438 c 0.117188,-0.029297 0.263672,-0.073242 0.445313,-0.1289062 0.1875,-0.052734 0.316406,-0.09375 0.386719,-0.1171875 l 0.398437,-0.1171875 0.01172,0.023437 v 2.5898437 c 0.178711,-0.2021484 0.333984,-0.3515625 0.46875,-0.4453125 0.249023,-0.1699218 0.518555,-0.2578125 0.808594,-0.2578125 0.451172,0 0.761718,0.1933594 0.925781,0.5742188 0.09375,0.2050781 0.140625,0.46875 0.140625,0.796875 v 1.72265624 c 0,0.29882812 0.0293,0.4921875 0.09375,0.5859375 0.07031,0.0878906 0.213867,0.14648437 0.433594,0.17578125 V 7.421875e-4 h -1.82813 V -0.11644531 c 0.240234,-0.0292969 0.398437,-0.0849609 0.46875,-0.1640625 0.07031,-0.0849609 0.105468,-0.28417969 0.105468,-0.59765625 V -2.5891016 c 0,-0.2724609 -0.04687,-0.4921875 -0.140625,-0.65625 -0.08789,-0.1699218 -0.257812,-0.2578125 -0.515625,-0.2578125 -0.219726,0 -0.430664,0.082031 -0.632812,0.2460938 -0.205078,0.1582031 -0.304688,0.2578125 -0.304688,0.3046875 v 2.07421874 c 0,0.31347656 0.03516,0.51269531 0.105469,0.59765625 0.07617,0.0791016 0.234375,0.13476562 0.46875,0.1640625 V 7.421875e-4 h -1.863281 z m 0,0"
         style="fill:#000000;fill-opacity:1;fill-rule:nonzero;stroke:none"
         aria-label="Width"
         transform="matrix(1.3333333,0,0,1.3333333,210.72933,282.34667)"
         clip-path="url(#clipPath14)" />
      <path
         id="path17"
         d="m 2.1548734,-3.2219141 c 0,0.046875 0,0.1142578 0,0.1992188 -0.023437,0.618164 -0.035156,1.0634765 -0.035156,1.3359375 v 0.28125 c 0,0.49218749 0.026367,0.80566405 0.082031,0.93749999 0.061523,0.12597656 0.1757813,0.1875 0.3398438,0.1875 0.1933594,0 0.3398437,-0.0761719 0.4335937,-0.234375 0.099609,-0.1640625 0.1582032,-0.42480469 0.1757813,-0.78515629 h 0.2109375 v 0.035156 c 0,0.45410155 -0.087891,0.79101561 -0.2578125,1.00781249 -0.1728516,0.21972656 -0.4394531,0.328125 -0.796875,0.328125 -0.375,0 -0.6386719,-0.10546875 -0.7851563,-0.31640625 -0.149414,-0.21679688 -0.2226562,-0.70605469 -0.2226562,-1.46484374 0,-0.1171875 0.00293,-0.3105469 0.011719,-0.5859375 0.00586,-0.272461 0.014648,-0.5859375 0.023437,-0.9375 -0.00879,0 -0.029297,-0.00293 -0.058594,-0.011719 -0.210937,-0.014648 -0.35742139,-0.023437 -0.43359326,-0.023437 -0.25195313,0 -0.45117188,0.041016 -0.59765625,0.1171875 -0.14941407,0.079102 -0.24023438,0.1933594 -0.26953125,0.3398438 h -0.1875 c 0.0234375,-0.3896485 0.14648437,-0.6621094 0.36328125,-0.8203125 0.22558593,-0.1640625 0.61523437,-0.2460938 1.17187501,-0.2460938 0.140625,0 0.3632812,0.011719 0.6679687,0.035156 0.3046875,0.017578 0.5390625,0.023437 0.703125,0.023437 0.2636719,0 0.4628907,-0.017578 0.5976563,-0.058594 0.1318359,-0.046875 0.1992187,-0.1083984 0.1992187,-0.1875 v -0.011719 h 0.1640625 c 0,0.3222656 -0.082031,0.5478515 -0.2460937,0.6796875 -0.1582031,0.1347656 -0.4335938,0.1992187 -0.8320313,0.1992187 -0.087891,0 -0.2197265,-0.00586 -0.3984375,-0.023437 z m 0,0"
         style="fill:#000000;fill-opacity:1;fill-rule:nonzero;stroke:none"
         aria-label="τ"
         transform="matrix(1.3333333,0,0,1.3333333,252.33387,282.34667)"
         clip-path="url(#clipPath18)" />
      <path
         id="path19"
         d="m 2.1565156,-5.7180078 v 0.1640625 c -0.1728515,0.00879 -0.2929687,0.023437 -0.3632812,0.046875 -0.1347657,0.046875 -0.1992188,0.1347656 -0.1992188,0.2578125 0,0.064453 0.00586,0.1230469 0.023437,0.1757812 0.014648,0.046875 0.038086,0.1142578 0.070312,0.1992188 l 1.2421875,3.2460937 0.9257813,-2.4375 -0.4101563,-1.0429687 c -0.079102,-0.1875 -0.1933594,-0.3164063 -0.3398437,-0.3867188 -0.09375,-0.038086 -0.2314453,-0.058594 -0.4101563,-0.058594 v -0.1640625 h 2.3085938 v 0.1640625 c -0.2197266,0 -0.3691407,0.017578 -0.4453125,0.046875 -0.1347657,0.046875 -0.1992188,0.1464844 -0.1992188,0.2929687 0,0.055664 0.00293,0.1025391 0.011719,0.140625 0.014648,0.032227 0.046875,0.1113282 0.09375,0.234375 l 1.2539062,3.234375 1.078125,-2.9296875 c 0.061524,-0.1640625 0.1054688,-0.3105468 0.1289063,-0.4453125 0.00586,-0.070312 0.011719,-0.1289062 0.011719,-0.1757812 0,-0.1640625 -0.076172,-0.2753906 -0.2226562,-0.3398438 -0.087891,-0.029297 -0.2109375,-0.049805 -0.375,-0.058594 v -0.1640625 h 1.7109375 v 0.1640625 c -0.1582032,0.023437 -0.2783203,0.058594 -0.3632813,0.1054687 -0.140625,0.079102 -0.2519531,0.2197266 -0.328125,0.421875 l -0.914062,2.5664069 -0.3632812,0.9960937 -0.515625,1.57031254 H 5.4377656 L 5.0862031,-0.90160156 4.0549531,-3.5500391 2.7307344,0.10621094 H 2.6018281 l -0.6210937,-1.80468754 -0.75,-2.015625 C 0.92604687,-4.5490625 0.71510937,-5.0617578 0.59792187,-5.2492578 c -0.1171875,-0.1875 -0.3046875,-0.2871094 -0.5625,-0.3046875 v -0.1640625 z m 6.703125,0.2695312 c 0,-0.1171875 0.041016,-0.2167968 0.1289063,-0.3046875 0.084961,-0.084961 0.1904297,-0.1289062 0.3164062,-0.1289062 0.1171875,0 0.2167969,0.043945 0.3046875,0.1289062 0.084961,0.087891 0.1289063,0.1875 0.1289063,0.3046875 0,0.1259766 -0.043945,0.2314453 -0.1289063,0.3164063 -0.087891,0.087891 -0.1875,0.1289062 -0.3046875,0.1289062 -0.1259765,0 -0.2314453,-0.041016 -0.3164062,-0.1289062 C 8.9006562,-5.2170313 8.8596406,-5.3225 8.8596406,-5.4484766 Z m -0.5390625,5.33203129 c 0.3046875,-0.0292969 0.4951172,-0.0820313 0.5742188,-0.15234375 0.076172,-0.0761719 0.1171875,-0.28125 0.1171875,-0.609375 V -2.8937891 c 0,-0.1787109 -0.011719,-0.3046875 -0.035156,-0.375 -0.046875,-0.1171875 -0.1376953,-0.1757812 -0.2695312,-0.1757812 -0.032227,0 -0.064453,0.00586 -0.09375,0.011719 -0.023437,0.00879 -0.1054688,0.032227 -0.2460938,0.070312 v -0.1289062 l 0.1757813,-0.058594 c 0.4921875,-0.1640625 0.8349609,-0.2841797 1.03125,-0.3632812 0.076172,-0.038086 0.1289062,-0.058594 0.1523437,-0.058594 0.00586,0.023437 0.011719,0.046875 0.011719,0.070312 v 3.02343754 c 0,0.32226562 0.035156,0.52441406 0.1054687,0.609375 0.076172,0.0791016 0.2519529,0.12890625 0.5273429,0.15234375 V 7.421875e-4 H 8.3205781 Z M 12.609641,-3.9836328 c 0.202148,0 0.389648,0.043945 0.5625,0.1289062 0.108398,0.064453 0.213867,0.1464844 0.316406,0.2460938 v -1.3359375 c 0,-0.1699219 -0.02051,-0.2871094 -0.05859,-0.3515625 -0.03223,-0.070312 -0.123047,-0.1054688 -0.269531,-0.1054688 -0.03223,0 -0.05859,0.00586 -0.08203,0.011719 -0.02344,0 -0.08203,0.00586 -0.175782,0.011719 v -0.140625 l 0.351563,-0.082031 c 0.123047,-0.038086 0.249023,-0.073242 0.375,-0.1054688 0.131836,-0.038086 0.246094,-0.073242 0.339844,-0.1054687 0.04687,-0.014649 0.120117,-0.041016 0.222656,-0.082031 l 0.02344,0.011719 -0.01172,0.4335937 c 0,0.1640625 -0.0059,0.3339844 -0.01172,0.5039063 0,0.1640625 0,0.3339844 0,0.5039062 l -0.01172,3.44531254 c 0,0.18164062 0.02344,0.31054687 0.07031,0.38671875 0.04687,0.0703125 0.166992,0.10546875 0.363281,0.10546875 0.0293,0 0.06152,0 0.09375,0 0.0293,-0.005859 0.06152,-0.0117188 0.09375,-0.0117188 v 0.140625 c -0.01758,0 -0.222656,0.0703125 -0.621094,0.2109375 l -0.65625,0.24609375 -0.03516,-0.03515625 v -0.52734375 c -0.158203,0.17285156 -0.290039,0.29882812 -0.398438,0.375 -0.210937,0.12304687 -0.451172,0.1875 -0.714843,0.1875 -0.477539,0 -0.864258,-0.18164063 -1.160157,-0.55078125 -0.298828,-0.375 -0.445312,-0.80273434 -0.445312,-1.28906244 0,-0.609375 0.175781,-1.1308594 0.527344,-1.5703125 0.357421,-0.4365235 0.796875,-0.65625 1.3125,-0.65625 z m 0.152343,3.60937499 c 0.216797,0 0.392578,-0.0615234 0.527344,-0.1875 0.131836,-0.13183594 0.199219,-0.2578125 0.199219,-0.375 V -2.7414453 c 0,-0.366211 -0.09961,-0.6240235 -0.292969,-0.7734375 -0.196289,-0.1552735 -0.383789,-0.234375 -0.5625,-0.234375 -0.360351,0 -0.638672,0.1611328 -0.832031,0.4804687 -0.196289,0.3134766 -0.292969,0.6972657 -0.292969,1.1484375 0,0.4541016 0.105469,0.8613282 0.316406,1.21875004 0.210938,0.3515625 0.521485,0.52734375 0.9375,0.52734375 z m 4.306641,-3.51562499 v 0.3046875 h -0.855469 l -0.01172,2.4257812 c 0,0.2197266 0.01758,0.3837891 0.05859,0.49218754 0.07031,0.19628906 0.202149,0.29296875 0.398438,0.29296875 0.09961,0 0.1875,-0.0234375 0.257812,-0.0703125 0.07617,-0.0527344 0.164063,-0.13183594 0.257813,-0.234375 l 0.105468,0.09375 -0.08203,0.12890625 C 17.048113,-0.26 16.89284,-0.119375 16.728777,-0.03441406 c -0.164062,0.07617187 -0.322265,0.1171875 -0.46875,0.1171875 -0.336914,0 -0.5625,-0.14648438 -0.679687,-0.4453125 -0.06445,-0.15527344 -0.09375,-0.37792969 -0.09375,-0.66796874 v -2.5546875 h -0.457032 c -0.01758,-0.00586 -0.0293,-0.014648 -0.03516,-0.023437 -0.0088,-0.00586 -0.01172,-0.017578 -0.01172,-0.035156 0,-0.029297 0.0029,-0.049805 0.01172,-0.058594 0.01465,-0.014648 0.05859,-0.052734 0.128906,-0.1171875 0.19336,-0.1552735 0.333985,-0.2841797 0.421875,-0.3867188 0.08496,-0.099609 0.28418,-0.3632812 0.597657,-0.7851562 0.03809,0 0.06152,0.00586 0.07031,0.011719 0.0059,0 0.01172,0.020508 0.01172,0.058594 v 1.03125 z m 0.28125,3.77343749 c 0.234375,-0.0292969 0.386719,-0.0849609 0.457031,-0.1640625 0.07031,-0.0849609 0.105469,-0.28417969 0.105469,-0.59765625 V -4.9211328 c 0,-0.1552735 -0.02051,-0.272461 -0.05859,-0.3515625 -0.04102,-0.076172 -0.137695,-0.1171875 -0.292969,-0.1171875 -0.03223,0 -0.06445,0.00586 -0.09375,0.011719 -0.03223,0.00879 -0.06445,0.011719 -0.09375,0.011719 v -0.1523438 c 0.117188,-0.029297 0.263672,-0.073242 0.445313,-0.1289062 0.1875,-0.052734 0.316406,-0.09375 0.386719,-0.1171875 l 0.398437,-0.1171875 0.01172,0.023437 v 2.5898437 c 0.178711,-0.2021484 0.333984,-0.3515625 0.46875,-0.4453125 0.249023,-0.1699218 0.518555,-0.2578125 0.808594,-0.2578125 0.451172,0 0.761718,0.1933594 0.925781,0.5742188 0.09375,0.2050781 0.140625,0.46875 0.140625,0.796875 v 1.72265624 c 0,0.29882812 0.0293,0.4921875 0.09375,0.5859375 0.07031,0.0878906 0.213867,0.14648437 0.433594,0.17578125 V 7.421875e-4 h -1.82813 V -0.11644531 c 0.240234,-0.0292969 0.398437,-0.0849609 0.46875,-0.1640625 0.07031,-0.0849609 0.105468,-0.28417969 0.105468,-0.59765625 V -2.5891016 c 0,-0.2724609 -0.04687,-0.4921875 -0.140625,-0.65625 -0.08789,-0.1699218 -0.257812,-0.2578125 -0.515625,-0.2578125 -0.219726,0 -0.430664,0.082031 -0.632812,0.2460938 -0.205078,0.1582031 -0.304688,0.2578125 -0.304688,0.3046875 v 2.07421874 c 0,0.31347656 0.03516,0.51269531 0.105469,0.59765625 0.07617,0.0791016 0.234375,0.13476562 0.46875,0.1640625 V 7.421875e-4 h -1.863281 z m 0,0"
         style="fill:#000000;fill-opacity:1;fill-rule:nonzero;stroke:none"
         aria-label="Width"
         transform="matrix(1.3333333,0,0,1.3333333,325.92933,282.34667)"
         clip-path="url(#clipPath20)" />
      <path
         id="path23"
         d="m 2.1572172,-3.2219141 c 0,0.046875 0,0.1142578 0,0.1992188 -0.023437,0.618164 -0.035156,1.0634765 -0.035156,1.3359375 v 0.28125 c 0,0.49218749 0.026367,0.80566405 0.082031,0.93749999 0.061523,0.12597656 0.1757812,0.1875 0.3398437,0.1875 0.1933594,0 0.3398438,-0.0761719 0.4335938,-0.234375 0.099609,-0.1640625 0.1582031,-0.42480469 0.1757812,-0.78515629 h 0.2109375 v 0.035156 c 0,0.45410155 -0.087891,0.79101561 -0.2578125,1.00781249 -0.1728515,0.21972656 -0.4394531,0.328125 -0.796875,0.328125 -0.375,0 -0.6386718,-0.10546875 -0.7851562,-0.31640625 -0.1494141,-0.21679688 -0.2226563,-0.70605469 -0.2226563,-1.46484374 0,-0.1171875 0.00293,-0.3105469 0.011719,-0.5859375 0.00586,-0.272461 0.014648,-0.5859375 0.023437,-0.9375 -0.00879,0 -0.029297,-0.00293 -0.058594,-0.011719 -0.210937,-0.014648 -0.35742134,-0.023437 -0.43359321,-0.023437 -0.25195313,0 -0.45117188,0.041016 -0.59765625,0.1171875 -0.14941407,0.079102 -0.24023438,0.1933594 -0.26953125,0.3398438 h -0.1875 c 0.0234375,-0.3896485 0.14648437,-0.6621094 0.36328125,-0.8203125 0.22558593,-0.1640625 0.61523437,-0.2460938 1.17187496,-0.2460938 0.140625,0 0.3632813,0.011719 0.6679688,0.035156 0.3046875,0.017578 0.5390625,0.023437 0.703125,0.023437 0.2636719,0 0.4628906,-0.017578 0.5976562,-0.058594 0.131836,-0.046875 0.1992188,-0.1083984 0.1992188,-0.1875 v -0.011719 h 0.1640625 c 0,0.3222656 -0.082031,0.5478515 -0.2460938,0.6796875 -0.1582031,0.1347656 -0.4335937,0.1992187 -0.8320312,0.1992187 -0.087891,0 -0.2197266,-0.00586 -0.3984375,-0.023437 z m 0,0"
         style="fill:#000000;fill-opacity:1;fill-rule:nonzero;stroke:none"
         aria-label="τ"
         transform="matrix(1.3333333,0,0,1.3333333,367.53387,282.34667)"
         clip-path="url(#clipPath24)" />
      <path
         id="path25"
         d="m 2.1559297,-5.7180078 v 0.1640625 c -0.1728516,0.00879 -0.2929688,0.023437 -0.3632813,0.046875 -0.1347656,0.046875 -0.1992187,0.1347656 -0.1992187,0.2578125 0,0.064453 0.00586,0.1230469 0.023437,0.1757812 0.014648,0.046875 0.038086,0.1142578 0.070312,0.1992188 l 1.2421875,3.2460937 0.9257812,-2.4375 -0.4101562,-1.0429687 c -0.079102,-0.1875 -0.1933594,-0.3164063 -0.3398438,-0.3867188 -0.09375,-0.038086 -0.2314453,-0.058594 -0.4101562,-0.058594 v -0.1640625 h 2.3085937 v 0.1640625 c -0.2197265,0 -0.3691406,0.017578 -0.4453125,0.046875 -0.1347656,0.046875 -0.1992187,0.1464844 -0.1992187,0.2929687 0,0.055664 0.00293,0.1025391 0.011719,0.140625 0.014648,0.032227 0.046875,0.1113282 0.09375,0.234375 l 1.2539063,3.234375 1.078125,-2.9296875 c 0.061523,-0.1640625 0.1054687,-0.3105468 0.1289062,-0.4453125 0.00586,-0.070312 0.011719,-0.1289062 0.011719,-0.1757812 0,-0.1640625 -0.076172,-0.2753906 -0.2226563,-0.3398438 -0.087891,-0.029297 -0.2109375,-0.049805 -0.375,-0.058594 v -0.1640625 h 1.7109375 v 0.1640625 c -0.1582031,0.023437 -0.2783203,0.058594 -0.3632812,0.1054687 -0.140625,0.079102 -0.2519531,0.2197266 -0.328125,0.421875 l -0.914062,2.5664069 -0.3632813,0.9960937 -0.515625,1.57031254 H 5.4371797 L 5.0856172,-0.90160156 4.0543672,-3.5500391 2.7301484,0.10621094 H 2.6012422 l -0.6210938,-1.80468754 -0.75,-2.015625 C 0.92546094,-4.5490625 0.71452344,-5.0617578 0.59733594,-5.2492578 c -0.1171875,-0.1875 -0.3046875,-0.2871094 -0.5625,-0.3046875 v -0.1640625 z m 6.703125,0.2695312 c 0,-0.1171875 0.041016,-0.2167968 0.1289062,-0.3046875 0.084961,-0.084961 0.1904297,-0.1289062 0.3164063,-0.1289062 0.1171875,0 0.2167969,0.043945 0.3046875,0.1289062 0.084961,0.087891 0.1289062,0.1875 0.1289062,0.3046875 0,0.1259766 -0.043945,0.2314453 -0.1289062,0.3164063 -0.087891,0.087891 -0.1875,0.1289062 -0.3046875,0.1289062 -0.1259766,0 -0.2314453,-0.041016 -0.3164063,-0.1289062 C 8.9000703,-5.2170313 8.8590547,-5.3225 8.8590547,-5.4484766 Z m -0.5390625,5.33203129 c 0.3046875,-0.0292969 0.4951172,-0.0820313 0.5742187,-0.15234375 0.076172,-0.0761719 0.1171875,-0.28125 0.1171875,-0.609375 V -2.8937891 c 0,-0.1787109 -0.011719,-0.3046875 -0.035156,-0.375 -0.046875,-0.1171875 -0.1376953,-0.1757812 -0.2695313,-0.1757812 -0.032226,0 -0.064453,0.00586 -0.09375,0.011719 -0.023437,0.00879 -0.1054687,0.032227 -0.2460937,0.070312 v -0.1289062 l 0.1757812,-0.058594 c 0.4921875,-0.1640625 0.834961,-0.2841797 1.03125,-0.3632812 0.076172,-0.038086 0.1289063,-0.058594 0.1523438,-0.058594 0.00586,0.023437 0.011719,0.046875 0.011719,0.070312 v 3.02343754 c 0,0.32226562 0.035156,0.52441406 0.1054688,0.609375 0.076172,0.0791016 0.2519528,0.12890625 0.5273428,0.15234375 V 7.421875e-4 H 8.3199922 Z M 12.609055,-3.9836328 c 0.202148,0 0.389648,0.043945 0.5625,0.1289062 0.108398,0.064453 0.213867,0.1464844 0.316406,0.2460938 v -1.3359375 c 0,-0.1699219 -0.02051,-0.2871094 -0.05859,-0.3515625 -0.03223,-0.070312 -0.123047,-0.1054688 -0.269531,-0.1054688 -0.03223,0 -0.05859,0.00586 -0.08203,0.011719 -0.02344,0 -0.08203,0.00586 -0.175782,0.011719 v -0.140625 l 0.351563,-0.082031 c 0.123047,-0.038086 0.249023,-0.073242 0.375,-0.1054688 0.131836,-0.038086 0.246094,-0.073242 0.339844,-0.1054687 0.04687,-0.014649 0.120117,-0.041016 0.222656,-0.082031 l 0.02344,0.011719 -0.01172,0.4335937 c 0,0.1640625 -0.0059,0.3339844 -0.01172,0.5039063 0,0.1640625 0,0.3339844 0,0.5039062 l -0.01172,3.44531254 c 0,0.18164062 0.02344,0.31054687 0.07031,0.38671875 0.04687,0.0703125 0.166992,0.10546875 0.363281,0.10546875 0.0293,0 0.06152,0 0.09375,0 0.0293,-0.005859 0.06152,-0.0117188 0.09375,-0.0117188 v 0.140625 c -0.01758,0 -0.222656,0.0703125 -0.621094,0.2109375 l -0.65625,0.24609375 -0.03516,-0.03515625 v -0.52734375 c -0.158203,0.17285156 -0.290039,0.29882812 -0.398438,0.375 -0.210937,0.12304687 -0.451171,0.1875 -0.714843,0.1875 -0.477539,0 -0.864258,-0.18164063 -1.160157,-0.55078125 -0.298828,-0.375 -0.445312,-0.80273434 -0.445312,-1.28906244 0,-0.609375 0.175781,-1.1308594 0.527344,-1.5703125 0.357422,-0.4365235 0.796875,-0.65625 1.3125,-0.65625 z m 0.152343,3.60937499 c 0.216797,0 0.392579,-0.0615234 0.527344,-0.1875 0.131836,-0.13183594 0.199219,-0.2578125 0.199219,-0.375 V -2.7414453 c 0,-0.366211 -0.09961,-0.6240235 -0.292969,-0.7734375 -0.196289,-0.1552735 -0.383789,-0.234375 -0.5625,-0.234375 -0.360351,0 -0.638672,0.1611328 -0.832031,0.4804687 -0.196289,0.3134766 -0.292969,0.6972657 -0.292969,1.1484375 0,0.4541016 0.105469,0.8613282 0.316406,1.21875004 0.210938,0.3515625 0.521485,0.52734375 0.9375,0.52734375 z m 4.306641,-3.51562499 v 0.3046875 H 16.21257 l -0.01172,2.4257812 c 0,0.2197266 0.01758,0.3837891 0.05859,0.49218754 0.07031,0.19628906 0.202149,0.29296875 0.398438,0.29296875 0.09961,0 0.1875,-0.0234375 0.257812,-0.0703125 0.07617,-0.0527344 0.164063,-0.13183594 0.257813,-0.234375 l 0.105469,0.09375 -0.08203,0.12890625 c -0.149414,0.19628906 -0.304687,0.33691406 -0.46875,0.421875 -0.164062,0.07617187 -0.322265,0.1171875 -0.46875,0.1171875 -0.336914,0 -0.5625,-0.14648438 -0.679687,-0.4453125 -0.06445,-0.15527344 -0.09375,-0.37792969 -0.09375,-0.66796874 v -2.5546875 h -0.457031 c -0.01758,-0.00586 -0.0293,-0.014648 -0.03516,-0.023437 -0.0088,-0.00586 -0.01172,-0.017578 -0.01172,-0.035156 0,-0.029297 0.0029,-0.049805 0.01172,-0.058594 0.01465,-0.014648 0.05859,-0.052734 0.128907,-0.1171875 0.193359,-0.1552735 0.333984,-0.2841797 0.421875,-0.3867188 0.08496,-0.099609 0.284179,-0.3632812 0.597656,-0.7851562 0.03809,0 0.06152,0.00586 0.07031,0.011719 0.0059,0 0.01172,0.020508 0.01172,0.058594 v 1.03125 z m 0.28125,3.77343749 c 0.234375,-0.0292969 0.386719,-0.0849609 0.457031,-0.1640625 0.07031,-0.0849609 0.105469,-0.28417969 0.105469,-0.59765625 V -4.9211328 c 0,-0.1552735 -0.02051,-0.272461 -0.05859,-0.3515625 -0.04101,-0.076172 -0.137695,-0.1171875 -0.292968,-0.1171875 -0.03223,0 -0.06445,0.00586 -0.09375,0.011719 -0.03223,0.00879 -0.06445,0.011719 -0.09375,0.011719 v -0.1523438 c 0.117187,-0.029297 0.263671,-0.073242 0.445312,-0.1289062 0.1875,-0.052734 0.316406,-0.09375 0.386719,-0.1171875 l 0.398437,-0.1171875 0.01172,0.023437 v 2.5898437 c 0.178711,-0.2021484 0.333984,-0.3515625 0.46875,-0.4453125 0.249023,-0.1699218 0.518555,-0.2578125 0.808594,-0.2578125 0.451172,0 0.761719,0.1933594 0.925781,0.5742188 0.09375,0.2050781 0.140625,0.46875 0.140625,0.796875 v 1.72265624 c 0,0.29882812 0.0293,0.4921875 0.09375,0.5859375 0.07031,0.0878906 0.213867,0.14648437 0.433594,0.17578125 V 7.421875e-4 h -1.82813 V -0.11644531 c 0.240234,-0.0292969 0.398437,-0.0849609 0.46875,-0.1640625 0.07031,-0.0849609 0.105469,-0.28417969 0.105469,-0.59765625 V -2.5891016 c 0,-0.2724609 -0.04687,-0.4921875 -0.140625,-0.65625 -0.08789,-0.1699218 -0.257813,-0.2578125 -0.515625,-0.2578125 -0.219727,0 -0.430665,0.082031 -0.632813,0.2460938 -0.205078,0.1582031 -0.304687,0.2578125 -0.304687,0.3046875 v 2.07421874 c 0,0.31347656 0.03516,0.51269531 0.105468,0.59765625 0.07617,0.0791016 0.234375,0.13476562 0.46875,0.1640625 V 7.421875e-4 h -1.863281 z m 0,0"
         style="fill:#000000;fill-opacity:1;fill-rule:nonzero;stroke:none"
         aria-label="Width"
         transform="matrix(1.3333333,0,0,1.3333333,441.12933,282.34667)"
         clip-path="url(#clipPath26)" />
      <path
         id="path29"
         d="m 2.1566312,-3.2219141 c 0,0.046875 0,0.1142578 0,0.1992188 -0.023437,0.618164 -0.035156,1.0634765 -0.035156,1.3359375 v 0.28125 c 0,0.49218749 0.026367,0.80566405 0.082031,0.93749999 0.061523,0.12597656 0.1757813,0.1875 0.3398438,0.1875 0.1933594,0 0.3398437,-0.0761719 0.4335937,-0.234375 0.099609,-0.1640625 0.1582032,-0.42480469 0.1757813,-0.78515629 h 0.2109375 v 0.035156 c 0,0.45410155 -0.087891,0.79101561 -0.2578125,1.00781249 -0.1728516,0.21972656 -0.4394531,0.328125 -0.796875,0.328125 -0.375,0 -0.6386719,-0.10546875 -0.7851563,-0.31640625 -0.149414,-0.21679688 -0.2226562,-0.70605469 -0.2226562,-1.46484374 0,-0.1171875 0.00293,-0.3105469 0.011719,-0.5859375 0.00586,-0.272461 0.014648,-0.5859375 0.023437,-0.9375 -0.00879,0 -0.029297,-0.00293 -0.058594,-0.011719 -0.210937,-0.014648 -0.35742138,-0.023437 -0.43359325,-0.023437 -0.25195313,0 -0.45117188,0.041016 -0.59765625,0.1171875 -0.14941406,0.079102 -0.24023438,0.1933594 -0.26953125,0.3398438 h -0.1875 c 0.0234375,-0.3896485 0.14648437,-0.6621094 0.36328125,-0.8203125 0.22558594,-0.1640625 0.61523437,-0.2460938 1.171875,-0.2460938 0.140625,0 0.3632812,0.011719 0.6679687,0.035156 0.3046875,0.017578 0.5390625,0.023437 0.703125,0.023437 0.2636719,0 0.4628907,-0.017578 0.5976563,-0.058594 0.1318359,-0.046875 0.1992187,-0.1083984 0.1992187,-0.1875 v -0.011719 h 0.1640625 c 0,0.3222656 -0.082031,0.5478515 -0.2460937,0.6796875 -0.1582031,0.1347656 -0.4335938,0.1992187 -0.8320313,0.1992187 -0.087891,0 -0.2197265,-0.00586 -0.3984375,-0.023437 z m 0,0"
         style="fill:#000000;fill-opacity:1;fill-rule:nonzero;stroke:none"
         aria-label="τ"
         transform="matrix(1.3333333,0,0,1.3333333,482.73387,282.34667)"
         clip-path="url(#clipPath30)" />
      <path
         id="path31"
         d="M 3.8569062,-2.2141016 2.8608125,-4.5930078 1.8647187,-2.2141016 Z M 0.13034375,7.421875e-4 V -0.15160156 c 0.21679687,-0.0292969 0.38085937,-0.1171875 0.4921875,-0.2578125 C 0.73971875,-0.55003906 0.93014844,-0.9396875 1.19675,-1.5812891 L 3.0014375,-5.8117578 H 3.1655 l 2.15625,4.89843749 c 0.140625,0.32226562 0.2519531,0.52148437 0.3398437,0.59765625 0.084961,0.0791016 0.2285157,0.13476562 0.4335938,0.1640625 V 7.421875e-4 H 3.9037812 V -0.15160156 c 0.2490235,-0.0234375 0.4101563,-0.0498047 0.4804688,-0.0820313 0.076172,-0.0292969 0.1171875,-0.11132813 0.1171875,-0.24609375 0,-0.0380859 -0.017578,-0.10839844 -0.046875,-0.2109375 C 4.4223359,-0.7990625 4.38425,-0.91625 4.337375,-1.0422266 L 3.9740937,-1.8625391 H 1.712375 c -0.2197266,0.5625 -0.3515625,0.90820316 -0.3984375,1.03125004 -0.041016,0.12597656 -0.058594,0.22265625 -0.058594,0.29296875 0,0.14941406 0.058594,0.25195312 0.1757813,0.3046875 0.070312,0.0410156 0.2050781,0.0673828 0.4101562,0.0820313 V 7.421875e-4 Z M 3.0834687,-5.8117578 Z m 3.1904297,5.67187499 c 0.2578125,-0.0234375 0.4277344,-0.0644531 0.515625,-0.12890625 0.084961,-0.0703125 0.1289063,-0.21679688 0.1289063,-0.4453125 V -2.6125391 c 0,-0.28125 -0.029297,-0.4804687 -0.082031,-0.5976562 -0.046875,-0.1230469 -0.140625,-0.1875 -0.28125,-0.1875 -0.032227,0 -0.070312,0.00586 -0.1171875,0.011719 -0.041016,0.00879 -0.087891,0.020508 -0.140625,0.035156 v -0.140625 c 0.1640625,-0.061523 0.328125,-0.1201172 0.4921875,-0.1757813 0.1699219,-0.061523 0.2871094,-0.1054687 0.3515625,-0.1289062 0.140625,-0.052734 0.2841797,-0.1113281 0.4335938,-0.1757813 0.023437,0 0.035156,0.00879 0.035156,0.023437 0.00586,0.00879 0.011719,0.035156 0.011719,0.082031 v 0.6914062 c 0.1787109,-0.2490234 0.3515625,-0.4453125 0.515625,-0.5859375 0.1699219,-0.140625 0.3457031,-0.2109375 0.5273437,-0.2109375 0.140625,0 0.2519532,0.043945 0.3398438,0.1289063 0.09375,0.087891 0.140625,0.196289 0.140625,0.328125 0,0.1113281 -0.035156,0.2050781 -0.1054688,0.28125 -0.070312,0.079102 -0.1582031,0.1171875 -0.2578125,0.1171875 -0.1113281,0 -0.2197265,-0.046875 -0.328125,-0.140625 -0.102539,-0.099609 -0.1845703,-0.1523438 -0.2460937,-0.1523438 -0.1025391,0 -0.2285156,0.082031 -0.375,0.2460938 -0.140625,0.1582031 -0.2109375,0.3164062 -0.2109375,0.4804687 v 1.91015629 c 0,0.24316406 0.052734,0.41015625 0.1640625,0.50390625 0.1171875,0.09375 0.3076172,0.13769531 0.5742187,0.12890625 V 7.421875e-4 H 6.2738984 Z M 11.096164,-3.9601953 c 0.398438,0 0.744141,0.140625 1.042969,0.421875 0.295898,0.2753906 0.445312,0.6621094 0.445312,1.1601562 H 9.9008516 c 0.029297,0.65625 0.1787104,1.1337891 0.4453124,1.42968754 0.263672,0.29882812 0.580078,0.4453125 0.949219,0.4453125 0.295898,0 0.544922,-0.0761719 0.75,-0.234375 0.202148,-0.15527344 0.389648,-0.37500004 0.5625,-0.65625004 l 0.140625,0.046875 c -0.117188,0.3603516 -0.336914,0.69140629 -0.65625,0.99609379 -0.313477,0.3046875 -0.697266,0.45703125 -1.148438,0.45703125 -0.533203,0 -0.943359,-0.19921875 -1.2304684,-0.59765625 C 9.4233125,-0.89574219 9.2797578,-1.3586328 9.2797578,-1.8742578 c 0,-0.5625 0.1669922,-1.0488281 0.5039063,-1.4648438 0.3339839,-0.4130859 0.7734379,-0.6210937 1.3124999,-0.6210937 z m -0.246094,0.3164062 c -0.322265,0 -0.568359,0.140625 -0.738281,0.421875 -0.08789,0.1494141 -0.149414,0.3398438 -0.1874999,0.5742188 h 1.7812499 c -0.03223,-0.28125 -0.08789,-0.4921875 -0.164062,-0.6328125 -0.140625,-0.2402344 -0.372071,-0.3632813 -0.691407,-0.3632813 z m 0.1875,-0.3164062 z m 4.385742,1.6289062 c -0.322265,0.1025391 -0.585937,0.2197266 -0.796875,0.3515625 -0.407226,0.2519532 -0.609375,0.5361328 -0.609375,0.8554688 0,0.25195311 0.08496,0.43945311 0.257813,0.56249999 0.108398,0.0791016 0.228516,0.1171875 0.363281,0.1171875 0.1875,0 0.363281,-0.0498047 0.527344,-0.15234375 0.169922,-0.10839844 0.257812,-0.24023438 0.257812,-0.3984375 z m -2.15625,1.48828129 c 0,-0.40429689 0.202149,-0.74414059 0.609375,-1.01953129 0.257813,-0.1640625 0.773438,-0.3896484 1.546875,-0.6796875 v -0.3632812 c 0,-0.2871094 -0.0293,-0.4863281 -0.08203,-0.5976563 -0.09375,-0.1875 -0.292969,-0.28125 -0.597656,-0.28125 -0.140625,0 -0.27832,0.035156 -0.410156,0.1054688 -0.125977,0.079102 -0.1875,0.1845703 -0.1875,0.3164062 0,0.032227 0.0029,0.09082 0.01172,0.1757813 0.01465,0.079102 0.02344,0.1289062 0.02344,0.1523437 0,0.1582032 -0.05273,0.2666016 -0.152344,0.328125 -0.05566,0.032227 -0.125976,0.046875 -0.210937,0.046875 -0.125977,0 -0.222657,-0.038086 -0.292969,-0.1171875 -0.06445,-0.084961 -0.09375,-0.1787109 -0.09375,-0.28125 0,-0.1933593 0.120117,-0.3984375 0.363281,-0.609375 0.240235,-0.2167968 0.597656,-0.328125 1.066406,-0.328125 0.544922,0 0.916993,0.1757813 1.113282,0.5273438 0.09961,0.196289 0.152343,0.4804687 0.152343,0.8554687 v 1.68750004 c 0,0.1640625 0.01172,0.27832031 0.03516,0.33984375 0.03809,0.11132812 0.111328,0.1640625 0.222656,0.1640625 0.07031,0 0.123047,-0.005859 0.164062,-0.0234375 0.03809,-0.0234375 0.111329,-0.0732422 0.222657,-0.15234375 v 0.22265625 c -0.09375,0.11132812 -0.19336,0.19921875 -0.292969,0.26953125 -0.158203,0.10253906 -0.316406,0.15234375 -0.480469,0.15234375 -0.196289,0 -0.336914,-0.05859375 -0.421875,-0.17578125 -0.08789,-0.12304688 -0.134765,-0.27246094 -0.140625,-0.4453125 -0.210937,0.18164062 -0.392578,0.31640625 -0.539062,0.41015625 -0.257813,0.14941406 -0.503907,0.22265625 -0.738282,0.22265625 -0.243164,0 -0.454101,-0.08203125 -0.632812,-0.24609375 -0.172852,-0.16992188 -0.257813,-0.38964844 -0.257813,-0.65625 z m 1.605469,-3.15234379 z m 0,0"
         style="fill:#000000;fill-opacity:1;fill-rule:nonzero;stroke:none"
         aria-label="Area "
         transform="matrix(1.3333333,0,0,1.3333333,365.52933,246.34667)"
         clip-path="url(#clipPath32)" />
      <path
         id="path33"
         d="M 4.3819062,-1.1711328 H 0.37409375 V -1.7570703 H 4.3819062 Z m 0,-1.1484375 H 0.37409375 V -2.9055078 H 4.3819062 Z m 4.397461,-2.1914063 v -0.2460937 c 0,-0.084961 -0.017578,-0.1464844 -0.046875,-0.1875 -0.023437,-0.046875 -0.070312,-0.070312 -0.140625,-0.070312 -0.032227,0 -0.082031,0.011719 -0.1523438,0.035156 -0.064453,0.017578 -0.1347656,0.043945 -0.2109375,0.082031 l -0.5625,0.2695312 -0.082031,-0.1640625 c 0.2578125,-0.1318359 0.5390625,-0.28125 0.84375,-0.4453125 0.3046875,-0.1640625 0.6708984,-0.3691406 1.1015625,-0.6210937 v 4.8046875 c 0,0.41601561 0.046875,0.66503905 0.140625,0.74999999 0.099609,0.0878906 0.3574216,0.12890625 0.7734376,0.12890625 h 0.128906 V 7.421875e-4 H 7.6778047 V -0.17503906 c 0.5068359,0 0.8144531,-0.046875 0.9257812,-0.140625 0.1171875,-0.0996094 0.1757813,-0.34570313 0.1757813,-0.73828124 z m 0,0"
         style="fill:#000000;fill-opacity:1;fill-rule:nonzero;stroke:none"
         aria-label="= 1"
         transform="matrix(1.3333333,0,0,1.3333333,394.32933,246.34667)"
         clip-path="url(#clipPath34)" />
      <path
         id="path35"
         d="M 3.8569062,-2.2141016 2.8608125,-4.5930078 1.8647187,-2.2141016 Z M 0.13034375,7.421875e-4 V -0.15160156 c 0.21679687,-0.0292969 0.38085937,-0.1171875 0.4921875,-0.2578125 C 0.73971875,-0.55003906 0.93014844,-0.9396875 1.19675,-1.5812891 L 3.0014375,-5.8117578 H 3.1655 l 2.15625,4.89843749 c 0.140625,0.32226562 0.2519531,0.52148437 0.3398437,0.59765625 0.084961,0.0791016 0.2285157,0.13476562 0.4335938,0.1640625 V 7.421875e-4 H 3.9037812 V -0.15160156 c 0.2490235,-0.0234375 0.4101563,-0.0498047 0.4804688,-0.0820313 0.076172,-0.0292969 0.1171875,-0.11132813 0.1171875,-0.24609375 0,-0.0380859 -0.017578,-0.10839844 -0.046875,-0.2109375 C 4.4223359,-0.7990625 4.38425,-0.91625 4.337375,-1.0422266 L 3.9740937,-1.8625391 H 1.712375 c -0.2197266,0.5625 -0.3515625,0.90820316 -0.3984375,1.03125004 -0.041016,0.12597656 -0.058594,0.22265625 -0.058594,0.29296875 0,0.14941406 0.058594,0.25195312 0.1757813,0.3046875 0.070312,0.0410156 0.2050781,0.0673828 0.4101562,0.0820313 V 7.421875e-4 Z M 3.0834687,-5.8117578 Z m 3.1904297,5.67187499 c 0.2578125,-0.0234375 0.4277344,-0.0644531 0.515625,-0.12890625 0.084961,-0.0703125 0.1289063,-0.21679688 0.1289063,-0.4453125 V -2.6125391 c 0,-0.28125 -0.029297,-0.4804687 -0.082031,-0.5976562 -0.046875,-0.1230469 -0.140625,-0.1875 -0.28125,-0.1875 -0.032227,0 -0.070312,0.00586 -0.1171875,0.011719 -0.041016,0.00879 -0.087891,0.020508 -0.140625,0.035156 v -0.140625 c 0.1640625,-0.061523 0.328125,-0.1201172 0.4921875,-0.1757813 0.1699219,-0.061523 0.2871094,-0.1054687 0.3515625,-0.1289062 0.140625,-0.052734 0.2841797,-0.1113281 0.4335938,-0.1757813 0.023437,0 0.035156,0.00879 0.035156,0.023437 0.00586,0.00879 0.011719,0.035156 0.011719,0.082031 v 0.6914062 c 0.1787109,-0.2490234 0.3515625,-0.4453125 0.515625,-0.5859375 0.1699219,-0.140625 0.3457031,-0.2109375 0.5273437,-0.2109375 0.140625,0 0.2519532,0.043945 0.3398438,0.1289063 0.09375,0.087891 0.140625,0.196289 0.140625,0.328125 0,0.1113281 -0.035156,0.2050781 -0.1054688,0.28125 -0.070312,0.079102 -0.1582031,0.1171875 -0.2578125,0.1171875 -0.1113281,0 -0.2197265,-0.046875 -0.328125,-0.140625 -0.102539,-0.099609 -0.1845703,-0.1523438 -0.2460937,-0.1523438 -0.1025391,0 -0.2285156,0.082031 -0.375,0.2460938 -0.140625,0.1582031 -0.2109375,0.3164062 -0.2109375,0.4804687 v 1.91015629 c 0,0.24316406 0.052734,0.41015625 0.1640625,0.50390625 0.1171875,0.09375 0.3076172,0.13769531 0.5742187,0.12890625 V 7.421875e-4 H 6.2738984 Z M 11.096164,-3.9601953 c 0.398438,0 0.744141,0.140625 1.042969,0.421875 0.295898,0.2753906 0.445312,0.6621094 0.445312,1.1601562 H 9.9008516 c 0.029297,0.65625 0.1787104,1.1337891 0.4453124,1.42968754 0.263672,0.29882812 0.580078,0.4453125 0.949219,0.4453125 0.295898,0 0.544922,-0.0761719 0.75,-0.234375 0.202148,-0.15527344 0.389648,-0.37500004 0.5625,-0.65625004 l 0.140625,0.046875 c -0.117188,0.3603516 -0.336914,0.69140629 -0.65625,0.99609379 -0.313477,0.3046875 -0.697266,0.45703125 -1.148438,0.45703125 -0.533203,0 -0.943359,-0.19921875 -1.2304684,-0.59765625 C 9.4233125,-0.89574219 9.2797578,-1.3586328 9.2797578,-1.8742578 c 0,-0.5625 0.1669922,-1.0488281 0.5039063,-1.4648438 0.3339839,-0.4130859 0.7734379,-0.6210937 1.3124999,-0.6210937 z m -0.246094,0.3164062 c -0.322265,0 -0.568359,0.140625 -0.738281,0.421875 -0.08789,0.1494141 -0.149414,0.3398438 -0.1874999,0.5742188 h 1.7812499 c -0.03223,-0.28125 -0.08789,-0.4921875 -0.164062,-0.6328125 -0.140625,-0.2402344 -0.372071,-0.3632813 -0.691407,-0.3632813 z m 0.1875,-0.3164062 z m 4.385742,1.6289062 c -0.322265,0.1025391 -0.585937,0.2197266 -0.796875,0.3515625 -0.407226,0.2519532 -0.609375,0.5361328 -0.609375,0.8554688 0,0.25195311 0.08496,0.43945311 0.257813,0.56249999 0.108398,0.0791016 0.228516,0.1171875 0.363281,0.1171875 0.1875,0 0.363281,-0.0498047 0.527344,-0.15234375 0.169922,-0.10839844 0.257812,-0.24023438 0.257812,-0.3984375 z m -2.15625,1.48828129 c 0,-0.40429689 0.202149,-0.74414059 0.609375,-1.01953129 0.257813,-0.1640625 0.773438,-0.3896484 1.546875,-0.6796875 v -0.3632812 c 0,-0.2871094 -0.0293,-0.4863281 -0.08203,-0.5976563 -0.09375,-0.1875 -0.292969,-0.28125 -0.597656,-0.28125 -0.140625,0 -0.27832,0.035156 -0.410156,0.1054688 -0.125977,0.079102 -0.1875,0.1845703 -0.1875,0.3164062 0,0.032227 0.0029,0.09082 0.01172,0.1757813 0.01465,0.079102 0.02344,0.1289062 0.02344,0.1523437 0,0.1582032 -0.05273,0.2666016 -0.152344,0.328125 -0.05566,0.032227 -0.125976,0.046875 -0.210937,0.046875 -0.125977,0 -0.222657,-0.038086 -0.292969,-0.1171875 -0.06445,-0.084961 -0.09375,-0.1787109 -0.09375,-0.28125 0,-0.1933593 0.120117,-0.3984375 0.363281,-0.609375 0.240235,-0.2167968 0.597656,-0.328125 1.066406,-0.328125 0.544922,0 0.916993,0.1757813 1.113282,0.5273438 0.09961,0.196289 0.152343,0.4804687 0.152343,0.8554687 v 1.68750004 c 0,0.1640625 0.01172,0.27832031 0.03516,0.33984375 0.03809,0.11132812 0.111328,0.1640625 0.222656,0.1640625 0.07031,0 0.123047,-0.005859 0.164062,-0.0234375 0.03809,-0.0234375 0.111329,-0.0732422 0.222657,-0.15234375 v 0.22265625 c -0.09375,0.11132812 -0.19336,0.19921875 -0.292969,0.26953125 -0.158203,0.10253906 -0.316406,0.15234375 -0.480469,0.15234375 -0.196289,0 -0.336914,-0.05859375 -0.421875,-0.17578125 -0.08789,-0.12304688 -0.134765,-0.27246094 -0.140625,-0.4453125 -0.210937,0.18164062 -0.392578,0.31640625 -0.539062,0.41015625 -0.257813,0.14941406 -0.503907,0.22265625 -0.738282,0.22265625 -0.243164,0 -0.454101,-0.08203125 -0.632812,-0.24609375 -0.172852,-0.16992188 -0.257813,-0.38964844 -0.257813,-0.65625 z m 1.605469,-3.15234379 z m 0,0"
         style="fill:#000000;fill-opacity:1;fill-rule:nonzero;stroke:none"
         aria-label="Area "
         transform="matrix(1.3333333,0,0,1.3333333,473.52933,246.34667)"
         clip-path="url(#clipPath36)" />
      <path
         id="path37"
         d="M 4.3819062,-1.1711328 H 0.37409375 V -1.7570703 H 4.3819062 Z m 0,-1.1484375 H 0.37409375 V -2.9055078 H 4.3819062 Z m 4.397461,-2.1914063 v -0.2460937 c 0,-0.084961 -0.017578,-0.1464844 -0.046875,-0.1875 -0.023437,-0.046875 -0.070312,-0.070312 -0.140625,-0.070312 -0.032227,0 -0.082031,0.011719 -0.1523438,0.035156 -0.064453,0.017578 -0.1347656,0.043945 -0.2109375,0.082031 l -0.5625,0.2695312 -0.082031,-0.1640625 c 0.2578125,-0.1318359 0.5390625,-0.28125 0.84375,-0.4453125 0.3046875,-0.1640625 0.6708984,-0.3691406 1.1015625,-0.6210937 v 4.8046875 c 0,0.41601561 0.046875,0.66503905 0.140625,0.74999999 0.099609,0.0878906 0.3574216,0.12890625 0.7734376,0.12890625 h 0.128906 V 7.421875e-4 H 7.6778047 V -0.17503906 c 0.5068359,0 0.8144531,-0.046875 0.9257812,-0.140625 0.1171875,-0.0996094 0.1757813,-0.34570313 0.1757813,-0.73828124 z m 0,0"
         style="fill:#000000;fill-opacity:1;fill-rule:nonzero;stroke:none"
         aria-label="= 1"
         transform="matrix(1.3333333,0,0,1.3333333,502.32933,246.34667)"
         clip-path="url(#clipPath38)" />
      <path
         id="path39"
         d="M 3.8569062,-2.2141016 2.8608125,-4.5930078 1.8647187,-2.2141016 Z M 0.13034375,7.421875e-4 V -0.15160156 c 0.21679687,-0.0292969 0.38085937,-0.1171875 0.4921875,-0.2578125 C 0.73971875,-0.55003906 0.93014844,-0.9396875 1.19675,-1.5812891 L 3.0014375,-5.8117578 H 3.1655 l 2.15625,4.89843749 c 0.140625,0.32226562 0.2519531,0.52148437 0.3398437,0.59765625 0.084961,0.0791016 0.2285157,0.13476562 0.4335938,0.1640625 V 7.421875e-4 H 3.9037812 V -0.15160156 c 0.2490235,-0.0234375 0.4101563,-0.0498047 0.4804688,-0.0820313 0.076172,-0.0292969 0.1171875,-0.11132813 0.1171875,-0.24609375 0,-0.0380859 -0.017578,-0.10839844 -0.046875,-0.2109375 C 4.4223359,-0.7990625 4.38425,-0.91625 4.337375,-1.0422266 L 3.9740937,-1.8625391 H 1.712375 c -0.2197266,0.5625 -0.3515625,0.90820316 -0.3984375,1.03125004 -0.041016,0.12597656 -0.058594,0.22265625 -0.058594,0.29296875 0,0.14941406 0.058594,0.25195312 0.1757813,0.3046875 0.070312,0.0410156 0.2050781,0.0673828 0.4101562,0.0820313 V 7.421875e-4 Z M 3.0834687,-5.8117578 Z m 3.1904297,5.67187499 c 0.2578125,-0.0234375 0.4277344,-0.0644531 0.515625,-0.12890625 0.084961,-0.0703125 0.1289063,-0.21679688 0.1289063,-0.4453125 V -2.6125391 c 0,-0.28125 -0.029297,-0.4804687 -0.082031,-0.5976562 -0.046875,-0.1230469 -0.140625,-0.1875 -0.28125,-0.1875 -0.032227,0 -0.070312,0.00586 -0.1171875,0.011719 -0.041016,0.00879 -0.087891,0.020508 -0.140625,0.035156 v -0.140625 c 0.1640625,-0.061523 0.328125,-0.1201172 0.4921875,-0.1757813 0.1699219,-0.061523 0.2871094,-0.1054687 0.3515625,-0.1289062 0.140625,-0.052734 0.2841797,-0.1113281 0.4335938,-0.1757813 0.023437,0 0.035156,0.00879 0.035156,0.023437 0.00586,0.00879 0.011719,0.035156 0.011719,0.082031 v 0.6914062 c 0.1787109,-0.2490234 0.3515625,-0.4453125 0.515625,-0.5859375 0.1699219,-0.140625 0.3457031,-0.2109375 0.5273437,-0.2109375 0.140625,0 0.2519532,0.043945 0.3398438,0.1289063 0.09375,0.087891 0.140625,0.196289 0.140625,0.328125 0,0.1113281 -0.035156,0.2050781 -0.1054688,0.28125 -0.070312,0.079102 -0.1582031,0.1171875 -0.2578125,0.1171875 -0.1113281,0 -0.2197265,-0.046875 -0.328125,-0.140625 -0.102539,-0.099609 -0.1845703,-0.1523438 -0.2460937,-0.1523438 -0.1025391,0 -0.2285156,0.082031 -0.375,0.2460938 -0.140625,0.1582031 -0.2109375,0.3164062 -0.2109375,0.4804687 v 1.91015629 c 0,0.24316406 0.052734,0.41015625 0.1640625,0.50390625 0.1171875,0.09375 0.3076172,0.13769531 0.5742187,0.12890625 V 7.421875e-4 H 6.2738984 Z M 11.096164,-3.9601953 c 0.398438,0 0.744141,0.140625 1.042969,0.421875 0.295898,0.2753906 0.445312,0.6621094 0.445312,1.1601562 H 9.9008516 c 0.029297,0.65625 0.1787104,1.1337891 0.4453124,1.42968754 0.263672,0.29882812 0.580078,0.4453125 0.949219,0.4453125 0.295898,0 0.544922,-0.0761719 0.75,-0.234375 0.202148,-0.15527344 0.389648,-0.37500004 0.5625,-0.65625004 l 0.140625,0.046875 c -0.117188,0.3603516 -0.336914,0.69140629 -0.65625,0.99609379 -0.313477,0.3046875 -0.697266,0.45703125 -1.148438,0.45703125 -0.533203,0 -0.943359,-0.19921875 -1.2304684,-0.59765625 C 9.4233125,-0.89574219 9.2797578,-1.3586328 9.2797578,-1.8742578 c 0,-0.5625 0.1669922,-1.0488281 0.5039063,-1.4648438 0.3339839,-0.4130859 0.7734379,-0.6210937 1.3124999,-0.6210937 z m -0.246094,0.3164062 c -0.322265,0 -0.568359,0.140625 -0.738281,0.421875 -0.08789,0.1494141 -0.149414,0.3398438 -0.1874999,0.5742188 h 1.7812499 c -0.03223,-0.28125 -0.08789,-0.4921875 -0.164062,-0.6328125 -0.140625,-0.2402344 -0.372071,-0.3632813 -0.691407,-0.3632813 z m 0.1875,-0.3164062 z m 4.385742,1.6289062 c -0.322265,0.1025391 -0.585937,0.2197266 -0.796875,0.3515625 -0.407226,0.2519532 -0.609375,0.5361328 -0.609375,0.8554688 0,0.25195311 0.08496,0.43945311 0.257813,0.56249999 0.108398,0.0791016 0.228516,0.1171875 0.363281,0.1171875 0.1875,0 0.363281,-0.0498047 0.527344,-0.15234375 0.169922,-0.10839844 0.257812,-0.24023438 0.257812,-0.3984375 z m -2.15625,1.48828129 c 0,-0.40429689 0.202149,-0.74414059 0.609375,-1.01953129 0.257813,-0.1640625 0.773438,-0.3896484 1.546875,-0.6796875 v -0.3632812 c 0,-0.2871094 -0.0293,-0.4863281 -0.08203,-0.5976563 -0.09375,-0.1875 -0.292969,-0.28125 -0.597656,-0.28125 -0.140625,0 -0.27832,0.035156 -0.410156,0.1054688 -0.125977,0.079102 -0.1875,0.1845703 -0.1875,0.3164062 0,0.032227 0.0029,0.09082 0.01172,0.1757813 0.01465,0.079102 0.02344,0.1289062 0.02344,0.1523437 0,0.1582032 -0.05273,0.2666016 -0.152344,0.328125 -0.05566,0.032227 -0.125976,0.046875 -0.210937,0.046875 -0.125977,0 -0.222657,-0.038086 -0.292969,-0.1171875 -0.06445,-0.084961 -0.09375,-0.1787109 -0.09375,-0.28125 0,-0.1933593 0.120117,-0.3984375 0.363281,-0.609375 0.240235,-0.2167968 0.597656,-0.328125 1.066406,-0.328125 0.544922,0 0.916993,0.1757813 1.113282,0.5273438 0.09961,0.196289 0.152343,0.4804687 0.152343,0.8554687 v 1.68750004 c 0,0.1640625 0.01172,0.27832031 0.03516,0.33984375 0.03809,0.11132812 0.111328,0.1640625 0.222656,0.1640625 0.07031,0 0.123047,-0.005859 0.164062,-0.0234375 0.03809,-0.0234375 0.111329,-0.0732422 0.222657,-0.15234375 v 0.22265625 c -0.09375,0.11132812 -0.19336,0.19921875 -0.292969,0.26953125 -0.158203,0.10253906 -0.316406,0.15234375 -0.480469,0.15234375 -0.196289,0 -0.336914,-0.05859375 -0.421875,-0.17578125 -0.08789,-0.12304688 -0.134765,-0.27246094 -0.140625,-0.4453125 -0.210937,0.18164062 -0.392578,0.31640625 -0.539062,0.41015625 -0.257813,0.14941406 -0.503907,0.22265625 -0.738282,0.22265625 -0.243164,0 -0.454101,-0.08203125 -0.632812,-0.24609375 -0.172852,-0.16992188 -0.257813,-0.38964844 -0.257813,-0.65625 z m 1.605469,-3.15234379 z m 0,0"
         style="fill:#000000;fill-opacity:1;fill-rule:nonzero;stroke:none"
         aria-label="Area "
         transform="matrix(1.3333333,0,0,1.3333333,581.52933,246.34667)"
         clip-path="url(#clipPath40)" />
      <path
         id="path41"
         d="M 4.3819062,-1.1711328 H 0.37409375 V -1.7570703 H 4.3819062 Z m 0,-1.1484375 H 0.37409375 V -2.9055078 H 4.3819062 Z m 4.397461,-2.1914063 v -0.2460937 c 0,-0.084961 -0.017578,-0.1464844 -0.046875,-0.1875 -0.023437,-0.046875 -0.070312,-0.070312 -0.140625,-0.070312 -0.032227,0 -0.082031,0.011719 -0.1523438,0.035156 -0.064453,0.017578 -0.1347656,0.043945 -0.2109375,0.082031 l -0.5625,0.2695312 -0.082031,-0.1640625 c 0.2578125,-0.1318359 0.5390625,-0.28125 0.84375,-0.4453125 0.3046875,-0.1640625 0.6708984,-0.3691406 1.1015625,-0.6210937 v 4.8046875 c 0,0.41601561 0.046875,0.66503905 0.140625,0.74999999 0.099609,0.0878906 0.3574216,0.12890625 0.7734376,0.12890625 h 0.128906 V 7.421875e-4 H 7.6778047 V -0.17503906 c 0.5068359,0 0.8144531,-0.046875 0.9257812,-0.140625 0.1171875,-0.0996094 0.1757813,-0.34570313 0.1757813,-0.73828124 z m 0,0"
         style="fill:#000000;fill-opacity:1;fill-rule:nonzero;stroke:none"
         aria-label="= 1"
         transform="matrix(1.3333333,0,0,1.3333333,610.32933,246.34667)"
         clip-path="url(#clipPath42)" />
      <path
         id="path43"
         d="M 3.8551484,-2.2135156 2.8590547,-4.5924219 1.8629609,-2.2135156 Z M 0.12858594,0.00132812 v -0.15234375 c 0.21679687,-0.0292969 0.38085937,-0.1171875 0.4921875,-0.2578125 0.1171875,-0.140625 0.30761718,-0.53027343 0.57421876,-1.17187497 l 1.8046875,-4.2304688 h 0.1640625 l 2.15625,4.89843752 c 0.140625,0.32226563 0.2519531,0.52148438 0.3398437,0.59765625 0.084961,0.0791016 0.2285157,0.13476563 0.4335938,0.1640625 V 0.00132812 H 3.9020234 v -0.15234375 c 0.2490235,-0.0234375 0.4101563,-0.0498047 0.4804688,-0.0820313 0.076172,-0.0292969 0.1171875,-0.11132812 0.1171875,-0.24609375 0,-0.0380859 -0.017578,-0.10839843 -0.046875,-0.2109375 C 4.4205781,-0.79847656 4.3824922,-0.91566406 4.3356172,-1.0416406 L 3.9723359,-1.8619531 H 1.7106172 c -0.2197266,0.5625 -0.3515625,0.9082031 -0.3984375,1.03124997 -0.041016,0.12597657 -0.058594,0.22265625 -0.058594,0.29296875 0,0.14941407 0.058594,0.25195313 0.1757813,0.3046875 0.070312,0.0410156 0.2050781,0.0673828 0.4101562,0.0820313 v 0.1523437 z M 3.0817109,-5.8111719 Z m 3.1904297,5.67187502 C 6.5299531,-0.16273438 6.699875,-0.20375 6.7877656,-0.26820313 6.8727266,-0.33851563 6.9166719,-0.485 6.9166719,-0.71351563 V -2.6119531 c 0,-0.28125 -0.029297,-0.4804688 -0.082031,-0.5976563 -0.046875,-0.1230469 -0.140625,-0.1875 -0.28125,-0.1875 -0.032227,0 -0.070312,0.00586 -0.1171875,0.011719 -0.041016,0.00879 -0.087891,0.020508 -0.140625,0.035156 v -0.140625 c 0.1640625,-0.061523 0.328125,-0.1201172 0.4921875,-0.1757812 0.1699219,-0.061523 0.2871094,-0.1054688 0.3515625,-0.1289063 0.140625,-0.052734 0.2841797,-0.1113281 0.4335938,-0.1757812 0.023437,0 0.035156,0.00879 0.035156,0.023437 0.00586,0.00879 0.011719,0.035156 0.011719,0.082031 v 0.6914063 c 0.1787109,-0.2490235 0.3515625,-0.4453125 0.515625,-0.5859375 0.1699218,-0.140625 0.3457031,-0.2109375 0.5273437,-0.2109375 0.140625,0 0.2519531,0.043945 0.3398438,0.1289062 0.09375,0.087891 0.140625,0.1962891 0.140625,0.328125 0,0.1113281 -0.035156,0.2050781 -0.1054688,0.28125 -0.070312,0.079102 -0.1582031,0.1171875 -0.2578125,0.1171875 -0.1113281,0 -0.2197265,-0.046875 -0.328125,-0.140625 -0.102539,-0.099609 -0.1845703,-0.1523437 -0.2460937,-0.1523437 -0.1025391,0 -0.2285157,0.082031 -0.375,0.2460937 -0.140625,0.1582031 -0.2109375,0.3164063 -0.2109375,0.4804688 v 1.91015622 c 0,0.24316407 0.052734,0.41015625 0.1640625,0.50390625 0.1171875,0.09375 0.3076172,0.13769532 0.5742187,0.12890625 v 0.140625 H 6.2721406 Z M 11.094406,-3.9596094 c 0.398438,0 0.744141,0.140625 1.042969,0.421875 0.295898,0.2753906 0.445312,0.6621094 0.445312,1.1601563 H 9.8990937 c 0.029297,0.65625 0.1787113,1.133789 0.4453123,1.42968747 0.263672,0.29882813 0.580078,0.4453125 0.949219,0.4453125 0.295898,0 0.544922,-0.0761719 0.75,-0.234375 0.202148,-0.15527343 0.389648,-0.37499997 0.5625,-0.65624997 l 0.140625,0.046875 c -0.117188,0.36035154 -0.336914,0.69140622 -0.65625,0.99609372 -0.313477,0.3046875 -0.697266,0.45703125 -1.148438,0.45703125 -0.533203,0 -0.9433589,-0.19921875 -1.2304683,-0.59765625 C 9.4215547,-0.89515625 9.278,-1.3580469 9.278,-1.8736719 c 0,-0.5625 0.1669922,-1.0488281 0.5039062,-1.4648437 0.3339848,-0.413086 0.7734378,-0.6210938 1.3124998,-0.6210938 z m -0.246094,0.3164063 c -0.322265,0 -0.568359,0.140625 -0.738281,0.421875 -0.08789,0.149414 -0.1494138,0.3398437 -0.1874998,0.5742187 h 1.7812498 c -0.03223,-0.28125 -0.08789,-0.4921875 -0.164062,-0.6328125 -0.140625,-0.2402344 -0.372071,-0.3632812 -0.691407,-0.3632812 z m 0.1875,-0.3164063 z m 4.388672,1.6289063 c -0.322265,0.102539 -0.585937,0.2197265 -0.796875,0.3515625 -0.407226,0.2519531 -0.609375,0.5361328 -0.609375,0.8554687 0,0.25195315 0.08496,0.43945315 0.257813,0.56250002 0.108398,0.0791016 0.228515,0.1171875 0.363281,0.1171875 0.1875,0 0.363281,-0.0498047 0.527344,-0.15234375 0.169922,-0.10839843 0.257812,-0.24023437 0.257812,-0.3984375 z m -2.15625,1.48828122 c 0,-0.40429692 0.202149,-0.74414062 0.609375,-1.01953122 0.257813,-0.1640625 0.773438,-0.3896485 1.546875,-0.6796875 v -0.3632813 c 0,-0.2871094 -0.0293,-0.4863281 -0.08203,-0.5976562 -0.09375,-0.1875 -0.292969,-0.28125 -0.597656,-0.28125 -0.140625,0 -0.27832,0.035156 -0.410156,0.1054687 -0.125977,0.079102 -0.1875,0.1845703 -0.1875,0.3164063 0,0.032227 0.0029,0.09082 0.01172,0.1757812 0.01465,0.079102 0.02344,0.1289063 0.02344,0.1523438 0,0.1582031 -0.05274,0.2666015 -0.152344,0.328125 -0.05566,0.032227 -0.125976,0.046875 -0.210937,0.046875 -0.125977,0 -0.222657,-0.038086 -0.292969,-0.1171875 -0.06445,-0.084961 -0.09375,-0.178711 -0.09375,-0.28125 0,-0.1933594 0.120117,-0.3984375 0.363281,-0.609375 0.240234,-0.2167969 0.597656,-0.328125 1.066406,-0.328125 0.544922,0 0.916993,0.1757812 1.113282,0.5273437 0.09961,0.1962891 0.152343,0.4804688 0.152343,0.8554688 v 1.68749997 c 0,0.1640625 0.01172,0.27832032 0.03516,0.33984375 0.03809,0.11132813 0.111328,0.1640625 0.222656,0.1640625 0.07031,0 0.123047,-0.005859 0.164062,-0.0234375 0.03809,-0.0234375 0.111328,-0.0732422 0.222657,-0.15234375 v 0.22265625 c -0.09375,0.11132813 -0.19336,0.19921875 -0.292969,0.26953125 -0.158203,0.10253907 -0.316406,0.15234375 -0.480469,0.15234375 -0.196289,0 -0.336914,-0.05859375 -0.421875,-0.17578125 -0.08789,-0.12304687 -0.134766,-0.27246093 -0.140625,-0.4453125 -0.210937,0.18164063 -0.392578,0.31640625 -0.539062,0.41015625 -0.257813,0.14941407 -0.503907,0.22265625 -0.738282,0.22265625 -0.243164,0 -0.454101,-0.08203125 -0.632812,-0.24609375 -0.172852,-0.16992187 -0.257813,-0.38964843 -0.257813,-0.65625 z m 1.605469,-3.15234372 z m 0,0"
         style="fill:#000000;fill-opacity:1;fill-rule:nonzero;stroke:none"
         aria-label="Area "
         transform="matrix(1.3333333,0,0,1.3333333,243.12933,239.14667)"
         clip-path="url(#clipPath44)" />
      <path
         id="path45"
         d="M 4.3830781,-1.1705469 H 0.37526562 V -1.7564844 H 4.3830781 Z m 0,-1.1484375 H 0.37526562 V -2.9049219 H 4.3830781 Z m 4.3945313,-2.1914062 v -0.2460938 c 0,-0.084961 -0.017578,-0.1464844 -0.046875,-0.1875 -0.023437,-0.046875 -0.070312,-0.070312 -0.140625,-0.070312 -0.032227,0 -0.082031,0.011719 -0.1523438,0.035156 -0.064453,0.017578 -0.1347656,0.043945 -0.2109375,0.082031 l -0.5625,0.2695313 -0.082031,-0.1640625 c 0.2578125,-0.131836 0.5390625,-0.28125 0.84375,-0.4453125 0.3046875,-0.1640625 0.6708984,-0.3691407 1.1015625,-0.6210938 v 4.8046875 c 0,0.41601565 0.046875,0.66503909 0.140625,0.75000002 0.099609,0.0878906 0.3574214,0.12890625 0.7734374,0.12890625 h 0.128906 V 0.00132812 H 7.6760469 v -0.17578125 c 0.5068359,0 0.8144531,-0.046875 0.9257812,-0.140625 0.1171875,-0.0996094 0.1757813,-0.34570312 0.1757813,-0.73828127 z m 0,0"
         style="fill:#000000;fill-opacity:1;fill-rule:nonzero;stroke:none"
         aria-label="= 1"
         transform="matrix(1.3333333,0,0,1.3333333,271.92933,239.14667)"
         clip-path="url(#clipPath46)" />
      <path
         id="path47"
         d="m 203.947,639.64 h 21.6 v 2.7 l 5.4,-5.4 -5.4,-5.4 v 2.7 h -21.6 m 89.1,5.4 h 21.6 v 2.7 l 5.4,-5.4 -5.4,-5.4 v 2.7 h -21.6 m 89.1,5.4 h 21.6 v 2.7 l 5.4,-5.4 -5.4,-5.4 v 2.7 h -21.6"
         style="fill:none;stroke:#000000;stroke-width:0.54;stroke-linecap:butt;stroke-linejoin:miter;stroke-miterlimit:10;stroke-dasharray:none;stroke-opacity:1"
         transform="matrix(1.3333333,0,0,-1.3333333,0,1056)"
         clip-path="url(#clipPath48)" />
      <path
         id="path49"
         d="m 147.247,588.34 v 21.6 h 54 v -21.6 m 48.6,0 v 43.2 h 21.6 v -43.2 m 70.2,0 v 64.8 h 10.8 v -64.8"
         style="fill:none;stroke:#000000;stroke-width:1.08;stroke-linecap:butt;stroke-linejoin:miter;stroke-miterlimit:10;stroke-dasharray:none;stroke-opacity:1"
         transform="matrix(1.3333333,0,0,-1.3333333,0,1056)"
         clip-path="url(#clipPath50)" />
      <path
         id="path51"
         d="m 431.287,622.9 2.16,8.64 2.16,-8.64"
         style="fill:none;stroke:#000000;stroke-width:1.08;stroke-linecap:butt;stroke-linejoin:bevel;stroke-miterlimit:10;stroke-dasharray:none;stroke-opacity:1"
         transform="matrix(1.3333333,0,0,-1.3333333,0,1056)"
         clip-path="url(#clipPath52)" />
      <path
         id="path53"
         d="m 433.447,631.54 v -43.2"
         style="fill:none;stroke:#000000;stroke-width:1.08;stroke-linecap:butt;stroke-linejoin:miter;stroke-miterlimit:10;stroke-dasharray:none;stroke-opacity:1"
         transform="matrix(1.3333333,0,0,-1.3333333,0,1056)"
         clip-path="url(#clipPath54)" />
      <path
         id="path57"
         d="m 174.247,674.74 v -86.4 m -32.4,0 h 70.2"
         style="fill:none;stroke:#000000;stroke-width:0.54;stroke-linecap:butt;stroke-linejoin:miter;stroke-miterlimit:10;stroke-dasharray:none;stroke-opacity:1"
         transform="matrix(1.3333333,0,0,-1.3333333,0,1056)"
         clip-path="url(#clipPath58)" />
      <path
         id="path59"
         d="m 207.727,589.42 4.32,-1.08 -4.32,-1.08 m 51.84,83.16 1.08,4.32 1.08,-4.32"
         style="fill:none;stroke:#000000;stroke-width:0.54;stroke-linecap:butt;stroke-linejoin:bevel;stroke-miterlimit:10;stroke-dasharray:none;stroke-opacity:1"
         transform="matrix(1.3333333,0,0,-1.3333333,0,1056)"
         clip-path="url(#clipPath60)" />
      <path
         id="path61"
         d="m 260.647,674.74 v -86.4 m -32.4,0 h 64.8"
         style="fill:none;stroke:#000000;stroke-width:0.54;stroke-linecap:butt;stroke-linejoin:miter;stroke-miterlimit:10;stroke-dasharray:none;stroke-opacity:1"
         transform="matrix(1.3333333,0,0,-1.3333333,0,1056)"
         clip-path="url(#clipPath62)" />
      <path
         id="path63"
         d="m 288.727,589.42 4.32,-1.08 -4.32,-1.08"
         style="fill:none;stroke:#000000;stroke-width:0.54;stroke-linecap:butt;stroke-linejoin:bevel;stroke-miterlimit:10;stroke-dasharray:none;stroke-opacity:1"
         transform="matrix(1.3333333,0,0,-1.3333333,0,1056)"
         clip-path="url(#clipPath64)" />
      <path
         id="path65"
         d="m 314.647,588.34 h 64.8"
         style="fill:none;stroke:#000000;stroke-width:0.54;stroke-linecap:butt;stroke-linejoin:miter;stroke-miterlimit:10;stroke-dasharray:none;stroke-opacity:1"
         transform="matrix(1.3333333,0,0,-1.3333333,0,1056)"
         clip-path="url(#clipPath66)" />
      <path
         id="path67"
         d="m 375.127,589.42 4.32,-1.08 -4.32,-1.08 m -29.16,83.16 1.08,4.32 1.08,-4.32"
         style="fill:none;stroke:#000000;stroke-width:0.54;stroke-linecap:butt;stroke-linejoin:bevel;stroke-miterlimit:10;stroke-dasharray:none;stroke-opacity:1"
         transform="matrix(1.3333333,0,0,-1.3333333,0,1056)"
         clip-path="url(#clipPath68)" />
      <path
         id="path69"
         d="m 347.047,674.74 v -86.4 m 54,0 h 64.8"
         style="fill:none;stroke:#000000;stroke-width:0.54;stroke-linecap:butt;stroke-linejoin:miter;stroke-miterlimit:10;stroke-dasharray:none;stroke-opacity:1"
         transform="matrix(1.3333333,0,0,-1.3333333,0,1056)"
         clip-path="url(#clipPath70)" />
      <path
         id="path71"
         d="m 461.527,589.42 4.32,-1.08 -4.32,-1.08 m -29.16,83.16 1.08,4.32 1.08,-4.32"
         style="fill:none;stroke:#000000;stroke-width:0.54;stroke-linecap:butt;stroke-linejoin:bevel;stroke-miterlimit:10;stroke-dasharray:none;stroke-opacity:1"
         transform="matrix(1.3333333,0,0,-1.3333333,0,1056)"
         clip-path="url(#clipPath72)" />
      <path
         id="path73"
         d="m 433.447,674.74 v -86.4"
         style="fill:none;stroke:#000000;stroke-width:0.54;stroke-linecap:butt;stroke-linejoin:miter;stroke-miterlimit:10;stroke-dasharray:none;stroke-opacity:1"
         transform="matrix(1.3333333,0,0,-1.3333333,0,1056)"
         clip-path="url(#clipPath74)" />
      <path
         id="path75"
         d="m 0.39811719,-2.1666406 c 0,-0.975586 0.29296875,-1.8339844 0.87890621,-2.578125 0.3574219,-0.4511719 0.7792969,-0.8144532 1.265625,-1.0898438 l 0.082031,0.140625 C 2.1705781,-5.3336328 1.8453828,-4.985 1.6520234,-4.6510156 c -0.336914,0.5947265 -0.5039062,1.3886718 -0.5039062,2.3789062 0,0.7265625 0.061523,1.33007815 0.1875,1.80468752 0.234375,0.83496094 0.6621094,1.45605469 1.2890625,1.86328128 L 2.5192109,1.5364844 C 2.1735078,1.3724219 1.7985078,1.0472266 1.3942109,0.56382812 0.72917188,-0.23304688 0.39811719,-1.14125 0.39811719,-2.1666406 Z M 5.4313203,-5.7877344 c 0.014648,0.00879 0.023437,0.017578 0.023437,0.023437 0,0.00879 0,0.023437 0,0.046875 v 5.08593752 c 0,0.2109375 0.052734,0.34863282 0.1640625,0.41015625 0.1171875,0.0556641 0.3339844,0.0908203 0.65625,0.10546875 v 0.1171875 H 3.8961641 v -0.12890625 c 0.3339843,-0.0146484 0.5537109,-0.0585938 0.65625,-0.12890625 0.1083984,-0.0761719 0.1640625,-0.24609375 0.1640625,-0.50390625 V -4.6627344 c 0,-0.1318359 -0.020508,-0.234375 -0.058594,-0.3046875 -0.032227,-0.070312 -0.102539,-0.1054687 -0.2109375,-0.1054687 -0.070312,0 -0.1640625,0.020508 -0.28125,0.058594 -0.1171875,0.041016 -0.2285156,0.082031 -0.328125,0.1289063 v -0.1171875 l 1.546875,-0.7851563 z m 4.2275391,3.6679688 c 0,0.4160156 -0.055664,0.8085937 -0.1640625,1.18359372 -0.1113281,0.375 -0.2695313,0.7265625 -0.4804688,1.0546875 C 8.7858125,0.4759375 8.4899141,0.80992187 8.1237031,1.1146094 7.8805391,1.3167578 7.6725313,1.4573828 7.5026094,1.5364844 L 7.4205781,1.3958594 C 7.8571016,1.0677344 8.1735078,0.73082031 8.3697969,0.38804687 8.7272188,-0.21253906 8.9088594,-1.0123438 8.9088594,-2.0142969 c 0,-0.8027344 -0.082031,-1.4648437 -0.2460938,-1.9804687 C 8.43425,-4.7125391 8.0211641,-5.2779688 7.4205781,-5.6939844 l 0.1171875,-0.140625 c 0.4453125,0.2519531 0.8583985,0.6269531 1.2421875,1.125 0.5859375,0.7675781 0.8789063,1.6289063 0.8789063,2.5898438 z m 0,0"
         style="fill:#000000;fill-opacity:1;fill-rule:nonzero;stroke:none"
         aria-label="(1)"
         transform="matrix(1.3333333,0,0,1.3333333,585.12933,221.14667)"
         clip-path="url(#clipPath76)" />
      <path
         id="path77"
         d="m 0.3295625,-0.28226563 c 0,-0.0234375 0,-0.046875 0,-0.0703125 0,-0.0292969 0.005859,-0.0615234 0.0234375,-0.09375 L 1.1381562,-3.3994531 H 0.493625 c 0,-0.070312 0.00293,-0.1113282 0.0117188,-0.1289063 0.0146484,-0.023437 0.046875,-0.046875 0.09375,-0.070312 0.28125,-0.1171875 0.4980468,-0.2285156 0.6562499,-0.3398437 0.1552736,-0.1171875 0.3691407,-0.3339844 0.6445313,-0.65625 l 0.070312,-0.082031 c 0.00586,-0.014648 0.014648,-0.023437 0.023437,-0.023437 0.014648,-0.00586 0.029297,-0.011719 0.046875,-0.011719 0.023437,0 0.041016,0.00586 0.058594,0.011719 0.00586,0.023437 0.011719,0.043945 0.011719,0.058594 0,0.017578 0,0.032226 0,0.046875 l -0.2460933,0.914061 H 2.556125 l -0.046875,0.28125 H 1.7944062 l -0.7617187,2.83593747 c -0.017578,0.0556641 -0.011719,0.10546875 0.011719,0.15234375 0.023437,0.046875 0.061523,0.0703125 0.1171875,0.0703125 0.070312,0 0.1699219,-0.0732422 0.3046875,-0.22265625 0.076172,-0.0761719 0.2050782,-0.234375 0.3867188,-0.46874997 l 0.1054687,0.0703125 -0.058594,0.0820313 c -0.2431641,0.36914063 -0.4570313,0.62109375 -0.6445313,0.76171875 -0.1816406,0.140625 -0.35156245,0.2109375 -0.51562495,0.2109375 -0.14941406,0 -0.25488281,-0.04101562 -0.31640625,-0.1171875 -0.0644531,-0.07617187 -0.09375,-0.1640625 -0.09375,-0.25781258 z m 0,0"
         style="fill:#000000;fill-opacity:1;fill-rule:nonzero;stroke:none"
         aria-label="t"
         transform="matrix(1.3333333,0,0,1.3333333,617.52933,267.94667)"
         clip-path="url(#clipPath78)" />
      <path
         id="path79"
         d="m 0.32780469,-0.28226563 c 0,-0.0234375 0,-0.046875 0,-0.0703125 0,-0.0292969 0.005859,-0.0615234 0.0234375,-0.09375 L 1.1363984,-3.3994531 H 0.49186719 c 0,-0.070312 0.00293,-0.1113282 0.0117188,-0.1289063 0.0146484,-0.023437 0.046875,-0.046875 0.09375,-0.070312 0.28125,-0.1171875 0.49804681,-0.2285156 0.65625001,-0.3398437 0.1552735,-0.1171875 0.3691407,-0.3339844 0.6445313,-0.65625 l 0.070312,-0.082031 c 0.00586,-0.014648 0.014648,-0.023437 0.023437,-0.023437 0.014648,-0.00586 0.029297,-0.011719 0.046875,-0.011719 0.023437,0 0.041016,0.00586 0.058594,0.011719 0.00586,0.023437 0.011719,0.043945 0.011719,0.058594 0,0.017578 0,0.032226 0,0.046875 l -0.2460938,0.9140625 h 0.6914063 l -0.046875,0.28125 H 1.7926484 l -0.7617187,2.83593747 c -0.017578,0.0556641 -0.011719,0.10546875 0.011719,0.15234375 0.023437,0.046875 0.061524,0.0703125 0.1171875,0.0703125 0.070312,0 0.1699219,-0.0732422 0.3046875,-0.22265625 0.076172,-0.0761719 0.2050782,-0.234375 0.3867188,-0.46874997 l 0.1054687,0.0703125 -0.058594,0.0820313 c -0.2431641,0.36914063 -0.4570313,0.62109375 -0.6445313,0.76171875 -0.1816406,0.140625 -0.35156246,0.2109375 -0.51562496,0.2109375 -0.14941406,0 -0.25488281,-0.04101562 -0.31640625,-0.1171875 -0.0644531,-0.07617187 -0.09375,-0.1640625 -0.09375,-0.2578125 z m 0,0"
         style="fill:#000000;fill-opacity:1;fill-rule:nonzero;stroke:none"
         aria-label="t"
         transform="matrix(1.3333333,0,0,1.3333333,279.12933,267.94667)"
         clip-path="url(#clipPath80)" />
      <path
         id="path81"
         d="m 1.8746797,-4.5109766 v -0.2460937 c 0,-0.084961 -0.017578,-0.1464844 -0.046875,-0.1875 -0.023437,-0.046875 -0.070312,-0.070312 -0.140625,-0.070312 -0.032227,0 -0.082031,0.011719 -0.1523438,0.035156 -0.064453,0.017578 -0.1347656,0.043945 -0.2109375,0.082031 l -0.56249996,0.2695312 -0.0820313,-0.1640625 c 0.2578125,-0.1318359 0.53906246,-0.28125 0.84374996,-0.4453125 0.3046875,-0.1640625 0.6708985,-0.3691406 1.1015626,-0.6210937 v 4.8046875 c 0,0.41601561 0.046875,0.66503905 0.140625,0.74999999 0.099609,0.0878906 0.3574219,0.12890625 0.7734375,0.12890625 H 3.6676484 V 7.421875e-4 H 0.77311719 V -0.17503906 c 0.50683591,0 0.81445311,-0.046875 0.92578121,-0.140625 0.1171875,-0.0996094 0.1757813,-0.34570313 0.1757813,-0.73828124 z M 4.262375,0.76246094 6.4069062,-5.8234766 h 0.375 L 4.637375,0.76246094 Z m 0,0"
         style="fill:#000000;fill-opacity:1;fill-rule:nonzero;stroke:none"
         aria-label="1/"
         transform="matrix(1.3333333,0,0,1.3333333,351.12933,210.34667)"
         clip-path="url(#clipPath82)" />
      <path
         id="path83"
         d="m 2.1576625,-3.2219141 c 0,0.046875 0,0.1142578 0,0.1992188 -0.023437,0.618164 -0.035156,1.0634765 -0.035156,1.3359375 v 0.28125 c 0,0.49218749 0.026367,0.80566405 0.082031,0.93749999 0.061523,0.12597656 0.1757813,0.1875 0.3398438,0.1875 0.1933593,0 0.3398437,-0.0761719 0.4335937,-0.234375 0.099609,-0.1640625 0.1582031,-0.42480469 0.1757813,-0.78515629 h 0.2109375 v 0.035156 c 0,0.45410155 -0.087891,0.79101561 -0.2578125,1.00781249 -0.1728516,0.21972656 -0.4394532,0.328125 -0.796875,0.328125 -0.375,0 -0.6386719,-0.10546875 -0.7851563,-0.31640625 -0.1494141,-0.21679688 -0.2226562,-0.70605469 -0.2226562,-1.46484374 0,-0.1171875 0.00293,-0.3105469 0.011719,-0.5859375 0.00586,-0.272461 0.014648,-0.5859375 0.023437,-0.9375 -0.00879,0 -0.029297,-0.00293 -0.058594,-0.011719 -0.210937,-0.014648 -0.35742142,-0.023437 -0.4335933,-0.023437 -0.25195312,0 -0.45117187,0.041016 -0.59765625,0.1171875 C 0.09809219,-3.0725 0.00727188,-2.9582422 -0.022025,-2.8117578 h -0.1875 c 0.0234375,-0.3896485 0.14648438,-0.6621094 0.36328125,-0.8203125 0.22558594,-0.1640625 0.61523438,-0.2460938 1.17187505,-0.2460938 0.140625,0 0.3632812,0.011719 0.6679687,0.035156 0.3046875,0.017578 0.5390625,0.023437 0.703125,0.023437 0.2636719,0 0.4628906,-0.017578 0.5976563,-0.058594 0.1318359,-0.046875 0.1992187,-0.1083984 0.1992187,-0.1875 v -0.011719 h 0.1640625 c 0,0.3222656 -0.082031,0.5478515 -0.2460937,0.6796875 -0.1582032,0.1347656 -0.4335938,0.1992187 -0.8320313,0.1992187 -0.087891,0 -0.2197266,-0.00586 -0.3984375,-0.023437 z m 0,0"
         style="fill:#000000;fill-opacity:1;fill-rule:nonzero;stroke:none"
         aria-label="τ"
         transform="matrix(1.3333333,0,0,1.3333333,360.09187,210.34667)"
         clip-path="url(#clipPath84)" />
      <path
         id="path85"
         d="m 1.8740937,-4.5115625 v -0.2460938 c 0,-0.084961 -0.017578,-0.1464843 -0.046875,-0.1875 -0.023437,-0.046875 -0.070312,-0.070312 -0.140625,-0.070312 -0.032226,0 -0.082031,0.011719 -0.1523437,0.035156 -0.064453,0.017578 -0.1347656,0.043945 -0.2109375,0.082031 l -0.5625,0.2695313 -0.0820313,-0.1640625 c 0.2578125,-0.1318359 0.5390624,-0.28125 0.8437499,-0.4453125 0.3046875,-0.1640625 0.6708985,-0.3691406 1.1015625,-0.6210938 v 4.8046875 c 0,0.41601567 0.046875,0.66503911 0.140625,0.75000005 0.099609,0.0878906 0.3574219,0.12890625 0.7734375,0.12890625 H 3.6670625 V 1.5625e-4 H 0.77253125 V -0.175625 C 1.2793672,-0.175625 1.5869844,-0.2225 1.6983125,-0.31625 1.8155,-0.41585938 1.8740937,-0.66195313 1.8740937,-1.0545313 Z M 4.2617891,0.761875 6.4063203,-5.8240625 h 0.375 L 4.6367891,0.761875 Z m 0,0"
         style="fill:#000000;fill-opacity:1;fill-rule:nonzero;stroke:none"
         aria-label="1/"
         transform="matrix(1.3333333,0,0,1.3333333,466.32933,181.54667)"
         clip-path="url(#clipPath86)" />
      <path
         id="path87"
         d="m 2.1570766,-3.2225 c 0,0.046875 0,0.1142578 0,0.1992187 -0.023437,0.6181641 -0.035156,1.0634766 -0.035156,1.3359375 v 0.28125 c 0,0.49218755 0.026367,0.80566411 0.082031,0.93750005 0.061523,0.12597656 0.1757812,0.1875 0.3398437,0.1875 0.1933594,0 0.3398438,-0.0761719 0.4335938,-0.234375 0.099609,-0.1640625 0.1582031,-0.42480469 0.1757812,-0.78515625 h 0.2109375 v 0.035156 c 0,0.45410161 -0.087891,0.79101567 -0.2578125,1.00781255 -0.1728515,0.21972656 -0.4394531,0.328125 -0.796875,0.328125 -0.375,0 -0.6386719,-0.10546875 -0.7851562,-0.31640625 C 1.37485,-0.46273438 1.3016078,-0.95199219 1.3016078,-1.7107813 c 0,-0.1171875 0.00293,-0.3105468 0.011719,-0.5859375 0.00586,-0.2724609 0.014648,-0.5859375 0.023437,-0.9375 -0.00879,0 -0.029297,-0.00293 -0.058594,-0.011719 -0.2109375,-0.014648 -0.35742186,-0.023437 -0.43359374,-0.023437 -0.25195312,0 -0.45117187,0.041016 -0.59765625,0.1171875 -0.14941406,0.079102 -0.24023437,0.1933594 -0.26953125,0.3398437 h -0.1875 C -0.18667394,-3.201992 -0.06362706,-3.4744529 0.15316981,-3.6326561 0.37875625,-3.7967188 0.76840469,-3.87875 1.3250453,-3.87875 c 0.140625,0 0.3632813,0.011719 0.6679688,0.035156 0.3046875,0.017578 0.5390625,0.023437 0.703125,0.023437 0.2636718,0 0.4628906,-0.017578 0.5976562,-0.058594 0.131836,-0.046875 0.1992188,-0.1083984 0.1992188,-0.1875 V -4.07797 h 0.1640625 c 0,0.3222657 -0.082031,0.5478516 -0.2460938,0.6796875 -0.1582031,0.1347657 -0.4335937,0.1992188 -0.8320312,0.1992188 -0.087891,0 -0.2197266,-0.00586 -0.3984375,-0.023437 z m 0,0"
         style="fill:#000000;fill-opacity:1;fill-rule:nonzero;stroke:none"
         aria-label="τ"
         transform="matrix(1.3333333,0,0,1.3333333,475.29187,181.54667)"
         clip-path="url(#clipPath88)" />
      <path
         id="path89"
         d="m 1.8740938,-4.5103906 v -0.2460938 c 0,-0.084961 -0.017578,-0.1464844 -0.046875,-0.1875 -0.023437,-0.046875 -0.070312,-0.070312 -0.140625,-0.070312 -0.032227,0 -0.082031,0.011719 -0.1523438,0.035156 -0.064453,0.017578 -0.1347656,0.043945 -0.2109375,0.082031 l -0.5625,0.2695313 -0.0820313,-0.1640625 c 0.2578125,-0.131836 0.5390626,-0.28125 0.84375,-0.4453125 0.3046875,-0.1640625 0.6708985,-0.3691407 1.1015626,-0.6210938 v 4.8046875 c 0,0.41601565 0.046875,0.66503909 0.140625,0.75000002 0.099609,0.0878906 0.3574218,0.12890625 0.7734375,0.12890625 H 3.6670625 V 0.00132812 H 0.77253125 v -0.17578125 c 0.50683595,0 0.81445315,-0.046875 0.92578125,-0.140625 C 1.8155,-0.4146875 1.8740938,-0.66078125 1.8740938,-1.0533594 Z M 4.2617891,0.76304687 6.4063203,-5.8228906 h 0.375 L 4.6367891,0.76304687 Z m 0,0"
         style="fill:#000000;fill-opacity:1;fill-rule:nonzero;stroke:none"
         aria-label="1/"
         transform="matrix(1.3333333,0,0,1.3333333,214.32933,239.14667)"
         clip-path="url(#clipPath90)" />
      <path
         id="path91"
         d="m 2.1570766,-3.2213281 c 0,0.046875 0,0.1142578 0,0.1992187 -0.023437,0.6181641 -0.035156,1.0634766 -0.035156,1.3359375 v 0.28125 c 0,0.49218752 0.026367,0.80566409 0.082031,0.93750002 0.061523,0.12597657 0.1757812,0.1875 0.3398437,0.1875 0.1933594,0 0.3398438,-0.0761719 0.4335938,-0.234375 0.099609,-0.1640625 0.1582031,-0.42480468 0.1757812,-0.78515622 h 0.2109375 v 0.035156 c 0,0.45410159 -0.087891,0.79101565 -0.2578125,1.00781252 -0.1728516,0.21972657 -0.4394531,0.328125 -0.796875,0.328125 -0.375,0 -0.6386719,-0.10546875 -0.7851562,-0.31640625 C 1.37485,-0.4615625 1.3016078,-0.95082031 1.3016078,-1.7096094 c 0,-0.1171875 0.00293,-0.3105469 0.011719,-0.5859375 0.00586,-0.2724609 0.014648,-0.5859375 0.023437,-0.9375 -0.00879,0 -0.029297,-0.00293 -0.058594,-0.011719 -0.2109375,-0.014648 -0.35742186,-0.023437 -0.43359374,-0.023437 -0.25195312,0 -0.45117187,0.041016 -0.59765625,0.1171875 -0.14941406,0.079102 -0.24023437,0.1933593 -0.26953125,0.3398437 h -0.1875 c 0.0234375,-0.3896484 0.14648438,-0.6621094 0.36328125,-0.8203125 0.22558594,-0.1640625 0.61523438,-0.2460937 1.17187499,-0.2460937 0.140625,0 0.3632813,0.011719 0.6679688,0.035156 0.3046875,0.017578 0.5390625,0.023437 0.703125,0.023437 0.2636718,0 0.4628906,-0.017578 0.5976562,-0.058594 0.1318359,-0.046875 0.1992188,-0.1083985 0.1992188,-0.1875 v -0.011719 h 0.1640625 c 0,0.3222656 -0.082031,0.5478516 -0.2460938,0.6796875 -0.1582031,0.1347656 -0.4335937,0.1992188 -0.8320312,0.1992188 -0.087891,0 -0.2197266,-0.00586 -0.3984375,-0.023437 z m 0,0"
         style="fill:#000000;fill-opacity:1;fill-rule:nonzero;stroke:none"
         aria-label="τ"
         transform="matrix(1.3333333,0,0,1.3333333,223.29187,239.14667)"
         clip-path="url(#clipPath92)" />
      <path
         id="path93"
         d="m 0.32780469,-0.28226563 c 0,-0.0234375 0,-0.046875 0,-0.0703125 0,-0.0292969 0.005859,-0.0615234 0.0234375,-0.09375 L 1.1363984,-3.3994531 H 0.49186719 c 0,-0.070312 0.00293,-0.1113282 0.0117188,-0.1289063 0.0146484,-0.023437 0.046875,-0.046875 0.09375,-0.070312 0.28125,-0.1171875 0.49804681,-0.2285156 0.65625001,-0.3398437 0.1552735,-0.1171875 0.3691407,-0.3339844 0.6445313,-0.65625 l 0.070312,-0.082031 c 0.00586,-0.014648 0.014648,-0.023437 0.023437,-0.023437 0.014648,-0.00586 0.029297,-0.011719 0.046875,-0.011719 0.023437,0 0.041016,0.00586 0.058594,0.011719 0.00586,0.023437 0.011719,0.043945 0.011719,0.058594 0,0.017578 0,0.032226 0,0.046875 l -0.2460938,0.9140625 h 0.6914063 l -0.046875,0.28125 H 1.7926484 l -0.7617187,2.83593747 c -0.017578,0.0556641 -0.011719,0.10546875 0.011719,0.15234375 0.023437,0.046875 0.061524,0.0703125 0.1171875,0.0703125 0.070312,0 0.1699219,-0.0732422 0.3046875,-0.22265625 0.076172,-0.0761719 0.2050782,-0.234375 0.3867188,-0.46874997 l 0.1054687,0.0703125 -0.058594,0.0820313 c -0.2431641,0.36914063 -0.4570313,0.62109375 -0.6445313,0.76171875 -0.1816406,0.140625 -0.35156246,0.2109375 -0.51562496,0.2109375 -0.14941407,0 -0.25488282,-0.04101562 -0.31640625,-0.1171875 -0.0644531,-0.07617187 -0.09375,-0.1640625 -0.09375,-0.2578125 z m 86.39941431,0 c 0,-0.0234375 0,-0.046875 0,-0.0703125 0,-0.0292969 0.0059,-0.0615234 0.02344,-0.09375 l 0.785156,-2.95312497 h -0.644531 c 0,-0.070312 0.0029,-0.1113282 0.01172,-0.1289063 0.01465,-0.023437 0.04687,-0.046875 0.09375,-0.070312 0.28125,-0.1171875 0.498047,-0.2285156 0.65625,-0.3398437 0.155273,-0.1171875 0.369141,-0.3339844 0.644531,-0.65625 l 0.07031,-0.082031 c 0.0059,-0.014648 0.01465,-0.023437 0.02344,-0.023437 0.01465,-0.00586 0.0293,-0.011719 0.04687,-0.011719 0.02344,0 0.04102,0.00586 0.05859,0.011719 0.0059,0.023437 0.01172,0.043945 0.01172,0.058594 0,0.017578 0,0.032226 0,0.046875 l -0.246094,0.9140625 h 0.691406 l -0.04687,0.28125 h -0.714844 l -0.761718,2.83593747 c -0.01758,0.0556641 -0.01172,0.10546875 0.01172,0.15234375 0.02344,0.046875 0.06152,0.0703125 0.117188,0.0703125 0.07031,0 0.169922,-0.0732422 0.304687,-0.22265625 0.07617,-0.0761719 0.205079,-0.234375 0.386719,-0.46874997 l 0.105469,0.0703125 -0.05859,0.0820313 c -0.243164,0.36914063 -0.457031,0.62109375 -0.644531,0.76171875 -0.181641,0.140625 -0.351563,0.2109375 -0.515625,0.2109375 -0.149414,0 -0.254883,-0.04101562 -0.316406,-0.1171875 -0.06445,-0.07617187 -0.09375,-0.1640625 -0.09375,-0.2578125 z m 0,0"
         style="fill:#000000;fill-opacity:1;fill-rule:nonzero;stroke:none"
         aria-label="tt"
         transform="matrix(1.3333333,0,0,1.3333333,387.12933,267.94667)"
         clip-path="url(#clipPath94)" />
    </g>
  </g>
</svg>
